<?xml version="1.0" encoding="UTF-8" standalone="no"?>
<!-- Created with Inkscape (http://www.inkscape.org/) -->

<svg
   xmlns:dc="http://purl.org/dc/elements/1.1/"
   xmlns:cc="http://creativecommons.org/ns#"
   xmlns:rdf="http://www.w3.org/1999/02/22-rdf-syntax-ns#"
   xmlns:svg="http://www.w3.org/2000/svg"
   xmlns="http://www.w3.org/2000/svg"
   xmlns:sodipodi="http://sodipodi.sourceforge.net/DTD/sodipodi-0.dtd"
   xmlns:inkscape="http://www.inkscape.org/namespaces/inkscape"
   id="svg2"
   version="1.1"
   inkscape:version="0.92.3 (2405546, 2018-03-11)"
   width="71.031609mm"
   height="66.640076mm"
   viewBox="0 0 251.6868 236.12624"
   sodipodi:docname="data-structures-overview-otp.svg">
  <metadata
     id="metadata8">
    <rdf:RDF>
      <cc:Work
         rdf:about="">
        <dc:format>image/svg+xml</dc:format>
        <dc:type
           rdf:resource="http://purl.org/dc/dcmitype/StillImage" />
        <dc:title></dc:title>
      </cc:Work>
    </rdf:RDF>
  </metadata>
  <defs
     id="defs6" />
  <sodipodi:namedview
     pagecolor="#ffffff"
     bordercolor="#666666"
     borderopacity="1"
     objecttolerance="10"
     gridtolerance="10"
     guidetolerance="10"
     inkscape:pageopacity="0"
     inkscape:pageshadow="2"
     inkscape:window-width="1600"
     inkscape:window-height="832"
     id="namedview4"
     showgrid="false"
     units="mm"
     fit-margin-top="5"
     fit-margin-left="5"
     fit-margin-bottom="5"
     fit-margin-right="5"
     inkscape:zoom="1.3740902"
     inkscape:cx="-44.584396"
     inkscape:cy="89.882063"
     inkscape:window-x="0"
     inkscape:window-y="32"
     inkscape:window-maximized="1"
     inkscape:current-layer="svg2" />
  <path
     style="fill:none;fill-opacity:1;stroke:#000000;stroke-width:1.0629921;stroke-miterlimit:4;stroke-dasharray:none"
     d="M 25.959854,18.248032 H 178.9814 c 4.27235,0 7.71182,3.439472 7.71182,7.711822 V 210.16641 c 0,4.27235 -3.43947,7.71182 -7.71182,7.71182 H 25.959854 c -4.27235,0 -7.711822,-3.43947 -7.711822,-7.71182 V 25.959854 c 0,-4.27235 3.439472,-7.711822 7.711822,-7.711822 z"
     id="rect3342" />
  <g
     id="g3551"
     transform="translate(17.911261,-433.40918)">
    <g
       transform="translate(0,9.4608307)"
       id="g3457">
      <g
         aria-label="NULL"
         style="font-style:normal;font-weight:normal;line-height:0%;font-family:sans-serif;letter-spacing:0px;word-spacing:0px;fill:#000000;fill-opacity:1;stroke:none;stroke-width:1px;stroke-linecap:butt;stroke-linejoin:miter;stroke-opacity:1"
         id="text3338">
        <path
           d="m 189.27434,463.91995 h -2.19727 l -4.27734,-7.0166 v 7.0166 h -2.19727 v -10.66406 h 2.19727 l 4.28467,7.03125 v -7.03125 h 2.18994 z"
           style="font-style:normal;font-variant:normal;font-weight:bold;font-stretch:normal;font-size:15px;line-height:1.25;font-family:Roboto;-inkscape-font-specification:'Roboto Bold'"
           id="path34" />
        <path
           d="m 199.27922,453.25589 v 7.02393 q 0,1.75048 -1.09863,2.76855 -1.09131,1.01807 -2.98828,1.01807 -1.86768,0 -2.96631,-0.98877 -1.09863,-0.98877 -1.12061,-2.71729 v -7.10449 h 2.19727 v 7.03857 q 0,1.04737 0.49804,1.53077 0.50538,0.47607 1.39161,0.47607 1.85302,0 1.88232,-1.94824 v -7.09717 z"
           style="font-style:normal;font-variant:normal;font-weight:bold;font-stretch:normal;font-size:15px;line-height:1.25;font-family:Roboto;-inkscape-font-specification:'Roboto Bold'"
           id="path36" />
        <path
           d="m 203.27824,462.15482 h 4.66553 v 1.76513 h -6.86279 v -10.66406 h 2.19726 z"
           style="font-style:normal;font-variant:normal;font-weight:bold;font-stretch:normal;font-size:15px;line-height:1.25;font-family:Roboto;-inkscape-font-specification:'Roboto Bold'"
           id="path38" />
        <path
           d="m 211.39348,462.15482 h 4.66553 v 1.76513 h -6.8628 v -10.66406 h 2.19727 z"
           style="font-style:normal;font-variant:normal;font-weight:bold;font-stretch:normal;font-size:15px;line-height:1.25;font-family:Roboto;-inkscape-font-specification:'Roboto Bold'"
           id="path40" />
      </g>
      <g
         aria-label="Atomic vectors"
         style="font-style:normal;font-weight:normal;line-height:0%;font-family:sans-serif;letter-spacing:0px;word-spacing:0px;fill:#000000;fill-opacity:1;stroke:none;stroke-width:1px;stroke-linecap:butt;stroke-linejoin:miter;stroke-opacity:1"
         id="text3344">
        <path
           d="m 22.149442,462.12552 h -3.852539 l -0.732422,2.19726 h -2.336426 l 3.969727,-10.66406 h 2.036132 l 3.9917,10.66406 h -2.336426 z m -3.259278,-1.77979 h 2.666016 l -1.340332,-3.9917 z"
           style="font-style:normal;font-variant:normal;font-weight:bold;font-stretch:normal;font-size:15px;line-height:1.25;font-family:Roboto;-inkscape-font-specification:'Roboto Bold'"
           id="path43" />
        <path
           d="m 28.514188,454.44974 v 1.94824 h 1.35498 v 1.55273 h -1.35498 v 3.95508 q 0,0.43946 0.168457,0.62989 0.168457,0.19042 0.644531,0.19042 0.351563,0 0.622559,-0.0513 v 1.604 q -0.622559,0.19043 -1.281739,0.19043 -2.226562,0 -2.270507,-2.24854 v -4.27002 h -1.157227 v -1.55273 h 1.157227 v -1.94824 z"
           style="font-style:normal;font-variant:normal;font-weight:bold;font-stretch:normal;font-size:15px;line-height:1.25;font-family:Roboto;-inkscape-font-specification:'Roboto Bold'"
           id="path45" />
        <path
           d="m 30.5137,460.28714 q 0,-1.1792 0.454101,-2.10205 0.454102,-0.92285 1.303711,-1.42822 0.856934,-0.50537 1.984863,-0.50537 1.604004,0 2.614746,0.98144 1.018067,0.98145 1.135254,2.66602 l 0.01465,0.54199 q 0,1.82373 -1.018067,2.92969 -1.018066,1.09863 -2.731933,1.09863 -1.713867,0 -2.739258,-1.09863 Q 30.5137,462.272 30.5137,460.38235 Z m 2.116699,0.15381 q 0,1.12793 0.424804,1.72851 0.424805,0.59327 1.215821,0.59327 0.769043,0 1.201172,-0.58594 0.432129,-0.59326 0.432129,-1.88965 0,-1.10596 -0.432129,-1.71387 -0.432129,-0.60791 -1.215821,-0.60791 -0.776367,0 -1.201172,0.60791 -0.424804,0.60059 -0.424804,1.86768 z"
           style="font-style:normal;font-variant:normal;font-weight:bold;font-stretch:normal;font-size:15px;line-height:1.25;font-family:Roboto;-inkscape-font-specification:'Roboto Bold'"
           id="path47" />
        <path
           d="m 41.324246,456.39798 0.06592,0.88623 q 0.842286,-1.03271 2.277832,-1.03271 1.530762,0 2.102051,1.20849 0.834961,-1.20849 2.380371,-1.20849 1.289063,0 1.918946,0.75439 0.629882,0.74707 0.629882,2.25586 v 5.06103 h -2.124023 v -5.05371 q 0,-0.67382 -0.263672,-0.98144 -0.263672,-0.31494 -0.930176,-0.31494 -0.952148,0 -1.318359,0.9082 l 0.0073,5.44189 h -2.116699 v -5.04638 q 0,-0.68848 -0.270996,-0.9961 -0.270996,-0.30761 -0.922852,-0.30761 -0.900879,0 -1.303711,0.74707 v 5.60302 h -2.116699 v -7.9248 z"
           style="font-style:normal;font-variant:normal;font-weight:bold;font-stretch:normal;font-size:15px;line-height:1.25;font-family:Roboto;-inkscape-font-specification:'Roboto Bold'"
           id="path49" />
        <path
           d="m 54.551785,464.32278 h -2.124023 v -7.9248 h 2.124023 z M 52.30325,454.3472 q 0,-0.47608 0.314942,-0.78369 0.322265,-0.30762 0.871582,-0.30762 0.541992,0 0.864258,0.30762 0.322265,0.30761 0.322265,0.78369 0,0.4834 -0.32959,0.79101 -0.322265,0.30762 -0.856933,0.30762 -0.534668,0 -0.864258,-0.30762 -0.322266,-0.30761 -0.322266,-0.79101 z"
           style="font-style:normal;font-variant:normal;font-weight:bold;font-stretch:normal;font-size:15px;line-height:1.25;font-family:Roboto;-inkscape-font-specification:'Roboto Bold'"
           id="path51" />
        <path
           d="m 59.598172,462.76273 q 0.585938,0 0.952149,-0.32227 0.366211,-0.32227 0.380859,-0.85693 h 1.984863 q -0.0073,0.80566 -0.439453,1.47949 -0.432129,0.6665 -1.186523,1.04004 -0.747071,0.36621 -1.655274,0.36621 -1.699218,0 -2.680664,-1.07666 -0.981445,-1.08399 -0.981445,-2.98828 v -0.13916 q 0,-1.83106 0.974121,-2.92237 0.974121,-1.0913 2.67334,-1.0913 1.486816,0 2.380371,0.8496 0.900879,0.84229 0.915527,2.24854 H 60.93118 q -0.01465,-0.61523 -0.380859,-0.99609 -0.366211,-0.38819 -0.966797,-0.38819 -0.739746,0 -1.120606,0.54199 -0.373535,0.53467 -0.373535,1.74317 v 0.21973 q 0,1.22314 0.373535,1.75781 0.373535,0.53467 1.135254,0.53467 z"
           style="font-style:normal;font-variant:normal;font-weight:bold;font-stretch:normal;font-size:15px;line-height:1.25;font-family:Roboto;-inkscape-font-specification:'Roboto Bold'"
           id="path53" />
        <path
           d="m 70.840848,461.73734 1.472168,-5.33936 h 2.211914 l -2.67334,7.9248 h -2.021484 l -2.67334,-7.9248 h 2.211914 z"
           style="font-style:normal;font-variant:normal;font-weight:bold;font-stretch:normal;font-size:15px;line-height:1.25;font-family:Roboto;-inkscape-font-specification:'Roboto Bold'"
           id="path55" />
        <path
           d="m 79.109891,464.46927 q -1.743164,0 -2.841797,-1.06934 -1.091309,-1.06933 -1.091309,-2.84912 v -0.20508 q 0,-1.19384 0.461426,-2.13134 0.461426,-0.94483 1.303711,-1.4502 0.84961,-0.51269 1.933594,-0.51269 1.625977,0 2.556152,1.02539 0.9375,1.02539 0.9375,2.90771 v 0.86426 h -5.046386 q 0.102539,0.77637 0.615234,1.24512 0.520019,0.46875 1.311035,0.46875 1.223145,0 1.911621,-0.88623 l 1.040039,1.16455 q -0.476074,0.67382 -1.289062,1.05468 -0.812989,0.37354 -1.801758,0.37354 z m -0.241699,-6.50391 q -0.629883,0 -1.025391,0.42481 -0.388183,0.4248 -0.498047,1.21582 h 2.944336 v -0.16846 q -0.01465,-0.70312 -0.380859,-1.08398 -0.366211,-0.38819 -1.040039,-0.38819 z"
           style="font-style:normal;font-variant:normal;font-weight:bold;font-stretch:normal;font-size:15px;line-height:1.25;font-family:Roboto;-inkscape-font-specification:'Roboto Bold'"
           id="path57" />
        <path
           d="m 86.873563,462.76273 q 0.585937,0 0.952148,-0.32227 0.366211,-0.32227 0.38086,-0.85693 h 1.984863 q -0.0073,0.80566 -0.439453,1.47949 -0.432129,0.6665 -1.186524,1.04004 -0.74707,0.36621 -1.655273,0.36621 -1.699219,0 -2.680664,-1.07666 -0.981445,-1.08399 -0.981445,-2.98828 v -0.13916 q 0,-1.83106 0.974121,-2.92237 0.974121,-1.0913 2.673339,-1.0913 1.486817,0 2.380372,0.8496 0.900878,0.84229 0.915527,2.24854 h -1.984863 q -0.01465,-0.61523 -0.38086,-0.99609 -0.366211,-0.38819 -0.966797,-0.38819 -0.739746,0 -1.120605,0.54199 -0.373535,0.53467 -0.373535,1.74317 v 0.21973 q 0,1.22314 0.373535,1.75781 0.373535,0.53467 1.135254,0.53467 z"
           style="font-style:normal;font-variant:normal;font-weight:bold;font-stretch:normal;font-size:15px;line-height:1.25;font-family:Roboto;-inkscape-font-specification:'Roboto Bold'"
           id="path59" />
        <path
           d="m 93.93411,454.44974 v 1.94824 h 1.35498 v 1.55273 h -1.35498 v 3.95508 q 0,0.43946 0.168457,0.62989 0.168457,0.19042 0.644531,0.19042 0.351562,0 0.622559,-0.0513 v 1.604 q -0.622559,0.19043 -1.281739,0.19043 -2.226562,0 -2.270508,-2.24854 v -4.27002 h -1.157226 v -1.55273 h 1.157226 v -1.94824 z"
           style="font-style:normal;font-variant:normal;font-weight:bold;font-stretch:normal;font-size:15px;line-height:1.25;font-family:Roboto;-inkscape-font-specification:'Roboto Bold'"
           id="path61" />
        <path
           d="m 95.933621,460.28714 q 0,-1.1792 0.454102,-2.10205 0.454102,-0.92285 1.303711,-1.42822 0.856934,-0.50537 1.984863,-0.50537 1.604003,0 2.614743,0.98144 1.01807,0.98145 1.13526,2.66602 l 0.0147,0.54199 q 0,1.82373 -1.01807,2.92969 -1.01807,1.09863 -2.731934,1.09863 -1.713868,0 -2.739258,-1.09863 -1.018067,-1.09864 -1.018067,-2.98829 z m 2.1167,0.15381 q 0,1.12793 0.424804,1.72851 0.424805,0.59327 1.215821,0.59327 0.769044,0 1.201174,-0.58594 0.43213,-0.59326 0.43213,-1.88965 0,-1.10596 -0.43213,-1.71387 -0.43213,-0.60791 -1.215823,-0.60791 -0.776367,0 -1.201172,0.60791 -0.424804,0.60059 -0.424804,1.86768 z"
           style="font-style:normal;font-variant:normal;font-weight:bold;font-stretch:normal;font-size:15px;line-height:1.25;font-family:Roboto;-inkscape-font-specification:'Roboto Bold'"
           id="path63" />
        <path
           d="m 109.21243,458.38284 q -0.43213,-0.0586 -0.76172,-0.0586 -1.20117,0 -1.57471,0.81299 v 5.18554 h -2.11669 v -7.9248 h 1.99951 l 0.0586,0.94482 q 0.63721,-1.0913 1.76514,-1.0913 0.35156,0 0.65918,0.0952 z"
           style="font-style:normal;font-variant:normal;font-weight:bold;font-stretch:normal;font-size:15px;line-height:1.25;font-family:Roboto;-inkscape-font-specification:'Roboto Bold'"
           id="path65" />
        <path
           d="m 114.52981,462.13284 q 0,-0.38818 -0.38818,-0.60791 -0.38086,-0.22705 -1.23047,-0.40283 -2.82715,-0.59326 -2.82715,-2.40234 0,-1.05469 0.87158,-1.75782 0.87891,-0.71044 2.29248,-0.71044 1.50879,0 2.40967,0.71044 0.90821,0.71045 0.90821,1.84571 h -2.1167 q 0,-0.4541 -0.29297,-0.74707 -0.29297,-0.3003 -0.91553,-0.3003 -0.53467,0 -0.82764,0.2417 -0.29297,0.2417 -0.29297,0.61524 0,0.35156 0.32959,0.57129 0.33692,0.2124 1.12793,0.37353 0.79102,0.15381 1.33301,0.35156 1.67725,0.61524 1.67725,2.13135 0,1.08399 -0.93018,1.75781 -0.93017,0.66651 -2.40234,0.66651 -0.99609,0 -1.77246,-0.35156 -0.76905,-0.35889 -1.2085,-0.97412 -0.43945,-0.62256 -0.43945,-1.34034 h 2.00683 q 0.0293,0.56397 0.41749,0.86426 0.38818,0.30029 1.04003,0.30029 0.60791,0 0.91553,-0.22705 0.31494,-0.23437 0.31494,-0.60791 z"
           style="font-style:normal;font-variant:normal;font-weight:bold;font-stretch:normal;font-size:15px;line-height:1.25;font-family:Roboto;-inkscape-font-specification:'Roboto Bold'"
           id="path67" />
      </g>
    </g>
    <g
       id="g3530"
       style="stroke-width:1.0629921;stroke-miterlimit:4;stroke-dasharray:none">
      <g
         id="g3434"
         transform="translate(-1.8527171)"
         style="stroke-width:1.0629921;stroke-miterlimit:4;stroke-dasharray:none">
        <path
           style="fill:none;fill-opacity:1;stroke:#000000;stroke-width:1.0629921;stroke-miterlimit:4;stroke-dasharray:none"
           d="m 23.069931,486.87305 h 96.073379 c 3.27729,0 5.91569,2.6384 5.91569,5.91569 v 141.30385 c 0,3.27729 -2.6384,5.9157 -5.91569,5.9157 H 23.069931 c -3.277296,0 -5.915697,-2.63841 -5.915697,-5.9157 V 492.78874 c 0,-3.27729 2.638401,-5.91569 5.915697,-5.91569 z"
           id="rect3348" />
        <g
           transform="translate(0,8.4376144)"
           id="g3415"
           style="stroke-width:1.0629921;stroke-miterlimit:4;stroke-dasharray:none">
          <g
             id="g3513"
             transform="translate(0,1.8863373)"
             style="stroke-width:1.0629921;stroke-miterlimit:4;stroke-dasharray:none">
            <g
               aria-label="Logical"
               style="font-style:normal;font-weight:normal;line-height:0%;font-family:sans-serif;letter-spacing:0px;word-spacing:0px;fill:#000000;fill-opacity:1;stroke:none;stroke-width:1.0629921;stroke-linecap:butt;stroke-linejoin:miter;stroke-miterlimit:4;stroke-dasharray:none;stroke-opacity:1"
               id="text3350">
              <path
                 d="m 29.472221,495.42404 h 5.053711 v 1.1499 h -6.467285 v -10.66406 h 1.413574 z"
                 style="font-style:normal;font-variant:normal;font-weight:normal;font-stretch:normal;font-size:15px;line-height:1.25;font-family:Roboto;-inkscape-font-specification:Roboto;stroke-width:1.0629921;stroke-miterlimit:4;stroke-dasharray:none"
                 id="path71" />
              <path
                 d="m 35.573296,492.5383 q 0,-1.16455 0.454101,-2.09473 0.461426,-0.93017 1.274414,-1.43554 0.820313,-0.50537 1.867676,-0.50537 1.618652,0 2.614746,1.1206 1.003418,1.12061 1.003418,2.98096 v 0.0952 q 0,1.15723 -0.446777,2.08008 -0.439453,0.91553 -1.26709,1.42822 -0.820313,0.5127 -1.889649,0.5127 -1.611328,0 -2.614746,-1.12061 -0.996093,-1.1206 -0.996093,-2.96631 z m 1.362304,0.16113 q 0,1.31836 0.60791,2.1167 0.615235,0.79834 1.640625,0.79834 1.032715,0 1.640625,-0.80566 0.607911,-0.81299 0.607911,-2.27051 0,-1.30371 -0.622559,-2.10938 -0.615234,-0.81298 -1.640625,-0.81298 -1.003418,0 -1.618652,0.79834 -0.615235,0.79834 -0.615235,2.28515 z"
                 style="font-style:normal;font-variant:normal;font-weight:normal;font-stretch:normal;font-size:15px;line-height:1.25;font-family:Roboto;-inkscape-font-specification:Roboto;stroke-width:1.0629921;stroke-miterlimit:4;stroke-dasharray:none"
                 id="path73" />
              <path
                 d="m 44.164604,492.54562 q 0,-1.85302 0.856934,-2.94433 0.856933,-1.09863 2.270508,-1.09863 1.450195,0 2.263183,1.02539 l 0.06592,-0.87891 h 1.237793 v 7.73437 q 0,1.53809 -0.915527,2.42432 -0.908203,0.88623 -2.446289,0.88623 -0.856934,0 -1.677246,-0.36621 -0.820313,-0.36621 -1.252442,-1.00342 l 0.703125,-0.81299 q 0.871582,1.07666 2.131348,1.07666 0.988769,0 1.538086,-0.55664 0.55664,-0.55664 0.55664,-1.56738 v -0.68115 q -0.812988,0.9375 -2.219238,0.9375 -1.391601,0 -2.255859,-1.12061 -0.856934,-1.1206 -0.856934,-3.0542 z m 1.362305,0.15381 q 0,1.34033 0.549316,2.10938 0.549317,0.76172 1.538086,0.76172 1.281738,0 1.882324,-1.16455 v -3.61817 q -0.622558,-1.13525 -1.867675,-1.13525 -0.98877,0 -1.545411,0.76904 -0.55664,0.76904 -0.55664,2.27783 z"
                 style="font-style:normal;font-variant:normal;font-weight:normal;font-stretch:normal;font-size:15px;line-height:1.25;font-family:Roboto;-inkscape-font-specification:Roboto;stroke-width:1.0629921;stroke-miterlimit:4;stroke-dasharray:none"
                 id="path75" />
              <path
                 d="M 54.367241,496.57394 H 53.01226 v -7.9248 h 1.354981 z m -1.464844,-10.02685 q 0,-0.32959 0.197754,-0.55664 0.205078,-0.22705 0.600586,-0.22705 0.395508,0 0.600586,0.22705 0.205078,0.22705 0.205078,0.55664 0,0.32959 -0.205078,0.54932 -0.205078,0.21972 -0.600586,0.21972 -0.395508,0 -0.600586,-0.21972 -0.197754,-0.21973 -0.197754,-0.54932 z"
                 style="font-style:normal;font-variant:normal;font-weight:normal;font-stretch:normal;font-size:15px;line-height:1.25;font-family:Roboto;-inkscape-font-specification:Roboto;stroke-width:1.0629921;stroke-miterlimit:4;stroke-dasharray:none"
                 id="path77" />
              <path
                 d="m 59.706596,495.61447 q 0.725098,0 1.26709,-0.43945 0.541992,-0.43945 0.600586,-1.09863 h 1.281738 q -0.03662,0.68115 -0.46875,1.29638 -0.432128,0.61524 -1.157226,0.98145 -0.717774,0.36621 -1.523438,0.36621 -1.618652,0 -2.578125,-1.07666 -0.952148,-1.08399 -0.952148,-2.95899 v -0.22705 q 0,-1.15722 0.424805,-2.0581 0.424804,-0.90088 1.21582,-1.39893 0.79834,-0.49804 1.882324,-0.49804 1.333008,0 2.211914,0.79833 0.886231,0.79834 0.944824,2.07276 h -1.281738 q -0.05859,-0.76904 -0.585937,-1.25977 -0.52002,-0.49804 -1.289063,-0.49804 -1.032715,0 -1.604004,0.74707 -0.563965,0.73974 -0.563965,2.14599 v 0.25635 q 0,1.36963 0.563965,2.10938 0.563965,0.73974 1.611328,0.73974 z"
                 style="font-style:normal;font-variant:normal;font-weight:normal;font-stretch:normal;font-size:15px;line-height:1.25;font-family:Roboto;-inkscape-font-specification:Roboto;stroke-width:1.0629921;stroke-miterlimit:4;stroke-dasharray:none"
                 id="path79" />
              <path
                 d="m 69.272026,496.57394 q -0.117187,-0.23437 -0.19043,-0.83496 -0.944824,0.98145 -2.255859,0.98145 -1.171875,0 -1.92627,-0.65918 -0.74707,-0.66651 -0.74707,-1.68457 0,-1.23779 0.9375,-1.91895 0.944824,-0.68847 2.651367,-0.68847 h 1.31836 v -0.62256 q 0,-0.71045 -0.424805,-1.12793 -0.424805,-0.42481 -1.252441,-0.42481 -0.725098,0 -1.215821,0.36621 -0.490722,0.36622 -0.490722,0.88624 H 64.31353 q 0,-0.59327 0.41748,-1.14258 0.424805,-0.55664 1.142579,-0.87891 0.725097,-0.32226 1.589355,-0.32226 1.369629,0 2.145996,0.68847 0.776367,0.68115 0.805664,1.88233 v 3.64746 q 0,1.09131 0.27832,1.73584 v 0.11718 z m -2.248535,-1.03271 q 0.637207,0 1.208496,-0.32959 0.571289,-0.32959 0.827637,-0.85693 v -1.62598 h -1.062012 q -2.490234,0 -2.490234,1.45752 0,0.63721 0.424804,0.99609 0.424805,0.35889 1.091309,0.35889 z"
                 style="font-style:normal;font-variant:normal;font-weight:normal;font-stretch:normal;font-size:15px;line-height:1.25;font-family:Roboto;-inkscape-font-specification:Roboto;stroke-width:1.0629921;stroke-miterlimit:4;stroke-dasharray:none"
                 id="path81" />
              <path
                 d="m 74.025444,496.57394 h -1.35498 v -11.25 h 1.35498 z"
                 style="font-style:normal;font-variant:normal;font-weight:normal;font-stretch:normal;font-size:15px;line-height:1.25;font-family:Roboto;-inkscape-font-specification:Roboto;stroke-width:1.0629921;stroke-miterlimit:4;stroke-dasharray:none"
                 id="path83" />
            </g>
            <g
               aria-label="Character"
               style="font-style:normal;font-weight:normal;line-height:0%;font-family:sans-serif;letter-spacing:0px;word-spacing:0px;fill:#000000;fill-opacity:1;stroke:none;stroke-width:1.0629921;stroke-linecap:butt;stroke-linejoin:miter;stroke-miterlimit:4;stroke-dasharray:none;stroke-opacity:1"
               id="text3368">
              <path
                 d="m 35.902885,617.37921 q -0.197753,1.6919 -1.252441,2.61475 -1.047363,0.91552 -2.790527,0.91552 -1.889649,0 -3.032227,-1.35498 -1.135254,-1.35498 -1.135254,-3.62548 v -1.02539 q 0,-1.48682 0.527344,-2.61475 0.534668,-1.12793 1.508789,-1.72852 0.974121,-0.60791 2.255859,-0.60791 1.699219,0 2.72461,0.95215 1.02539,0.94483 1.193847,2.62207 h -1.413574 q -0.183105,-1.27441 -0.79834,-1.8457 -0.60791,-0.57129 -1.706543,-0.57129 -1.347656,0 -2.116699,0.99609 -0.761719,0.9961 -0.761719,2.83448 v 1.03271 q 0,1.73584 0.725098,2.76123 0.725098,1.02539 2.028809,1.02539 1.171875,0 1.794433,-0.52734 0.629883,-0.53467 0.834961,-1.85303 z"
                 style="font-style:normal;font-variant:normal;font-weight:normal;font-stretch:normal;font-size:15px;line-height:1.25;font-family:Roboto;-inkscape-font-specification:Roboto;stroke-width:1.0629921;stroke-miterlimit:4;stroke-dasharray:none"
                 id="path86" />
              <path
                 d="m 38.957085,613.79767 q 0.900879,-1.10596 2.34375,-1.10596 2.512207,0 2.534179,2.83447 v 5.23682 h -1.35498 v -5.24414 q -0.0073,-0.85693 -0.395508,-1.26709 -0.380859,-0.41016 -1.193848,-0.41016 -0.659179,0 -1.157226,0.35157 -0.498047,0.35156 -0.776367,0.92285 v 5.64697 h -1.354981 v -11.25 h 1.354981 z"
                 style="font-style:normal;font-variant:normal;font-weight:normal;font-stretch:normal;font-size:15px;line-height:1.25;font-family:Roboto;-inkscape-font-specification:Roboto;stroke-width:1.0629921;stroke-miterlimit:4;stroke-dasharray:none"
                 id="path88" />
              <path
                 d="m 50.756401,620.763 q -0.117187,-0.23437 -0.19043,-0.83496 -0.944824,0.98144 -2.255859,0.98144 -1.171875,0 -1.92627,-0.65917 -0.74707,-0.66651 -0.74707,-1.68458 0,-1.23779 0.9375,-1.91894 0.944824,-0.68848 2.651367,-0.68848 h 1.31836 v -0.62256 q 0,-0.71044 -0.424805,-1.12793 -0.424805,-0.4248 -1.252441,-0.4248 -0.725098,0 -1.215821,0.36621 -0.490722,0.36621 -0.490722,0.88623 h -1.362305 q 0,-0.59326 0.41748,-1.14258 0.424805,-0.55664 1.142579,-0.8789 0.725097,-0.32227 1.589355,-0.32227 1.369629,0 2.145996,0.68848 0.776367,0.68115 0.805664,1.88232 v 3.64746 q 0,1.09131 0.27832,1.73584 v 0.11719 z m -2.248535,-1.03271 q 0.637207,0 1.208496,-0.32959 0.571289,-0.32959 0.827637,-0.85694 v -1.62597 h -1.062012 q -2.490234,0 -2.490234,1.45752 0,0.6372 0.424804,0.99609 0.424805,0.35889 1.091309,0.35889 z"
                 style="font-style:normal;font-variant:normal;font-weight:normal;font-stretch:normal;font-size:15px;line-height:1.25;font-family:Roboto;-inkscape-font-specification:Roboto;stroke-width:1.0629921;stroke-miterlimit:4;stroke-dasharray:none"
                 id="path90" />
              <path
                 d="m 57.868217,614.05402 q -0.307617,-0.0513 -0.666503,-0.0513 -1.333008,0 -1.809082,1.13525 v 5.625 h -1.354981 v -7.9248 h 1.318359 l 0.02197,0.91552 q 0.666504,-1.06201 1.889649,-1.06201 0.395507,0 0.600585,0.10254 z"
                 style="font-style:normal;font-variant:normal;font-weight:normal;font-stretch:normal;font-size:15px;line-height:1.25;font-family:Roboto;-inkscape-font-specification:Roboto;stroke-width:1.0629921;stroke-miterlimit:4;stroke-dasharray:none"
                 id="path92" />
              <path
                 d="m 63.70562,620.763 q -0.117188,-0.23437 -0.19043,-0.83496 -0.944824,0.98144 -2.255859,0.98144 -1.171875,0 -1.92627,-0.65917 -0.74707,-0.66651 -0.74707,-1.68458 0,-1.23779 0.9375,-1.91894 0.944824,-0.68848 2.651367,-0.68848 h 1.318359 v -0.62256 q 0,-0.71044 -0.424804,-1.12793 -0.424805,-0.4248 -1.252442,-0.4248 -0.725097,0 -1.21582,0.36621 -0.490723,0.36621 -0.490723,0.88623 h -1.362304 q 0,-0.59326 0.41748,-1.14258 0.424805,-0.55664 1.142578,-0.8789 0.725098,-0.32227 1.589356,-0.32227 1.369629,0 2.145996,0.68848 0.776367,0.68115 0.805664,1.88232 v 3.64746 q 0,1.09131 0.27832,1.73584 v 0.11719 z m -2.248535,-1.03271 q 0.637207,0 1.208496,-0.32959 0.571289,-0.32959 0.827636,-0.85694 v -1.62597 h -1.062011 q -2.490235,0 -2.490235,1.45752 0,0.6372 0.424805,0.99609 0.424805,0.35889 1.091309,0.35889 z"
                 style="font-style:normal;font-variant:normal;font-weight:normal;font-stretch:normal;font-size:15px;line-height:1.25;font-family:Roboto;-inkscape-font-specification:Roboto;stroke-width:1.0629921;stroke-miterlimit:4;stroke-dasharray:none"
                 id="path94" />
              <path
                 d="m 70.165581,619.80353 q 0.725097,0 1.26709,-0.43946 0.541992,-0.43945 0.600586,-1.09863 h 1.281738 q -0.03662,0.68115 -0.46875,1.29639 -0.432129,0.61523 -1.157227,0.98144 -0.717773,0.36621 -1.523437,0.36621 -1.618653,0 -2.578125,-1.07666 -0.952149,-1.08398 -0.952149,-2.95898 v -0.22705 q 0,-1.15723 0.424805,-2.05811 0.424805,-0.90087 1.21582,-1.39892 0.79834,-0.49805 1.882325,-0.49805 1.333007,0 2.211914,0.79834 0.88623,0.79834 0.944824,2.07276 h -1.281738 q -0.05859,-0.76905 -0.585938,-1.25977 -0.52002,-0.49805 -1.289062,-0.49805 -1.032715,0 -1.604004,0.74707 -0.563965,0.73975 -0.563965,2.146 v 0.25635 q 0,1.36963 0.563965,2.10937 0.563964,0.73975 1.611328,0.73975 z"
                 style="font-style:normal;font-variant:normal;font-weight:normal;font-stretch:normal;font-size:15px;line-height:1.25;font-family:Roboto;-inkscape-font-specification:Roboto;stroke-width:1.0629921;stroke-miterlimit:4;stroke-dasharray:none"
                 id="path96" />
              <path
                 d="m 76.676811,610.91925 v 1.91895 h 1.479492 v 1.04736 h -1.479492 v 4.91455 q 0,0.47607 0.197754,0.71777 0.197754,0.23438 0.673828,0.23438 0.234375,0 0.644531,-0.0879 v 1.09863 q -0.534667,0.14648 -1.040039,0.14648 -0.908203,0 -1.369628,-0.54931 -0.461426,-0.54932 -0.461426,-1.56006 v -4.91455 H 73.87896 v -1.04736 h 1.442871 v -1.91895 z"
                 style="font-style:normal;font-variant:normal;font-weight:normal;font-stretch:normal;font-size:15px;line-height:1.25;font-family:Roboto;-inkscape-font-specification:Roboto;stroke-width:1.0629921;stroke-miterlimit:4;stroke-dasharray:none"
                 id="path98" />
              <path
                 d="m 83.019585,620.90948 q -1.611328,0 -2.622071,-1.05468 -1.010742,-1.06201 -1.010742,-2.83448 v -0.24902 q 0,-1.1792 0.446777,-2.10205 0.454102,-0.93018 1.259766,-1.45019 0.812988,-0.52735 1.757813,-0.52735 1.54541,0 2.402343,1.01807 0.856934,1.01806 0.856934,2.91504 v 0.56396 h -5.368652 q 0.0293,1.17188 0.681152,1.89697 0.65918,0.71778 1.669922,0.71778 0.717773,0 1.21582,-0.29297 0.498047,-0.29297 0.871582,-0.77637 l 0.827637,0.64453 q -0.996094,1.53076 -2.988281,1.53076 z m -0.168457,-7.10449 q -0.820313,0 -1.376954,0.60059 -0.55664,0.59326 -0.688476,1.66992 h 3.969726 v -0.10254 q -0.05859,-1.03271 -0.55664,-1.59668 -0.498047,-0.57129 -1.347656,-0.57129 z"
                 style="font-style:normal;font-variant:normal;font-weight:normal;font-stretch:normal;font-size:15px;line-height:1.25;font-family:Roboto;-inkscape-font-specification:Roboto;stroke-width:1.0629921;stroke-miterlimit:4;stroke-dasharray:none"
                 id="path100" />
              <path
                 d="m 91.50103,614.05402 q -0.307617,-0.0513 -0.666504,-0.0513 -1.333008,0 -1.809082,1.13525 v 5.625 h -1.35498 v -7.9248 h 1.318359 l 0.02197,0.91552 q 0.666503,-1.06201 1.889648,-1.06201 0.395508,0 0.600586,0.10254 z"
                 style="font-style:normal;font-variant:normal;font-weight:normal;font-stretch:normal;font-size:15px;line-height:1.25;font-family:Roboto;-inkscape-font-specification:Roboto;stroke-width:1.0629921;stroke-miterlimit:4;stroke-dasharray:none"
                 id="path102" />
            </g>
            <g
               transform="translate(0,-1.8863305)"
               id="g3501"
               style="stroke-width:1.0629921;stroke-miterlimit:4;stroke-dasharray:none">
              <g
                 aria-label="Numeric"
                 style="font-style:normal;font-weight:normal;line-height:0%;font-family:sans-serif;letter-spacing:0px;word-spacing:0px;fill:#000000;fill-opacity:1;stroke:none;stroke-width:1.0629921;stroke-linecap:butt;stroke-linejoin:miter;stroke-miterlimit:4;stroke-dasharray:none;stroke-opacity:1"
                 id="text3354">
                <path
                   d="m 36.444878,532.47876 h -2.197266 l -4.277344,-7.0166 v 7.0166 H 27.773003 V 521.8147 h 2.197265 l 4.284668,7.03125 v -7.03125 h 2.189942 z"
                   style="font-style:normal;font-variant:normal;font-weight:bold;font-stretch:normal;font-size:15px;line-height:1.25;font-family:Roboto;-inkscape-font-specification:'Roboto Bold';stroke-width:1.0629921;stroke-miterlimit:4;stroke-dasharray:none"
                   id="path105" />
                <path
                   d="m 42.985405,531.6731 q -0.783691,0.95214 -2.167969,0.95214 -1.274414,0 -1.948242,-0.73242 -0.666504,-0.73242 -0.681152,-2.14599 v -5.19287 h 2.116699 v 5.11962 q 0,1.2378 1.12793,1.2378 1.07666,0 1.479492,-0.74707 v -5.61035 h 2.124023 v 7.9248 h -1.992187 z"
                   style="font-style:normal;font-variant:normal;font-weight:bold;font-stretch:normal;font-size:15px;line-height:1.25;font-family:Roboto;-inkscape-font-specification:'Roboto Bold';stroke-width:1.0629921;stroke-miterlimit:4;stroke-dasharray:none"
                   id="path107" />
                <path
                   d="m 48.632378,524.55396 0.06592,0.88623 q 0.842285,-1.03272 2.277832,-1.03272 1.530761,0 2.10205,1.2085 0.834961,-1.2085 2.380371,-1.2085 1.289063,0 1.918946,0.7544 0.629883,0.74707 0.629883,2.25585 v 5.06104 h -2.124024 v -5.05371 q 0,-0.67383 -0.263672,-0.98145 -0.263672,-0.31494 -0.930175,-0.31494 -0.952149,0 -1.31836,0.90821 l 0.0073,5.44189 h -2.116699 v -5.04639 q 0,-0.68847 -0.270996,-0.99609 -0.270996,-0.30762 -0.922852,-0.30762 -0.900878,0 -1.30371,0.74707 v 5.60303 h -2.1167 v -7.9248 z"
                   style="font-style:normal;font-variant:normal;font-weight:bold;font-stretch:normal;font-size:15px;line-height:1.25;font-family:Roboto;-inkscape-font-specification:'Roboto Bold';stroke-width:1.0629921;stroke-miterlimit:4;stroke-dasharray:none"
                   id="path109" />
                <path
                   d="m 63.273491,532.62524 q -1.743164,0 -2.841797,-1.06933 -1.091309,-1.06934 -1.091309,-2.84912 v -0.20508 q 0,-1.19385 0.461426,-2.13135 0.461426,-0.94482 1.303711,-1.45019 0.84961,-0.5127 1.933594,-0.5127 1.625976,0 2.556152,1.02539 0.9375,1.02539 0.9375,2.90772 v 0.86425 h -5.046386 q 0.102539,0.77637 0.615234,1.24512 0.520019,0.46875 1.311035,0.46875 1.223145,0 1.911621,-0.88623 l 1.040039,1.16455 q -0.476074,0.67383 -1.289062,1.05469 -0.812989,0.37353 -1.801758,0.37353 z m -0.241699,-6.5039 q -0.629883,0 -1.025391,0.4248 -0.388184,0.42481 -0.498047,1.21582 h 2.944336 v -0.16845 q -0.01465,-0.70313 -0.380859,-1.08399 -0.366211,-0.38818 -1.040039,-0.38818 z"
                   style="font-style:normal;font-variant:normal;font-weight:bold;font-stretch:normal;font-size:15px;line-height:1.25;font-family:Roboto;-inkscape-font-specification:'Roboto Bold';stroke-width:1.0629921;stroke-miterlimit:4;stroke-dasharray:none"
                   id="path111" />
                <path
                   d="m 72.194389,526.53882 q -0.432129,-0.0586 -0.761718,-0.0586 -1.201172,0 -1.574707,0.81299 v 5.18555 h -2.1167 v -7.9248 h 1.999512 l 0.05859,0.94482 q 0.637207,-1.09131 1.765137,-1.09131 0.351562,0 0.659179,0.0952 z"
                   style="font-style:normal;font-variant:normal;font-weight:bold;font-stretch:normal;font-size:15px;line-height:1.25;font-family:Roboto;-inkscape-font-specification:'Roboto Bold';stroke-width:1.0629921;stroke-miterlimit:4;stroke-dasharray:none"
                   id="path113" />
                <path
                   d="m 75.453667,532.47876 h -2.124024 v -7.9248 h 2.124024 z m -2.248535,-9.97559 q 0,-0.47607 0.314941,-0.78369 0.322266,-0.30761 0.871582,-0.30761 0.541992,0 0.864258,0.30761 0.322265,0.30762 0.322265,0.78369 0,0.4834 -0.329589,0.79102 -0.322266,0.30762 -0.856934,0.30762 -0.534668,0 -0.864258,-0.30762 -0.322265,-0.30762 -0.322265,-0.79102 z"
                   style="font-style:normal;font-variant:normal;font-weight:bold;font-stretch:normal;font-size:15px;line-height:1.25;font-family:Roboto;-inkscape-font-specification:'Roboto Bold';stroke-width:1.0629921;stroke-miterlimit:4;stroke-dasharray:none"
                   id="path115" />
                <path
                   d="m 80.500053,530.9187 q 0.585938,0 0.952149,-0.32226 0.366211,-0.32227 0.380859,-0.85694 h 1.984863 q -0.0073,0.80567 -0.439453,1.47949 -0.432129,0.66651 -1.186523,1.04004 -0.74707,0.36621 -1.655274,0.36621 -1.699218,0 -2.680664,-1.07666 -0.981445,-1.08398 -0.981445,-2.98828 v -0.13916 q 0,-1.83105 0.974121,-2.92236 0.974121,-1.09131 2.67334,-1.09131 1.486816,0 2.380371,0.84961 0.900879,0.84229 0.915527,2.24854 h -1.984863 q -0.01465,-0.61524 -0.380859,-0.9961 -0.366211,-0.38818 -0.966797,-0.38818 -0.739746,0 -1.120606,0.54199 -0.373535,0.53467 -0.373535,1.74316 v 0.21973 q 0,1.22315 0.373535,1.75781 0.373536,0.53467 1.135254,0.53467 z"
                   style="font-style:normal;font-variant:normal;font-weight:bold;font-stretch:normal;font-size:15px;line-height:1.25;font-family:Roboto;-inkscape-font-specification:'Roboto Bold';stroke-width:1.0629921;stroke-miterlimit:4;stroke-dasharray:none"
                   id="path117" />
              </g>
              <g
                 id="g3494"
                 style="stroke-width:1.0629921;stroke-miterlimit:4;stroke-dasharray:none">
                <path
                   style="fill:none;fill-opacity:1;stroke:#000000;stroke-width:1.0629921;stroke-miterlimit:4;stroke-dasharray:none"
                   d="m 28.413465,537.12177 h 82.575575 c 1.16271,0 2.09875,0.93604 2.09875,2.09875 v 50.13129 c 0,1.16271 -0.93604,2.09875 -2.09875,2.09875 H 28.413465 c -1.162708,0 -2.098751,-0.93604 -2.098751,-2.09875 v -50.13129 c 0,-1.16271 0.936043,-2.09875 2.098751,-2.09875 z"
                   id="rect3358" />
                <g
                   aria-label="Integer"
                   style="font-style:normal;font-weight:normal;line-height:0%;font-family:sans-serif;letter-spacing:0px;word-spacing:0px;fill:#000000;fill-opacity:1;stroke:none;stroke-width:1.0629921;stroke-linecap:butt;stroke-linejoin:miter;stroke-miterlimit:4;stroke-dasharray:none;stroke-opacity:1"
                   id="text3360">
                  <path
                     d="m 36.771835,559.76752 h -1.40625 v -10.66407 h 1.40625 z"
                     style="font-style:normal;font-variant:normal;font-weight:normal;font-stretch:normal;font-size:15px;line-height:1.25;font-family:Roboto;-inkscape-font-specification:Roboto;stroke-width:1.0629921;stroke-miterlimit:4;stroke-dasharray:none"
                     id="path121" />
                  <path
                     d="m 40.404648,551.84271 0.04395,0.9961 q 0.908203,-1.14258 2.373047,-1.14258 2.512207,0 2.53418,2.83447 v 5.23682 h -1.354981 v -5.24414 q -0.0073,-0.85694 -0.395508,-1.26709 -0.380859,-0.41016 -1.193847,-0.41016 -0.65918,0 -1.157227,0.35156 -0.498047,0.35157 -0.776367,0.92285 v 5.64698 h -1.35498 v -7.92481 z"
                     style="font-style:normal;font-variant:normal;font-weight:normal;font-stretch:normal;font-size:15px;line-height:1.25;font-family:Roboto;-inkscape-font-specification:Roboto;stroke-width:1.0629921;stroke-miterlimit:4;stroke-dasharray:none"
                     id="path123" />
                  <path
                     d="m 49.252304,549.92377 v 1.91894 h 1.479492 v 1.04737 h -1.479492 v 4.91455 q 0,0.47607 0.197754,0.71777 0.197754,0.23437 0.673828,0.23437 0.234375,0 0.644531,-0.0879 v 1.09864 q -0.534668,0.14648 -1.040039,0.14648 -0.908203,0 -1.369629,-0.54931 -0.461425,-0.54932 -0.461425,-1.56006 v -4.91455 h -1.442871 v -1.04737 h 1.442871 v -1.91894 z"
                     style="font-style:normal;font-variant:normal;font-weight:normal;font-stretch:normal;font-size:15px;line-height:1.25;font-family:Roboto;-inkscape-font-specification:Roboto;stroke-width:1.0629921;stroke-miterlimit:4;stroke-dasharray:none"
                     id="path125" />
                  <path
                     d="m 55.595078,559.914 q -1.611329,0 -2.622071,-1.05469 -1.010742,-1.06201 -1.010742,-2.83447 v -0.24902 q 0,-1.1792 0.446777,-2.10205 0.454102,-0.93018 1.259766,-1.4502 0.812988,-0.52734 1.757812,-0.52734 1.545411,0 2.402344,1.01806 0.856934,1.01807 0.856934,2.91504 v 0.56397 h -5.368653 q 0.0293,1.17187 0.681153,1.89697 0.65918,0.71777 1.669922,0.71777 0.717773,0 1.21582,-0.29296 0.498047,-0.29297 0.871582,-0.77637 l 0.827637,0.64453 q -0.996094,1.53076 -2.988281,1.53076 z m -0.168458,-7.10449 q -0.820312,0 -1.376953,0.60059 -0.55664,0.59326 -0.688476,1.66992 h 3.969726 v -0.10254 q -0.05859,-1.03272 -0.55664,-1.59668 -0.498047,-0.57129 -1.347657,-0.57129 z"
                     style="font-style:normal;font-variant:normal;font-weight:normal;font-stretch:normal;font-size:15px;line-height:1.25;font-family:Roboto;-inkscape-font-specification:Roboto;stroke-width:1.0629921;stroke-miterlimit:4;stroke-dasharray:none"
                     id="path127" />
                  <path
                     d="m 59.923691,555.7392 q 0,-1.85303 0.856933,-2.94434 0.856934,-1.09863 2.270508,-1.09863 1.450196,0 2.263184,1.02539 l 0.06592,-0.87891 h 1.237793 v 7.73438 q 0,1.53808 -0.915528,2.42431 -0.908203,0.88623 -2.446289,0.88623 -0.856933,0 -1.677246,-0.36621 -0.820312,-0.36621 -1.252441,-1.00341 l 0.703125,-0.81299 q 0.871582,1.07666 2.131347,1.07666 0.98877,0 1.538086,-0.55664 0.556641,-0.55664 0.556641,-1.56739 v -0.68115 q -0.812988,0.9375 -2.219238,0.9375 -1.391602,0 -2.25586,-1.1206 -0.856933,-1.12061 -0.856933,-3.0542 z m 1.362304,0.15381 q 0,1.34033 0.549317,2.10937 0.549316,0.76172 1.538086,0.76172 1.281738,0 1.882324,-1.16455 v -3.61817 q -0.622559,-1.13525 -1.867676,-1.13525 -0.988769,0 -1.54541,0.76904 -0.556641,0.76905 -0.556641,2.27784 z"
                     style="font-style:normal;font-variant:normal;font-weight:normal;font-stretch:normal;font-size:15px;line-height:1.25;font-family:Roboto;-inkscape-font-specification:Roboto;stroke-width:1.0629921;stroke-miterlimit:4;stroke-dasharray:none"
                     id="path129" />
                  <path
                     d="m 71.942734,559.914 q -1.611328,0 -2.622071,-1.05469 -1.010742,-1.06201 -1.010742,-2.83447 v -0.24902 q 0,-1.1792 0.446778,-2.10205 0.454101,-0.93018 1.259765,-1.4502 0.812989,-0.52734 1.757813,-0.52734 1.54541,0 2.402343,1.01806 0.856934,1.01807 0.856934,2.91504 v 0.56397 h -5.368652 q 0.0293,1.17187 0.681152,1.89697 0.65918,0.71777 1.669922,0.71777 0.717773,0 1.21582,-0.29296 0.498047,-0.29297 0.871582,-0.77637 l 0.827637,0.64453 q -0.996094,1.53076 -2.988281,1.53076 z m -0.168457,-7.10449 q -0.820313,0 -1.376953,0.60059 -0.556641,0.59326 -0.688477,1.66992 h 3.969727 v -0.10254 q -0.05859,-1.03272 -0.556641,-1.59668 -0.498047,-0.57129 -1.347656,-0.57129 z"
                     style="font-style:normal;font-variant:normal;font-weight:normal;font-stretch:normal;font-size:15px;line-height:1.25;font-family:Roboto;-inkscape-font-specification:Roboto;stroke-width:1.0629921;stroke-miterlimit:4;stroke-dasharray:none"
                     id="path131" />
                  <path
                     d="m 80.424179,553.05853 q -0.307617,-0.0513 -0.666504,-0.0513 -1.333008,0 -1.809082,1.13526 v 5.625 h -1.35498 v -7.92481 h 1.318359 l 0.02197,0.91553 q 0.666504,-1.06201 1.889648,-1.06201 0.395508,0 0.600586,0.10254 z"
                     style="font-style:normal;font-variant:normal;font-weight:normal;font-stretch:normal;font-size:15px;line-height:1.25;font-family:Roboto;-inkscape-font-specification:Roboto;stroke-width:1.0629921;stroke-miterlimit:4;stroke-dasharray:none"
                     id="path133" />
                </g>
                <g
                   aria-label="Double"
                   style="font-style:normal;font-weight:normal;line-height:0%;font-family:sans-serif;letter-spacing:0px;word-spacing:0px;fill:#000000;fill-opacity:1;stroke:none;stroke-width:1.0629921;stroke-linecap:butt;stroke-linejoin:miter;stroke-miterlimit:4;stroke-dasharray:none;stroke-opacity:1"
                   id="text3364">
                  <path
                     d="M 35.263046,579.32233 V 568.65826 H 38.2733 q 1.391602,0 2.460938,0.61524 1.069336,0.61523 1.647949,1.75049 0.585937,1.13525 0.593262,2.60742 v 0.68115 q 0,1.50879 -0.585938,2.64404 -0.578613,1.13526 -1.662598,1.74317 -1.07666,0.60791 -2.512207,0.62256 z m 1.40625,-9.50684 v 8.35693 h 1.479492 q 1.625977,0 2.526856,-1.01074 0.908203,-1.01074 0.908203,-2.87842 v -0.62255 q 0,-1.81641 -0.856934,-2.81983 -0.849609,-1.01074 -2.416992,-1.02539 z"
                     style="font-style:normal;font-variant:normal;font-weight:normal;font-stretch:normal;font-size:15px;line-height:1.25;font-family:Roboto;-inkscape-font-specification:Roboto;stroke-width:1.0629921;stroke-miterlimit:4;stroke-dasharray:none"
                     id="path136" />
                  <path
                     d="m 44.535507,575.28668 q 0,-1.16455 0.454102,-2.09472 0.461426,-0.93018 1.274414,-1.43555 0.820312,-0.50537 1.867676,-0.50537 1.618652,0 2.614746,1.1206 1.003418,1.12061 1.003418,2.98096 v 0.0952 q 0,1.15723 -0.446778,2.08008 -0.439453,0.91553 -1.26709,1.42823 -0.820312,0.51269 -1.889648,0.51269 -1.611328,0 -2.614746,-1.1206 -0.996094,-1.12061 -0.996094,-2.96631 z m 1.362305,0.16113 q 0,1.31836 0.60791,2.1167 0.615234,0.79834 1.640625,0.79834 1.032715,0 1.640625,-0.80566 0.60791,-0.81299 0.60791,-2.27051 0,-1.30371 -0.622558,-2.10937 -0.615235,-0.81299 -1.640625,-0.81299 -1.003418,0 -1.618653,0.79834 -0.615234,0.79834 -0.615234,2.28515 z"
                     style="font-style:normal;font-variant:normal;font-weight:normal;font-stretch:normal;font-size:15px;line-height:1.25;font-family:Roboto;-inkscape-font-specification:Roboto;stroke-width:1.0629921;stroke-miterlimit:4;stroke-dasharray:none"
                     id="path138" />
                  <path
                     d="m 58.34166,578.53864 q -0.791016,0.93017 -2.321778,0.93017 -1.26709,0 -1.933594,-0.73242 -0.659179,-0.73975 -0.666503,-2.18262 v -5.15625 h 1.35498 v 5.11963 q 0,1.80176 1.464844,1.80176 1.552734,0 2.065429,-1.15723 v -5.76416 h 1.354981 v 7.92481 h -1.289063 z"
                     style="font-style:normal;font-variant:normal;font-weight:normal;font-stretch:normal;font-size:15px;line-height:1.25;font-family:Roboto;-inkscape-font-specification:Roboto;stroke-width:1.0629921;stroke-miterlimit:4;stroke-dasharray:none"
                     id="path140" />
                  <path
                     d="m 68.419785,575.44781 q 0,1.81641 -0.834961,2.92237 -0.834961,1.09863 -2.241211,1.09863 -1.501465,0 -2.321778,-1.06201 l -0.06592,0.91553 H 61.7108 v -11.25 h 1.354981 v 4.19677 q 0.820312,-1.01806 2.263183,-1.01806 1.442871,0 2.263184,1.09131 0.827637,1.0913 0.827637,2.98828 z m -1.354981,-0.1538 q 0,-1.38428 -0.534668,-2.13868 -0.534668,-0.75439 -1.538086,-0.75439 -1.340332,0 -1.926269,1.24512 v 3.42773 q 0.622558,1.24512 1.940918,1.24512 0.974121,0 1.516113,-0.7544 0.541992,-0.75439 0.541992,-2.2705 z"
                     style="font-style:normal;font-variant:normal;font-weight:normal;font-stretch:normal;font-size:15px;line-height:1.25;font-family:Roboto;-inkscape-font-specification:Roboto;stroke-width:1.0629921;stroke-miterlimit:4;stroke-dasharray:none"
                     id="path142" />
                  <path
                     d="m 71.591171,579.32233 h -1.35498 v -11.25 h 1.35498 z"
                     style="font-style:normal;font-variant:normal;font-weight:normal;font-stretch:normal;font-size:15px;line-height:1.25;font-family:Roboto;-inkscape-font-specification:Roboto;stroke-width:1.0629921;stroke-miterlimit:4;stroke-dasharray:none"
                     id="path144" />
                  <path
                     d="m 77.04039,579.46881 q -1.611328,0 -2.62207,-1.05469 -1.010742,-1.06201 -1.010742,-2.83447 v -0.24902 q 0,-1.1792 0.446777,-2.10205 0.454101,-0.93018 1.259765,-1.4502 0.812989,-0.52734 1.757813,-0.52734 1.54541,0 2.402344,1.01806 0.856933,1.01807 0.856933,2.91504 v 0.56397 h -5.368652 q 0.0293,1.17187 0.681152,1.89697 0.65918,0.71777 1.669922,0.71777 0.717774,0 1.215821,-0.29296 0.498046,-0.29297 0.871582,-0.77637 l 0.827636,0.64453 q -0.996093,1.53076 -2.988281,1.53076 z m -0.168457,-7.10449 q -0.820313,0 -1.376953,0.60058 -0.556641,0.59327 -0.688477,1.66993 h 3.969727 v -0.10254 q -0.05859,-1.03272 -0.556641,-1.59668 -0.498047,-0.57129 -1.347656,-0.57129 z"
                     style="font-style:normal;font-variant:normal;font-weight:normal;font-stretch:normal;font-size:15px;line-height:1.25;font-family:Roboto;-inkscape-font-specification:Roboto;stroke-width:1.0629921;stroke-miterlimit:4;stroke-dasharray:none"
                     id="path146" />
                </g>
              </g>
              <g
                 aria-label="List"
                 style="font-style:normal;font-weight:normal;line-height:0%;font-family:sans-serif;letter-spacing:0px;word-spacing:0px;fill:#000000;fill-opacity:1;stroke:none;stroke-width:1.0629921;stroke-linecap:butt;stroke-linejoin:miter;stroke-miterlimit:4;stroke-dasharray:none;stroke-opacity:1"
                 id="text3372">
                <path
                   d="m 137.60046,531.07251 h 5.05371 v 1.1499 h -6.46728 v -10.66406 h 1.41357 z"
                   style="font-style:normal;font-variant:normal;font-weight:normal;font-stretch:normal;font-size:15px;line-height:1.25;font-family:Roboto;-inkscape-font-specification:Roboto;stroke-width:1.0629921;stroke-miterlimit:4;stroke-dasharray:none"
                   id="path149" />
                <path
                   d="m 145.53259,532.22241 h -1.35498 v -7.9248 h 1.35498 z m -1.46484,-10.02685 q 0,-0.32959 0.19775,-0.55664 0.20508,-0.22705 0.60059,-0.22705 0.39551,0 0.60058,0.22705 0.20508,0.22705 0.20508,0.55664 0,0.32959 -0.20508,0.54931 -0.20507,0.21973 -0.60058,0.21973 -0.39551,0 -0.60059,-0.21973 -0.19775,-0.21972 -0.19775,-0.54931 z"
                   style="font-style:normal;font-variant:normal;font-weight:normal;font-stretch:normal;font-size:15px;line-height:1.25;font-family:Roboto;-inkscape-font-specification:Roboto;stroke-width:1.0629921;stroke-miterlimit:4;stroke-dasharray:none"
                   id="path151" />
                <path
                   d="m 152.3075,530.12036 q 0,-0.54932 -0.41749,-0.84961 -0.41015,-0.30762 -1.44287,-0.52734 -1.02539,-0.21973 -1.6333,-0.52735 -0.60058,-0.30761 -0.89355,-0.73242 -0.28565,-0.4248 -0.28565,-1.01074 0,-0.97412 0.82032,-1.64795 0.82763,-0.67383 2.10937,-0.67383 1.34766,0 2.18262,0.6958 0.84228,0.6958 0.84228,1.77979 h -1.3623 q 0,-0.55664 -0.47608,-0.95947 -0.46875,-0.40284 -1.18652,-0.40284 -0.73975,0 -1.15723,0.32227 -0.41748,0.32227 -0.41748,0.84229 0,0.49072 0.38819,0.73974 0.38818,0.24902 1.39892,0.47608 1.01807,0.22705 1.64795,0.54199 0.62989,0.31494 0.93018,0.76172 0.30762,0.43945 0.30762,1.07666 0,1.06201 -0.84961,1.70654 -0.84961,0.63721 -2.20459,0.63721 -0.95215,0 -1.68457,-0.33692 -0.73243,-0.33691 -1.14991,-0.9375 -0.41015,-0.60791 -0.41015,-1.31103 h 1.35498 q 0.0366,0.68115 0.54199,1.08398 0.5127,0.39551 1.34766,0.39551 0.76904,0 1.23047,-0.30762 0.46875,-0.31494 0.46875,-0.83496 z"
                   style="font-style:normal;font-variant:normal;font-weight:normal;font-stretch:normal;font-size:15px;line-height:1.25;font-family:Roboto;-inkscape-font-specification:Roboto;stroke-width:1.0629921;stroke-miterlimit:4;stroke-dasharray:none"
                   id="path153" />
                <path
                   d="m 157.26599,522.37866 v 1.91895 h 1.47949 v 1.04736 h -1.47949 v 4.91455 q 0,0.47608 0.19776,0.71777 0.19775,0.23438 0.67382,0.23438 0.23438,0 0.64453,-0.0879 v 1.09863 q -0.53466,0.14649 -1.04003,0.14649 -0.90821,0 -1.36963,-0.54932 -0.46143,-0.54932 -0.46143,-1.56006 v -4.91455 h -1.44287 v -1.04736 h 1.44287 v -1.91895 z"
                   style="font-style:normal;font-variant:normal;font-weight:normal;font-stretch:normal;font-size:15px;line-height:1.25;font-family:Roboto;-inkscape-font-specification:Roboto;stroke-width:1.0629921;stroke-miterlimit:4;stroke-dasharray:none"
                   id="path155" />
              </g>
            </g>
          </g>
        </g>
      </g>
    </g>
  </g>
</svg>
