<?xml version="1.0" encoding="UTF-8" standalone="no"?>
<!-- Created with Inkscape (http://www.inkscape.org/) -->

<svg
   xmlns:dc="http://purl.org/dc/elements/1.1/"
   xmlns:cc="http://creativecommons.org/ns#"
   xmlns:rdf="http://www.w3.org/1999/02/22-rdf-syntax-ns#"
   xmlns:svg="http://www.w3.org/2000/svg"
   xmlns="http://www.w3.org/2000/svg"
   xmlns:sodipodi="http://sodipodi.sourceforge.net/DTD/sodipodi-0.dtd"
   xmlns:inkscape="http://www.inkscape.org/namespaces/inkscape"
   sodipodi:docname="join-setup2-otp.svg"
   inkscape:version="0.92.3 (2405546, 2018-03-11)"
   version="1.1"
   id="svg2"
   viewBox="0 0 172.63033 135.08308"
   height="38.123447mm"
   width="48.720116mm">
  <defs
     id="defs4">
    <inkscape:perspective
       sodipodi:type="inkscape:persp3d"
       inkscape:vp_x="0 : 127.00842 : 1"
       inkscape:vp_y="0 : 999.99992 : 0"
       inkscape:vp_z="544.62361 : 127.00842 : 1"
       inkscape:persp3d-origin="272.31181 : 84.672285 : 1"
       id="perspective4714" />
  </defs>
  <sodipodi:namedview
     inkscape:guide-bbox="true"
     showguides="true"
     inkscape:window-maximized="1"
     inkscape:window-y="32"
     inkscape:window-x="0"
     inkscape:window-height="832"
     inkscape:window-width="1600"
     fit-margin-bottom="5"
     fit-margin-right="5"
     fit-margin-left="5"
     fit-margin-top="5"
     showgrid="false"
     inkscape:current-layer="g3423"
     inkscape:document-units="px"
     inkscape:cy="77.450666"
     inkscape:cx="51.625603"
     inkscape:zoom="3.6203869"
     inkscape:pageshadow="2"
     inkscape:pageopacity="0.0"
     borderopacity="1.0"
     bordercolor="#666666"
     pagecolor="#ffffff"
     id="base" />
  <metadata
     id="metadata7">
    <rdf:RDF>
      <cc:Work
         rdf:about="">
        <dc:format>image/svg+xml</dc:format>
        <dc:type
           rdf:resource="http://purl.org/dc/dcmitype/StillImage" />
        <dc:title></dc:title>
      </cc:Work>
    </rdf:RDF>
  </metadata>
  <g
     inkscape:label="Layer 1"
     inkscape:groupmode="layer"
     id="layer1"
     transform="translate(-252.58391,-233.64307)" />
  <g
     id="g4643"
     transform="translate(-194.8338,-114.89383)">
    <g
       id="g3377"
       transform="matrix(0.70710678,0.70710678,-0.70710678,0.70710678,216.36321,-136.19815)">
      <g
         id="g3423"
         transform="matrix(0,-1,1,0,70.951246,469.20809)">
        <g
           id="g3511"
           transform="matrix(0.70710678,0.70710678,-0.70710678,0.70710678,229.94015,-137.66709)">
          <g
             transform="translate(8.5616405,3.5463483)"
             id="g3467">
            <path
               style="fill:none;fill-rule:evenodd;stroke:#999999;stroke-width:1.06299222;stroke-linecap:butt;stroke-linejoin:miter;stroke-miterlimit:4;stroke-dasharray:none;stroke-opacity:1"
               d="m 254.36524,156.07871 58.51457,58.51457"
               id="path5039"
               inkscape:connector-curvature="0" />
            <path
               inkscape:connector-curvature="0"
               id="path5041"
               d="m 266.67832,143.74895 58.52287,58.52286"
               style="fill:none;fill-rule:evenodd;stroke:#999999;stroke-width:1.06299222;stroke-linecap:butt;stroke-linejoin:miter;stroke-miterlimit:4;stroke-dasharray:none;stroke-opacity:1" />
            <path
               inkscape:connector-curvature="0"
               id="path5043"
               d="m 242.00357,168.3599 58.55458,58.55458"
               style="fill:none;fill-rule:evenodd;stroke:#999999;stroke-width:1.06299222;stroke-linecap:butt;stroke-linejoin:miter;stroke-miterlimit:4;stroke-dasharray:none;stroke-opacity:1" />
            <path
               transform="matrix(0.70710678,0.70710678,-0.70710678,0.70710678,0,0)"
               style="fill:#8fd091;fill-opacity:1;stroke:#000000;stroke-width:1.0629921;stroke-miterlimit:4;stroke-dasharray:none"
               d="m 343.13107,-95.636765 h 16.92522 v 17.425131 h -16.92522 z"
               id="rect4769" />
            <path
               transform="matrix(0.70710678,0.70710678,-0.70710678,0.70710678,0,0)"
               style="fill:#cabddc;fill-opacity:1;stroke:#000000;stroke-width:1.0629921;stroke-miterlimit:4;stroke-dasharray:none"
               d="m 343.13107,-78.211639 h 16.92522 v 17.42513 h -16.92522 z"
               id="rect4771" />
            <path
               transform="matrix(0.70710678,0.70710678,-0.70710678,0.70710678,0,0)"
               style="fill:#fffda9;fill-opacity:1;stroke:#000000;stroke-width:1.0629921;stroke-miterlimit:4;stroke-dasharray:none"
               d="m 343.13107,-60.786495 h 16.92522 v 17.425131 h -16.92522 z"
               id="rect4773" />
            <path
               transform="matrix(0.70710678,0.70710678,-0.70710678,0.70710678,0,0)"
               style="fill:#cccccc;fill-opacity:1;stroke:#000000;stroke-width:1.0629921;stroke-miterlimit:4;stroke-dasharray:none"
               d="m 359.93277,-95.636765 h 25.87727 v 17.425131 h -25.87727 z"
               id="rect4775" />
            <path
               transform="matrix(0.70710678,0.70710678,-0.70710678,0.70710678,0,0)"
               style="fill:#cccccc;fill-opacity:1;stroke:#000000;stroke-width:1.0629921;stroke-miterlimit:4;stroke-dasharray:none"
               d="m 359.93277,-60.786495 h 25.87727 v 17.425131 h -25.87727 z"
               id="rect4777" />
            <path
               transform="matrix(0.70710678,0.70710678,-0.70710678,0.70710678,0,0)"
               style="fill:#cccccc;fill-opacity:1;stroke:#000000;stroke-width:1.0629921;stroke-miterlimit:4;stroke-dasharray:none"
               d="m 359.93277,-78.211639 h 25.87727 v 17.42513 h -25.87727 z"
               id="rect4779" />
            <g
               aria-label="1"
               transform="rotate(45)"
               style="font-style:normal;font-weight:normal;line-height:0%;font-family:sans-serif;letter-spacing:0px;word-spacing:0px;fill:#000000;fill-opacity:1;stroke:none;stroke-width:1px;stroke-linecap:butt;stroke-linejoin:miter;stroke-opacity:1"
               id="text4781">
              <path
                 d="m 353.29962,-82.45948 h -1.13525 v -7.525635 l -2.27661,0.836182 v -1.025391 l 3.23486,-1.2146 h 0.177 z"
                 style="font-style:normal;font-variant:normal;font-weight:normal;font-stretch:normal;font-size:12.5px;line-height:1.25;font-family:Roboto;-inkscape-font-specification:Roboto"
                 id="path61" />
            </g>
            <g
               aria-label="y1"
               transform="rotate(45)"
               style="font-style:normal;font-weight:normal;line-height:0%;font-family:sans-serif;letter-spacing:0px;word-spacing:0px;fill:#000000;fill-opacity:1;stroke:none;stroke-width:1px;stroke-linecap:butt;stroke-linejoin:miter;stroke-opacity:1"
               id="text4785">
              <path
                 d="m 370.4361,-84.113533 1.53808,-4.949951 h 1.2085 l -2.65503,7.623291 q -0.61646,1.647949 -1.95923,1.647949 l -0.21362,-0.01831 -0.42115,-0.07935 v -0.915528 l 0.30518,0.02442 q 0.57373,0 0.89111,-0.231934 0.32349,-0.231934 0.53101,-0.848389 l 0.25024,-0.671386 -2.35595,-6.530762 h 1.23291 z"
                 style="font-style:normal;font-variant:normal;font-weight:normal;font-stretch:normal;font-size:12.5px;line-height:1.25;font-family:Roboto;-inkscape-font-specification:Roboto"
                 id="path64" />
              <path
                 d="m 377.77863,-82.45948 h -1.13526 v -7.525635 l -2.27661,0.836182 v -1.025391 l 3.23486,-1.2146 h 0.17701 z"
                 style="font-style:normal;font-variant:normal;font-weight:normal;font-stretch:normal;font-size:12.5px;line-height:1.25;font-family:Roboto;-inkscape-font-specification:Roboto"
                 id="path66" />
            </g>
            <g
               aria-label="2"
               transform="rotate(45)"
               style="font-style:normal;font-weight:normal;line-height:0%;font-family:sans-serif;letter-spacing:0px;word-spacing:0px;fill:#000000;fill-opacity:1;stroke:none;stroke-width:1px;stroke-linecap:butt;stroke-linejoin:miter;stroke-opacity:1"
               id="text4789">
              <path
                 d="m 354.59052,-64.994682 h -5.82276 v -0.811768 l 3.07617,-3.417969 q 0.6836,-0.775146 0.93994,-1.257324 0.26246,-0.488281 0.26246,-1.00708 0,-0.695801 -0.42115,-1.141357 -0.42114,-0.445557 -1.12304,-0.445557 -0.84229,0 -1.31226,0.482178 -0.46387,0.476074 -0.46387,1.330566 h -1.12915 q 0,-1.226806 0.78736,-1.983642 0.79345,-0.756836 2.11792,-0.756836 1.23901,0 1.95922,0.653076 0.72022,0.646972 0.72022,1.727295 0,1.312256 -1.67236,3.125 l -2.38037,2.581787 h 4.46167 z"
                 style="font-style:normal;font-variant:normal;font-weight:normal;font-stretch:normal;font-size:12.5px;line-height:1.25;font-family:Roboto;-inkscape-font-specification:Roboto"
                 id="path69" />
            </g>
            <g
               aria-label="y2"
               transform="rotate(45)"
               style="font-style:normal;font-weight:normal;line-height:0%;font-family:sans-serif;letter-spacing:0px;word-spacing:0px;fill:#000000;fill-opacity:1;stroke:none;stroke-width:1px;stroke-linecap:butt;stroke-linejoin:miter;stroke-opacity:1"
               id="text4793">
              <path
                 d="m 370.4361,-66.688408 1.53808,-4.949951 h 1.2085 l -2.65503,7.623291 q -0.61646,1.647949 -1.95923,1.647949 l -0.21362,-0.01831 -0.42115,-0.07935 v -0.915527 l 0.30518,0.02441 q 0.57373,0 0.89111,-0.231934 0.32349,-0.231934 0.53101,-0.848389 l 0.25024,-0.671386 -2.35595,-6.530762 h 1.23291 z"
                 style="font-style:normal;font-variant:normal;font-weight:normal;font-stretch:normal;font-size:12.5px;line-height:1.25;font-family:Roboto;-inkscape-font-specification:Roboto"
                 id="path72" />
              <path
                 d="m 379.89044,-65.034355 h -5.82275 v -0.811768 l 3.07617,-3.417968 q 0.68359,-0.775147 0.93994,-1.257325 0.26245,-0.488281 0.26245,-1.00708 0,-0.695801 -0.42114,-1.141357 -0.42114,-0.445557 -1.12305,-0.445557 -0.84228,0 -1.31225,0.482178 -0.46387,0.476074 -0.46387,1.330566 h -1.12915 q 0,-1.226806 0.78735,-1.983642 0.79346,-0.756836 2.11792,-0.756836 1.23902,0 1.95923,0.653076 0.72022,0.646973 0.72022,1.727295 0,1.312256 -1.67237,3.125 l -2.38037,2.581787 h 4.46167 z"
                 style="font-style:normal;font-variant:normal;font-weight:normal;font-stretch:normal;font-size:12.5px;line-height:1.25;font-family:Roboto;-inkscape-font-specification:Roboto"
                 id="path74" />
            </g>
            <g
               aria-label="4"
               transform="rotate(45)"
               style="font-style:normal;font-weight:normal;line-height:0%;font-family:sans-serif;letter-spacing:0px;word-spacing:0px;fill:#000000;fill-opacity:1;stroke:none;stroke-width:1px;stroke-linecap:butt;stroke-linejoin:miter;stroke-opacity:1"
               id="text4797">
              <path
                 d="m 353.56818,-50.615189 h 1.23291 v 0.921631 h -1.23291 v 2.062989 h -1.13526 v -2.062989 h -4.04663 v -0.665283 l 3.97949,-6.158447 h 1.2024 z m -3.90015,0 h 2.76489 v -4.35791 l -0.13427,0.244141 z"
                 style="font-style:normal;font-variant:normal;font-weight:normal;font-stretch:normal;font-size:12.5px;line-height:1.25;font-family:Roboto;-inkscape-font-specification:Roboto"
                 id="path77" />
            </g>
            <g
               aria-label="y3"
               transform="rotate(45)"
               style="font-style:normal;font-weight:normal;line-height:0%;font-family:sans-serif;letter-spacing:0px;word-spacing:0px;fill:#000000;fill-opacity:1;stroke:none;stroke-width:1px;stroke-linecap:butt;stroke-linejoin:miter;stroke-opacity:1"
               id="text4801">
              <path
                 d="m 370.4361,-49.26326 1.53808,-4.949951 h 1.2085 l -2.65503,7.623291 q -0.61646,1.647949 -1.95923,1.647949 l -0.21362,-0.01831 -0.42115,-0.07935 v -0.915527 l 0.30518,0.02441 q 0.57373,0 0.89111,-0.231934 0.32349,-0.231934 0.53101,-0.848389 l 0.25024,-0.671386 -2.35595,-6.530762 h 1.23291 z"
                 style="font-style:normal;font-variant:normal;font-weight:normal;font-stretch:normal;font-size:12.5px;line-height:1.25;font-family:Roboto;-inkscape-font-specification:Roboto"
                 id="path80" />
              <path
                 d="m 375.70953,-52.601883 h 0.84839 q 0.79956,-0.01221 1.25733,-0.421143 0.45776,-0.408935 0.45776,-1.104736 0,-1.5625 -1.5564,-1.5625 -0.73242,0 -1.17187,0.421143 -0.43335,0.415039 -0.43335,1.104736 h -1.12915 q 0,-1.055908 0.76904,-1.751709 0.77515,-0.701904 1.96533,-0.701904 1.25733,0 1.97144,0.665283 0.71411,0.665283 0.71411,1.849365 0,0.579834 -0.37842,1.123047 -0.37231,0.543213 -1.01928,0.811768 0.73242,0.231933 1.12915,0.769043 0.40283,0.537109 0.40283,1.312256 0,1.196289 -0.78125,1.898193 -0.78125,0.701904 -2.03247,0.701904 -1.25122,0 -2.03858,-0.67749 -0.78125,-0.67749 -0.78125,-1.78833 h 1.13526 q 0,0.701904 0.45776,1.123047 0.45776,0.421142 1.22681,0.421142 0.81787,0 1.25122,-0.427246 0.43335,-0.427246 0.43335,-1.226806 0,-0.775147 -0.47608,-1.190186 -0.47607,-0.415039 -1.37329,-0.427246 h -0.84839 z"
                 style="font-style:normal;font-variant:normal;font-weight:normal;font-stretch:normal;font-size:12.5px;line-height:1.25;font-family:Roboto;-inkscape-font-specification:Roboto"
                 id="path82" />
            </g>
            <path
               style="fill:none;fill-rule:evenodd;stroke:#999999;stroke-width:1.0629921;stroke-linecap:butt;stroke-linejoin:miter;stroke-miterlimit:4;stroke-dasharray:none;stroke-opacity:1"
               d="m 219.9696,202.27353 58.64828,-58.64829"
               id="path5045"
               inkscape:connector-curvature="0" />
            <path
               inkscape:connector-curvature="0"
               id="path5047"
               d="m 232.29165,214.59432 58.71607,-58.71607"
               style="fill:none;fill-rule:evenodd;stroke:#999999;stroke-width:1.06299222;stroke-linecap:butt;stroke-linejoin:miter;stroke-miterlimit:4;stroke-dasharray:none;stroke-opacity:1" />
            <path
               style="fill:none;fill-rule:evenodd;stroke:#999999;stroke-width:1.06299222;stroke-linecap:butt;stroke-linejoin:miter;stroke-miterlimit:4;stroke-dasharray:none;stroke-opacity:1"
               d="m 244.61271,226.91612 58.64777,-58.64776"
               id="path5049"
               inkscape:connector-curvature="0" />
            <path
               transform="matrix(-0.70710678,0.70710678,0.70710678,0.70710678,0,0)"
               style="fill:#8fd091;fill-opacity:1;stroke:#000000;stroke-width:1.0629921;stroke-miterlimit:4;stroke-dasharray:none"
               d="M -42.367119,289.8584 H -25.4419 v 17.42513 h -16.925219 z"
               id="rect4934" />
            <path
               transform="matrix(-0.70710678,0.70710678,0.70710678,0.70710678,0,0)"
               style="fill:#cabddc;fill-opacity:1;stroke:#000000;stroke-width:1.0629921;stroke-miterlimit:4;stroke-dasharray:none"
               d="M -42.367119,307.28354 H -25.4419 v 17.42513 h -16.925219 z"
               id="rect4936" />
            <path
               transform="matrix(-0.70710678,0.70710678,0.70710678,0.70710678,0,0)"
               style="fill:#fecb98;fill-opacity:1;stroke:#000000;stroke-width:1.0629921;stroke-miterlimit:4;stroke-dasharray:none"
               d="M -42.367119,324.70868 H -25.4419 v 17.42513 h -16.925219 z"
               id="rect4938" />
            <path
               transform="matrix(-0.70710678,0.70710678,0.70710678,0.70710678,0,0)"
               style="fill:#cccccc;fill-opacity:1;stroke:#000000;stroke-width:1.0629921;stroke-miterlimit:4;stroke-dasharray:none"
               d="M -25.56542,289.8584 H 0.31184578 v 17.42513 H -25.56542 Z"
               id="rect4940" />
            <path
               transform="matrix(-0.70710678,0.70710678,0.70710678,0.70710678,0,0)"
               style="fill:#cccccc;fill-opacity:1;stroke:#000000;stroke-width:1.0629921;stroke-miterlimit:4;stroke-dasharray:none"
               d="M -25.56542,324.70868 H 0.31184578 v 17.42513 H -25.56542 Z"
               id="rect4942" />
            <path
               transform="matrix(-0.70710678,0.70710678,0.70710678,0.70710678,0,0)"
               style="fill:#cccccc;fill-opacity:1;stroke:#000000;stroke-width:1.0629921;stroke-miterlimit:4;stroke-dasharray:none"
               d="M -25.56542,307.28354 H 0.31184578 v 17.42513 H -25.56542 Z"
               id="rect4944" />
            <g
               aria-label="x1"
               transform="rotate(-45)"
               style="font-style:normal;font-weight:normal;line-height:0%;font-family:sans-serif;letter-spacing:0px;word-spacing:0px;fill:#000000;fill-opacity:1;stroke:none;stroke-width:1px;stroke-linecap:butt;stroke-linejoin:miter;stroke-opacity:1"
               id="text4950">
              <path
                 d="m 10.246416,298.84256 1.464844,-2.41089 h 1.318359 l -2.160644,3.26538 2.227783,3.33863 h -1.306152 l -1.525879,-2.47193 -1.5258793,2.47193 H 7.4265919 l 2.2277832,-3.33863 -2.1606446,-3.26538 h 1.3061524 z"
                 style="font-style:normal;font-variant:normal;font-weight:normal;font-stretch:normal;font-size:12.5px;line-height:1.25;font-family:Roboto;-inkscape-font-specification:Roboto"
                 id="path91" />
              <path
                 d="m 17.826982,303.03568 h -1.135253 v -7.52564 l -2.276612,0.83618 v -1.02539 l 3.234864,-1.2146 h 0.177001 z"
                 style="font-style:normal;font-variant:normal;font-weight:normal;font-stretch:normal;font-size:12.5px;line-height:1.25;font-family:Roboto;-inkscape-font-specification:Roboto"
                 id="path93" />
            </g>
            <g
               aria-label="x2"
               transform="rotate(-45)"
               style="font-style:normal;font-weight:normal;line-height:0%;font-family:sans-serif;letter-spacing:0px;word-spacing:0px;fill:#000000;fill-opacity:1;stroke:none;stroke-width:1px;stroke-linecap:butt;stroke-linejoin:miter;stroke-opacity:1"
               id="text4970">
              <path
                 d="m 10.246416,316.2677 1.464844,-2.41089 h 1.318359 l -2.160644,3.26538 2.227783,3.33863 h -1.306152 l -1.525879,-2.47193 -1.5258793,2.47193 H 7.4265919 l 2.2277832,-3.33863 -2.1606446,-3.26538 h 1.3061524 z"
                 style="font-style:normal;font-variant:normal;font-weight:normal;font-stretch:normal;font-size:12.5px;line-height:1.25;font-family:Roboto;-inkscape-font-specification:Roboto"
                 id="path96" />
              <path
                 d="m 19.938799,320.46082 h -5.822754 v -0.81177 l 3.076172,-3.41797 q 0.683594,-0.77515 0.939941,-1.25733 0.262451,-0.48828 0.262451,-1.00708 0,-0.6958 -0.421142,-1.14135 -0.421143,-0.44556 -1.123047,-0.44556 -0.842285,0 -1.312256,0.48218 -0.463867,0.47607 -0.463867,1.33056 h -1.12915 q 0,-1.2268 0.787353,-1.98364 0.793457,-0.75683 2.11792,-0.75683 1.239014,0 1.959229,0.65307 0.720214,0.64698 0.720214,1.7273 0,1.31225 -1.672363,3.125 l -2.380371,2.58178 h 4.46167 z"
                 style="font-style:normal;font-variant:normal;font-weight:normal;font-stretch:normal;font-size:12.5px;line-height:1.25;font-family:Roboto;-inkscape-font-specification:Roboto"
                 id="path98" />
            </g>
            <g
               aria-label="x3"
               transform="rotate(-45)"
               style="font-style:normal;font-weight:normal;line-height:0%;font-family:sans-serif;letter-spacing:0px;word-spacing:0px;fill:#000000;fill-opacity:1;stroke:none;stroke-width:1px;stroke-linecap:butt;stroke-linejoin:miter;stroke-opacity:1"
               id="text4974">
              <path
                 d="m 10.246416,333.69284 1.464844,-2.41089 h 1.318359 l -2.160644,3.26538 2.227783,3.33863 h -1.306152 l -1.525879,-2.47193 -1.5258793,2.47193 H 7.4265919 l 2.2277832,-3.33863 -2.1606446,-3.26538 h 1.3061524 z"
                 style="font-style:normal;font-variant:normal;font-weight:normal;font-stretch:normal;font-size:12.5px;line-height:1.25;font-family:Roboto;-inkscape-font-specification:Roboto"
                 id="path101" />
              <path
                 d="m 15.757891,332.89328 h 0.848388 q 0.799561,-0.0122 1.257325,-0.42114 0.457763,-0.40894 0.457763,-1.10474 0,-1.5625 -1.556396,-1.5625 -0.732422,0 -1.171875,0.42114 -0.43335,0.41504 -0.43335,1.10474 h -1.12915 q 0,-1.05591 0.769043,-1.75171 0.775146,-0.7019 1.965332,-0.7019 1.257324,0 1.971435,0.66528 0.714112,0.66528 0.714112,1.84937 0,0.57983 -0.378418,1.12304 -0.372315,0.54321 -1.019287,0.81177 0.732421,0.23193 1.12915,0.76904 0.402832,0.53711 0.402832,1.31226 0,1.19629 -0.78125,1.89819 -0.78125,0.70191 -2.032471,0.70191 -1.25122,0 -2.038574,-0.67749 -0.78125,-0.67749 -0.78125,-1.78833 h 1.135254 q 0,0.7019 0.457764,1.12304 0.457763,0.42115 1.226806,0.42115 0.817871,0 1.251221,-0.42725 0.43335,-0.42725 0.43335,-1.22681 0,-0.77514 -0.476075,-1.19018 -0.476074,-0.41504 -1.373291,-0.42725 h -0.848388 z"
                 style="font-style:normal;font-variant:normal;font-weight:normal;font-stretch:normal;font-size:12.5px;line-height:1.25;font-family:Roboto;-inkscape-font-specification:Roboto"
                 id="path103" />
            </g>
            <g
               aria-label="1"
               transform="rotate(-45)"
               style="font-style:normal;font-weight:normal;line-height:0%;font-family:sans-serif;letter-spacing:0px;word-spacing:0px;fill:#000000;fill-opacity:1;stroke:none;stroke-width:1px;stroke-linecap:butt;stroke-linejoin:miter;stroke-opacity:1"
               id="text4978">
              <path
                 d="M 35.610434,303.03571 H 34.47518 v -7.52564 l -2.276612,0.83618 v -1.02539 l 3.234864,-1.2146 h 0.177002 z"
                 style="font-style:normal;font-variant:normal;font-weight:normal;font-stretch:normal;font-size:12.5px;line-height:1.25;font-family:Roboto;-inkscape-font-specification:Roboto"
                 id="path106" />
            </g>
            <g
               aria-label="2"
               transform="rotate(-45)"
               style="font-style:normal;font-weight:normal;line-height:0%;font-family:sans-serif;letter-spacing:0px;word-spacing:0px;fill:#000000;fill-opacity:1;stroke:none;stroke-width:1px;stroke-linecap:butt;stroke-linejoin:miter;stroke-opacity:1"
               id="text4982">
              <path
                 d="m 36.901327,320.50049 h -5.822754 v -0.81177 l 3.076172,-3.41797 q 0.683594,-0.77514 0.939942,-1.25732 0.262451,-0.48828 0.262451,-1.00708 0,-0.6958 -0.421143,-1.14136 -0.421142,-0.44556 -1.123047,-0.44556 -0.842285,0 -1.312256,0.48218 -0.463867,0.47608 -0.463867,1.33057 h -1.12915 q 0,-1.22681 0.787353,-1.98364 0.793457,-0.75684 2.11792,-0.75684 1.239014,0 1.959229,0.65308 0.720215,0.64697 0.720215,1.72729 0,1.31226 -1.672364,3.125 l -2.380371,2.58179 h 4.46167 z"
                 style="font-style:normal;font-variant:normal;font-weight:normal;font-stretch:normal;font-size:12.5px;line-height:1.25;font-family:Roboto;-inkscape-font-specification:Roboto"
                 id="path109" />
            </g>
            <g
               aria-label="3"
               transform="rotate(-45)"
               style="font-style:normal;font-weight:normal;line-height:0%;font-family:sans-serif;letter-spacing:0px;word-spacing:0px;fill:#000000;fill-opacity:1;stroke:none;stroke-width:1px;stroke-linecap:butt;stroke-linejoin:miter;stroke-opacity:1"
               id="text4986">
              <path
                 d="m 32.894369,332.87192 h 0.848389 q 0.79956,-0.0122 1.257324,-0.42114 0.457764,-0.40894 0.457764,-1.10474 0,-1.5625 -1.556397,-1.5625 -0.732422,0 -1.171875,0.42114 -0.433349,0.41504 -0.433349,1.10474 h -1.129151 q 0,-1.05591 0.769043,-1.75171 0.775147,-0.70191 1.965332,-0.70191 1.257324,0 1.971436,0.66529 0.714111,0.66528 0.714111,1.84936 0,0.57984 -0.378418,1.12305 -0.372314,0.54321 -1.019287,0.81177 0.732422,0.23193 1.12915,0.76904 0.402832,0.53711 0.402832,1.31226 0,1.19629 -0.78125,1.89819 -0.78125,0.7019 -2.03247,0.7019 -1.251221,0 -2.038574,-0.67749 -0.78125,-0.67749 -0.78125,-1.78833 h 1.135253 q 0,0.70191 0.457764,1.12305 0.457764,0.42114 1.226807,0.42114 0.817871,0 1.25122,-0.42724 0.43335,-0.42725 0.43335,-1.22681 0,-0.77515 -0.476074,-1.19019 -0.476074,-0.41503 -1.373291,-0.42724 h -0.848389 z"
                 style="font-style:normal;font-variant:normal;font-weight:normal;font-stretch:normal;font-size:12.5px;line-height:1.25;font-family:Roboto;-inkscape-font-specification:Roboto"
                 id="path112" />
            </g>
          </g>
        </g>
      </g>
    </g>
  </g>
</svg>
