<?xml version="1.0" encoding="UTF-8" standalone="no"?>
<!-- Created with Inkscape (http://www.inkscape.org/) -->

<svg
   xmlns:dc="http://purl.org/dc/elements/1.1/"
   xmlns:cc="http://creativecommons.org/ns#"
   xmlns:rdf="http://www.w3.org/1999/02/22-rdf-syntax-ns#"
   xmlns:svg="http://www.w3.org/2000/svg"
   xmlns="http://www.w3.org/2000/svg"
   xmlns:sodipodi="http://sodipodi.sourceforge.net/DTD/sodipodi-0.dtd"
   xmlns:inkscape="http://www.inkscape.org/namespaces/inkscape"
   width="153.7049mm"
   height="71.689201mm"
   viewBox="0 0 544.62365 254.01686"
   id="svg2"
   version="1.1"
   inkscape:version="0.92.3 (2405546, 2018-03-11)"
   sodipodi:docname="transform-logical-otp.svg">
  <defs
     id="defs4" />
  <sodipodi:namedview
     id="base"
     pagecolor="#ffffff"
     bordercolor="#666666"
     borderopacity="1.0"
     inkscape:pageopacity="0.0"
     inkscape:pageshadow="2"
     inkscape:zoom="0.98994949"
     inkscape:cx="213.128"
     inkscape:cy="132.80011"
     inkscape:document-units="px"
     inkscape:current-layer="layer1"
     showgrid="false"
     fit-margin-top="5"
     fit-margin-left="5"
     fit-margin-right="5"
     fit-margin-bottom="5"
     inkscape:window-width="1600"
     inkscape:window-height="832"
     inkscape:window-x="0"
     inkscape:window-y="32"
     inkscape:window-maximized="1" />
  <metadata
     id="metadata7">
    <rdf:RDF>
      <cc:Work
         rdf:about="">
        <dc:format>image/svg+xml</dc:format>
        <dc:type
           rdf:resource="http://purl.org/dc/dcmitype/StillImage" />
        <dc:title></dc:title>
      </cc:Work>
    </rdf:RDF>
  </metadata>
  <g
     inkscape:label="Layer 1"
     inkscape:groupmode="layer"
     id="layer1"
     transform="translate(-19.664178,-109.96017)">
    <g
       id="g4413">
      <g
         id="g4242">
        <g
           id="g4310">
          <path
             style="fill:#ffffff;fill-opacity:1;stroke:#000000;stroke-width:1;stroke-miterlimit:4;stroke-dasharray:none"
             d="m 97.880714,158.1767 a 30,30 0 0 1 -30,30 30,30 0 0 1 -30,-30 30,30 0 0 1 30,-30 30,30 0 0 1 30,30 z"
             id="path3401" />
          <path
             style="fill:#cccccc;fill-opacity:1;stroke:#000000;stroke-width:1;stroke-miterlimit:4;stroke-dasharray:none"
             d="m 133.74113,158.1767 a 30,30 0 0 1 -30,30 30,30 0 0 1 -30.000003,-30 30,30 0 0 1 30.000003,-30 30,30 0 0 1 30,30 z"
             id="circle4203" />
          <g
             aria-label="y &amp; !x"
             style="font-style:normal;font-weight:normal;line-height:0%;font-family:sans-serif;letter-spacing:0px;word-spacing:0px;fill:#000000;fill-opacity:1;stroke:none;stroke-width:1px;stroke-linecap:butt;stroke-linejoin:miter;stroke-opacity:1"
             id="text4228">
            <path
               d="m 154.83954,159.84509 1.69189,-5.44494 h 1.32935 l -2.92053,8.38562 q -0.6781,1.81274 -2.15515,1.81274 l -0.23499,-0.0201 -0.46326,-0.0873 v -1.00708 l 0.3357,0.0268 q 0.6311,0 0.98022,-0.25512 0.35584,-0.25513 0.58411,-0.93323 l 0.27527,-0.73853 -2.59156,-7.18383 h 1.3562 z"
               style="font-style:normal;font-variant:normal;font-weight:normal;font-stretch:normal;font-size:13.75px;line-height:1.25;font-family:Roboto;-inkscape-font-specification:Roboto"
               id="path59" />
            <path
               d="m 162.11066,159.03943 q 0,-0.70496 0.3894,-1.29578 0.39612,-0.59082 1.50391,-1.37634 -0.65125,-0.79224 -0.87281,-1.27564 -0.22155,-0.48339 -0.22155,-0.96008 0,-1.1145 0.65796,-1.7456 0.65795,-0.63111 1.78588,-0.63111 1.00708,0 1.66504,0.59082 0.65796,0.58411 0.65796,1.47705 0,0.59082 -0.30212,1.09436 -0.29541,0.49683 -1.04065,1.04737 l -0.71838,0.53039 2.17529,2.59827 q 0.45654,-0.8728 0.45654,-1.94031 h 1.12122 q 0,1.71204 -0.82581,2.83997 l 1.39649,1.67175 h -1.49048 l -0.65125,-0.77209 q -0.49682,0.44311 -1.16821,0.6781 -0.66467,0.22827 -1.3562,0.22827 -1.43006,0 -2.29614,-0.75867 -0.86609,-0.75867 -0.86609,-2.00073 z m 3.16223,1.7456 q 0.98694,0 1.80603,-0.75195 l -2.38342,-2.85339 -0.22156,0.16113 q -1.12122,0.82581 -1.12122,1.69861 0,0.79224 0.51026,1.26892 0.51696,0.47668 1.40991,0.47668 z m -1.12122,-6.69372 q 0,0.64453 0.79224,1.61133 l 0.79224,-0.55725 q 0.45654,-0.32227 0.62438,-0.61097 0.16785,-0.29541 0.16785,-0.71167 0,-0.44983 -0.33569,-0.74524 -0.3357,-0.30212 -0.84595,-0.30212 -0.55054,0 -0.8728,0.37598 -0.32227,0.36926 -0.32227,0.93994 z"
               style="font-style:normal;font-variant:normal;font-weight:normal;font-stretch:normal;font-size:13.75px;line-height:1.25;font-family:Roboto;-inkscape-font-specification:Roboto"
               id="path61" />
            <path
               d="m 175.71295,158.90515 h -1.12121 l -0.0873,-7.01599 h 1.30249 z m -1.25549,2.13501 q 0,-0.30212 0.18127,-0.50354 0.18799,-0.20813 0.55054,-0.20813 0.36255,0 0.55054,0.20813 0.18799,0.20142 0.18799,0.50354 0,0.30213 -0.18799,0.50354 -0.18799,0.1947 -0.55054,0.1947 -0.36255,0 -0.55054,-0.1947 -0.18127,-0.20141 -0.18127,-0.50354 z"
               style="font-style:normal;font-variant:normal;font-weight:normal;font-stretch:normal;font-size:13.75px;line-height:1.25;font-family:Roboto;-inkscape-font-specification:Roboto"
               id="path63" />
            <path
               d="m 180.30524,157.05212 1.61132,-2.65197 h 1.4502 l -2.37671,3.59192 2.45056,3.67248 h -1.43676 l -1.67847,-2.71912 -1.67847,2.71912 h -1.44348 l 2.45056,-3.67248 -2.37671,-3.59192 h 1.43677 z"
               style="font-style:normal;font-variant:normal;font-weight:normal;font-stretch:normal;font-size:13.75px;line-height:1.25;font-family:Roboto;-inkscape-font-specification:Roboto"
               id="path65" />
          </g>
          <path
             style="fill:#ffffff;fill-opacity:1;stroke:#000000;stroke-width:1;stroke-miterlimit:4;stroke-dasharray:none"
             d="M 85.806641,134.16602 A 30,30 0 0 0 73.740234,158.17578 30,30 0 0 0 85.814453,182.18555 30,30 0 0 0 97.880859,158.17578 30,30 0 0 0 85.806641,134.16602 Z"
             id="circle4531"
             inkscape:connector-curvature="0" />
        </g>
      </g>
      <g
         id="g4318">
        <path
           style="fill:#e6e6e6;fill-opacity:1;stroke:none;stroke-width:1;stroke-miterlimit:4;stroke-dasharray:none"
           d="M 82.785495,257.2365 C 71.98671,245.88809 71.843204,228.40744 82.456991,217.22103 l 3.177869,-3.34932 1.432926,1.04612 c 0.788109,0.57536 2.570336,2.54671 3.960505,4.38076 8.926914,11.77732 7.809727,28.05332 -2.633503,38.36682 l -2.681356,2.64805 -2.927937,-3.07696 z"
           id="path4278"
           inkscape:connector-curvature="0" />
        <path
           style="fill:#ffffff;fill-opacity:1;stroke:#000000;stroke-width:1;stroke-miterlimit:4;stroke-dasharray:none"
           d="m 97.880714,236.96863 a 30,30 0 0 1 -30,30 30,30 0 0 1 -30,-30 30,30 0 0 1 30,-30 30,30 0 0 1 30,30 z"
           id="circle4211" />
        <path
           style="fill:none;fill-opacity:1;stroke:#000000;stroke-width:1;stroke-miterlimit:4;stroke-dasharray:none"
           d="m 133.74113,236.96863 a 30,30 0 0 1 -30,30 30,30 0 0 1 -30.000003,-30 30,30 0 0 1 30.000003,-30 30,30 0 0 1 30,30 z"
           id="circle4213" />
        <g
           aria-label="x &amp; y"
           style="font-style:normal;font-weight:normal;line-height:0%;font-family:sans-serif;letter-spacing:0px;word-spacing:0px;fill:#000000;fill-opacity:1;stroke:none;stroke-width:1px;stroke-linecap:butt;stroke-linejoin:miter;stroke-opacity:1"
           id="text4232">
          <path
             d="m 154.89996,235.84406 1.61133,-2.65198 h 1.4502 l -2.37671,3.59192 2.45056,3.67248 h -1.43677 l -1.67847,-2.71911 -1.67846,2.71911 h -1.44348 l 2.45056,-3.67248 -2.37671,-3.59192 h 1.43677 z"
             style="font-style:normal;font-variant:normal;font-weight:normal;font-stretch:normal;font-size:13.75px;line-height:1.25;font-family:Roboto;-inkscape-font-specification:Roboto"
             id="path70" />
          <path
             d="m 162.43292,237.83136 q 0,-0.70496 0.38941,-1.29578 0.39611,-0.59082 1.5039,-1.37634 -0.65124,-0.79224 -0.8728,-1.27563 -0.22156,-0.4834 -0.22156,-0.96009 0,-1.1145 0.65796,-1.7456 0.65796,-0.63111 1.78589,-0.63111 1.00708,0 1.66504,0.59082 0.65796,0.58411 0.65796,1.47706 0,0.59082 -0.30213,1.09436 -0.29541,0.49682 -1.04065,1.04736 l -0.71838,0.53039 2.17529,2.59827 q 0.45655,-0.8728 0.45655,-1.94031 h 1.12121 q 0,1.71204 -0.8258,2.83997 l 1.39648,1.67175 h -1.49048 l -0.65124,-0.77209 q -0.49683,0.44311 -1.16822,0.6781 -0.66467,0.22827 -1.3562,0.22827 -1.43005,0 -2.29614,-0.75867 -0.86609,-0.75866 -0.86609,-2.00073 z m 3.16223,1.74561 q 0.98694,0 1.80603,-0.75196 l -2.38342,-2.85339 -0.22156,0.16113 q -1.12121,0.82581 -1.12121,1.69861 0,0.79224 0.51025,1.26892 0.51697,0.47669 1.40991,0.47669 z m -1.12121,-6.69373 q 0,0.64453 0.79223,1.61133 l 0.79224,-0.55725 q 0.45654,-0.32227 0.62439,-0.61097 0.16785,-0.29541 0.16785,-0.71166 0,-0.44983 -0.3357,-0.74524 -0.33569,-0.30213 -0.84594,-0.30213 -0.55054,0 -0.87281,0.37598 -0.32226,0.36926 -0.32226,0.93994 z"
             style="font-style:normal;font-variant:normal;font-weight:normal;font-stretch:normal;font-size:13.75px;line-height:1.25;font-family:Roboto;-inkscape-font-specification:Roboto"
             id="path72" />
          <path
             d="m 177.02216,238.63702 1.69189,-5.44494 h 1.32935 l -2.92054,8.38562 q -0.6781,1.81274 -2.15515,1.81274 l -0.23498,-0.0201 -0.46326,-0.0873 v -1.00708 l 0.33569,0.0269 q 0.63111,0 0.98023,-0.25513 0.35583,-0.25513 0.5841,-0.93323 l 0.27527,-0.73852 -2.59155,-7.18384 h 1.3562 z"
             style="font-style:normal;font-variant:normal;font-weight:normal;font-stretch:normal;font-size:13.75px;line-height:1.25;font-family:Roboto;-inkscape-font-specification:Roboto"
             id="path74" />
        </g>
        <path
           style="fill:#cccccc;fill-opacity:1;stroke:#000000;stroke-width:1;stroke-miterlimit:4;stroke-dasharray:none"
           d="M 85.806641,212.95898 A 30,30 0 0 0 73.740234,236.96875 30,30 0 0 0 85.816406,260.97852 30,30 0 0 0 97.880859,236.96875 30,30 0 0 0 85.806641,212.95898 Z"
           id="circle4521"
           inkscape:connector-curvature="0" />
      </g>
      <g
         id="g4326">
        <path
           style="fill:#cccccc;fill-opacity:1;stroke:#000000;stroke-width:1;stroke-miterlimit:4;stroke-dasharray:none"
           d="m 97.880714,315.7605 a 30,30 0 0 1 -30,30 30,30 0 0 1 -30,-30 30,30 0 0 1 30,-30 30,30 0 0 1 30,30 z"
           id="circle4224" />
        <path
           style="fill:none;fill-opacity:1;stroke:#000000;stroke-width:1;stroke-miterlimit:4;stroke-dasharray:none"
           d="m 133.74113,315.7605 a 30,30 0 0 1 -30,30 30,30 0 0 1 -30.000003,-30 30,30 0 0 1 30.000003,-30 30,30 0 0 1 30,30 z"
           id="circle4226" />
        <g
           aria-label="x &amp; !y"
           style="font-style:normal;font-weight:normal;line-height:0%;font-family:sans-serif;letter-spacing:0px;word-spacing:0px;fill:#000000;fill-opacity:1;stroke:none;stroke-width:1px;stroke-linecap:butt;stroke-linejoin:miter;stroke-opacity:1"
           id="text4236">
          <path
             d="m 154.89996,314.63593 1.61133,-2.65198 h 1.4502 l -2.37671,3.59192 2.45056,3.67248 h -1.43677 l -1.67847,-2.71911 -1.67846,2.71911 h -1.44348 l 2.45056,-3.67248 -2.37671,-3.59192 h 1.43677 z"
             style="font-style:normal;font-variant:normal;font-weight:normal;font-stretch:normal;font-size:13.75px;line-height:1.25;font-family:Roboto;-inkscape-font-specification:Roboto"
             id="path79" />
          <path
             d="m 162.43292,316.62323 q 0,-0.70496 0.38941,-1.29578 0.39611,-0.59082 1.5039,-1.37634 -0.65124,-0.79224 -0.8728,-1.27563 -0.22156,-0.4834 -0.22156,-0.96009 0,-1.1145 0.65796,-1.7456 0.65796,-0.63111 1.78589,-0.63111 1.00708,0 1.66504,0.59082 0.65796,0.58411 0.65796,1.47706 0,0.59082 -0.30213,1.09436 -0.29541,0.49682 -1.04065,1.04736 l -0.71838,0.53039 2.17529,2.59827 q 0.45655,-0.8728 0.45655,-1.94031 h 1.12121 q 0,1.71204 -0.8258,2.83997 l 1.39648,1.67175 h -1.49048 l -0.65124,-0.77209 q -0.49683,0.44311 -1.16822,0.6781 -0.66467,0.22827 -1.3562,0.22827 -1.43005,0 -2.29614,-0.75867 -0.86609,-0.75866 -0.86609,-2.00073 z m 3.16223,1.74561 q 0.98694,0 1.80603,-0.75196 l -2.38342,-2.85339 -0.22156,0.16113 q -1.12121,0.82581 -1.12121,1.69861 0,0.79224 0.51025,1.26892 0.51697,0.47669 1.40991,0.47669 z m -1.12121,-6.69373 q 0,0.64453 0.79223,1.61133 l 0.79224,-0.55725 q 0.45654,-0.32227 0.62439,-0.61096 0.16785,-0.29542 0.16785,-0.71167 0,-0.44983 -0.3357,-0.74524 -0.33569,-0.30213 -0.84594,-0.30213 -0.55054,0 -0.87281,0.37598 -0.32226,0.36926 -0.32226,0.93994 z"
             style="font-style:normal;font-variant:normal;font-weight:normal;font-stretch:normal;font-size:13.75px;line-height:1.25;font-family:Roboto;-inkscape-font-specification:Roboto"
             id="path81" />
          <path
             d="M 176.03522,316.48895 H 174.914 l -0.0873,-7.01599 h 1.30249 z m -1.2555,2.13501 q 0,-0.30212 0.18128,-0.50354 0.18799,-0.20813 0.55054,-0.20813 0.36254,0 0.55053,0.20813 0.18799,0.20142 0.18799,0.50354 0,0.30213 -0.18799,0.50354 -0.18799,0.1947 -0.55053,0.1947 -0.36255,0 -0.55054,-0.1947 -0.18128,-0.20141 -0.18128,-0.50354 z"
             style="font-style:normal;font-variant:normal;font-weight:normal;font-stretch:normal;font-size:13.75px;line-height:1.25;font-family:Roboto;-inkscape-font-specification:Roboto"
             id="path83" />
          <path
             d="m 180.56708,317.42889 1.69189,-5.44494 h 1.32935 l -2.92053,8.38562 q -0.6781,1.81274 -2.15516,1.81274 l -0.23498,-0.0201 -0.46326,-0.0873 v -1.00708 l 0.3357,0.0269 q 0.6311,0 0.98022,-0.25513 0.35584,-0.25513 0.58411,-0.93323 l 0.27527,-0.73852 -2.59156,-7.18384 h 1.3562 z"
             style="font-style:normal;font-variant:normal;font-weight:normal;font-stretch:normal;font-size:13.75px;line-height:1.25;font-family:Roboto;-inkscape-font-specification:Roboto"
             id="path85" />
        </g>
        <path
           style="fill:#cccccc;fill-opacity:1;stroke:#000000;stroke-width:1;stroke-miterlimit:4;stroke-dasharray:none"
           d="M 85.806641,291.75 A 30,30 0 0 0 73.740234,315.75977 30,30 0 0 0 85.814453,339.76953 30,30 0 0 0 97.880859,315.75977 30,30 0 0 0 85.806641,291.75 Z"
           id="circle4516"
           inkscape:connector-curvature="0" />
      </g>
    </g>
    <g
       id="g4435"
       transform="translate(-18.310482,0)">
      <g
         transform="translate(194.45437,0)"
         id="g4333">
        <g
           id="g4335">
          <path
             style="fill:#cccccc;fill-opacity:1;stroke:#000000;stroke-width:1;stroke-miterlimit:4;stroke-dasharray:none"
             d="m 97.880714,158.1767 a 30,30 0 0 1 -30,30 30,30 0 0 1 -30,-30 30,30 0 0 1 30,-30 30,30 0 0 1 30,30 z"
             id="circle4337" />
          <path
             style="fill:none;fill-opacity:1;stroke:#000000;stroke-width:1;stroke-miterlimit:4;stroke-dasharray:none"
             d="m 133.74113,158.1767 a 30,30 0 0 1 -30,30 30,30 0 0 1 -30.000003,-30 30,30 0 0 1 30.000003,-30 30,30 0 0 1 30,30 z"
             id="circle4339" />
          <g
             aria-label="x"
             style="font-style:normal;font-weight:normal;line-height:0%;font-family:sans-serif;letter-spacing:0px;word-spacing:0px;fill:#000000;fill-opacity:1;stroke:none;stroke-width:1px;stroke-linecap:butt;stroke-linejoin:miter;stroke-opacity:1"
             id="text4341">
            <path
               d="m 154.89996,157.05212 1.61133,-2.65197 h 1.4502 l -2.37671,3.59192 2.45056,3.67248 h -1.43677 l -1.67847,-2.71912 -1.67846,2.71912 h -1.44348 l 2.45056,-3.67248 -2.37671,-3.59192 h 1.43677 z"
               style="font-style:normal;font-variant:normal;font-weight:normal;font-stretch:normal;font-size:13.75px;line-height:1.25;font-family:Roboto;-inkscape-font-specification:Roboto"
               id="path90" />
          </g>
          <path
             style="fill:#cccccc;fill-opacity:1;stroke:#000000;stroke-width:1;stroke-miterlimit:4;stroke-dasharray:none"
             d="m 287.32031,134.16602 a 30,30 0 0 0 -12.0664,24.00976 30,30 0 0 0 12.07421,24.00977 30,30 0 0 0 12.06641,-24.00977 30,30 0 0 0 -12.07422,-24.00976 z"
             transform="translate(-201.51293,0)"
             id="circle4536"
             inkscape:connector-curvature="0" />
        </g>
      </g>
      <g
         transform="translate(194.45437,0)"
         id="g4347">
        <path
           inkscape:connector-curvature="0"
           id="path4349"
           d="M 82.785495,257.2365 C 71.98671,245.88809 71.843204,228.40744 82.456991,217.22103 l 3.177869,-3.34932 1.432926,1.04612 c 0.788109,0.57536 2.570336,2.54671 3.960505,4.38076 8.926914,11.77732 7.809727,28.05332 -2.633503,38.36682 l -2.681356,2.64805 -2.927937,-3.07696 z"
           style="fill:#e6e6e6;fill-opacity:1;stroke:none;stroke-width:1;stroke-miterlimit:4;stroke-dasharray:none" />
        <path
           style="fill:#cccccc;fill-opacity:1;stroke:#000000;stroke-width:1;stroke-miterlimit:4;stroke-dasharray:none"
           d="m 97.880714,236.96863 a 30,30 0 0 1 -30,30 30,30 0 0 1 -30,-30 30,30 0 0 1 30,-30 30,30 0 0 1 30,30 z"
           id="circle4351" />
        <path
           style="fill:#cccccc;fill-opacity:1;stroke:#000000;stroke-width:1;stroke-miterlimit:4;stroke-dasharray:none"
           d="m 133.74113,236.96863 a 30,30 0 0 1 -30,30 30,30 0 0 1 -30.000003,-30 30,30 0 0 1 30.000003,-30 30,30 0 0 1 30,30 z"
           id="circle4353" />
        <g
           aria-label="xor(x, y)"
           style="font-style:normal;font-weight:normal;line-height:0%;font-family:sans-serif;letter-spacing:0px;word-spacing:0px;fill:#000000;fill-opacity:1;stroke:none;stroke-width:1px;stroke-linecap:butt;stroke-linejoin:miter;stroke-opacity:1"
           id="text4355">
          <path
             d="m 154.89996,235.84406 1.61133,-2.65198 h 1.4502 l -2.37671,3.59192 2.45056,3.67248 h -1.43677 l -1.67847,-2.71911 -1.67846,2.71911 h -1.44348 l 2.45056,-3.67248 -2.37671,-3.59192 h 1.43677 z"
             style="font-style:normal;font-variant:normal;font-weight:normal;font-stretch:normal;font-size:13.75px;line-height:1.25;font-family:Roboto;-inkscape-font-specification:Roboto"
             id="path95" />
          <path
             d="m 158.82086,236.75714 q 0,-1.0675 0.41626,-1.92016 0.42298,-0.85267 1.16821,-1.31592 0.75196,-0.46326 1.71204,-0.46326 1.48377,0 2.39685,1.02722 0.9198,1.02722 0.9198,2.73255 v 0.0873 q 0,1.06079 -0.40954,1.90673 -0.40284,0.83924 -1.1615,1.30921 -0.75196,0.46997 -1.73218,0.46997 -1.47705,0 -2.39685,-1.02722 -0.91309,-1.02722 -0.91309,-2.71912 z m 1.24878,0.14771 q 0,1.20849 0.55725,1.9403 0.56397,0.73182 1.50391,0.73182 0.94665,0 1.5039,-0.73853 0.55726,-0.74524 0.55726,-2.0813 0,-1.19507 -0.57068,-1.93359 -0.56397,-0.74524 -1.50391,-0.74524 -0.9198,0 -1.48376,0.73181 -0.56397,0.73181 -0.56397,2.09473 z"
             style="font-style:normal;font-variant:normal;font-weight:normal;font-stretch:normal;font-size:13.75px;line-height:1.25;font-family:Roboto;-inkscape-font-specification:Roboto"
             id="path97" />
          <path
             d="m 170.50299,234.30658 q -0.28198,-0.047 -0.61096,-0.047 -1.22193,0 -1.65833,1.04065 v 5.15625 h -1.24206 v -7.2644 h 1.20849 l 0.0202,0.83923 q 0.61096,-0.97351 1.73217,-0.97351 0.36255,0 0.55054,0.094 z"
             style="font-style:normal;font-variant:normal;font-weight:normal;font-stretch:normal;font-size:13.75px;line-height:1.25;font-family:Roboto;-inkscape-font-specification:Roboto"
             id="path99" />
          <path
             d="m 171.59064,236.48859 q 0,-1.51734 0.40283,-2.91382 0.40955,-1.39649 1.21521,-2.53784 0.80566,-1.14136 1.67175,-1.61133 l 0.25513,0.81909 q -0.98023,0.75195 -1.61133,2.29614 -0.62439,1.54419 -0.68481,3.45764 l -0.007,0.57068 q 0,2.59156 0.94666,4.49829 0.57068,1.14136 1.3562,1.78589 l -0.25513,0.75867 q -0.89294,-0.49683 -1.70532,-1.66504 -1.58447,-2.28271 -1.58447,-5.45837 z"
             style="font-style:normal;font-variant:normal;font-weight:normal;font-stretch:normal;font-size:13.75px;line-height:1.25;font-family:Roboto;-inkscape-font-specification:Roboto"
             id="path101" />
          <path
             d="m 178.77448,235.84406 1.61132,-2.65198 h 1.4502 l -2.37671,3.59192 2.45056,3.67248 h -1.43677 l -1.67846,-2.71911 -1.67847,2.71911 h -1.44348 l 2.45056,-3.67248 -2.37671,-3.59192 h 1.43677 z"
             style="font-style:normal;font-variant:normal;font-weight:normal;font-stretch:normal;font-size:13.75px;line-height:1.25;font-family:Roboto;-inkscape-font-specification:Roboto"
             id="path103" />
          <path
             d="m 183.11835,242.4035 -0.70496,-0.4834 q 0.6311,-0.87951 0.65796,-1.81274 v -1.12121 h 1.21521 v 0.97351 q 0,0.6781 -0.33569,1.3562 -0.32898,0.6781 -0.83252,1.08764 z"
             style="font-style:normal;font-variant:normal;font-weight:normal;font-stretch:normal;font-size:13.75px;line-height:1.25;font-family:Roboto;-inkscape-font-specification:Roboto"
             id="path105" />
          <path
             d="m 191.65839,238.63702 1.69189,-5.44494 h 1.32935 l -2.92054,8.38562 q -0.6781,1.81274 -2.15515,1.81274 l -0.23498,-0.0201 -0.46326,-0.0873 v -1.00708 l 0.33569,0.0269 q 0.63111,0 0.98023,-0.25513 0.35583,-0.25513 0.58411,-0.93323 l 0.27526,-0.73852 -2.59155,-7.18384 h 1.3562 z"
             style="font-style:normal;font-variant:normal;font-weight:normal;font-stretch:normal;font-size:13.75px;line-height:1.25;font-family:Roboto;-inkscape-font-specification:Roboto"
             id="path107" />
          <path
             d="m 198.64752,236.55573 q 0,1.49719 -0.39612,2.87353 -0.3894,1.36963 -1.20178,2.53113 -0.80566,1.1615 -1.69189,1.65161 l -0.26184,-0.75867 q 1.03393,-0.79223 1.65832,-2.45727 0.6311,-1.67176 0.64453,-3.70606 v -0.21484 q 0,-1.40991 -0.29541,-2.61841 -0.29541,-1.21521 -0.8258,-2.17529 -0.52368,-0.96009 -1.18164,-1.49719 l 0.26184,-0.75867 q 0.88623,0.49011 1.68518,1.63818 0.80566,1.14807 1.20178,2.53113 0.40283,1.38306 0.40283,2.96082 z"
             style="font-style:normal;font-variant:normal;font-weight:normal;font-stretch:normal;font-size:13.75px;line-height:1.25;font-family:Roboto;-inkscape-font-specification:Roboto"
             id="path109" />
        </g>
        <path
           style="fill:#ffffff;fill-opacity:1;stroke:#000000;stroke-width:1;stroke-miterlimit:4;stroke-dasharray:none"
           d="m 287.31836,212.95898 a 30,30 0 0 0 -12.06445,24.00977 30,30 0 0 0 12.07421,24.00977 30,30 0 0 0 12.06641,-24.00977 30,30 0 0 0 -12.07617,-24.00977 z"
           transform="translate(-201.51293,0)"
           id="circle4526"
           inkscape:connector-curvature="0" />
      </g>
      <g
         transform="translate(194.45437,0)"
         id="g4361">
        <path
           style="fill:#ffffff;fill-opacity:1;stroke:#000000;stroke-width:1;stroke-miterlimit:4;stroke-dasharray:none"
           d="m 97.880714,315.7605 a 30,30 0 0 1 -30,30 30,30 0 0 1 -30,-30 30,30 0 0 1 30,-30 30,30 0 0 1 30,30 z"
           id="circle4363" />
        <path
           style="fill:#cccccc;fill-opacity:1;stroke:#000000;stroke-width:1;stroke-miterlimit:4;stroke-dasharray:none"
           d="m 133.74113,315.7605 a 30,30 0 0 1 -30,30 30,30 0 0 1 -30.000003,-30 30,30 0 0 1 30.000003,-30 30,30 0 0 1 30,30 z"
           id="circle4365" />
        <g
           aria-label="y"
           style="font-style:normal;font-weight:normal;line-height:0%;font-family:sans-serif;letter-spacing:0px;word-spacing:0px;fill:#000000;fill-opacity:1;stroke:none;stroke-width:1px;stroke-linecap:butt;stroke-linejoin:miter;stroke-opacity:1"
           id="text4367">
          <path
             d="m 154.83954,317.42889 1.69189,-5.44494 h 1.32935 l -2.92053,8.38562 q -0.6781,1.81274 -2.15515,1.81274 l -0.23499,-0.0201 -0.46326,-0.0873 v -1.00708 l 0.3357,0.0269 q 0.6311,0 0.98022,-0.25513 0.35584,-0.25513 0.58411,-0.93323 l 0.27527,-0.73852 -2.59156,-7.18384 h 1.3562 z"
             style="font-style:normal;font-variant:normal;font-weight:normal;font-stretch:normal;font-size:13.75px;line-height:1.25;font-family:Roboto;-inkscape-font-specification:Roboto"
             id="path114" />
        </g>
        <path
           style="fill:#cccccc;fill-opacity:1;stroke:#000000;stroke-width:1;stroke-miterlimit:4;stroke-dasharray:none"
           d="m 287.31836,291.75 a 30,30 0 0 0 -12.06445,24.00977 30,30 0 0 0 12.07421,24.00976 30,30 0 0 0 12.06641,-24.00976 A 30,30 0 0 0 287.31836,291.75 Z"
           transform="translate(-201.51293,0)"
           id="circle4511"
           inkscape:connector-curvature="0" />
      </g>
    </g>
    <g
       id="g4457"
       transform="translate(-31.31476,0)">
      <g
         id="g4373"
         transform="translate(403.0258,0)">
        <g
           id="g4375">
          <path
             style="fill:#cccccc;fill-opacity:1;stroke:#000000;stroke-width:1;stroke-miterlimit:4;stroke-dasharray:none"
             d="m 97.880714,158.1767 a 30,30 0 0 1 -30,30 30,30 0 0 1 -30,-30 30,30 0 0 1 30,-30 30,30 0 0 1 30,30 z"
             id="circle4377" />
          <path
             style="fill:#cccccc;fill-opacity:1;stroke:#000000;stroke-width:1;stroke-miterlimit:4;stroke-dasharray:none"
             d="m 133.74113,158.1767 a 30,30 0 0 1 -30,30 30,30 0 0 1 -30.000003,-30 30,30 0 0 1 30.000003,-30 30,30 0 0 1 30,30 z"
             id="circle4379" />
          <g
             aria-label="x | y"
             style="font-style:normal;font-weight:normal;line-height:0%;font-family:sans-serif;letter-spacing:0px;word-spacing:0px;fill:#000000;fill-opacity:1;stroke:none;stroke-width:1px;stroke-linecap:butt;stroke-linejoin:miter;stroke-opacity:1"
             id="text4381">
            <path
               d="m 154.89996,157.05212 1.61133,-2.65197 h 1.4502 l -2.37671,3.59192 2.45056,3.67248 h -1.43677 l -1.67847,-2.71912 -1.67846,2.71912 h -1.44348 l 2.45056,-3.67248 -2.37671,-3.59192 h 1.43677 z"
               style="font-style:normal;font-variant:normal;font-weight:normal;font-stretch:normal;font-size:13.75px;line-height:1.25;font-family:Roboto;-inkscape-font-specification:Roboto"
               id="path119" />
            <path
               d="m 163.93011,163.47729 h -1.00036 v -11.58813 h 1.00036 z"
               style="font-style:normal;font-variant:normal;font-weight:normal;font-stretch:normal;font-size:13.75px;line-height:1.25;font-family:Roboto;-inkscape-font-specification:Roboto"
               id="path121" />
            <path
               d="m 171.83905,159.84509 1.69189,-5.44494 h 1.32935 l -2.92053,8.38562 q -0.6781,1.81274 -2.15515,1.81274 l -0.23499,-0.0201 -0.46326,-0.0873 v -1.00708 l 0.3357,0.0268 q 0.6311,0 0.98022,-0.25512 0.35584,-0.25513 0.58411,-0.93323 l 0.27527,-0.73853 -2.59156,-7.18383 h 1.35621 z"
               style="font-style:normal;font-variant:normal;font-weight:normal;font-stretch:normal;font-size:13.75px;line-height:1.25;font-family:Roboto;-inkscape-font-specification:Roboto"
               id="path123" />
          </g>
          <path
             style="fill:#cccccc;fill-opacity:1;stroke:#000000;stroke-width:1;stroke-miterlimit:4;stroke-dasharray:none"
             d="m 488.83398,134.16602 a 30,30 0 0 0 -12.0664,24.00976 30,30 0 0 0 12.07226,24.00977 30,30 0 0 0 12.06641,-24.00977 30,30 0 0 0 -12.07227,-24.00976 z"
             transform="translate(-403.0258,0)"
             id="circle4541"
             inkscape:connector-curvature="0" />
        </g>
      </g>
    </g>
  </g>
</svg>
