<?xml version="1.0" encoding="UTF-8" standalone="no"?>
<svg
   xmlns:dc="http://purl.org/dc/elements/1.1/"
   xmlns:cc="http://creativecommons.org/ns#"
   xmlns:rdf="http://www.w3.org/1999/02/22-rdf-syntax-ns#"
   xmlns:svg="http://www.w3.org/2000/svg"
   xmlns="http://www.w3.org/2000/svg"
   viewBox="0 0 270.41906 236.07901"
   height="66.626747mm"
   width="76.318268mm"
   version="1.1"
   id="svg2">
  <metadata
     id="metadata8">
    <rdf:RDF>
      <cc:Work
         rdf:about="">
        <dc:format>image/svg+xml</dc:format>
        <dc:type
           rdf:resource="http://purl.org/dc/dcmitype/StillImage" />
        <dc:title />
      </cc:Work>
    </rdf:RDF>
  </metadata>
  <defs
     id="defs6" />
  <rect
     ry="7.7099919"
     rx="0"
     y="18.248098"
     x="18.248098"
     height="199.58284"
     width="183.83582"
     id="rect3342"
     style="fill:none;fill-opacity:1;stroke:#000000;stroke-width:1.06312501;stroke-miterlimit:4;stroke-dasharray:none" />
  <g
     transform="translate(17.887642,-433.4328)"
     id="g3551">
    <g
       id="g3457"
       transform="translate(0,9.4608307)">
      <g
         id="text3338"
         style="font-style:normal;font-weight:normal;line-height:0%;font-family:sans-serif;letter-spacing:0px;word-spacing:0px;fill:#000000;fill-opacity:1;stroke:none;stroke-width:1px;stroke-linecap:butt;stroke-linejoin:miter;stroke-opacity:1"
         aria-label="Vacío
(NULL)">
        <path
           id="path34"
           style="font-style:normal;font-variant:normal;font-weight:bold;font-stretch:normal;font-size:15px;line-height:1.25;font-family:'Fira Sans';-inkscape-font-specification:'Fira Sans Bold'"
           d="m 199.02393,453.52495 h -2.52 l -1.86,8.475 -1.98,-8.475 h -2.595 l 3,10.395 h 3.06 z" />
        <path
           id="path36"
           style="font-style:normal;font-variant:normal;font-weight:bold;font-stretch:normal;font-size:15px;line-height:1.25;font-family:'Fira Sans';-inkscape-font-specification:'Fira Sans Bold'"
           d="m 205.49268,461.60995 v -3.09 c 0,-1.845 -0.99,-2.82 -3.3,-2.82 -0.9,0 -1.995,0.21 -3,0.585 l 0.54,1.56 c 0.795,-0.27 1.575,-0.42 2.085,-0.42 0.975,0 1.35,0.285 1.35,1.23 v 0.345 h -0.81 c -2.415,0 -3.735,0.945 -3.735,2.685 0,1.455 1.005,2.49 2.595,2.49 0.945,0 1.83,-0.315 2.4,-1.2 0.36,0.795 0.975,1.08 1.92,1.155 l 0.495,-1.545 c -0.375,-0.135 -0.54,-0.36 -0.54,-0.975 z m -3.585,0.87 c -0.585,0 -0.93,-0.375 -0.93,-1.005 0,-0.795 0.525,-1.17 1.605,-1.17 h 0.585 v 1.41 c -0.285,0.48 -0.705,0.765 -1.26,0.765 z" />
        <path
           id="path38"
           style="font-style:normal;font-variant:normal;font-weight:bold;font-stretch:normal;font-size:15px;line-height:1.25;font-family:'Fira Sans';-inkscape-font-specification:'Fira Sans Bold'"
           d="m 210.8451,455.69995 c -2.385,0 -3.9,1.77 -3.9,4.305 0,2.52 1.5,4.17 3.945,4.17 1.095,0 1.95,-0.36 2.685,-0.945 l -1.035,-1.47 c -0.57,0.36 -0.96,0.54 -1.53,0.54 -0.945,0 -1.575,-0.54 -1.575,-2.31 0,-1.785 0.585,-2.475 1.605,-2.475 0.54,0 1.005,0.18 1.515,0.57 l 1.02,-1.41 c -0.765,-0.645 -1.62,-0.975 -2.73,-0.975 z" />
        <path
           id="path40"
           style="font-style:normal;font-variant:normal;font-weight:bold;font-stretch:normal;font-size:15px;line-height:1.25;font-family:'Fira Sans';-inkscape-font-specification:'Fira Sans Bold'"
           d="m 216.83784,451.39495 -3.27,1.98 0.66,1.215 3.54,-1.425 z m 0.105,4.56 h -2.37 v 7.965 h 2.37 z" />
        <path
           id="path42"
           style="font-style:normal;font-variant:normal;font-weight:bold;font-stretch:normal;font-size:15px;line-height:1.25;font-family:'Fira Sans';-inkscape-font-specification:'Fira Sans Bold'"
           d="m 222.24159,455.69995 c -2.43,0 -3.9,1.68 -3.9,4.23 0,2.685 1.485,4.245 3.9,4.245 2.43,0 3.9,-1.68 3.9,-4.23 0,-2.685 -1.47,-4.245 -3.9,-4.245 z m 0,1.74 c 0.96,0 1.44,0.735 1.44,2.505 0,1.725 -0.48,2.49 -1.44,2.49 -0.96,0 -1.44,-0.735 -1.44,-2.505 0,-1.725 0.48,-2.49 1.44,-2.49 z" />
        <path
           id="path44"
           style="font-style:normal;font-variant:normal;font-weight:bold;font-stretch:normal;font-size:15px;line-height:1.25;font-family:'Fira Sans';-inkscape-font-specification:'Fira Sans Bold'"
           d="m 193.44393,469.78495 c -1.515,2.085 -2.91,4.05 -2.91,7.635 0,3.585 1.395,5.55 2.91,7.635 l 1.515,-1.02 c -1.395,-1.995 -2.025,-3.84 -2.025,-6.615 0,-2.775 0.63,-4.62 2.025,-6.615 z" />
        <path
           id="path46"
           style="font-style:normal;font-variant:normal;font-weight:bold;font-stretch:normal;font-size:15px;line-height:1.25;font-family:'Fira Sans';-inkscape-font-specification:'Fira Sans Bold'"
           d="m 204.11221,472.27495 h -2.205 v 4.2 c 0,1.665 0.195,3.03 0.33,3.87 l -3.075,-8.07 h -3.06 v 10.395 h 2.19 v -3.81 c 0,-1.92 -0.195,-3.3 -0.315,-4.245 l 3,8.055 h 3.135 z" />
        <path
           id="path48"
           style="font-style:normal;font-variant:normal;font-weight:bold;font-stretch:normal;font-size:15px;line-height:1.25;font-family:'Fira Sans';-inkscape-font-specification:'Fira Sans Bold'"
           d="m 213.99885,472.27495 h -2.46 v 6.84 c 0,1.335 -0.48,1.98 -1.605,1.98 -1.11,0 -1.59,-0.645 -1.59,-1.98 v -6.84 h -2.46 v 6.945 c 0,2.19 1.335,3.705 4.05,3.705 2.715,0 4.065,-1.605 4.065,-3.705 z" />
        <path
           id="path50"
           style="font-style:normal;font-variant:normal;font-weight:bold;font-stretch:normal;font-size:15px;line-height:1.25;font-family:'Fira Sans';-inkscape-font-specification:'Fira Sans Bold'"
           d="m 218.24971,472.27495 h -2.46 v 10.395 h 6.255 l 0.255,-1.95 h -4.05 z" />
        <path
           id="path52"
           style="font-style:normal;font-variant:normal;font-weight:bold;font-stretch:normal;font-size:15px;line-height:1.25;font-family:'Fira Sans';-inkscape-font-specification:'Fira Sans Bold'"
           d="m 225.95479,472.27495 h -2.46 v 10.395 h 6.255 l 0.255,-1.95 h -4.05 z" />
        <path
           id="path54"
           style="font-style:normal;font-variant:normal;font-weight:bold;font-stretch:normal;font-size:15px;line-height:1.25;font-family:'Fira Sans';-inkscape-font-specification:'Fira Sans Bold'"
           d="m 231.91987,469.78495 -1.515,1.02 c 1.38,1.995 2.025,3.84 2.025,6.615 0,2.775 -0.645,4.62 -2.025,6.615 l 1.515,1.02 c 1.5,-2.085 2.895,-4.05 2.895,-7.635 0,-3.585 -1.395,-5.55 -2.895,-7.635 z" />
      </g>
      <g
         id="text3344"
         style="font-style:normal;font-weight:normal;line-height:0%;font-family:sans-serif;letter-spacing:0px;word-spacing:0px;fill:#000000;fill-opacity:1;stroke:none;stroke-width:1px;stroke-linecap:butt;stroke-linejoin:miter;stroke-opacity:1"
         aria-label="Vectores atómicos">
        <path
           id="path57"
           style="font-style:normal;font-variant:normal;font-weight:bold;font-stretch:normal;font-size:15px;line-height:1.25;font-family:'Fira Sans';-inkscape-font-specification:'Fira Sans Bold'"
           d="m 23.936785,453.92778 h -2.52 l -1.86,8.475 -1.98,-8.475 h -2.595 l 3,10.395 h 3.06 z" />
        <path
           id="path59"
           style="font-style:normal;font-variant:normal;font-weight:bold;font-stretch:normal;font-size:15px;line-height:1.25;font-family:'Fira Sans';-inkscape-font-specification:'Fira Sans Bold'"
           d="m 31.225614,460.18278 c 0,-2.58 -1.395,-4.08 -3.675,-4.08 -2.415,0 -3.72,1.89 -3.72,4.275 0,2.49 1.35,4.2 4.005,4.2 1.29,0 2.31,-0.48 3.105,-1.11 l -0.975,-1.32 c -0.69,0.48 -1.26,0.705 -1.905,0.705 -0.975,0 -1.65,-0.39 -1.815,-1.815 h 4.935 c 0.03,-0.24 0.045,-0.6 0.045,-0.855 z m -2.325,-0.57 h -2.655 c 0.105,-1.425 0.57,-1.935 1.365,-1.935 0.945,0 1.275,0.75 1.29,1.83 z" />
        <path
           id="path61"
           style="font-style:normal;font-variant:normal;font-weight:bold;font-stretch:normal;font-size:15px;line-height:1.25;font-family:'Fira Sans';-inkscape-font-specification:'Fira Sans Bold'"
           d="m 36.021629,456.10278 c -2.385,0 -3.9,1.77 -3.9,4.305 0,2.52 1.5,4.17 3.945,4.17 1.095,0 1.95,-0.36 2.685,-0.945 l -1.035,-1.47 c -0.57,0.36 -0.96,0.54 -1.53,0.54 -0.945,0 -1.575,-0.54 -1.575,-2.31 0,-1.785 0.585,-2.475 1.605,-2.475 0.54,0 1.005,0.18 1.515,0.57 l 1.02,-1.41 c -0.765,-0.645 -1.62,-0.975 -2.73,-0.975 z" />
        <path
           id="path63"
           style="font-style:normal;font-variant:normal;font-weight:bold;font-stretch:normal;font-size:15px;line-height:1.25;font-family:'Fira Sans';-inkscape-font-specification:'Fira Sans Bold'"
           d="m 43.949364,462.44778 c -0.315,0.18 -0.585,0.255 -0.855,0.255 -0.495,0 -0.75,-0.27 -0.75,-1.035 v -3.66 h 1.575 l 0.255,-1.65 h -1.83 v -1.995 l -2.37,0.27 v 1.725 h -1.125 v 1.65 h 1.125 v 3.69 c 0,1.875 0.855,2.865 2.61,2.88 0.72,0 1.56,-0.21 2.16,-0.63 z" />
        <path
           id="path65"
           style="font-style:normal;font-variant:normal;font-weight:bold;font-stretch:normal;font-size:15px;line-height:1.25;font-family:'Fira Sans';-inkscape-font-specification:'Fira Sans Bold'"
           d="m 48.736473,456.10278 c -2.43,0 -3.9,1.68 -3.9,4.23 0,2.685 1.485,4.245 3.9,4.245 2.43,0 3.9,-1.68 3.9,-4.23 0,-2.685 -1.47,-4.245 -3.9,-4.245 z m 0,1.74 c 0.96,0 1.44,0.735 1.44,2.505 0,1.725 -0.48,2.49 -1.44,2.49 -0.96,0 -1.44,-0.735 -1.44,-2.505 0,-1.725 0.48,-2.49 1.44,-2.49 z" />
        <path
           id="path67"
           style="font-style:normal;font-variant:normal;font-weight:bold;font-stretch:normal;font-size:15px;line-height:1.25;font-family:'Fira Sans';-inkscape-font-specification:'Fira Sans Bold'"
           d="m 58.366239,456.13278 c -0.915,0 -1.695,0.66 -2.055,1.77 l -0.195,-1.545 h -2.07 v 7.965 h 2.37 v -3.945 c 0.255,-1.215 0.66,-1.95 1.65,-1.95 0.27,0 0.465,0.045 0.72,0.105 l 0.375,-2.295 c -0.255,-0.075 -0.495,-0.105 -0.795,-0.105 z" />
        <path
           id="path69"
           style="font-style:normal;font-variant:normal;font-weight:bold;font-stretch:normal;font-size:15px;line-height:1.25;font-family:'Fira Sans';-inkscape-font-specification:'Fira Sans Bold'"
           d="m 66.557645,460.18278 c 0,-2.58 -1.395,-4.08 -3.675,-4.08 -2.415,0 -3.72,1.89 -3.72,4.275 0,2.49 1.35,4.2 4.005,4.2 1.29,0 2.31,-0.48 3.105,-1.11 l -0.975,-1.32 c -0.69,0.48 -1.26,0.705 -1.905,0.705 -0.975,0 -1.65,-0.39 -1.815,-1.815 h 4.935 c 0.03,-0.24 0.045,-0.6 0.045,-0.855 z m -2.325,-0.57 h -2.655 c 0.105,-1.425 0.57,-1.935 1.365,-1.935 0.945,0 1.275,0.75 1.29,1.83 z" />
        <path
           id="path71"
           style="font-style:normal;font-variant:normal;font-weight:bold;font-stretch:normal;font-size:15px;line-height:1.25;font-family:'Fira Sans';-inkscape-font-specification:'Fira Sans Bold'"
           d="m 70.70866,456.10278 c -2.01,0 -3.255,1.065 -3.255,2.43 0,1.23 0.78,2.04 2.355,2.49 1.44,0.405 1.68,0.57 1.68,1.11 0,0.48 -0.435,0.75 -1.155,0.75 -0.78,0 -1.515,-0.315 -2.115,-0.78 l -1.155,1.29 c 0.78,0.705 1.95,1.185 3.33,1.185 1.98,0 3.54,-0.975 3.54,-2.625 0,-1.425 -0.885,-2.085 -2.46,-2.535 -1.425,-0.42 -1.635,-0.6 -1.635,-1.02 0,-0.36 0.315,-0.6 0.96,-0.6 0.69,0 1.35,0.225 1.965,0.615 l 0.87,-1.335 c -0.735,-0.6 -1.77,-0.975 -2.925,-0.975 z" />
        <path
           id="path73"
           style="font-style:normal;font-variant:normal;font-weight:bold;font-stretch:normal;font-size:15px;line-height:1.25;font-family:'Fira Sans';-inkscape-font-specification:'Fira Sans Bold'"
           d="m 85.01491,462.01278 v -3.09 c 0,-1.845 -0.99,-2.82 -3.3,-2.82 -0.9,0 -1.995,0.21 -3,0.585 l 0.54,1.56 c 0.795,-0.27 1.575,-0.42 2.085,-0.42 0.975,0 1.35,0.285 1.35,1.23 v 0.345 h -0.81 c -2.415,0 -3.735,0.945 -3.735,2.685 0,1.455 1.005,2.49 2.595,2.49 0.945,0 1.83,-0.315 2.4,-1.2 0.36,0.795 0.975,1.08 1.92,1.155 l 0.495,-1.545 c -0.375,-0.135 -0.54,-0.36 -0.54,-0.975 z m -3.585,0.87 c -0.585,0 -0.93,-0.375 -0.93,-1.005 0,-0.795 0.525,-1.17 1.605,-1.17 h 0.585 v 1.41 c -0.285,0.48 -0.705,0.765 -1.26,0.765 z" />
        <path
           id="path75"
           style="font-style:normal;font-variant:normal;font-weight:bold;font-stretch:normal;font-size:15px;line-height:1.25;font-family:'Fira Sans';-inkscape-font-specification:'Fira Sans Bold'"
           d="m 91.117332,462.44778 c -0.315,0.18 -0.585,0.255 -0.855,0.255 -0.495,0 -0.75,-0.27 -0.75,-1.035 v -3.66 h 1.575 l 0.255,-1.65 h -1.83 v -1.995 l -2.37,0.27 v 1.725 h -1.125 v 1.65 h 1.125 v 3.69 c 0,1.875 0.855,2.865 2.61,2.88 0.72,0 1.56,-0.21 2.16,-0.63 z" />
        <path
           id="path77"
           style="font-style:normal;font-variant:normal;font-weight:bold;font-stretch:normal;font-size:15px;line-height:1.25;font-family:'Fira Sans';-inkscape-font-specification:'Fira Sans Bold'"
           d="m 96.984442,451.79778 -3.27,1.98 0.66,1.215 3.54,-1.425 z m -1.08,4.305 c -2.43,0 -3.9,1.68 -3.9,4.23 0,2.685 1.485,4.245 3.9,4.245 2.43,0 3.9,-1.68 3.9,-4.23 0,-2.685 -1.47,-4.245 -3.9,-4.245 z m 0,1.74 c 0.96,0 1.44,0.735 1.44,2.505 0,1.725 -0.48,2.49 -1.44,2.49 -0.96,0 -1.44,-0.735 -1.44,-2.505 0,-1.725 0.48,-2.49 1.44,-2.49 z" />
        <path
           id="path79"
           style="font-style:normal;font-variant:normal;font-weight:bold;font-stretch:normal;font-size:15px;line-height:1.25;font-family:'Fira Sans';-inkscape-font-specification:'Fira Sans Bold'"
           d="m 110.01921,456.10278 c -1.02,0 -1.755,0.42 -2.385,1.26 -0.3,-0.81 -0.99,-1.26 -1.875,-1.26 -0.975,0 -1.695,0.405 -2.31,1.185 l -0.165,-0.93 h -2.07 v 7.965 h 2.37 v -5.445 c 0.345,-0.66 0.72,-1.035 1.215,-1.035 0.36,0 0.675,0.225 0.675,1.065 v 5.415 h 2.37 v -5.445 c 0.345,-0.66 0.705,-1.035 1.215,-1.035 0.36,0 0.675,0.225 0.675,1.065 v 5.415 h 2.37 v -5.82 c 0,-1.515 -0.855,-2.4 -2.085,-2.4 z" />
        <path
           id="path81"
           style="font-style:normal;font-variant:normal;font-weight:bold;font-stretch:normal;font-size:15px;line-height:1.25;font-family:'Fira Sans';-inkscape-font-specification:'Fira Sans Bold'"
           d="m 115.06975,452.15778 c -0.825,0 -1.395,0.585 -1.395,1.35 0,0.765 0.57,1.35 1.395,1.35 0.825,0 1.41,-0.585 1.41,-1.35 0,-0.765 -0.585,-1.35 -1.41,-1.35 z m 1.2,4.2 h -2.37 v 7.965 h 2.37 z" />
        <path
           id="path83"
           style="font-style:normal;font-variant:normal;font-weight:bold;font-stretch:normal;font-size:15px;line-height:1.25;font-family:'Fira Sans';-inkscape-font-specification:'Fira Sans Bold'"
           d="m 121.5685,456.10278 c -2.385,0 -3.9,1.77 -3.9,4.305 0,2.52 1.5,4.17 3.945,4.17 1.095,0 1.95,-0.36 2.685,-0.945 l -1.035,-1.47 c -0.57,0.36 -0.96,0.54 -1.53,0.54 -0.945,0 -1.575,-0.54 -1.575,-2.31 0,-1.785 0.585,-2.475 1.605,-2.475 0.54,0 1.005,0.18 1.515,0.57 l 1.02,-1.41 c -0.765,-0.645 -1.62,-0.975 -2.73,-0.975 z" />
        <path
           id="path85"
           style="font-style:normal;font-variant:normal;font-weight:bold;font-stretch:normal;font-size:15px;line-height:1.25;font-family:'Fira Sans';-inkscape-font-specification:'Fira Sans Bold'"
           d="m 128.45327,456.10278 c -2.43,0 -3.9,1.68 -3.9,4.23 0,2.685 1.485,4.245 3.9,4.245 2.43,0 3.9,-1.68 3.9,-4.23 0,-2.685 -1.47,-4.245 -3.9,-4.245 z m 0,1.74 c 0.96,0 1.44,0.735 1.44,2.505 0,1.725 -0.48,2.49 -1.44,2.49 -0.96,0 -1.44,-0.735 -1.44,-2.505 0,-1.725 0.48,-2.49 1.44,-2.49 z" />
        <path
           id="path87"
           style="font-style:normal;font-variant:normal;font-weight:bold;font-stretch:normal;font-size:15px;line-height:1.25;font-family:'Fira Sans';-inkscape-font-specification:'Fira Sans Bold'"
           d="m 136.56804,456.10278 c -2.01,0 -3.255,1.065 -3.255,2.43 0,1.23 0.78,2.04 2.355,2.49 1.44,0.405 1.68,0.57 1.68,1.11 0,0.48 -0.435,0.75 -1.155,0.75 -0.78,0 -1.515,-0.315 -2.115,-0.78 l -1.155,1.29 c 0.78,0.705 1.95,1.185 3.33,1.185 1.98,0 3.54,-0.975 3.54,-2.625 0,-1.425 -0.885,-2.085 -2.46,-2.535 -1.425,-0.42 -1.635,-0.6 -1.635,-1.02 0,-0.36 0.315,-0.6 0.96,-0.6 0.69,0 1.35,0.225 1.965,0.615 l 0.87,-1.335 c -0.735,-0.6 -1.77,-0.975 -2.925,-0.975 z" />
      </g>
    </g>
    <g
       style="stroke-width:1.0629921;stroke-miterlimit:4;stroke-dasharray:none"
       id="g3530">
      <g
         style="stroke-width:1.0629921;stroke-miterlimit:4;stroke-dasharray:none"
         transform="translate(-1.8527171)"
         id="g3434">
        <path
           id="rect3348"
           d="m 23.069931,486.87305 h 96.073379 c 3.27729,0 5.91569,2.6384 5.91569,5.91569 v 141.30385 c 0,3.27729 -2.6384,5.9157 -5.91569,5.9157 H 23.069931 c -3.277296,0 -5.915697,-2.63841 -5.915697,-5.9157 V 492.78874 c 0,-3.27729 2.638401,-5.91569 5.915697,-5.91569 z"
           style="fill:none;fill-opacity:1;stroke:#000000;stroke-width:1.0629921;stroke-miterlimit:4;stroke-dasharray:none" />
        <g
           style="stroke-width:1.0629921;stroke-miterlimit:4;stroke-dasharray:none"
           id="g3415"
           transform="translate(0,8.4376144)">
          <g
             style="stroke-width:1.0629921;stroke-miterlimit:4;stroke-dasharray:none"
             transform="translate(0,1.8863373)"
             id="g3513">
            <g
               id="text3350"
               style="font-style:normal;font-weight:normal;line-height:0%;font-family:sans-serif;letter-spacing:0px;word-spacing:0px;fill:#000000;fill-opacity:1;stroke:none;stroke-width:1.0629921;stroke-linecap:butt;stroke-linejoin:miter;stroke-miterlimit:4;stroke-dasharray:none;stroke-opacity:1"
               aria-label="Lógicos">
              <path
                 id="path91"
                 style="font-style:normal;font-variant:normal;font-weight:normal;font-stretch:normal;font-size:15px;line-height:1.25;font-family:'Fira Sans';-inkscape-font-specification:'Fira Sans';stroke-width:1.0629921;stroke-miterlimit:4;stroke-dasharray:none"
                 d="m 29.745854,486.23894 h -1.425 v 10.335 h 5.505 l 0.165,-1.245 h -4.245 z" />
              <path
                 id="path93"
                 style="font-style:normal;font-variant:normal;font-weight:normal;font-stretch:normal;font-size:15px;line-height:1.25;font-family:'Fira Sans';-inkscape-font-specification:'Fira Sans';stroke-width:1.0629921;stroke-miterlimit:4;stroke-dasharray:none"
                 d="m 39.475698,484.55894 -2.985,1.71 0.42,0.735 3.18,-1.29 z m -1.17,3.93 c -2.25,0 -3.54,1.695 -3.54,4.14 0,2.505 1.275,4.125 3.525,4.125 2.235,0 3.525,-1.695 3.525,-4.14 0,-2.505 -1.26,-4.125 -3.51,-4.125 z m 0,1.11 c 1.305,0 2.025,0.96 2.025,3.015 0,2.07 -0.72,3.03 -2.04,3.03 -1.32,0 -2.04,-0.96 -2.04,-3.015 0,-2.07 0.735,-3.03 2.055,-3.03 z" />
              <path
                 id="path95"
                 style="font-style:normal;font-variant:normal;font-weight:normal;font-stretch:normal;font-size:15px;line-height:1.25;font-family:'Fira Sans';-inkscape-font-specification:'Fira Sans';stroke-width:1.0629921;stroke-miterlimit:4;stroke-dasharray:none"
                 d="m 50.065464,487.78394 c -0.93,0.42 -1.65,0.75 -3.615,0.705 -1.74,0 -3.045,1.14 -3.045,2.76 0,1.02 0.42,1.71 1.335,2.19 -0.57,0.375 -0.87,0.885 -0.87,1.395 0,0.795 0.63,1.5 2.04,1.5 h 1.245 c 0.99,0 1.59,0.375 1.59,1.125 0,0.795 -0.6,1.23 -2.31,1.23 -1.74,0 -2.145,-0.42 -2.145,-1.32 h -1.245 c 0,1.605 0.81,2.4 3.39,2.4 2.445,0 3.705,-0.87 3.705,-2.4 0,-1.26 -1.08,-2.19 -2.7,-2.19 h -1.26 c -0.81,0 -1.035,-0.285 -1.035,-0.645 0,-0.285 0.165,-0.57 0.39,-0.735 0.33,0.105 0.645,0.15 1.005,0.15 1.89,0 3.015,-1.125 3.015,-2.685 0,-0.915 -0.465,-1.575 -1.395,-1.995 0.9,0 1.65,-0.03 2.31,-0.24 z m -3.615,1.695 c 1.125,0 1.695,0.6 1.695,1.755 0,1.14 -0.585,1.8 -1.665,1.8 -1.08,0 -1.665,-0.735 -1.665,-1.785 0,-1.035 0.57,-1.77 1.635,-1.77 z" />
              <path
                 id="path97"
                 style="font-style:normal;font-variant:normal;font-weight:normal;font-stretch:normal;font-size:15px;line-height:1.25;font-family:'Fira Sans';-inkscape-font-specification:'Fira Sans';stroke-width:1.0629921;stroke-miterlimit:4;stroke-dasharray:none"
                 d="m 52.563432,484.87394 c -0.57,0 -0.96,0.405 -0.96,0.945 0,0.525 0.39,0.93 0.96,0.93 0.585,0 0.975,-0.405 0.975,-0.93 0,-0.54 -0.39,-0.945 -0.975,-0.945 z m 0.705,3.795 h -1.38 v 7.905 h 1.38 z" />
              <path
                 id="path99"
                 style="font-style:normal;font-variant:normal;font-weight:normal;font-stretch:normal;font-size:15px;line-height:1.25;font-family:'Fira Sans';-inkscape-font-specification:'Fira Sans';stroke-width:1.0629921;stroke-miterlimit:4;stroke-dasharray:none"
                 d="m 58.987182,488.48894 c -2.145,0 -3.45,1.68 -3.45,4.2 0,2.55 1.32,4.065 3.45,4.065 0.915,0 1.71,-0.3 2.415,-0.87 l -0.63,-0.9 c -0.6,0.39 -1.065,0.6 -1.725,0.6 -1.245,0 -2.025,-0.855 -2.025,-2.925 0,-2.055 0.78,-3.03 2.025,-3.03 0.66,0 1.155,0.195 1.695,0.585 l 0.66,-0.87 c -0.735,-0.615 -1.485,-0.855 -2.415,-0.855 z" />
              <path
                 id="path101"
                 style="font-style:normal;font-variant:normal;font-weight:normal;font-stretch:normal;font-size:15px;line-height:1.25;font-family:'Fira Sans';-inkscape-font-specification:'Fira Sans';stroke-width:1.0629921;stroke-miterlimit:4;stroke-dasharray:none"
                 d="m 65.961948,488.48894 c -2.25,0 -3.54,1.695 -3.54,4.14 0,2.505 1.275,4.125 3.525,4.125 2.235,0 3.525,-1.695 3.525,-4.14 0,-2.505 -1.26,-4.125 -3.51,-4.125 z m 0,1.11 c 1.305,0 2.025,0.96 2.025,3.015 0,2.07 -0.72,3.03 -2.04,3.03 -1.32,0 -2.04,-0.96 -2.04,-3.015 0,-2.07 0.735,-3.03 2.055,-3.03 z" />
              <path
                 id="path103"
                 style="font-style:normal;font-variant:normal;font-weight:normal;font-stretch:normal;font-size:15px;line-height:1.25;font-family:'Fira Sans';-inkscape-font-specification:'Fira Sans';stroke-width:1.0629921;stroke-miterlimit:4;stroke-dasharray:none"
                 d="m 73.896714,488.48894 c -1.635,0 -2.85,0.915 -2.85,2.175 0,1.11 0.675,1.845 2.385,2.295 1.53,0.405 1.92,0.705 1.92,1.485 0,0.75 -0.66,1.2 -1.695,1.2 -0.855,0 -1.59,-0.285 -2.22,-0.765 l -0.735,0.84 c 0.69,0.6 1.65,1.035 2.985,1.035 1.605,0 3.12,-0.75 3.12,-2.4 0,-1.38 -0.96,-2.04 -2.625,-2.46 -1.275,-0.33 -1.695,-0.63 -1.695,-1.275 0,-0.63 0.555,-1.035 1.455,-1.035 0.735,0 1.35,0.225 2.055,0.675 l 0.585,-0.87 c -0.75,-0.57 -1.575,-0.9 -2.685,-0.9 z" />
            </g>
            <g
               id="text3368"
               style="font-style:normal;font-weight:normal;line-height:0%;font-family:sans-serif;letter-spacing:0px;word-spacing:0px;fill:#000000;fill-opacity:1;stroke:none;stroke-width:1.0629921;stroke-linecap:butt;stroke-linejoin:miter;stroke-miterlimit:4;stroke-dasharray:none;stroke-opacity:1"
               aria-label="Caracteres">
              <path
                 id="path106"
                 style="font-style:normal;font-variant:normal;font-weight:normal;font-stretch:normal;font-size:15px;line-height:1.25;font-family:'Fira Sans';-inkscape-font-specification:'Fira Sans';stroke-width:1.0629921;stroke-miterlimit:4;stroke-dasharray:none"
                 d="m 31.935854,610.248 c -2.34,0 -4.29,1.845 -4.29,5.34 0,3.48 1.815,5.355 4.32,5.355 1.395,0 2.385,-0.57 2.955,-1.155 l -0.705,-0.9 c -0.585,0.435 -1.23,0.855 -2.205,0.855 -1.605,0 -2.85,-1.17 -2.85,-4.155 0,-3.12 1.305,-4.17 2.865,-4.17 0.72,0 1.35,0.24 1.995,0.765 l 0.78,-0.915 c -0.825,-0.66 -1.56,-1.02 -2.865,-1.02 z" />
              <path
                 id="path108"
                 style="font-style:normal;font-variant:normal;font-weight:normal;font-stretch:normal;font-size:15px;line-height:1.25;font-family:'Fira Sans';-inkscape-font-specification:'Fira Sans';stroke-width:1.0629921;stroke-miterlimit:4;stroke-dasharray:none"
                 d="m 41.832573,618.918 v -3.615 c 0,-1.65 -0.87,-2.625 -2.775,-2.625 -0.885,0 -1.755,0.18 -2.73,0.54 l 0.345,1.005 c 0.81,-0.27 1.545,-0.42 2.13,-0.42 1.095,0 1.65,0.42 1.65,1.56 v 0.585 h -1.215 c -2.205,0 -3.48,0.915 -3.48,2.61 0,1.41 0.945,2.385 2.52,2.385 0.96,0 1.8,-0.36 2.355,-1.185 0.24,0.78 0.75,1.095 1.545,1.185 l 0.315,-0.96 c -0.405,-0.15 -0.66,-0.375 -0.66,-1.065 z m -3.24,0.99 c -0.9,0 -1.365,-0.495 -1.365,-1.425 0,-1.08 0.735,-1.62 2.19,-1.62 h 1.035 v 1.815 c -0.45,0.825 -1.05,1.23 -1.86,1.23 z" />
              <path
                 id="path110"
                 style="font-style:normal;font-variant:normal;font-weight:normal;font-stretch:normal;font-size:15px;line-height:1.25;font-family:'Fira Sans';-inkscape-font-specification:'Fira Sans';stroke-width:1.0629921;stroke-miterlimit:4;stroke-dasharray:none"
                 d="m 48.116401,612.678 c -0.96,0 -1.695,0.6 -2.115,1.785 l -0.135,-1.605 h -1.185 v 7.905 h 1.38 v -4.515 c 0.33,-1.515 0.9,-2.22 1.89,-2.22 0.285,0 0.45,0.03 0.69,0.09 l 0.255,-1.35 c -0.24,-0.06 -0.525,-0.09 -0.78,-0.09 z" />
              <path
                 id="path112"
                 style="font-style:normal;font-variant:normal;font-weight:normal;font-stretch:normal;font-size:15px;line-height:1.25;font-family:'Fira Sans';-inkscape-font-specification:'Fira Sans';stroke-width:1.0629921;stroke-miterlimit:4;stroke-dasharray:none"
                 d="m 55.279839,618.918 v -3.615 c 0,-1.65 -0.87,-2.625 -2.775,-2.625 -0.885,0 -1.755,0.18 -2.73,0.54 l 0.345,1.005 c 0.81,-0.27 1.545,-0.42 2.13,-0.42 1.095,0 1.65,0.42 1.65,1.56 v 0.585 h -1.215 c -2.205,0 -3.48,0.915 -3.48,2.61 0,1.41 0.945,2.385 2.52,2.385 0.96,0 1.8,-0.36 2.355,-1.185 0.24,0.78 0.75,1.095 1.545,1.185 l 0.315,-0.96 c -0.405,-0.15 -0.66,-0.375 -0.66,-1.065 z m -3.24,0.99 c -0.9,0 -1.365,-0.495 -1.365,-1.425 0,-1.08 0.735,-1.62 2.19,-1.62 h 1.035 v 1.815 c -0.45,0.825 -1.05,1.23 -1.86,1.23 z" />
              <path
                 id="path114"
                 style="font-style:normal;font-variant:normal;font-weight:normal;font-stretch:normal;font-size:15px;line-height:1.25;font-family:'Fira Sans';-inkscape-font-specification:'Fira Sans';stroke-width:1.0629921;stroke-miterlimit:4;stroke-dasharray:none"
                 d="m 61.008667,612.678 c -2.145,0 -3.45,1.68 -3.45,4.2 0,2.55 1.32,4.065 3.45,4.065 0.915,0 1.71,-0.3 2.415,-0.87 l -0.63,-0.9 c -0.6,0.39 -1.065,0.6 -1.725,0.6 -1.245,0 -2.025,-0.855 -2.025,-2.925 0,-2.055 0.78,-3.03 2.025,-3.03 0.66,0 1.155,0.195 1.695,0.585 l 0.66,-0.87 c -0.735,-0.615 -1.485,-0.855 -2.415,-0.855 z" />
              <path
                 id="path116"
                 style="font-style:normal;font-variant:normal;font-weight:normal;font-stretch:normal;font-size:15px;line-height:1.25;font-family:'Fira Sans';-inkscape-font-specification:'Fira Sans';stroke-width:1.0629921;stroke-miterlimit:4;stroke-dasharray:none"
                 d="m 68.771401,619.488 c -0.39,0.21 -0.705,0.315 -1.05,0.315 -0.69,0 -0.945,-0.375 -0.945,-1.17 v -4.71 h 1.725 l 0.15,-1.065 h -1.875 v -1.95 l -1.38,0.165 v 1.785 h -1.38 v 1.065 h 1.38 v 4.77 c 0,1.47 0.795,2.25 2.13,2.25 0.675,0 1.245,-0.18 1.77,-0.54 z" />
              <path
                 id="path118"
                 style="font-style:normal;font-variant:normal;font-weight:normal;font-stretch:normal;font-size:15px;line-height:1.25;font-family:'Fira Sans';-inkscape-font-specification:'Fira Sans';stroke-width:1.0629921;stroke-miterlimit:4;stroke-dasharray:none"
                 d="m 76.461948,616.578 c 0,-2.415 -1.125,-3.9 -3.255,-3.9 -2.04,0 -3.285,1.755 -3.285,4.215 0,2.505 1.29,4.05 3.495,4.05 1.095,0 1.98,-0.375 2.76,-0.99 l -0.6,-0.825 c -0.69,0.48 -1.275,0.69 -2.055,0.69 -1.14,0 -1.995,-0.705 -2.13,-2.535 h 5.04 c 0.015,-0.18 0.03,-0.435 0.03,-0.705 z m -1.365,-0.315 h -3.705 c 0.105,-1.755 0.795,-2.49 1.845,-2.49 1.245,0 1.86,0.855 1.86,2.4 z" />
              <path
                 id="path120"
                 style="font-style:normal;font-variant:normal;font-weight:normal;font-stretch:normal;font-size:15px;line-height:1.25;font-family:'Fira Sans';-inkscape-font-specification:'Fira Sans';stroke-width:1.0629921;stroke-miterlimit:4;stroke-dasharray:none"
                 d="m 82.100776,612.678 c -0.96,0 -1.695,0.6 -2.115,1.785 l -0.135,-1.605 h -1.185 v 7.905 h 1.38 v -4.515 c 0.33,-1.515 0.9,-2.22 1.89,-2.22 0.285,0 0.45,0.03 0.69,0.09 l 0.255,-1.35 c -0.24,-0.06 -0.525,-0.09 -0.78,-0.09 z" />
              <path
                 id="path122"
                 style="font-style:normal;font-variant:normal;font-weight:normal;font-stretch:normal;font-size:15px;line-height:1.25;font-family:'Fira Sans';-inkscape-font-specification:'Fira Sans';stroke-width:1.0629921;stroke-miterlimit:4;stroke-dasharray:none"
                 d="m 89.997104,616.578 c 0,-2.415 -1.125,-3.9 -3.255,-3.9 -2.04,0 -3.285,1.755 -3.285,4.215 0,2.505 1.29,4.05 3.495,4.05 1.095,0 1.98,-0.375 2.76,-0.99 l -0.6,-0.825 c -0.69,0.48 -1.275,0.69 -2.055,0.69 -1.14,0 -1.995,-0.705 -2.13,-2.535 h 5.04 c 0.015,-0.18 0.03,-0.435 0.03,-0.705 z m -1.365,-0.315 h -3.705 c 0.105,-1.755 0.795,-2.49 1.845,-2.49 1.245,0 1.86,0.855 1.86,2.4 z" />
              <path
                 id="path124"
                 style="font-style:normal;font-variant:normal;font-weight:normal;font-stretch:normal;font-size:15px;line-height:1.25;font-family:'Fira Sans';-inkscape-font-specification:'Fira Sans';stroke-width:1.0629921;stroke-miterlimit:4;stroke-dasharray:none"
                 d="m 94.345932,612.678 c -1.635,0 -2.85,0.915 -2.85,2.175 0,1.11 0.675,1.845 2.385,2.295 1.53,0.405 1.92,0.705 1.92,1.485 0,0.75 -0.66,1.2 -1.695,1.2 -0.855,0 -1.59,-0.285 -2.22,-0.765 l -0.735,0.84 c 0.69,0.6 1.65,1.035 2.985,1.035 1.605,0 3.12,-0.75 3.12,-2.4 0,-1.38 -0.96,-2.04 -2.625,-2.46 -1.275,-0.33 -1.695,-0.63 -1.695,-1.275 0,-0.63 0.555,-1.035 1.455,-1.035 0.735,0 1.35,0.225 2.055,0.675 l 0.585,-0.87 c -0.75,-0.57 -1.575,-0.9 -2.685,-0.9 z" />
            </g>
            <g
               style="stroke-width:1.0629921;stroke-miterlimit:4;stroke-dasharray:none"
               id="g3501"
               transform="translate(0,-1.8863305)">
              <g
                 id="text3354"
                 style="font-style:normal;font-weight:normal;line-height:0%;font-family:sans-serif;letter-spacing:0px;word-spacing:0px;fill:#000000;fill-opacity:1;stroke:none;stroke-width:1.0629921;stroke-linecap:butt;stroke-linejoin:miter;stroke-miterlimit:4;stroke-dasharray:none;stroke-opacity:1"
                 aria-label="Numéricos">
                <path
                   id="path127"
                   style="font-style:normal;font-variant:normal;font-weight:bold;font-stretch:normal;font-size:15px;line-height:1.25;font-family:'Fira Sans';-inkscape-font-specification:'Fira Sans Bold';stroke-width:1.0629921;stroke-miterlimit:4;stroke-dasharray:none"
                   d="m 35.805854,522.08376 h -2.205 v 4.2 c 0,1.665 0.195,3.03 0.33,3.87 l -3.075,-8.07 h -3.06 v 10.395 h 2.19 v -3.81 c 0,-1.92 -0.195,-3.3 -0.315,-4.245 l 3,8.055 h 3.135 z" />
                <path
                   id="path129"
                   style="font-style:normal;font-variant:normal;font-weight:bold;font-stretch:normal;font-size:15px;line-height:1.25;font-family:'Fira Sans';-inkscape-font-specification:'Fira Sans Bold';stroke-width:1.0629921;stroke-miterlimit:4;stroke-dasharray:none"
                   d="m 44.402495,524.51376 h -2.37 v 5.535 c -0.345,0.6 -0.795,0.93 -1.29,0.93 -0.495,0 -0.765,-0.24 -0.765,-1.05 v -5.415 h -2.37 v 5.715 c 0,1.545 0.735,2.505 2.22,2.505 1.05,0 1.83,-0.42 2.415,-1.26 l 0.105,1.005 h 2.055 z" />
                <path
                   id="path131"
                   style="font-style:normal;font-variant:normal;font-weight:bold;font-stretch:normal;font-size:15px;line-height:1.25;font-family:'Fira Sans';-inkscape-font-specification:'Fira Sans Bold';stroke-width:1.0629921;stroke-miterlimit:4;stroke-dasharray:none"
                   d="m 55.071479,524.25876 c -1.02,0 -1.755,0.42 -2.385,1.26 -0.3,-0.81 -0.99,-1.26 -1.875,-1.26 -0.975,0 -1.695,0.405 -2.31,1.185 l -0.165,-0.93 h -2.07 v 7.965 h 2.37 v -5.445 c 0.345,-0.66 0.72,-1.035 1.215,-1.035 0.36,0 0.675,0.225 0.675,1.065 v 5.415 h 2.37 v -5.445 c 0.345,-0.66 0.705,-1.035 1.215,-1.035 0.36,0 0.675,0.225 0.675,1.065 v 5.415 h 2.37 v -5.82 c 0,-1.515 -0.855,-2.4 -2.085,-2.4 z" />
                <path
                   id="path133"
                   style="font-style:normal;font-variant:normal;font-weight:bold;font-stretch:normal;font-size:15px;line-height:1.25;font-family:'Fira Sans';-inkscape-font-specification:'Fira Sans Bold';stroke-width:1.0629921;stroke-miterlimit:4;stroke-dasharray:none"
                   d="m 64.277026,521.72376 -0.93,-1.77 -3.27,1.98 0.66,1.215 z m 1.62,6.615 c 0,-2.58 -1.395,-4.08 -3.675,-4.08 -2.415,0 -3.72,1.89 -3.72,4.275 0,2.49 1.35,4.2 4.005,4.2 1.29,0 2.31,-0.48 3.105,-1.11 l -0.975,-1.32 c -0.69,0.48 -1.26,0.705 -1.905,0.705 -0.975,0 -1.65,-0.39 -1.815,-1.815 h 4.935 c 0.03,-0.24 0.045,-0.6 0.045,-0.855 z m -2.325,-0.57 h -2.655 c 0.105,-1.425 0.57,-1.935 1.365,-1.935 0.945,0 1.275,0.75 1.29,1.83 z" />
                <path
                   id="path135"
                   style="font-style:normal;font-variant:normal;font-weight:bold;font-stretch:normal;font-size:15px;line-height:1.25;font-family:'Fira Sans';-inkscape-font-specification:'Fira Sans Bold';stroke-width:1.0629921;stroke-miterlimit:4;stroke-dasharray:none"
                   d="m 71.563042,524.28876 c -0.915,0 -1.695,0.66 -2.055,1.77 l -0.195,-1.545 h -2.07 v 7.965 h 2.37 v -3.945 c 0.255,-1.215 0.66,-1.95 1.65,-1.95 0.27,0 0.465,0.045 0.72,0.105 l 0.375,-2.295 c -0.255,-0.075 -0.495,-0.105 -0.795,-0.105 z" />
                <path
                   id="path137"
                   style="font-style:normal;font-variant:normal;font-weight:bold;font-stretch:normal;font-size:15px;line-height:1.25;font-family:'Fira Sans';-inkscape-font-specification:'Fira Sans Bold';stroke-width:1.0629921;stroke-miterlimit:4;stroke-dasharray:none"
                   d="m 74.418901,520.31376 c -0.825,0 -1.395,0.585 -1.395,1.35 0,0.765 0.57,1.35 1.395,1.35 0.825,0 1.41,-0.585 1.41,-1.35 0,-0.765 -0.585,-1.35 -1.41,-1.35 z m 1.2,4.2 h -2.37 v 7.965 h 2.37 z" />
                <path
                   id="path139"
                   style="font-style:normal;font-variant:normal;font-weight:bold;font-stretch:normal;font-size:15px;line-height:1.25;font-family:'Fira Sans';-inkscape-font-specification:'Fira Sans Bold';stroke-width:1.0629921;stroke-miterlimit:4;stroke-dasharray:none"
                   d="m 80.917651,524.25876 c -2.385,0 -3.9,1.77 -3.9,4.305 0,2.52 1.5,4.17 3.945,4.17 1.095,0 1.95,-0.36 2.685,-0.945 l -1.035,-1.47 c -0.57,0.36 -0.96,0.54 -1.53,0.54 -0.945,0 -1.575,-0.54 -1.575,-2.31 0,-1.785 0.585,-2.475 1.605,-2.475 0.54,0 1.005,0.18 1.515,0.57 l 1.02,-1.41 c -0.765,-0.645 -1.62,-0.975 -2.73,-0.975 z" />
                <path
                   id="path141"
                   style="font-style:normal;font-variant:normal;font-weight:bold;font-stretch:normal;font-size:15px;line-height:1.25;font-family:'Fira Sans';-inkscape-font-specification:'Fira Sans Bold';stroke-width:1.0629921;stroke-miterlimit:4;stroke-dasharray:none"
                   d="m 87.802417,524.25876 c -2.43,0 -3.9,1.68 -3.9,4.23 0,2.685 1.485,4.245 3.9,4.245 2.43,0 3.9,-1.68 3.9,-4.23 0,-2.685 -1.47,-4.245 -3.9,-4.245 z m 0,1.74 c 0.96,0 1.44,0.735 1.44,2.505 0,1.725 -0.48,2.49 -1.44,2.49 -0.96,0 -1.44,-0.735 -1.44,-2.505 0,-1.725 0.48,-2.49 1.44,-2.49 z" />
                <path
                   id="path143"
                   style="font-style:normal;font-variant:normal;font-weight:bold;font-stretch:normal;font-size:15px;line-height:1.25;font-family:'Fira Sans';-inkscape-font-specification:'Fira Sans Bold';stroke-width:1.0629921;stroke-miterlimit:4;stroke-dasharray:none"
                   d="m 95.917182,524.25876 c -2.01,0 -3.255,1.065 -3.255,2.43 0,1.23 0.78,2.04 2.355,2.49 1.44,0.405 1.68,0.57 1.68,1.11 0,0.48 -0.435,0.75 -1.155,0.75 -0.78,0 -1.515,-0.315 -2.115,-0.78 l -1.155,1.29 c 0.78,0.705 1.95,1.185 3.33,1.185 1.98,0 3.54,-0.975 3.54,-2.625 0,-1.425 -0.885,-2.085 -2.46,-2.535 -1.425,-0.42 -1.635,-0.6 -1.635,-1.02 0,-0.36 0.315,-0.6 0.96,-0.6 0.69,0 1.35,0.225 1.965,0.615 l 0.87,-1.335 c -0.735,-0.6 -1.77,-0.975 -2.925,-0.975 z" />
              </g>
              <g
                 style="stroke-width:1.0629921;stroke-miterlimit:4;stroke-dasharray:none"
                 id="g3494">
                <path
                   id="rect3358"
                   d="m 28.413465,537.12177 h 82.575575 c 1.16271,0 2.09875,0.93604 2.09875,2.09875 v 50.13129 c 0,1.16271 -0.93604,2.09875 -2.09875,2.09875 H 28.413465 c -1.162708,0 -2.098751,-0.93604 -2.098751,-2.09875 v -50.13129 c 0,-1.16271 0.936043,-2.09875 2.098751,-2.09875 z"
                   style="fill:none;fill-opacity:1;stroke:#000000;stroke-width:1.0629921;stroke-miterlimit:4;stroke-dasharray:none" />
                <g
                   id="text3360"
                   style="font-style:normal;font-weight:normal;line-height:0%;font-family:sans-serif;letter-spacing:0px;word-spacing:0px;fill:#000000;fill-opacity:1;stroke:none;stroke-width:1.0629921;stroke-linecap:butt;stroke-linejoin:miter;stroke-miterlimit:4;stroke-dasharray:none;stroke-opacity:1"
                   aria-label="Enteros">
                  <path
                     id="path147"
                     style="font-style:normal;font-variant:normal;font-weight:normal;font-stretch:normal;font-size:15px;line-height:1.25;font-family:'Fira Sans';-inkscape-font-specification:'Fira Sans';stroke-width:1.0629921;stroke-miterlimit:4;stroke-dasharray:none"
                     d="m 41.120253,549.43252 h -5.595 v 10.335 h 5.715 v -1.14 h -4.29 v -3.54 h 3.48 v -1.14 h -3.48 v -3.375 h 4.005 z" />
                  <path
                     id="path149"
                     style="font-style:normal;font-variant:normal;font-weight:normal;font-stretch:normal;font-size:15px;line-height:1.25;font-family:'Fira Sans';-inkscape-font-specification:'Fira Sans';stroke-width:1.0629921;stroke-miterlimit:4;stroke-dasharray:none"
                     d="m 47.051113,551.68252 c -1.035,0 -1.875,0.54 -2.415,1.35 l -0.12,-1.17 h -1.185 v 7.905 h 1.38 v -5.61 c 0.525,-0.84 1.125,-1.395 2.01,-1.395 0.765,0 1.245,0.345 1.245,1.53 v 5.475 h 1.38 v -5.67 c 0,-1.5 -0.84,-2.415 -2.295,-2.415 z" />
                  <path
                     id="path151"
                     style="font-style:normal;font-variant:normal;font-weight:normal;font-stretch:normal;font-size:15px;line-height:1.25;font-family:'Fira Sans';-inkscape-font-specification:'Fira Sans';stroke-width:1.0629921;stroke-miterlimit:4;stroke-dasharray:none"
                     d="m 55.585175,558.49252 c -0.39,0.21 -0.705,0.315 -1.05,0.315 -0.69,0 -0.945,-0.375 -0.945,-1.17 v -4.71 h 1.725 l 0.15,-1.065 h -1.875 v -1.95 l -1.38,0.165 v 1.785 h -1.38 v 1.065 h 1.38 v 4.77 c 0,1.47 0.795,2.25 2.13,2.25 0.675,0 1.245,-0.18 1.77,-0.54 z" />
                  <path
                     id="path153"
                     style="font-style:normal;font-variant:normal;font-weight:normal;font-stretch:normal;font-size:15px;line-height:1.25;font-family:'Fira Sans';-inkscape-font-specification:'Fira Sans';stroke-width:1.0629921;stroke-miterlimit:4;stroke-dasharray:none"
                     d="m 63.275722,555.58252 c 0,-2.415 -1.125,-3.9 -3.255,-3.9 -2.04,0 -3.285,1.755 -3.285,4.215 0,2.505 1.29,4.05 3.495,4.05 1.095,0 1.98,-0.375 2.76,-0.99 l -0.6,-0.825 c -0.69,0.48 -1.275,0.69 -2.055,0.69 -1.14,0 -1.995,-0.705 -2.13,-2.535 h 5.04 c 0.015,-0.18 0.03,-0.435 0.03,-0.705 z m -1.365,-0.315 h -3.705 c 0.105,-1.755 0.795,-2.49 1.845,-2.49 1.245,0 1.86,0.855 1.86,2.4 z" />
                  <path
                     id="path155"
                     style="font-style:normal;font-variant:normal;font-weight:normal;font-stretch:normal;font-size:15px;line-height:1.25;font-family:'Fira Sans';-inkscape-font-specification:'Fira Sans';stroke-width:1.0629921;stroke-miterlimit:4;stroke-dasharray:none"
                     d="m 68.91455,551.68252 c -0.96,0 -1.695,0.6 -2.115,1.785 l -0.135,-1.605 h -1.185 v 7.905 h 1.38 v -4.515 c 0.33,-1.515 0.9,-2.22 1.89,-2.22 0.285,0 0.45,0.03 0.69,0.09 l 0.255,-1.35 c -0.24,-0.06 -0.525,-0.09 -0.78,-0.09 z" />
                  <path
                     id="path157"
                     style="font-style:normal;font-variant:normal;font-weight:normal;font-stretch:normal;font-size:15px;line-height:1.25;font-family:'Fira Sans';-inkscape-font-specification:'Fira Sans';stroke-width:1.0629921;stroke-miterlimit:4;stroke-dasharray:none"
                     d="m 73.810878,551.68252 c -2.25,0 -3.54,1.695 -3.54,4.14 0,2.505 1.275,4.125 3.525,4.125 2.235,0 3.525,-1.695 3.525,-4.14 0,-2.505 -1.26,-4.125 -3.51,-4.125 z m 0,1.11 c 1.305,0 2.025,0.96 2.025,3.015 0,2.07 -0.72,3.03 -2.04,3.03 -1.32,0 -2.04,-0.96 -2.04,-3.015 0,-2.07 0.735,-3.03 2.055,-3.03 z" />
                  <path
                     id="path159"
                     style="font-style:normal;font-variant:normal;font-weight:normal;font-stretch:normal;font-size:15px;line-height:1.25;font-family:'Fira Sans';-inkscape-font-specification:'Fira Sans';stroke-width:1.0629921;stroke-miterlimit:4;stroke-dasharray:none"
                     d="m 81.745644,551.68252 c -1.635,0 -2.85,0.915 -2.85,2.175 0,1.11 0.675,1.845 2.385,2.295 1.53,0.405 1.92,0.705 1.92,1.485 0,0.75 -0.66,1.2 -1.695,1.2 -0.855,0 -1.59,-0.285 -2.22,-0.765 l -0.735,0.84 c 0.69,0.6 1.65,1.035 2.985,1.035 1.605,0 3.12,-0.75 3.12,-2.4 0,-1.38 -0.96,-2.04 -2.625,-2.46 -1.275,-0.33 -1.695,-0.63 -1.695,-1.275 0,-0.63 0.555,-1.035 1.455,-1.035 0.735,0 1.35,0.225 2.055,0.675 l 0.585,-0.87 c -0.75,-0.57 -1.575,-0.9 -2.685,-0.9 z" />
                </g>
                <g
                   id="text3364"
                   style="font-style:normal;font-weight:normal;line-height:0%;font-family:sans-serif;letter-spacing:0px;word-spacing:0px;fill:#000000;fill-opacity:1;stroke:none;stroke-width:1.0629921;stroke-linecap:butt;stroke-linejoin:miter;stroke-miterlimit:4;stroke-dasharray:none;stroke-opacity:1"
                   aria-label="Dobles">
                  <path
                     id="path162"
                     style="font-style:normal;font-variant:normal;font-weight:normal;font-stretch:normal;font-size:15px;line-height:1.25;font-family:'Fira Sans';-inkscape-font-specification:'Fira Sans';stroke-width:1.0629921;stroke-miterlimit:4;stroke-dasharray:none"
                     d="m 37.685253,568.98733 h -2.16 v 10.335 h 2.475 c 2.235,0 4.86,-1.005 4.86,-5.22 0,-4.29 -2.535,-5.115 -5.175,-5.115 z m 0.315,1.14 c 1.65,0 3.345,0.48 3.345,3.975 0,3.405 -1.62,4.095 -3.24,4.095 h -1.155 v -8.07 z" />
                  <path
                     id="path164"
                     style="font-style:normal;font-variant:normal;font-weight:normal;font-stretch:normal;font-size:15px;line-height:1.25;font-family:'Fira Sans';-inkscape-font-specification:'Fira Sans';stroke-width:1.0629921;stroke-miterlimit:4;stroke-dasharray:none"
                     d="m 48.088222,571.23733 c -2.25,0 -3.54,1.695 -3.54,4.14 0,2.505 1.275,4.125 3.525,4.125 2.235,0 3.525,-1.695 3.525,-4.14 0,-2.505 -1.26,-4.125 -3.51,-4.125 z m 0,1.11 c 1.305,0 2.025,0.96 2.025,3.015 0,2.07 -0.72,3.03 -2.04,3.03 -1.32,0 -2.04,-0.96 -2.04,-3.015 0,-2.07 0.735,-3.03 2.055,-3.03 z" />
                  <path
                     id="path166"
                     style="font-style:normal;font-variant:normal;font-weight:normal;font-stretch:normal;font-size:15px;line-height:1.25;font-family:'Fira Sans';-inkscape-font-specification:'Fira Sans';stroke-width:1.0629921;stroke-miterlimit:4;stroke-dasharray:none"
                     d="m 57.492988,571.23733 c -0.96,0 -1.695,0.435 -2.235,1.17 v -4.335 l -1.38,0.165 v 11.085 h 1.215 l 0.135,-0.87 c 0.54,0.66 1.23,1.05 2.1,1.05 1.92,0 3.105,-1.665 3.105,-4.14 0,-2.64 -1.155,-4.125 -2.94,-4.125 z m -0.495,7.17 c -0.705,0 -1.335,-0.435 -1.74,-1.065 v -3.78 c 0.405,-0.63 0.975,-1.23 1.845,-1.23 1.11,0 1.845,0.78 1.845,3.03 0,2.16 -0.795,3.045 -1.95,3.045 z" />
                  <path
                     id="path168"
                     style="font-style:normal;font-variant:normal;font-weight:normal;font-stretch:normal;font-size:15px;line-height:1.25;font-family:'Fira Sans';-inkscape-font-specification:'Fira Sans';stroke-width:1.0629921;stroke-miterlimit:4;stroke-dasharray:none"
                     d="m 64.359238,579.50233 c 0.405,0 0.795,-0.105 1.095,-0.27 l -0.36,-0.96 c -0.15,0.06 -0.315,0.09 -0.51,0.09 -0.36,0 -0.495,-0.21 -0.495,-0.63 v -9.66 l -1.38,0.165 v 9.525 c 0,1.125 0.645,1.74 1.65,1.74 z" />
                  <path
                     id="path170"
                     style="font-style:normal;font-variant:normal;font-weight:normal;font-stretch:normal;font-size:15px;line-height:1.25;font-family:'Fira Sans';-inkscape-font-specification:'Fira Sans';stroke-width:1.0629921;stroke-miterlimit:4;stroke-dasharray:none"
                     d="m 73.060878,575.13733 c 0,-2.415 -1.125,-3.9 -3.255,-3.9 -2.04,0 -3.285,1.755 -3.285,4.215 0,2.505 1.29,4.05 3.495,4.05 1.095,0 1.98,-0.375 2.76,-0.99 l -0.6,-0.825 c -0.69,0.48 -1.275,0.69 -2.055,0.69 -1.14,0 -1.995,-0.705 -2.13,-2.535 h 5.04 c 0.015,-0.18 0.03,-0.435 0.03,-0.705 z m -1.365,-0.315 h -3.705 c 0.105,-1.755 0.795,-2.49 1.845,-2.49 1.245,0 1.86,0.855 1.86,2.4 z" />
                  <path
                     id="path172"
                     style="font-style:normal;font-variant:normal;font-weight:normal;font-stretch:normal;font-size:15px;line-height:1.25;font-family:'Fira Sans';-inkscape-font-specification:'Fira Sans';stroke-width:1.0629921;stroke-miterlimit:4;stroke-dasharray:none"
                     d="m 77.409706,571.23733 c -1.635,0 -2.85,0.915 -2.85,2.175 0,1.11 0.675,1.845 2.385,2.295 1.53,0.405 1.92,0.705 1.92,1.485 0,0.75 -0.66,1.2 -1.695,1.2 -0.855,0 -1.59,-0.285 -2.22,-0.765 l -0.735,0.84 c 0.69,0.6 1.65,1.035 2.985,1.035 1.605,0 3.12,-0.75 3.12,-2.4 0,-1.38 -0.96,-2.04 -2.625,-2.46 -1.275,-0.33 -1.695,-0.63 -1.695,-1.275 0,-0.63 0.555,-1.035 1.455,-1.035 0.735,0 1.35,0.225 2.055,0.675 l 0.585,-0.87 c -0.75,-0.57 -1.575,-0.9 -2.685,-0.9 z" />
                </g>
              </g>
              <g
                 id="text3372"
                 style="font-style:normal;font-weight:normal;line-height:0%;font-family:sans-serif;letter-spacing:0px;word-spacing:0px;fill:#000000;fill-opacity:1;stroke:none;stroke-width:1.0629921;stroke-linecap:butt;stroke-linejoin:miter;stroke-miterlimit:4;stroke-dasharray:none;stroke-opacity:1"
                 aria-label="Listas">
                <path
                   id="path175"
                   style="font-style:normal;font-variant:normal;font-weight:normal;font-stretch:normal;font-size:15px;line-height:1.25;font-family:'Fira Sans';-inkscape-font-specification:'Fira Sans';stroke-width:1.0629921;stroke-miterlimit:4;stroke-dasharray:none"
                   d="m 137.8741,521.88741 h -1.425 v 10.335 h 5.505 l 0.165,-1.245 h -4.245 z" />
                <path
                   id="path177"
                   style="font-style:normal;font-variant:normal;font-weight:normal;font-stretch:normal;font-size:15px;line-height:1.25;font-family:'Fira Sans';-inkscape-font-specification:'Fira Sans';stroke-width:1.0629921;stroke-miterlimit:4;stroke-dasharray:none"
                   d="m 144.5198,520.52241 c -0.57,0 -0.96,0.405 -0.96,0.945 0,0.525 0.39,0.93 0.96,0.93 0.585,0 0.975,-0.405 0.975,-0.93 0,-0.54 -0.39,-0.945 -0.975,-0.945 z m 0.705,3.795 h -1.38 v 7.905 h 1.38 z" />
                <path
                   id="path179"
                   style="font-style:normal;font-variant:normal;font-weight:normal;font-stretch:normal;font-size:15px;line-height:1.25;font-family:'Fira Sans';-inkscape-font-specification:'Fira Sans';stroke-width:1.0629921;stroke-miterlimit:4;stroke-dasharray:none"
                   d="m 150.20855,524.13741 c -1.635,0 -2.85,0.915 -2.85,2.175 0,1.11 0.675,1.845 2.385,2.295 1.53,0.405 1.92,0.705 1.92,1.485 0,0.75 -0.66,1.2 -1.695,1.2 -0.855,0 -1.59,-0.285 -2.22,-0.765 l -0.735,0.84 c 0.69,0.6 1.65,1.035 2.985,1.035 1.605,0 3.12,-0.75 3.12,-2.4 0,-1.38 -0.96,-2.04 -2.625,-2.46 -1.275,-0.33 -1.695,-0.63 -1.695,-1.275 0,-0.63 0.555,-1.035 1.455,-1.035 0.735,0 1.35,0.225 2.055,0.675 l 0.585,-0.87 c -0.75,-0.57 -1.575,-0.9 -2.685,-0.9 z" />
                <path
                   id="path181"
                   style="font-style:normal;font-variant:normal;font-weight:normal;font-stretch:normal;font-size:15px;line-height:1.25;font-family:'Fira Sans';-inkscape-font-specification:'Fira Sans';stroke-width:1.0629921;stroke-miterlimit:4;stroke-dasharray:none"
                   d="m 158.5305,530.94741 c -0.39,0.21 -0.705,0.315 -1.05,0.315 -0.69,0 -0.945,-0.375 -0.945,-1.17 v -4.71 h 1.725 l 0.15,-1.065 h -1.875 v -1.95 l -1.38,0.165 v 1.785 h -1.38 v 1.065 h 1.38 v 4.77 c 0,1.47 0.795,2.25 2.13,2.25 0.675,0 1.245,-0.18 1.77,-0.54 z" />
                <path
                   id="path183"
                   style="font-style:normal;font-variant:normal;font-weight:normal;font-stretch:normal;font-size:15px;line-height:1.25;font-family:'Fira Sans';-inkscape-font-specification:'Fira Sans';stroke-width:1.0629921;stroke-miterlimit:4;stroke-dasharray:none"
                   d="m 165.69324,530.37741 v -3.615 c 0,-1.65 -0.87,-2.625 -2.775,-2.625 -0.885,0 -1.755,0.18 -2.73,0.54 l 0.345,1.005 c 0.81,-0.27 1.545,-0.42 2.13,-0.42 1.095,0 1.65,0.42 1.65,1.56 v 0.585 h -1.215 c -2.205,0 -3.48,0.915 -3.48,2.61 0,1.41 0.945,2.385 2.52,2.385 0.96,0 1.8,-0.36 2.355,-1.185 0.24,0.78 0.75,1.095 1.545,1.185 l 0.315,-0.96 c -0.405,-0.15 -0.66,-0.375 -0.66,-1.065 z m -3.24,0.99 c -0.9,0 -1.365,-0.495 -1.365,-1.425 0,-1.08 0.735,-1.62 2.19,-1.62 h 1.035 v 1.815 c -0.45,0.825 -1.05,1.23 -1.86,1.23 z" />
                <path
                   id="path185"
                   style="font-style:normal;font-variant:normal;font-weight:normal;font-stretch:normal;font-size:15px;line-height:1.25;font-family:'Fira Sans';-inkscape-font-specification:'Fira Sans';stroke-width:1.0629921;stroke-miterlimit:4;stroke-dasharray:none"
                   d="m 170.54058,524.13741 c -1.635,0 -2.85,0.915 -2.85,2.175 0,1.11 0.675,1.845 2.385,2.295 1.53,0.405 1.92,0.705 1.92,1.485 0,0.75 -0.66,1.2 -1.695,1.2 -0.855,0 -1.59,-0.285 -2.22,-0.765 l -0.735,0.84 c 0.69,0.6 1.65,1.035 2.985,1.035 1.605,0 3.12,-0.75 3.12,-2.4 0,-1.38 -0.96,-2.04 -2.625,-2.46 -1.275,-0.33 -1.695,-0.63 -1.695,-1.275 0,-0.63 0.555,-1.035 1.455,-1.035 0.735,0 1.35,0.225 2.055,0.675 l 0.585,-0.87 c -0.75,-0.57 -1.575,-0.9 -2.685,-0.9 z" />
              </g>
            </g>
          </g>
        </g>
      </g>
    </g>
  </g>
</svg>
