<?xml version="1.0" encoding="UTF-8" standalone="no"?>
<svg
   xmlns:dc="http://purl.org/dc/elements/1.1/"
   xmlns:cc="http://creativecommons.org/ns#"
   xmlns:rdf="http://www.w3.org/1999/02/22-rdf-syntax-ns#"
   xmlns:svg="http://www.w3.org/2000/svg"
   xmlns="http://www.w3.org/2000/svg"
   width="76.496033mm"
   height="38.04771mm"
   viewBox="0 0 271.04894 134.81472"
   id="svg2"
   version="1.1">
  <defs
     id="defs4" />
  <metadata
     id="metadata7">
    <rdf:RDF>
      <cc:Work
         rdf:about="">
        <dc:format>image/svg+xml</dc:format>
        <dc:type
           rdf:resource="http://purl.org/dc/dcmitype/StillImage" />
        <dc:title />
      </cc:Work>
    </rdf:RDF>
  </metadata>
  <g
     transform="translate(-308.41276,-243.57915)"
     id="layer1" />
  <g
     transform="translate(-250.66265,-124.82991)"
     id="g4643">
    <g
       transform="translate(1.5297466e-5)"
       id="g4363">
      <path
         id="rect4786"
         d="m 460.78458,163.67097 h 16.92521 v 43.113 h -16.92521 z"
         style="fill:none;fill-opacity:1;stroke:#666666;stroke-width:1.0629921;stroke-miterlimit:4;stroke-dasharray:none" />
      <path
         id="rect4788"
         d="m 477.58627,163.67097 h 25.87727 v 43.113 h -25.87727 z"
         style="fill:none;fill-opacity:1;stroke:#666666;stroke-width:1.0629921;stroke-miterlimit:4;stroke-dasharray:none" />
      <path
         id="rect4646"
         d="m 460.78458,206.54634 h 16.92521 v 17.42513 h -16.92521 z"
         style="fill:#8fd091;fill-opacity:1;stroke:#000000;stroke-width:1.0629921;stroke-miterlimit:4;stroke-dasharray:none" />
      <path
         id="rect4648"
         d="m 477.58627,206.54634 h 25.87727 v 17.42513 h -25.87727 z"
         style="fill:#cccccc;fill-opacity:1;stroke:#000000;stroke-width:1.0629921;stroke-miterlimit:4;stroke-dasharray:none" />
      <path
         id="rect4650"
         d="m 460.78458,223.97147 h 16.92521 v 17.42513 h -16.92521 z"
         style="fill:#cabddc;fill-opacity:1;stroke:#000000;stroke-width:1.0629921;stroke-miterlimit:4;stroke-dasharray:none" />
      <path
         id="rect4656"
         d="m 477.58627,223.97147 h 25.87727 v 17.42513 h -25.87727 z"
         style="fill:#cccccc;fill-opacity:1;stroke:#000000;stroke-width:1.0629921;stroke-miterlimit:4;stroke-dasharray:none" />
      <g
         id="text4666"
         style="font-style:normal;font-weight:normal;line-height:0%;font-family:sans-serif;letter-spacing:0px;word-spacing:0px;fill:#000000;fill-opacity:1;stroke:none;stroke-width:1px;stroke-linecap:butt;stroke-linejoin:miter;stroke-opacity:1"
         aria-label="1">
        <path
           id="path92"
           style="font-style:normal;font-variant:normal;font-weight:normal;font-stretch:normal;font-size:12.5px;line-height:1.25;font-family:'Fira Sans';-inkscape-font-specification:'Fira Sans'"
           d="m 470.54116,211.36113 h -1.0125 l -2.5875,1.6 0.5,0.8125 1.95,-1.1875 v 7.1375 h 1.15 z" />
      </g>
      <g
         id="text4670"
         style="font-style:normal;font-weight:normal;line-height:0%;font-family:sans-serif;letter-spacing:0px;word-spacing:0px;fill:#000000;fill-opacity:1;stroke:none;stroke-width:1px;stroke-linecap:butt;stroke-linejoin:miter;stroke-opacity:1"
         aria-label="x1">
        <path
           id="path95"
           style="font-style:normal;font-variant:normal;font-weight:normal;font-stretch:normal;font-size:12.5px;line-height:1.25;font-family:'Fira Sans';-inkscape-font-specification:'Fira Sans'"
           d="m 488.78696,216.19863 2.025,-3.0625 h -1.3 l -1.3875,2.4125 -1.375,-2.4125 h -1.35 l 2.0375,3.1125 -2.3,3.475 h 1.3 l 1.6375,-2.7875 1.6125,2.7875 h 1.3875 z" />
        <path
           id="path97"
           style="font-style:normal;font-variant:normal;font-weight:normal;font-stretch:normal;font-size:12.5px;line-height:1.25;font-family:'Fira Sans';-inkscape-font-specification:'Fira Sans'"
           d="m 494.97134,211.36113 h -1.0125 l -2.5875,1.6 0.5,0.8125 1.95,-1.1875 v 7.1375 h 1.15 z" />
      </g>
      <g
         id="text4674"
         style="font-style:normal;font-weight:normal;line-height:0%;font-family:sans-serif;letter-spacing:0px;word-spacing:0px;fill:#000000;fill-opacity:1;stroke:none;stroke-width:1px;stroke-linecap:butt;stroke-linejoin:miter;stroke-opacity:1"
         aria-label="2">
        <path
           id="path100"
           style="font-style:normal;font-variant:normal;font-weight:normal;font-stretch:normal;font-size:12.5px;line-height:1.25;font-family:'Fira Sans';-inkscape-font-specification:'Fira Sans'"
           d="m 468.53274,228.70093 c -1.05,0 -1.8625,0.425 -2.5375,1.2625 l 0.75,0.6 c 0.5625,-0.6375 1.025,-0.9125 1.725,-0.9125 0.8125,0 1.375,0.5125 1.375,1.3875 0,1.3625 -0.725,2.1625 -3.675,5.2375 v 0.9125 h 4.9375 l 0.1375,-0.9625 h -3.7625 c 2.5625,-2.5625 3.5625,-3.675 3.5625,-5.2375 0,-1.3 -0.975,-2.2875 -2.5125,-2.2875 z" />
      </g>
      <g
         id="text4790"
         style="font-style:normal;font-weight:normal;line-height:0%;font-family:sans-serif;letter-spacing:0px;word-spacing:0px;fill:#000000;fill-opacity:1;stroke:none;stroke-width:1px;stroke-linecap:butt;stroke-linejoin:miter;stroke-opacity:1"
         transform="rotate(-90)"
         aria-label="llave">
        <path
           id="path103"
           style="font-style:normal;font-variant:normal;font-weight:normal;font-stretch:normal;font-size:12.5px;line-height:1.25;font-family:'Fira Sans';-inkscape-font-specification:'Fira Sans'"
           d="m -197.16536,472.69913 c 0.3375,0 0.6625,-0.0875 0.9125,-0.225 l -0.3,-0.8 c -0.125,0.05 -0.2625,0.075 -0.425,0.075 -0.3,0 -0.4125,-0.175 -0.4125,-0.525 v -8.05 l -1.15,0.1375 v 7.9375 c 0,0.9375 0.5375,1.45 1.375,1.45 z" />
        <path
           id="path105"
           style="font-style:normal;font-variant:normal;font-weight:normal;font-stretch:normal;font-size:12.5px;line-height:1.25;font-family:'Fira Sans';-inkscape-font-specification:'Fira Sans'"
           d="m -193.50325,472.69913 c 0.3375,0 0.6625,-0.0875 0.9125,-0.225 l -0.3,-0.8 c -0.125,0.05 -0.2625,0.075 -0.425,0.075 -0.3,0 -0.4125,-0.175 -0.4125,-0.525 v -8.05 l -1.15,0.1375 v 7.9375 c 0,0.9375 0.5375,1.45 1.375,1.45 z" />
        <path
           id="path107"
           style="font-style:normal;font-variant:normal;font-weight:normal;font-stretch:normal;font-size:12.5px;line-height:1.25;font-family:'Fira Sans';-inkscape-font-specification:'Fira Sans'"
           d="m -186.78938,471.01163 v -3.0125 c 0,-1.375 -0.725,-2.1875 -2.3125,-2.1875 -0.7375,0 -1.4625,0.15 -2.275,0.45 l 0.2875,0.8375 c 0.675,-0.225 1.2875,-0.35 1.775,-0.35 0.9125,0 1.375,0.35 1.375,1.3 v 0.4875 h -1.0125 c -1.8375,0 -2.9,0.7625 -2.9,2.175 0,1.175 0.7875,1.9875 2.1,1.9875 0.8,0 1.5,-0.3 1.9625,-0.9875 0.2,0.65 0.625,0.9125 1.2875,0.9875 l 0.2625,-0.8 c -0.3375,-0.125 -0.55,-0.3125 -0.55,-0.8875 z m -2.7,0.825 c -0.75,0 -1.1375,-0.4125 -1.1375,-1.1875 0,-0.9 0.6125,-1.35 1.825,-1.35 h 0.8625 v 1.5125 c -0.375,0.6875 -0.875,1.025 -1.55,1.025 z" />
        <path
           id="path109"
           style="font-style:normal;font-variant:normal;font-weight:normal;font-stretch:normal;font-size:12.5px;line-height:1.25;font-family:'Fira Sans';-inkscape-font-specification:'Fira Sans'"
           d="m -179.77317,465.96163 h -1.2125 l -1.7125,5.5625 -1.725,-5.5625 h -1.25 l 2.275,6.5875 h 1.3875 z" />
        <path
           id="path111"
           style="font-style:normal;font-variant:normal;font-weight:normal;font-stretch:normal;font-size:12.5px;line-height:1.25;font-family:'Fira Sans';-inkscape-font-specification:'Fira Sans'"
           d="m -173.53216,469.06163 c 0,-2.0125 -0.9375,-3.25 -2.7125,-3.25 -1.7,0 -2.7375,1.4625 -2.7375,3.5125 0,2.0875 1.075,3.375 2.9125,3.375 0.9125,0 1.65,-0.3125 2.3,-0.825 l -0.5,-0.6875 c -0.575,0.4 -1.0625,0.575 -1.7125,0.575 -0.95,0 -1.6625,-0.5875 -1.775,-2.1125 h 4.2 c 0.0125,-0.15 0.025,-0.3625 0.025,-0.5875 z m -1.1375,-0.2625 h -3.0875 c 0.0875,-1.4625 0.6625,-2.075 1.5375,-2.075 1.0375,0 1.55,0.7125 1.55,2 z" />
      </g>
      <g
         id="text4794"
         style="font-style:normal;font-weight:normal;line-height:0%;font-family:sans-serif;letter-spacing:0px;word-spacing:0px;fill:#000000;fill-opacity:1;stroke:none;stroke-width:1px;stroke-linecap:butt;stroke-linejoin:miter;stroke-opacity:1"
         transform="rotate(-90)"
         aria-label="val_x">
        <path
           id="path114"
           style="font-style:normal;font-variant:normal;font-weight:normal;font-stretch:normal;font-size:12.5px;line-height:1.25;font-family:'Fira Sans';-inkscape-font-specification:'Fira Sans'"
           d="m -192.98118,486.83959 h -1.2125 l -1.7125,5.5625 -1.725,-5.5625 h -1.25 l 2.275,6.5875 h 1.3875 z" />
        <path
           id="path116"
           style="font-style:normal;font-variant:normal;font-weight:normal;font-stretch:normal;font-size:12.5px;line-height:1.25;font-family:'Fira Sans';-inkscape-font-specification:'Fira Sans'"
           d="m -187.42415,491.88959 v -3.0125 c 0,-1.375 -0.725,-2.1875 -2.3125,-2.1875 -0.7375,0 -1.4625,0.15 -2.275,0.45 l 0.2875,0.8375 c 0.675,-0.225 1.2875,-0.35 1.775,-0.35 0.9125,0 1.375,0.35 1.375,1.3 v 0.4875 h -1.0125 c -1.8375,0 -2.9,0.7625 -2.9,2.175 0,1.175 0.7875,1.9875 2.1,1.9875 0.8,0 1.5,-0.3 1.9625,-0.9875 0.2,0.65 0.625,0.9125 1.2875,0.9875 l 0.2625,-0.8 c -0.3375,-0.125 -0.55,-0.3125 -0.55,-0.8875 z m -2.7,0.825 c -0.75,0 -1.1375,-0.4125 -1.1375,-1.1875 0,-0.9 0.6125,-1.35 1.825,-1.35 h 0.8625 v 1.5125 c -0.375,0.6875 -0.875,1.025 -1.55,1.025 z" />
        <path
           id="path118"
           style="font-style:normal;font-variant:normal;font-weight:normal;font-stretch:normal;font-size:12.5px;line-height:1.25;font-family:'Fira Sans';-inkscape-font-specification:'Fira Sans'"
           d="m -183.8597,493.57709 c 0.3375,0 0.6625,-0.0875 0.9125,-0.225 l -0.3,-0.8 c -0.125,0.05 -0.2625,0.075 -0.425,0.075 -0.3,0 -0.4125,-0.175 -0.4125,-0.525 v -8.05 l -1.15,0.1375 v 7.9375 c 0,0.9375 0.5375,1.45 1.375,1.45 z" />
        <path
           id="path120"
           style="font-style:normal;font-variant:normal;font-weight:normal;font-stretch:normal;font-size:12.5px;line-height:1.25;font-family:'Fira Sans';-inkscape-font-specification:'Fira Sans'"
           d="m -182.48509,495.20209 h 6.075 v -0.9875 h -6.075 z" />
        <path
           id="path122"
           style="font-style:normal;font-variant:normal;font-weight:normal;font-stretch:normal;font-size:12.5px;line-height:1.25;font-family:'Fira Sans';-inkscape-font-specification:'Fira Sans'"
           d="m -172.49095,489.90209 2.025,-3.0625 h -1.3 l -1.3875,2.4125 -1.375,-2.4125 h -1.35 l 2.0375,3.1125 -2.3,3.475 h 1.3 l 1.6375,-2.7875 1.6125,2.7875 h 1.3875 z" />
      </g>
      <g
         id="text3409"
         style="font-style:normal;font-weight:normal;line-height:0%;font-family:sans-serif;letter-spacing:0px;word-spacing:0px;fill:#000000;fill-opacity:1;stroke:none;stroke-width:1px;stroke-linecap:butt;stroke-linejoin:miter;stroke-opacity:1"
         aria-label="x2">
        <path
           id="path125"
           style="font-style:normal;font-variant:normal;font-weight:normal;font-stretch:normal;font-size:12.5px;line-height:1.25;font-family:'Fira Sans';-inkscape-font-specification:'Fira Sans'"
           d="m 488.78696,233.66343 2.025,-3.0625 h -1.3 l -1.3875,2.4125 -1.375,-2.4125 h -1.35 l 2.0375,3.1125 -2.3,3.475 h 1.3 l 1.6375,-2.7875 1.6125,2.7875 h 1.3875 z" />
        <path
           id="path127"
           style="font-style:normal;font-variant:normal;font-weight:normal;font-stretch:normal;font-size:12.5px;line-height:1.25;font-family:'Fira Sans';-inkscape-font-specification:'Fira Sans'"
           d="m 493.97915,228.70093 c -1.05,0 -1.8625,0.425 -2.5375,1.2625 l 0.75,0.6 c 0.5625,-0.6375 1.025,-0.9125 1.725,-0.9125 0.8125,0 1.375,0.5125 1.375,1.3875 0,1.3625 -0.725,2.1625 -3.675,5.2375 v 0.9125 h 4.9375 l 0.1375,-0.9625 h -3.7625 c 2.5625,-2.5625 3.5625,-3.675 3.5625,-5.2375 0,-1.3 -0.975,-2.2875 -2.5125,-2.2875 z" />
      </g>
    </g>
    <g
       transform="translate(-4.2337477,19.73653)"
       id="g4383">
      <path
         id="path5134"
         d="m 422.91498,169.97858 -9.04282,0 -9.04282,0 4.52141,-7.83131 4.52141,-7.83131 4.52141,7.83131 z"
         style="fill:#808080;fill-opacity:1;stroke:none;stroke-width:2.15971947;stroke-miterlimit:4;stroke-dasharray:none"
         transform="matrix(0,0.78478646,-0.4827799,0,524.58413,-140.32565)" />
      <path
         id="rect5136"
         d="m 424.04245,181.05765 h 19.95028 v 6.83593 h -19.95028 z"
         style="fill:#808080;fill-opacity:1;stroke:none;stroke-width:3.54330707;stroke-miterlimit:4;stroke-dasharray:none" />
    </g>
    <g
       transform="rotate(45,341.12601,193.99095)"
       id="g5111">
      <g
         id="g5079"
         transform="rotate(-45,133.71331,77.409898)">
        <g
           id="g4877">
          <g
             id="g4951" />
        </g>
      </g>
      <g
         id="g4317">
        <g
           transform="rotate(-45,345.35978,204.21215)"
           id="g3425">
          <path
             id="path5046"
             d="m 339.60887,143.02124 58.16706,58.16706"
             style="fill:none;fill-rule:evenodd;stroke:#cccccc;stroke-width:1.0629921;stroke-linecap:butt;stroke-linejoin:miter;stroke-miterlimit:4;stroke-dasharray:none;stroke-opacity:1" />
          <path
             id="path5048"
             d="m 314.966,167.66411 58.16707,58.16705"
             style="fill:none;fill-rule:evenodd;stroke:#cccccc;stroke-width:1.0629921;stroke-linecap:butt;stroke-linejoin:miter;stroke-miterlimit:4;stroke-dasharray:none;stroke-opacity:1" />
          <path
             style="fill:none;fill-rule:evenodd;stroke:#cccccc;stroke-width:1.0629921;stroke-linecap:butt;stroke-linejoin:miter;stroke-miterlimit:4;stroke-dasharray:none;stroke-opacity:1"
             d="m 327.28743,155.34267 58.16707,58.16706"
             id="path5050" />
          <path
             id="rect4769"
             d="m 393.84164,-147.72102 h 16.92522 v 17.42513 h -16.92522 z"
             style="fill:#8fd091;fill-opacity:1;stroke:#000000;stroke-width:1.0629921;stroke-miterlimit:4;stroke-dasharray:none"
             transform="rotate(45)" />
          <path
             id="rect4775"
             d="m 410.64334,-147.72102 h 25.87727 v 17.42513 h -25.87727 z"
             style="fill:#cccccc;fill-opacity:1;stroke:#000000;stroke-width:1.0629921;stroke-miterlimit:4;stroke-dasharray:none"
             transform="rotate(45)" />
          <path
             id="use5269"
             d="m 393.84164,-130.29591 h 16.92522 v 17.42513 h -16.92522 z"
             style="fill:#cabddc;fill-opacity:1;stroke:#000000;stroke-width:1.0629921;stroke-miterlimit:4;stroke-dasharray:none"
             transform="rotate(45)" />
          <path
             id="use5271"
             d="m 393.84164,-112.87077 h 16.92522 v 17.425128 h -16.92522 z"
             style="fill:#fffda9;fill-opacity:1;stroke:#000000;stroke-width:1.0629921;stroke-miterlimit:4;stroke-dasharray:none"
             transform="rotate(45)" />
          <path
             id="use5277"
             d="m 410.64334,-130.29591 h 25.87727 v 17.42513 h -25.87727 z"
             style="fill:#cccccc;fill-opacity:1;stroke:#000000;stroke-width:1.0629921;stroke-miterlimit:4;stroke-dasharray:none"
             transform="rotate(45)" />
          <path
             id="use5279"
             d="m 410.64334,-112.87077 h 25.87727 v 17.425128 h -25.87727 z"
             style="fill:#cccccc;fill-opacity:1;stroke:#000000;stroke-width:1.0629921;stroke-miterlimit:4;stroke-dasharray:none"
             transform="rotate(45)" />
          <g
             id="text4614"
             style="font-style:normal;font-weight:normal;line-height:0%;font-family:sans-serif;letter-spacing:0px;word-spacing:0px;fill:#000000;fill-opacity:1;stroke:none;stroke-width:1px;stroke-linecap:butt;stroke-linejoin:miter;stroke-opacity:1"
             transform="rotate(45)"
             aria-label="y1">
            <path
               id="path138"
               style="font-style:normal;font-variant:normal;font-weight:normal;font-stretch:normal;font-size:12.5px;line-height:1.25;font-family:'Fira Sans';-inkscape-font-specification:'Fira Sans'"
               d="m 424.15653,-141.13125 h -1.1875 l -1.725,5.75 -1.7625,-5.75 h -1.225 l 2.2125,6.5875 h 0.3875 c -0.375,1.025 -0.75,1.5375 -2.0875,1.7625 l 0.125,0.9 c 1.825,-0.2 2.6,-1.225 3.0625,-2.625 z" />
            <path
               id="path140"
               style="font-style:normal;font-variant:normal;font-weight:normal;font-stretch:normal;font-size:12.5px;line-height:1.25;font-family:'Fira Sans';-inkscape-font-specification:'Fira Sans'"
               d="m 428.32137,-142.90625 h -1.0125 l -2.5875,1.6 0.5,0.8125 1.95,-1.1875 v 7.1375 h 1.15 z" />
          </g>
          <g
             id="text4618"
             style="font-style:normal;font-weight:normal;line-height:0%;font-family:sans-serif;letter-spacing:0px;word-spacing:0px;fill:#000000;fill-opacity:1;stroke:none;stroke-width:1px;stroke-linecap:butt;stroke-linejoin:miter;stroke-opacity:1"
             transform="rotate(45)"
             aria-label="1">
            <path
               id="path143"
               style="font-style:normal;font-variant:normal;font-weight:normal;font-stretch:normal;font-size:12.5px;line-height:1.25;font-family:'Fira Sans';-inkscape-font-specification:'Fira Sans'"
               d="m 403.59823,-142.90625 h -1.0125 l -2.5875,1.6 0.5,0.8125 1.95,-1.1875 v 7.1375 h 1.15 z" />
          </g>
          <g
             id="text4622"
             style="font-style:normal;font-weight:normal;line-height:0%;font-family:sans-serif;letter-spacing:0px;word-spacing:0px;fill:#000000;fill-opacity:1;stroke:none;stroke-width:1px;stroke-linecap:butt;stroke-linejoin:miter;stroke-opacity:1"
             transform="rotate(45)"
             aria-label="y2">
            <path
               id="path146"
               style="font-style:normal;font-variant:normal;font-weight:normal;font-stretch:normal;font-size:12.5px;line-height:1.25;font-family:'Fira Sans';-inkscape-font-specification:'Fira Sans'"
               d="m 424.15653,-123.7061 h -1.1875 l -1.725,5.75 -1.7625,-5.75 h -1.225 l 2.2125,6.5875 h 0.3875 c -0.375,1.025 -0.75,1.5375 -2.0875,1.7625 l 0.125,0.9 c 1.825,-0.2 2.6,-1.225 3.0625,-2.625 z" />
            <path
               id="path148"
               style="font-style:normal;font-variant:normal;font-weight:normal;font-stretch:normal;font-size:12.5px;line-height:1.25;font-family:'Fira Sans';-inkscape-font-specification:'Fira Sans'"
               d="m 427.0118,-125.6061 c -1.05,0 -1.8625,0.425 -2.5375,1.2625 l 0.75,0.6 c 0.5625,-0.6375 1.025,-0.9125 1.725,-0.9125 0.8125,0 1.375,0.5125 1.375,1.3875 0,1.3625 -0.725,2.1625 -3.675,5.2375 v 0.9125 h 4.9375 l 0.1375,-0.9625 h -3.7625 c 2.5625,-2.5625 3.5625,-3.675 3.5625,-5.2375 0,-1.3 -0.975,-2.2875 -2.5125,-2.2875 z" />
          </g>
          <g
             id="text4626"
             style="font-style:normal;font-weight:normal;line-height:0%;font-family:sans-serif;letter-spacing:0px;word-spacing:0px;fill:#000000;fill-opacity:1;stroke:none;stroke-width:1px;stroke-linecap:butt;stroke-linejoin:miter;stroke-opacity:1"
             transform="rotate(45)"
             aria-label="2">
            <path
               id="path151"
               style="font-style:normal;font-variant:normal;font-weight:normal;font-stretch:normal;font-size:12.5px;line-height:1.25;font-family:'Fira Sans';-inkscape-font-specification:'Fira Sans'"
               d="m 401.58981,-125.56643 c -1.05,0 -1.8625,0.425 -2.5375,1.2625 l 0.75,0.6 c 0.5625,-0.6375 1.025,-0.9125 1.725,-0.9125 0.8125,0 1.375,0.5125 1.375,1.3875 0,1.3625 -0.725,2.1625 -3.675,5.2375 v 0.9125 h 4.9375 l 0.1375,-0.9625 h -3.7625 c 2.5625,-2.5625 3.5625,-3.675 3.5625,-5.2375 0,-1.3 -0.975,-2.2875 -2.5125,-2.2875 z" />
          </g>
          <g
             id="text4630"
             style="font-style:normal;font-weight:normal;line-height:0%;font-family:sans-serif;letter-spacing:0px;word-spacing:0px;fill:#000000;fill-opacity:1;stroke:none;stroke-width:1px;stroke-linecap:butt;stroke-linejoin:miter;stroke-opacity:1"
             transform="rotate(45)"
             aria-label="y3">
            <path
               id="path154"
               style="font-style:normal;font-variant:normal;font-weight:normal;font-stretch:normal;font-size:12.5px;line-height:1.25;font-family:'Fira Sans';-inkscape-font-specification:'Fira Sans'"
               d="m 424.15653,-106.28096 h -1.1875 l -1.725,5.75 -1.7625,-5.75 h -1.225 l 2.2125,6.587501 h 0.3875 c -0.375,1.025 -0.75,1.5375 -2.0875,1.7625 l 0.125,0.9 c 1.825,-0.2 2.6,-1.225 3.0625,-2.625 z" />
            <path
               id="path156"
               style="font-style:normal;font-variant:normal;font-weight:normal;font-stretch:normal;font-size:12.5px;line-height:1.25;font-family:'Fira Sans';-inkscape-font-specification:'Fira Sans'"
               d="m 426.92548,-108.18096 c -0.9,0 -1.675,0.325 -2.3875,0.9875 l 0.6,0.6875 c 0.5625,-0.525 1.0625,-0.75 1.725,-0.75 0.8375,0 1.3875,0.4875 1.3875,1.275 0,0.975 -0.6875,1.475 -1.5125,1.475 h -0.425 l -0.1375,0.8875 h 0.625 c 1.0125,0 1.6625,0.35 1.6625,1.5 0,0.9875 -0.6375,1.6375 -1.6875,1.6375 -0.675,0 -1.2375,-0.25 -1.7875,-0.825 l -0.6875,0.6375 c 0.6375,0.762501 1.5125,1.125001 2.5125,1.125001 1.7375,0 2.85,-1.100001 2.85,-2.562501 0,-1.2625 -0.8375,-1.925 -1.8875,-2.025 0.9375,-0.225 1.625,-0.8625 1.625,-1.925 0,-1.125 -0.875,-2.125 -2.475,-2.125 z" />
          </g>
          <g
             id="text4634"
             style="font-style:normal;font-weight:normal;line-height:0%;font-family:sans-serif;letter-spacing:0px;word-spacing:0px;fill:#000000;fill-opacity:1;stroke:none;stroke-width:1px;stroke-linecap:butt;stroke-linejoin:miter;stroke-opacity:1"
             transform="rotate(45)"
             aria-label="4">
            <path
               id="path159"
               style="font-style:normal;font-variant:normal;font-weight:normal;font-stretch:normal;font-size:12.5px;line-height:1.25;font-family:'Fira Sans';-inkscape-font-specification:'Fira Sans'"
               d="m 405.01481,-102.62879 h -1.0875 v -2.25 h -1 l -0.1,2.25 h -2.375 l 2.2625,-5.1125 -0.9625,-0.4 -2.5125,5.6 v 0.825 h 3.575 v 2.062504 h 1.1125 v -2.062504 h 1.0875 z" />
          </g>
          <path
             style="fill:none;fill-rule:evenodd;stroke:#999999;stroke-width:1.0629921;stroke-linecap:butt;stroke-linejoin:miter;stroke-miterlimit:4;stroke-dasharray:none;stroke-opacity:1"
             d="m 158.67453,277.5273 h 82.50771"
             id="path5045"
             transform="rotate(-45,133.71331,77.409893)" />
          <path
             style="fill:none;fill-rule:evenodd;stroke:#999999;stroke-width:1.0629921;stroke-linecap:butt;stroke-linejoin:miter;stroke-miterlimit:4;stroke-dasharray:none;stroke-opacity:1"
             d="m 158.67453,312.37758 82.50771,-2e-5"
             id="path4698"
             transform="rotate(-45,133.71331,77.409893)" />
          <path
             id="path4696"
             d="m 158.67526,294.95244 82.63125,-1e-5"
             style="fill:none;fill-rule:evenodd;stroke:#999999;stroke-width:1.0629921;stroke-linecap:butt;stroke-linejoin:miter;stroke-miterlimit:4;stroke-dasharray:none;stroke-opacity:1"
             transform="rotate(-45,133.71331,77.409893)" />
          <path
             id="use4459"
             d="m -171.66992,286.23984 h 25.87726 v 17.42513 h -25.87726 z"
             style="fill:#cccccc;fill-opacity:1;stroke:#000000;stroke-width:1.0629921;stroke-miterlimit:4;stroke-dasharray:none"
             transform="matrix(-0.70710678,0.70710678,0.70710678,0.70710678,-15.573339,117.22242)" />
          <path
             id="use4461"
             d="m -171.66992,303.66498 h 25.87726 v 17.42513 h -25.87726 z"
             style="fill:#cccccc;fill-opacity:1;stroke:#000000;stroke-width:1.0629921;stroke-miterlimit:4;stroke-dasharray:none"
             transform="matrix(-0.70710678,0.70710678,0.70710678,0.70710678,-15.573339,117.22242)" />
          <path
             id="use4467"
             d="m -188.47162,286.23984 h 16.92522 v 17.42513 h -16.92522 z"
             style="fill:#cabddc;fill-opacity:1;stroke:#000000;stroke-width:1.0629921;stroke-miterlimit:4;stroke-dasharray:none"
             transform="matrix(-0.70710678,0.70710678,0.70710678,0.70710678,-15.573339,117.22242)" />
          <path
             id="use4469"
             d="m -188.47162,303.66498 h 16.92522 v 17.42513 h -16.92522 z"
             style="fill:#fecb98;fill-opacity:1;stroke:#000000;stroke-width:1.0629921;stroke-miterlimit:4;stroke-dasharray:none"
             transform="matrix(-0.70710678,0.70710678,0.70710678,0.70710678,-15.573339,117.22242)" />
          <path
             id="rect4940"
             d="m -171.66992,268.81473 h 25.87726 v 17.42513 h -25.87726 z"
             style="fill:#cccccc;fill-opacity:1;stroke:#000000;stroke-width:1.0629921;stroke-miterlimit:4;stroke-dasharray:none"
             transform="matrix(-0.70710678,0.70710678,0.70710678,0.70710678,-15.573339,117.22242)" />
          <path
             id="rect4934"
             d="m -188.47162,268.81473 h 16.92522 v 17.42513 h -16.92522 z"
             style="fill:#8fd091;fill-opacity:1;stroke:#000000;stroke-width:1.0629921;stroke-miterlimit:4;stroke-dasharray:none"
             transform="matrix(-0.70710678,0.70710678,0.70710678,0.70710678,-15.573339,117.22242)" />
          <g
             id="text4950"
             style="font-style:normal;font-weight:normal;line-height:0%;font-family:sans-serif;letter-spacing:0px;word-spacing:0px;fill:#000000;fill-opacity:1;stroke:none;stroke-width:1px;stroke-linecap:butt;stroke-linejoin:miter;stroke-opacity:1"
             transform="rotate(-45)"
             aria-label="x1">
            <path
               id="path168"
               style="font-style:normal;font-variant:normal;font-weight:normal;font-stretch:normal;font-size:12.5px;line-height:1.25;font-family:'Fira Sans';-inkscape-font-specification:'Fira Sans'"
               d="m 63.092566,350.34377 2.025,-3.0625 h -1.3 l -1.3875,2.4125 -1.375,-2.4125 h -1.35 l 2.0375,3.1125 -2.3,3.475 h 1.3 l 1.6375,-2.7875 1.6125,2.7875 h 1.3875 z" />
            <path
               id="path170"
               style="font-style:normal;font-variant:normal;font-weight:normal;font-stretch:normal;font-size:12.5px;line-height:1.25;font-family:'Fira Sans';-inkscape-font-specification:'Fira Sans'"
               d="m 69.276941,345.50627 h -1.0125 l -2.5875,1.6 0.5,0.8125 1.95,-1.1875 v 7.1375 h 1.15 z" />
          </g>
          <g
             id="text4978"
             style="font-style:normal;font-weight:normal;line-height:0%;font-family:sans-serif;letter-spacing:0px;word-spacing:0px;fill:#000000;fill-opacity:1;stroke:none;stroke-width:1px;stroke-linecap:butt;stroke-linejoin:miter;stroke-opacity:1"
             transform="rotate(-45,133.71331,77.409893)"
             aria-label="1">
            <path
               id="path173"
               style="font-style:normal;font-variant:normal;font-weight:normal;font-stretch:normal;font-size:12.5px;line-height:1.25;font-family:'Fira Sans';-inkscape-font-specification:'Fira Sans'"
               d="m 181.30297,273.6295 h -1.0125 l -2.5875,1.6 0.5,0.8125 1.95,-1.1875 v 7.1375 h 1.15 z" />
          </g>
          <g
             id="text4582"
             style="font-style:normal;font-weight:normal;line-height:0%;font-family:sans-serif;letter-spacing:0px;word-spacing:0px;fill:#000000;fill-opacity:1;stroke:none;stroke-width:1px;stroke-linecap:butt;stroke-linejoin:miter;stroke-opacity:1"
             transform="rotate(-45,133.71331,77.409893)"
             aria-label="2">
            <path
               id="path176"
               style="font-style:normal;font-variant:normal;font-weight:normal;font-stretch:normal;font-size:12.5px;line-height:1.25;font-family:'Fira Sans';-inkscape-font-specification:'Fira Sans'"
               d="m 179.29455,290.96932 c -1.05,0 -1.8625,0.425 -2.5375,1.2625 l 0.75,0.6 c 0.5625,-0.6375 1.025,-0.9125 1.725,-0.9125 0.8125,0 1.375,0.5125 1.375,1.3875 0,1.3625 -0.725,2.1625 -3.675,5.2375 v 0.9125 h 4.9375 l 0.1375,-0.9625 h -3.7625 c 2.5625,-2.5625 3.5625,-3.675 3.5625,-5.2375 0,-1.3 -0.975,-2.2875 -2.5125,-2.2875 z" />
          </g>
          <g
             id="text4590"
             style="font-style:normal;font-weight:normal;line-height:0%;font-family:sans-serif;letter-spacing:0px;word-spacing:0px;fill:#000000;fill-opacity:1;stroke:none;stroke-width:1px;stroke-linecap:butt;stroke-linejoin:miter;stroke-opacity:1"
             transform="rotate(-45,133.71331,77.409893)"
             aria-label="3">
            <path
               id="path179"
               style="font-style:normal;font-variant:normal;font-weight:normal;font-stretch:normal;font-size:12.5px;line-height:1.25;font-family:'Fira Sans';-inkscape-font-specification:'Fira Sans'"
               d="m 179.25705,308.39446 c -0.9,0 -1.675,0.325 -2.3875,0.9875 l 0.6,0.6875 c 0.5625,-0.525 1.0625,-0.75 1.725,-0.75 0.8375,0 1.3875,0.4875 1.3875,1.275 0,0.975 -0.6875,1.475 -1.5125,1.475 h -0.425 l -0.1375,0.8875 h 0.625 c 1.0125,0 1.6625,0.35 1.6625,1.5 0,0.9875 -0.6375,1.6375 -1.6875,1.6375 -0.675,0 -1.2375,-0.25 -1.7875,-0.825 l -0.6875,0.6375 c 0.6375,0.7625 1.5125,1.125 2.5125,1.125 1.7375,0 2.85,-1.1 2.85,-2.5625 0,-1.2625 -0.8375,-1.925 -1.8875,-2.025 0.9375,-0.225 1.625,-0.8625 1.625,-1.925 0,-1.125 -0.875,-2.125 -2.475,-2.125 z" />
          </g>
          <path
             id="circle3549"
             d="m 348.85675,173.41483 a 3.5,3.5 0 0 1 -3.5,3.5 3.5,3.5 0 0 1 -3.5,-3.5 3.5,3.5 0 0 1 3.5,-3.5 3.5,3.5 0 0 1 3.5,3.5 z"
             style="fill:#cabddc;fill-opacity:1;stroke:none;stroke-width:3.62375951;stroke-miterlimit:4;stroke-dasharray:none" />
          <path
             id="circle3994"
             d="m 348.85675,148.76923 a 3.5,3.5 0 0 1 -3.5,3.5 3.5,3.5 0 0 1 -3.5,-3.5 3.5,3.5 0 0 1 3.5,-3.5 3.5,3.5 0 0 1 3.5,3.5 z"
             style="fill:#8fd091;fill-opacity:1;stroke:none;stroke-width:3.62375951;stroke-miterlimit:4;stroke-dasharray:none" />
          <g
             id="text3417"
             style="font-style:normal;font-weight:normal;line-height:0%;font-family:sans-serif;letter-spacing:0px;word-spacing:0px;fill:#000000;fill-opacity:1;stroke:none;stroke-width:1px;stroke-linecap:butt;stroke-linejoin:miter;stroke-opacity:1"
             transform="rotate(-45)"
             aria-label="x2">
            <path
               id="path184"
               style="font-style:normal;font-variant:normal;font-weight:normal;font-stretch:normal;font-size:12.5px;line-height:1.25;font-family:'Fira Sans';-inkscape-font-specification:'Fira Sans'"
               d="m 63.092566,367.80856 2.025,-3.0625 h -1.3 l -1.3875,2.4125 -1.375,-2.4125 h -1.35 l 2.0375,3.1125 -2.3,3.475 h 1.3 l 1.6375,-2.7875 1.6125,2.7875 h 1.3875 z" />
            <path
               id="path186"
               style="font-style:normal;font-variant:normal;font-weight:normal;font-stretch:normal;font-size:12.5px;line-height:1.25;font-family:'Fira Sans';-inkscape-font-specification:'Fira Sans'"
               d="m 68.284753,362.84606 c -1.05,0 -1.8625,0.425 -2.5375,1.2625 l 0.75,0.6 c 0.5625,-0.6375 1.025,-0.9125 1.725,-0.9125 0.8125,0 1.375,0.5125 1.375,1.3875 0,1.3625 -0.725,2.1625 -3.675,5.2375 v 0.9125 h 4.9375 l 0.1375,-0.9625 h -3.7625 c 2.5625,-2.5625 3.5625,-3.675 3.5625,-5.2375 0,-1.3 -0.975,-2.2875 -2.5125,-2.2875 z" />
          </g>
          <g
             id="text3421"
             style="font-style:normal;font-weight:normal;line-height:0%;font-family:sans-serif;letter-spacing:0px;word-spacing:0px;fill:#000000;fill-opacity:1;stroke:none;stroke-width:1px;stroke-linecap:butt;stroke-linejoin:miter;stroke-opacity:1"
             transform="rotate(-45)"
             aria-label="x3">
            <path
               id="path189"
               style="font-style:normal;font-variant:normal;font-weight:normal;font-stretch:normal;font-size:12.5px;line-height:1.25;font-family:'Fira Sans';-inkscape-font-specification:'Fira Sans'"
               d="m 63.092566,385.17266 2.025,-3.0625 h -1.3 l -1.3875,2.4125 -1.375,-2.4125 h -1.35 l 2.0375,3.1125 -2.3,3.475 h 1.3 l 1.6375,-2.7875 1.6125,2.7875 h 1.3875 z" />
            <path
               id="path191"
               style="font-style:normal;font-variant:normal;font-weight:normal;font-stretch:normal;font-size:12.5px;line-height:1.25;font-family:'Fira Sans';-inkscape-font-specification:'Fira Sans'"
               d="m 68.247253,380.21016 c -0.9,0 -1.675,0.325 -2.3875,0.9875 l 0.6,0.6875 c 0.5625,-0.525 1.0625,-0.75 1.725,-0.75 0.8375,0 1.3875,0.4875 1.3875,1.275 0,0.975 -0.6875,1.475 -1.5125,1.475 h -0.425 l -0.1375,0.8875 h 0.625 c 1.0125,0 1.6625,0.35 1.6625,1.5 0,0.9875 -0.6375,1.6375 -1.6875,1.6375 -0.675,0 -1.2375,-0.25 -1.7875,-0.825 l -0.6875,0.6375 c 0.6375,0.7625 1.5125,1.125 2.5125,1.125 1.7375,0 2.85,-1.1 2.85,-2.5625 0,-1.2625 -0.8375,-1.925 -1.8875,-2.025 0.9375,-0.225 1.625,-0.8625 1.625,-1.925 0,-1.125 -0.875,-2.125 -2.475,-2.125 z" />
          </g>
        </g>
      </g>
    </g>
  </g>
</svg>
