<?xml version="1.0" encoding="UTF-8" standalone="no"?>
<svg
   xmlns:dc="http://purl.org/dc/elements/1.1/"
   xmlns:cc="http://creativecommons.org/ns#"
   xmlns:rdf="http://www.w3.org/1999/02/22-rdf-syntax-ns#"
   xmlns:svg="http://www.w3.org/2000/svg"
   xmlns="http://www.w3.org/2000/svg"
   id="svg8"
   version="1.1"
   viewBox="0 0 83.799164 39.037567"
   height="39.037567mm"
   width="83.799164mm">
  <defs
     id="defs2" />
  <metadata
     id="metadata5">
    <rdf:RDF>
      <cc:Work
         rdf:about="">
        <dc:format>image/svg+xml</dc:format>
        <dc:type
           rdf:resource="http://purl.org/dc/dcmitype/StillImage" />
        <dc:title />
      </cc:Work>
    </rdf:RDF>
  </metadata>
  <g
     transform="translate(35.035205,-126.9522)"
     id="layer1">
    <g
       transform="translate(-1.194856,4.5802285)"
       id="g131">
      <path
         id="path5134"
         d="m 422.91498,169.97858 -9.04282,0 -9.04282,0 4.52141,-7.83131 4.52141,-7.83131 4.52141,7.83131 z"
         style="fill:#808080;fill-opacity:1;stroke:none;stroke-width:2.15971947;stroke-miterlimit:4;stroke-dasharray:none"
         transform="matrix(0,0.22148418,-0.13625122,0,42.271518,53.10927)" />
      <path
         id="rect5136"
         d="m 13.896421,143.81078 h 5.630414 v 1.92925 h -5.630414 z"
         style="fill:#808080;fill-opacity:1;stroke:none;stroke-width:1;stroke-miterlimit:4;stroke-dasharray:none" />
    </g>
    <g
       id="g127">
      <path
         style="fill:none;fill-rule:evenodd;stroke:#cccccc;stroke-width:0.30000001;stroke-linecap:butt;stroke-linejoin:miter;stroke-miterlimit:4;stroke-dasharray:none;stroke-opacity:1"
         d="M -12.322327,132.0862 4.09371,148.50224"
         id="path5046" />
      <path
         style="fill:none;fill-rule:evenodd;stroke:#cccccc;stroke-width:0.30000001;stroke-linecap:butt;stroke-linejoin:miter;stroke-miterlimit:4;stroke-dasharray:none;stroke-opacity:1"
         d="M -19.277093,139.04097 -2.8610529,155.457"
         id="path5048" />
      <path
         id="path5050"
         d="M -15.799712,135.56358 0.61632855,151.97962"
         style="fill:none;fill-rule:evenodd;stroke:#cccccc;stroke-width:0.30000001;stroke-linecap:butt;stroke-linejoin:miter;stroke-miterlimit:4;stroke-dasharray:none;stroke-opacity:1" />
      <path
         id="rect4769"
         d="m 99.522446,99.653366 h 4.776674 v 4.917764 h -4.776674 z"
         style="fill:#8fd091;fill-opacity:1;stroke:#000000;stroke-width:0.29999998;stroke-miterlimit:4;stroke-dasharray:none"
         transform="rotate(45)" />
      <path
         id="rect4775"
         d="m 104.26426,99.653366 h 7.30314 v 4.917764 h -7.30314 z"
         style="fill:#cccccc;fill-opacity:1;stroke:#000000;stroke-width:0.29999998;stroke-miterlimit:4;stroke-dasharray:none"
         transform="rotate(45)" />
      <path
         id="use5269"
         d="m 99.522446,104.57112 h 4.776674 v 4.91776 h -4.776674 z"
         style="fill:#cabddc;fill-opacity:1;stroke:#000000;stroke-width:0.29999998;stroke-miterlimit:4;stroke-dasharray:none"
         transform="rotate(45)" />
      <path
         id="use5271"
         d="m 99.522446,109.48888 h 4.776674 v 4.91776 h -4.776674 z"
         style="fill:#fffda9;fill-opacity:1;stroke:#000000;stroke-width:0.29999998;stroke-miterlimit:4;stroke-dasharray:none"
         transform="rotate(45)" />
      <path
         id="use5277"
         d="m 104.26426,104.57112 h 7.30314 v 4.91776 h -7.30314 z"
         style="fill:#cccccc;fill-opacity:1;stroke:#000000;stroke-width:0.29999998;stroke-miterlimit:4;stroke-dasharray:none"
         transform="rotate(45)" />
      <path
         id="use5279"
         d="m 104.26426,109.48888 h 7.30314 v 4.91776 h -7.30314 z"
         style="fill:#cccccc;fill-opacity:1;stroke:#000000;stroke-width:0.29999998;stroke-miterlimit:4;stroke-dasharray:none"
         transform="rotate(45)" />
      <g
         id="text4614"
         style="font-style:normal;font-weight:normal;font-size:3.38666677px;line-height:0%;font-family:sans-serif;letter-spacing:0px;word-spacing:0px;fill:#000000;fill-opacity:1;stroke:none;stroke-width:0.28222224px;stroke-linecap:butt;stroke-linejoin:miter;stroke-opacity:1"
         transform="rotate(45)"
         aria-label="y1">
        <path
           id="path94"
           style="font-style:normal;font-variant:normal;font-weight:normal;font-stretch:normal;font-size:3.52777791px;line-height:1.25;font-family:'Fira Sans';-inkscape-font-specification:'Fira Sans';stroke-width:0.28222224px"
           d="m 108.07798,101.51315 h -0.33514 l -0.48684,1.62278 -0.49741,-1.62278 h -0.34573 l 0.62442,1.85914 h 0.10936 c -0.10583,0.28928 -0.21166,0.43392 -0.58914,0.49742 l 0.0353,0.254 c 0.51506,-0.0564 0.73378,-0.34572 0.86431,-0.74084 z" />
        <path
           id="path96"
           style="font-style:normal;font-variant:normal;font-weight:normal;font-stretch:normal;font-size:3.52777791px;line-height:1.25;font-family:'Fira Sans';-inkscape-font-specification:'Fira Sans';stroke-width:0.28222224px"
           d="m 109.25339,101.01221 h -0.28575 l -0.73025,0.45155 0.14111,0.22931 0.55033,-0.33514 v 2.01436 h 0.32456 z" />
      </g>
      <g
         id="text4618"
         style="font-style:normal;font-weight:normal;font-size:3.38666677px;line-height:0%;font-family:sans-serif;letter-spacing:0px;word-spacing:0px;fill:#000000;fill-opacity:1;stroke:none;stroke-width:0.28222224px;stroke-linecap:butt;stroke-linejoin:miter;stroke-opacity:1"
         transform="rotate(45)"
         aria-label="1">
        <path
           id="path99"
           style="font-style:normal;font-variant:normal;font-weight:normal;font-stretch:normal;font-size:3.52777791px;line-height:1.25;font-family:'Fira Sans';-inkscape-font-specification:'Fira Sans';stroke-width:0.28222224px"
           d="m 102.27597,101.01221 h -0.28575 l -0.73025,0.45155 0.14111,0.22931 0.55033,-0.33514 v 2.01436 h 0.32456 z" />
      </g>
      <g
         id="text4622"
         style="font-style:normal;font-weight:normal;font-size:3.38666677px;line-height:0%;font-family:sans-serif;letter-spacing:0px;word-spacing:0px;fill:#000000;fill-opacity:1;stroke:none;stroke-width:0.28222224px;stroke-linecap:butt;stroke-linejoin:miter;stroke-opacity:1"
         transform="rotate(45)"
         aria-label="y2">
        <path
           id="path102"
           style="font-style:normal;font-variant:normal;font-weight:normal;font-stretch:normal;font-size:3.52777791px;line-height:1.25;font-family:'Fira Sans';-inkscape-font-specification:'Fira Sans';stroke-width:0.28222224px"
           d="m 108.07798,106.43091 h -0.33514 l -0.48684,1.62278 -0.49741,-1.62278 h -0.34573 l 0.62442,1.85914 h 0.10936 c -0.10583,0.28927 -0.21166,0.43391 -0.58914,0.49741 l 0.0353,0.254 c 0.51506,-0.0564 0.73378,-0.34572 0.86431,-0.74083 z" />
        <path
           id="path104"
           style="font-style:normal;font-variant:normal;font-weight:normal;font-stretch:normal;font-size:3.52777791px;line-height:1.25;font-family:'Fira Sans';-inkscape-font-specification:'Fira Sans';stroke-width:0.28222224px"
           d="m 108.8838,105.89469 c -0.29634,0 -0.52564,0.11994 -0.71614,0.3563 l 0.21166,0.16933 c 0.15875,-0.17991 0.28928,-0.25752 0.48684,-0.25752 0.2293,0 0.38805,0.14464 0.38805,0.39158 0,0.38453 -0.20461,0.61031 -1.03716,1.47814 v 0.25753 h 1.39347 l 0.0388,-0.27164 h -1.06186 c 0.7232,-0.7232 1.00542,-1.03717 1.00542,-1.47814 0,-0.36689 -0.27517,-0.64558 -0.70908,-0.64558 z" />
      </g>
      <g
         id="text4626"
         style="font-style:normal;font-weight:normal;font-size:3.38666677px;line-height:0%;font-family:sans-serif;letter-spacing:0px;word-spacing:0px;fill:#000000;fill-opacity:1;stroke:none;stroke-width:0.28222224px;stroke-linecap:butt;stroke-linejoin:miter;stroke-opacity:1"
         transform="rotate(45)"
         aria-label="2">
        <path
           id="path107"
           style="font-style:normal;font-variant:normal;font-weight:normal;font-stretch:normal;font-size:3.52777791px;line-height:1.25;font-family:'Fira Sans';-inkscape-font-specification:'Fira Sans';stroke-width:0.28222224px"
           d="m 101.70916,105.90589 c -0.29634,0 -0.52564,0.11994 -0.71614,0.3563 l 0.21166,0.16933 c 0.15875,-0.17991 0.28928,-0.25752 0.48684,-0.25752 0.2293,0 0.38805,0.14464 0.38805,0.39158 0,0.38453 -0.20461,0.61031 -1.03716,1.47814 v 0.25753 h 1.39347 l 0.0388,-0.27164 h -1.06186 c 0.7232,-0.7232 1.00542,-1.03717 1.00542,-1.47814 0,-0.36689 -0.27517,-0.64558 -0.70908,-0.64558 z" />
      </g>
      <g
         id="text4630"
         style="font-style:normal;font-weight:normal;font-size:3.38666677px;line-height:0%;font-family:sans-serif;letter-spacing:0px;word-spacing:0px;fill:#000000;fill-opacity:1;stroke:none;stroke-width:0.28222224px;stroke-linecap:butt;stroke-linejoin:miter;stroke-opacity:1"
         transform="rotate(45)"
         aria-label="y3">
        <path
           id="path110"
           style="font-style:normal;font-variant:normal;font-weight:normal;font-stretch:normal;font-size:3.52777791px;line-height:1.25;font-family:'Fira Sans';-inkscape-font-specification:'Fira Sans';stroke-width:0.28222224px"
           d="m 108.07798,111.34868 h -0.33514 l -0.48684,1.62278 -0.49741,-1.62278 h -0.34573 l 0.62442,1.85914 h 0.10936 c -0.10583,0.28927 -0.21166,0.43391 -0.58914,0.49741 l 0.0353,0.254 c 0.51506,-0.0564 0.73378,-0.34572 0.86431,-0.74083 z" />
        <path
           id="path112"
           style="font-style:normal;font-variant:normal;font-weight:normal;font-stretch:normal;font-size:3.52777791px;line-height:1.25;font-family:'Fira Sans';-inkscape-font-specification:'Fira Sans';stroke-width:0.28222224px"
           d="m 108.85943,110.81246 c -0.254,0 -0.47272,0.0917 -0.6738,0.27869 l 0.16933,0.19403 c 0.15875,-0.14817 0.29986,-0.21167 0.48683,-0.21167 0.23637,0 0.39159,0.13758 0.39159,0.35983 0,0.27517 -0.19403,0.41628 -0.42686,0.41628 h -0.11995 l -0.0388,0.25047 h 0.17639 c 0.28575,0 0.46919,0.0988 0.46919,0.42334 0,0.27869 -0.17992,0.46214 -0.47625,0.46214 -0.1905,0 -0.34925,-0.0706 -0.50447,-0.23284 l -0.19403,0.17992 c 0.17992,0.21519 0.42686,0.3175 0.70908,0.3175 0.49036,0 0.80434,-0.31044 0.80434,-0.72319 0,-0.35631 -0.23636,-0.54328 -0.5327,-0.5715 0.26459,-0.0635 0.45861,-0.24342 0.45861,-0.54328 0,-0.3175 -0.24694,-0.59972 -0.6985,-0.59972 z" />
      </g>
      <g
         id="text4634"
         style="font-style:normal;font-weight:normal;font-size:3.38666677px;line-height:0%;font-family:sans-serif;letter-spacing:0px;word-spacing:0px;fill:#000000;fill-opacity:1;stroke:none;stroke-width:0.28222224px;stroke-linecap:butt;stroke-linejoin:miter;stroke-opacity:1"
         transform="rotate(45)"
         aria-label="4">
        <path
           id="path115"
           style="font-style:normal;font-variant:normal;font-weight:normal;font-stretch:normal;font-size:3.52777791px;line-height:1.25;font-family:'Fira Sans';-inkscape-font-specification:'Fira Sans';stroke-width:0.28222224px"
           d="m 102.67577,112.3794 h -0.30692 v -0.635 h -0.28222 l -0.0282,0.635 h -0.67028 l 0.63853,-1.44286 -0.27164,-0.11289 -0.70909,1.58044 v 0.23284 h 1.00895 v 0.58208 h 0.31397 v -0.58208 h 0.30692 z" />
      </g>
      <path
         id="path5045"
         d="M -25.513658,148.52361 -9.0483158,132.05827"
         style="fill:none;fill-rule:evenodd;stroke:#999999;stroke-width:0.29999998;stroke-linecap:butt;stroke-linejoin:miter;stroke-miterlimit:4;stroke-dasharray:none;stroke-opacity:1" />
      <path
         id="path4698"
         d="M -18.558892,155.47837 -2.0935544,139.01303"
         style="fill:none;fill-rule:evenodd;stroke:#999999;stroke-width:0.29999998;stroke-linecap:butt;stroke-linejoin:miter;stroke-miterlimit:4;stroke-dasharray:none;stroke-opacity:1" />
      <path
         style="fill:none;fill-rule:evenodd;stroke:#999999;stroke-width:0.29999998;stroke-linecap:butt;stroke-linejoin:miter;stroke-miterlimit:4;stroke-dasharray:none;stroke-opacity:1"
         d="M -22.036129,152.00084 -5.5461356,135.51085"
         id="path4696" />
      <path
         id="use4459"
         d="m 119.39534,89.440041 h 7.30314 V 94.3578 h -7.30314 z"
         style="fill:#cccccc;fill-opacity:1;stroke:#000000;stroke-width:0.29999998;stroke-miterlimit:4;stroke-dasharray:none"
         transform="matrix(-0.70710678,0.70710678,0.70710678,0.70710678,0,0)" />
      <path
         id="use4461"
         d="m 119.39534,94.357803 h 7.30314 v 4.91776 h -7.30314 z"
         style="fill:#cccccc;fill-opacity:1;stroke:#000000;stroke-width:0.29999998;stroke-miterlimit:4;stroke-dasharray:none"
         transform="matrix(-0.70710678,0.70710678,0.70710678,0.70710678,0,0)" />
      <path
         id="use4467"
         d="m 114.65353,89.440041 h 4.77667 V 94.3578 h -4.77667 z"
         style="fill:#cabddc;fill-opacity:1;stroke:#000000;stroke-width:0.29999998;stroke-miterlimit:4;stroke-dasharray:none"
         transform="matrix(-0.70710678,0.70710678,0.70710678,0.70710678,0,0)" />
      <path
         id="use4469"
         d="m 114.65353,94.357803 h 4.77667 v 4.91776 h -4.77667 z"
         style="fill:#fecb98;fill-opacity:1;stroke:#000000;stroke-width:0.29999998;stroke-miterlimit:4;stroke-dasharray:none"
         transform="matrix(-0.70710678,0.70710678,0.70710678,0.70710678,0,0)" />
      <path
         id="rect4940"
         d="m 119.39534,84.522285 h 7.30314 v 4.91776 h -7.30314 z"
         style="fill:#cccccc;fill-opacity:1;stroke:#000000;stroke-width:0.29999998;stroke-miterlimit:4;stroke-dasharray:none"
         transform="matrix(-0.70710678,0.70710678,0.70710678,0.70710678,0,0)" />
      <path
         id="rect4934"
         d="m 114.65353,84.522285 h 4.77667 v 4.91776 h -4.77667 z"
         style="fill:#8fd091;fill-opacity:1;stroke:#000000;stroke-width:0.29999998;stroke-miterlimit:4;stroke-dasharray:none"
         transform="matrix(-0.70710678,0.70710678,0.70710678,0.70710678,0,0)" />
      <g
         id="text4950"
         style="font-style:normal;font-weight:normal;font-size:3.38666677px;line-height:0%;font-family:sans-serif;letter-spacing:0px;word-spacing:0px;fill:#000000;fill-opacity:1;stroke:none;stroke-width:0.28222224px;stroke-linecap:butt;stroke-linejoin:miter;stroke-opacity:1"
         transform="rotate(-45)"
         aria-label="x1">
        <path
           id="path124"
           style="font-style:normal;font-variant:normal;font-weight:normal;font-stretch:normal;font-size:3.52777791px;line-height:1.25;font-family:'Fira Sans';-inkscape-font-specification:'Fira Sans';stroke-width:0.28222224px"
           d="m -123.5374,87.246378 0.5715,-0.864306 h -0.36689 l -0.39158,0.680861 -0.38806,-0.680861 h -0.381 l 0.57503,0.878417 -0.64911,0.980722 h 0.36689 l 0.46214,-0.786695 0.45508,0.786695 h 0.39158 z" />
        <path
           id="path126"
           style="font-style:normal;font-variant:normal;font-weight:normal;font-stretch:normal;font-size:3.52777791px;line-height:1.25;font-family:'Fira Sans';-inkscape-font-specification:'Fira Sans';stroke-width:0.28222224px"
           d="m -121.79203,85.881128 h -0.28575 l -0.73025,0.451555 0.14111,0.229306 0.55033,-0.335139 v 2.014361 h 0.32456 z" />
      </g>
      <g
         id="text4978"
         style="font-style:normal;font-weight:normal;font-size:3.38666677px;line-height:0%;font-family:sans-serif;letter-spacing:0px;word-spacing:0px;fill:#000000;fill-opacity:1;stroke:none;stroke-width:0.28222224px;stroke-linecap:butt;stroke-linejoin:miter;stroke-opacity:1"
         transform="rotate(-45)"
         aria-label="1">
        <path
           id="path129"
           style="font-style:normal;font-variant:normal;font-weight:normal;font-stretch:normal;font-size:3.52777791px;line-height:1.25;font-family:'Fira Sans';-inkscape-font-specification:'Fira Sans';stroke-width:0.28222224px"
           d="m -116.67667,85.881128 h -0.28575 l -0.73025,0.451555 0.14111,0.229306 0.55033,-0.335139 v 2.014361 h 0.32456 z" />
      </g>
      <g
         id="text4582"
         style="font-style:normal;font-weight:normal;font-size:3.38666677px;line-height:0%;font-family:sans-serif;letter-spacing:0px;word-spacing:0px;fill:#000000;fill-opacity:1;stroke:none;stroke-width:0.28222224px;stroke-linecap:butt;stroke-linejoin:miter;stroke-opacity:1"
         transform="rotate(-45)"
         aria-label="2">
        <path
           id="path132"
           style="font-style:normal;font-variant:normal;font-weight:normal;font-stretch:normal;font-size:3.52777791px;line-height:1.25;font-family:'Fira Sans';-inkscape-font-specification:'Fira Sans';stroke-width:0.28222224px"
           d="m -117.2435,90.774805 c -0.29634,0 -0.52564,0.119944 -0.71614,0.356305 l 0.21166,0.169334 c 0.15875,-0.179917 0.28928,-0.257528 0.48684,-0.257528 0.2293,0 0.38805,0.144639 0.38805,0.391583 0,0.384528 -0.20461,0.610306 -1.03716,1.478139 v 0.257528 h 1.39347 l 0.0388,-0.271639 h -1.06186 c 0.7232,-0.723194 1.00542,-1.037167 1.00542,-1.478139 0,-0.366889 -0.27517,-0.645583 -0.70908,-0.645583 z" />
      </g>
      <g
         id="text4590"
         style="font-style:normal;font-weight:normal;font-size:3.38666677px;line-height:0%;font-family:sans-serif;letter-spacing:0px;word-spacing:0px;fill:#000000;fill-opacity:1;stroke:none;stroke-width:0.28222224px;stroke-linecap:butt;stroke-linejoin:miter;stroke-opacity:1"
         transform="rotate(-45)"
         aria-label="3">
        <path
           id="path135"
           style="font-style:normal;font-variant:normal;font-weight:normal;font-stretch:normal;font-size:3.52777791px;line-height:1.25;font-family:'Fira Sans';-inkscape-font-specification:'Fira Sans';stroke-width:0.28222224px"
           d="m -117.25409,95.692568 c -0.254,0 -0.47272,0.09172 -0.6738,0.278694 l 0.16933,0.194028 c 0.15875,-0.148167 0.29986,-0.211667 0.48683,-0.211667 0.23637,0 0.39159,0.137583 0.39159,0.359833 0,0.275167 -0.19403,0.416278 -0.42686,0.416278 h -0.11995 l -0.0388,0.250473 h 0.17639 c 0.28575,0 0.46919,0.09878 0.46919,0.423333 0,0.278694 -0.17992,0.462139 -0.47625,0.462139 -0.1905,0 -0.34925,-0.07056 -0.50447,-0.232834 l -0.19403,0.179917 c 0.17992,0.215195 0.42686,0.3175 0.70908,0.3175 0.49036,0 0.80434,-0.310444 0.80434,-0.723194 0,-0.356306 -0.23636,-0.543278 -0.5327,-0.5715 0.26459,-0.0635 0.45861,-0.243417 0.45861,-0.543278 0,-0.3175 -0.24694,-0.599722 -0.6985,-0.599722 z" />
      </g>
      <path
         id="circle3549"
         d="m -9.7123698,140.66394 a 0.98777783,0.98777783 0 0 1 -0.9877782,0.98778 0.98777783,0.98777783 0 0 1 -0.987777,-0.98778 0.98777783,0.98777783 0 0 1 0.987777,-0.98778 0.98777783,0.98777783 0 0 1 0.9877782,0.98778 z"
         style="fill:#cabddc;fill-opacity:1;stroke:none;stroke-width:1.02270544;stroke-miterlimit:4;stroke-dasharray:none" />
      <path
         id="circle3994"
         d="m -9.7123698,133.7084 a 0.98777783,0.98777783 0 0 1 -0.9877782,0.98778 0.98777783,0.98777783 0 0 1 -0.987777,-0.98778 0.98777783,0.98777783 0 0 1 0.987777,-0.98777 0.98777783,0.98777783 0 0 1 0.9877782,0.98777 z"
         style="fill:#8fd091;fill-opacity:1;stroke:none;stroke-width:1.02270544;stroke-miterlimit:4;stroke-dasharray:none" />
      <g
         id="text3417"
         style="font-style:normal;font-weight:normal;font-size:3.38666677px;line-height:0%;font-family:sans-serif;letter-spacing:0px;word-spacing:0px;fill:#000000;fill-opacity:1;stroke:none;stroke-width:0.28222224px;stroke-linecap:butt;stroke-linejoin:miter;stroke-opacity:1"
         transform="rotate(-45)"
         aria-label="x2">
        <path
           id="path140"
           style="font-style:normal;font-variant:normal;font-weight:normal;font-stretch:normal;font-size:3.52777791px;line-height:1.25;font-family:'Fira Sans';-inkscape-font-specification:'Fira Sans';stroke-width:0.28222224px"
           d="m -123.5374,92.175325 0.5715,-0.864306 h -0.36689 l -0.39158,0.680862 -0.38806,-0.680862 h -0.381 l 0.57503,0.878417 -0.64911,0.980722 h 0.36689 l 0.46214,-0.786694 0.45508,0.786694 h 0.39158 z" />
        <path
           id="path142"
           style="font-style:normal;font-variant:normal;font-weight:normal;font-stretch:normal;font-size:3.52777791px;line-height:1.25;font-family:'Fira Sans';-inkscape-font-specification:'Fira Sans';stroke-width:0.28222224px"
           d="m -122.07205,90.774797 c -0.29633,0 -0.52564,0.119945 -0.71614,0.356306 l 0.21167,0.169333 c 0.15875,-0.179917 0.28927,-0.257528 0.48683,-0.257528 0.22931,0 0.38806,0.144639 0.38806,0.391584 0,0.384527 -0.20462,0.610305 -1.03717,1.478139 v 0.257527 h 1.39347 l 0.0388,-0.271639 h -1.06186 c 0.72319,-0.723194 1.00541,-1.037166 1.00541,-1.478138 0,-0.366889 -0.27516,-0.645584 -0.70908,-0.645584 z" />
      </g>
      <g
         id="text3421"
         style="font-style:normal;font-weight:normal;font-size:3.38666677px;line-height:0%;font-family:sans-serif;letter-spacing:0px;word-spacing:0px;fill:#000000;fill-opacity:1;stroke:none;stroke-width:0.28222224px;stroke-linecap:butt;stroke-linejoin:miter;stroke-opacity:1"
         transform="rotate(-45)"
         aria-label="x3">
        <path
           id="path145"
           style="font-style:normal;font-variant:normal;font-weight:normal;font-stretch:normal;font-size:3.52777791px;line-height:1.25;font-family:'Fira Sans';-inkscape-font-specification:'Fira Sans';stroke-width:0.28222224px"
           d="m -123.5374,97.075868 0.5715,-0.864305 h -0.36689 l -0.39158,0.680861 -0.38806,-0.680861 h -0.381 l 0.57503,0.878416 -0.64911,0.980723 h 0.36689 l 0.46214,-0.786695 0.45508,0.786695 h 0.39158 z" />
        <path
           id="path147"
           style="font-style:normal;font-variant:normal;font-weight:normal;font-stretch:normal;font-size:3.52777791px;line-height:1.25;font-family:'Fira Sans';-inkscape-font-specification:'Fira Sans';stroke-width:0.28222224px"
           d="m -122.08263,95.67534 c -0.254,0 -0.47273,0.09172 -0.67381,0.278695 l 0.16933,0.194028 c 0.15875,-0.148167 0.29986,-0.211667 0.48684,-0.211667 0.23636,0 0.39158,0.137583 0.39158,0.359833 0,0.275167 -0.19403,0.416278 -0.42686,0.416278 h -0.11995 l -0.0388,0.250472 h 0.17639 c 0.28575,0 0.46919,0.09878 0.46919,0.423334 0,0.278694 -0.17991,0.462139 -0.47625,0.462139 -0.1905,0 -0.34925,-0.07056 -0.50447,-0.232834 l -0.19403,0.179917 c 0.17992,0.215194 0.42686,0.3175 0.70909,0.3175 0.49036,0 0.80433,-0.310445 0.80433,-0.723195 0,-0.356305 -0.23636,-0.543277 -0.5327,-0.5715 0.26459,-0.0635 0.45862,-0.243416 0.45862,-0.543277 0,-0.3175 -0.24695,-0.599723 -0.6985,-0.599723 z" />
      </g>
    </g>
    <g
       transform="translate(-1.4249055e-6)"
       id="g160">
      <path
         id="rect4786"
         d="m 24.265865,138.90387 h 4.776673 v 12.16744 h -4.776673 z"
         style="fill:none;fill-opacity:1;stroke:#666666;stroke-width:0.29999998;stroke-miterlimit:4;stroke-dasharray:none" />
      <path
         id="rect4788"
         d="m 29.007679,138.90387 h 7.303139 v 12.16744 h -7.303139 z"
         style="fill:none;fill-opacity:1;stroke:#666666;stroke-width:0.29999998;stroke-miterlimit:4;stroke-dasharray:none" />
      <path
         id="rect4646"
         d="m 24.265865,151.00426 h 4.776673 v 4.91776 h -4.776673 z"
         style="fill:#8fd091;fill-opacity:1;stroke:#000000;stroke-width:0.29999998;stroke-miterlimit:4;stroke-dasharray:none" />
      <path
         id="rect4648"
         d="m 29.007679,151.00426 h 7.303139 v 4.91776 h -7.303139 z"
         style="fill:#cccccc;fill-opacity:1;stroke:#000000;stroke-width:0.29999998;stroke-miterlimit:4;stroke-dasharray:none" />
      <path
         id="rect4650"
         d="m 24.265865,155.92201 h 4.776673 v 4.91776 h -4.776673 z"
         style="fill:#cabddc;fill-opacity:1;stroke:#000000;stroke-width:0.29999998;stroke-miterlimit:4;stroke-dasharray:none" />
      <path
         id="rect4656"
         d="m 29.007679,155.92201 h 7.303139 v 4.91776 h -7.303139 z"
         style="fill:#cccccc;fill-opacity:1;stroke:#000000;stroke-width:0.29999998;stroke-miterlimit:4;stroke-dasharray:none" />
      <g
         id="text4666"
         style="font-style:normal;font-weight:normal;font-size:3.38666654px;line-height:0%;font-family:sans-serif;letter-spacing:0px;word-spacing:0px;fill:#000000;fill-opacity:1;stroke:none;stroke-width:0.28222221px;stroke-linecap:butt;stroke-linejoin:miter;stroke-opacity:1"
         aria-label="1">
        <path
           id="path156"
           style="font-style:normal;font-variant:normal;font-weight:normal;font-stretch:normal;font-size:3.52777767px;line-height:1.25;font-family:'Fira Sans';-inkscape-font-specification:'Fira Sans';stroke-width:0.28222221px"
           d="m 27.019391,152.36309 h -0.28575 l -0.73025,0.45156 0.141111,0.2293 0.550334,-0.33514 v 2.01437 h 0.324555 z" />
      </g>
      <g
         id="text4670"
         style="font-style:normal;font-weight:normal;font-size:3.38666654px;line-height:0%;font-family:sans-serif;letter-spacing:0px;word-spacing:0px;fill:#000000;fill-opacity:1;stroke:none;stroke-width:0.28222221px;stroke-linecap:butt;stroke-linejoin:miter;stroke-opacity:1"
         aria-label="x1">
        <path
           id="path159"
           style="font-style:normal;font-variant:normal;font-weight:normal;font-stretch:normal;font-size:3.52777767px;line-height:1.25;font-family:'Fira Sans';-inkscape-font-specification:'Fira Sans';stroke-width:0.28222221px"
           d="m 32.168762,153.72834 0.5715,-0.8643 h -0.366889 l -0.391584,0.68086 -0.388055,-0.68086 h -0.381 l 0.575028,0.87841 -0.649111,0.98073 h 0.366889 l 0.462138,-0.7867 0.455084,0.7867 h 0.391583 z" />
        <path
           id="path161"
           style="font-style:normal;font-variant:normal;font-weight:normal;font-stretch:normal;font-size:3.52777767px;line-height:1.25;font-family:'Fira Sans';-inkscape-font-specification:'Fira Sans';stroke-width:0.28222221px"
           d="m 33.91413,152.36309 h -0.28575 l -0.73025,0.45156 0.141111,0.2293 0.550333,-0.33514 v 2.01437 h 0.324556 z" />
      </g>
      <g
         id="text4674"
         style="font-style:normal;font-weight:normal;font-size:3.38666654px;line-height:0%;font-family:sans-serif;letter-spacing:0px;word-spacing:0px;fill:#000000;fill-opacity:1;stroke:none;stroke-width:0.28222221px;stroke-linecap:butt;stroke-linejoin:miter;stroke-opacity:1"
         aria-label="2">
        <path
           id="path164"
           style="font-style:normal;font-variant:normal;font-weight:normal;font-stretch:normal;font-size:3.52777767px;line-height:1.25;font-family:'Fira Sans';-inkscape-font-specification:'Fira Sans';stroke-width:0.28222221px"
           d="m 26.452571,157.25677 c -0.296334,0 -0.525639,0.11994 -0.716139,0.3563 l 0.211666,0.16934 c 0.15875,-0.17992 0.289278,-0.25753 0.486834,-0.25753 0.229305,0 0.388055,0.14464 0.388055,0.39158 0,0.38453 -0.204611,0.61031 -1.037166,1.47814 v 0.25753 h 1.393472 l 0.0388,-0.27164 h -1.061861 c 0.723195,-0.72319 1.005417,-1.03717 1.005417,-1.47814 0,-0.36689 -0.275167,-0.64558 -0.709083,-0.64558 z" />
      </g>
      <g
         id="text4790"
         style="font-style:normal;font-weight:normal;font-size:3.38666654px;line-height:0%;font-family:sans-serif;letter-spacing:0px;word-spacing:0px;fill:#000000;fill-opacity:1;stroke:none;stroke-width:0.28222221px;stroke-linecap:butt;stroke-linejoin:miter;stroke-opacity:1"
         transform="rotate(-90)"
         aria-label="llave">
        <path
           id="path167"
           style="font-style:normal;font-variant:normal;font-weight:normal;font-stretch:normal;font-size:3.52777767px;line-height:1.25;font-family:'Fira Sans';-inkscape-font-specification:'Fira Sans';stroke-width:0.28222221px"
           d="m -148.35673,27.62842 c 0.0952,0 0.18697,-0.02469 0.25753,-0.0635 l -0.0847,-0.225778 c -0.0353,0.01411 -0.0741,0.02117 -0.11994,0.02117 -0.0847,0 -0.11642,-0.04939 -0.11642,-0.148167 v -2.271889 l -0.32456,0.03881 v 2.240138 c 0,0.264584 0.1517,0.409223 0.38806,0.409223 z" />
        <path
           id="path169"
           style="font-style:normal;font-variant:normal;font-weight:normal;font-stretch:normal;font-size:3.52777767px;line-height:1.25;font-family:'Fira Sans';-inkscape-font-specification:'Fira Sans';stroke-width:0.28222221px"
           d="m -147.3232,27.62842 c 0.0953,0 0.18697,-0.02469 0.25753,-0.0635 l -0.0847,-0.225778 c -0.0353,0.01411 -0.0741,0.02117 -0.11995,0.02117 -0.0847,0 -0.11641,-0.04939 -0.11641,-0.148167 v -2.271889 l -0.32456,0.03881 v 2.240138 c 0,0.264584 0.1517,0.409223 0.38806,0.409223 z" />
        <path
           id="path171"
           style="font-style:normal;font-variant:normal;font-weight:normal;font-stretch:normal;font-size:3.52777767px;line-height:1.25;font-family:'Fira Sans';-inkscape-font-specification:'Fira Sans';stroke-width:0.28222221px"
           d="m -145.4284,27.15217 v -0.850195 c 0,-0.388055 -0.20461,-0.617361 -0.65264,-0.617361 -0.20814,0 -0.41275,0.04233 -0.64205,0.127 l 0.0811,0.236361 c 0.1905,-0.0635 0.36337,-0.09878 0.50095,-0.09878 0.25753,0 0.38805,0.09878 0.38805,0.366889 v 0.137584 h -0.28575 c -0.51858,0 -0.81844,0.215194 -0.81844,0.613833 0,0.331611 0.22225,0.560917 0.59267,0.560917 0.22577,0 0.42333,-0.08467 0.55386,-0.278695 0.0564,0.183445 0.17639,0.257528 0.36336,0.278695 l 0.0741,-0.225778 c -0.0952,-0.03528 -0.15522,-0.08819 -0.15522,-0.250472 z m -0.762,0.232833 c -0.21167,0 -0.32103,-0.116417 -0.32103,-0.335139 0,-0.254 0.17286,-0.381 0.51506,-0.381 h 0.24341 v 0.426861 c -0.10583,0.194028 -0.24694,0.289278 -0.43744,0.289278 z" />
        <path
           id="path173"
           style="font-style:normal;font-variant:normal;font-weight:normal;font-stretch:normal;font-size:3.52777767px;line-height:1.25;font-family:'Fira Sans';-inkscape-font-specification:'Fira Sans';stroke-width:0.28222221px"
           d="m -143.44827,25.726947 h -0.34219 l -0.48331,1.569862 -0.48683,-1.569862 h -0.35278 l 0.64206,1.859139 h 0.39158 z" />
        <path
           id="path175"
           style="font-style:normal;font-variant:normal;font-weight:normal;font-stretch:normal;font-size:3.52777767px;line-height:1.25;font-family:'Fira Sans';-inkscape-font-specification:'Fira Sans';stroke-width:0.28222221px"
           d="m -141.68692,26.601836 c 0,-0.567972 -0.26458,-0.917222 -0.76552,-0.917222 -0.47978,0 -0.77259,0.41275 -0.77259,0.991306 0,0.589139 0.30339,0.9525 0.82198,0.9525 0.25752,0 0.46566,-0.08819 0.64911,-0.232834 l -0.14111,-0.194027 c -0.16228,0.112888 -0.29987,0.162277 -0.48331,0.162277 -0.26811,0 -0.46919,-0.165805 -0.50094,-0.596194 h 1.18533 c 0.004,-0.04233 0.007,-0.102306 0.007,-0.165806 z m -0.32102,-0.07408 h -0.87136 c 0.0247,-0.41275 0.18697,-0.585611 0.43391,-0.585611 0.29281,0 0.43745,0.201083 0.43745,0.564444 z" />
      </g>
      <g
         id="text4794"
         style="font-style:normal;font-weight:normal;font-size:3.38666654px;line-height:0%;font-family:sans-serif;letter-spacing:0px;word-spacing:0px;fill:#000000;fill-opacity:1;stroke:none;stroke-width:0.28222221px;stroke-linecap:butt;stroke-linejoin:miter;stroke-opacity:1"
         transform="rotate(-90)"
         aria-label="val_x">
        <path
           id="path178"
           style="font-style:normal;font-variant:normal;font-weight:normal;font-stretch:normal;font-size:3.52777767px;line-height:1.25;font-family:'Fira Sans';-inkscape-font-specification:'Fira Sans';stroke-width:0.28222221px"
           d="m -147.17586,31.619171 h -0.3422 l -0.4833,1.569861 -0.48684,-1.569861 h -0.35277 l 0.64205,1.859139 h 0.39159 z" />
        <path
           id="path180"
           style="font-style:normal;font-variant:normal;font-weight:normal;font-stretch:normal;font-size:3.52777767px;line-height:1.25;font-family:'Fira Sans';-inkscape-font-specification:'Fira Sans';stroke-width:0.28222221px"
           d="m -145.60754,33.044393 v -0.850194 c 0,-0.388056 -0.20462,-0.617362 -0.65264,-0.617362 -0.20814,0 -0.41275,0.04233 -0.64206,0.127 l 0.0811,0.236362 c 0.1905,-0.0635 0.36336,-0.09878 0.50094,-0.09878 0.25753,0 0.38806,0.09878 0.38806,0.366889 v 0.137583 h -0.28575 c -0.51858,0 -0.81844,0.215194 -0.81844,0.613833 0,0.331611 0.22225,0.560917 0.59266,0.560917 0.22578,0 0.42334,-0.08467 0.55386,-0.278694 0.0565,0.183444 0.17639,0.257527 0.36336,0.278694 l 0.0741,-0.225778 c -0.0953,-0.03528 -0.15522,-0.08819 -0.15522,-0.250472 z m -0.762,0.232833 c -0.21167,0 -0.32103,-0.116416 -0.32103,-0.335139 0,-0.254 0.17286,-0.381 0.51505,-0.381 h 0.24342 v 0.426862 c -0.10583,0.194027 -0.24694,0.289277 -0.43744,0.289277 z" />
        <path
           id="path182"
           style="font-style:normal;font-variant:normal;font-weight:normal;font-stretch:normal;font-size:3.52777767px;line-height:1.25;font-family:'Fira Sans';-inkscape-font-specification:'Fira Sans';stroke-width:0.28222221px"
           d="m -144.60158,33.520643 c 0.0953,0 0.18698,-0.02469 0.25753,-0.0635 l -0.0847,-0.225778 c -0.0353,0.01411 -0.0741,0.02117 -0.11994,0.02117 -0.0847,0 -0.11642,-0.04939 -0.11642,-0.148167 v -2.271889 l -0.32455,0.03881 v 2.240139 c 0,0.264583 0.15169,0.409222 0.38805,0.409222 z" />
        <path
           id="path184"
           style="font-style:normal;font-variant:normal;font-weight:normal;font-stretch:normal;font-size:3.52777767px;line-height:1.25;font-family:'Fira Sans';-inkscape-font-specification:'Fira Sans';stroke-width:0.28222221px"
           d="m -144.21363,33.979254 h 1.7145 V 33.70056 h -1.7145 z" />
        <path
           id="path186"
           style="font-style:normal;font-variant:normal;font-weight:normal;font-stretch:normal;font-size:3.52777767px;line-height:1.25;font-family:'Fira Sans';-inkscape-font-specification:'Fira Sans';stroke-width:0.28222221px"
           d="m -141.39306,32.483476 0.5715,-0.864305 h -0.36689 l -0.39159,0.680861 -0.38805,-0.680861 h -0.381 l 0.57503,0.878416 -0.64911,0.980723 h 0.36688 l 0.46214,-0.786695 0.45509,0.786695 h 0.39158 z" />
      </g>
      <g
         id="text3409"
         style="font-style:normal;font-weight:normal;font-size:3.38666654px;line-height:0%;font-family:sans-serif;letter-spacing:0px;word-spacing:0px;fill:#000000;fill-opacity:1;stroke:none;stroke-width:0.28222221px;stroke-linecap:butt;stroke-linejoin:miter;stroke-opacity:1"
         aria-label="x2">
        <path
           id="path189"
           style="font-style:normal;font-variant:normal;font-weight:normal;font-stretch:normal;font-size:3.52777767px;line-height:1.25;font-family:'Fira Sans';-inkscape-font-specification:'Fira Sans';stroke-width:0.28222221px"
           d="m 32.168762,158.6573 0.5715,-0.86431 h -0.366889 l -0.391584,0.68086 -0.388055,-0.68086 h -0.381 l 0.575028,0.87842 -0.649111,0.98072 h 0.366889 l 0.462138,-0.78669 0.455084,0.78669 h 0.391583 z" />
        <path
           id="path191"
           style="font-style:normal;font-variant:normal;font-weight:normal;font-stretch:normal;font-size:3.52777767px;line-height:1.25;font-family:'Fira Sans';-inkscape-font-specification:'Fira Sans';stroke-width:0.28222221px"
           d="m 33.634112,157.25677 c -0.296333,0 -0.525639,0.11994 -0.716139,0.3563 l 0.211667,0.16934 c 0.15875,-0.17992 0.289278,-0.25753 0.486833,-0.25753 0.229306,0 0.388056,0.14464 0.388056,0.39158 0,0.38453 -0.204611,0.61031 -1.037167,1.47814 v 0.25753 h 1.393473 l 0.0388,-0.27164 h -1.061861 c 0.723194,-0.72319 1.005417,-1.03717 1.005417,-1.47814 0,-0.36689 -0.275167,-0.64558 -0.709084,-0.64558 z" />
      </g>
      <path
         id="rect4808"
         d="m 36.310818,138.90387 h 7.303139 v 12.16744 h -7.303139 z"
         style="fill:none;fill-opacity:1;stroke:#666666;stroke-width:0.29999998;stroke-miterlimit:4;stroke-dasharray:none" />
      <path
         id="rect4810"
         d="m 36.310818,151.00426 h 7.303139 v 4.91776 h -7.303139 z"
         style="fill:#cccccc;fill-opacity:1;stroke:#000000;stroke-width:0.29999998;stroke-miterlimit:4;stroke-dasharray:none" />
      <path
         id="rect4812"
         d="m 36.310818,155.92201 h 7.303139 v 4.91776 h -7.303139 z"
         style="fill:#cccccc;fill-opacity:1;stroke:#000000;stroke-width:0.29999998;stroke-miterlimit:4;stroke-dasharray:none" />
      <g
         id="text4816"
         style="font-style:normal;font-weight:normal;font-size:3.38666654px;line-height:0%;font-family:sans-serif;letter-spacing:0px;word-spacing:0px;fill:#000000;fill-opacity:1;stroke:none;stroke-width:0.28222221px;stroke-linecap:butt;stroke-linejoin:miter;stroke-opacity:1"
         aria-label="y1">
        <path
           id="path197"
           style="font-style:normal;font-variant:normal;font-weight:normal;font-stretch:normal;font-size:3.52777767px;line-height:1.25;font-family:'Fira Sans';-inkscape-font-specification:'Fira Sans';stroke-width:0.28222221px"
           d="m 40.124537,152.86404 h -0.335138 l -0.486834,1.62277 -0.497416,-1.62277 h -0.345723 l 0.624417,1.85914 h 0.109361 c -0.105833,0.28927 -0.211667,0.43391 -0.589139,0.49741 l 0.03528,0.254 c 0.515056,-0.0564 0.733778,-0.34572 0.864306,-0.74083 z" />
        <path
           id="path199"
           style="font-style:normal;font-variant:normal;font-weight:normal;font-stretch:normal;font-size:3.52777767px;line-height:1.25;font-family:'Fira Sans';-inkscape-font-specification:'Fira Sans';stroke-width:0.28222221px"
           d="m 41.299949,152.36309 h -0.28575 l -0.73025,0.45156 0.141111,0.2293 0.550333,-0.33514 v 2.01437 h 0.324556 z" />
      </g>
      <g
         id="text4820"
         style="font-style:normal;font-weight:normal;font-size:3.38666654px;line-height:0%;font-family:sans-serif;letter-spacing:0px;word-spacing:0px;fill:#000000;fill-opacity:1;stroke:none;stroke-width:0.28222221px;stroke-linecap:butt;stroke-linejoin:miter;stroke-opacity:1"
         transform="rotate(-90)"
         aria-label="val_y">
        <path
           id="path202"
           style="font-style:normal;font-variant:normal;font-weight:normal;font-stretch:normal;font-size:3.52777767px;line-height:1.25;font-family:'Fira Sans';-inkscape-font-specification:'Fira Sans';stroke-width:0.28222221px"
           d="m -147.17586,38.92231 h -0.3422 l -0.4833,1.569861 -0.48684,-1.569861 h -0.35277 l 0.64205,1.859138 h 0.39159 z" />
        <path
           id="path204"
           style="font-style:normal;font-variant:normal;font-weight:normal;font-stretch:normal;font-size:3.52777767px;line-height:1.25;font-family:'Fira Sans';-inkscape-font-specification:'Fira Sans';stroke-width:0.28222221px"
           d="m -145.60754,40.347532 v -0.850195 c 0,-0.388055 -0.20462,-0.617361 -0.65264,-0.617361 -0.20814,0 -0.41275,0.04233 -0.64206,0.127 l 0.0811,0.236361 c 0.1905,-0.0635 0.36336,-0.09878 0.50094,-0.09878 0.25753,0 0.38806,0.09878 0.38806,0.366888 v 0.137584 h -0.28575 c -0.51858,0 -0.81844,0.215194 -0.81844,0.613833 0,0.331611 0.22225,0.560917 0.59266,0.560917 0.22578,0 0.42334,-0.08467 0.55386,-0.278695 0.0565,0.183445 0.17639,0.257528 0.36336,0.278695 l 0.0741,-0.225778 c -0.0953,-0.03528 -0.15522,-0.0882 -0.15522,-0.250472 z m -0.762,0.232833 c -0.21167,0 -0.32103,-0.116417 -0.32103,-0.335139 0,-0.254 0.17286,-0.381 0.51505,-0.381 h 0.24342 v 0.426861 c -0.10583,0.194028 -0.24694,0.289278 -0.43744,0.289278 z" />
        <path
           id="path206"
           style="font-style:normal;font-variant:normal;font-weight:normal;font-stretch:normal;font-size:3.52777767px;line-height:1.25;font-family:'Fira Sans';-inkscape-font-specification:'Fira Sans';stroke-width:0.28222221px"
           d="m -144.60158,40.823782 c 0.0953,0 0.18698,-0.0247 0.25753,-0.0635 l -0.0847,-0.225778 c -0.0353,0.01411 -0.0741,0.02117 -0.11994,0.02117 -0.0847,0 -0.11642,-0.04939 -0.11642,-0.148167 v -2.271889 l -0.32455,0.03881 v 2.240138 c 0,0.264584 0.15169,0.409223 0.38805,0.409223 z" />
        <path
           id="path208"
           style="font-style:normal;font-variant:normal;font-weight:normal;font-stretch:normal;font-size:3.52777767px;line-height:1.25;font-family:'Fira Sans';-inkscape-font-specification:'Fira Sans';stroke-width:0.28222221px"
           d="m -144.21363,41.282393 h 1.7145 v -0.278695 h -1.7145 z" />
        <path
           id="path210"
           style="font-style:normal;font-variant:normal;font-weight:normal;font-stretch:normal;font-size:3.52777767px;line-height:1.25;font-family:'Fira Sans';-inkscape-font-specification:'Fira Sans';stroke-width:0.28222221px"
           d="m -140.77488,38.92231 h -0.33513 l -0.48684,1.622777 -0.49741,-1.622777 h -0.34573 l 0.62442,1.859138 h 0.10936 c -0.10583,0.289278 -0.21167,0.433917 -0.58914,0.497417 l 0.0353,0.254 c 0.51506,-0.05644 0.73378,-0.345722 0.86431,-0.740833 z" />
      </g>
      <g
         id="text4824"
         style="font-style:normal;font-weight:normal;font-size:3.38666654px;line-height:0%;font-family:sans-serif;letter-spacing:0px;word-spacing:0px;fill:#000000;fill-opacity:1;stroke:none;stroke-width:0.28222221px;stroke-linecap:butt;stroke-linejoin:miter;stroke-opacity:1"
         aria-label="y2">
        <path
           id="path213"
           style="font-style:normal;font-variant:normal;font-weight:normal;font-stretch:normal;font-size:3.52777767px;line-height:1.25;font-family:'Fira Sans';-inkscape-font-specification:'Fira Sans';stroke-width:0.28222221px"
           d="m 40.124537,157.79299 h -0.335138 l -0.486834,1.62278 -0.497416,-1.62278 h -0.345723 l 0.624417,1.85914 h 0.109361 c -0.105833,0.28928 -0.211667,0.43392 -0.589139,0.49742 l 0.03528,0.254 c 0.515056,-0.0564 0.733778,-0.34573 0.864306,-0.74084 z" />
        <path
           id="path215"
           style="font-style:normal;font-variant:normal;font-weight:normal;font-stretch:normal;font-size:3.52777767px;line-height:1.25;font-family:'Fira Sans';-inkscape-font-specification:'Fira Sans';stroke-width:0.28222221px"
           d="m 40.930359,157.25677 c -0.296333,0 -0.525639,0.11994 -0.716139,0.3563 l 0.211667,0.16934 c 0.15875,-0.17992 0.289278,-0.25753 0.486833,-0.25753 0.229306,0 0.388056,0.14464 0.388056,0.39158 0,0.38453 -0.204611,0.61031 -1.037167,1.47814 v 0.25753 h 1.393472 l 0.03881,-0.27164 h -1.061861 c 0.723194,-0.72319 1.005416,-1.03717 1.005416,-1.47814 0,-0.36689 -0.275166,-0.64558 -0.709083,-0.64558 z" />
      </g>
    </g>
  </g>
</svg>
