<?xml version="1.0" encoding="UTF-8" standalone="no"?>
<svg
   xmlns:dc="http://purl.org/dc/elements/1.1/"
   xmlns:cc="http://creativecommons.org/ns#"
   xmlns:rdf="http://www.w3.org/1999/02/22-rdf-syntax-ns#"
   xmlns:svg="http://www.w3.org/2000/svg"
   xmlns="http://www.w3.org/2000/svg"
   width="38.881409mm"
   height="28.348999mm"
   viewBox="0 0 137.76877 100.44921"
   id="svg2"
   version="1.1">
  <defs
     id="defs4" />
  <metadata
     id="metadata7">
    <rdf:RDF>
      <cc:Work
         rdf:about="">
        <dc:format>image/svg+xml</dc:format>
        <dc:type
           rdf:resource="http://purl.org/dc/dcmitype/StillImage" />
        <dc:title />
      </cc:Work>
    </rdf:RDF>
  </metadata>
  <g
     transform="translate(-269.61652,-266.058)"
     id="layer1" />
  <g
     transform="translate(-211.86641,-147.30876)"
     id="g4643">
    <g
       id="g4747">
      <path
         id="use4617"
         d="m 230.11444,177.23454 h 16.92522 v 17.42513 h -16.92522 z"
         style="fill:#8fd091;fill-opacity:1;stroke:#000000;stroke-width:1.0629921;stroke-miterlimit:4;stroke-dasharray:none" />
      <path
         id="use4619"
         d="m 230.11444,194.65967 h 16.92522 v 17.42513 h -16.92522 z"
         style="fill:#cabddc;fill-opacity:1;stroke:#000000;stroke-width:1.0629921;stroke-miterlimit:4;stroke-dasharray:none" />
      <path
         id="use4621"
         d="m 230.11444,212.08481 h 16.92522 v 17.42513 h -16.92522 z"
         style="fill:#fecb98;fill-opacity:1;stroke:#000000;stroke-width:1.0629921;stroke-miterlimit:4;stroke-dasharray:none" />
      <path
         id="use4625"
         d="m 246.91614,177.23454 h 25.87726 v 17.42513 h -25.87726 z"
         style="fill:#cccccc;fill-opacity:1;stroke:#000000;stroke-width:1.0629921;stroke-miterlimit:4;stroke-dasharray:none" />
      <path
         id="use4629"
         d="m 246.91614,212.08481 h 25.87726 v 17.42513 h -25.87726 z"
         style="fill:#cccccc;fill-opacity:1;stroke:#000000;stroke-width:1.0629921;stroke-miterlimit:4;stroke-dasharray:none" />
      <path
         id="use4627"
         d="M 246.91614,194.65967 H 272.7934 V 212.0848 H 246.91614 Z"
         style="fill:#cccccc;fill-opacity:1;stroke:#000000;stroke-width:1.0629921;stroke-miterlimit:4;stroke-dasharray:none" />
      <g
         id="text4673"
         style="font-style:normal;font-weight:normal;line-height:0%;font-family:sans-serif;letter-spacing:0px;word-spacing:0px;fill:#000000;fill-opacity:1;stroke:none;stroke-width:1px;stroke-linecap:butt;stroke-linejoin:miter;stroke-opacity:1"
         aria-label="1">
        <path
           id="path57"
           style="font-style:normal;font-variant:normal;font-weight:normal;font-stretch:normal;font-size:12.5px;line-height:1.25;font-family:'Fira Sans';-inkscape-font-specification:'Fira Sans'"
           d="m 239.87103,182.04933 h -1.0125 l -2.5875,1.6 0.5,0.8125 1.95,-1.1875 v 7.1375 h 1.15 z" />
      </g>
      <g
         id="text4677"
         style="font-style:normal;font-weight:normal;line-height:0%;font-family:sans-serif;letter-spacing:0px;word-spacing:0px;fill:#000000;fill-opacity:1;stroke:none;stroke-width:1px;stroke-linecap:butt;stroke-linejoin:miter;stroke-opacity:1"
         aria-label="x1">
        <path
           id="path60"
           style="font-style:normal;font-variant:normal;font-weight:normal;font-stretch:normal;font-size:12.5px;line-height:1.25;font-family:'Fira Sans';-inkscape-font-specification:'Fira Sans'"
           d="m 258.11683,186.88683 2.025,-3.0625 h -1.3 l -1.3875,2.4125 -1.375,-2.4125 h -1.35 l 2.0375,3.1125 -2.3,3.475 h 1.3 l 1.6375,-2.7875 1.6125,2.7875 h 1.3875 z" />
        <path
           id="path62"
           style="font-style:normal;font-variant:normal;font-weight:normal;font-stretch:normal;font-size:12.5px;line-height:1.25;font-family:'Fira Sans';-inkscape-font-specification:'Fira Sans'"
           d="m 264.3012,182.04933 h -1.0125 l -2.5875,1.6 0.5,0.8125 1.95,-1.1875 v 7.1375 h 1.15 z" />
      </g>
      <g
         id="text4681"
         style="font-style:normal;font-weight:normal;line-height:0%;font-family:sans-serif;letter-spacing:0px;word-spacing:0px;fill:#000000;fill-opacity:1;stroke:none;stroke-width:1px;stroke-linecap:butt;stroke-linejoin:miter;stroke-opacity:1"
         aria-label="2">
        <path
           id="path65"
           style="font-style:normal;font-variant:normal;font-weight:normal;font-stretch:normal;font-size:12.5px;line-height:1.25;font-family:'Fira Sans';-inkscape-font-specification:'Fira Sans'"
           d="m 237.8626,199.38913 c -1.05,0 -1.8625,0.425 -2.5375,1.2625 l 0.75,0.6 c 0.5625,-0.6375 1.025,-0.9125 1.725,-0.9125 0.8125,0 1.375,0.5125 1.375,1.3875 0,1.3625 -0.725,2.1625 -3.675,5.2375 v 0.9125 h 4.9375 l 0.1375,-0.9625 h -3.7625 c 2.5625,-2.5625 3.5625,-3.675 3.5625,-5.2375 0,-1.3 -0.975,-2.2875 -2.5125,-2.2875 z" />
      </g>
      <g
         id="text4689"
         style="font-style:normal;font-weight:normal;line-height:0%;font-family:sans-serif;letter-spacing:0px;word-spacing:0px;fill:#000000;fill-opacity:1;stroke:none;stroke-width:1px;stroke-linecap:butt;stroke-linejoin:miter;stroke-opacity:1"
         aria-label="3">
        <path
           id="path68"
           style="font-style:normal;font-variant:normal;font-weight:normal;font-stretch:normal;font-size:12.5px;line-height:1.25;font-family:'Fira Sans';-inkscape-font-specification:'Fira Sans'"
           d="m 237.99905,216.75324 c -0.9,0 -1.675,0.325 -2.3875,0.9875 l 0.6,0.6875 c 0.5625,-0.525 1.0625,-0.75 1.725,-0.75 0.8375,0 1.3875,0.4875 1.3875,1.275 0,0.975 -0.6875,1.475 -1.5125,1.475 h -0.425 l -0.1375,0.8875 h 0.625 c 1.0125,0 1.6625,0.35 1.6625,1.5 0,0.9875 -0.6375,1.6375 -1.6875,1.6375 -0.675,0 -1.2375,-0.25 -1.7875,-0.825 l -0.6875,0.6375 c 0.6375,0.7625 1.5125,1.125 2.5125,1.125 1.7375,0 2.85,-1.1 2.85,-2.5625 0,-1.2625 -0.8375,-1.925 -1.8875,-2.025 0.9375,-0.225 1.625,-0.8625 1.625,-1.925 0,-1.125 -0.875,-2.125 -2.475,-2.125 z" />
      </g>
      <g
         id="text3377"
         style="font-style:normal;font-weight:normal;line-height:0%;font-family:sans-serif;letter-spacing:0px;word-spacing:0px;fill:#000000;fill-opacity:1;stroke:none;stroke-width:1px;stroke-linecap:butt;stroke-linejoin:miter;stroke-opacity:1"
         aria-label="x2">
        <path
           id="path71"
           style="font-style:normal;font-variant:normal;font-weight:normal;font-stretch:normal;font-size:12.5px;line-height:1.25;font-family:'Fira Sans';-inkscape-font-specification:'Fira Sans'"
           d="m 258.11683,204.35163 2.025,-3.0625 h -1.3 l -1.3875,2.4125 -1.375,-2.4125 h -1.35 l 2.0375,3.1125 -2.3,3.475 h 1.3 l 1.6375,-2.7875 1.6125,2.7875 h 1.3875 z" />
        <path
           id="path73"
           style="font-style:normal;font-variant:normal;font-weight:normal;font-stretch:normal;font-size:12.5px;line-height:1.25;font-family:'Fira Sans';-inkscape-font-specification:'Fira Sans'"
           d="m 263.30901,199.38913 c -1.05,0 -1.8625,0.425 -2.5375,1.2625 l 0.75,0.6 c 0.5625,-0.6375 1.025,-0.9125 1.725,-0.9125 0.8125,0 1.375,0.5125 1.375,1.3875 0,1.3625 -0.725,2.1625 -3.675,5.2375 v 0.9125 h 4.9375 l 0.1375,-0.9625 h -3.7625 c 2.5625,-2.5625 3.5625,-3.675 3.5625,-5.2375 0,-1.3 -0.975,-2.2875 -2.5125,-2.2875 z" />
      </g>
      <g
         id="text3381"
         style="font-style:normal;font-weight:normal;line-height:0%;font-family:sans-serif;letter-spacing:0px;word-spacing:0px;fill:#000000;fill-opacity:1;stroke:none;stroke-width:1px;stroke-linecap:butt;stroke-linejoin:miter;stroke-opacity:1"
         aria-label="x3">
        <path
           id="path76"
           style="font-style:normal;font-variant:normal;font-weight:normal;font-stretch:normal;font-size:12.5px;line-height:1.25;font-family:'Fira Sans';-inkscape-font-specification:'Fira Sans'"
           d="m 258.11683,221.71574 2.025,-3.0625 h -1.3 l -1.3875,2.4125 -1.375,-2.4125 h -1.35 l 2.0375,3.1125 -2.3,3.475 h 1.3 l 1.6375,-2.7875 1.6125,2.7875 h 1.3875 z" />
        <path
           id="path78"
           style="font-style:normal;font-variant:normal;font-weight:normal;font-stretch:normal;font-size:12.5px;line-height:1.25;font-family:'Fira Sans';-inkscape-font-specification:'Fira Sans'"
           d="m 263.27151,216.75324 c -0.9,0 -1.675,0.325 -2.3875,0.9875 l 0.6,0.6875 c 0.5625,-0.525 1.0625,-0.75 1.725,-0.75 0.8375,0 1.3875,0.4875 1.3875,1.275 0,0.975 -0.6875,1.475 -1.5125,1.475 h -0.425 l -0.1375,0.8875 h 0.625 c 1.0125,0 1.6625,0.35 1.6625,1.5 0,0.9875 -0.6375,1.6375 -1.6875,1.6375 -0.675,0 -1.2375,-0.25 -1.7875,-0.825 l -0.6875,0.6375 c 0.6375,0.7625 1.5125,1.125 2.5125,1.125 1.7375,0 2.85,-1.1 2.85,-2.5625 0,-1.2625 -0.8375,-1.925 -1.8875,-2.025 0.9375,-0.225 1.625,-0.8625 1.625,-1.925 0,-1.125 -0.875,-2.125 -2.475,-2.125 z" />
      </g>
    </g>
    <g
       id="text4697"
       style="font-style:normal;font-weight:normal;line-height:0%;font-family:sans-serif;letter-spacing:0px;word-spacing:0px;fill:#000000;fill-opacity:1;stroke:none;stroke-width:1px;stroke-linecap:butt;stroke-linejoin:miter;stroke-opacity:1"
       aria-label="x">
      <path
         id="path81"
         style="font-style:normal;font-variant:normal;font-weight:normal;font-stretch:normal;font-size:12.5px;line-height:1.25;font-family:'Fira Sans';-inkscape-font-specification:'Fira Sans'"
         d="m 252.08111,168.1043 2.025,-3.0625 h -1.3 l -1.3875,2.4125 -1.375,-2.4125 h -1.35 l 2.0375,3.1125 -2.3,3.475 h 1.3 l 1.6375,-2.7875 1.6125,2.7875 h 1.3875 z" />
    </g>
    <g
       transform="translate(58.59375)"
       id="g4767">
      <path
         id="rect4769"
         d="m 230.11444,177.23454 h 16.92522 v 17.42513 h -16.92522 z"
         style="fill:#8fd091;fill-opacity:1;stroke:#000000;stroke-width:1.0629921;stroke-miterlimit:4;stroke-dasharray:none" />
      <path
         id="rect4771"
         d="m 230.11444,194.65967 h 16.92522 v 17.42513 h -16.92522 z"
         style="fill:#cabddc;fill-opacity:1;stroke:#000000;stroke-width:1.0629921;stroke-miterlimit:4;stroke-dasharray:none" />
      <path
         id="rect4773"
         d="m 230.11444,212.08481 h 16.92522 v 17.42513 h -16.92522 z"
         style="fill:#fecb98;fill-opacity:1;stroke:#000000;stroke-width:1.0629921;stroke-miterlimit:4;stroke-dasharray:none" />
      <path
         id="rect4775"
         d="m 246.91614,177.23454 h 25.87726 v 17.42513 h -25.87726 z"
         style="fill:#cccccc;fill-opacity:1;stroke:#000000;stroke-width:1.0629921;stroke-miterlimit:4;stroke-dasharray:none" />
      <path
         id="rect4777"
         d="m 246.91614,212.08481 h 25.87726 v 17.42513 h -25.87726 z"
         style="fill:#cccccc;fill-opacity:1;stroke:#000000;stroke-width:1.0629921;stroke-miterlimit:4;stroke-dasharray:none" />
      <path
         id="rect4779"
         d="M 246.91614,194.65967 H 272.7934 V 212.0848 H 246.91614 Z"
         style="fill:#cccccc;fill-opacity:1;stroke:#000000;stroke-width:1.0629921;stroke-miterlimit:4;stroke-dasharray:none" />
      <g
         id="text4781"
         style="font-style:normal;font-weight:normal;line-height:0%;font-family:sans-serif;letter-spacing:0px;word-spacing:0px;fill:#000000;fill-opacity:1;stroke:none;stroke-width:1px;stroke-linecap:butt;stroke-linejoin:miter;stroke-opacity:1"
         aria-label="1">
        <path
           id="path90"
           style="font-style:normal;font-variant:normal;font-weight:normal;font-stretch:normal;font-size:12.5px;line-height:1.25;font-family:'Fira Sans';-inkscape-font-specification:'Fira Sans'"
           d="m 239.87103,182.04933 h -1.0125 l -2.5875,1.6 0.5,0.8125 1.95,-1.1875 v 7.1375 h 1.15 z" />
      </g>
      <g
         id="text4785"
         style="font-style:normal;font-weight:normal;line-height:0%;font-family:sans-serif;letter-spacing:0px;word-spacing:0px;fill:#000000;fill-opacity:1;stroke:none;stroke-width:1px;stroke-linecap:butt;stroke-linejoin:miter;stroke-opacity:1"
         aria-label="y1">
        <path
           id="path93"
           style="font-style:normal;font-variant:normal;font-weight:normal;font-stretch:normal;font-size:12.5px;line-height:1.25;font-family:'Fira Sans';-inkscape-font-specification:'Fira Sans'"
           d="m 260.42933,183.82433 h -1.1875 l -1.725,5.75 -1.7625,-5.75 h -1.225 l 2.2125,6.5875 h 0.3875 c -0.375,1.025 -0.75,1.5375 -2.0875,1.7625 l 0.125,0.9 c 1.825,-0.2 2.6,-1.225 3.0625,-2.625 z" />
        <path
           id="path95"
           style="font-style:normal;font-variant:normal;font-weight:normal;font-stretch:normal;font-size:12.5px;line-height:1.25;font-family:'Fira Sans';-inkscape-font-specification:'Fira Sans'"
           d="m 264.59417,182.04933 h -1.0125 l -2.5875,1.6 0.5,0.8125 1.95,-1.1875 v 7.1375 h 1.15 z" />
      </g>
      <g
         id="text4789"
         style="font-style:normal;font-weight:normal;line-height:0%;font-family:sans-serif;letter-spacing:0px;word-spacing:0px;fill:#000000;fill-opacity:1;stroke:none;stroke-width:1px;stroke-linecap:butt;stroke-linejoin:miter;stroke-opacity:1"
         aria-label="2">
        <path
           id="path98"
           style="font-style:normal;font-variant:normal;font-weight:normal;font-stretch:normal;font-size:12.5px;line-height:1.25;font-family:'Fira Sans';-inkscape-font-specification:'Fira Sans'"
           d="m 237.8626,199.38913 c -1.05,0 -1.8625,0.425 -2.5375,1.2625 l 0.75,0.6 c 0.5625,-0.6375 1.025,-0.9125 1.725,-0.9125 0.8125,0 1.375,0.5125 1.375,1.3875 0,1.3625 -0.725,2.1625 -3.675,5.2375 v 0.9125 h 4.9375 l 0.1375,-0.9625 h -3.7625 c 2.5625,-2.5625 3.5625,-3.675 3.5625,-5.2375 0,-1.3 -0.975,-2.2875 -2.5125,-2.2875 z" />
      </g>
      <g
         id="text4797"
         style="font-style:normal;font-weight:normal;line-height:0%;font-family:sans-serif;letter-spacing:0px;word-spacing:0px;fill:#000000;fill-opacity:1;stroke:none;stroke-width:1px;stroke-linecap:butt;stroke-linejoin:miter;stroke-opacity:1"
         aria-label="3">
        <path
           id="path101"
           style="font-style:normal;font-variant:normal;font-weight:normal;font-stretch:normal;font-size:12.5px;line-height:1.25;font-family:'Fira Sans';-inkscape-font-specification:'Fira Sans'"
           d="m 237.99905,216.75324 c -0.9,0 -1.675,0.325 -2.3875,0.9875 l 0.6,0.6875 c 0.5625,-0.525 1.0625,-0.75 1.725,-0.75 0.8375,0 1.3875,0.4875 1.3875,1.275 0,0.975 -0.6875,1.475 -1.5125,1.475 h -0.425 l -0.1375,0.8875 h 0.625 c 1.0125,0 1.6625,0.35 1.6625,1.5 0,0.9875 -0.6375,1.6375 -1.6875,1.6375 -0.675,0 -1.2375,-0.25 -1.7875,-0.825 l -0.6875,0.6375 c 0.6375,0.7625 1.5125,1.125 2.5125,1.125 1.7375,0 2.85,-1.1 2.85,-2.5625 0,-1.2625 -0.8375,-1.925 -1.8875,-2.025 0.9375,-0.225 1.625,-0.8625 1.625,-1.925 0,-1.125 -0.875,-2.125 -2.475,-2.125 z" />
      </g>
      <g
         id="text3401"
         style="font-style:normal;font-weight:normal;line-height:0%;font-family:sans-serif;letter-spacing:0px;word-spacing:0px;fill:#000000;fill-opacity:1;stroke:none;stroke-width:1px;stroke-linecap:butt;stroke-linejoin:miter;stroke-opacity:1"
         aria-label="y2">
        <path
           id="path104"
           style="font-style:normal;font-variant:normal;font-weight:normal;font-stretch:normal;font-size:12.5px;line-height:1.25;font-family:'Fira Sans';-inkscape-font-specification:'Fira Sans'"
           d="m 260.42933,201.24946 h -1.1875 l -1.725,5.75 -1.7625,-5.75 h -1.225 l 2.2125,6.5875 h 0.3875 c -0.375,1.025 -0.75,1.5375 -2.0875,1.7625 l 0.125,0.9 c 1.825,-0.2 2.6,-1.225 3.0625,-2.625 z" />
        <path
           id="path106"
           style="font-style:normal;font-variant:normal;font-weight:normal;font-stretch:normal;font-size:12.5px;line-height:1.25;font-family:'Fira Sans';-inkscape-font-specification:'Fira Sans'"
           d="m 263.2846,199.34946 c -1.05,0 -1.8625,0.425 -2.5375,1.2625 l 0.75,0.6 c 0.5625,-0.6375 1.025,-0.9125 1.725,-0.9125 0.8125,0 1.375,0.5125 1.375,1.3875 0,1.3625 -0.725,2.1625 -3.675,5.2375 v 0.9125 h 4.9375 l 0.1375,-0.9625 h -3.7625 c 2.5625,-2.5625 3.5625,-3.675 3.5625,-5.2375 0,-1.3 -0.975,-2.2875 -2.5125,-2.2875 z" />
      </g>
      <g
         id="text3405"
         style="font-style:normal;font-weight:normal;line-height:0%;font-family:sans-serif;letter-spacing:0px;word-spacing:0px;fill:#000000;fill-opacity:1;stroke:none;stroke-width:1px;stroke-linecap:butt;stroke-linejoin:miter;stroke-opacity:1"
         aria-label="y3">
        <path
           id="path109"
           style="font-style:normal;font-variant:normal;font-weight:normal;font-stretch:normal;font-size:12.5px;line-height:1.25;font-family:'Fira Sans';-inkscape-font-specification:'Fira Sans'"
           d="m 260.42933,218.6746 h -1.1875 l -1.725,5.75 -1.7625,-5.75 h -1.225 l 2.2125,6.5875 h 0.3875 c -0.375,1.025 -0.75,1.5375 -2.0875,1.7625 l 0.125,0.9 c 1.825,-0.2 2.6,-1.225 3.0625,-2.625 z" />
        <path
           id="path111"
           style="font-style:normal;font-variant:normal;font-weight:normal;font-stretch:normal;font-size:12.5px;line-height:1.25;font-family:'Fira Sans';-inkscape-font-specification:'Fira Sans'"
           d="m 263.19827,216.7746 c -0.9,0 -1.675,0.325 -2.3875,0.9875 l 0.6,0.6875 c 0.5625,-0.525 1.0625,-0.75 1.725,-0.75 0.8375,0 1.3875,0.4875 1.3875,1.275 0,0.975 -0.6875,1.475 -1.5125,1.475 h -0.425 l -0.1375,0.8875 h 0.625 c 1.0125,0 1.6625,0.35 1.6625,1.5 0,0.9875 -0.6375,1.6375 -1.6875,1.6375 -0.675,0 -1.2375,-0.25 -1.7875,-0.825 l -0.6875,0.6375 c 0.6375,0.7625 1.5125,1.125 2.5125,1.125 1.7375,0 2.85,-1.1 2.85,-2.5625 0,-1.2625 -0.8375,-1.925 -1.8875,-2.025 0.9375,-0.225 1.625,-0.8625 1.625,-1.925 0,-1.125 -0.875,-2.125 -2.475,-2.125 z" />
      </g>
    </g>
    <g
       id="text4805"
       style="font-style:normal;font-weight:normal;line-height:0%;font-family:sans-serif;letter-spacing:0px;word-spacing:0px;fill:#000000;fill-opacity:1;stroke:none;stroke-width:1px;stroke-linecap:butt;stroke-linejoin:miter;stroke-opacity:1"
       aria-label="y">
      <path
         id="path114"
         style="font-style:normal;font-variant:normal;font-weight:normal;font-stretch:normal;font-size:12.5px;line-height:1.25;font-family:'Fira Sans';-inkscape-font-specification:'Fira Sans'"
         d="m 312.98737,165.0418 h -1.1875 l -1.725,5.75 -1.7625,-5.75 h -1.225 l 2.2125,6.5875 h 0.3875 c -0.375,1.025 -0.75,1.5375 -2.0875,1.7625 l 0.125,0.9 c 1.825,-0.2 2.6,-1.225 3.0625,-2.625 z" />
    </g>
  </g>
</svg>
