<?xml version="1.0" encoding="UTF-8" standalone="no"?>
<svg
   xmlns:dc="http://purl.org/dc/elements/1.1/"
   xmlns:cc="http://creativecommons.org/ns#"
   xmlns:rdf="http://www.w3.org/1999/02/22-rdf-syntax-ns#"
   xmlns:svg="http://www.w3.org/2000/svg"
   xmlns="http://www.w3.org/2000/svg"
   viewBox="0 0 500.7758 187.46055"
   height="49.598934mm"
   width="132.49693mm"
   id="svg2"
   version="1.1">
  <metadata
     id="metadata8">
    <rdf:RDF>
      <cc:Work
         rdf:about="">
        <dc:format>image/svg+xml</dc:format>
        <dc:type
           rdf:resource="http://purl.org/dc/dcmitype/StillImage" />
        <dc:title />
      </cc:Work>
    </rdf:RDF>
  </metadata>
  <defs
     id="defs6" />
  <rect
     transform="rotate(90)"
     ry="6.7964511"
     rx="6.8833065"
     y="-76.550316"
     x="49.479324"
     height="39.484203"
     width="108.02529"
     id="rect889"
     style="fill:#ebebeb;fill-opacity:1;stroke:#000000;stroke-width:1.13385832;stroke-miterlimit:4;stroke-dasharray:none;paint-order:markers fill stroke" />
  <rect
     transform="rotate(90)"
     style="fill:#d6d6d6;fill-opacity:1;stroke:#000000;stroke-width:1.13385832;stroke-miterlimit:4;stroke-dasharray:none;paint-order:markers fill stroke"
     id="rect859"
     width="21.327433"
     height="23.266291"
     x="60.837112"
     y="-68.44136"
     rx="0"
     ry="0" />
  <g
     id="text863"
     style="font-style:normal;font-weight:normal;font-size:40px;line-height:1.25;font-family:Mono-serif;letter-spacing:0px;word-spacing:0px;fill:#000000;fill-opacity:1;stroke:none;stroke-width:1.13385832;stroke-miterlimit:4;stroke-dasharray:none;paint-order:markers fill stroke"
     aria-label="5">
    <path
       id="path52"
       style="font-style:normal;font-variant:normal;font-weight:normal;font-stretch:normal;font-size:16px;font-family:'Fira Mono';-inkscape-font-specification:'Fira Mono';stroke-width:1.13385832;stroke-miterlimit:4;stroke-dasharray:none;paint-order:markers fill stroke"
       d="m 59.904206,66.086199 h -5.84 v 5.504 h 1.088 c 0.64,-0.224 1.072,-0.368 1.712,-0.368 1.12,0 2,0.592 2,2.352 0,1.712 -0.864,2.608 -2.32,2.608 -0.944,0 -1.696,-0.336 -2.368,-1.024 l -0.832,0.816 c 0.848,0.816 1.872,1.312 3.2,1.312 2.272,0 3.728,-1.456 3.728,-3.664 0,-2.208 -1.216,-3.456 -3.024,-3.456 -0.656,0 -1.232,0.112 -1.888,0.48 v -3.472 h 4.352 z" />
  </g>
  <rect
     transform="rotate(90)"
     style="fill:#d6d6d6;fill-opacity:1;stroke:#000000;stroke-width:1.13385832;stroke-miterlimit:4;stroke-dasharray:none;paint-order:markers fill stroke"
     id="rect871"
     width="21.327433"
     height="23.266291"
     x="92.828262"
     y="-68.44136"
     rx="0"
     ry="0" />
  <g
     id="text875"
     style="font-style:normal;font-weight:normal;font-size:40px;line-height:1.25;font-family:Mono-serif;letter-spacing:0px;word-spacing:0px;fill:#000000;fill-opacity:1;stroke:none;stroke-width:1.13385832;stroke-miterlimit:4;stroke-dasharray:none;paint-order:markers fill stroke"
     aria-label="10">
    <path
       id="path55"
       style="font-style:normal;font-variant:normal;font-weight:normal;font-stretch:normal;font-size:16px;font-family:'Fira Mono';-inkscape-font-specification:'Fira Mono';stroke-width:1.13385832;stroke-miterlimit:4;stroke-dasharray:none;paint-order:markers fill stroke"
       d="m 53.035331,108.09146 v -9.936001 h -1.184 l -3.28,2.048001 0.592,0.944 2.512,-1.520001 v 8.464001 h -2.704 v 1.088 h 6.352 v -1.088 z" />
    <path
       id="path57"
       style="font-style:normal;font-variant:normal;font-weight:normal;font-stretch:normal;font-size:16px;font-family:'Fira Mono';-inkscape-font-specification:'Fira Mono';stroke-width:1.13385832;stroke-miterlimit:4;stroke-dasharray:none;paint-order:markers fill stroke"
       d="m 61.445081,97.979459 c -2.368,0 -3.6,2.032001 -3.6,5.680001 0,3.664 1.232,5.696 3.6,5.696 2.368,0 3.6,-2.032 3.6,-5.696 0,-3.648 -1.232,-5.680001 -3.6,-5.680001 z m 0,1.088 c 1.376,0 2.192,1.344001 2.192,4.592001 0,3.264 -0.816,4.608 -2.192,4.608 -1.36,0 -2.192,-1.344 -2.192,-4.608 0,-3.248 0.832,-4.592001 2.192,-4.592001 z m 0,3.552001 c -0.592,0 -1.04,0.464 -1.04,1.04 0,0.592 0.448,1.056 1.04,1.056 0.608,0 1.056,-0.464 1.056,-1.056 0,-0.576 -0.448,-1.04 -1.056,-1.04 z" />
  </g>
  <rect
     transform="rotate(90)"
     ry="0"
     rx="0"
     y="-68.44136"
     x="124.81941"
     height="23.266291"
     width="21.327433"
     id="rect877"
     style="fill:#d6d6d6;fill-opacity:1;stroke:#000000;stroke-width:1.13385832;stroke-miterlimit:4;stroke-dasharray:none;paint-order:markers fill stroke" />
  <g
     id="text881"
     style="font-style:normal;font-weight:normal;font-size:40px;line-height:1.25;font-family:Mono-serif;letter-spacing:0px;word-spacing:0px;fill:#000000;fill-opacity:1;stroke:none;stroke-width:1.13385832;stroke-miterlimit:4;stroke-dasharray:none;paint-order:markers fill stroke"
     aria-label="-3">
    <path
       id="path60"
       style="font-style:normal;font-variant:normal;font-weight:normal;font-stretch:normal;font-size:16px;font-family:'Fira Mono';-inkscape-font-specification:'Fira Mono';stroke-width:1.13385832;stroke-miterlimit:4;stroke-dasharray:none;paint-order:markers fill stroke"
       d="m 48.995331,136.73865 h 5.6 v -1.152 h -5.6 z" />
    <path
       id="path62"
       style="font-style:normal;font-variant:normal;font-weight:normal;font-stretch:normal;font-size:16px;font-family:'Fira Mono';-inkscape-font-specification:'Fira Mono';stroke-width:1.13385832;stroke-miterlimit:4;stroke-dasharray:none;paint-order:markers fill stroke"
       d="m 60.893081,129.97065 c -1.136,0 -2.192,0.384 -3.136,1.28 l 0.736,0.816 c 0.736,-0.672 1.392,-1.008 2.336,-1.008 1.168,0 2.08,0.656 2.08,1.856 0,1.328 -1.024,1.92 -2.08,1.92 h -0.656 l -0.16,1.072 h 0.912 c 1.312,0 2.288,0.512 2.288,2.096 0,1.376 -0.912,2.24 -2.448,2.24 -0.896,0 -1.824,-0.352 -2.448,-1.088 l -0.896,0.736 c 0.832,1.008 2.144,1.456 3.376,1.456 2.288,0 3.824,-1.44 3.824,-3.344 0,-1.712 -1.216,-2.608 -2.496,-2.704 1.152,-0.224 2.144,-1.232 2.144,-2.56 0,-1.504 -1.296,-2.768 -3.376,-2.768 z" />
  </g>
  <rect
     style="fill:#ebebeb;fill-opacity:1;stroke:#000000;stroke-width:1.13385832;stroke-miterlimit:4;stroke-dasharray:none;paint-order:markers fill stroke"
     id="rect2437"
     width="108.02529"
     height="39.484203"
     x="49.479324"
     y="-135.308"
     rx="6.8833065"
     ry="6.7964511"
     transform="rotate(90)" />
  <rect
     ry="0"
     rx="0"
     y="-127.19904"
     x="60.837112"
     height="23.266291"
     width="21.327433"
     id="rect2411"
     style="fill:#d6d6d6;fill-opacity:1;stroke:#000000;stroke-width:1.13385832;stroke-miterlimit:4;stroke-dasharray:none;paint-order:markers fill stroke"
     transform="rotate(90)" />
  <g
     id="text2415"
     style="font-style:normal;font-weight:normal;font-size:40px;line-height:1.25;font-family:Mono-serif;letter-spacing:0px;word-spacing:0px;fill:#000000;fill-opacity:1;stroke:none;stroke-width:1.13385832;stroke-miterlimit:4;stroke-dasharray:none;paint-order:markers fill stroke"
     aria-label="1">
    <path
       id="path65"
       style="font-style:normal;font-variant:normal;font-weight:normal;font-stretch:normal;font-size:16px;font-family:'Fira Mono';-inkscape-font-specification:'Fira Mono';stroke-width:1.13385832;stroke-miterlimit:4;stroke-dasharray:none;paint-order:markers fill stroke"
       d="m 116.6539,76.022199 v -9.936 h -1.184 l -3.28,2.048 0.592,0.944 2.512,-1.52 v 8.464 h -2.704 v 1.088 h 6.352 v -1.088 z" />
  </g>
  <rect
     ry="0"
     rx="0"
     y="-127.19904"
     x="92.828262"
     height="23.266291"
     width="21.327433"
     id="rect2421"
     style="fill:#d6d6d6;fill-opacity:1;stroke:#000000;stroke-width:1.13385832;stroke-miterlimit:4;stroke-dasharray:none;paint-order:markers fill stroke"
     transform="rotate(90)" />
  <g
     id="text2425"
     style="font-style:normal;font-weight:normal;font-size:40px;line-height:1.25;font-family:Mono-serif;letter-spacing:0px;word-spacing:0px;fill:#000000;fill-opacity:1;stroke:none;stroke-width:1.13385832;stroke-miterlimit:4;stroke-dasharray:none;paint-order:markers fill stroke"
     aria-label="5">
    <path
       id="path68"
       style="font-style:normal;font-variant:normal;font-weight:normal;font-stretch:normal;font-size:16px;font-family:'Fira Mono';-inkscape-font-specification:'Fira Mono';stroke-width:1.13385832;stroke-miterlimit:4;stroke-dasharray:none;paint-order:markers fill stroke"
       d="m 118.6619,98.155459 h -5.84 v 5.504001 h 1.088 c 0.64,-0.224 1.072,-0.368 1.712,-0.368 1.12,0 2,0.592 2,2.352 0,1.712 -0.864,2.608 -2.32,2.608 -0.944,0 -1.696,-0.336 -2.368,-1.024 l -0.832,0.816 c 0.848,0.816 1.872,1.312 3.2,1.312 2.272,0 3.728,-1.456 3.728,-3.664 0,-2.208 -1.216,-3.456 -3.024,-3.456 -0.656,0 -1.232,0.112 -1.888,0.48 v -3.472001 h 4.352 z" />
  </g>
  <rect
     style="fill:#d6d6d6;fill-opacity:1;stroke:#000000;stroke-width:1.13385832;stroke-miterlimit:4;stroke-dasharray:none;paint-order:markers fill stroke"
     id="rect2429"
     width="21.327433"
     height="23.266291"
     x="124.81944"
     y="-127.19904"
     rx="0"
     ry="0"
     transform="rotate(90)" />
  <g
     id="text2433"
     style="font-style:normal;font-weight:normal;font-size:40px;line-height:1.25;font-family:Mono-serif;letter-spacing:0px;word-spacing:0px;fill:#000000;fill-opacity:1;stroke:none;stroke-width:1.13385832;stroke-miterlimit:4;stroke-dasharray:none;paint-order:markers fill stroke"
     aria-label="10">
    <path
       id="path71"
       style="font-style:normal;font-variant:normal;font-weight:normal;font-stretch:normal;font-size:16px;font-family:'Fira Mono';-inkscape-font-specification:'Fira Mono';stroke-width:1.13385832;stroke-miterlimit:4;stroke-dasharray:none;paint-order:markers fill stroke"
       d="m 111.79302,140.08265 v -9.936 h -1.184 l -3.28,2.048 0.592,0.944 2.512,-1.52 v 8.464 h -2.704 v 1.088 h 6.352 v -1.088 z" />
    <path
       id="path73"
       style="font-style:normal;font-variant:normal;font-weight:normal;font-stretch:normal;font-size:16px;font-family:'Fira Mono';-inkscape-font-specification:'Fira Mono';stroke-width:1.13385832;stroke-miterlimit:4;stroke-dasharray:none;paint-order:markers fill stroke"
       d="m 120.20277,129.97065 c -2.368,0 -3.6,2.032 -3.6,5.68 0,3.664 1.232,5.696 3.6,5.696 2.368,0 3.6,-2.032 3.6,-5.696 0,-3.648 -1.232,-5.68 -3.6,-5.68 z m 0,1.088 c 1.376,0 2.192,1.344 2.192,4.592 0,3.264 -0.816,4.608 -2.192,4.608 -1.36,0 -2.192,-1.344 -2.192,-4.608 0,-3.248 0.832,-4.592 2.192,-4.592 z m 0,3.552 c -0.592,0 -1.04,0.464 -1.04,1.04 0,0.592 0.448,1.056 1.04,1.056 0.608,0 1.056,-0.464 1.056,-1.056 0,-0.576 -0.448,-1.04 -1.056,-1.04 z" />
  </g>
  <rect
     transform="rotate(90)"
     ry="6.7964511"
     rx="6.8833065"
     y="-194.06567"
     x="49.479324"
     height="39.484203"
     width="108.02529"
     id="rect311"
     style="fill:#ebebeb;fill-opacity:1;stroke:#000000;stroke-width:1.13385832;stroke-miterlimit:4;stroke-dasharray:none;paint-order:markers fill stroke" />
  <rect
     transform="rotate(90)"
     style="fill:#d6d6d6;fill-opacity:1;stroke:#000000;stroke-width:1.13385832;stroke-miterlimit:4;stroke-dasharray:none;paint-order:markers fill stroke"
     id="rect317"
     width="21.327433"
     height="23.266291"
     x="60.837112"
     y="-185.95673"
     rx="0"
     ry="0" />
  <g
     id="text321"
     style="font-style:normal;font-weight:normal;font-size:40px;line-height:1.25;font-family:Mono-serif;letter-spacing:0px;word-spacing:0px;fill:#000000;fill-opacity:1;stroke:none;stroke-width:1.13385832;stroke-miterlimit:4;stroke-dasharray:none;paint-order:markers fill stroke"
     aria-label="1">
    <path
       id="path76"
       style="font-style:normal;font-variant:normal;font-weight:normal;font-stretch:normal;font-size:16px;font-family:'Fira Mono';-inkscape-font-specification:'Fira Mono';stroke-width:1.13385832;stroke-miterlimit:4;stroke-dasharray:none;paint-order:markers fill stroke"
       d="m 176.79589,76.022199 v -9.936 h -1.184 l -3.28,2.048 0.592,0.944 2.512,-1.52 v 8.464 h -2.704 v 1.088 h 6.352 v -1.088 z" />
  </g>
  <rect
     transform="rotate(90)"
     style="fill:#d6d6d6;fill-opacity:1;stroke:#000000;stroke-width:1.13385832;stroke-miterlimit:4;stroke-dasharray:none;paint-order:markers fill stroke"
     id="rect323"
     width="21.327433"
     height="23.266291"
     x="92.828262"
     y="-185.95673"
     rx="0"
     ry="0" />
  <g
     id="text327"
     style="font-style:normal;font-weight:normal;font-size:40px;line-height:1.25;font-family:Mono-serif;letter-spacing:0px;word-spacing:0px;fill:#000000;fill-opacity:1;stroke:none;stroke-width:1.13385832;stroke-miterlimit:4;stroke-dasharray:none;paint-order:markers fill stroke"
     aria-label="3">
    <path
       id="path79"
       style="font-style:normal;font-variant:normal;font-weight:normal;font-stretch:normal;font-size:16px;font-family:'Fira Mono';-inkscape-font-specification:'Fira Mono';stroke-width:1.13385832;stroke-miterlimit:4;stroke-dasharray:none;paint-order:markers fill stroke"
       d="m 174.28776,97.979459 c -1.136,0 -2.192,0.384 -3.136,1.28 l 0.736,0.816001 c 0.736,-0.672001 1.392,-1.008001 2.336,-1.008001 1.168,0 2.08,0.656 2.08,1.856001 0,1.328 -1.024,1.92 -2.08,1.92 h -0.656 l -0.16,1.072 h 0.912 c 1.312,0 2.288,0.512 2.288,2.096 0,1.376 -0.912,2.24 -2.448,2.24 -0.896,0 -1.824,-0.352 -2.448,-1.088 l -0.896,0.736 c 0.832,1.008 2.144,1.456 3.376,1.456 2.288,0 3.824,-1.44 3.824,-3.344 0,-1.712 -1.216,-2.608 -2.496,-2.704 1.152,-0.224 2.144,-1.232 2.144,-2.56 0,-1.504001 -1.296,-2.768001 -3.376,-2.768001 z" />
  </g>
  <rect
     transform="rotate(90)"
     ry="0"
     rx="0"
     y="-185.95673"
     x="124.81944"
     height="23.266291"
     width="21.327433"
     id="rect329"
     style="fill:#d6d6d6;fill-opacity:1;stroke:#000000;stroke-width:1.13385832;stroke-miterlimit:4;stroke-dasharray:none;paint-order:markers fill stroke" />
  <g
     id="text333"
     style="font-style:normal;font-weight:normal;font-size:40px;line-height:1.25;font-family:Mono-serif;letter-spacing:0px;word-spacing:0px;fill:#000000;fill-opacity:1;stroke:none;stroke-width:1.13385832;stroke-miterlimit:4;stroke-dasharray:none;paint-order:markers fill stroke"
     aria-label="5">
    <path
       id="path82"
       style="font-style:normal;font-variant:normal;font-weight:normal;font-stretch:normal;font-size:16px;font-family:'Fira Mono';-inkscape-font-specification:'Fira Mono';stroke-width:1.13385832;stroke-miterlimit:4;stroke-dasharray:none;paint-order:markers fill stroke"
       d="m 177.33826,130.14665 h -5.84 v 5.504 h 1.088 c 0.64,-0.224 1.072,-0.368 1.712,-0.368 1.12,0 2,0.592 2,2.352 0,1.712 -0.864,2.608 -2.32,2.608 -0.944,0 -1.696,-0.336 -2.368,-1.024 l -0.832,0.816 c 0.848,0.816 1.872,1.312 3.2,1.312 2.272,0 3.728,-1.456 3.728,-3.664 0,-2.208 -1.216,-3.456 -3.024,-3.456 -0.656,0 -1.232,0.112 -1.888,0.48 v -3.472 h 4.352 z" />
  </g>
  <rect
     style="fill:none;fill-opacity:1;stroke:#000000;stroke-width:1.13385832;stroke-miterlimit:4;stroke-dasharray:none;paint-order:markers fill stroke"
     id="rect456"
     width="129.008"
     height="192.20265"
     x="38.987976"
     y="-211.66722"
     rx="8.3528042"
     ry="9.7926645"
     transform="rotate(90)" />
  <g
     id="text2470"
     style="font-style:normal;font-weight:normal;font-size:40px;line-height:1.25;font-family:Mono-serif;letter-spacing:0px;word-spacing:0px;fill:#000000;fill-opacity:1;stroke:none;stroke-width:1.13385832;stroke-miterlimit:4;stroke-dasharray:none;paint-order:markers fill stroke"
     aria-label="pmap(args1)">
    <path
       id="path85"
       style="font-style:normal;font-variant:normal;font-weight:normal;font-stretch:normal;font-size:16px;font-family:'Fira Mono';-inkscape-font-specification:'Fira Mono';stroke-width:1.13385832;stroke-miterlimit:4;stroke-dasharray:none;paint-order:markers fill stroke"
       d="m 312.23873,21.313638 c -1.008,0 -1.904,0.496 -2.512,1.36 l -0.112,-1.184 h -1.152 v 11.824 l 1.344,-0.16 v -4.016 c 0.576,0.64 1.312,0.96 2.24,0.96 2.192,0 3.248,-1.84 3.248,-4.4 0,-2.64 -0.816,-4.384 -3.056,-4.384 z m -0.32,1.088 c 1.328,0 1.92,1.104 1.92,3.296 0,2.24 -0.704,3.28 -2.096,3.28 -0.8,0 -1.488,-0.4 -1.936,-1.056 v -4.176 c 0.464,-0.672 1.184,-1.344 2.112,-1.344 z" />
    <path
       id="path87"
       style="font-style:normal;font-variant:normal;font-weight:normal;font-stretch:normal;font-size:16px;font-family:'Fira Mono';-inkscape-font-specification:'Fira Mono';stroke-width:1.13385832;stroke-miterlimit:4;stroke-dasharray:none;paint-order:markers fill stroke"
       d="m 323.60848,21.313638 c -0.848,0 -1.392,0.448 -1.856,1.12 -0.256,-0.864 -0.88,-1.12 -1.52,-1.12 -0.848,0 -1.376,0.512 -1.824,1.168 l -0.096,-0.992 h -1.04 v 8.432 h 1.232 v -6.544 c 0.464,-0.72 0.944,-1.008 1.472,-1.008 0.608,0 0.656,0.432 0.656,1.504 v 6.048 h 1.248 v -6.544 c 0.464,-0.72 0.96,-1.008 1.472,-1.008 0.608,0 0.656,0.432 0.656,1.504 v 6.048 h 1.232 v -6.272 c 0,-1.936 -0.816,-2.336 -1.632,-2.336 z" />
    <path
       id="path89"
       style="font-style:normal;font-variant:normal;font-weight:normal;font-stretch:normal;font-size:16px;font-family:'Fira Mono';-inkscape-font-specification:'Fira Mono';stroke-width:1.13385832;stroke-miterlimit:4;stroke-dasharray:none;paint-order:markers fill stroke"
       d="m 333.69823,28.081638 v -4.048 c 0,-1.664 -1.056,-2.72 -3.152,-2.72 -0.832,0 -1.728,0.16 -2.768,0.528 l 0.368,1.024 c 0.864,-0.304 1.632,-0.432 2.192,-0.432 1.248,0 2,0.448 2,1.68 v 0.688 h -1.248 c -2.544,0 -3.936,0.976 -3.936,2.704 0,1.568 1.024,2.592 2.72,2.592 1.088,0 2.032,-0.4 2.64,-1.184 0.224,0.768 0.816,1.104 1.536,1.2 l 0.336,-0.96 c -0.48,-0.144 -0.688,-0.4 -0.688,-1.072 z m -3.488,1.008 c -1.104,0 -1.616,-0.544 -1.616,-1.6 0,-1.088 0.672,-1.76 2.528,-1.76 h 1.216 v 2.16 c -0.496,0.752 -1.296,1.2 -2.128,1.2 z" />
    <path
       id="path91"
       style="font-style:normal;font-variant:normal;font-weight:normal;font-stretch:normal;font-size:16px;font-family:'Fira Mono';-inkscape-font-specification:'Fira Mono';stroke-width:1.13385832;stroke-miterlimit:4;stroke-dasharray:none;paint-order:markers fill stroke"
       d="m 341.01998,21.313638 c -1.008,0 -1.904,0.496 -2.512,1.36 l -0.112,-1.184 h -1.152 v 11.824 l 1.344,-0.16 v -4.016 c 0.576,0.64 1.312,0.96 2.24,0.96 2.192,0 3.248,-1.84 3.248,-4.4 0,-2.64 -0.816,-4.384 -3.056,-4.384 z m -0.32,1.088 c 1.328,0 1.92,1.104 1.92,3.296 0,2.24 -0.704,3.28 -2.096,3.28 -0.8,0 -1.488,-0.4 -1.936,-1.056 v -4.176 c 0.464,-0.672 1.184,-1.344 2.112,-1.344 z" />
    <path
       id="path93"
       style="font-style:normal;font-variant:normal;font-weight:normal;font-stretch:normal;font-size:16px;font-family:'Fira Mono';-inkscape-font-specification:'Fira Mono';stroke-width:1.13385832;stroke-miterlimit:4;stroke-dasharray:none;paint-order:markers fill stroke"
       d="m 348.64573,24.321638 c 0,-3.36 1.104,-5.056 3.408,-7.104 l -0.688,-0.736 c -2.608,2.128 -4.128,4.192 -4.128,7.84 0,3.648 1.52,5.712 4.128,7.84 l 0.688,-0.736 c -2.272,-2.032 -3.408,-3.76 -3.408,-7.104 z" />
    <path
       id="path95"
       style="font-style:normal;font-variant:normal;font-weight:normal;font-stretch:normal;font-size:16px;font-family:'Fira Mono';-inkscape-font-specification:'Fira Mono';stroke-width:1.13385832;stroke-miterlimit:4;stroke-dasharray:none;paint-order:markers fill stroke"
       d="m 362.47948,28.081638 v -4.048 c 0,-1.664 -1.056,-2.72 -3.152,-2.72 -0.832,0 -1.728,0.16 -2.768,0.528 l 0.368,1.024 c 0.864,-0.304 1.632,-0.432 2.192,-0.432 1.248,0 2,0.448 2,1.68 v 0.688 h -1.248 c -2.544,0 -3.936,0.976 -3.936,2.704 0,1.568 1.024,2.592 2.72,2.592 1.088,0 2.032,-0.4 2.64,-1.184 0.224,0.768 0.816,1.104 1.536,1.2 l 0.336,-0.96 c -0.48,-0.144 -0.688,-0.4 -0.688,-1.072 z m -3.488,1.008 c -1.104,0 -1.616,-0.544 -1.616,-1.6 0,-1.088 0.672,-1.76 2.528,-1.76 h 1.216 v 2.16 c -0.496,0.752 -1.296,1.2 -2.128,1.2 z" />
    <path
       id="path97"
       style="font-style:normal;font-variant:normal;font-weight:normal;font-stretch:normal;font-size:16px;font-family:'Fira Mono';-inkscape-font-specification:'Fira Mono';stroke-width:1.13385832;stroke-miterlimit:4;stroke-dasharray:none;paint-order:markers fill stroke"
       d="m 371.72123,21.313638 c -1.52,0 -2.384,0.8 -3.024,2.176 l -0.256,-2 h -2.336 v 1.04 h 1.328 v 6.352 h -1.328 v 1.04 h 4.384 v -1.04 h -1.712 v -3.552 c 0.544,-1.856 1.472,-2.784 2.768,-2.784 h 0.08 v 1.808 h 1.088 l 0.192,-2.864 c -0.368,-0.096 -0.72,-0.176 -1.184,-0.176 z" />
    <path
       id="path99"
       style="font-style:normal;font-variant:normal;font-weight:normal;font-stretch:normal;font-size:16px;font-family:'Fira Mono';-inkscape-font-specification:'Fira Mono';stroke-width:1.13385832;stroke-miterlimit:4;stroke-dasharray:none;paint-order:markers fill stroke"
       d="m 382.48298,20.609638 c -0.992,0.416 -1.728,0.704 -3.84,0.704 -2,0 -3.36,1.216 -3.36,2.928 0,1.088 0.448,1.824 1.408,2.32 -0.608,0.4 -0.928,0.944 -0.928,1.472 0,0.848 0.656,1.6 2.128,1.6 h 1.504 c 1.072,0 1.888,0.4 1.888,1.2 0,0.912 -0.816,1.392 -2.656,1.392 -1.888,0 -2.336,-0.464 -2.336,-1.456 h -1.216 c 0,1.712 0.864,2.544 3.552,2.544 2.56,0 4.016,-0.912 4.016,-2.56 0,-1.312 -1.28,-2.288 -2.976,-2.288 h -1.52 c -0.864,0 -1.12,-0.32 -1.12,-0.72 0,-0.304 0.192,-0.624 0.432,-0.816 0.368,0.128 0.704,0.176 1.264,0.176 2,0 3.168,-1.2 3.168,-2.864 0,-0.96 -0.48,-1.68 -1.472,-2.128 0.944,0 1.76,-0.016 2.464,-0.24 z m -3.856,1.696 c 1.248,0 1.872,0.656 1.872,1.92 0,1.248 -0.64,1.984 -1.84,1.984 -1.376,0 -2,-0.816 -2,-1.968 0,-1.136 0.608,-1.936 1.968,-1.936 z" />
    <path
       id="path101"
       style="font-style:normal;font-variant:normal;font-weight:normal;font-stretch:normal;font-size:16px;font-family:'Fira Mono';-inkscape-font-specification:'Fira Mono';stroke-width:1.13385832;stroke-miterlimit:4;stroke-dasharray:none;paint-order:markers fill stroke"
       d="m 388.09273,28.993638 c -0.992,0 -1.888,-0.368 -2.544,-0.912 l -0.752,0.88 c 0.72,0.624 1.76,1.136 3.296,1.136 1.792,0 3.536,-0.704 3.536,-2.512 0,-1.568 -1.088,-2.144 -2.736,-2.592 -1.696,-0.464 -2.224,-0.72 -2.224,-1.488 0,-0.64 0.48,-1.104 1.824,-1.104 1.088,0 1.808,0.336 2.432,0.768 l 0.608,-0.928 c -0.72,-0.512 -1.712,-0.928 -3.072,-0.928 -1.904,0 -3.2,0.896 -3.2,2.304 0,1.472 1.136,2 2.88,2.432 1.792,0.448 2.032,0.848 2.032,1.6 0,0.816 -0.784,1.344 -2.08,1.344 z" />
    <path
       id="path103"
       style="font-style:normal;font-variant:normal;font-weight:normal;font-stretch:normal;font-size:16px;font-family:'Fira Mono';-inkscape-font-specification:'Fira Mono';stroke-width:1.13385832;stroke-miterlimit:4;stroke-dasharray:none;paint-order:markers fill stroke"
       d="m 399.19048,28.833638 v -9.936 h -1.184 l -3.28,2.048 0.592,0.944 2.512,-1.52 v 8.464 h -2.704 v 1.088 h 6.352 v -1.088 z" />
    <path
       id="path105"
       style="font-style:normal;font-variant:normal;font-weight:normal;font-stretch:normal;font-size:16px;font-family:'Fira Mono';-inkscape-font-specification:'Fira Mono';stroke-width:1.13385832;stroke-miterlimit:4;stroke-dasharray:none;paint-order:markers fill stroke"
       d="m 408.99223,24.321638 c 0,3.344 -1.136,5.072 -3.408,7.104 l 0.688,0.736 c 2.608,-2.128 4.128,-4.192 4.128,-7.84 0,-3.648 -1.52,-5.712 -4.128,-7.84 l -0.688,0.736 c 2.304,2.048 3.408,3.744 3.408,7.104 z" />
  </g>
  <rect
     transform="rotate(90)"
     style="fill:#ebebeb;fill-opacity:1;stroke:#000000;stroke-width:1.13399994;stroke-miterlimit:4;stroke-dasharray:none;paint-order:markers fill stroke"
     id="rect2472"
     width="21.327433"
     height="208.12978"
     x="61.295212"
     y="-463.49637"
     rx="0"
     ry="0" />
  <g
     id="text2476"
     style="font-style:normal;font-weight:normal;font-size:40px;line-height:1.25;font-family:Mono-serif;letter-spacing:0px;word-spacing:0px;fill:#000000;fill-opacity:1;stroke:none;stroke-width:1.13385832;stroke-miterlimit:4;stroke-dasharray:none;paint-order:markers fill stroke"
     aria-label="rnorm(5, 1, n = 1)">
    <path
       id="path108"
       style="font-style:normal;font-variant:normal;font-weight:normal;font-stretch:normal;font-size:16px;font-family:'Fira Mono';-inkscape-font-specification:'Fira Mono';stroke-width:1.13385832;stroke-miterlimit:4;stroke-dasharray:none;paint-order:markers fill stroke"
       d="m 280.5406,68.960291 c -1.52,0 -2.384,0.8 -3.024,2.176 l -0.256,-2 h -2.336 v 1.04 h 1.328 v 6.352 h -1.328 v 1.04 h 4.384 v -1.04 h -1.712 v -3.552 c 0.544,-1.856 1.472,-2.784 2.768,-2.784 h 0.08 v 1.808 h 1.088 l 0.192,-2.864 c -0.368,-0.096 -0.72,-0.176 -1.184,-0.176 z" />
    <path
       id="path110"
       style="font-style:normal;font-variant:normal;font-weight:normal;font-stretch:normal;font-size:16px;font-family:'Fira Mono';-inkscape-font-specification:'Fira Mono';stroke-width:1.13385832;stroke-miterlimit:4;stroke-dasharray:none;paint-order:markers fill stroke"
       d="m 284.43835,77.568291 h 1.344 v -6.128 c 0.448,-0.672 1.296,-1.408 2.288,-1.408 1.264,0 1.44,0.688 1.44,2.416 v 5.12 h 1.344 v -6.112 c 0,-1.568 -0.72,-2.496 -2.368,-2.496 -0.992,0 -2.112,0.496 -2.784,1.36 l -0.112,-1.184 h -1.152 z" />
    <path
       id="path112"
       style="font-style:normal;font-variant:normal;font-weight:normal;font-stretch:normal;font-size:16px;font-family:'Fira Mono';-inkscape-font-specification:'Fira Mono';stroke-width:1.13385832;stroke-miterlimit:4;stroke-dasharray:none;paint-order:markers fill stroke"
       d="m 297.2481,68.960291 c -2.368,0 -3.648,1.808 -3.648,4.4 0,2.656 1.264,4.384 3.632,4.384 2.352,0 3.632,-1.808 3.632,-4.4 0,-2.656 -1.248,-4.384 -3.616,-4.384 z m 0,1.104 c 1.44,0 2.16,1.056 2.16,3.28 0,2.256 -0.72,3.296 -2.176,3.296 -1.456,0 -2.176,-1.04 -2.176,-3.28 0,-2.24 0.736,-3.296 2.192,-3.296 z" />
    <path
       id="path114"
       style="font-style:normal;font-variant:normal;font-weight:normal;font-stretch:normal;font-size:16px;font-family:'Fira Mono';-inkscape-font-specification:'Fira Mono';stroke-width:1.13385832;stroke-miterlimit:4;stroke-dasharray:none;paint-order:markers fill stroke"
       d="m 309.32185,68.960291 c -1.52,0 -2.384,0.8 -3.024,2.176 l -0.256,-2 h -2.336 v 1.04 h 1.328 v 6.352 h -1.328 v 1.04 h 4.384 v -1.04 h -1.712 v -3.552 c 0.544,-1.856 1.472,-2.784 2.768,-2.784 h 0.08 v 1.808 h 1.088 l 0.192,-2.864 c -0.368,-0.096 -0.72,-0.176 -1.184,-0.176 z" />
    <path
       id="path116"
       style="font-style:normal;font-variant:normal;font-weight:normal;font-stretch:normal;font-size:16px;font-family:'Fira Mono';-inkscape-font-specification:'Fira Mono';stroke-width:1.13385832;stroke-miterlimit:4;stroke-dasharray:none;paint-order:markers fill stroke"
       d="m 318.7716,68.960291 c -0.848,0 -1.392,0.448 -1.856,1.12 -0.256,-0.864 -0.88,-1.12 -1.52,-1.12 -0.848,0 -1.376,0.512 -1.824,1.168 l -0.096,-0.992 h -1.04 v 8.432 h 1.232 v -6.544 c 0.464,-0.72 0.944,-1.008 1.472,-1.008 0.608,0 0.656,0.432 0.656,1.504 v 6.048 h 1.248 v -6.544 c 0.464,-0.72 0.96,-1.008 1.472,-1.008 0.608,0 0.656,0.432 0.656,1.504 v 6.048 h 1.232 v -6.272 c 0,-1.936 -0.816,-2.336 -1.632,-2.336 z" />
    <path
       id="path118"
       style="font-style:normal;font-variant:normal;font-weight:normal;font-stretch:normal;font-size:16px;font-family:'Fira Mono';-inkscape-font-specification:'Fira Mono';stroke-width:1.13385832;stroke-miterlimit:4;stroke-dasharray:none;paint-order:markers fill stroke"
       d="m 324.62135,71.968291 c 0,-3.36 1.104,-5.056 3.408,-7.104 l -0.688,-0.736 c -2.608,2.128 -4.128,4.192 -4.128,7.84 0,3.648 1.52,5.712 4.128,7.84 l 0.688,-0.736 c -2.272,-2.032 -3.408,-3.76 -3.408,-7.104 z" />
    <path
       id="path120"
       style="font-style:normal;font-variant:normal;font-weight:normal;font-stretch:normal;font-size:16px;font-family:'Fira Mono';-inkscape-font-specification:'Fira Mono';stroke-width:1.13385832;stroke-miterlimit:4;stroke-dasharray:none;paint-order:markers fill stroke"
       d="m 338.5991,66.544291 h -5.84 v 5.504 h 1.088 c 0.64,-0.224 1.072,-0.368 1.712,-0.368 1.12,0 2,0.592 2,2.352 0,1.712 -0.864,2.608 -2.32,2.608 -0.944,0 -1.696,-0.336 -2.368,-1.024 l -0.832,0.816 c 0.848,0.816 1.872,1.312 3.2,1.312 2.272,0 3.728,-1.456 3.728,-3.664 0,-2.208 -1.216,-3.456 -3.024,-3.456 -0.656,0 -1.232,0.112 -1.888,0.48 v -3.472 h 4.352 z" />
    <path
       id="path122"
       style="font-style:normal;font-variant:normal;font-weight:normal;font-stretch:normal;font-size:16px;font-family:'Fira Mono';-inkscape-font-specification:'Fira Mono';stroke-width:1.13385832;stroke-miterlimit:4;stroke-dasharray:none;paint-order:markers fill stroke"
       d="m 345.20085,74.928291 c -0.72,0 -1.28,0.576 -1.28,1.296 0,0.416 0.208,0.832 0.512,1.056 l -0.752,3.152 h 1.216 l 1.296,-2.96 c 0.224,-0.496 0.304,-0.864 0.304,-1.264 0,-0.704 -0.56,-1.28 -1.296,-1.28 z" />
    <path
       id="path124"
       style="font-style:normal;font-variant:normal;font-weight:normal;font-stretch:normal;font-size:16px;font-family:'Fira Mono';-inkscape-font-specification:'Fira Mono';stroke-width:1.13385832;stroke-miterlimit:4;stroke-dasharray:none;paint-order:markers fill stroke"
       d="m 365.57235,76.480291 v -9.936 h -1.184 l -3.28,2.048 0.592,0.944 2.512,-1.52 v 8.464 h -2.704 v 1.088 h 6.352 v -1.088 z" />
    <path
       id="path126"
       style="font-style:normal;font-variant:normal;font-weight:normal;font-stretch:normal;font-size:16px;font-family:'Fira Mono';-inkscape-font-specification:'Fira Mono';stroke-width:1.13385832;stroke-miterlimit:4;stroke-dasharray:none;paint-order:markers fill stroke"
       d="m 373.9821,74.928291 c -0.72,0 -1.28,0.576 -1.28,1.296 0,0.416 0.208,0.832 0.512,1.056 l -0.752,3.152 h 1.216 l 1.296,-2.96 c 0.224,-0.496 0.304,-0.864 0.304,-1.264 0,-0.704 -0.56,-1.28 -1.296,-1.28 z" />
    <path
       id="path128"
       style="font-style:normal;font-variant:normal;font-weight:normal;font-stretch:normal;font-size:16px;font-family:'Fira Mono';-inkscape-font-specification:'Fira Mono';stroke-width:1.13385832;stroke-miterlimit:4;stroke-dasharray:none;paint-order:markers fill stroke"
       d="m 389.9696,77.568291 h 1.344 v -6.128 c 0.448,-0.672 1.296,-1.408 2.288,-1.408 1.264,0 1.44,0.688 1.44,2.416 v 5.12 h 1.344 v -6.112 c 0,-1.568 -0.72,-2.496 -2.368,-2.496 -0.992,0 -2.112,0.496 -2.784,1.36 l -0.112,-1.184 h -1.152 z" />
    <path
       id="path130"
       style="font-style:normal;font-variant:normal;font-weight:normal;font-stretch:normal;font-size:16px;font-family:'Fira Mono';-inkscape-font-specification:'Fira Mono';stroke-width:1.13385832;stroke-miterlimit:4;stroke-dasharray:none;paint-order:markers fill stroke"
       d="m 415.4611,70.496291 h -6.208 v 1.152 h 6.208 z m 0,3.04 h -6.208 v 1.152 h 6.208 z" />
    <path
       id="path132"
       style="font-style:normal;font-variant:normal;font-weight:normal;font-stretch:normal;font-size:16px;font-family:'Fira Mono';-inkscape-font-specification:'Fira Mono';stroke-width:1.13385832;stroke-miterlimit:4;stroke-dasharray:none;paint-order:markers fill stroke"
       d="m 432.7286,76.480291 v -9.936 h -1.184 l -3.28,2.048 0.592,0.944 2.512,-1.52 v 8.464 h -2.704 v 1.088 h 6.352 v -1.088 z" />
    <path
       id="path134"
       style="font-style:normal;font-variant:normal;font-weight:normal;font-stretch:normal;font-size:16px;font-family:'Fira Mono';-inkscape-font-specification:'Fira Mono';stroke-width:1.13385832;stroke-miterlimit:4;stroke-dasharray:none;paint-order:markers fill stroke"
       d="m 442.53035,71.968291 c 0,3.344 -1.136,5.072 -3.408,7.104 l 0.688,0.736 c 2.608,-2.128 4.128,-4.192 4.128,-7.84 0,-3.648 -1.52,-5.712 -4.128,-7.84 l -0.688,0.736 c 2.304,2.048 3.408,3.744 3.408,7.104 z" />
  </g>
  <rect
     transform="rotate(90)"
     style="fill:#ebebeb;fill-opacity:1;stroke:#000000;stroke-width:1.13399994;stroke-miterlimit:4;stroke-dasharray:none;paint-order:markers fill stroke"
     id="rect2478"
     width="21.327433"
     height="208.12976"
     x="93.286369"
     y="-463.49637"
     rx="0"
     ry="0" />
  <g
     id="text2482"
     style="font-style:normal;font-weight:normal;font-size:40px;line-height:1.25;font-family:Mono-serif;letter-spacing:0px;word-spacing:0px;fill:#000000;fill-opacity:1;stroke:none;stroke-width:1.13385832;stroke-miterlimit:4;stroke-dasharray:none;paint-order:markers fill stroke"
     aria-label="rnorm(10, 5, n = 3)">
    <path
       id="path137"
       style="font-style:normal;font-variant:normal;font-weight:normal;font-stretch:normal;font-size:16px;font-family:'Fira Mono';-inkscape-font-specification:'Fira Mono';stroke-width:1.13385832;stroke-miterlimit:4;stroke-dasharray:none;paint-order:markers fill stroke"
       d="m 275.74372,101.02957 c -1.52,0 -2.384,0.8 -3.024,2.176 l -0.256,-2 h -2.336 v 1.04 h 1.328 v 6.352 h -1.328 v 1.04 h 4.384 v -1.04 h -1.712 v -3.552 c 0.544,-1.856 1.472,-2.784 2.768,-2.784 h 0.08 v 1.808 h 1.088 l 0.192,-2.864 c -0.368,-0.096 -0.72,-0.176 -1.184,-0.176 z" />
    <path
       id="path139"
       style="font-style:normal;font-variant:normal;font-weight:normal;font-stretch:normal;font-size:16px;font-family:'Fira Mono';-inkscape-font-specification:'Fira Mono';stroke-width:1.13385832;stroke-miterlimit:4;stroke-dasharray:none;paint-order:markers fill stroke"
       d="m 279.64147,109.63757 h 1.344 v -6.128 c 0.448,-0.672 1.296,-1.408 2.288,-1.408 1.264,0 1.44,0.688 1.44,2.416 v 5.12 h 1.344 v -6.112 c 0,-1.568 -0.72,-2.496 -2.368,-2.496 -0.992,0 -2.112,0.496 -2.784,1.36 l -0.112,-1.184 h -1.152 z" />
    <path
       id="path141"
       style="font-style:normal;font-variant:normal;font-weight:normal;font-stretch:normal;font-size:16px;font-family:'Fira Mono';-inkscape-font-specification:'Fira Mono';stroke-width:1.13385832;stroke-miterlimit:4;stroke-dasharray:none;paint-order:markers fill stroke"
       d="m 292.45122,101.02957 c -2.368,0 -3.648,1.808 -3.648,4.4 0,2.656 1.264,4.384 3.632,4.384 2.352,0 3.632,-1.808 3.632,-4.4 0,-2.656 -1.248,-4.384 -3.616,-4.384 z m 0,1.104 c 1.44,0 2.16,1.056 2.16,3.28 0,2.256 -0.72,3.296 -2.176,3.296 -1.456,0 -2.176,-1.04 -2.176,-3.28 0,-2.24 0.736,-3.296 2.192,-3.296 z" />
    <path
       id="path143"
       style="font-style:normal;font-variant:normal;font-weight:normal;font-stretch:normal;font-size:16px;font-family:'Fira Mono';-inkscape-font-specification:'Fira Mono';stroke-width:1.13385832;stroke-miterlimit:4;stroke-dasharray:none;paint-order:markers fill stroke"
       d="m 304.52497,101.02957 c -1.52,0 -2.384,0.8 -3.024,2.176 l -0.256,-2 h -2.336 v 1.04 h 1.328 v 6.352 h -1.328 v 1.04 h 4.384 v -1.04 h -1.712 v -3.552 c 0.544,-1.856 1.472,-2.784 2.768,-2.784 h 0.08 v 1.808 h 1.088 l 0.192,-2.864 c -0.368,-0.096 -0.72,-0.176 -1.184,-0.176 z" />
    <path
       id="path145"
       style="font-style:normal;font-variant:normal;font-weight:normal;font-stretch:normal;font-size:16px;font-family:'Fira Mono';-inkscape-font-specification:'Fira Mono';stroke-width:1.13385832;stroke-miterlimit:4;stroke-dasharray:none;paint-order:markers fill stroke"
       d="m 313.97472,101.02957 c -0.848,0 -1.392,0.448 -1.856,1.12 -0.256,-0.864 -0.88,-1.12 -1.52,-1.12 -0.848,0 -1.376,0.512 -1.824,1.168 l -0.096,-0.992 h -1.04 v 8.432 h 1.232 v -6.544 c 0.464,-0.72 0.944,-1.008 1.472,-1.008 0.608,0 0.656,0.432 0.656,1.504 v 6.048 h 1.248 v -6.544 c 0.464,-0.72 0.96,-1.008 1.472,-1.008 0.608,0 0.656,0.432 0.656,1.504 v 6.048 h 1.232 v -6.272 c 0,-1.936 -0.816,-2.336 -1.632,-2.336 z" />
    <path
       id="path147"
       style="font-style:normal;font-variant:normal;font-weight:normal;font-stretch:normal;font-size:16px;font-family:'Fira Mono';-inkscape-font-specification:'Fira Mono';stroke-width:1.13385832;stroke-miterlimit:4;stroke-dasharray:none;paint-order:markers fill stroke"
       d="m 319.82447,104.03757 c 0,-3.36 1.104,-5.055997 3.408,-7.103997 l -0.688,-0.736 c -2.608,2.128 -4.128,4.191997 -4.128,7.839997 0,3.648 1.52,5.712 4.128,7.84 l 0.688,-0.736 c -2.272,-2.032 -3.408,-3.76 -3.408,-7.104 z" />
    <path
       id="path149"
       style="font-style:normal;font-variant:normal;font-weight:normal;font-stretch:normal;font-size:16px;font-family:'Fira Mono';-inkscape-font-specification:'Fira Mono';stroke-width:1.13385832;stroke-miterlimit:4;stroke-dasharray:none;paint-order:markers fill stroke"
       d="m 331.99422,108.54957 v -9.935997 h -1.184 l -3.28,2.047997 0.592,0.944 2.512,-1.52 v 8.464 h -2.704 v 1.088 h 6.352 v -1.088 z" />
    <path
       id="path151"
       style="font-style:normal;font-variant:normal;font-weight:normal;font-stretch:normal;font-size:16px;font-family:'Fira Mono';-inkscape-font-specification:'Fira Mono';stroke-width:1.13385832;stroke-miterlimit:4;stroke-dasharray:none;paint-order:markers fill stroke"
       d="m 340.40397,98.437573 c -2.368,0 -3.6,2.031997 -3.6,5.679997 0,3.664 1.232,5.696 3.6,5.696 2.368,0 3.6,-2.032 3.6,-5.696 0,-3.648 -1.232,-5.679997 -3.6,-5.679997 z m 0,1.088 c 1.376,0 2.192,1.343997 2.192,4.591997 0,3.264 -0.816,4.608 -2.192,4.608 -1.36,0 -2.192,-1.344 -2.192,-4.608 0,-3.248 0.832,-4.591997 2.192,-4.591997 z m 0,3.551997 c -0.592,0 -1.04,0.464 -1.04,1.04 0,0.592 0.448,1.056 1.04,1.056 0.608,0 1.056,-0.464 1.056,-1.056 0,-0.576 -0.448,-1.04 -1.056,-1.04 z" />
    <path
       id="path153"
       style="font-style:normal;font-variant:normal;font-weight:normal;font-stretch:normal;font-size:16px;font-family:'Fira Mono';-inkscape-font-specification:'Fira Mono';stroke-width:1.13385832;stroke-miterlimit:4;stroke-dasharray:none;paint-order:markers fill stroke"
       d="m 349.99772,106.99757 c -0.72,0 -1.28,0.576 -1.28,1.296 0,0.416 0.208,0.832 0.512,1.056 l -0.752,3.152 h 1.216 l 1.296,-2.96 c 0.224,-0.496 0.304,-0.864 0.304,-1.264 0,-0.704 -0.56,-1.28 -1.296,-1.28 z" />
    <path
       id="path155"
       style="font-style:normal;font-variant:normal;font-weight:normal;font-stretch:normal;font-size:16px;font-family:'Fira Mono';-inkscape-font-specification:'Fira Mono';stroke-width:1.13385832;stroke-miterlimit:4;stroke-dasharray:none;paint-order:markers fill stroke"
       d="m 372.17722,98.613573 h -5.84 v 5.503997 h 1.088 c 0.64,-0.224 1.072,-0.368 1.712,-0.368 1.12,0 2,0.592 2,2.352 0,1.712 -0.864,2.608 -2.32,2.608 -0.944,0 -1.696,-0.336 -2.368,-1.024 l -0.832,0.816 c 0.848,0.816 1.872,1.312 3.2,1.312 2.272,0 3.728,-1.456 3.728,-3.664 0,-2.208 -1.216,-3.456 -3.024,-3.456 -0.656,0 -1.232,0.112 -1.888,0.48 v -3.471997 h 4.352 z" />
    <path
       id="path157"
       style="font-style:normal;font-variant:normal;font-weight:normal;font-stretch:normal;font-size:16px;font-family:'Fira Mono';-inkscape-font-specification:'Fira Mono';stroke-width:1.13385832;stroke-miterlimit:4;stroke-dasharray:none;paint-order:markers fill stroke"
       d="m 378.77897,106.99757 c -0.72,0 -1.28,0.576 -1.28,1.296 0,0.416 0.208,0.832 0.512,1.056 l -0.752,3.152 h 1.216 l 1.296,-2.96 c 0.224,-0.496 0.304,-0.864 0.304,-1.264 0,-0.704 -0.56,-1.28 -1.296,-1.28 z" />
    <path
       id="path159"
       style="font-style:normal;font-variant:normal;font-weight:normal;font-stretch:normal;font-size:16px;font-family:'Fira Mono';-inkscape-font-specification:'Fira Mono';stroke-width:1.13385832;stroke-miterlimit:4;stroke-dasharray:none;paint-order:markers fill stroke"
       d="m 394.76647,109.63757 h 1.344 v -6.128 c 0.448,-0.672 1.296,-1.408 2.288,-1.408 1.264,0 1.44,0.688 1.44,2.416 v 5.12 h 1.344 v -6.112 c 0,-1.568 -0.72,-2.496 -2.368,-2.496 -0.992,0 -2.112,0.496 -2.784,1.36 l -0.112,-1.184 h -1.152 z" />
    <path
       id="path161"
       style="font-style:normal;font-variant:normal;font-weight:normal;font-stretch:normal;font-size:16px;font-family:'Fira Mono';-inkscape-font-specification:'Fira Mono';stroke-width:1.13385832;stroke-miterlimit:4;stroke-dasharray:none;paint-order:markers fill stroke"
       d="m 420.25797,102.56557 h -6.208 v 1.152 h 6.208 z m 0,3.04 h -6.208 v 1.152 h 6.208 z" />
    <path
       id="path163"
       style="font-style:normal;font-variant:normal;font-weight:normal;font-stretch:normal;font-size:16px;font-family:'Fira Mono';-inkscape-font-specification:'Fira Mono';stroke-width:1.13385832;stroke-miterlimit:4;stroke-dasharray:none;paint-order:markers fill stroke"
       d="m 435.84547,98.437573 c -1.136,0 -2.192,0.384 -3.136,1.28 l 0.736,0.815997 c 0.736,-0.671997 1.392,-1.007997 2.336,-1.007997 1.168,0 2.08,0.655997 2.08,1.855997 0,1.328 -1.024,1.92 -2.08,1.92 h -0.656 l -0.16,1.072 h 0.912 c 1.312,0 2.288,0.512 2.288,2.096 0,1.376 -0.912,2.24 -2.448,2.24 -0.896,0 -1.824,-0.352 -2.448,-1.088 l -0.896,0.736 c 0.832,1.008 2.144,1.456 3.376,1.456 2.288,0 3.824,-1.44 3.824,-3.344 0,-1.712 -1.216,-2.608 -2.496,-2.704 1.152,-0.224 2.144,-1.232 2.144,-2.56 0,-1.503997 -1.296,-2.767997 -3.376,-2.767997 z" />
    <path
       id="path165"
       style="font-style:normal;font-variant:normal;font-weight:normal;font-stretch:normal;font-size:16px;font-family:'Fira Mono';-inkscape-font-specification:'Fira Mono';stroke-width:1.13385832;stroke-miterlimit:4;stroke-dasharray:none;paint-order:markers fill stroke"
       d="m 447.32722,104.03757 c 0,3.344 -1.136,5.072 -3.408,7.104 l 0.688,0.736 c 2.608,-2.128 4.128,-4.192 4.128,-7.84 0,-3.648 -1.52,-5.711997 -4.128,-7.839997 l -0.688,0.736 c 2.304,2.048 3.408,3.743997 3.408,7.103997 z" />
  </g>
  <rect
     transform="rotate(90)"
     ry="0"
     rx="0"
     y="-463.49637"
     x="125.27754"
     height="208.12976"
     width="21.327433"
     id="rect2484"
     style="fill:#ebebeb;fill-opacity:1;stroke:#000000;stroke-width:1.13399994;stroke-miterlimit:4;stroke-dasharray:none;paint-order:markers fill stroke" />
  <g
     id="text2488"
     style="font-style:normal;font-weight:normal;font-size:40px;line-height:1.25;font-family:Mono-serif;letter-spacing:0px;word-spacing:0px;fill:#000000;fill-opacity:1;stroke:none;stroke-width:1.13385832;stroke-miterlimit:4;stroke-dasharray:none;paint-order:markers fill stroke"
     aria-label="rnorm(-3, 10, n = 5)">
    <path
       id="path168"
       style="font-style:normal;font-variant:normal;font-weight:normal;font-stretch:normal;font-size:16px;font-family:'Fira Mono';-inkscape-font-specification:'Fira Mono';stroke-width:1.13385832;stroke-miterlimit:4;stroke-dasharray:none;paint-order:markers fill stroke"
       d="m 270.94685,133.02075 c -1.52,0 -2.384,0.8 -3.024,2.176 l -0.256,-2 h -2.336 v 1.04 h 1.328 v 6.352 h -1.328 v 1.04 h 4.384 v -1.04 h -1.712 v -3.552 c 0.544,-1.856 1.472,-2.784 2.768,-2.784 h 0.08 v 1.808 h 1.088 l 0.192,-2.864 c -0.368,-0.096 -0.72,-0.176 -1.184,-0.176 z" />
    <path
       id="path170"
       style="font-style:normal;font-variant:normal;font-weight:normal;font-stretch:normal;font-size:16px;font-family:'Fira Mono';-inkscape-font-specification:'Fira Mono';stroke-width:1.13385832;stroke-miterlimit:4;stroke-dasharray:none;paint-order:markers fill stroke"
       d="m 274.8446,141.62875 h 1.344 v -6.128 c 0.448,-0.672 1.296,-1.408 2.288,-1.408 1.264,0 1.44,0.688 1.44,2.416 v 5.12 h 1.344 v -6.112 c 0,-1.568 -0.72,-2.496 -2.368,-2.496 -0.992,0 -2.112,0.496 -2.784,1.36 l -0.112,-1.184 h -1.152 z" />
    <path
       id="path172"
       style="font-style:normal;font-variant:normal;font-weight:normal;font-stretch:normal;font-size:16px;font-family:'Fira Mono';-inkscape-font-specification:'Fira Mono';stroke-width:1.13385832;stroke-miterlimit:4;stroke-dasharray:none;paint-order:markers fill stroke"
       d="m 287.65435,133.02075 c -2.368,0 -3.648,1.808 -3.648,4.4 0,2.656 1.264,4.384 3.632,4.384 2.352,0 3.632,-1.808 3.632,-4.4 0,-2.656 -1.248,-4.384 -3.616,-4.384 z m 0,1.104 c 1.44,0 2.16,1.056 2.16,3.28 0,2.256 -0.72,3.296 -2.176,3.296 -1.456,0 -2.176,-1.04 -2.176,-3.28 0,-2.24 0.736,-3.296 2.192,-3.296 z" />
    <path
       id="path174"
       style="font-style:normal;font-variant:normal;font-weight:normal;font-stretch:normal;font-size:16px;font-family:'Fira Mono';-inkscape-font-specification:'Fira Mono';stroke-width:1.13385832;stroke-miterlimit:4;stroke-dasharray:none;paint-order:markers fill stroke"
       d="m 299.7281,133.02075 c -1.52,0 -2.384,0.8 -3.024,2.176 l -0.256,-2 h -2.336 v 1.04 h 1.328 v 6.352 h -1.328 v 1.04 h 4.384 v -1.04 h -1.712 v -3.552 c 0.544,-1.856 1.472,-2.784 2.768,-2.784 h 0.08 v 1.808 h 1.088 l 0.192,-2.864 c -0.368,-0.096 -0.72,-0.176 -1.184,-0.176 z" />
    <path
       id="path176"
       style="font-style:normal;font-variant:normal;font-weight:normal;font-stretch:normal;font-size:16px;font-family:'Fira Mono';-inkscape-font-specification:'Fira Mono';stroke-width:1.13385832;stroke-miterlimit:4;stroke-dasharray:none;paint-order:markers fill stroke"
       d="m 309.17785,133.02075 c -0.848,0 -1.392,0.448 -1.856,1.12 -0.256,-0.864 -0.88,-1.12 -1.52,-1.12 -0.848,0 -1.376,0.512 -1.824,1.168 l -0.096,-0.992 h -1.04 v 8.432 h 1.232 v -6.544 c 0.464,-0.72 0.944,-1.008 1.472,-1.008 0.608,0 0.656,0.432 0.656,1.504 v 6.048 h 1.248 v -6.544 c 0.464,-0.72 0.96,-1.008 1.472,-1.008 0.608,0 0.656,0.432 0.656,1.504 v 6.048 h 1.232 v -6.272 c 0,-1.936 -0.816,-2.336 -1.632,-2.336 z" />
    <path
       id="path178"
       style="font-style:normal;font-variant:normal;font-weight:normal;font-stretch:normal;font-size:16px;font-family:'Fira Mono';-inkscape-font-specification:'Fira Mono';stroke-width:1.13385832;stroke-miterlimit:4;stroke-dasharray:none;paint-order:markers fill stroke"
       d="m 315.0276,136.02875 c 0,-3.36 1.104,-5.056 3.408,-7.104 l -0.688,-0.736 c -2.608,2.128 -4.128,4.192 -4.128,7.84 0,3.648 1.52,5.712 4.128,7.84 l 0.688,-0.736 c -2.272,-2.032 -3.408,-3.76 -3.408,-7.104 z" />
    <path
       id="path180"
       style="font-style:normal;font-variant:normal;font-weight:normal;font-stretch:normal;font-size:16px;font-family:'Fira Mono';-inkscape-font-specification:'Fira Mono';stroke-width:1.13385832;stroke-miterlimit:4;stroke-dasharray:none;paint-order:markers fill stroke"
       d="m 323.21335,137.19675 h 5.6 v -1.152 h -5.6 z" />
    <path
       id="path182"
       style="font-style:normal;font-variant:normal;font-weight:normal;font-stretch:normal;font-size:16px;font-family:'Fira Mono';-inkscape-font-specification:'Fira Mono';stroke-width:1.13385832;stroke-miterlimit:4;stroke-dasharray:none;paint-order:markers fill stroke"
       d="m 335.1111,130.42875 c -1.136,0 -2.192,0.384 -3.136,1.28 l 0.736,0.816 c 0.736,-0.672 1.392,-1.008 2.336,-1.008 1.168,0 2.08,0.656 2.08,1.856 0,1.328 -1.024,1.92 -2.08,1.92 h -0.656 l -0.16,1.072 h 0.912 c 1.312,0 2.288,0.512 2.288,2.096 0,1.376 -0.912,2.24 -2.448,2.24 -0.896,0 -1.824,-0.352 -2.448,-1.088 l -0.896,0.736 c 0.832,1.008 2.144,1.456 3.376,1.456 2.288,0 3.824,-1.44 3.824,-3.344 0,-1.712 -1.216,-2.608 -2.496,-2.704 1.152,-0.224 2.144,-1.232 2.144,-2.56 0,-1.504 -1.296,-2.768 -3.376,-2.768 z" />
    <path
       id="path184"
       style="font-style:normal;font-variant:normal;font-weight:normal;font-stretch:normal;font-size:16px;font-family:'Fira Mono';-inkscape-font-specification:'Fira Mono';stroke-width:1.13385832;stroke-miterlimit:4;stroke-dasharray:none;paint-order:markers fill stroke"
       d="m 345.20085,138.98875 c -0.72,0 -1.28,0.576 -1.28,1.296 0,0.416 0.208,0.832 0.512,1.056 l -0.752,3.152 h 1.216 l 1.296,-2.96 c 0.224,-0.496 0.304,-0.864 0.304,-1.264 0,-0.704 -0.56,-1.28 -1.296,-1.28 z" />
    <path
       id="path186"
       style="font-style:normal;font-variant:normal;font-weight:normal;font-stretch:normal;font-size:16px;font-family:'Fira Mono';-inkscape-font-specification:'Fira Mono';stroke-width:1.13385832;stroke-miterlimit:4;stroke-dasharray:none;paint-order:markers fill stroke"
       d="m 365.57235,140.54075 v -9.936 h -1.184 l -3.28,2.048 0.592,0.944 2.512,-1.52 v 8.464 h -2.704 v 1.088 h 6.352 v -1.088 z" />
    <path
       id="path188"
       style="font-style:normal;font-variant:normal;font-weight:normal;font-stretch:normal;font-size:16px;font-family:'Fira Mono';-inkscape-font-specification:'Fira Mono';stroke-width:1.13385832;stroke-miterlimit:4;stroke-dasharray:none;paint-order:markers fill stroke"
       d="m 373.9821,130.42875 c -2.368,0 -3.6,2.032 -3.6,5.68 0,3.664 1.232,5.696 3.6,5.696 2.368,0 3.6,-2.032 3.6,-5.696 0,-3.648 -1.232,-5.68 -3.6,-5.68 z m 0,1.088 c 1.376,0 2.192,1.344 2.192,4.592 0,3.264 -0.816,4.608 -2.192,4.608 -1.36,0 -2.192,-1.344 -2.192,-4.608 0,-3.248 0.832,-4.592 2.192,-4.592 z m 0,3.552 c -0.592,0 -1.04,0.464 -1.04,1.04 0,0.592 0.448,1.056 1.04,1.056 0.608,0 1.056,-0.464 1.056,-1.056 0,-0.576 -0.448,-1.04 -1.056,-1.04 z" />
    <path
       id="path190"
       style="font-style:normal;font-variant:normal;font-weight:normal;font-stretch:normal;font-size:16px;font-family:'Fira Mono';-inkscape-font-specification:'Fira Mono';stroke-width:1.13385832;stroke-miterlimit:4;stroke-dasharray:none;paint-order:markers fill stroke"
       d="m 383.57585,138.98875 c -0.72,0 -1.28,0.576 -1.28,1.296 0,0.416 0.208,0.832 0.512,1.056 l -0.752,3.152 h 1.216 l 1.296,-2.96 c 0.224,-0.496 0.304,-0.864 0.304,-1.264 0,-0.704 -0.56,-1.28 -1.296,-1.28 z" />
    <path
       id="path192"
       style="font-style:normal;font-variant:normal;font-weight:normal;font-stretch:normal;font-size:16px;font-family:'Fira Mono';-inkscape-font-specification:'Fira Mono';stroke-width:1.13385832;stroke-miterlimit:4;stroke-dasharray:none;paint-order:markers fill stroke"
       d="m 399.56335,141.62875 h 1.344 v -6.128 c 0.448,-0.672 1.296,-1.408 2.288,-1.408 1.264,0 1.44,0.688 1.44,2.416 v 5.12 h 1.344 v -6.112 c 0,-1.568 -0.72,-2.496 -2.368,-2.496 -0.992,0 -2.112,0.496 -2.784,1.36 l -0.112,-1.184 h -1.152 z" />
    <path
       id="path194"
       style="font-style:normal;font-variant:normal;font-weight:normal;font-stretch:normal;font-size:16px;font-family:'Fira Mono';-inkscape-font-specification:'Fira Mono';stroke-width:1.13385832;stroke-miterlimit:4;stroke-dasharray:none;paint-order:markers fill stroke"
       d="m 425.05485,134.55675 h -6.208 v 1.152 h 6.208 z m 0,3.04 h -6.208 v 1.152 h 6.208 z" />
    <path
       id="path196"
       style="font-style:normal;font-variant:normal;font-weight:normal;font-stretch:normal;font-size:16px;font-family:'Fira Mono';-inkscape-font-specification:'Fira Mono';stroke-width:1.13385832;stroke-miterlimit:4;stroke-dasharray:none;paint-order:markers fill stroke"
       d="m 444.13035,130.60475 h -5.84 v 5.504 h 1.088 c 0.64,-0.224 1.072,-0.368 1.712,-0.368 1.12,0 2,0.592 2,2.352 0,1.712 -0.864,2.608 -2.32,2.608 -0.944,0 -1.696,-0.336 -2.368,-1.024 l -0.832,0.816 c 0.848,0.816 1.872,1.312 3.2,1.312 2.272,0 3.728,-1.456 3.728,-3.664 0,-2.208 -1.216,-3.456 -3.024,-3.456 -0.656,0 -1.232,0.112 -1.888,0.48 v -3.472 h 4.352 z" />
    <path
       id="path198"
       style="font-style:normal;font-variant:normal;font-weight:normal;font-stretch:normal;font-size:16px;font-family:'Fira Mono';-inkscape-font-specification:'Fira Mono';stroke-width:1.13385832;stroke-miterlimit:4;stroke-dasharray:none;paint-order:markers fill stroke"
       d="m 452.1241,136.02875 c 0,3.344 -1.136,5.072 -3.408,7.104 l 0.688,0.736 c 2.608,-2.128 4.128,-4.192 4.128,-7.84 0,-3.648 -1.52,-5.712 -4.128,-7.84 l -0.688,0.736 c 2.304,2.048 3.408,3.744 3.408,7.104 z" />
  </g>
  <g
     id="text1545"
     style="font-style:normal;font-weight:normal;font-size:40px;line-height:1.25;font-family:Mono-serif;letter-spacing:0px;word-spacing:0px;fill:#000000;fill-opacity:1;stroke:none;stroke-width:1.13385832;stroke-miterlimit:4;stroke-dasharray:none;paint-order:markers fill stroke"
     aria-label="args1">
    <path
       id="path201"
       style="font-style:normal;font-variant:normal;font-weight:normal;font-stretch:normal;font-size:16px;font-family:'Fira Mono';-inkscape-font-specification:'Fira Mono';stroke-width:1.13385832;stroke-miterlimit:4;stroke-dasharray:none;paint-order:markers fill stroke"
       d="m 99.249051,28.081638 v -4.048 c 0,-1.664 -1.056,-2.72 -3.152,-2.72 -0.832,0 -1.728,0.16 -2.768,0.528 l 0.368,1.024 c 0.864,-0.304 1.632,-0.432 2.192,-0.432 1.248,0 2,0.448 2,1.68 v 0.688 h -1.248 c -2.544,0 -3.936,0.976 -3.936,2.704 0,1.568 1.024,2.592 2.72,2.592 1.088,0 2.032,-0.4 2.64,-1.184 0.224,0.768 0.816,1.104 1.536,1.2 l 0.336,-0.96 c -0.48,-0.144 -0.688,-0.4 -0.688,-1.072 z m -3.488,1.008 c -1.104,0 -1.616,-0.544 -1.616,-1.6 0,-1.088 0.672,-1.76 2.528,-1.76 h 1.216 v 2.16 c -0.496,0.752 -1.296,1.2 -2.128,1.2 z" />
    <path
       id="path203"
       style="font-style:normal;font-variant:normal;font-weight:normal;font-stretch:normal;font-size:16px;font-family:'Fira Mono';-inkscape-font-specification:'Fira Mono';stroke-width:1.13385832;stroke-miterlimit:4;stroke-dasharray:none;paint-order:markers fill stroke"
       d="m 108.4908,21.313638 c -1.52,0 -2.384,0.8 -3.024,2.176 l -0.256,-2 h -2.336 v 1.04 h 1.328 v 6.352 h -1.328 v 1.04 h 4.384 v -1.04 h -1.712 v -3.552 c 0.544,-1.856 1.472,-2.784 2.768,-2.784 h 0.08 v 1.808 h 1.088 l 0.192,-2.864 c -0.368,-0.096 -0.72,-0.176 -1.184,-0.176 z" />
    <path
       id="path205"
       style="font-style:normal;font-variant:normal;font-weight:normal;font-stretch:normal;font-size:16px;font-family:'Fira Mono';-inkscape-font-specification:'Fira Mono';stroke-width:1.13385832;stroke-miterlimit:4;stroke-dasharray:none;paint-order:markers fill stroke"
       d="m 119.25255,20.609638 c -0.992,0.416 -1.728,0.704 -3.84,0.704 -2,0 -3.36,1.216 -3.36,2.928 0,1.088 0.448,1.824 1.408,2.32 -0.608,0.4 -0.928,0.944 -0.928,1.472 0,0.848 0.656,1.6 2.128,1.6 h 1.504 c 1.072,0 1.888,0.4 1.888,1.2 0,0.912 -0.816,1.392 -2.656,1.392 -1.888,0 -2.336,-0.464 -2.336,-1.456 h -1.216 c 0,1.712 0.864,2.544 3.552,2.544 2.56,0 4.016,-0.912 4.016,-2.56 0,-1.312 -1.28,-2.288 -2.976,-2.288 h -1.52 c -0.864,0 -1.12,-0.32 -1.12,-0.72 0,-0.304 0.192,-0.624 0.432,-0.816 0.368,0.128 0.704,0.176 1.264,0.176 2,0 3.168,-1.2 3.168,-2.864 0,-0.96 -0.48,-1.68 -1.472,-2.128 0.944,0 1.76,-0.016 2.464,-0.24 z m -3.856,1.696 c 1.248,0 1.872,0.656 1.872,1.92 0,1.248 -0.64,1.984 -1.84,1.984 -1.376,0 -2,-0.816 -2,-1.968 0,-1.136 0.608,-1.936 1.968,-1.936 z" />
    <path
       id="path207"
       style="font-style:normal;font-variant:normal;font-weight:normal;font-stretch:normal;font-size:16px;font-family:'Fira Mono';-inkscape-font-specification:'Fira Mono';stroke-width:1.13385832;stroke-miterlimit:4;stroke-dasharray:none;paint-order:markers fill stroke"
       d="m 124.8623,28.993638 c -0.992,0 -1.888,-0.368 -2.544,-0.912 l -0.752,0.88 c 0.72,0.624 1.76,1.136 3.296,1.136 1.792,0 3.536,-0.704 3.536,-2.512 0,-1.568 -1.088,-2.144 -2.736,-2.592 -1.696,-0.464 -2.224,-0.72 -2.224,-1.488 0,-0.64 0.48,-1.104 1.824,-1.104 1.088,0 1.808,0.336 2.432,0.768 l 0.608,-0.928 c -0.72,-0.512 -1.712,-0.928 -3.072,-0.928 -1.904,0 -3.2,0.896 -3.2,2.304 0,1.472 1.136,2 2.88,2.432 1.792,0.448 2.032,0.848 2.032,1.6 0,0.816 -0.784,1.344 -2.08,1.344 z" />
    <path
       id="path209"
       style="font-style:normal;font-variant:normal;font-weight:normal;font-stretch:normal;font-size:16px;font-family:'Fira Mono';-inkscape-font-specification:'Fira Mono';stroke-width:1.13385832;stroke-miterlimit:4;stroke-dasharray:none;paint-order:markers fill stroke"
       d="m 135.96005,28.833638 v -9.936 h -1.184 l -3.28,2.048 0.592,0.944 2.512,-1.52 v 8.464 h -2.704 v 1.088 h 6.352 v -1.088 z" />
  </g>
  <rect
     transform="rotate(90)"
     ry="8.7750797"
     rx="7.234158"
     y="-483.21854"
     x="38.987976"
     height="247.57411"
     width="129.008"
     id="rect61"
     style="fill:none;fill-opacity:1;stroke:#000000;stroke-width:1.13399994;stroke-miterlimit:4;stroke-dasharray:none;paint-order:markers fill stroke" />
</svg>
