<?xml version="1.0" encoding="UTF-8" standalone="no"?>
<svg
   xmlns:dc="http://purl.org/dc/elements/1.1/"
   xmlns:cc="http://creativecommons.org/ns#"
   xmlns:rdf="http://www.w3.org/1999/02/22-rdf-syntax-ns#"
   xmlns:svg="http://www.w3.org/2000/svg"
   xmlns="http://www.w3.org/2000/svg"
   viewBox="0 0 510.37838 118.58795"
   height="31.376394mm"
   width="135.03761mm"
   id="svg2"
   version="1.1">
  <metadata
     id="metadata8">
    <rdf:RDF>
      <cc:Work
         rdf:about="">
        <dc:format>image/svg+xml</dc:format>
        <dc:type
           rdf:resource="http://purl.org/dc/dcmitype/StillImage" />
        <dc:title />
      </cc:Work>
    </rdf:RDF>
  </metadata>
  <defs
     id="defs6" />
  <g
     transform="translate(0.62621398)"
     id="g872">
    <path
       id="rect817"
       d="m 383.72818,61.640297 h 21.32743 v 23.266291 h -21.32743 z"
       style="fill:none;fill-opacity:1;stroke:#000000;stroke-width:1.13385832;stroke-miterlimit:4;stroke-dasharray:none;paint-order:markers fill stroke" />
    <g
       id="text821"
       style="font-style:normal;font-weight:normal;font-size:40px;line-height:1.25;font-family:sans-serif;letter-spacing:0px;word-spacing:0px;fill:#000000;fill-opacity:1;stroke:none;stroke-width:1.13385832;stroke-miterlimit:4;stroke-dasharray:none;paint-order:markers fill stroke"
       aria-label="1">
      <path
         id="path57"
         style="font-style:normal;font-variant:normal;font-weight:normal;font-stretch:normal;font-size:16px;font-family:'Fira Mono';-inkscape-font-specification:'Fira Mono';stroke-width:1.13385832;stroke-miterlimit:4;stroke-dasharray:none;paint-order:markers fill stroke"
         d="m 395.47991,77.900289 v -9.936 h -1.184 l -3.28,2.048 0.592,0.944 2.512,-1.52 v 8.464 h -2.704 v 1.088 h 6.352 v -1.088 z" />
    </g>
    <path
       id="rect823"
       d="m 405.05563,61.640297 h 21.32744 v 23.266291 h -21.32744 z"
       style="fill:none;fill-opacity:1;stroke:#000000;stroke-width:1.13385832;stroke-miterlimit:4;stroke-dasharray:none;paint-order:markers fill stroke" />
    <g
       id="text827"
       style="font-style:normal;font-weight:normal;font-size:40px;line-height:1.25;font-family:sans-serif;letter-spacing:0px;word-spacing:0px;fill:#000000;fill-opacity:1;stroke:none;stroke-width:1.13385832;stroke-miterlimit:4;stroke-dasharray:none;paint-order:markers fill stroke"
       aria-label="2">
      <path
         id="path61"
         style="font-style:normal;font-variant:normal;font-weight:normal;font-stretch:normal;font-size:16px;font-family:'Fira Mono';-inkscape-font-specification:'Fira Mono';stroke-width:1.13385832;stroke-miterlimit:4;stroke-dasharray:none;paint-order:markers fill stroke"
         d="m 415.60734,67.788289 c -1.488,0 -2.496,0.528 -3.36,1.584 l 0.928,0.72 c 0.704,-0.816 1.296,-1.168 2.368,-1.168 1.232,0 1.984,0.752 1.984,1.984 0,1.792 -0.896,3.008 -5.056,6.992 v 1.088 h 6.56 l 0.16,-1.152 h -5.184 c 3.632,-3.312 4.928,-4.944 4.928,-6.976 0,-1.744 -1.248,-3.072 -3.328,-3.072 z" />
    </g>
    <path
       id="rect829"
       d="m 426.38306,61.640297 h 21.32743 v 23.266291 h -21.32743 z"
       style="fill:none;fill-opacity:1;stroke:#000000;stroke-width:1.13385832;stroke-miterlimit:4;stroke-dasharray:none;paint-order:markers fill stroke" />
    <g
       id="text833"
       style="font-style:normal;font-weight:normal;font-size:40px;line-height:1.25;font-family:sans-serif;letter-spacing:0px;word-spacing:0px;fill:#000000;fill-opacity:1;stroke:none;stroke-width:1.13385832;stroke-miterlimit:4;stroke-dasharray:none;paint-order:markers fill stroke"
       aria-label="3">
      <path
         id="path65"
         style="font-style:normal;font-variant:normal;font-weight:normal;font-stretch:normal;font-size:16px;font-family:'Fira Mono';-inkscape-font-specification:'Fira Mono';stroke-width:1.13385832;stroke-miterlimit:4;stroke-dasharray:none;paint-order:markers fill stroke"
         d="m 436.91878,67.788289 c -1.136,0 -2.192,0.384 -3.136,1.28 l 0.736,0.816 c 0.736,-0.672 1.392,-1.008 2.336,-1.008 1.168,0 2.08,0.656 2.08,1.856 0,1.328 -1.024,1.92 -2.08,1.92 h -0.656 l -0.16,1.072 h 0.912 c 1.312,0 2.288,0.512 2.288,2.096 0,1.376 -0.912,2.24 -2.448,2.24 -0.896,0 -1.824,-0.352 -2.448,-1.088 l -0.896,0.736 c 0.832,1.008 2.144,1.456 3.376,1.456 2.288,0 3.824,-1.44 3.824,-3.344 0,-1.712 -1.216,-2.608 -2.496,-2.704 1.152,-0.224 2.144,-1.232 2.144,-2.56 0,-1.504 -1.296,-2.768 -3.376,-2.768 z" />
    </g>
    <path
       id="rect835"
       d="m 447.71051,61.640297 h 21.32743 v 23.266291 h -21.32743 z"
       style="fill:none;fill-opacity:1;stroke:#000000;stroke-width:1.13385832;stroke-miterlimit:4;stroke-dasharray:none;paint-order:markers fill stroke" />
    <g
       id="text839"
       style="font-style:normal;font-weight:normal;font-size:40px;line-height:1.25;font-family:sans-serif;letter-spacing:0px;word-spacing:0px;fill:#000000;fill-opacity:1;stroke:none;stroke-width:1.13385832;stroke-miterlimit:4;stroke-dasharray:none;paint-order:markers fill stroke"
       aria-label="4">
      <path
         id="path69"
         style="font-style:normal;font-variant:normal;font-weight:normal;font-stretch:normal;font-size:16px;font-family:'Fira Mono';-inkscape-font-specification:'Fira Mono';stroke-width:1.13385832;stroke-miterlimit:4;stroke-dasharray:none;paint-order:markers fill stroke"
         d="m 462.02222,75.228289 h -1.424 v -3.12 h -1.168 l -0.112,3.12 h -3.168 l 2.928,-6.96 -1.12,-0.48 -3.232,7.536 v 0.992 h 4.576 v 2.672 h 1.296 v -2.672 h 1.424 z" />
    </g>
  </g>
  <g
     id="text843"
     style="font-style:normal;font-weight:normal;font-size:40px;line-height:1.25;font-family:sans-serif;letter-spacing:0px;word-spacing:0px;fill:#000000;fill-opacity:1;stroke:none;stroke-width:1.13385832;stroke-miterlimit:4;stroke-dasharray:none;paint-order:markers fill stroke"
     aria-label="flatten_dbl(y)">
    <path
       id="path72"
       style="font-style:normal;font-variant:normal;font-weight:normal;font-stretch:normal;font-size:16px;font-family:'Fira Mono';-inkscape-font-specification:'Fira Mono';stroke-width:1.13385832;stroke-miterlimit:4;stroke-dasharray:none;paint-order:markers fill stroke"
       d="m 366.6739,19.749576 c -1.744,0 -3.072,0.976 -3.072,2.528 v 1.68 h -2 v 1.072 h 2 v 6.704 h 1.36 v -6.704 h 2.704 l 0.144,-1.072 h -2.848 v -1.712 c 0,-0.928 0.592,-1.392 1.76,-1.392 0.64,0 1.264,0.112 1.808,0.352 l 0.432,-1.008 c -0.656,-0.272 -1.376,-0.448 -2.288,-0.448 z" />
    <path
       id="path74"
       style="font-style:normal;font-variant:normal;font-weight:normal;font-stretch:normal;font-size:16px;font-family:'Fira Mono';-inkscape-font-specification:'Fira Mono';stroke-width:1.13385832;stroke-miterlimit:4;stroke-dasharray:none;paint-order:markers fill stroke"
       d="m 374.58765,19.909576 h -3.936 v 1.072 h 2.592 v 8.608 c 0,1.456 1.008,2.32 2.496,2.32 0.864,0 1.552,-0.192 2,-0.432 l -0.352,-0.976 c -0.464,0.176 -0.912,0.288 -1.408,0.288 -0.816,0 -1.392,-0.304 -1.392,-1.136 z" />
    <path
       id="path76"
       style="font-style:normal;font-variant:normal;font-weight:normal;font-stretch:normal;font-size:16px;font-family:'Fira Mono';-inkscape-font-specification:'Fira Mono';stroke-width:1.13385832;stroke-miterlimit:4;stroke-dasharray:none;paint-order:markers fill stroke"
       d="m 386.9334,29.893576 v -4.048 c 0,-1.664 -1.056,-2.72 -3.152,-2.72 -0.832,0 -1.728,0.16 -2.768,0.528 l 0.368,1.024 c 0.864,-0.304 1.632,-0.432 2.192,-0.432 1.248,0 2,0.448 2,1.68 v 0.688 h -1.248 c -2.544,0 -3.936,0.976 -3.936,2.704 0,1.568 1.024,2.592 2.72,2.592 1.088,0 2.032,-0.4 2.64,-1.184 0.224,0.768 0.816,1.104 1.536,1.2 l 0.336,-0.96 c -0.48,-0.144 -0.688,-0.4 -0.688,-1.072 z m -3.488,1.008 c -1.104,0 -1.616,-0.544 -1.616,-1.6 0,-1.088 0.672,-1.76 2.528,-1.76 h 1.216 v 2.16 c -0.496,0.752 -1.296,1.2 -2.128,1.2 z" />
    <path
       id="path78"
       style="font-style:normal;font-variant:normal;font-weight:normal;font-stretch:normal;font-size:16px;font-family:'Fira Mono';-inkscape-font-specification:'Fira Mono';stroke-width:1.13385832;stroke-miterlimit:4;stroke-dasharray:none;paint-order:markers fill stroke"
       d="m 397.18315,31.301576 -0.528,-0.912 c -0.448,0.24 -0.992,0.4 -1.616,0.4 -1.152,0 -1.616,-0.496 -1.616,-1.424 v -5.008 h 2.752 l 0.176,-1.056 h -2.928 v -2.064 l -1.344,0.16 v 1.904 h -1.936 v 1.056 h 1.936 v 5.024 c 0,1.472 1.024,2.528 2.832,2.528 0.8,0 1.68,-0.224 2.272,-0.608 z" />
    <path
       id="path80"
       style="font-style:normal;font-variant:normal;font-weight:normal;font-stretch:normal;font-size:16px;font-family:'Fira Mono';-inkscape-font-specification:'Fira Mono';stroke-width:1.13385832;stroke-miterlimit:4;stroke-dasharray:none;paint-order:markers fill stroke"
       d="m 406.7769,31.301576 -0.528,-0.912 c -0.448,0.24 -0.992,0.4 -1.616,0.4 -1.152,0 -1.616,-0.496 -1.616,-1.424 v -5.008 h 2.752 l 0.176,-1.056 h -2.928 v -2.064 l -1.344,0.16 v 1.904 h -1.936 v 1.056 h 1.936 v 5.024 c 0,1.472 1.024,2.528 2.832,2.528 0.8,0 1.68,-0.224 2.272,-0.608 z" />
    <path
       id="path82"
       style="font-style:normal;font-variant:normal;font-weight:normal;font-stretch:normal;font-size:16px;font-family:'Fira Mono';-inkscape-font-specification:'Fira Mono';stroke-width:1.13385832;stroke-miterlimit:4;stroke-dasharray:none;paint-order:markers fill stroke"
       d="m 410.73865,27.989576 h 5.664 c 0.016,-0.176 0.032,-0.432 0.032,-0.72 0,-2.56 -1.312,-4.144 -3.44,-4.144 -2.24,0 -3.664,1.856 -3.664,4.4 0,2.624 1.392,4.384 3.856,4.384 1.04,0 2.096,-0.368 2.88,-0.976 l -0.624,-0.896 c -0.752,0.496 -1.392,0.752 -2.256,0.752 -1.296,0 -2.384,-0.848 -2.448,-2.8 z m 2.272,-3.76 c 1.28,0 2.08,0.928 2.112,2.736 h -4.384 c 0.112,-1.856 1.024,-2.736 2.272,-2.736 z" />
    <path
       id="path84"
       style="font-style:normal;font-variant:normal;font-weight:normal;font-stretch:normal;font-size:16px;font-family:'Fira Mono';-inkscape-font-specification:'Fira Mono';stroke-width:1.13385832;stroke-miterlimit:4;stroke-dasharray:none;paint-order:markers fill stroke"
       d="m 419.2604,31.733576 h 1.344 v -6.128 c 0.448,-0.672 1.296,-1.408 2.288,-1.408 1.264,0 1.44,0.688 1.44,2.416 v 5.12 h 1.344 v -6.112 c 0,-1.568 -0.72,-2.496 -2.368,-2.496 -0.992,0 -2.112,0.496 -2.784,1.36 l -0.112,-1.184 h -1.152 z" />
    <path
       id="path86"
       style="font-style:normal;font-variant:normal;font-weight:normal;font-stretch:normal;font-size:16px;font-family:'Fira Mono';-inkscape-font-specification:'Fira Mono';stroke-width:1.13385832;stroke-miterlimit:4;stroke-dasharray:none;paint-order:markers fill stroke"
       d="m 428.05415,34.645576 h 8 v -1.184 h -8 z" />
    <path
       id="path88"
       style="font-style:normal;font-variant:normal;font-weight:normal;font-stretch:normal;font-size:16px;font-family:'Fira Mono';-inkscape-font-specification:'Fira Mono';stroke-width:1.13385832;stroke-miterlimit:4;stroke-dasharray:none;paint-order:markers fill stroke"
       d="m 443.5039,19.749576 v 4.384 c -0.576,-0.656 -1.296,-1.008 -2.272,-1.008 -2.064,0 -3.296,1.872 -3.296,4.4 0,2.624 1.008,4.384 3.216,4.384 0.912,0 1.76,-0.4 2.384,-1.28 l 0.128,1.104 h 1.184 v -11.824 z m -1.92,4.464 c 0.784,0 1.456,0.4 1.92,1.088 v 4.192 c -0.464,0.704 -1.12,1.344 -2.08,1.344 -1.328,0 -2.032,-1.12 -2.032,-3.312 0,-2.224 0.8,-3.312 2.192,-3.312 z" />
    <path
       id="path90"
       style="font-style:normal;font-variant:normal;font-weight:normal;font-stretch:normal;font-size:16px;font-family:'Fira Mono';-inkscape-font-specification:'Fira Mono';stroke-width:1.13385832;stroke-miterlimit:4;stroke-dasharray:none;paint-order:markers fill stroke"
       d="m 449.38565,24.405576 v -4.656 l -1.344,0.16 v 11.824 h 1.184 l 0.096,-0.88 c 0.576,0.736 1.328,1.056 2.288,1.056 2.176,0 3.344,-1.84 3.344,-4.4 0,-2.64 -0.912,-4.384 -3.152,-4.384 -0.976,0 -1.792,0.464 -2.416,1.28 z m 1.92,6.416 c -0.784,0 -1.472,-0.4 -1.92,-1.088 v -4.176 c 0.464,-0.672 1.184,-1.344 2.112,-1.344 1.312,0 2,1.104 2,3.296 0,2.24 -0.8,3.312 -2.192,3.312 z" />
    <path
       id="path92"
       style="font-style:normal;font-variant:normal;font-weight:normal;font-stretch:normal;font-size:16px;font-family:'Fira Mono';-inkscape-font-specification:'Fira Mono';stroke-width:1.13385832;stroke-miterlimit:4;stroke-dasharray:none;paint-order:markers fill stroke"
       d="m 460.9314,19.909576 h -3.936 v 1.072 h 2.592 v 8.608 c 0,1.456 1.008,2.32 2.496,2.32 0.864,0 1.552,-0.192 2,-0.432 l -0.352,-0.976 c -0.464,0.176 -0.912,0.288 -1.408,0.288 -0.816,0 -1.392,-0.304 -1.392,-1.136 z" />
    <path
       id="path94"
       style="font-style:normal;font-variant:normal;font-weight:normal;font-stretch:normal;font-size:16px;font-family:'Fira Mono';-inkscape-font-specification:'Fira Mono';stroke-width:1.13385832;stroke-miterlimit:4;stroke-dasharray:none;paint-order:markers fill stroke"
       d="m 469.03715,26.133576 c 0,-3.36 1.104,-5.056 3.408,-7.104 l -0.688,-0.736 c -2.608,2.128 -4.128,4.192 -4.128,7.84 0,3.648 1.52,5.712 4.128,7.84 l 0.688,-0.736 c -2.272,-2.032 -3.408,-3.76 -3.408,-7.104 z" />
    <path
       id="path96"
       style="font-style:normal;font-variant:normal;font-weight:normal;font-stretch:normal;font-size:16px;font-family:'Fira Mono';-inkscape-font-specification:'Fira Mono';stroke-width:1.13385832;stroke-miterlimit:4;stroke-dasharray:none;paint-order:markers fill stroke"
       d="m 483.8309,23.301576 h -1.392 l -2.384,7.408 -2.416,-7.408 h -1.424 l 2.928,8.432 h 0.448 c -0.432,1.296 -0.944,2.016 -2.672,2.32 l 0.192,1.072 c 2.24,-0.24 3.184,-1.616 3.776,-3.344 z" />
    <path
       id="path98"
       style="font-style:normal;font-variant:normal;font-weight:normal;font-stretch:normal;font-size:16px;font-family:'Fira Mono';-inkscape-font-specification:'Fira Mono';stroke-width:1.13385832;stroke-miterlimit:4;stroke-dasharray:none;paint-order:markers fill stroke"
       d="m 491.00865,26.133576 c 0,3.344 -1.136,5.072 -3.408,7.104 l 0.688,0.736 c 2.608,-2.128 4.128,-4.192 4.128,-7.84 0,-3.648 -1.52,-5.712 -4.128,-7.84 l -0.688,0.736 c 2.304,2.048 3.408,3.744 3.408,7.104 z" />
  </g>
  <g
     id="text887"
     style="font-style:normal;font-weight:normal;font-size:40px;line-height:1.25;font-family:sans-serif;letter-spacing:0px;word-spacing:0px;fill:#000000;fill-opacity:1;stroke:none;stroke-width:1.13385832;stroke-miterlimit:4;stroke-dasharray:none;paint-order:markers fill stroke"
     aria-label="y &lt;- flatten(x)">
    <path
       id="path101"
       style="font-style:normal;font-variant:normal;font-weight:normal;font-stretch:normal;font-size:16px;font-family:'Fira Mono';-inkscape-font-specification:'Fira Mono';stroke-width:1.13385832;stroke-miterlimit:4;stroke-dasharray:none;paint-order:markers fill stroke"
       d="m 202.55038,23.301576 h -1.392 l -2.384,7.408 -2.416,-7.408 h -1.424 l 2.928,8.432 h 0.448 c -0.432,1.296 -0.944,2.016 -2.672,2.32 l 0.192,1.072 c 2.24,-0.24 3.184,-1.616 3.776,-3.344 z" />
    <path
       id="path103"
       style="font-style:normal;font-variant:normal;font-weight:normal;font-stretch:normal;font-size:16px;font-family:'Fira Mono';-inkscape-font-specification:'Fira Mono';stroke-width:1.13385832;stroke-miterlimit:4;stroke-dasharray:none;paint-order:markers fill stroke"
       d="m 220.68188,22.229576 -6.144,3.792 v 1.392 l 6.08,3.792 0.72,-0.976 -5.648,-3.504 5.648,-3.472 z" />
    <path
       id="path105"
       style="font-style:normal;font-variant:normal;font-weight:normal;font-stretch:normal;font-size:16px;font-family:'Fira Mono';-inkscape-font-specification:'Fira Mono';stroke-width:1.13385832;stroke-miterlimit:4;stroke-dasharray:none;paint-order:markers fill stroke"
       d="m 224.72363,27.301576 h 5.6 v -1.152 h -5.6 z" />
    <path
       id="path107"
       style="font-style:normal;font-variant:normal;font-weight:normal;font-stretch:normal;font-size:16px;font-family:'Fira Mono';-inkscape-font-specification:'Fira Mono';stroke-width:1.13385832;stroke-miterlimit:4;stroke-dasharray:none;paint-order:markers fill stroke"
       d="m 248.48713,19.749576 c -1.744,0 -3.072,0.976 -3.072,2.528 v 1.68 h -2 v 1.072 h 2 v 6.704 h 1.36 v -6.704 h 2.704 l 0.144,-1.072 h -2.848 v -1.712 c 0,-0.928 0.592,-1.392 1.76,-1.392 0.64,0 1.264,0.112 1.808,0.352 l 0.432,-1.008 c -0.656,-0.272 -1.376,-0.448 -2.288,-0.448 z" />
    <path
       id="path109"
       style="font-style:normal;font-variant:normal;font-weight:normal;font-stretch:normal;font-size:16px;font-family:'Fira Mono';-inkscape-font-specification:'Fira Mono';stroke-width:1.13385832;stroke-miterlimit:4;stroke-dasharray:none;paint-order:markers fill stroke"
       d="m 256.40088,19.909576 h -3.936 v 1.072 h 2.592 v 8.608 c 0,1.456 1.008,2.32 2.496,2.32 0.864,0 1.552,-0.192 2,-0.432 l -0.352,-0.976 c -0.464,0.176 -0.912,0.288 -1.408,0.288 -0.816,0 -1.392,-0.304 -1.392,-1.136 z" />
    <path
       id="path111"
       style="font-style:normal;font-variant:normal;font-weight:normal;font-stretch:normal;font-size:16px;font-family:'Fira Mono';-inkscape-font-specification:'Fira Mono';stroke-width:1.13385832;stroke-miterlimit:4;stroke-dasharray:none;paint-order:markers fill stroke"
       d="m 268.74663,29.893576 v -4.048 c 0,-1.664 -1.056,-2.72 -3.152,-2.72 -0.832,0 -1.728,0.16 -2.768,0.528 l 0.368,1.024 c 0.864,-0.304 1.632,-0.432 2.192,-0.432 1.248,0 2,0.448 2,1.68 v 0.688 h -1.248 c -2.544,0 -3.936,0.976 -3.936,2.704 0,1.568 1.024,2.592 2.72,2.592 1.088,0 2.032,-0.4 2.64,-1.184 0.224,0.768 0.816,1.104 1.536,1.2 l 0.336,-0.96 c -0.48,-0.144 -0.688,-0.4 -0.688,-1.072 z m -3.488,1.008 c -1.104,0 -1.616,-0.544 -1.616,-1.6 0,-1.088 0.672,-1.76 2.528,-1.76 h 1.216 v 2.16 c -0.496,0.752 -1.296,1.2 -2.128,1.2 z" />
    <path
       id="path113"
       style="font-style:normal;font-variant:normal;font-weight:normal;font-stretch:normal;font-size:16px;font-family:'Fira Mono';-inkscape-font-specification:'Fira Mono';stroke-width:1.13385832;stroke-miterlimit:4;stroke-dasharray:none;paint-order:markers fill stroke"
       d="m 278.99638,31.301576 -0.528,-0.912 c -0.448,0.24 -0.992,0.4 -1.616,0.4 -1.152,0 -1.616,-0.496 -1.616,-1.424 v -5.008 h 2.752 l 0.176,-1.056 h -2.928 v -2.064 l -1.344,0.16 v 1.904 h -1.936 v 1.056 h 1.936 v 5.024 c 0,1.472 1.024,2.528 2.832,2.528 0.8,0 1.68,-0.224 2.272,-0.608 z" />
    <path
       id="path115"
       style="font-style:normal;font-variant:normal;font-weight:normal;font-stretch:normal;font-size:16px;font-family:'Fira Mono';-inkscape-font-specification:'Fira Mono';stroke-width:1.13385832;stroke-miterlimit:4;stroke-dasharray:none;paint-order:markers fill stroke"
       d="m 288.59013,31.301576 -0.528,-0.912 c -0.448,0.24 -0.992,0.4 -1.616,0.4 -1.152,0 -1.616,-0.496 -1.616,-1.424 v -5.008 h 2.752 l 0.176,-1.056 h -2.928 v -2.064 l -1.344,0.16 v 1.904 h -1.936 v 1.056 h 1.936 v 5.024 c 0,1.472 1.024,2.528 2.832,2.528 0.8,0 1.68,-0.224 2.272,-0.608 z" />
    <path
       id="path117"
       style="font-style:normal;font-variant:normal;font-weight:normal;font-stretch:normal;font-size:16px;font-family:'Fira Mono';-inkscape-font-specification:'Fira Mono';stroke-width:1.13385832;stroke-miterlimit:4;stroke-dasharray:none;paint-order:markers fill stroke"
       d="m 292.55188,27.989576 h 5.664 c 0.016,-0.176 0.032,-0.432 0.032,-0.72 0,-2.56 -1.312,-4.144 -3.44,-4.144 -2.24,0 -3.664,1.856 -3.664,4.4 0,2.624 1.392,4.384 3.856,4.384 1.04,0 2.096,-0.368 2.88,-0.976 l -0.624,-0.896 c -0.752,0.496 -1.392,0.752 -2.256,0.752 -1.296,0 -2.384,-0.848 -2.448,-2.8 z m 2.272,-3.76 c 1.28,0 2.08,0.928 2.112,2.736 h -4.384 c 0.112,-1.856 1.024,-2.736 2.272,-2.736 z" />
    <path
       id="path119"
       style="font-style:normal;font-variant:normal;font-weight:normal;font-stretch:normal;font-size:16px;font-family:'Fira Mono';-inkscape-font-specification:'Fira Mono';stroke-width:1.13385832;stroke-miterlimit:4;stroke-dasharray:none;paint-order:markers fill stroke"
       d="m 301.07363,31.733576 h 1.344 v -6.128 c 0.448,-0.672 1.296,-1.408 2.288,-1.408 1.264,0 1.44,0.688 1.44,2.416 v 5.12 h 1.344 v -6.112 c 0,-1.568 -0.72,-2.496 -2.368,-2.496 -0.992,0 -2.112,0.496 -2.784,1.36 l -0.112,-1.184 h -1.152 z" />
    <path
       id="path121"
       style="font-style:normal;font-variant:normal;font-weight:normal;font-stretch:normal;font-size:16px;font-family:'Fira Mono';-inkscape-font-specification:'Fira Mono';stroke-width:1.13385832;stroke-miterlimit:4;stroke-dasharray:none;paint-order:markers fill stroke"
       d="m 312.47538,26.133576 c 0,-3.36 1.104,-5.056 3.408,-7.104 l -0.688,-0.736 c -2.608,2.128 -4.128,4.192 -4.128,7.84 0,3.648 1.52,5.712 4.128,7.84 l 0.688,-0.736 c -2.272,-2.032 -3.408,-3.76 -3.408,-7.104 z" />
    <path
       id="path123"
       style="font-style:normal;font-variant:normal;font-weight:normal;font-stretch:normal;font-size:16px;font-family:'Fira Mono';-inkscape-font-specification:'Fira Mono';stroke-width:1.13385832;stroke-miterlimit:4;stroke-dasharray:none;paint-order:markers fill stroke"
       d="m 321.09313,31.733576 2.32,-3.616 2.32,3.616 h 1.632 l -3.104,-4.512 2.736,-3.92 h -1.552 l -1.968,3.136 -1.952,-3.136 h -1.6 l 2.736,3.984 -3.104,4.448 z" />
    <path
       id="path125"
       style="font-style:normal;font-variant:normal;font-weight:normal;font-stretch:normal;font-size:16px;font-family:'Fira Mono';-inkscape-font-specification:'Fira Mono';stroke-width:1.13385832;stroke-miterlimit:4;stroke-dasharray:none;paint-order:markers fill stroke"
       d="m 334.44688,26.133576 c 0,3.344 -1.136,5.072 -3.408,7.104 l 0.688,0.736 c 2.608,-2.128 4.128,-4.192 4.128,-7.84 0,-3.648 -1.52,-5.712 -4.128,-7.84 l -0.688,0.736 c 2.304,2.048 3.408,3.744 3.408,7.104 z" />
  </g>
  <g
     transform="translate(0.68270731)"
     id="g887">
    <path
       id="rect859"
       d="m 222.05705,61.640282 h 21.32744 v 23.26629 h -21.32744 z"
       style="fill:#ebebeb;fill-opacity:1;stroke:#000000;stroke-width:1.13385832;stroke-miterlimit:4;stroke-dasharray:none;paint-order:markers fill stroke" />
    <g
       id="text863"
       style="font-style:normal;font-weight:normal;font-size:40px;line-height:1.25;font-family:sans-serif;letter-spacing:0px;word-spacing:0px;fill:#000000;fill-opacity:1;stroke:none;stroke-width:1.13385832;stroke-miterlimit:4;stroke-dasharray:none;paint-order:markers fill stroke"
       aria-label="1">
      <path
         id="path129"
         style="font-style:normal;font-variant:normal;font-weight:normal;font-stretch:normal;font-size:16px;font-family:'Fira Mono';-inkscape-font-specification:'Fira Mono';stroke-width:1.13385832;stroke-miterlimit:4;stroke-dasharray:none;paint-order:markers fill stroke"
         d="m 233.80877,77.900274 v -9.936 h -1.184 l -3.28,2.048 0.592,0.944 2.512,-1.52 v 8.464 h -2.704 v 1.088 h 6.352 v -1.088 z" />
    </g>
    <path
       id="rect865"
       d="m 243.38449,61.640282 h 21.32743 v 23.26629 h -21.32743 z"
       style="fill:#ebebeb;fill-opacity:1;stroke:#000000;stroke-width:1.13385832;stroke-miterlimit:4;stroke-dasharray:none;paint-order:markers fill stroke" />
    <g
       id="text869"
       style="font-style:normal;font-weight:normal;font-size:40px;line-height:1.25;font-family:sans-serif;letter-spacing:0px;word-spacing:0px;fill:#000000;fill-opacity:1;stroke:none;stroke-width:1.13385832;stroke-miterlimit:4;stroke-dasharray:none;paint-order:markers fill stroke"
       aria-label="2">
      <path
         id="path133"
         style="font-style:normal;font-variant:normal;font-weight:normal;font-stretch:normal;font-size:16px;font-family:'Fira Mono';-inkscape-font-specification:'Fira Mono';stroke-width:1.13385832;stroke-miterlimit:4;stroke-dasharray:none;paint-order:markers fill stroke"
         d="m 253.9362,67.788274 c -1.488,0 -2.496,0.528 -3.36,1.584 l 0.928,0.72 c 0.704,-0.816 1.296,-1.168 2.368,-1.168 1.232,0 1.984,0.752 1.984,1.984 0,1.792 -0.896,3.008 -5.056,6.992 v 1.088 h 6.56 l 0.16,-1.152 h -5.184 c 3.632,-3.312 4.928,-4.944 4.928,-6.976 0,-1.744 -1.248,-3.072 -3.328,-3.072 z" />
    </g>
    <path
       id="rect871"
       d="m 264.71194,61.640282 h 21.32744 v 23.26629 h -21.32744 z"
       style="fill:#ebebeb;fill-opacity:1;stroke:#000000;stroke-width:1.13385832;stroke-miterlimit:4;stroke-dasharray:none;paint-order:markers fill stroke" />
    <g
       id="text875"
       style="font-style:normal;font-weight:normal;font-size:40px;line-height:1.25;font-family:sans-serif;letter-spacing:0px;word-spacing:0px;fill:#000000;fill-opacity:1;stroke:none;stroke-width:1.13385832;stroke-miterlimit:4;stroke-dasharray:none;paint-order:markers fill stroke"
       aria-label="3">
      <path
         id="path137"
         style="font-style:normal;font-variant:normal;font-weight:normal;font-stretch:normal;font-size:16px;font-family:'Fira Mono';-inkscape-font-specification:'Fira Mono';stroke-width:1.13385832;stroke-miterlimit:4;stroke-dasharray:none;paint-order:markers fill stroke"
         d="m 275.24766,67.788274 c -1.136,0 -2.192,0.384 -3.136,1.28 l 0.736,0.816 c 0.736,-0.672 1.392,-1.008 2.336,-1.008 1.168,0 2.08,0.656 2.08,1.856 0,1.328 -1.024,1.92 -2.08,1.92 h -0.656 l -0.16,1.072 h 0.912 c 1.312,0 2.288,0.512 2.288,2.096 0,1.376 -0.912,2.24 -2.448,2.24 -0.896,0 -1.824,-0.352 -2.448,-1.088 l -0.896,0.736 c 0.832,1.008 2.144,1.456 3.376,1.456 2.288,0 3.824,-1.44 3.824,-3.344 0,-1.712 -1.216,-2.608 -2.496,-2.704 1.152,-0.224 2.144,-1.232 2.144,-2.56 0,-1.504 -1.296,-2.768 -3.376,-2.768 z" />
    </g>
    <path
       id="rect877"
       d="m 286.03937,61.640282 h 21.32743 v 23.26629 h -21.32743 z"
       style="fill:#ebebeb;fill-opacity:1;stroke:#000000;stroke-width:1.13385832;stroke-miterlimit:4;stroke-dasharray:none;paint-order:markers fill stroke" />
    <g
       id="text881"
       style="font-style:normal;font-weight:normal;font-size:40px;line-height:1.25;font-family:sans-serif;letter-spacing:0px;word-spacing:0px;fill:#000000;fill-opacity:1;stroke:none;stroke-width:1.13385832;stroke-miterlimit:4;stroke-dasharray:none;paint-order:markers fill stroke"
       aria-label="4">
      <path
         id="path141"
         style="font-style:normal;font-variant:normal;font-weight:normal;font-stretch:normal;font-size:16px;font-family:'Fira Mono';-inkscape-font-specification:'Fira Mono';stroke-width:1.13385832;stroke-miterlimit:4;stroke-dasharray:none;paint-order:markers fill stroke"
         d="m 300.35108,75.228274 h -1.424 v -3.12 h -1.168 l -0.112,3.12 h -3.168 l 2.928,-6.96 -1.12,-0.48 -3.232,7.536 v 0.992 h 4.576 v 2.672 h 1.296 v -2.672 h 1.424 z" />
    </g>
    <path
       id="rect889"
       d="m 217.58259,53.531334 h 94.25867 c 3.81336,0 6.88331,3.031217 6.88331,6.796451 v 25.891301 c 0,3.765234 -3.06995,6.796451 -6.88331,6.796451 h -94.25867 c -3.81336,0 -6.88331,-3.031217 -6.88331,-6.796451 V 60.327785 c 0,-3.765234 3.06995,-6.796451 6.88331,-6.796451 z"
       style="fill:none;fill-opacity:1;stroke:#000000;stroke-width:1.13385832;stroke-miterlimit:4;stroke-dasharray:none;paint-order:markers fill stroke" />
  </g>
  <g
     id="text919"
     style="font-style:normal;font-weight:normal;font-size:40px;line-height:1.25;font-family:sans-serif;letter-spacing:0px;word-spacing:0px;fill:#000000;fill-opacity:1;stroke:none;stroke-width:1.13385832;stroke-miterlimit:4;stroke-dasharray:none;paint-order:markers fill stroke"
     aria-label="x">
    <path
       id="path145"
       style="font-style:normal;font-variant:normal;font-weight:normal;font-stretch:normal;font-size:16px;font-family:'Fira Mono';-inkscape-font-specification:'Fira Mono';stroke-width:1.13385832;stroke-miterlimit:4;stroke-dasharray:none;paint-order:markers fill stroke"
       d="m 91.150033,31.733576 2.32,-3.616 2.32,3.616 h 1.632 l -3.104,-4.512 2.736,-3.92 h -1.552 l -1.968,3.136 -1.952,-3.136 h -1.6 l 2.736,3.984 -3.104,4.448 z" />
  </g>
  <g
     id="g922">
    <g
       id="g904">
      <path
         id="rect923"
         d="M 28.901853,47.4235 H 158.13422 c 5.22825,0 9.43728,3.969019 9.43728,8.899145 v 33.901589 c 0,4.930126 -4.20903,8.899145 -9.43728,8.899145 H 28.901853 c -5.228257,0 -9.437286,-3.969019 -9.437286,-8.899145 V 56.322645 c 0,-4.930126 4.209029,-8.899145 9.437286,-8.899145 z"
         style="fill:none;fill-opacity:1;stroke:#000000;stroke-width:1.13385832;stroke-miterlimit:4;stroke-dasharray:none;paint-order:markers fill stroke" />
      <path
         id="rect945"
         d="m 105.24281,53.706535 h 51.00259 c 2.92507,0 5.27992,2.619542 5.27992,5.873413 v 28.00689 c 0,3.253871 -2.35485,5.873413 -5.27992,5.873413 h -51.00259 c -2.92508,0 -5.279927,-2.619542 -5.279927,-5.873413 v -28.00689 c 0,-3.253871 2.354847,-5.873413 5.279927,-5.873413 z"
         style="fill:#ebebeb;fill-opacity:1;stroke:#000000;stroke-width:1.13385832;stroke-miterlimit:4;stroke-dasharray:none;paint-order:markers fill stroke" />
      <path
         id="rect903"
         d="m 105.76072,61.950233 h 21.32743 v 23.266291 h -21.32743 z"
         style="fill:#d6d6d6;fill-opacity:1;stroke:#000000;stroke-width:1.13385832;stroke-miterlimit:4;stroke-dasharray:none;paint-order:markers fill stroke" />
      <g
         id="text907"
         style="font-style:normal;font-weight:normal;font-size:40px;line-height:1.25;font-family:sans-serif;letter-spacing:0px;word-spacing:0px;fill:#000000;fill-opacity:1;stroke:none;stroke-width:1.13385832;stroke-miterlimit:4;stroke-dasharray:none;paint-order:markers fill stroke"
         aria-label="3">
        <path
           id="path151"
           style="font-style:normal;font-variant:normal;font-weight:normal;font-stretch:normal;font-size:16px;font-family:'Fira Mono';-inkscape-font-specification:'Fira Mono';stroke-width:1.13385832;stroke-miterlimit:4;stroke-dasharray:none;paint-order:markers fill stroke"
           d="m 116.29644,68.098225 c -1.136,0 -2.192,0.384 -3.136,1.28 l 0.736,0.816 c 0.736,-0.672 1.392,-1.008 2.336,-1.008 1.168,0 2.08,0.656 2.08,1.856 0,1.328 -1.024,1.92 -2.08,1.92 h -0.656 l -0.16,1.072 h 0.912 c 1.312,0 2.288,0.512 2.288,2.096 0,1.376 -0.912,2.24 -2.448,2.24 -0.896,0 -1.824,-0.352 -2.448,-1.088 l -0.896,0.736 c 0.832,1.008 2.144,1.456 3.376,1.456 2.288,0 3.824,-1.44 3.824,-3.344 0,-1.712 -1.216,-2.608 -2.496,-2.704 1.152,-0.224 2.144,-1.232 2.144,-2.56 0,-1.504 -1.296,-2.768 -3.376,-2.768 z" />
      </g>
      <path
         id="rect909"
         d="m 134.40005,61.950233 h 21.32744 v 23.266291 h -21.32744 z"
         style="fill:#d6d6d6;fill-opacity:1;stroke:#000000;stroke-width:1.13385832;stroke-miterlimit:4;stroke-dasharray:none;paint-order:markers fill stroke" />
      <path
         id="rect947"
         d="m 30.790678,53.706535 h 51.002591 c 2.925076,0 5.279922,2.619542 5.279922,5.873413 v 28.00689 c 0,3.253871 -2.354846,5.873413 -5.279922,5.873413 H 30.790678 c -2.925077,0 -5.279922,-2.619542 -5.279922,-5.873413 v -28.00689 c 0,-3.253871 2.354845,-5.873413 5.279922,-5.873413 z"
         style="fill:#ebebeb;fill-opacity:1;stroke:#000000;stroke-width:1.13385832;stroke-miterlimit:4;stroke-dasharray:none;paint-order:markers fill stroke" />
      <g
         id="text913"
         style="font-style:normal;font-weight:normal;font-size:40px;line-height:1.25;font-family:sans-serif;letter-spacing:0px;word-spacing:0px;fill:#000000;fill-opacity:1;stroke:none;stroke-width:1.13385832;stroke-miterlimit:4;stroke-dasharray:none;paint-order:markers fill stroke"
         aria-label="4">
        <path
           id="path156"
           style="font-style:normal;font-variant:normal;font-weight:normal;font-stretch:normal;font-size:16px;font-family:'Fira Mono';-inkscape-font-specification:'Fira Mono';stroke-width:1.13385832;stroke-miterlimit:4;stroke-dasharray:none;paint-order:markers fill stroke"
           d="m 148.71178,75.538225 h -1.424 v -3.12 h -1.168 l -0.112,3.12 h -3.168 l 2.928,-6.96 -1.12,-0.48 -3.232,7.536 v 0.992 h 4.576 v 2.672 h 1.296 v -2.672 h 1.424 z" />
      </g>
      <path
         id="rect891"
         d="M 31.308592,61.950233 H 52.636024 V 85.216524 H 31.308592 Z"
         style="fill:#d6d6d6;fill-opacity:1;stroke:#000000;stroke-width:1.13385832;stroke-miterlimit:4;stroke-dasharray:none;paint-order:markers fill stroke" />
      <g
         id="text895"
         style="font-style:normal;font-weight:normal;font-size:40px;line-height:1.25;font-family:sans-serif;letter-spacing:0px;word-spacing:0px;fill:#000000;fill-opacity:1;stroke:none;stroke-width:1.13385832;stroke-miterlimit:4;stroke-dasharray:none;paint-order:markers fill stroke"
         aria-label="1">
        <path
           id="path160"
           style="font-style:normal;font-variant:normal;font-weight:normal;font-stretch:normal;font-size:16px;font-family:'Fira Mono';-inkscape-font-specification:'Fira Mono';stroke-width:1.13385832;stroke-miterlimit:4;stroke-dasharray:none;paint-order:markers fill stroke"
           d="m 43.060309,78.210225 v -9.936 h -1.184 l -3.28,2.048 0.592,0.944 2.512,-1.52 v 8.464 h -2.704 v 1.088 h 6.352 v -1.088 z" />
      </g>
      <path
         id="rect897"
         d="M 59.947926,61.950233 H 81.275358 V 85.216524 H 59.947926 Z"
         style="fill:#d6d6d6;fill-opacity:1;stroke:#000000;stroke-width:1.13385832;stroke-miterlimit:4;stroke-dasharray:none;paint-order:markers fill stroke" />
      <g
         id="text901"
         style="font-style:normal;font-weight:normal;font-size:40px;line-height:1.25;font-family:sans-serif;letter-spacing:0px;word-spacing:0px;fill:#000000;fill-opacity:1;stroke:none;stroke-width:1.13385832;stroke-miterlimit:4;stroke-dasharray:none;paint-order:markers fill stroke"
         aria-label="2">
        <path
           id="path164"
           style="font-style:normal;font-variant:normal;font-weight:normal;font-stretch:normal;font-size:16px;font-family:'Fira Mono';-inkscape-font-specification:'Fira Mono';stroke-width:1.13385832;stroke-miterlimit:4;stroke-dasharray:none;paint-order:markers fill stroke"
           d="m 70.499641,68.098225 c -1.488,0 -2.496,0.528 -3.36,1.584 l 0.928,0.72 c 0.704,-0.816 1.296,-1.168 2.368,-1.168 1.232,0 1.984,0.752 1.984,1.984 0,1.792 -0.896,3.008 -5.056,6.992 v 1.088 h 6.56 l 0.16,-1.152 h -5.184 c 3.632,-3.312 4.928,-4.944 4.928,-6.976 0,-1.744 -1.248,-3.072 -3.328,-3.072 z" />
      </g>
    </g>
  </g>
</svg>
