<?xml version="1.0" encoding="UTF-8" standalone="no"?>
<svg
   xmlns:dc="http://purl.org/dc/elements/1.1/"
   xmlns:cc="http://creativecommons.org/ns#"
   xmlns:rdf="http://www.w3.org/1999/02/22-rdf-syntax-ns#"
   xmlns:svg="http://www.w3.org/2000/svg"
   xmlns="http://www.w3.org/2000/svg"
   viewBox="0 0 346.10881 217.03353"
   height="57.423454mm"
   width="91.574623mm"
   id="svg2"
   version="1.1">
  <metadata
     id="metadata8">
    <rdf:RDF>
      <cc:Work
         rdf:about="">
        <dc:format>image/svg+xml</dc:format>
        <dc:type
           rdf:resource="http://purl.org/dc/dcmitype/StillImage" />
        <dc:title />
      </cc:Work>
    </rdf:RDF>
  </metadata>
  <defs
     id="defs6" />
  <g
     id="text916"
     style="font-style:normal;font-weight:normal;font-size:40px;line-height:1.25;font-family:Mono-serif;letter-spacing:0px;word-spacing:0px;fill:#000000;fill-opacity:1;stroke:none;stroke-width:1.13385832;stroke-miterlimit:4;stroke-dasharray:none;paint-order:markers fill stroke"
     aria-label="x1">
    <path
       id="path56"
       style="font-style:normal;font-variant:normal;font-weight:normal;font-stretch:normal;font-size:16px;font-family:'Fira Mono';-inkscape-font-specification:'Fira Mono';stroke-width:1.13385832;stroke-miterlimit:4;stroke-dasharray:none;paint-order:markers fill stroke"
       d="m 54.11715,30.097639 2.32,-3.616 2.32,3.616 h 1.632 l -3.104,-4.512 2.736,-3.92 h -1.552 l -1.968,3.136 -1.952,-3.136 h -1.6 l 2.736,3.984 -3.104,4.448 z" />
    <path
       id="path58"
       style="font-style:normal;font-variant:normal;font-weight:normal;font-stretch:normal;font-size:16px;font-family:'Fira Mono';-inkscape-font-specification:'Fira Mono';stroke-width:1.13385832;stroke-miterlimit:4;stroke-dasharray:none;paint-order:markers fill stroke"
       d="m 67.2629,29.009639 v -9.936 h -1.184 l -3.28,2.048 0.592,0.944 2.512,-1.52 v 8.464 h -2.704 v 1.088 h 6.352 v -1.088 z" />
  </g>
  <rect
     style="fill:none;fill-opacity:1;stroke:#000000;stroke-width:1.17697418;stroke-miterlimit:4;stroke-dasharray:none;paint-order:markers fill stroke"
     id="rect918"
     width="84.019028"
     height="103.61289"
     x="19.486124"
     y="45.792259"
     rx="7.381937"
     ry="6.5861344" />
  <rect
     ry="0"
     rx="0"
     y="109.42575"
     x="40.168205"
     height="23.266291"
     width="21.327433"
     id="rect922"
     style="fill:#ebebeb;fill-opacity:1;stroke:#000000;stroke-width:1.13385832;stroke-miterlimit:4;stroke-dasharray:none;paint-order:markers fill stroke" />
  <g
     id="text926"
     style="font-style:normal;font-weight:normal;font-size:40px;line-height:1.25;font-family:Mono-serif;letter-spacing:0px;word-spacing:0px;fill:#000000;fill-opacity:1;stroke:none;stroke-width:1.13385832;stroke-miterlimit:4;stroke-dasharray:none;paint-order:markers fill stroke"
     aria-label="3">
    <path
       id="path61"
       style="font-style:normal;font-variant:normal;font-weight:normal;font-stretch:normal;font-size:16px;font-family:'Fira Mono';-inkscape-font-specification:'Fira Mono';stroke-width:1.13385832;stroke-miterlimit:4;stroke-dasharray:none;paint-order:markers fill stroke"
       d="m 50.703921,115.57373 c -1.136,0 -2.192,0.384 -3.136,1.28 l 0.736,0.816 c 0.736,-0.672 1.392,-1.008 2.336,-1.008 1.168,0 2.08,0.656 2.08,1.856 0,1.328 -1.024,1.92 -2.08,1.92 h -0.656 l -0.16,1.072 h 0.912 c 1.312,0 2.288,0.512 2.288,2.096 0,1.376 -0.912,2.24 -2.448,2.24 -0.896,0 -1.824,-0.352 -2.448,-1.088 l -0.896,0.736 c 0.832,1.008 2.144,1.456 3.376,1.456 2.288,0 3.824,-1.44 3.824,-3.344 0,-1.712 -1.216,-2.608 -2.496,-2.704 1.152,-0.224 2.144,-1.232 2.144,-2.56 0,-1.504 -1.296,-2.768 -3.376,-2.768 z" />
  </g>
  <rect
     style="fill:#ebebeb;fill-opacity:1;stroke:#000000;stroke-width:1.13385832;stroke-miterlimit:4;stroke-dasharray:none;paint-order:markers fill stroke"
     id="rect928"
     width="21.327433"
     height="23.266291"
     x="61.495636"
     y="109.42575"
     rx="0"
     ry="0" />
  <g
     id="text932"
     style="font-style:normal;font-weight:normal;font-size:40px;line-height:1.25;font-family:Mono-serif;letter-spacing:0px;word-spacing:0px;fill:#000000;fill-opacity:1;stroke:none;stroke-width:1.13385832;stroke-miterlimit:4;stroke-dasharray:none;paint-order:markers fill stroke"
     aria-label="4">
    <path
       id="path64"
       style="font-style:normal;font-variant:normal;font-weight:normal;font-stretch:normal;font-size:16px;font-family:'Fira Mono';-inkscape-font-specification:'Fira Mono';stroke-width:1.13385832;stroke-miterlimit:4;stroke-dasharray:none;paint-order:markers fill stroke"
       d="m 75.807352,123.01373 h -1.424 v -3.12 h -1.168 l -0.112,3.12 h -3.168 l 2.928,-6.96 -1.12,-0.48 -3.232,7.536 v 0.992 h 4.576 v 2.672 h 1.296 v -2.672 h 1.424 z" />
  </g>
  <rect
     style="fill:#ebebeb;fill-opacity:1;stroke:#000000;stroke-width:1.13385832;stroke-miterlimit:4;stroke-dasharray:none;paint-order:markers fill stroke"
     id="rect938"
     width="21.327433"
     height="23.266291"
     x="40.168205"
     y="62.505383"
     rx="0"
     ry="0" />
  <g
     id="text942"
     style="font-style:normal;font-weight:normal;font-size:40px;line-height:1.25;font-family:Mono-serif;letter-spacing:0px;word-spacing:0px;fill:#000000;fill-opacity:1;stroke:none;stroke-width:1.13385832;stroke-miterlimit:4;stroke-dasharray:none;paint-order:markers fill stroke"
     aria-label="1">
    <path
       id="path67"
       style="font-style:normal;font-variant:normal;font-weight:normal;font-stretch:normal;font-size:16px;font-family:'Fira Mono';-inkscape-font-specification:'Fira Mono';stroke-width:1.13385832;stroke-miterlimit:4;stroke-dasharray:none;paint-order:markers fill stroke"
       d="m 51.919921,78.765378 v -9.936 h -1.184 l -3.28,2.048 0.592,0.944 2.512,-1.52 v 8.464 h -2.704 v 1.088 h 6.352 v -1.088 z" />
  </g>
  <rect
     ry="0"
     rx="0"
     y="62.505383"
     x="61.495636"
     height="23.266291"
     width="21.327433"
     id="rect944"
     style="fill:#ebebeb;fill-opacity:1;stroke:#000000;stroke-width:1.13385832;stroke-miterlimit:4;stroke-dasharray:none;paint-order:markers fill stroke" />
  <g
     id="text948"
     style="font-style:normal;font-weight:normal;font-size:40px;line-height:1.25;font-family:Mono-serif;letter-spacing:0px;word-spacing:0px;fill:#000000;fill-opacity:1;stroke:none;stroke-width:1.13385832;stroke-miterlimit:4;stroke-dasharray:none;paint-order:markers fill stroke"
     aria-label="2">
    <path
       id="path70"
       style="font-style:normal;font-variant:normal;font-weight:normal;font-stretch:normal;font-size:16px;font-family:'Fira Mono';-inkscape-font-specification:'Fira Mono';stroke-width:1.13385832;stroke-miterlimit:4;stroke-dasharray:none;paint-order:markers fill stroke"
       d="m 72.047355,68.653378 c -1.488,0 -2.496,0.528 -3.36,1.584 l 0.928,0.72 c 0.704,-0.816 1.296,-1.168 2.368,-1.168 1.232,0 1.984,0.752 1.984,1.984 0,1.792 -0.896,3.008 -5.056,6.992 v 1.088 h 6.56 l 0.16,-1.152 h -5.184 c 3.632,-3.312 4.928,-4.944 4.928,-6.976 0,-1.744 -1.248,-3.072 -3.328,-3.072 z" />
  </g>
  <rect
     ry="6.5861344"
     rx="7.381937"
     y="45.792259"
     x="132.7216"
     height="103.61289"
     width="84.019028"
     id="rect68"
     style="fill:none;fill-opacity:1;stroke:#000000;stroke-width:1.17697418;stroke-miterlimit:4;stroke-dasharray:none;paint-order:markers fill stroke" />
  <g
     id="text919"
     style="font-style:normal;font-weight:normal;font-size:40px;line-height:1.25;font-family:Mono-serif;letter-spacing:0px;word-spacing:0px;fill:#000000;fill-opacity:1;stroke:none;stroke-width:1.13385832;stroke-miterlimit:4;stroke-dasharray:none;paint-order:markers fill stroke"
     aria-label="x2">
    <path
       id="path73"
       style="font-style:normal;font-variant:normal;font-weight:normal;font-stretch:normal;font-size:16px;font-family:'Fira Mono';-inkscape-font-specification:'Fira Mono';stroke-width:1.13385832;stroke-miterlimit:4;stroke-dasharray:none;paint-order:markers fill stroke"
       d="m 169.22588,30.097639 2.32,-3.616 2.32,3.616 h 1.632 l -3.104,-4.512 2.736,-3.92 h -1.552 l -1.968,3.136 -1.952,-3.136 h -1.6 l 2.736,3.984 -3.104,4.448 z" />
    <path
       id="path75"
       style="font-style:normal;font-variant:normal;font-weight:normal;font-stretch:normal;font-size:16px;font-family:'Fira Mono';-inkscape-font-specification:'Fira Mono';stroke-width:1.13385832;stroke-miterlimit:4;stroke-dasharray:none;paint-order:markers fill stroke"
       d="m 180.69163,18.897639 c -1.488,0 -2.496,0.528 -3.36,1.584 l 0.928,0.72 c 0.704,-0.816 1.296,-1.168 2.368,-1.168 1.232,0 1.984,0.752 1.984,1.984 0,1.792 -0.896,3.008 -5.056,6.992 v 1.088 h 6.56 l 0.16,-1.152 h -5.184 c 3.632,-3.312 4.928,-4.944 4.928,-6.976 0,-1.744 -1.248,-3.072 -3.328,-3.072 z" />
  </g>
  <rect
     style="fill:#ebebeb;fill-opacity:1;stroke:#000000;stroke-width:1.13385832;stroke-miterlimit:4;stroke-dasharray:none;paint-order:markers fill stroke"
     id="rect945"
     width="61.562435"
     height="39.753716"
     x="143.94991"
     y="101.18203"
     rx="5.279922"
     ry="5.8734126" />
  <rect
     ry="0"
     rx="0"
     y="109.42572"
     x="149.74774"
     height="23.266291"
     width="21.327433"
     id="rect903"
     style="fill:#d6d6d6;fill-opacity:1;stroke:#000000;stroke-width:1.13385832;stroke-miterlimit:4;stroke-dasharray:none;paint-order:markers fill stroke" />
  <g
     id="text907"
     style="font-style:normal;font-weight:normal;font-size:40px;line-height:1.25;font-family:Mono-serif;letter-spacing:0px;word-spacing:0px;fill:#000000;fill-opacity:1;stroke:none;stroke-width:1.13385832;stroke-miterlimit:4;stroke-dasharray:none;paint-order:markers fill stroke"
     aria-label="3">
    <path
       id="path78"
       style="font-style:normal;font-variant:normal;font-weight:normal;font-stretch:normal;font-size:16px;font-family:'Fira Mono';-inkscape-font-specification:'Fira Mono';stroke-width:1.13385832;stroke-miterlimit:4;stroke-dasharray:none;paint-order:markers fill stroke"
       d="m 160.28346,115.57372 c -1.136,0 -2.192,0.384 -3.136,1.28 l 0.736,0.816 c 0.736,-0.672 1.392,-1.008 2.336,-1.008 1.168,0 2.08,0.656 2.08,1.856 0,1.328 -1.024,1.92 -2.08,1.92 h -0.656 l -0.16,1.072 h 0.912 c 1.312,0 2.288,0.512 2.288,2.096 0,1.376 -0.912,2.24 -2.448,2.24 -0.896,0 -1.824,-0.352 -2.448,-1.088 l -0.896,0.736 c 0.832,1.008 2.144,1.456 3.376,1.456 2.288,0 3.824,-1.44 3.824,-3.344 0,-1.712 -1.216,-2.608 -2.496,-2.704 1.152,-0.224 2.144,-1.232 2.144,-2.56 0,-1.504 -1.296,-2.768 -3.376,-2.768 z" />
  </g>
  <rect
     style="fill:#d6d6d6;fill-opacity:1;stroke:#000000;stroke-width:1.13385832;stroke-miterlimit:4;stroke-dasharray:none;paint-order:markers fill stroke"
     id="rect909"
     width="21.327433"
     height="23.266291"
     x="178.38708"
     y="109.42572"
     rx="0"
     ry="0" />
  <g
     id="text913"
     style="font-style:normal;font-weight:normal;font-size:40px;line-height:1.25;font-family:Mono-serif;letter-spacing:0px;word-spacing:0px;fill:#000000;fill-opacity:1;stroke:none;stroke-width:1.13385832;stroke-miterlimit:4;stroke-dasharray:none;paint-order:markers fill stroke"
     aria-label="4">
    <path
       id="path81"
       style="font-style:normal;font-variant:normal;font-weight:normal;font-stretch:normal;font-size:16px;font-family:'Fira Mono';-inkscape-font-specification:'Fira Mono';stroke-width:1.13385832;stroke-miterlimit:4;stroke-dasharray:none;paint-order:markers fill stroke"
       d="m 192.69881,123.01372 h -1.424 v -3.12 h -1.168 l -0.112,3.12 h -3.168 l 2.928,-6.96 -1.12,-0.48 -3.232,7.536 v 0.992 h 4.576 v 2.672 h 1.296 v -2.672 h 1.424 z" />
  </g>
  <rect
     ry="5.8734126"
     rx="5.279922"
     y="54.261673"
     x="143.94991"
     height="39.753716"
     width="61.562435"
     id="rect947"
     style="fill:#ebebeb;fill-opacity:1;stroke:#000000;stroke-width:1.13385832;stroke-miterlimit:4;stroke-dasharray:none;paint-order:markers fill stroke" />
  <rect
     style="fill:#d6d6d6;fill-opacity:1;stroke:#000000;stroke-width:1.13385832;stroke-miterlimit:4;stroke-dasharray:none;paint-order:markers fill stroke"
     id="rect891"
     width="21.327433"
     height="23.266291"
     x="149.74774"
     y="62.505367"
     rx="0"
     ry="0" />
  <g
     id="text895"
     style="font-style:normal;font-weight:normal;font-size:40px;line-height:1.25;font-family:Mono-serif;letter-spacing:0px;word-spacing:0px;fill:#000000;fill-opacity:1;stroke:none;stroke-width:1.13385832;stroke-miterlimit:4;stroke-dasharray:none;paint-order:markers fill stroke"
     aria-label="1">
    <path
       id="path84"
       style="font-style:normal;font-variant:normal;font-weight:normal;font-stretch:normal;font-size:16px;font-family:'Fira Mono';-inkscape-font-specification:'Fira Mono';stroke-width:1.13385832;stroke-miterlimit:4;stroke-dasharray:none;paint-order:markers fill stroke"
       d="m 161.49946,78.765363 v -9.936 h -1.184 l -3.28,2.048 0.592,0.944 2.512,-1.52 v 8.464 h -2.704 v 1.088 h 6.352 v -1.088 z" />
  </g>
  <rect
     ry="0"
     rx="0"
     y="62.505367"
     x="178.38708"
     height="23.266291"
     width="21.327433"
     id="rect897"
     style="fill:#d6d6d6;fill-opacity:1;stroke:#000000;stroke-width:1.13385832;stroke-miterlimit:4;stroke-dasharray:none;paint-order:markers fill stroke" />
  <g
     id="text901"
     style="font-style:normal;font-weight:normal;font-size:40px;line-height:1.25;font-family:Mono-serif;letter-spacing:0px;word-spacing:0px;fill:#000000;fill-opacity:1;stroke:none;stroke-width:1.13385832;stroke-miterlimit:4;stroke-dasharray:none;paint-order:markers fill stroke"
     aria-label="2">
    <path
       id="path87"
       style="font-style:normal;font-variant:normal;font-weight:normal;font-stretch:normal;font-size:16px;font-family:'Fira Mono';-inkscape-font-specification:'Fira Mono';stroke-width:1.13385832;stroke-miterlimit:4;stroke-dasharray:none;paint-order:markers fill stroke"
       d="m 188.9388,68.653363 c -1.488,0 -2.496,0.528 -3.36,1.584 l 0.928,0.72 c 0.704,-0.816 1.296,-1.168 2.368,-1.168 1.232,0 1.984,0.752 1.984,1.984 0,1.792 -0.896,3.008 -5.056,6.992 v 1.088 h 6.56 l 0.16,-1.152 h -5.184 c 3.632,-3.312 4.928,-4.944 4.928,-6.976 0,-1.744 -1.248,-3.072 -3.328,-3.072 z" />
  </g>
  <g
     transform="translate(54.128622,-1.635938)"
     id="g426">
    <path
       id="rect1360"
       d="m 199.11433,47.540394 h 66.09387 c 4.0386,0 7.2899,3.251296 7.2899,7.289901 V 191.89748 c 0,4.03861 -3.2513,7.2899 -7.2899,7.2899 h -66.09387 c -4.0386,0 -7.2899,-3.25129 -7.2899,-7.2899 V 54.830295 c 0,-4.038605 3.2513,-7.289901 7.2899,-7.289901 z"
       style="fill:none;fill-opacity:1;stroke:#000000;stroke-width:1.16888177;stroke-miterlimit:4;stroke-dasharray:none;paint-order:markers fill stroke" />
    <g
       id="text1000"
       style="font-style:normal;font-weight:normal;font-size:40px;line-height:1.25;font-family:Mono-serif;letter-spacing:0px;word-spacing:0px;fill:#000000;fill-opacity:1;stroke:none;stroke-width:1.13385832;stroke-miterlimit:4;stroke-dasharray:none;paint-order:markers fill stroke"
       aria-label="x3">
      <path
         id="path91"
         style="font-style:normal;font-variant:normal;font-weight:normal;font-stretch:normal;font-size:16px;font-family:'Fira Mono';-inkscape-font-specification:'Fira Mono';stroke-width:1.13385832;stroke-miterlimit:4;stroke-dasharray:none;paint-order:markers fill stroke"
         d="m 225.33239,31.733576 2.32,-3.616 2.32,3.616 h 1.632 l -3.104,-4.512 2.736,-3.92 h -1.552 l -1.968,3.136 -1.952,-3.136 h -1.6 l 2.736,3.984 -3.104,4.448 z" />
      <path
         id="path93"
         style="font-style:normal;font-variant:normal;font-weight:normal;font-stretch:normal;font-size:16px;font-family:'Fira Mono';-inkscape-font-specification:'Fira Mono';stroke-width:1.13385832;stroke-miterlimit:4;stroke-dasharray:none;paint-order:markers fill stroke"
         d="m 236.79814,20.533576 c -1.136,0 -2.192,0.384 -3.136,1.28 l 0.736,0.816 c 0.736,-0.672 1.392,-1.008 2.336,-1.008 1.168,0 2.08,0.656 2.08,1.856 0,1.328 -1.024,1.92 -2.08,1.92 h -0.656 l -0.16,1.072 h 0.912 c 1.312,0 2.288,0.512 2.288,2.096 0,1.376 -0.912,2.24 -2.448,2.24 -0.896,0 -1.824,-0.352 -2.448,-1.088 l -0.896,0.736 c 0.832,1.008 2.144,1.456 3.376,1.456 2.288,0 3.824,-1.44 3.824,-3.344 0,-1.712 -1.216,-2.608 -2.496,-2.704 1.152,-0.224 2.144,-1.232 2.144,-2.56 0,-1.504 -1.296,-2.768 -3.376,-2.768 z" />
    </g>
    <g
       transform="translate(0,4.3749408)"
       id="g93">
      <path
         id="rect1004"
         d="m 104.28406,-259.86417 h 73.55141 c 3.39319,0 6.12489,2.7317 6.12489,6.12489 v 43.15603 c 0,3.39319 -2.7317,6.12488 -6.12489,6.12488 h -73.55141 c -3.39318,0 -6.12488,-2.73169 -6.12488,-6.12488 v -43.15603 c 0,-3.39319 2.7317,-6.12489 6.12488,-6.12489 z"
         style="fill:#ebebeb;fill-opacity:1;stroke:#000000;stroke-width:1.13385832;stroke-miterlimit:4;stroke-dasharray:none;paint-order:markers fill stroke"
         transform="rotate(90)" />
      <g
         id="g81">
        <g
           id="g71">
          <path
             id="rect1006"
             d="m 106.88194,-242.82484 h 23.26616 v 21.32715 h -23.26616 z"
             style="fill:#d6d6d6;fill-opacity:1;stroke:#000000;stroke-width:1.13384748;stroke-miterlimit:4;stroke-dasharray:none;paint-order:markers fill stroke"
             transform="rotate(90)" />
          <g
             id="text1010"
             style="font-style:normal;font-weight:normal;font-size:40px;line-height:1.25;font-family:Mono-serif;letter-spacing:0px;word-spacing:0px;fill:#000000;fill-opacity:1;stroke:none;stroke-width:1.13385832;stroke-miterlimit:4;stroke-dasharray:none;paint-order:markers fill stroke"
             aria-label="2">
            <path
               id="path98"
               style="font-style:normal;font-variant:normal;font-weight:normal;font-stretch:normal;font-size:16px;font-family:'Fira Mono';-inkscape-font-specification:'Fira Mono';stroke-width:1.13385832;stroke-miterlimit:4;stroke-dasharray:none;paint-order:markers fill stroke"
               d="m 232.04927,112.91501 c -1.488,0 -2.496,0.528 -3.36,1.584 l 0.928,0.72 c 0.704,-0.816 1.296,-1.168 2.368,-1.168 1.232,0 1.984,0.752 1.984,1.984 0,1.792 -0.896,3.008 -5.056,6.992 v 1.088 h 6.56 l 0.16,-1.152 h -5.184 c 3.632,-3.312 4.928,-4.944 4.928,-6.976 0,-1.744 -1.248,-3.072 -3.328,-3.072 z" />
          </g>
        </g>
        <path
           id="rect1175"
           d="m 144.02682,-250.69717 h 24.32796 c 2.95378,0 5.33172,2.37795 5.33172,5.33172 v 26.40836 c 0,2.95378 -2.37794,5.33173 -5.33172,5.33173 h -24.32796 c -2.95377,0 -5.33172,-2.37795 -5.33172,-5.33173 v -26.40836 c 0,-2.95377 2.37795,-5.33172 5.33172,-5.33172 z"
           style="fill:#d6d6d6;fill-opacity:1;stroke:#000000;stroke-width:1.13385832;stroke-miterlimit:4;stroke-dasharray:none;paint-order:markers fill stroke"
           transform="rotate(90)" />
        <path
           id="rect1012"
           d="m 144.55772,-242.82484 h 23.26616 v 21.32715 h -23.26616 z"
           style="fill:#a9a9a9;fill-opacity:1;stroke:#000000;stroke-width:1.13384748;stroke-miterlimit:4;stroke-dasharray:none;paint-order:markers fill stroke"
           transform="rotate(90)" />
        <g
           id="text1016"
           style="font-style:normal;font-weight:normal;font-size:40px;line-height:1.25;font-family:Mono-serif;letter-spacing:0px;word-spacing:0px;fill:#000000;fill-opacity:1;stroke:none;stroke-width:1.13385832;stroke-miterlimit:4;stroke-dasharray:none;paint-order:markers fill stroke"
           aria-label="3">
          <path
             id="path103"
             style="font-style:normal;font-variant:normal;font-weight:normal;font-stretch:normal;font-size:16px;font-family:'Fira Mono';-inkscape-font-specification:'Fira Mono';stroke-width:1.13385832;stroke-miterlimit:4;stroke-dasharray:none;paint-order:markers fill stroke"
             d="m 232.03326,150.5028 c -1.136,0 -2.192,0.384 -3.136,1.28 l 0.736,0.816 c 0.736,-0.672 1.392,-1.008 2.336,-1.008 1.168,0 2.08,0.656 2.08,1.856 0,1.328 -1.024,1.92 -2.08,1.92 h -0.656 l -0.16,1.072 h 0.912 c 1.312,0 2.288,0.512 2.288,2.096 0,1.376 -0.912,2.24 -2.448,2.24 -0.896,0 -1.824,-0.352 -2.448,-1.088 l -0.896,0.736 c 0.832,1.008 2.144,1.456 3.376,1.456 2.288,0 3.824,-1.44 3.824,-3.344 0,-1.712 -1.216,-2.608 -2.496,-2.704 1.152,-0.224 2.144,-1.232 2.144,-2.56 0,-1.504 -1.296,-2.768 -3.376,-2.768 z" />
        </g>
      </g>
    </g>
    <path
       id="rect1022"
       d="m 221.49754,64.141304 h 21.32744 v 23.266291 h -21.32744 z"
       style="fill:#d6d6d6;fill-opacity:1;stroke:#000000;stroke-width:1.13385832;stroke-miterlimit:4;stroke-dasharray:none;paint-order:markers fill stroke" />
    <g
       id="text1026"
       style="font-style:normal;font-weight:normal;font-size:40px;line-height:1.25;font-family:Mono-serif;letter-spacing:0px;word-spacing:0px;fill:#000000;fill-opacity:1;stroke:none;stroke-width:1.13385832;stroke-miterlimit:4;stroke-dasharray:none;paint-order:markers fill stroke"
       aria-label="1">
      <path
         id="path107"
         style="font-style:normal;font-variant:normal;font-weight:normal;font-stretch:normal;font-size:16px;font-family:'Fira Mono';-inkscape-font-specification:'Fira Mono';stroke-width:1.13385832;stroke-miterlimit:4;stroke-dasharray:none;paint-order:markers fill stroke"
         d="m 233.24926,80.401296 v -9.936 h -1.184 l -3.28,2.048 0.592,0.944 2.512,-1.52 v 8.464 h -2.704 v 1.088 h 6.352 v -1.088 z" />
    </g>
  </g>
</svg>
