<?xml version="1.0" encoding="UTF-8" standalone="no"?>
<svg
   xmlns:dc="http://purl.org/dc/elements/1.1/"
   xmlns:cc="http://creativecommons.org/ns#"
   xmlns:rdf="http://www.w3.org/1999/02/22-rdf-syntax-ns#"
   xmlns:svg="http://www.w3.org/2000/svg"
   xmlns="http://www.w3.org/2000/svg"
   viewBox="0 0 328.64317 164.09555"
   height="43.41695mm"
   width="86.953506mm"
   id="svg2"
   version="1.1">
  <metadata
     id="metadata8">
    <rdf:RDF>
      <cc:Work
         rdf:about="">
        <dc:format>image/svg+xml</dc:format>
        <dc:type
           rdf:resource="http://purl.org/dc/dcmitype/StillImage" />
        <dc:title />
      </cc:Work>
    </rdf:RDF>
  </metadata>
  <defs
     id="defs6" />
  <g
     transform="translate(-0.08307098)"
     id="g5848">
    <g
       id="text919"
       style="font-style:normal;font-weight:normal;font-size:40px;line-height:1.25;font-family:Mono-serif;letter-spacing:0px;word-spacing:0px;fill:#000000;fill-opacity:1;stroke:none;stroke-width:1.13385832;stroke-miterlimit:4;stroke-dasharray:none;paint-order:markers fill stroke"
       aria-label="x">
      <path
         id="path63"
         style="font-style:normal;font-variant:normal;font-weight:normal;font-stretch:normal;font-size:16px;font-family:'Fira Mono';-inkscape-font-specification:'Fira Mono';stroke-width:1.13385832;stroke-miterlimit:4;stroke-dasharray:none;paint-order:markers fill stroke"
         d="m 68.996812,31.733576 2.32,-3.616 2.32,3.616 h 1.632 l -3.104,-4.512 2.736,-3.92 h -1.552 l -1.968,3.136 -1.952,-3.136 h -1.6 l 2.736,3.984 -3.104,4.448 z" />
    </g>
    <g
       id="g273">
      <path
         id="rect923"
         d="m 24.065423,47.506569 h 94.598787 c 2.50285,0 4.51778,2.014932 4.51778,4.517785 V 140.1132 c 0,2.50286 -2.01493,4.51779 -4.51778,4.51779 H 24.065423 c -2.502853,0 -4.517785,-2.01493 -4.517785,-4.51779 V 52.024354 c 0,-2.502853 2.014932,-4.517785 4.517785,-4.517785 z"
         style="fill:none;fill-opacity:1;stroke:#000000;stroke-width:1.13385832;stroke-miterlimit:4;stroke-dasharray:none;paint-order:markers fill stroke" />
      <g
         id="g5857"
         transform="translate(-73.827042,-0.21706581)"
         style="stroke-width:1.13385832;stroke-miterlimit:4;stroke-dasharray:none">
        <path
           id="rect945"
           d="m 104.4207,53.823902 h 81.54231 c 2.40461,0 4.34045,1.93584 4.34045,4.340449 v 30.838085 c 0,2.404608 -1.93584,4.340448 -4.34045,4.340448 H 104.4207 c -2.40461,0 -4.34045,-1.93584 -4.34045,-4.340448 V 58.164351 c 0,-2.404609 1.93584,-4.340449 4.34045,-4.340449 z"
           style="fill:#ebebeb;fill-opacity:1;stroke:#000000;stroke-width:1.13385832;stroke-miterlimit:4;stroke-dasharray:none;paint-order:markers fill stroke" />
        <path
           id="rect903"
           d="m 106.08178,61.950233 h 21.32743 v 23.266291 h -21.32743 z"
           style="fill:#d6d6d6;fill-opacity:1;stroke:#000000;stroke-width:1.13385832;stroke-miterlimit:4;stroke-dasharray:none;paint-order:markers fill stroke" />
        <g
           id="text907"
           style="font-style:normal;font-weight:normal;font-size:40px;line-height:1.25;font-family:Mono-serif;letter-spacing:0px;word-spacing:0px;fill:#000000;fill-opacity:1;stroke:none;stroke-width:1.13385832;stroke-miterlimit:4;stroke-dasharray:none;paint-order:markers fill stroke"
           aria-label="1">
          <path
             id="path69"
             style="font-style:normal;font-variant:normal;font-weight:normal;font-stretch:normal;font-size:16px;font-family:'Fira Mono';-inkscape-font-specification:'Fira Mono';stroke-width:1.13385832;stroke-miterlimit:4;stroke-dasharray:none;paint-order:markers fill stroke"
             d="m 117.83349,78.210225 v -9.936 h -1.184 l -3.28,2.048 0.592,0.944 2.512,-1.52 v 8.464 h -2.704 v 1.088 h 6.352 v -1.088 z" />
        </g>
        <path
           id="rect909"
           d="m 134.52815,61.950233 h 21.32744 v 23.266291 h -21.32744 z"
           style="fill:#d6d6d6;fill-opacity:1;stroke:#000000;stroke-width:1.13385832;stroke-miterlimit:4;stroke-dasharray:none;paint-order:markers fill stroke" />
        <g
           id="text913"
           style="font-style:normal;font-weight:normal;font-size:40px;line-height:1.25;font-family:Mono-serif;letter-spacing:0px;word-spacing:0px;fill:#000000;fill-opacity:1;stroke:none;stroke-width:1.13385832;stroke-miterlimit:4;stroke-dasharray:none;paint-order:markers fill stroke"
           aria-label="3">
          <path
             id="path73"
             style="font-style:normal;font-variant:normal;font-weight:normal;font-stretch:normal;font-size:16px;font-family:'Fira Mono';-inkscape-font-specification:'Fira Mono';stroke-width:1.13385832;stroke-miterlimit:4;stroke-dasharray:none;paint-order:markers fill stroke"
             d="m 145.06387,68.098225 c -1.136,0 -2.192,0.384 -3.136,1.28 l 0.736,0.816 c 0.736,-0.672 1.392,-1.008 2.336,-1.008 1.168,0 2.08,0.656 2.08,1.856 0,1.328 -1.024,1.92 -2.08,1.92 h -0.656 l -0.16,1.072 h 0.912 c 1.312,0 2.288,0.512 2.288,2.096 0,1.376 -0.912,2.24 -2.448,2.24 -0.896,0 -1.824,-0.352 -2.448,-1.088 l -0.896,0.736 c 0.832,1.008 2.144,1.456 3.376,1.456 2.288,0 3.824,-1.44 3.824,-3.344 0,-1.712 -1.216,-2.608 -2.496,-2.704 1.152,-0.224 2.144,-1.232 2.144,-2.56 0,-1.504 -1.296,-2.768 -3.376,-2.768 z" />
        </g>
        <path
           id="rect5868"
           d="m 162.9745,61.950233 h 21.32744 V 85.216524 H 162.9745 Z"
           style="fill:#d6d6d6;fill-opacity:1;stroke:#000000;stroke-width:1.13385832;stroke-miterlimit:4;stroke-dasharray:none;paint-order:markers fill stroke" />
        <g
           id="text5872"
           style="font-style:normal;font-weight:normal;font-size:40px;line-height:1.25;font-family:Mono-serif;letter-spacing:0px;word-spacing:0px;fill:#000000;fill-opacity:1;stroke:none;stroke-width:1.13385832;stroke-miterlimit:4;stroke-dasharray:none;paint-order:markers fill stroke"
           aria-label="5">
          <path
             id="path77"
             style="font-style:normal;font-variant:normal;font-weight:normal;font-stretch:normal;font-size:16px;font-family:'Fira Mono';-inkscape-font-specification:'Fira Mono';stroke-width:1.13385832;stroke-miterlimit:4;stroke-dasharray:none;paint-order:markers fill stroke"
             d="m 176.73421,68.274225 h -5.84 v 5.504 h 1.088 c 0.64,-0.224 1.072,-0.368 1.712,-0.368 1.12,0 2,0.592 2,2.352 0,1.712 -0.864,2.608 -2.32,2.608 -0.944,0 -1.696,-0.336 -2.368,-1.024 l -0.832,0.816 c 0.848,0.816 1.872,1.312 3.2,1.312 2.272,0 3.728,-1.456 3.728,-3.664 0,-2.208 -1.216,-3.456 -3.024,-3.456 -0.656,0 -1.232,0.112 -1.888,0.48 v -3.472 h 4.352 z" />
        </g>
        <path
           id="rect5903"
           d="m 104.4207,99.228806 h 81.54231 c 2.40461,0 4.34045,1.935844 4.34045,4.340444 v 30.83809 c 0,2.40461 -1.93584,4.34045 -4.34045,4.34045 H 104.4207 c -2.40461,0 -4.34045,-1.93584 -4.34045,-4.34045 v -30.83809 c 0,-2.4046 1.93584,-4.340444 4.34045,-4.340444 z"
           style="fill:#ebebeb;fill-opacity:1;stroke:#000000;stroke-width:1.13385832;stroke-miterlimit:4;stroke-dasharray:none;paint-order:markers fill stroke" />
        <path
           id="rect5905"
           d="m 106.08178,107.35513 h 21.32743 v 23.26629 h -21.32743 z"
           style="fill:#d6d6d6;fill-opacity:1;stroke:#000000;stroke-width:1.13385832;stroke-miterlimit:4;stroke-dasharray:none;paint-order:markers fill stroke" />
        <g
           id="text5909"
           style="font-style:normal;font-weight:normal;font-size:40px;line-height:1.25;font-family:Mono-serif;letter-spacing:0px;word-spacing:0px;fill:#000000;fill-opacity:1;stroke:none;stroke-width:1.13385832;stroke-miterlimit:4;stroke-dasharray:none;paint-order:markers fill stroke"
           aria-label="2">
          <path
             id="path82"
             style="font-style:normal;font-variant:normal;font-weight:normal;font-stretch:normal;font-size:16px;font-family:'Fira Mono';-inkscape-font-specification:'Fira Mono';stroke-width:1.13385832;stroke-miterlimit:4;stroke-dasharray:none;paint-order:markers fill stroke"
             d="m 116.6335,113.50312 c -1.488,0 -2.496,0.528 -3.36,1.584 l 0.928,0.72 c 0.704,-0.816 1.296,-1.168 2.368,-1.168 1.232,0 1.984,0.752 1.984,1.984 0,1.792 -0.896,3.008 -5.056,6.992 v 1.088 h 6.56 l 0.16,-1.152 h -5.184 c 3.632,-3.312 4.928,-4.944 4.928,-6.976 0,-1.744 -1.248,-3.072 -3.328,-3.072 z" />
        </g>
        <path
           id="rect5913"
           d="m 134.52815,107.35513 h 21.32744 v 23.26629 h -21.32744 z"
           style="fill:#d6d6d6;fill-opacity:1;stroke:#000000;stroke-width:1.13385832;stroke-miterlimit:4;stroke-dasharray:none;paint-order:markers fill stroke" />
        <g
           id="text5917"
           style="font-style:normal;font-weight:normal;font-size:40px;line-height:1.25;font-family:Mono-serif;letter-spacing:0px;word-spacing:0px;fill:#000000;fill-opacity:1;stroke:none;stroke-width:1.13385832;stroke-miterlimit:4;stroke-dasharray:none;paint-order:markers fill stroke"
           aria-label="4">
          <path
             id="path86"
             style="font-style:normal;font-variant:normal;font-weight:normal;font-stretch:normal;font-size:16px;font-family:'Fira Mono';-inkscape-font-specification:'Fira Mono';stroke-width:1.13385832;stroke-miterlimit:4;stroke-dasharray:none;paint-order:markers fill stroke"
             d="m 148.83988,120.94312 h -1.424 v -3.12 h -1.168 l -0.112,3.12 h -3.168 l 2.928,-6.96 -1.12,-0.48 -3.232,7.536 v 0.992 h 4.576 v 2.672 h 1.296 v -2.672 h 1.424 z" />
        </g>
        <path
           id="rect5921"
           d="m 162.9745,107.35513 h 21.32744 v 23.26629 H 162.9745 Z"
           style="fill:#d6d6d6;fill-opacity:1;stroke:#000000;stroke-width:1.13385832;stroke-miterlimit:4;stroke-dasharray:none;paint-order:markers fill stroke" />
        <g
           id="text5925"
           style="font-style:normal;font-weight:normal;font-size:40px;line-height:1.25;font-family:Mono-serif;letter-spacing:0px;word-spacing:0px;fill:#000000;fill-opacity:1;stroke:none;stroke-width:1.13385832;stroke-miterlimit:4;stroke-dasharray:none;paint-order:markers fill stroke"
           aria-label="6">
          <path
             id="path90"
             style="font-style:normal;font-variant:normal;font-weight:normal;font-stretch:normal;font-size:16px;font-family:'Fira Mono';-inkscape-font-specification:'Fira Mono';stroke-width:1.13385832;stroke-miterlimit:4;stroke-dasharray:none;paint-order:markers fill stroke"
             d="m 174.08621,117.53512 c -1.088,0 -1.968,0.432 -2.656,1.472 0.048,-2.688 1.024,-4.416 2.72,-4.416 0.608,0 1.168,0.16 1.68,0.464 l 0.528,-0.896 c -0.624,-0.416 -1.328,-0.656 -2.192,-0.656 -2.576,0 -4.096,2.336 -4.096,6 0,3.28 0.992,5.376 3.664,5.376 1.92,0 3.472,-1.44 3.472,-3.888 0,-2.352 -1.44,-3.456 -3.12,-3.456 z m -0.352,6.256 c -1.568,0 -2.24,-1.12 -2.288,-3.6 0.544,-0.928 1.376,-1.568 2.432,-1.568 1.152,0 1.952,0.608 1.952,2.416 0,1.696 -0.704,2.752 -2.096,2.752 z" />
        </g>
      </g>
    </g>
    <g
       id="text6395"
       style="font-style:normal;font-weight:normal;font-size:40px;line-height:1.25;font-family:Mono-serif;letter-spacing:0px;word-spacing:0px;fill:#000000;fill-opacity:1;stroke:none;stroke-width:1.13385832;stroke-miterlimit:4;stroke-dasharray:none;paint-order:markers fill stroke"
       aria-label="transpose(x)">
      <path
         id="path93"
         style="font-style:normal;font-variant:normal;font-weight:normal;font-stretch:normal;font-size:16px;font-family:'Fira Mono';-inkscape-font-specification:'Fira Mono';stroke-width:1.13385832;stroke-miterlimit:4;stroke-dasharray:none;paint-order:markers fill stroke"
         d="m 181.73123,31.301576 -0.528,-0.912 c -0.448,0.24 -0.992,0.4 -1.616,0.4 -1.152,0 -1.616,-0.496 -1.616,-1.424 v -5.008 h 2.752 l 0.176,-1.056 h -2.928 v -2.064 l -1.344,0.16 v 1.904 h -1.936 v 1.056 h 1.936 v 5.024 c 0,1.472 1.024,2.528 2.832,2.528 0.8,0 1.68,-0.224 2.272,-0.608 z" />
      <path
         id="path95"
         style="font-style:normal;font-variant:normal;font-weight:normal;font-stretch:normal;font-size:16px;font-family:'Fira Mono';-inkscape-font-specification:'Fira Mono';stroke-width:1.13385832;stroke-miterlimit:4;stroke-dasharray:none;paint-order:markers fill stroke"
         d="m 190.31698,23.125576 c -1.52,0 -2.384,0.8 -3.024,2.176 l -0.256,-2 h -2.336 v 1.04 h 1.328 v 6.352 h -1.328 v 1.04 h 4.384 v -1.04 h -1.712 v -3.552 c 0.544,-1.856 1.472,-2.784 2.768,-2.784 h 0.08 v 1.808 h 1.088 l 0.192,-2.864 c -0.368,-0.096 -0.72,-0.176 -1.184,-0.176 z" />
      <path
         id="path97"
         style="font-style:normal;font-variant:normal;font-weight:normal;font-stretch:normal;font-size:16px;font-family:'Fira Mono';-inkscape-font-specification:'Fira Mono';stroke-width:1.13385832;stroke-miterlimit:4;stroke-dasharray:none;paint-order:markers fill stroke"
         d="m 200.26273,29.893576 v -4.048 c 0,-1.664 -1.056,-2.72 -3.152,-2.72 -0.832,0 -1.728,0.16 -2.768,0.528 l 0.368,1.024 c 0.864,-0.304 1.632,-0.432 2.192,-0.432 1.248,0 2,0.448 2,1.68 v 0.688 h -1.248 c -2.544,0 -3.936,0.976 -3.936,2.704 0,1.568 1.024,2.592 2.72,2.592 1.088,0 2.032,-0.4 2.64,-1.184 0.224,0.768 0.816,1.104 1.536,1.2 l 0.336,-0.96 c -0.48,-0.144 -0.688,-0.4 -0.688,-1.072 z m -3.488,1.008 c -1.104,0 -1.616,-0.544 -1.616,-1.6 0,-1.088 0.672,-1.76 2.528,-1.76 h 1.216 v 2.16 c -0.496,0.752 -1.296,1.2 -2.128,1.2 z" />
      <path
         id="path99"
         style="font-style:normal;font-variant:normal;font-weight:normal;font-stretch:normal;font-size:16px;font-family:'Fira Mono';-inkscape-font-specification:'Fira Mono';stroke-width:1.13385832;stroke-miterlimit:4;stroke-dasharray:none;paint-order:markers fill stroke"
         d="m 203.80848,31.733576 h 1.344 v -6.128 c 0.448,-0.672 1.296,-1.408 2.288,-1.408 1.264,0 1.44,0.688 1.44,2.416 v 5.12 h 1.344 v -6.112 c 0,-1.568 -0.72,-2.496 -2.368,-2.496 -0.992,0 -2.112,0.496 -2.784,1.36 l -0.112,-1.184 h -1.152 z" />
      <path
         id="path101"
         style="font-style:normal;font-variant:normal;font-weight:normal;font-stretch:normal;font-size:16px;font-family:'Fira Mono';-inkscape-font-specification:'Fira Mono';stroke-width:1.13385832;stroke-miterlimit:4;stroke-dasharray:none;paint-order:markers fill stroke"
         d="m 216.28223,30.805576 c -0.992,0 -1.888,-0.368 -2.544,-0.912 l -0.752,0.88 c 0.72,0.624 1.76,1.136 3.296,1.136 1.792,0 3.536,-0.704 3.536,-2.512 0,-1.568 -1.088,-2.144 -2.736,-2.592 -1.696,-0.464 -2.224,-0.72 -2.224,-1.488 0,-0.64 0.48,-1.104 1.824,-1.104 1.088,0 1.808,0.336 2.432,0.768 l 0.608,-0.928 c -0.72,-0.512 -1.712,-0.928 -3.072,-0.928 -1.904,0 -3.2,0.896 -3.2,2.304 0,1.472 1.136,2 2.88,2.432 1.792,0.448 2.032,0.848 2.032,1.6 0,0.816 -0.784,1.344 -2.08,1.344 z" />
      <path
         id="path103"
         style="font-style:normal;font-variant:normal;font-weight:normal;font-stretch:normal;font-size:16px;font-family:'Fira Mono';-inkscape-font-specification:'Fira Mono';stroke-width:1.13385832;stroke-miterlimit:4;stroke-dasharray:none;paint-order:markers fill stroke"
         d="m 226.77198,23.125576 c -1.008,0 -1.904,0.496 -2.512,1.36 l -0.112,-1.184 h -1.152 v 11.824 l 1.344,-0.16 v -4.016 c 0.576,0.64 1.312,0.96 2.24,0.96 2.192,0 3.248,-1.84 3.248,-4.4 0,-2.64 -0.816,-4.384 -3.056,-4.384 z m -0.32,1.088 c 1.328,0 1.92,1.104 1.92,3.296 0,2.24 -0.704,3.28 -2.096,3.28 -0.8,0 -1.488,-0.4 -1.936,-1.056 v -4.176 c 0.464,-0.672 1.184,-1.344 2.112,-1.344 z" />
      <path
         id="path105"
         style="font-style:normal;font-variant:normal;font-weight:normal;font-stretch:normal;font-size:16px;font-family:'Fira Mono';-inkscape-font-specification:'Fira Mono';stroke-width:1.13385832;stroke-miterlimit:4;stroke-dasharray:none;paint-order:markers fill stroke"
         d="m 235.80573,23.125576 c -2.368,0 -3.648,1.808 -3.648,4.4 0,2.656 1.264,4.384 3.632,4.384 2.352,0 3.632,-1.808 3.632,-4.4 0,-2.656 -1.248,-4.384 -3.616,-4.384 z m 0,1.104 c 1.44,0 2.16,1.056 2.16,3.28 0,2.256 -0.72,3.296 -2.176,3.296 -1.456,0 -2.176,-1.04 -2.176,-3.28 0,-2.24 0.736,-3.296 2.192,-3.296 z" />
      <path
         id="path107"
         style="font-style:normal;font-variant:normal;font-weight:normal;font-stretch:normal;font-size:16px;font-family:'Fira Mono';-inkscape-font-specification:'Fira Mono';stroke-width:1.13385832;stroke-miterlimit:4;stroke-dasharray:none;paint-order:markers fill stroke"
         d="m 245.06348,30.805576 c -0.992,0 -1.888,-0.368 -2.544,-0.912 l -0.752,0.88 c 0.72,0.624 1.76,1.136 3.296,1.136 1.792,0 3.536,-0.704 3.536,-2.512 0,-1.568 -1.088,-2.144 -2.736,-2.592 -1.696,-0.464 -2.224,-0.72 -2.224,-1.488 0,-0.64 0.48,-1.104 1.824,-1.104 1.088,0 1.808,0.336 2.432,0.768 l 0.608,-0.928 c -0.72,-0.512 -1.712,-0.928 -3.072,-0.928 -1.904,0 -3.2,0.896 -3.2,2.304 0,1.472 1.136,2 2.88,2.432 1.792,0.448 2.032,0.848 2.032,1.6 0,0.816 -0.784,1.344 -2.08,1.344 z" />
      <path
         id="path109"
         style="font-style:normal;font-variant:normal;font-weight:normal;font-stretch:normal;font-size:16px;font-family:'Fira Mono';-inkscape-font-specification:'Fira Mono';stroke-width:1.13385832;stroke-miterlimit:4;stroke-dasharray:none;paint-order:markers fill stroke"
         d="m 252.84923,27.989576 h 5.664 c 0.016,-0.176 0.032,-0.432 0.032,-0.72 0,-2.56 -1.312,-4.144 -3.44,-4.144 -2.24,0 -3.664,1.856 -3.664,4.4 0,2.624 1.392,4.384 3.856,4.384 1.04,0 2.096,-0.368 2.88,-0.976 l -0.624,-0.896 c -0.752,0.496 -1.392,0.752 -2.256,0.752 -1.296,0 -2.384,-0.848 -2.448,-2.8 z m 2.272,-3.76 c 1.28,0 2.08,0.928 2.112,2.736 h -4.384 c 0.112,-1.856 1.024,-2.736 2.272,-2.736 z" />
      <path
         id="path111"
         style="font-style:normal;font-variant:normal;font-weight:normal;font-stretch:normal;font-size:16px;font-family:'Fira Mono';-inkscape-font-specification:'Fira Mono';stroke-width:1.13385832;stroke-miterlimit:4;stroke-dasharray:none;paint-order:markers fill stroke"
         d="m 263.17898,26.133576 c 0,-3.36 1.104,-5.056 3.408,-7.104 l -0.688,-0.736 c -2.608,2.128 -4.128,4.192 -4.128,7.84 0,3.648 1.52,5.712 4.128,7.84 l 0.688,-0.736 c -2.272,-2.032 -3.408,-3.76 -3.408,-7.104 z" />
      <path
         id="path113"
         style="font-style:normal;font-variant:normal;font-weight:normal;font-stretch:normal;font-size:16px;font-family:'Fira Mono';-inkscape-font-specification:'Fira Mono';stroke-width:1.13385832;stroke-miterlimit:4;stroke-dasharray:none;paint-order:markers fill stroke"
         d="m 271.79673,31.733576 2.32,-3.616 2.32,3.616 h 1.632 l -3.104,-4.512 2.736,-3.92 h -1.552 l -1.968,3.136 -1.952,-3.136 h -1.6 l 2.736,3.984 -3.104,4.448 z" />
      <path
         id="path115"
         style="font-style:normal;font-variant:normal;font-weight:normal;font-stretch:normal;font-size:16px;font-family:'Fira Mono';-inkscape-font-specification:'Fira Mono';stroke-width:1.13385832;stroke-miterlimit:4;stroke-dasharray:none;paint-order:markers fill stroke"
         d="m 285.15048,26.133576 c 0,3.344 -1.136,5.072 -3.408,7.104 l 0.688,0.736 c 2.608,-2.128 4.128,-4.192 4.128,-7.84 0,-3.648 -1.52,-5.712 -4.128,-7.84 l -0.688,0.736 c 2.304,2.048 3.408,3.744 3.408,7.104 z" />
    </g>
    <g
       style="stroke-width:1.13385832;stroke-miterlimit:4;stroke-dasharray:none"
       transform="translate(0.63430587)"
       id="g6627">
      <g
         style="stroke-width:1.13385832;stroke-miterlimit:4;stroke-dasharray:none"
         transform="translate(58.022072,-0.21706565)"
         id="g6455">
        <g
           style="stroke-width:1.13385832;stroke-miterlimit:4;stroke-dasharray:none"
           transform="rotate(90,122.02618,76.165504)"
           id="g6425">
          <g
             style="stroke-width:1.13385832;stroke-miterlimit:4;stroke-dasharray:none"
             id="g6534"
             transform="translate(11.081333,4.2377909)">
            <g
               style="stroke-width:1.13385832;stroke-miterlimit:4;stroke-dasharray:none"
               transform="translate(0.4175677)"
               id="g6521">
              <g
                 style="stroke-width:1.13385832;stroke-miterlimit:4;stroke-dasharray:none"
                 id="g6407"
                 transform="translate(-2.1646233e-6,1.5489563e-5)" />
            </g>
          </g>
        </g>
      </g>
      <g
         id="g249">
        <path
           id="rect6397"
           d="M 155.88653,47.656071 H 305.3632 c 2.15975,0 3.89847,1.73872 3.89847,3.898477 v 89.028462 c 0,2.15976 -1.73872,3.89848 -3.89847,3.89848 H 155.88653 c -2.15976,0 -3.89848,-1.73872 -3.89848,-3.89848 V 51.554548 c 0,-2.159757 1.73872,-3.898477 3.89848,-3.898477 z"
           style="fill:none;fill-opacity:1;stroke:#000000;stroke-width:1.13385832;stroke-miterlimit:4;stroke-dasharray:none;paint-order:markers fill stroke"
           transform="translate(-0.63430587)" />
        <path
           id="rect6399"
           d="m 56.809787,-144.4794 h 56.789453 c 1.67467,0 3.02286,1.94677 3.02286,4.36497 v 31.01228 c 0,2.4182 -1.34819,4.36497 -3.02286,4.36497 H 56.809787 c -1.674669,0 -3.022868,-1.94677 -3.022868,-4.36497 v -31.01228 c 0,-2.4182 1.348199,-4.36497 3.022868,-4.36497 z"
           style="fill:#ebebeb;fill-opacity:1;stroke:#000000;stroke-width:1.13385832;stroke-miterlimit:4;stroke-dasharray:none;paint-order:markers fill stroke"
           transform="rotate(90,21.460004,32.324272)" />
        <path
           id="rect6401"
           d="m 105.76072,61.950233 h 21.32743 v 23.266291 h -21.32743 z"
           style="fill:#d6d6d6;fill-opacity:1;stroke:#000000;stroke-width:1.13385832;stroke-miterlimit:4;stroke-dasharray:none;paint-order:markers fill stroke"
           transform="rotate(90,143.27739,108.69855)" />
        <g
           id="text6405"
           style="font-style:normal;font-weight:normal;font-size:40px;line-height:1.25;font-family:Mono-serif;letter-spacing:0px;word-spacing:0px;fill:#000000;fill-opacity:1;stroke:none;stroke-width:1.13385832;stroke-miterlimit:4;stroke-dasharray:none;paint-order:markers fill stroke"
           transform="translate(251.97595,-34.578843)"
           aria-label="1">
          <path
             id="path121"
             style="font-style:normal;font-variant:normal;font-weight:normal;font-stretch:normal;font-size:16px;font-family:'Fira Mono';-inkscape-font-specification:'Fira Mono';stroke-width:1.13385832;stroke-miterlimit:4;stroke-dasharray:none;paint-order:markers fill stroke"
             d="m -72.495378,120.22315 v -9.936 h -1.184 l -3.28,2.048 0.592,0.944 2.512,-1.52 v 8.464 h -2.704 v 1.088 h 6.352 v -1.088 z" />
        </g>
        <path
           id="rect6409"
           d="m 134.20709,61.950249 h 21.32743 v 23.26629 h -21.32743 z"
           style="fill:#d6d6d6;fill-opacity:1;stroke:#000000;stroke-width:1.13385832;stroke-miterlimit:4;stroke-dasharray:none;paint-order:markers fill stroke"
           transform="rotate(90,143.2774,108.69856)" />
        <g
           id="text6413"
           style="font-style:normal;font-weight:normal;font-size:40px;line-height:1.25;font-family:Mono-serif;letter-spacing:0px;word-spacing:0px;fill:#000000;fill-opacity:1;stroke:none;stroke-width:1.13385832;stroke-miterlimit:4;stroke-dasharray:none;paint-order:markers fill stroke"
           transform="translate(251.97597,-34.578841)"
           aria-label="2">
          <path
             id="path125"
             style="font-style:normal;font-variant:normal;font-weight:normal;font-stretch:normal;font-size:16px;font-family:'Fira Mono';-inkscape-font-specification:'Fira Mono';stroke-width:1.13385832;stroke-miterlimit:4;stroke-dasharray:none;paint-order:markers fill stroke"
             d="m -73.695397,139.17862 c -1.488,0 -2.496,0.528 -3.36,1.584 l 0.928,0.72 c 0.704,-0.816 1.296,-1.168 2.368,-1.168 1.232,0 1.984,0.752 1.984,1.984 0,1.792 -0.896,3.008 -5.056,6.992 v 1.088 h 6.56 l 0.16,-1.152 h -5.184 c 3.632,-3.312 4.928,-4.944 4.928,-6.976 0,-1.744 -1.248,-3.072 -3.328,-3.072 z" />
        </g>
        <path
           id="rect6536"
           d="M 67.674052,-249.41986 H 124.4635 c 1.67467,0 3.02287,1.94677 3.02287,4.36497 v 31.01228 c 0,2.4182 -1.3482,4.36497 -3.02287,4.36497 H 67.674052 c -1.674669,0 -3.022868,-1.94677 -3.022868,-4.36497 v -31.01228 c 0,-2.4182 1.348199,-4.36497 3.022868,-4.36497 z"
           style="fill:#ebebeb;fill-opacity:1;stroke:#000000;stroke-width:1.13385832;stroke-miterlimit:4;stroke-dasharray:none;paint-order:markers fill stroke"
           transform="rotate(90)" />
        <path
           id="rect6538"
           d="m 71.18187,-241.1819 h 21.327432 v 23.26629 H 71.18187 Z"
           style="fill:#d6d6d6;fill-opacity:1;stroke:#000000;stroke-width:1.13385832;stroke-miterlimit:4;stroke-dasharray:none;paint-order:markers fill stroke"
           transform="rotate(90)" />
        <g
           id="text6542"
           style="font-style:normal;font-weight:normal;font-size:40px;line-height:1.25;font-family:Mono-serif;letter-spacing:0px;word-spacing:0px;fill:#000000;fill-opacity:1;stroke:none;stroke-width:1.13385832;stroke-miterlimit:4;stroke-dasharray:none;paint-order:markers fill stroke"
           aria-label="3">
          <path
             id="path130"
             style="font-style:normal;font-variant:normal;font-weight:normal;font-stretch:normal;font-size:16px;font-family:'Fira Mono';-inkscape-font-specification:'Fira Mono';stroke-width:1.13385832;stroke-miterlimit:4;stroke-dasharray:none;paint-order:markers fill stroke"
             d="m 229.42076,75.5323 c -1.136,0 -2.192,0.384 -3.136,1.28 l 0.736,0.816 c 0.736,-0.672 1.392,-1.008 2.336,-1.008 1.168,0 2.08,0.656 2.08,1.856 0,1.328 -1.024,1.92 -2.08,1.92 h -0.656 l -0.16,1.072 h 0.912 c 1.312,0 2.288,0.512 2.288,2.096 0,1.376 -0.912,2.24 -2.448,2.24 -0.896,0 -1.824,-0.352 -2.448,-1.088 l -0.896,0.736 c 0.832,1.008 2.144,1.456 3.376,1.456 2.288,0 3.824,-1.44 3.824,-3.344 0,-1.712 -1.216,-2.608 -2.496,-2.704 1.152,-0.224 2.144,-1.232 2.144,-2.56 0,-1.504 -1.296,-2.768 -3.376,-2.768 z" />
        </g>
        <path
           id="rect6546"
           d="m 99.628242,-241.1819 h 21.327438 v 23.26629 H 99.628242 Z"
           style="fill:#d6d6d6;fill-opacity:1;stroke:#000000;stroke-width:1.13385832;stroke-miterlimit:4;stroke-dasharray:none;paint-order:markers fill stroke"
           transform="rotate(90)" />
        <g
           id="text6550"
           style="font-style:normal;font-weight:normal;font-size:40px;line-height:1.25;font-family:Mono-serif;letter-spacing:0px;word-spacing:0px;fill:#000000;fill-opacity:1;stroke:none;stroke-width:1.13385832;stroke-miterlimit:4;stroke-dasharray:none;paint-order:markers fill stroke"
           aria-label="4">
          <path
             id="path134"
             style="font-style:normal;font-variant:normal;font-weight:normal;font-stretch:normal;font-size:16px;font-family:'Fira Mono';-inkscape-font-specification:'Fira Mono';stroke-width:1.13385832;stroke-miterlimit:4;stroke-dasharray:none;paint-order:markers fill stroke"
             d="m 233.19675,112.03977 h -1.424 v -3.12 h -1.168 l -0.112,3.12 h -3.168 l 2.928,-6.96 -1.12,-0.48 -3.232,7.536 v 0.992 h 4.576 v 2.672 h 1.296 v -2.672 h 1.424 z" />
        </g>
        <path
           id="rect6562"
           d="M 67.674052,-300.57605 H 124.4635 c 1.67467,0 3.02287,1.94678 3.02287,4.36497 v 31.01228 c 0,2.4182 -1.3482,4.36497 -3.02287,4.36497 H 67.674052 c -1.674669,0 -3.022868,-1.94677 -3.022868,-4.36497 v -31.01228 c 0,-2.41819 1.348199,-4.36497 3.022868,-4.36497 z"
           style="fill:#ebebeb;fill-opacity:1;stroke:#000000;stroke-width:1.13385832;stroke-miterlimit:4;stroke-dasharray:none;paint-order:markers fill stroke"
           transform="rotate(90)" />
        <path
           id="rect6564"
           d="m 71.18187,-292.3381 h 21.327432 v 23.26629 H 71.18187 Z"
           style="fill:#d6d6d6;fill-opacity:1;stroke:#000000;stroke-width:1.13385832;stroke-miterlimit:4;stroke-dasharray:none;paint-order:markers fill stroke"
           transform="rotate(90)" />
        <g
           id="text6568"
           style="font-style:normal;font-weight:normal;font-size:40px;line-height:1.25;font-family:Mono-serif;letter-spacing:0px;word-spacing:0px;fill:#000000;fill-opacity:1;stroke:none;stroke-width:1.13385832;stroke-miterlimit:4;stroke-dasharray:none;paint-order:markers fill stroke"
           aria-label="5">
          <path
             id="path139"
             style="font-style:normal;font-variant:normal;font-weight:normal;font-stretch:normal;font-size:16px;font-family:'Fira Mono';-inkscape-font-specification:'Fira Mono';stroke-width:1.13385832;stroke-miterlimit:4;stroke-dasharray:none;paint-order:markers fill stroke"
             d="m 283.80097,75.7083 h -5.84 v 5.504 h 1.088 c 0.64,-0.224 1.072,-0.368 1.712,-0.368 1.12,0 2,0.592 2,2.352 0,1.712 -0.864,2.608 -2.32,2.608 -0.944,0 -1.696,-0.336 -2.368,-1.024 l -0.832,0.816 c 0.848,0.816 1.872,1.312 3.2,1.312 2.272,0 3.728,-1.456 3.728,-3.664 0,-2.208 -1.216,-3.456 -3.024,-3.456 -0.656,0 -1.232,0.112 -1.888,0.48 v -3.472 h 4.352 z" />
        </g>
        <path
           id="rect6572"
           d="m 99.628242,-292.3381 h 21.327438 v 23.26629 H 99.628242 Z"
           style="fill:#d6d6d6;fill-opacity:1;stroke:#000000;stroke-width:1.13385832;stroke-miterlimit:4;stroke-dasharray:none;paint-order:markers fill stroke"
           transform="rotate(90)" />
        <g
           id="text6576"
           style="font-style:normal;font-weight:normal;font-size:40px;line-height:1.25;font-family:Mono-serif;letter-spacing:0px;word-spacing:0px;fill:#000000;fill-opacity:1;stroke:none;stroke-width:1.13385832;stroke-miterlimit:4;stroke-dasharray:none;paint-order:markers fill stroke"
           aria-label="6">
          <path
             id="path143"
             style="font-style:normal;font-variant:normal;font-weight:normal;font-stretch:normal;font-size:16px;font-family:'Fira Mono';-inkscape-font-specification:'Fira Mono';stroke-width:1.13385832;stroke-miterlimit:4;stroke-dasharray:none;paint-order:markers fill stroke"
             d="m 281.15296,108.63177 c -1.088,0 -1.968,0.432 -2.656,1.472 0.048,-2.688 1.024,-4.416 2.72,-4.416 0.608,0 1.168,0.16 1.68,0.464 l 0.528,-0.896 c -0.624,-0.416 -1.328,-0.656 -2.192,-0.656 -2.576,0 -4.096,2.336 -4.096,6 0,3.28 0.992,5.376 3.664,5.376 1.92,0 3.472,-1.44 3.472,-3.888 0,-2.352 -1.44,-3.456 -3.12,-3.456 z m -0.352,6.256 c -1.568,0 -2.24,-1.12 -2.288,-3.6 0.544,-0.928 1.376,-1.568 2.432,-1.568 1.152,0 1.952,0.608 1.952,2.416 0,1.696 -0.704,2.752 -2.096,2.752 z" />
        </g>
      </g>
    </g>
  </g>
</svg>
