<?xml version="1.0" encoding="UTF-8" standalone="no"?>
<!-- Created with Inkscape (http://www.inkscape.org/) -->

<svg
   xmlns:dc="http://purl.org/dc/elements/1.1/"
   xmlns:cc="http://creativecommons.org/ns#"
   xmlns:rdf="http://www.w3.org/1999/02/22-rdf-syntax-ns#"
   xmlns:svg="http://www.w3.org/2000/svg"
   xmlns="http://www.w3.org/2000/svg"
   xmlns:sodipodi="http://sodipodi.sourceforge.net/DTD/sodipodi-0.dtd"
   xmlns:inkscape="http://www.inkscape.org/namespaces/inkscape"
   sodipodi:docname="join-semi-otp.svg"
   inkscape:version="0.92.3 (2405546, 2018-03-11)"
   version="1.1"
   id="svg2"
   viewBox="0 0 271.04894 134.81472"
   height="38.04771mm"
   width="76.496033mm">
  <defs
     id="defs4">
    <inkscape:perspective
       sodipodi:type="inkscape:persp3d"
       inkscape:vp_x="0 : 127.00842 : 1"
       inkscape:vp_y="0 : 999.99994 : 0"
       inkscape:vp_z="544.62361 : 127.00842 : 1"
       inkscape:persp3d-origin="272.3118 : 84.672282 : 1"
       id="perspective4714" />
    <inkscape:perspective
       id="perspective4714-3"
       inkscape:persp3d-origin="272.3118 : 84.672282 : 1"
       inkscape:vp_z="544.62361 : 127.00842 : 1"
       inkscape:vp_y="0 : 999.99994 : 0"
       inkscape:vp_x="0 : 127.00842 : 1"
       sodipodi:type="inkscape:persp3d" />
    <inkscape:perspective
       id="perspective4714-7"
       inkscape:persp3d-origin="272.31181 : 84.672283 : 1"
       inkscape:vp_z="544.62363 : 127.00842 : 1"
       inkscape:vp_y="0 : 999.99995 : 0"
       inkscape:vp_x="0 : 127.00842 : 1"
       sodipodi:type="inkscape:persp3d" />
  </defs>
  <sodipodi:namedview
     inkscape:guide-bbox="true"
     showguides="true"
     inkscape:window-maximized="1"
     inkscape:window-y="0"
     inkscape:window-x="1920"
     inkscape:window-height="732"
     inkscape:window-width="1366"
     fit-margin-bottom="5"
     fit-margin-right="5"
     fit-margin-left="5"
     fit-margin-top="5"
     showgrid="false"
     inkscape:current-layer="g4643"
     inkscape:document-units="px"
     inkscape:cy="92.8227"
     inkscape:cx="200.62197"
     inkscape:zoom="2.8284271"
     inkscape:pageshadow="2"
     inkscape:pageopacity="0.0"
     borderopacity="1.0"
     bordercolor="#666666"
     pagecolor="#ffffff"
     id="base">
    <sodipodi:guide
       position="-42.484868,6.9302207"
       orientation="1,0"
       id="guide5105"
       inkscape:locked="false" />
    <sodipodi:guide
       position="50.717152,56.126576"
       orientation="1,0"
       id="guide3415"
       inkscape:locked="false" />
    <sodipodi:guide
       position="153.99104,58.939857"
       orientation="0,1"
       id="guide85"
       inkscape:locked="false" />
  </sodipodi:namedview>
  <metadata
     id="metadata7">
    <rdf:RDF>
      <cc:Work
         rdf:about="">
        <dc:format>image/svg+xml</dc:format>
        <dc:type
           rdf:resource="http://purl.org/dc/dcmitype/StillImage" />
        <dc:title></dc:title>
      </cc:Work>
    </rdf:RDF>
  </metadata>
  <g
     inkscape:label="Layer 1"
     inkscape:groupmode="layer"
     id="layer1"
     transform="translate(-308.41276,-243.57915)" />
  <g
     id="g4643"
     transform="translate(-250.66265,-124.82991)">
    <g
       id="g4363"
       transform="translate(1.5297466e-5)">
      <path
         style="fill:none;fill-opacity:1;stroke:#666666;stroke-width:1.0629921;stroke-miterlimit:4;stroke-dasharray:none"
         d="m 460.78458,163.67097 h 16.92521 v 43.113 h -16.92521 z"
         id="rect4786" />
      <path
         style="fill:none;fill-opacity:1;stroke:#666666;stroke-width:1.0629921;stroke-miterlimit:4;stroke-dasharray:none"
         d="m 477.58627,163.67097 h 25.87727 v 43.113 h -25.87727 z"
         id="rect4788" />
      <path
         style="fill:#8fd091;fill-opacity:1;stroke:#000000;stroke-width:1.0629921;stroke-miterlimit:4;stroke-dasharray:none"
         d="m 460.78458,206.54634 h 16.92521 v 17.42513 h -16.92521 z"
         id="rect4646" />
      <path
         style="fill:#cccccc;fill-opacity:1;stroke:#000000;stroke-width:1.0629921;stroke-miterlimit:4;stroke-dasharray:none"
         d="m 477.58627,206.54634 h 25.87727 v 17.42513 h -25.87727 z"
         id="rect4648" />
      <path
         style="fill:#cabddc;fill-opacity:1;stroke:#000000;stroke-width:1.0629921;stroke-miterlimit:4;stroke-dasharray:none"
         d="m 460.78458,223.97147 h 16.92521 v 17.42513 h -16.92521 z"
         id="rect4650" />
      <path
         style="fill:#cccccc;fill-opacity:1;stroke:#000000;stroke-width:1.0629921;stroke-miterlimit:4;stroke-dasharray:none"
         d="m 477.58627,223.97147 h 25.87727 v 17.42513 h -25.87727 z"
         id="rect4656" />
      <g
         aria-label="1"
         style="font-style:normal;font-weight:normal;line-height:0%;font-family:sans-serif;letter-spacing:0px;word-spacing:0px;fill:#000000;fill-opacity:1;stroke:none;stroke-width:1px;stroke-linecap:butt;stroke-linejoin:miter;stroke-opacity:1"
         id="text4666">
        <path
           d="m 470.95312,219.72363 h -1.13525 V 212.198 l -2.27661,0.83618 v -1.02539 l 3.23486,-1.2146 h 0.177 z"
           style="font-style:normal;font-variant:normal;font-weight:normal;font-stretch:normal;font-size:12.5px;line-height:1.25;font-family:Roboto;-inkscape-font-specification:Roboto"
           id="path92" />
      </g>
      <g
         aria-label="x1"
         style="font-style:normal;font-weight:normal;line-height:0%;font-family:sans-serif;letter-spacing:0px;word-spacing:0px;fill:#000000;fill-opacity:1;stroke:none;stroke-width:1px;stroke-linecap:butt;stroke-linejoin:miter;stroke-opacity:1"
         id="text4670">
        <path
           d="m 488.14453,215.53052 1.46484,-2.41089 h 1.31836 l -2.16064,3.26538 2.22778,3.33862 h -1.30615 l -1.52588,-2.47192 -1.52588,2.47192 h -1.31225 l 2.22778,-3.33862 -2.16064,-3.26538 h 1.30615 z"
           style="font-style:normal;font-variant:normal;font-weight:normal;font-stretch:normal;font-size:12.5px;line-height:1.25;font-family:Roboto;-inkscape-font-specification:Roboto"
           id="path95" />
        <path
           d="m 495.7251,219.72363 h -1.13526 V 212.198 l -2.27661,0.83618 v -1.02539 l 3.23487,-1.2146 h 0.177 z"
           style="font-style:normal;font-variant:normal;font-weight:normal;font-stretch:normal;font-size:12.5px;line-height:1.25;font-family:Roboto;-inkscape-font-specification:Roboto"
           id="path97" />
      </g>
      <g
         aria-label="2"
         style="font-style:normal;font-weight:normal;line-height:0%;font-family:sans-serif;letter-spacing:0px;word-spacing:0px;fill:#000000;fill-opacity:1;stroke:none;stroke-width:1px;stroke-linecap:butt;stroke-linejoin:miter;stroke-opacity:1"
         id="text4674">
        <path
           d="m 472.24402,237.18843 h -5.82276 v -0.81177 l 3.07618,-3.41797 q 0.68359,-0.77514 0.93994,-1.25732 0.26245,-0.48828 0.26245,-1.00708 0,-0.6958 -0.42114,-1.14136 -0.42115,-0.44555 -1.12305,-0.44555 -0.84229,0 -1.31226,0.48217 -0.46386,0.47608 -0.46386,1.33057 h -1.12915 q 0,-1.22681 0.78735,-1.98364 0.79346,-0.75684 2.11792,-0.75684 1.23901,0 1.95923,0.65308 0.72021,0.64697 0.72021,1.72729 0,1.31226 -1.67236,3.125 l -2.38037,2.58179 h 4.46167 z"
           style="font-style:normal;font-variant:normal;font-weight:normal;font-stretch:normal;font-size:12.5px;line-height:1.25;font-family:Roboto;-inkscape-font-specification:Roboto"
           id="path100" />
      </g>
      <g
         aria-label="llave"
         transform="rotate(-90)"
         style="font-style:normal;font-weight:normal;line-height:0%;font-family:sans-serif;letter-spacing:0px;word-spacing:0px;fill:#000000;fill-opacity:1;stroke:none;stroke-width:1px;stroke-linecap:butt;stroke-linejoin:miter;stroke-opacity:1"
         id="text4790">
        <path
           d="m -197.58406,472.54913 h -1.12915 v -9.375 h 1.12915 z"
           style="font-style:normal;font-variant:normal;font-weight:normal;font-stretch:normal;font-size:12.5px;line-height:1.25;font-family:Roboto;-inkscape-font-specification:Roboto"
           id="path103" />
        <path
           d="m -194.55672,472.54913 h -1.12915 v -9.375 h 1.12915 z"
           style="font-style:normal;font-variant:normal;font-weight:normal;font-stretch:normal;font-size:12.5px;line-height:1.25;font-family:Roboto;-inkscape-font-specification:Roboto"
           id="path105" />
        <path
           d="m -188.67903,472.54913 q -0.0977,-0.19531 -0.15869,-0.6958 -0.78736,0.81787 -1.87989,0.81787 -0.97656,0 -1.60522,-0.54931 -0.62256,-0.55542 -0.62256,-1.40381 0,-1.0315 0.78125,-1.59912 0.78735,-0.57373 2.20947,-0.57373 h 1.09864 v -0.5188 q 0,-0.59204 -0.35401,-0.93994 -0.354,-0.35401 -1.0437,-0.35401 -0.60425,0 -1.01318,0.30518 -0.40894,0.30517 -0.40894,0.73852 h -1.13525 q 0,-0.49438 0.3479,-0.95214 0.354,-0.46387 0.95215,-0.73243 0.60425,-0.26855 1.32446,-0.26855 1.14136,0 1.78833,0.57373 0.64697,0.56763 0.67139,1.5686 v 3.03955 q 0,0.90943 0.23193,1.44654 v 0.0976 z m -1.87378,-0.86059 q 0.53101,0 1.00708,-0.27466 0.47607,-0.27466 0.6897,-0.71411 v -1.35498 h -0.88501 q -2.0752,0 -2.0752,1.2146 0,0.531 0.35401,0.83008 0.354,0.29907 0.90942,0.29907 z"
           style="font-style:normal;font-variant:normal;font-weight:normal;font-stretch:normal;font-size:12.5px;line-height:1.25;font-family:Roboto;-inkscape-font-specification:Roboto"
           id="path107" />
        <path
           d="m -183.86336,471.01715 1.63574,-5.07202 h 1.15357 l -2.36816,6.604 h -0.8606 l -2.39258,-6.604 h 1.15357 z"
           style="font-style:normal;font-variant:normal;font-weight:normal;font-stretch:normal;font-size:12.5px;line-height:1.25;font-family:Roboto;-inkscape-font-specification:Roboto"
           id="path109" />
        <path
           d="m -177.24715,472.6712 q -1.34277,0 -2.18506,-0.8789 -0.84228,-0.88501 -0.84228,-2.36206 v -0.20752 q 0,-0.98267 0.37231,-1.75171 0.37842,-0.77515 1.04981,-1.2085 0.67749,-0.43945 1.46484,-0.43945 1.28784,0 2.00196,0.84839 0.71411,0.84839 0.71411,2.4292 v 0.46997 h -4.47388 q 0.0244,0.97656 0.56763,1.58081 0.54931,0.59814 1.3916,0.59814 0.59814,0 1.01318,-0.24414 0.41504,-0.24414 0.72632,-0.64697 l 0.6897,0.53711 q -0.83008,1.27563 -2.49024,1.27563 z m -0.14038,-5.92041 q -0.68359,0 -1.14746,0.50049 -0.46387,0.49439 -0.57373,1.3916 h 3.30811 v -0.0854 q -0.0488,-0.86059 -0.46387,-1.33056 -0.41504,-0.47608 -1.12305,-0.47608 z"
           style="font-style:normal;font-variant:normal;font-weight:normal;font-stretch:normal;font-size:12.5px;line-height:1.25;font-family:Roboto;-inkscape-font-specification:Roboto"
           id="path111" />
      </g>
      <g
         aria-label="val_x"
         transform="rotate(-90)"
         style="font-style:normal;font-weight:normal;line-height:0%;font-family:sans-serif;letter-spacing:0px;word-spacing:0px;fill:#000000;fill-opacity:1;stroke:none;stroke-width:1px;stroke-linecap:butt;stroke-linejoin:miter;stroke-opacity:1"
         id="text4794">
        <path
           d="m -195.97273,491.89511 1.63574,-5.07202 h 1.15356 l -2.36816,6.604 h -0.8606 l -2.39257,-6.604 h 1.15356 z"
           style="font-style:normal;font-variant:normal;font-weight:normal;font-stretch:normal;font-size:12.5px;line-height:1.25;font-family:Roboto;-inkscape-font-specification:Roboto"
           id="path114" />
        <path
           d="m -188.11751,493.42709 q -0.0976,-0.19531 -0.15869,-0.6958 -0.78735,0.81787 -1.87988,0.81787 -0.97656,0 -1.60523,-0.54931 -0.62256,-0.55542 -0.62256,-1.40381 0,-1.0315 0.78125,-1.59912 0.78736,-0.57373 2.20948,-0.57373 h 1.09863 v -0.5188 q 0,-0.59204 -0.354,-0.93994 -0.35401,-0.35401 -1.0437,-0.35401 -0.60425,0 -1.01319,0.30518 -0.40893,0.30517 -0.40893,0.73852 h -1.13526 q 0,-0.49438 0.3479,-0.95214 0.35401,-0.46387 0.95215,-0.73243 0.60425,-0.26855 1.32446,-0.26855 1.14136,0 1.78833,0.57373 0.64698,0.56763 0.67139,1.5686 v 3.03955 q 0,0.90943 0.23193,1.44654 v 0.0977 z m -1.87378,-0.86059 q 0.53101,0 1.00708,-0.27466 0.47608,-0.27466 0.6897,-0.71411 v -1.35498 h -0.88501 q -2.07519,0 -2.07519,1.2146 0,0.531 0.354,0.83008 0.354,0.29907 0.90942,0.29907 z"
           style="font-style:normal;font-variant:normal;font-weight:normal;font-stretch:normal;font-size:12.5px;line-height:1.25;font-family:Roboto;-inkscape-font-specification:Roboto"
           id="path116" />
        <path
           d="m -184.15633,493.42709 h -1.12915 v -9.375 h 1.12915 z"
           style="font-style:normal;font-variant:normal;font-weight:normal;font-stretch:normal;font-size:12.5px;line-height:1.25;font-family:Roboto;-inkscape-font-specification:Roboto"
           id="path118" />
        <path
           d="m -177.59505,494.34872 h -5.59082 v -0.92163 h 5.59082 z"
           style="font-style:normal;font-variant:normal;font-weight:normal;font-stretch:normal;font-size:12.5px;line-height:1.25;font-family:Roboto;-inkscape-font-specification:Roboto"
           id="path120" />
        <path
           d="m -174.50056,489.23398 1.46484,-2.41089 h 1.31836 l -2.16065,3.26538 2.22779,3.33862 h -1.30616 l -1.52587,-2.47192 -1.52588,2.47192 h -1.31226 l 2.22778,-3.33862 -2.16064,-3.26538 h 1.30615 z"
           style="font-style:normal;font-variant:normal;font-weight:normal;font-stretch:normal;font-size:12.5px;line-height:1.25;font-family:Roboto;-inkscape-font-specification:Roboto"
           id="path122" />
      </g>
      <g
         aria-label="x2"
         style="font-style:normal;font-weight:normal;line-height:0%;font-family:sans-serif;letter-spacing:0px;word-spacing:0px;fill:#000000;fill-opacity:1;stroke:none;stroke-width:1px;stroke-linecap:butt;stroke-linejoin:miter;stroke-opacity:1"
         id="text3409">
        <path
           d="m 488.14453,232.99532 1.46484,-2.41089 h 1.31836 l -2.16064,3.26538 2.22778,3.33862 h -1.30615 l -1.52588,-2.47192 -1.52588,2.47192 h -1.31225 l 2.22778,-3.33862 -2.16064,-3.26538 h 1.30615 z"
           style="font-style:normal;font-variant:normal;font-weight:normal;font-stretch:normal;font-size:12.5px;line-height:1.25;font-family:Roboto;-inkscape-font-specification:Roboto"
           id="path125" />
        <path
           d="m 497.83691,237.18843 h -5.82275 v -0.81177 l 3.07617,-3.41797 q 0.6836,-0.77514 0.93994,-1.25732 0.26245,-0.48828 0.26245,-1.00708 0,-0.6958 -0.42114,-1.14136 -0.42114,-0.44555 -1.12304,-0.44555 -0.84229,0 -1.31226,0.48217 -0.46387,0.47608 -0.46387,1.33057 h -1.12915 q 0,-1.22681 0.78736,-1.98364 0.79345,-0.75684 2.11792,-0.75684 1.23901,0 1.95922,0.65308 0.72022,0.64697 0.72022,1.72729 0,1.31226 -1.67236,3.125 l -2.38038,2.58179 h 4.46167 z"
           style="font-style:normal;font-variant:normal;font-weight:normal;font-stretch:normal;font-size:12.5px;line-height:1.25;font-family:Roboto;-inkscape-font-specification:Roboto"
           id="path127" />
      </g>
    </g>
    <g
       id="g4383"
       transform="translate(-4.2337477,19.73653)">
      <path
         transform="matrix(0,0.78478646,-0.4827799,0,524.58413,-140.32565)"
         style="fill:#808080;fill-opacity:1;stroke:none;stroke-width:2.15971947;stroke-miterlimit:4;stroke-dasharray:none"
         inkscape:transform-center-x="-1.2602661"
         inkscape:transform-center-y="-1.218691e-005"
         d="m 422.91498,169.97858 -9.04282,0 -9.04282,0 4.52141,-7.83131 4.52141,-7.83131 4.52141,7.83131 z"
         id="path5134" />
      <path
         style="fill:#808080;fill-opacity:1;stroke:none;stroke-width:3.54330707;stroke-miterlimit:4;stroke-dasharray:none"
         d="m 424.04245,181.05765 h 19.95028 v 6.83593 h -19.95028 z"
         id="rect5136" />
    </g>
    <g
       id="g5111"
       transform="rotate(45,341.12601,193.99095)">
      <g
         transform="rotate(-45,133.71331,77.409898)"
         id="g5079">
        <g
           id="g4877">
          <g
             id="g4951" />
        </g>
      </g>
      <g
         id="g4317">
        <g
           id="g3425"
           transform="rotate(-45,345.35978,204.21215)">
          <path
             style="fill:none;fill-rule:evenodd;stroke:#cccccc;stroke-width:1.0629921;stroke-linecap:butt;stroke-linejoin:miter;stroke-miterlimit:4;stroke-dasharray:none;stroke-opacity:1"
             d="m 339.60887,143.02124 58.16706,58.16706"
             id="path5046"
             inkscape:connector-curvature="0" />
          <path
             style="fill:none;fill-rule:evenodd;stroke:#cccccc;stroke-width:1.0629921;stroke-linecap:butt;stroke-linejoin:miter;stroke-miterlimit:4;stroke-dasharray:none;stroke-opacity:1"
             d="m 314.966,167.66411 58.16707,58.16705"
             id="path5048"
             inkscape:connector-curvature="0" />
          <path
             inkscape:connector-curvature="0"
             id="path5050"
             d="m 327.28743,155.34267 58.16707,58.16706"
             style="fill:none;fill-rule:evenodd;stroke:#cccccc;stroke-width:1.0629921;stroke-linecap:butt;stroke-linejoin:miter;stroke-miterlimit:4;stroke-dasharray:none;stroke-opacity:1" />
          <path
             transform="rotate(45)"
             style="fill:#8fd091;fill-opacity:1;stroke:#000000;stroke-width:1.0629921;stroke-miterlimit:4;stroke-dasharray:none"
             d="m 393.84164,-147.72102 h 16.92522 v 17.42513 h -16.92522 z"
             id="rect4769" />
          <path
             transform="rotate(45)"
             style="fill:#cccccc;fill-opacity:1;stroke:#000000;stroke-width:1.0629921;stroke-miterlimit:4;stroke-dasharray:none"
             d="m 410.64334,-147.72102 h 25.87727 v 17.42513 h -25.87727 z"
             id="rect4775" />
          <path
             transform="rotate(45)"
             style="fill:#cabddc;fill-opacity:1;stroke:#000000;stroke-width:1.0629921;stroke-miterlimit:4;stroke-dasharray:none"
             d="m 393.84164,-130.29591 h 16.92522 v 17.42513 h -16.92522 z"
             id="use5269" />
          <path
             transform="rotate(45)"
             style="fill:#fffda9;fill-opacity:1;stroke:#000000;stroke-width:1.0629921;stroke-miterlimit:4;stroke-dasharray:none"
             d="m 393.84164,-112.87077 h 16.92522 v 17.425128 h -16.92522 z"
             id="use5271" />
          <path
             transform="rotate(45)"
             style="fill:#cccccc;fill-opacity:1;stroke:#000000;stroke-width:1.0629921;stroke-miterlimit:4;stroke-dasharray:none"
             d="m 410.64334,-130.29591 h 25.87727 v 17.42513 h -25.87727 z"
             id="use5277" />
          <path
             transform="rotate(45)"
             style="fill:#cccccc;fill-opacity:1;stroke:#000000;stroke-width:1.0629921;stroke-miterlimit:4;stroke-dasharray:none"
             d="m 410.64334,-112.87077 h 25.87727 v 17.425128 h -25.87727 z"
             id="use5279" />
          <g
             aria-label="y1"
             transform="rotate(45)"
             style="font-style:normal;font-weight:normal;line-height:0%;font-family:sans-serif;letter-spacing:0px;word-spacing:0px;fill:#000000;fill-opacity:1;stroke:none;stroke-width:1px;stroke-linecap:butt;stroke-linejoin:miter;stroke-opacity:1"
             id="text4614">
            <path
               d="m 421.14667,-136.1978 1.53808,-4.94995 h 1.2085 l -2.65503,7.62329 q -0.61645,1.64795 -1.95923,1.64795 l -0.21362,-0.0183 -0.42114,-0.0793 v -0.91552 l 0.30517,0.0244 q 0.57373,0 0.89112,-0.23193 0.32348,-0.23194 0.531,-0.84839 l 0.25025,-0.67139 -2.35596,-6.53076 h 1.23291 z"
               style="font-style:normal;font-variant:normal;font-weight:normal;font-stretch:normal;font-size:12.5px;line-height:1.25;font-family:Roboto;-inkscape-font-specification:Roboto"
               id="path138" />
            <path
               d="m 428.4892,-134.54375 h -1.13526 v -7.52563 l -2.27661,0.83618 v -1.02539 l 3.23486,-1.2146 h 0.17701 z"
               style="font-style:normal;font-variant:normal;font-weight:normal;font-stretch:normal;font-size:12.5px;line-height:1.25;font-family:Roboto;-inkscape-font-specification:Roboto"
               id="path140" />
          </g>
          <g
             aria-label="1"
             transform="rotate(45)"
             style="font-style:normal;font-weight:normal;line-height:0%;font-family:sans-serif;letter-spacing:0px;word-spacing:0px;fill:#000000;fill-opacity:1;stroke:none;stroke-width:1px;stroke-linecap:butt;stroke-linejoin:miter;stroke-opacity:1"
             id="text4618">
            <path
               d="m 404.01019,-134.54375 h -1.13525 v -7.52563 l -2.27661,0.83618 v -1.02539 l 3.23486,-1.2146 h 0.177 z"
               style="font-style:normal;font-variant:normal;font-weight:normal;font-stretch:normal;font-size:12.5px;line-height:1.25;font-family:Roboto;-inkscape-font-specification:Roboto"
               id="path143" />
          </g>
          <g
             aria-label="y2"
             transform="rotate(45)"
             style="font-style:normal;font-weight:normal;line-height:0%;font-family:sans-serif;letter-spacing:0px;word-spacing:0px;fill:#000000;fill-opacity:1;stroke:none;stroke-width:1px;stroke-linecap:butt;stroke-linejoin:miter;stroke-opacity:1"
             id="text4622">
            <path
               d="m 421.14667,-118.77265 1.53808,-4.94995 h 1.2085 l -2.65503,7.62329 q -0.61645,1.64795 -1.95923,1.64795 l -0.21362,-0.0183 -0.42114,-0.0794 v -0.91553 l 0.30517,0.0244 q 0.57373,0 0.89112,-0.23194 0.32348,-0.23193 0.531,-0.84838 l 0.25025,-0.67139 -2.35596,-6.53076 h 1.23291 z"
               style="font-style:normal;font-variant:normal;font-weight:normal;font-stretch:normal;font-size:12.5px;line-height:1.25;font-family:Roboto;-inkscape-font-specification:Roboto"
               id="path146" />
            <path
               d="m 430.60101,-117.1186 h -5.82275 v -0.81177 l 3.07617,-3.41797 q 0.68359,-0.77514 0.93994,-1.25732 0.26245,-0.48828 0.26245,-1.00708 0,-0.6958 -0.42114,-1.14136 -0.42114,-0.44555 -1.12305,-0.44555 -0.84228,0 -1.31225,0.48217 -0.46387,0.47608 -0.46387,1.33057 h -1.12915 q 0,-1.22681 0.78735,-1.98364 0.79346,-0.75684 2.11792,-0.75684 1.23902,0 1.95923,0.65308 0.72022,0.64697 0.72022,1.72729 0,1.31226 -1.67237,3.125 l -2.38037,2.58179 h 4.46167 z"
               style="font-style:normal;font-variant:normal;font-weight:normal;font-stretch:normal;font-size:12.5px;line-height:1.25;font-family:Roboto;-inkscape-font-specification:Roboto"
               id="path148" />
          </g>
          <g
             aria-label="2"
             transform="rotate(45)"
             style="font-style:normal;font-weight:normal;line-height:0%;font-family:sans-serif;letter-spacing:0px;word-spacing:0px;fill:#000000;fill-opacity:1;stroke:none;stroke-width:1px;stroke-linecap:butt;stroke-linejoin:miter;stroke-opacity:1"
             id="text4626">
            <path
               d="m 405.30109,-117.07893 h -5.82276 v -0.81177 l 3.07617,-3.41797 q 0.6836,-0.77515 0.93995,-1.25732 0.26245,-0.48829 0.26245,-1.00708 0,-0.69581 -0.42115,-1.14136 -0.42114,-0.44556 -1.12304,-0.44556 -0.84229,0 -1.31226,0.48218 -0.46387,0.47607 -0.46387,1.33057 h -1.12915 q 0,-1.22681 0.78736,-1.98365 0.79345,-0.75683 2.11792,-0.75683 1.23901,0 1.95923,0.65307 0.72021,0.64698 0.72021,1.7273 0,1.31225 -1.67236,3.125 l -2.38037,2.58179 h 4.46167 z"
               style="font-style:normal;font-variant:normal;font-weight:normal;font-stretch:normal;font-size:12.5px;line-height:1.25;font-family:Roboto;-inkscape-font-specification:Roboto"
               id="path151" />
          </g>
          <g
             aria-label="y3"
             transform="rotate(45)"
             style="font-style:normal;font-weight:normal;line-height:0%;font-family:sans-serif;letter-spacing:0px;word-spacing:0px;fill:#000000;fill-opacity:1;stroke:none;stroke-width:1px;stroke-linecap:butt;stroke-linejoin:miter;stroke-opacity:1"
             id="text4630">
            <path
               d="m 421.14667,-101.34751 1.53808,-4.94995 h 1.2085 l -2.65503,7.623289 q -0.61645,1.647949 -1.95923,1.647949 l -0.21362,-0.01831 -0.42114,-0.07935 v -0.915528 l 0.30517,0.02441 q 0.57373,0 0.89112,-0.231933 0.32348,-0.231934 0.531,-0.848389 l 0.25025,-0.671387 -2.35596,-6.530759 h 1.23291 z"
               style="font-style:normal;font-variant:normal;font-weight:normal;font-stretch:normal;font-size:12.5px;line-height:1.25;font-family:Roboto;-inkscape-font-specification:Roboto"
               id="path154" />
            <path
               d="m 426.4201,-104.68613 h 0.84839 q 0.79956,-0.0122 1.25733,-0.42115 0.45776,-0.40893 0.45776,-1.10473 0,-1.5625 -1.55639,-1.5625 -0.73243,0 -1.17188,0.42114 -0.43335,0.41504 -0.43335,1.10474 h -1.12915 q 0,-1.05591 0.76904,-1.75171 0.77515,-0.70191 1.96534,-0.70191 1.25732,0 1.97143,0.66529 0.71411,0.66528 0.71411,1.84936 0,0.57983 -0.37842,1.12305 -0.37231,0.54321 -1.01928,0.81177 0.73242,0.23193 1.12915,0.76904 0.40283,0.53711 0.40283,1.31225 0,1.19629 -0.78125,1.8982 -0.78125,0.701902 -2.03247,0.701902 -1.25122,0 -2.03858,-0.677492 -0.78125,-0.67749 -0.78125,-1.78833 h 1.13526 q 0,0.70191 0.45776,1.12305 0.45777,0.42114 1.22681,0.42114 0.81787,0 1.25122,-0.42725 0.43335,-0.42724 0.43335,-1.2268 0,-0.77515 -0.47608,-1.19019 -0.47607,-0.41504 -1.37329,-0.42724 h -0.84839 z"
               style="font-style:normal;font-variant:normal;font-weight:normal;font-stretch:normal;font-size:12.5px;line-height:1.25;font-family:Roboto;-inkscape-font-specification:Roboto"
               id="path156" />
          </g>
          <g
             aria-label="4"
             transform="rotate(45)"
             style="font-style:normal;font-weight:normal;line-height:0%;font-family:sans-serif;letter-spacing:0px;word-spacing:0px;fill:#000000;fill-opacity:1;stroke:none;stroke-width:1px;stroke-linecap:butt;stroke-linejoin:miter;stroke-opacity:1"
             id="text4634">
            <path
               d="m 404.24518,-102.6384 h 1.23291 v 0.92163 h -1.23291 v 2.062984 h -1.13526 v -2.062984 h -4.04663 v -0.66529 l 3.9795,-6.15844 h 1.20239 z m -3.90015,0 h 2.76489 v -4.35792 l -0.13427,0.24415 z"
               style="font-style:normal;font-variant:normal;font-weight:normal;font-stretch:normal;font-size:12.5px;line-height:1.25;font-family:Roboto;-inkscape-font-specification:Roboto"
               id="path159" />
          </g>
          <path
             transform="rotate(-45,133.71331,77.409893)"
             inkscape:connector-curvature="0"
             id="path5045"
             d="m 158.67453,277.5273 h 82.50771"
             style="fill:none;fill-rule:evenodd;stroke:#999999;stroke-width:1.0629921;stroke-linecap:butt;stroke-linejoin:miter;stroke-miterlimit:4;stroke-dasharray:none;stroke-opacity:1" />
          <path
             transform="rotate(-45,133.71331,77.409893)"
             inkscape:connector-curvature="0"
             id="path4698"
             d="m 158.67453,312.37758 82.50771,-2e-5"
             style="fill:none;fill-rule:evenodd;stroke:#999999;stroke-width:1.0629921;stroke-linecap:butt;stroke-linejoin:miter;stroke-miterlimit:4;stroke-dasharray:none;stroke-opacity:1" />
          <path
             transform="rotate(-45,133.71331,77.409893)"
             style="fill:none;fill-rule:evenodd;stroke:#999999;stroke-width:1.0629921;stroke-linecap:butt;stroke-linejoin:miter;stroke-miterlimit:4;stroke-dasharray:none;stroke-opacity:1"
             d="m 158.67526,294.95244 82.63125,-1e-5"
             id="path4696"
             inkscape:connector-curvature="0" />
          <path
             transform="matrix(-0.70710678,0.70710678,0.70710678,0.70710678,-15.573339,117.22242)"
             style="fill:#cccccc;fill-opacity:1;stroke:#000000;stroke-width:1.0629921;stroke-miterlimit:4;stroke-dasharray:none"
             d="m -171.66992,286.23984 h 25.87726 v 17.42513 h -25.87726 z"
             id="use4459" />
          <path
             transform="matrix(-0.70710678,0.70710678,0.70710678,0.70710678,-15.573339,117.22242)"
             style="fill:#cccccc;fill-opacity:1;stroke:#000000;stroke-width:1.0629921;stroke-miterlimit:4;stroke-dasharray:none"
             d="m -171.66992,303.66498 h 25.87726 v 17.42513 h -25.87726 z"
             id="use4461" />
          <path
             transform="matrix(-0.70710678,0.70710678,0.70710678,0.70710678,-15.573339,117.22242)"
             style="fill:#cabddc;fill-opacity:1;stroke:#000000;stroke-width:1.0629921;stroke-miterlimit:4;stroke-dasharray:none"
             d="m -188.47162,286.23984 h 16.92522 v 17.42513 h -16.92522 z"
             id="use4467" />
          <path
             transform="matrix(-0.70710678,0.70710678,0.70710678,0.70710678,-15.573339,117.22242)"
             style="fill:#fecb98;fill-opacity:1;stroke:#000000;stroke-width:1.0629921;stroke-miterlimit:4;stroke-dasharray:none"
             d="m -188.47162,303.66498 h 16.92522 v 17.42513 h -16.92522 z"
             id="use4469" />
          <path
             transform="matrix(-0.70710678,0.70710678,0.70710678,0.70710678,-15.573339,117.22242)"
             style="fill:#cccccc;fill-opacity:1;stroke:#000000;stroke-width:1.0629921;stroke-miterlimit:4;stroke-dasharray:none"
             d="m -171.66992,268.81473 h 25.87726 v 17.42513 h -25.87726 z"
             id="rect4940" />
          <path
             transform="matrix(-0.70710678,0.70710678,0.70710678,0.70710678,-15.573339,117.22242)"
             style="fill:#8fd091;fill-opacity:1;stroke:#000000;stroke-width:1.0629921;stroke-miterlimit:4;stroke-dasharray:none"
             d="m -188.47162,268.81473 h 16.92522 v 17.42513 h -16.92522 z"
             id="rect4934" />
          <g
             aria-label="x1"
             transform="rotate(-45)"
             style="font-style:normal;font-weight:normal;line-height:0%;font-family:sans-serif;letter-spacing:0px;word-spacing:0px;fill:#000000;fill-opacity:1;stroke:none;stroke-width:1px;stroke-linecap:butt;stroke-linejoin:miter;stroke-opacity:1"
             id="text4950">
            <path
               d="m 62.450134,349.67566 1.464844,-2.41089 h 1.318359 l -2.160644,3.26538 2.227783,3.33862 h -1.306152 l -1.525879,-2.47192 -1.525879,2.47192 H 59.63031 l 2.227783,-3.33862 -2.160644,-3.26538 h 1.306152 z"
               style="font-style:normal;font-variant:normal;font-weight:normal;font-stretch:normal;font-size:12.5px;line-height:1.25;font-family:Roboto;-inkscape-font-specification:Roboto"
               id="path168" />
            <path
               d="m 70.030701,353.86877 h -1.135254 v -7.52563 l -2.276612,0.83618 v -1.02539 l 3.234864,-1.2146 h 0.177002 z"
               style="font-style:normal;font-variant:normal;font-weight:normal;font-stretch:normal;font-size:12.5px;line-height:1.25;font-family:Roboto;-inkscape-font-specification:Roboto"
               id="path170" />
          </g>
          <g
             aria-label="1"
             transform="rotate(-45,133.71331,77.409893)"
             style="font-style:normal;font-weight:normal;line-height:0%;font-family:sans-serif;letter-spacing:0px;word-spacing:0px;fill:#000000;fill-opacity:1;stroke:none;stroke-width:1px;stroke-linecap:butt;stroke-linejoin:miter;stroke-opacity:1"
             id="text4978">
            <path
               d="m 181.71494,281.992 h -1.13526 v -7.52563 l -2.27661,0.83618 v -1.02539 l 3.23486,-1.2146 h 0.17701 z"
               style="font-style:normal;font-variant:normal;font-weight:normal;font-stretch:normal;font-size:12.5px;line-height:1.25;font-family:Roboto;-inkscape-font-specification:Roboto"
               id="path173" />
          </g>
          <g
             aria-label="2"
             transform="rotate(-45,133.71331,77.409893)"
             style="font-style:normal;font-weight:normal;line-height:0%;font-family:sans-serif;letter-spacing:0px;word-spacing:0px;fill:#000000;fill-opacity:1;stroke:none;stroke-width:1px;stroke-linecap:butt;stroke-linejoin:miter;stroke-opacity:1"
             id="text4582">
            <path
               d="m 183.00583,299.45682 h -5.82276 v -0.81177 l 3.07618,-3.41797 q 0.68359,-0.77515 0.93994,-1.25732 0.26245,-0.48828 0.26245,-1.00708 0,-0.6958 -0.42114,-1.14136 -0.42115,-0.44556 -1.12305,-0.44556 -0.84229,0 -1.31226,0.48218 -0.46386,0.47607 -0.46386,1.33057 h -1.12915 q 0,-1.22681 0.78735,-1.98365 0.79346,-0.75683 2.11792,-0.75683 1.23901,0 1.95923,0.65307 0.72021,0.64698 0.72021,1.7273 0,1.31226 -1.67236,3.125 l -2.38037,2.58179 h 4.46167 z"
               style="font-style:normal;font-variant:normal;font-weight:normal;font-stretch:normal;font-size:12.5px;line-height:1.25;font-family:Roboto;-inkscape-font-specification:Roboto"
               id="path176" />
          </g>
          <g
             aria-label="3"
             transform="rotate(-45,133.71331,77.409893)"
             style="font-style:normal;font-weight:normal;line-height:0%;font-family:sans-serif;letter-spacing:0px;word-spacing:0px;fill:#000000;fill-opacity:1;stroke:none;stroke-width:1px;stroke-linecap:butt;stroke-linejoin:miter;stroke-opacity:1"
             id="text4590">
            <path
               d="m 178.82492,311.88928 h 0.84839 q 0.79956,-0.0122 1.25732,-0.42114 0.45777,-0.40894 0.45777,-1.10474 0,-1.5625 -1.5564,-1.5625 -0.73242,0 -1.17187,0.42115 -0.43335,0.41503 -0.43335,1.10473 h -1.12915 q 0,-1.05591 0.76904,-1.75171 0.77515,-0.7019 1.96533,-0.7019 1.25732,0 1.97144,0.66528 0.71411,0.66529 0.71411,1.84937 0,0.57983 -0.37842,1.12304 -0.37231,0.54322 -1.01929,0.81177 0.73242,0.23194 1.12915,0.76904 0.40283,0.53711 0.40283,1.31226 0,1.19629 -0.78125,1.89819 -0.78125,0.70191 -2.03247,0.70191 -1.25122,0 -2.03857,-0.67749 -0.78125,-0.67749 -0.78125,-1.78833 h 1.13525 q 0,0.7019 0.45777,1.12304 0.45776,0.42115 1.2268,0.42115 0.81788,0 1.25122,-0.42725 0.43335,-0.42724 0.43335,-1.22681 0,-0.77514 -0.47607,-1.19018 -0.47607,-0.41504 -1.37329,-0.42725 h -0.84839 z"
               style="font-style:normal;font-variant:normal;font-weight:normal;font-stretch:normal;font-size:12.5px;line-height:1.25;font-family:Roboto;-inkscape-font-specification:Roboto"
               id="path179" />
          </g>
          <path
             style="fill:#cabddc;fill-opacity:1;stroke:none;stroke-width:3.62375951;stroke-miterlimit:4;stroke-dasharray:none"
             d="m 348.85675,173.41483 a 3.5,3.5 0 0 1 -3.5,3.5 3.5,3.5 0 0 1 -3.5,-3.5 3.5,3.5 0 0 1 3.5,-3.5 3.5,3.5 0 0 1 3.5,3.5 z"
             id="circle3549" />
          <path
             style="fill:#8fd091;fill-opacity:1;stroke:none;stroke-width:3.62375951;stroke-miterlimit:4;stroke-dasharray:none"
             d="m 348.85675,148.76923 a 3.5,3.5 0 0 1 -3.5,3.5 3.5,3.5 0 0 1 -3.5,-3.5 3.5,3.5 0 0 1 3.5,-3.5 3.5,3.5 0 0 1 3.5,3.5 z"
             id="circle3994" />
          <g
             aria-label="x2"
             transform="rotate(-45)"
             style="font-style:normal;font-weight:normal;line-height:0%;font-family:sans-serif;letter-spacing:0px;word-spacing:0px;fill:#000000;fill-opacity:1;stroke:none;stroke-width:1px;stroke-linecap:butt;stroke-linejoin:miter;stroke-opacity:1"
             id="text3417">
            <path
               d="m 62.450134,367.14044 1.464844,-2.41089 h 1.318359 l -2.160644,3.26538 2.227783,3.33863 h -1.306152 l -1.525879,-2.47193 -1.525879,2.47193 H 59.63031 l 2.227783,-3.33863 -2.160644,-3.26538 h 1.306152 z"
               style="font-style:normal;font-variant:normal;font-weight:normal;font-stretch:normal;font-size:12.5px;line-height:1.25;font-family:Roboto;-inkscape-font-specification:Roboto"
               id="path184" />
            <path
               d="m 72.142517,371.33356 h -5.822754 v -0.81177 l 3.076172,-3.41797 q 0.683594,-0.77515 0.939941,-1.25732 0.262452,-0.48828 0.262452,-1.00708 0,-0.6958 -0.421143,-1.14136 -0.421143,-0.44556 -1.123047,-0.44556 -0.842285,0 -1.312256,0.48218 -0.463867,0.47607 -0.463867,1.33057 h -1.12915 q 0,-1.22681 0.787353,-1.98365 0.793457,-0.75683 2.11792,-0.75683 1.239014,0 1.959229,0.65307 0.720215,0.64698 0.720215,1.7273 0,1.31226 -1.672364,3.125 l -2.380371,2.58179 h 4.46167 z"
               style="font-style:normal;font-variant:normal;font-weight:normal;font-stretch:normal;font-size:12.5px;line-height:1.25;font-family:Roboto;-inkscape-font-specification:Roboto"
               id="path186" />
          </g>
          <g
             aria-label="x3"
             transform="rotate(-45)"
             style="font-style:normal;font-weight:normal;line-height:0%;font-family:sans-serif;letter-spacing:0px;word-spacing:0px;fill:#000000;fill-opacity:1;stroke:none;stroke-width:1px;stroke-linecap:butt;stroke-linejoin:miter;stroke-opacity:1"
             id="text3421">
            <path
               d="m 62.450134,384.50455 1.464844,-2.41089 h 1.318359 l -2.160644,3.26538 2.227783,3.33862 h -1.306152 l -1.525879,-2.47192 -1.525879,2.47192 H 59.63031 l 2.227783,-3.33862 -2.160644,-3.26538 h 1.306152 z"
               style="font-style:normal;font-variant:normal;font-weight:normal;font-stretch:normal;font-size:12.5px;line-height:1.25;font-family:Roboto;-inkscape-font-specification:Roboto"
               id="path189" />
            <path
               d="m 67.961609,383.70499 h 0.848389 q 0.79956,-0.0122 1.257324,-0.42115 0.457763,-0.40893 0.457763,-1.10473 0,-1.5625 -1.556396,-1.5625 -0.732422,0 -1.171875,0.42114 -0.43335,0.41504 -0.43335,1.10474 h -1.12915 q 0,-1.05591 0.769043,-1.75171 0.775146,-0.70191 1.965332,-0.70191 1.257324,0 1.971436,0.66529 0.714111,0.66528 0.714111,1.84936 0,0.57984 -0.378418,1.12305 -0.372315,0.54321 -1.019287,0.81177 0.732422,0.23193 1.12915,0.76904 0.402832,0.53711 0.402832,1.31226 0,1.19628 -0.78125,1.89819 -0.78125,0.7019 -2.032471,0.7019 -1.25122,0 -2.038574,-0.67749 -0.78125,-0.67749 -0.78125,-1.78833 h 1.135254 q 0,0.70191 0.457764,1.12305 0.457764,0.42114 1.226806,0.42114 0.817872,0 1.251221,-0.42724 0.43335,-0.42725 0.43335,-1.22681 0,-0.77515 -0.476074,-1.19019 -0.476075,-0.41504 -1.373291,-0.42724 h -0.848389 z"
               style="font-style:normal;font-variant:normal;font-weight:normal;font-stretch:normal;font-size:12.5px;line-height:1.25;font-family:Roboto;-inkscape-font-specification:Roboto"
               id="path191" />
          </g>
        </g>
      </g>
    </g>
  </g>
</svg>
