<?xml version="1.0" encoding="UTF-8" standalone="no"?>
<!-- Created with Inkscape (http://www.inkscape.org/) -->

<svg
   xmlns:dc="http://purl.org/dc/elements/1.1/"
   xmlns:cc="http://creativecommons.org/ns#"
   xmlns:rdf="http://www.w3.org/1999/02/22-rdf-syntax-ns#"
   xmlns:svg="http://www.w3.org/2000/svg"
   xmlns="http://www.w3.org/2000/svg"
   xmlns:sodipodi="http://sodipodi.sourceforge.net/DTD/sodipodi-0.dtd"
   xmlns:inkscape="http://www.inkscape.org/namespaces/inkscape"
   width="153.06573mm"
   height="49.452389mm"
   viewBox="0 0 542.35892 175.225"
   id="svg2"
   version="1.1"
   inkscape:version="0.92.3 (2405546, 2018-03-11)"
   sodipodi:docname="join-venn-otp.svg">
  <defs
     id="defs4" />
  <sodipodi:namedview
     id="base"
     pagecolor="#ffffff"
     bordercolor="#666666"
     borderopacity="1.0"
     inkscape:pageopacity="0.0"
     inkscape:pageshadow="2"
     inkscape:zoom="1.4"
     inkscape:cx="404.15217"
     inkscape:cy="76.720702"
     inkscape:document-units="px"
     inkscape:current-layer="layer1"
     showgrid="false"
     fit-margin-top="5"
     fit-margin-left="5"
     fit-margin-right="5"
     fit-margin-bottom="5"
     inkscape:window-width="1366"
     inkscape:window-height="732"
     inkscape:window-x="1920"
     inkscape:window-y="0"
     inkscape:window-maximized="1" />
  <metadata
     id="metadata7">
    <rdf:RDF>
      <cc:Work
         rdf:about="">
        <dc:format>image/svg+xml</dc:format>
        <dc:type
           rdf:resource="http://purl.org/dc/dcmitype/StillImage" />
        <dc:title></dc:title>
      </cc:Work>
    </rdf:RDF>
  </metadata>
  <g
     inkscape:label="Layer 1"
     inkscape:groupmode="layer"
     id="layer1"
     transform="translate(-19.664178,-109.96016)">
    <g
       id="g4413">
      <g
         id="g4242">
        <g
           id="g4310">
          <path
             style="fill:#ffffff;fill-opacity:1;stroke:#000000;stroke-width:1;stroke-miterlimit:4;stroke-dasharray:none"
             d="m 97.880714,158.1767 a 30,30 0 0 1 -30,30 30,30 0 0 1 -30,-30 30,30 0 0 1 30,-30 30,30 0 0 1 30,30 z"
             id="path3401" />
          <path
             style="fill:#ffffff;fill-opacity:1;stroke:#000000;stroke-width:1;stroke-miterlimit:4;stroke-dasharray:none"
             d="m 133.74113,158.1767 a 30,30 0 0 1 -30,30 30,30 0 0 1 -30.000003,-30 30,30 0 0 1 30.000003,-30 30,30 0 0 1 30,30 z"
             id="circle4203" />
          <g
             aria-label="unión interior
inner_join(x,y)"
             style="font-style:normal;font-weight:normal;line-height:0%;font-family:sans-serif;letter-spacing:0px;word-spacing:0px;fill:#000000;fill-opacity:1;stroke:none;stroke-width:1px;stroke-linecap:butt;stroke-linejoin:miter;stroke-opacity:1"
             id="text4228">
            <path
               d="m 156.61871,160.92603 q -0.71838,0.8728 -1.9873,0.8728 -1.16821,0 -1.78589,-0.67139 -0.61096,-0.67139 -0.62439,-1.96716 v -4.76013 h 1.94031 v 4.69299 q 0,1.13464 1.03393,1.13464 0.98694,0 1.3562,-0.68481 v -5.14282 h 1.94703 v 7.2644 h -1.82618 z"
               style="font-style:normal;font-variant:normal;font-weight:bold;font-stretch:normal;font-size:13.75px;line-height:1.25;font-family:Roboto;-inkscape-font-specification:'Roboto Bold'"
               id="path49" />
            <path
               d="m 161.76154,154.40015 0.0604,0.83923 q 0.77881,-0.97351 2.08801,-0.97351 1.15479,0 1.71875,0.6781 0.56397,0.6781 0.5774,2.02759 v 4.69299 h -1.94031 v -4.646 q 0,-0.61767 -0.26856,-0.89294 -0.26855,-0.28198 -0.89294,-0.28198 -0.81909,0 -1.22864,0.69824 v 5.12268 h -1.94031 v -7.2644 z"
               style="font-style:normal;font-variant:normal;font-weight:bold;font-stretch:normal;font-size:13.75px;line-height:1.25;font-family:Roboto;-inkscape-font-specification:'Roboto Bold'"
               id="path51" />
            <path
               d="m 169.7309,161.66455 h -1.94703 v -7.2644 h 1.94703 z m -2.06116,-9.14429 q 0,-0.4364 0.2887,-0.71838 0.29541,-0.28198 0.79895,-0.28198 0.49682,0 0.79223,0.28198 0.29541,0.28198 0.29541,0.71838 0,0.44312 -0.30212,0.7251 -0.29541,0.28198 -0.78552,0.28198 -0.49012,0 -0.79224,-0.28198 -0.29541,-0.28198 -0.29541,-0.7251 z"
               style="font-style:normal;font-variant:normal;font-weight:bold;font-stretch:normal;font-size:13.75px;line-height:1.25;font-family:Roboto;-inkscape-font-specification:'Roboto Bold'"
               id="path53" />
            <path
               d="m 171.03339,157.96521 q 0,-1.08093 0.41626,-1.92688 0.41626,-0.84595 1.19506,-1.3092 0.78553,-0.46326 1.81946,-0.46326 1.47034,0 2.39685,0.89966 0.93323,0.89966 1.04065,2.44384 l 0.0134,0.49683 q 0,1.67175 -0.93323,2.68555 -0.93322,1.00708 -2.50427,1.00708 -1.57104,0 -2.51099,-1.00708 -0.93322,-1.00708 -0.93322,-2.73926 z m 1.9403,0.14099 q 0,1.03394 0.38941,1.58447 0.3894,0.54383 1.1145,0.54383 0.70496,0 1.10107,-0.53711 0.39612,-0.54383 0.39612,-1.73218 0,-1.01379 -0.39612,-1.57104 -0.39611,-0.55726 -1.1145,-0.55726 -0.71167,0 -1.10107,0.55726 -0.38941,0.55053 -0.38941,1.71203 z m 1.87317,-6.75415 h 2.11487 l -1.85974,2.0813 h -1.57776 z"
               style="font-style:normal;font-variant:normal;font-weight:bold;font-stretch:normal;font-size:13.75px;line-height:1.25;font-family:Roboto;-inkscape-font-specification:'Roboto Bold'"
               id="path55" />
            <path
               d="m 180.90948,154.40015 0.0604,0.83923 q 0.77881,-0.97351 2.08801,-0.97351 1.15479,0 1.71875,0.6781 0.56397,0.6781 0.57739,2.02759 v 4.69299 h -1.9403 v -4.646 q 0,-0.61767 -0.26856,-0.89294 -0.26855,-0.28198 -0.89294,-0.28198 -0.81909,0 -1.22864,0.69824 v 5.12268 h -1.94031 v -7.2644 z"
               style="font-style:normal;font-variant:normal;font-weight:bold;font-stretch:normal;font-size:13.75px;line-height:1.25;font-family:Roboto;-inkscape-font-specification:'Roboto Bold'"
               id="path57" />
            <path
               d="m 192.31635,161.66455 h -1.94703 v -7.2644 h 1.94703 z m -2.06116,-9.14429 q 0,-0.4364 0.28869,-0.71838 0.29541,-0.28198 0.79895,-0.28198 0.49683,0 0.79224,0.28198 0.29541,0.28198 0.29541,0.71838 0,0.44312 -0.30212,0.7251 -0.29541,0.28198 -0.78553,0.28198 -0.49011,0 -0.79223,-0.28198 -0.29541,-0.28198 -0.29541,-0.7251 z"
               style="font-style:normal;font-variant:normal;font-weight:bold;font-stretch:normal;font-size:13.75px;line-height:1.25;font-family:Roboto;-inkscape-font-specification:'Roboto Bold'"
               id="path59" />
            <path
               d="m 195.70685,154.40015 0.0604,0.83923 q 0.77881,-0.97351 2.08802,-0.97351 1.15478,0 1.71875,0.6781 0.56396,0.6781 0.57739,2.02759 v 4.69299 h -1.94031 v -4.646 q 0,-0.61767 -0.26855,-0.89294 -0.26856,-0.28198 -0.89295,-0.28198 -0.81909,0 -1.22864,0.69824 v 5.12268 h -1.9403 v -7.2644 z"
               style="font-style:normal;font-variant:normal;font-weight:bold;font-stretch:normal;font-size:13.75px;line-height:1.25;font-family:Roboto;-inkscape-font-specification:'Roboto Bold'"
               id="path61" />
            <path
               d="m 203.95148,152.61426 v 1.78589 h 1.24206 v 1.42334 h -1.24206 v 3.62548 q 0,0.40284 0.15442,0.5774 0.15441,0.17456 0.59082,0.17456 0.32226,0 0.57068,-0.047 v 1.47034 q -0.57068,0.17456 -1.17493,0.17456 -2.04102,0 -2.0813,-2.06116 v -3.91418 h -1.06079 v -1.42334 h 1.06079 v -1.78589 z"
               style="font-style:normal;font-variant:normal;font-weight:bold;font-stretch:normal;font-size:13.75px;line-height:1.25;font-family:Roboto;-inkscape-font-specification:'Roboto Bold'"
               id="path63" />
            <path
               d="m 209.61798,161.79883 q -1.5979,0 -2.60498,-0.98023 -1.00037,-0.98022 -1.00037,-2.61169 v -0.18799 q 0,-1.09436 0.42298,-1.95373 0.42297,-0.86609 1.19507,-1.32935 0.7788,-0.46997 1.77246,-0.46997 1.49048,0 2.34314,0.93994 0.85937,0.93994 0.85937,2.66541 v 0.79223 h -4.62585 q 0.094,0.71167 0.56396,1.14136 0.47669,0.42969 1.20178,0.42969 1.12122,0 1.75232,-0.81238 l 0.95337,1.0675 q -0.4364,0.61768 -1.18164,0.9668 -0.74524,0.34241 -1.65161,0.34241 z m -0.22156,-5.96192 q -0.57739,0 -0.93994,0.38941 -0.35583,0.3894 -0.45654,1.1145 h 2.69897 v -0.15442 q -0.0134,-0.64453 -0.34912,-0.99365 -0.33569,-0.35584 -0.95337,-0.35584 z"
               style="font-style:normal;font-variant:normal;font-weight:bold;font-stretch:normal;font-size:13.75px;line-height:1.25;font-family:Roboto;-inkscape-font-specification:'Roboto Bold'"
               id="path65" />
            <path
               d="m 217.79547,156.2196 q -0.39612,-0.0537 -0.69824,-0.0537 -1.10108,0 -1.44348,0.74524 v 4.75342 h -1.94031 v -7.2644 h 1.83289 l 0.0537,0.86609 q 0.5841,-1.00037 1.61804,-1.00037 0.32226,0 0.60425,0.0873 z"
               style="font-style:normal;font-variant:normal;font-weight:bold;font-stretch:normal;font-size:13.75px;line-height:1.25;font-family:Roboto;-inkscape-font-specification:'Roboto Bold'"
               id="path67" />
            <path
               d="m 220.78314,161.66455 h -1.94702 v -7.2644 h 1.94702 z m -2.06116,-9.14429 q 0,-0.4364 0.2887,-0.71838 0.29541,-0.28198 0.79895,-0.28198 0.49683,0 0.79224,0.28198 0.29541,0.28198 0.29541,0.71838 0,0.44312 -0.30213,0.7251 -0.29541,0.28198 -0.78552,0.28198 -0.49011,0 -0.79223,-0.28198 -0.29542,-0.28198 -0.29542,-0.7251 z"
               style="font-style:normal;font-variant:normal;font-weight:bold;font-stretch:normal;font-size:13.75px;line-height:1.25;font-family:Roboto;-inkscape-font-specification:'Roboto Bold'"
               id="path69" />
            <path
               d="m 222.08563,157.96521 q 0,-1.08093 0.41626,-1.92688 0.41626,-0.84595 1.19507,-1.3092 0.78552,-0.46326 1.81946,-0.46326 1.47034,0 2.39685,0.89966 0.93323,0.89966 1.04065,2.44384 l 0.0134,0.49683 q 0,1.67175 -0.93323,2.68555 -0.93323,1.00708 -2.50427,1.00708 -1.57105,0 -2.51099,-1.00708 -0.93323,-1.00708 -0.93323,-2.73926 z m 1.94031,0.14099 q 0,1.03394 0.3894,1.58447 0.38941,0.54383 1.11451,0.54383 0.70495,0 1.10107,-0.53711 0.39612,-0.54383 0.39612,-1.73218 0,-1.01379 -0.39612,-1.57104 -0.39612,-0.55726 -1.1145,-0.55726 -0.71167,0 -1.10108,0.55726 -0.3894,0.55053 -0.3894,1.71203 z"
               style="font-style:normal;font-variant:normal;font-weight:bold;font-stretch:normal;font-size:13.75px;line-height:1.25;font-family:Roboto;-inkscape-font-specification:'Roboto Bold'"
               id="path71" />
            <path
               d="m 234.25787,156.2196 q -0.39611,-0.0537 -0.69824,-0.0537 -1.10107,0 -1.44348,0.74524 v 4.75342 h -1.94031 v -7.2644 h 1.83289 l 0.0537,0.86609 q 0.58411,-1.00037 1.61804,-1.00037 0.32227,0 0.60425,0.0873 z"
               style="font-style:normal;font-variant:normal;font-weight:bold;font-stretch:normal;font-size:13.75px;line-height:1.25;font-family:Roboto;-inkscape-font-specification:'Roboto Bold'"
               id="path73" />
            <path
               d="m 152.8858,171.58765 h 3.71277 v 6.19018 h 2.37 v 1.07422 h -6.08277 v -1.07422 h 2.47071 v -5.10925 h -2.47071 z m 2.30957,-1.90674 q 0,-0.30884 0.18128,-0.51697 0.18799,-0.21484 0.56396,-0.21484 0.36927,0 0.55725,0.21484 0.18799,0.20813 0.18799,0.51697 0,0.30212 -0.18799,0.50354 -0.18798,0.20141 -0.55725,0.20141 -0.37597,0 -0.56396,-0.20141 -0.18128,-0.20142 -0.18128,-0.50354 z"
               style="font-style:normal;font-variant:normal;font-weight:normal;font-stretch:normal;font-size:13.75px;line-height:1.25;font-family:'Roboto Mono';-inkscape-font-specification:'Roboto Mono'"
               id="path75" />
            <path
               d="m 162.05023,171.58765 0.0873,1.07422 q 0.39612,-0.56397 0.97351,-0.87952 0.5774,-0.32227 1.28907,-0.32898 0.57067,0 1.03393,0.16113 0.46997,0.16113 0.79895,0.50354 0.32898,0.34241 0.50354,0.8728 0.18128,0.52369 0.18128,1.24878 v 4.61243 h -1.24207 v -4.58557 q 0,-0.4834 -0.10742,-0.81909 -0.10742,-0.3357 -0.32227,-0.54383 -0.20813,-0.20813 -0.51697,-0.30212 -0.30212,-0.094 -0.69824,-0.094 -0.62439,0 -1.10107,0.31555 -0.46997,0.30884 -0.75195,0.81909 v 5.20996 h -1.24207 v -7.2644 z"
               style="font-style:normal;font-variant:normal;font-weight:normal;font-stretch:normal;font-size:13.75px;line-height:1.25;font-family:'Roboto Mono';-inkscape-font-specification:'Roboto Mono'"
               id="path77" />
            <path
               d="m 170.29486,171.58765 0.0873,1.07422 q 0.39612,-0.56397 0.97351,-0.87952 0.57739,-0.32227 1.28906,-0.32898 0.57068,0 1.03394,0.16113 0.46997,0.16113 0.79895,0.50354 0.32898,0.34241 0.50354,0.8728 0.18127,0.52369 0.18127,1.24878 v 4.61243 h -1.24206 v -4.58557 q 0,-0.4834 -0.10742,-0.81909 -0.10742,-0.3357 -0.32227,-0.54383 -0.20813,-0.20813 -0.51697,-0.30212 -0.30212,-0.094 -0.69824,-0.094 -0.62439,0 -1.10107,0.31555 -0.46997,0.30884 -0.75196,0.81909 v 5.20996 h -1.24206 v -7.2644 z"
               style="font-style:normal;font-variant:normal;font-weight:normal;font-stretch:normal;font-size:13.75px;line-height:1.25;font-family:'Roboto Mono';-inkscape-font-specification:'Roboto Mono'"
               id="path79" />
            <path
               d="m 180.63422,178.98633 q -0.76538,0 -1.40992,-0.26184 -0.63781,-0.26184 -1.09436,-0.73181 -0.45654,-0.46997 -0.71167,-1.11451 -0.25512,-0.64453 -0.25512,-1.40319 v -0.28199 q 0,-0.87951 0.28198,-1.57104 0.28198,-0.69824 0.74524,-1.17493 0.46997,-0.4834 1.06079,-0.73852 0.59753,-0.25513 1.22192,-0.25513 0.78553,0 1.36963,0.27527 0.59082,0.26855 0.98023,0.75195 0.3894,0.47669 0.57739,1.12793 0.1947,0.65125 0.1947,1.40991 v 0.55725 h -5.18982 q 0.0201,0.49683 0.18799,0.93323 0.17456,0.4364 0.46997,0.76538 0.30213,0.32227 0.71839,0.51026 0.41625,0.18798 0.91979,0.18798 0.66468,0 1.18165,-0.26855 0.51696,-0.26856 0.85937,-0.71167 l 0.75867,0.59082 q -0.18128,0.27527 -0.45655,0.5304 -0.26855,0.24841 -0.62439,0.44311 -0.35583,0.1947 -0.80566,0.30884 -0.44983,0.12085 -0.98022,0.12085 z m -0.16114,-6.51245 q -0.37597,0 -0.71167,0.14099 -0.33569,0.13428 -0.60424,0.40283 -0.26856,0.26184 -0.45655,0.65125 -0.18127,0.38269 -0.25512,0.88623 h 3.90747 v -0.094 q -0.0202,-0.36255 -0.14099,-0.71838 -0.11414,-0.35584 -0.34241,-0.63782 -0.22827,-0.28198 -0.57739,-0.45654 -0.34241,-0.17456 -0.8191,-0.17456 z"
               style="font-style:normal;font-variant:normal;font-weight:normal;font-stretch:normal;font-size:13.75px;line-height:1.25;font-family:'Roboto Mono';-inkscape-font-specification:'Roboto Mono'"
               id="path81" />
            <path
               d="m 190.42975,171.45337 q 0.17456,0 0.36255,0.0134 0.18799,0.007 0.35583,0.0336 0.17456,0.0201 0.31555,0.0537 0.14771,0.0336 0.2417,0.0738 l -0.16784,1.21521 q -0.36255,-0.0806 -0.69153,-0.11414 -0.32227,-0.0403 -0.6781,-0.0403 -0.87281,0 -1.41663,0.39612 -0.53711,0.39612 -0.79223,1.10779 v 4.65942 h -1.24878 v -7.2644 h 1.18164 l 0.0604,1.15478 q 0.44312,-0.59753 1.06079,-0.93994 0.62439,-0.34912 1.41663,-0.34912 z"
               style="font-style:normal;font-variant:normal;font-weight:normal;font-stretch:normal;font-size:13.75px;line-height:1.25;font-family:'Roboto Mono';-inkscape-font-specification:'Roboto Mono'"
               id="path83" />
            <path
               d="m 199.9433,179.86584 h -6.15662 v -1.01379 h 6.15662 z"
               style="font-style:normal;font-variant:normal;font-weight:normal;font-stretch:normal;font-size:13.75px;line-height:1.25;font-family:'Roboto Mono';-inkscape-font-specification:'Roboto Mono'"
               id="path85" />
            <path
               d="m 202.99811,171.58765 h 3.66577 v 7.3114 q 0,0.69824 -0.1947,1.23535 -0.18799,0.53711 -0.55725,0.89966 -0.36255,0.36926 -0.89295,0.55725 -0.52368,0.1947 -1.19507,0.1947 -0.38269,0 -0.71838,-0.0268 -0.32898,-0.0202 -0.69824,-0.0873 l 0.0873,-1.0205 q 0.11413,0.0201 0.28869,0.0336 0.17456,0.0201 0.34913,0.0268 0.18127,0.0134 0.3424,0.0134 0.16785,0.007 0.26184,0.007 0.34912,0 0.65796,-0.094 0.30884,-0.0873 0.53711,-0.30212 0.22827,-0.21485 0.35584,-0.57068 0.13427,-0.34912 0.13427,-0.86609 v -6.23047 h -2.4237 z m 2.24914,-1.91346 q 0,-0.30212 0.18128,-0.51025 0.18127,-0.21484 0.55725,-0.21484 0.37598,0 0.56396,0.21484 0.18799,0.20813 0.18799,0.51025 0,0.30213 -0.18799,0.51026 -0.18798,0.20141 -0.56396,0.20141 -0.37598,0 -0.55725,-0.20141 -0.18128,-0.20813 -0.18128,-0.51026 z"
               style="font-style:normal;font-variant:normal;font-weight:normal;font-stretch:normal;font-size:13.75px;line-height:1.25;font-family:'Roboto Mono';-inkscape-font-specification:'Roboto Mono'"
               id="path87" />
            <path
               d="m 210.05438,175.15271 q 0,-0.78552 0.22827,-1.45691 0.22828,-0.6781 0.65125,-1.17493 0.42969,-0.49682 1.04065,-0.7788 0.61096,-0.2887 1.37634,-0.2887 0.7721,0 1.38306,0.2887 0.61767,0.28198 1.04065,0.7788 0.42968,0.49683 0.65796,1.17493 0.22827,0.67139 0.22827,1.45691 v 0.14771 q 0,0.78552 -0.22827,1.4569 -0.22828,0.67139 -0.65796,1.16822 -0.42298,0.49682 -1.03394,0.77881 -0.61096,0.28198 -1.37634,0.28198 -0.7721,0 -1.38977,-0.28198 -0.61096,-0.28199 -1.04065,-0.77881 -0.42297,-0.49683 -0.65125,-1.16822 -0.22827,-0.67138 -0.22827,-1.4569 z m 1.24207,0.14771 q 0,0.5371 0.12756,1.02722 0.12756,0.4834 0.38269,0.85266 0.26184,0.36926 0.65125,0.5841 0.3894,0.21485 0.90637,0.21485 0.51025,0 0.89294,-0.21485 0.38941,-0.21484 0.64453,-0.5841 0.26185,-0.36926 0.38941,-0.85266 0.12756,-0.49012 0.12756,-1.02722 v -0.14771 q 0,-0.5304 -0.13428,-1.01379 -0.12756,-0.49012 -0.3894,-0.85938 -0.25513,-0.36926 -0.64453,-0.58411 -0.38269,-0.22155 -0.89966,-0.22155 -0.51697,0 -0.89966,0.22155 -0.38269,0.21485 -0.64453,0.58411 -0.25513,0.36926 -0.38269,0.85938 -0.12756,0.48339 -0.12756,1.01379 z"
               style="font-style:normal;font-variant:normal;font-weight:normal;font-stretch:normal;font-size:13.75px;line-height:1.25;font-family:'Roboto Mono';-inkscape-font-specification:'Roboto Mono'"
               id="path89" />
            <path
               d="m 218.84283,171.58765 h 3.71277 v 6.19018 h 2.37 v 1.07422 h -6.08277 v -1.07422 h 2.47071 v -5.10925 h -2.47071 z m 2.30957,-1.90674 q 0,-0.30884 0.18128,-0.51697 0.18799,-0.21484 0.56396,-0.21484 0.36927,0 0.55726,0.21484 0.18798,0.20813 0.18798,0.51697 0,0.30212 -0.18798,0.50354 -0.18799,0.20141 -0.55726,0.20141 -0.37597,0 -0.56396,-0.20141 -0.18128,-0.20142 -0.18128,-0.50354 z"
               style="font-style:normal;font-variant:normal;font-weight:normal;font-stretch:normal;font-size:13.75px;line-height:1.25;font-family:'Roboto Mono';-inkscape-font-specification:'Roboto Mono'"
               id="path91" />
            <path
               d="m 228.00726,171.58765 0.0873,1.07422 q 0.39612,-0.56397 0.97351,-0.87952 0.5774,-0.32227 1.28907,-0.32898 0.57068,0 1.03393,0.16113 0.46997,0.16113 0.79895,0.50354 0.32898,0.34241 0.50354,0.8728 0.18128,0.52369 0.18128,1.24878 v 4.61243 h -1.24207 v -4.58557 q 0,-0.4834 -0.10742,-0.81909 -0.10742,-0.3357 -0.32227,-0.54383 -0.20813,-0.20813 -0.51696,-0.30212 -0.30213,-0.094 -0.69825,-0.094 -0.62439,0 -1.10107,0.31555 -0.46997,0.30884 -0.75195,0.81909 v 5.20996 h -1.24207 v -7.2644 z"
               style="font-style:normal;font-variant:normal;font-weight:normal;font-stretch:normal;font-size:13.75px;line-height:1.25;font-family:'Roboto Mono';-inkscape-font-specification:'Roboto Mono'"
               id="path93" />
            <path
               d="m 236.36603,174.88416 q 0,-0.96009 0.1477,-1.80604 0.15442,-0.84594 0.40955,-1.56433 0.25513,-0.72509 0.58411,-1.32263 0.33569,-0.59753 0.69824,-1.06079 0.36926,-0.46326 0.73852,-0.79224 0.36927,-0.32897 0.70496,-0.51696 l 0.26184,0.81909 q -0.41626,0.31555 -0.83252,0.85937 -0.40955,0.54383 -0.73853,1.32264 -0.32226,0.77209 -0.53039,1.78588 -0.20142,1.00708 -0.20142,2.26258 v 0.094 q 0,1.25549 0.20142,2.26929 0.20813,1.01379 0.53039,1.7926 0.32898,0.77881 0.73853,1.32935 0.41626,0.55725 0.83252,0.89294 l -0.26184,0.75867 q -0.33569,-0.18799 -0.71167,-0.51697 -0.36926,-0.32227 -0.73853,-0.79224 -0.36255,-0.46325 -0.69824,-1.06079 -0.32898,-0.59082 -0.58411,-1.3092 -0.24841,-0.7251 -0.40283,-1.57105 -0.1477,-0.84594 -0.1477,-1.80603 z"
               style="font-style:normal;font-variant:normal;font-weight:normal;font-stretch:normal;font-size:13.75px;line-height:1.25;font-family:'Roboto Mono';-inkscape-font-specification:'Roboto Mono'"
               id="path95" />
            <path
               d="m 246.38312,174.27991 1.94031,-2.69226 h 1.4569 l -2.70568,3.59192 2.77954,3.67248 h -1.43677 l -2.00745,-2.76611 -2.00744,2.76611 h -1.4502 l 2.77954,-3.67248 -2.70569,-3.59192 h 1.43677 z"
               style="font-style:normal;font-variant:normal;font-weight:normal;font-stretch:normal;font-size:13.75px;line-height:1.25;font-family:'Roboto Mono';-inkscape-font-specification:'Roboto Mono'"
               id="path97" />
            <path
               d="m 254.77545,178.56335 q 0,0.31556 -0.0806,0.65796 -0.0739,0.34912 -0.22828,0.68482 -0.1477,0.34241 -0.36255,0.65124 -0.21484,0.30884 -0.49682,0.55054 l -0.7721,-0.42297 q 0.32227,-0.46997 0.45655,-1.00037 0.13427,-0.5304 0.13427,-1.10107 v -1.20179 h 1.34949 z"
               style="font-style:normal;font-variant:normal;font-weight:normal;font-stretch:normal;font-size:13.75px;line-height:1.25;font-family:'Roboto Mono';-inkscape-font-specification:'Roboto Mono'"
               id="path99" />
            <path
               d="m 262.5434,176.27393 0.32226,0.87951 2.21558,-5.56579 h 1.38977 l -3.68591,8.38562 q -0.12757,0.28198 -0.32898,0.59753 -0.19471,0.31555 -0.47669,0.58411 -0.28198,0.26855 -0.65796,0.44983 -0.37597,0.18127 -0.86609,0.18127 -0.0873,0 -0.1947,-0.0134 -0.10742,-0.007 -0.21484,-0.0268 -0.10742,-0.0134 -0.20142,-0.0336 -0.094,-0.0201 -0.15442,-0.0336 l 0.20142,-1.0138 q 0.047,0 0.12756,0.007 0.0806,0.007 0.16785,0.0134 0.0873,0.007 0.16785,0.007 0.0806,0.007 0.12756,0.007 0.25513,0 0.46326,-0.14099 0.21484,-0.14099 0.37597,-0.33569 0.16785,-0.1947 0.28198,-0.40283 0.12085,-0.20813 0.18799,-0.34241 l 0.49683,-0.9668 -3.12866,-6.92199 h 1.38977 z"
               style="font-style:normal;font-variant:normal;font-weight:normal;font-stretch:normal;font-size:13.75px;line-height:1.25;font-family:'Roboto Mono';-inkscape-font-specification:'Roboto Mono'"
               id="path101" />
            <path
               d="m 272.64777,174.95129 q 0,0.96009 -0.15442,1.80603 -0.14771,0.84595 -0.40283,1.57105 -0.25513,0.71838 -0.59083,1.3092 -0.32897,0.59754 -0.69824,1.06079 -0.36255,0.46997 -0.73852,0.79224 -0.36927,0.32898 -0.70496,0.51697 l -0.26184,-0.75867 q 0.41626,-0.30884 0.82581,-0.86609 0.41626,-0.55053 0.73852,-1.33606 0.32898,-0.78552 0.5304,-1.80603 0.20813,-1.02051 0.20813,-2.276 v -0.094 q 0,-1.2555 -0.21485,-2.276 -0.21484,-1.02723 -0.55725,-1.81275 -0.33569,-0.79223 -0.74524,-1.34277 -0.40283,-0.55054 -0.78552,-0.85938 l 0.26184,-0.75866 q 0.33569,0.18799 0.70496,0.51696 0.37597,0.32898 0.73852,0.79224 0.36927,0.46326 0.69824,1.06079 0.3357,0.59754 0.59083,1.32263 0.25512,0.71839 0.40283,1.56433 0.15442,0.84595 0.15442,1.80604 z"
               style="font-style:normal;font-variant:normal;font-weight:normal;font-stretch:normal;font-size:13.75px;line-height:1.25;font-family:'Roboto Mono';-inkscape-font-specification:'Roboto Mono'"
               id="path103" />
          </g>
          <path
             style="fill:#cccccc;fill-opacity:1;stroke:#000000;stroke-width:1;stroke-miterlimit:4;stroke-dasharray:none"
             d="M 85.806641,134.16602 A 30,30 0 0 0 73.740234,158.17578 30,30 0 0 0 85.814453,182.18555 30,30 0 0 0 97.880859,158.17578 30,30 0 0 0 85.806641,134.16602 Z"
             id="circle4531"
             inkscape:connector-curvature="0" />
        </g>
      </g>
      <g
         id="g4318">
        <path
           style="fill:#e6e6e6;fill-opacity:1;stroke:none;stroke-width:1;stroke-miterlimit:4;stroke-dasharray:none"
           d="M 82.785495,257.2365 C 71.98671,245.88809 71.843204,228.40744 82.456991,217.22103 l 3.177869,-3.34932 1.432926,1.04612 c 0.788109,0.57536 2.570336,2.54671 3.960505,4.38076 8.926914,11.77732 7.809727,28.05332 -2.633503,38.36682 l -2.681356,2.64805 z"
           id="path4278"
           inkscape:connector-curvature="0" />
        <path
           style="fill:#cccccc;fill-opacity:1;stroke:#000000;stroke-width:1;stroke-miterlimit:4;stroke-dasharray:none"
           d="m 97.880714,236.96863 a 30,30 0 0 1 -30,30 30,30 0 0 1 -30,-30 30,30 0 0 1 30,-30 30,30 0 0 1 30,30 z"
           id="circle4211" />
        <path
           style="fill:#cccccc;fill-opacity:1;stroke:#000000;stroke-width:1;stroke-miterlimit:4;stroke-dasharray:none"
           d="m 133.74113,236.96863 a 30,30 0 0 1 -30,30 30,30 0 0 1 -30.000003,-30 30,30 0 0 1 30.000003,-30 30,30 0 0 1 30,30 z"
           id="circle4213" />
        <g
           aria-label="unión total
full_join(x,y)"
           style="font-style:normal;font-weight:normal;line-height:0%;font-family:sans-serif;letter-spacing:0px;word-spacing:0px;fill:#000000;fill-opacity:1;stroke:none;stroke-width:1px;stroke-linecap:butt;stroke-linejoin:miter;stroke-opacity:1"
           id="text4232">
          <path
             d="m 156.61871,239.71796 q -0.71838,0.8728 -1.9873,0.8728 -1.16821,0 -1.78589,-0.67139 -0.61096,-0.67138 -0.62439,-1.96716 v -4.76013 h 1.94031 v 4.69299 q 0,1.13464 1.03393,1.13464 0.98694,0 1.3562,-0.68481 v -5.14282 h 1.94703 v 7.2644 h -1.82618 z"
             style="font-style:normal;font-variant:normal;font-weight:bold;font-stretch:normal;font-size:13.75px;line-height:1.25;font-family:Roboto;-inkscape-font-specification:'Roboto Bold'"
             id="path108" />
          <path
             d="m 161.76154,233.19208 0.0604,0.83923 q 0.77881,-0.97351 2.08801,-0.97351 1.15479,0 1.71875,0.6781 0.56397,0.6781 0.5774,2.02759 v 4.69299 h -1.94031 v -4.64599 q 0,-0.61768 -0.26856,-0.89295 -0.26855,-0.28198 -0.89294,-0.28198 -0.81909,0 -1.22864,0.69824 v 5.12268 h -1.94031 v -7.2644 z"
             style="font-style:normal;font-variant:normal;font-weight:bold;font-stretch:normal;font-size:13.75px;line-height:1.25;font-family:Roboto;-inkscape-font-specification:'Roboto Bold'"
             id="path110" />
          <path
             d="m 169.7309,240.45648 h -1.94703 v -7.2644 h 1.94703 z m -2.06116,-9.14429 q 0,-0.4364 0.2887,-0.71838 0.29541,-0.28198 0.79895,-0.28198 0.49682,0 0.79223,0.28198 0.29541,0.28198 0.29541,0.71838 0,0.44312 -0.30212,0.7251 -0.29541,0.28198 -0.78552,0.28198 -0.49012,0 -0.79224,-0.28198 -0.29541,-0.28198 -0.29541,-0.7251 z"
             style="font-style:normal;font-variant:normal;font-weight:bold;font-stretch:normal;font-size:13.75px;line-height:1.25;font-family:Roboto;-inkscape-font-specification:'Roboto Bold'"
             id="path112" />
          <path
             d="m 171.03339,236.75714 q 0,-1.08093 0.41626,-1.92688 0.41626,-0.84595 1.19506,-1.3092 0.78553,-0.46326 1.81946,-0.46326 1.47034,0 2.39685,0.89966 0.93323,0.89966 1.04065,2.44385 l 0.0134,0.49682 q 0,1.67176 -0.93323,2.68555 -0.93322,1.00708 -2.50427,1.00708 -1.57104,0 -2.51099,-1.00708 -0.93322,-1.00708 -0.93322,-2.73926 z m 1.9403,0.14099 q 0,1.03394 0.38941,1.58447 0.3894,0.54383 1.1145,0.54383 0.70496,0 1.10107,-0.53711 0.39612,-0.54382 0.39612,-1.73218 0,-1.01379 -0.39612,-1.57104 -0.39611,-0.55725 -1.1145,-0.55725 -0.71167,0 -1.10107,0.55725 -0.38941,0.55053 -0.38941,1.71203 z m 1.87317,-6.75415 h 2.11487 l -1.85974,2.0813 h -1.57776 z"
             style="font-style:normal;font-variant:normal;font-weight:bold;font-stretch:normal;font-size:13.75px;line-height:1.25;font-family:Roboto;-inkscape-font-specification:'Roboto Bold'"
             id="path114" />
          <path
             d="m 180.90948,233.19208 0.0604,0.83923 q 0.77881,-0.97351 2.08801,-0.97351 1.15479,0 1.71875,0.6781 0.56397,0.6781 0.57739,2.02759 v 4.69299 h -1.9403 v -4.64599 q 0,-0.61768 -0.26856,-0.89295 -0.26855,-0.28198 -0.89294,-0.28198 -0.81909,0 -1.22864,0.69824 v 5.12268 h -1.94031 v -7.2644 z"
             style="font-style:normal;font-variant:normal;font-weight:bold;font-stretch:normal;font-size:13.75px;line-height:1.25;font-family:Roboto;-inkscape-font-specification:'Roboto Bold'"
             id="path116" />
          <path
             d="m 192.59161,231.40619 v 1.78589 h 1.24207 v 1.42334 h -1.24207 v 3.62549 q 0,0.40283 0.15442,0.57739 0.15442,0.17456 0.59082,0.17456 0.32227,0 0.57068,-0.047 v 1.47034 q -0.57068,0.17456 -1.17493,0.17456 -2.04101,0 -2.08129,-2.06116 v -3.91418 h -1.06079 v -1.42334 h 1.06079 v -1.78589 z"
             style="font-style:normal;font-variant:normal;font-weight:bold;font-stretch:normal;font-size:13.75px;line-height:1.25;font-family:Roboto;-inkscape-font-specification:'Roboto Bold'"
             id="path118" />
          <path
             d="m 194.4245,236.75714 q 0,-1.08093 0.41626,-1.92688 0.41626,-0.84595 1.19507,-1.3092 0.78552,-0.46326 1.81946,-0.46326 1.47033,0 2.39685,0.89966 0.93322,0.89966 1.04065,2.44385 l 0.0134,0.49682 q 0,1.67176 -0.93322,2.68555 -0.93323,1.00708 -2.50428,1.00708 -1.57104,0 -2.51098,-1.00708 -0.93323,-1.00708 -0.93323,-2.73926 z m 1.94031,0.14099 q 0,1.03394 0.3894,1.58447 0.38941,0.54383 1.1145,0.54383 0.70496,0 1.10108,-0.53711 0.39612,-0.54382 0.39612,-1.73218 0,-1.01379 -0.39612,-1.57104 -0.39612,-0.55725 -1.1145,-0.55725 -0.71167,0 -1.10108,0.55725 -0.3894,0.55053 -0.3894,1.71203 z"
             style="font-style:normal;font-variant:normal;font-weight:bold;font-stretch:normal;font-size:13.75px;line-height:1.25;font-family:Roboto;-inkscape-font-specification:'Roboto Bold'"
             id="path120" />
          <path
             d="m 204.83771,231.40619 v 1.78589 h 1.24206 v 1.42334 h -1.24206 v 3.62549 q 0,0.40283 0.15442,0.57739 0.15442,0.17456 0.59082,0.17456 0.32226,0 0.57068,-0.047 v 1.47034 q -0.57068,0.17456 -1.17493,0.17456 -2.04102,0 -2.0813,-2.06116 v -3.91418 h -1.06079 v -1.42334 h 1.06079 v -1.78589 z"
             style="font-style:normal;font-variant:normal;font-weight:bold;font-stretch:normal;font-size:13.75px;line-height:1.25;font-family:Roboto;-inkscape-font-specification:'Roboto Bold'"
             id="path122" />
          <path
             d="m 211.3703,240.45648 q -0.13428,-0.26184 -0.1947,-0.65124 -0.70496,0.78552 -1.83289,0.78552 -1.0675,0 -1.77246,-0.61768 -0.69824,-0.61767 -0.69824,-1.55761 0,-1.15479 0.85266,-1.77246 0.85938,-0.61768 2.47742,-0.62439 h 0.89294 v -0.41626 q 0,-0.50354 -0.26184,-0.80567 -0.25513,-0.30212 -0.81238,-0.30212 -0.49011,0 -0.77209,0.23498 -0.27527,0.23499 -0.27527,0.64453 h -1.94031 q 0,-0.6311 0.38941,-1.16821 0.3894,-0.53711 1.10107,-0.83923 0.71167,-0.30884 1.5979,-0.30884 1.34277,0 2.1283,0.6781 0.79223,0.67139 0.79223,1.89331 v 3.14881 q 0.007,1.03393 0.2887,1.56433 v 0.11413 z m -1.60461,-1.34949 q 0.42968,0 0.79223,-0.18798 0.36255,-0.19471 0.53711,-0.51697 v -1.24878 h -0.7251 q -1.45691,0 -1.5509,1.00708 l -0.007,0.11414 q 0,0.36254 0.25512,0.59753 0.25513,0.23498 0.69825,0.23498 z"
             style="font-style:normal;font-variant:normal;font-weight:bold;font-stretch:normal;font-size:13.75px;line-height:1.25;font-family:Roboto;-inkscape-font-specification:'Roboto Bold'"
             id="path124" />
          <path
             d="m 216.59369,240.45648 h -1.94702 v -10.3125 h 1.94702 z"
             style="font-style:normal;font-variant:normal;font-weight:bold;font-stretch:normal;font-size:13.75px;line-height:1.25;font-family:Roboto;-inkscape-font-specification:'Roboto Bold'"
             id="path126" />
          <path
             d="m 154.54413,257.64398 v -6.30432 h -2.00073 v -0.96008 h 2.00073 v -0.51026 q 0,-0.69824 0.20141,-1.22192 0.20813,-0.5304 0.5774,-0.88623 0.37597,-0.35584 0.89966,-0.53711 0.52368,-0.18127 1.16821,-0.18127 0.44311,0 0.85937,0.0738 0.42298,0.0739 0.86609,0.18799 l -0.1477,1.02722 q -0.27527,-0.094 -0.64453,-0.16113 -0.36255,-0.0739 -0.77881,-0.0739 -0.87281,0.007 -1.31592,0.44312 -0.4364,0.4364 -0.4364,1.32934 v 0.51026 h 2.79968 v 0.96008 h -2.79968 v 6.30432 z"
             style="font-style:normal;font-variant:normal;font-weight:normal;font-stretch:normal;font-size:13.75px;line-height:1.25;font-family:'Roboto Mono';-inkscape-font-specification:'Roboto Mono'"
             id="path128" />
          <path
             d="m 165.67572,256.64362 q -0.36255,0.53711 -0.90637,0.83923 -0.54383,0.29541 -1.2555,0.29541 -0.57067,0 -1.03393,-0.17456 -0.46326,-0.18128 -0.79224,-0.55725 -0.32898,-0.37598 -0.51025,-0.95337 -0.17456,-0.58411 -0.17456,-1.39649 v -4.31701 h 1.24206 v 4.33044 q 0,0.59082 0.094,0.98023 0.094,0.3894 0.28198,0.62439 0.18799,0.22827 0.45654,0.32226 0.27527,0.094 0.63111,0.094 0.75866,0 1.22192,-0.30884 0.46997,-0.30884 0.69824,-0.83252 v -5.20996 h 1.24878 v 7.2644 h -1.12793 z"
             style="font-style:normal;font-variant:normal;font-weight:normal;font-stretch:normal;font-size:13.75px;line-height:1.25;font-family:'Roboto Mono';-inkscape-font-specification:'Roboto Mono'"
             id="path130" />
          <path
             d="m 169.40192,247.33148 h 3.71277 v 9.23828 h 2.36999 v 1.07422 h -6.08276 v -1.07422 h 2.4707 v -8.15735 h -2.4707 z"
             style="font-style:normal;font-variant:normal;font-weight:normal;font-stretch:normal;font-size:13.75px;line-height:1.25;font-family:'Roboto Mono';-inkscape-font-specification:'Roboto Mono'"
             id="path132" />
          <path
             d="m 177.64655,247.33148 h 3.71276 v 9.23828 h 2.37 v 1.07422 h -6.08276 v -1.07422 h 2.4707 v -8.15735 h -2.4707 z"
             style="font-style:normal;font-variant:normal;font-weight:normal;font-stretch:normal;font-size:13.75px;line-height:1.25;font-family:'Roboto Mono';-inkscape-font-specification:'Roboto Mono'"
             id="path134" />
          <path
             d="m 191.72552,258.65778 h -6.15661 v -1.0138 h 6.15661 z"
             style="font-style:normal;font-variant:normal;font-weight:normal;font-stretch:normal;font-size:13.75px;line-height:1.25;font-family:'Roboto Mono';-inkscape-font-specification:'Roboto Mono'"
             id="path136" />
          <path
             d="m 194.78033,250.37958 h 3.66578 v 7.3114 q 0,0.69824 -0.19471,1.23535 -0.18798,0.53711 -0.55725,0.89966 -0.36255,0.36926 -0.89294,0.55725 -0.52368,0.1947 -1.19507,0.1947 -0.38269,0 -0.71838,-0.0269 -0.32898,-0.0202 -0.69825,-0.0873 l 0.0873,-1.02051 q 0.11414,0.0201 0.2887,0.0336 0.17456,0.0201 0.34912,0.0268 0.18128,0.0134 0.34241,0.0134 0.16785,0.007 0.26184,0.007 0.34912,0 0.65796,-0.094 0.30884,-0.0873 0.53711,-0.30212 0.22827,-0.21485 0.35583,-0.57068 0.13428,-0.34912 0.13428,-0.86609 v -6.23047 h -2.42371 z m 2.24915,-1.91345 q 0,-0.30213 0.18127,-0.51026 0.18128,-0.21484 0.55726,-0.21484 0.37597,0 0.56396,0.21484 0.18799,0.20813 0.18799,0.51026 0,0.30212 -0.18799,0.51025 -0.18799,0.20142 -0.56396,0.20142 -0.37598,0 -0.55726,-0.20142 -0.18127,-0.20813 -0.18127,-0.51025 z"
             style="font-style:normal;font-variant:normal;font-weight:normal;font-stretch:normal;font-size:13.75px;line-height:1.25;font-family:'Roboto Mono';-inkscape-font-specification:'Roboto Mono'"
             id="path138" />
          <path
             d="m 201.83661,253.94464 q 0,-0.78552 0.22827,-1.45691 0.22827,-0.6781 0.65125,-1.17492 0.42968,-0.49683 1.04064,-0.77881 0.61097,-0.2887 1.37635,-0.2887 0.77209,0 1.38305,0.2887 0.61768,0.28198 1.04065,0.77881 0.42969,0.49682 0.65796,1.17492 0.22827,0.67139 0.22827,1.45691 v 0.14771 q 0,0.78552 -0.22827,1.45691 -0.22827,0.67138 -0.65796,1.16821 -0.42297,0.49682 -1.03393,0.77881 -0.61096,0.28198 -1.37634,0.28198 -0.7721,0 -1.38978,-0.28198 -0.61096,-0.28199 -1.04064,-0.77881 -0.42298,-0.49683 -0.65125,-1.16821 -0.22827,-0.67139 -0.22827,-1.45691 z m 1.24206,0.14771 q 0,0.53711 0.12757,1.02722 0.12756,0.4834 0.38269,0.85266 0.26184,0.36926 0.65124,0.58411 0.38941,0.21484 0.90638,0.21484 0.51025,0 0.89294,-0.21484 0.3894,-0.21485 0.64453,-0.58411 0.26184,-0.36926 0.38941,-0.85266 0.12756,-0.49011 0.12756,-1.02722 v -0.14771 q 0,-0.53039 -0.13428,-1.01379 -0.12756,-0.49012 -0.3894,-0.85938 -0.25513,-0.36926 -0.64453,-0.5841 -0.38269,-0.22156 -0.89966,-0.22156 -0.51697,0 -0.89966,0.22156 -0.38269,0.21484 -0.64453,0.5841 -0.25513,0.36926 -0.38269,0.85938 -0.12757,0.4834 -0.12757,1.01379 z"
             style="font-style:normal;font-variant:normal;font-weight:normal;font-stretch:normal;font-size:13.75px;line-height:1.25;font-family:'Roboto Mono';-inkscape-font-specification:'Roboto Mono'"
             id="path140" />
          <path
             d="m 210.62506,250.37958 h 3.71277 v 6.19018 h 2.36999 v 1.07422 h -6.08276 v -1.07422 h 2.4707 v -5.10925 h -2.4707 z m 2.30957,-1.90674 q 0,-0.30884 0.18128,-0.51697 0.18798,-0.21484 0.56396,-0.21484 0.36926,0 0.55725,0.21484 0.18799,0.20813 0.18799,0.51697 0,0.30212 -0.18799,0.50354 -0.18799,0.20142 -0.55725,0.20142 -0.37598,0 -0.56396,-0.20142 -0.18128,-0.20142 -0.18128,-0.50354 z"
             style="font-style:normal;font-variant:normal;font-weight:normal;font-stretch:normal;font-size:13.75px;line-height:1.25;font-family:'Roboto Mono';-inkscape-font-specification:'Roboto Mono'"
             id="path142" />
          <path
             d="m 219.78949,250.37958 0.0873,1.07422 q 0.39612,-0.56397 0.97351,-0.87952 0.57739,-0.32227 1.28906,-0.32898 0.57068,0 1.03394,0.16113 0.46997,0.16114 0.79895,0.50354 0.32898,0.34241 0.50354,0.87281 0.18127,0.52368 0.18127,1.24878 v 4.61242 h -1.24206 v -4.58557 q 0,-0.4834 -0.10742,-0.81909 -0.10743,-0.33569 -0.32227,-0.54382 -0.20813,-0.20813 -0.51697,-0.30213 -0.30212,-0.094 -0.69824,-0.094 -0.62439,0 -1.10107,0.31555 -0.46997,0.30884 -0.75196,0.81909 v 5.20996 h -1.24206 v -7.2644 z"
             style="font-style:normal;font-variant:normal;font-weight:normal;font-stretch:normal;font-size:13.75px;line-height:1.25;font-family:'Roboto Mono';-inkscape-font-specification:'Roboto Mono'"
             id="path144" />
          <path
             d="m 228.14825,253.67609 q 0,-0.96009 0.14771,-1.80603 0.15442,-0.84595 0.40955,-1.56433 0.25512,-0.7251 0.5841,-1.32264 0.3357,-0.59753 0.69824,-1.06079 0.36927,-0.46325 0.73853,-0.79223 0.36926,-0.32898 0.70496,-0.51697 l 0.26184,0.81909 q -0.41626,0.31555 -0.83252,0.85937 -0.40955,0.54383 -0.73853,1.32264 -0.32226,0.77209 -0.53039,1.78589 -0.20142,1.00708 -0.20142,2.26257 v 0.094 q 0,1.2555 0.20142,2.26929 0.20813,1.01379 0.53039,1.7926 0.32898,0.77881 0.73853,1.32935 0.41626,0.55725 0.83252,0.89294 l -0.26184,0.75867 q -0.3357,-0.18799 -0.71167,-0.51697 -0.36927,-0.32226 -0.73853,-0.79223 -0.36255,-0.46326 -0.69824,-1.0608 -0.32898,-0.59082 -0.58411,-1.3092 -0.24841,-0.7251 -0.40283,-1.57104 -0.14771,-0.84595 -0.14771,-1.80603 z"
             style="font-style:normal;font-variant:normal;font-weight:normal;font-stretch:normal;font-size:13.75px;line-height:1.25;font-family:'Roboto Mono';-inkscape-font-specification:'Roboto Mono'"
             id="path146" />
          <path
             d="m 238.16534,253.07184 1.94031,-2.69226 h 1.45691 l -2.70569,3.59192 2.77954,3.67248 h -1.43676 l -2.00745,-2.76611 -2.00745,2.76611 h -1.45019 l 2.77954,-3.67248 -2.70569,-3.59192 h 1.43677 z"
             style="font-style:normal;font-variant:normal;font-weight:normal;font-stretch:normal;font-size:13.75px;line-height:1.25;font-family:'Roboto Mono';-inkscape-font-specification:'Roboto Mono'"
             id="path148" />
          <path
             d="m 246.55768,257.35529 q 0,0.31555 -0.0806,0.65795 -0.0739,0.34913 -0.22827,0.68482 -0.1477,0.34241 -0.36255,0.65124 -0.21484,0.30884 -0.49682,0.55054 l -0.7721,-0.42297 q 0.32227,-0.46997 0.45654,-1.00037 0.13428,-0.53039 0.13428,-1.10107 v -1.20178 h 1.34949 z"
             style="font-style:normal;font-variant:normal;font-weight:normal;font-stretch:normal;font-size:13.75px;line-height:1.25;font-family:'Roboto Mono';-inkscape-font-specification:'Roboto Mono'"
             id="path150" />
          <path
             d="m 254.32562,255.06586 0.32227,0.87951 2.21557,-5.56579 h 1.38977 l -3.68591,8.38562 q -0.12756,0.28198 -0.32898,0.59753 -0.1947,0.31555 -0.47668,0.58411 -0.28198,0.26855 -0.65796,0.44983 -0.37598,0.18127 -0.86609,0.18127 -0.0873,0 -0.1947,-0.0134 -0.10742,-0.007 -0.21485,-0.0268 -0.10742,-0.0134 -0.20141,-0.0336 -0.094,-0.0201 -0.15442,-0.0336 l 0.20142,-1.01379 q 0.047,0 0.12756,0.007 0.0806,0.007 0.16785,0.0134 0.0873,0.007 0.16784,0.007 0.0806,0.007 0.12757,0.007 0.25512,0 0.46325,-0.141 0.21485,-0.14099 0.37598,-0.33569 0.16785,-0.1947 0.28198,-0.40283 0.12085,-0.20813 0.18799,-0.34241 l 0.49683,-0.9668 -3.12867,-6.92199 h 1.38977 z"
             style="font-style:normal;font-variant:normal;font-weight:normal;font-stretch:normal;font-size:13.75px;line-height:1.25;font-family:'Roboto Mono';-inkscape-font-specification:'Roboto Mono'"
             id="path152" />
          <path
             d="m 264.42999,253.74323 q 0,0.96008 -0.15442,1.80603 -0.1477,0.84594 -0.40283,1.57104 -0.25513,0.71838 -0.59082,1.3092 -0.32898,0.59754 -0.69824,1.0608 -0.36255,0.46997 -0.73853,0.79223 -0.36926,0.32898 -0.70495,0.51697 l -0.26184,-0.75867 q 0.41626,-0.30884 0.8258,-0.86609 0.41626,-0.55053 0.73853,-1.33606 0.32898,-0.78552 0.53039,-1.80603 0.20813,-1.0205 0.20813,-2.276 v -0.094 q 0,-1.25549 -0.21484,-2.276 -0.21484,-1.02722 -0.55725,-1.81275 -0.33569,-0.79223 -0.74524,-1.34277 -0.40283,-0.55054 -0.78552,-0.85937 l 0.26184,-0.75867 q 0.33569,0.18799 0.70495,0.51697 0.37598,0.32898 0.73853,0.79223 0.36926,0.46326 0.69824,1.06079 0.33569,0.59754 0.59082,1.32264 0.25513,0.71838 0.40283,1.56433 0.15442,0.84594 0.15442,1.80603 z"
             style="font-style:normal;font-variant:normal;font-weight:normal;font-stretch:normal;font-size:13.75px;line-height:1.25;font-family:'Roboto Mono';-inkscape-font-specification:'Roboto Mono'"
             id="path154" />
        </g>
        <path
           style="fill:#cccccc;fill-opacity:1;stroke:#000000;stroke-width:1;stroke-miterlimit:4;stroke-dasharray:none"
           d="M 85.806641,212.95898 A 30,30 0 0 0 73.740234,236.96875 30,30 0 0 0 85.816406,260.97852 30,30 0 0 0 97.880859,236.96875 30,30 0 0 0 85.806641,212.95898 Z"
           id="circle4521"
           inkscape:connector-curvature="0" />
      </g>
    </g>
    <g
       id="g4435"
       transform="translate(2.4484475)">
      <g
         transform="translate(256.95756)"
         id="g4333">
        <g
           id="g4335">
          <path
             style="fill:#cccccc;fill-opacity:1;stroke:#000000;stroke-width:1;stroke-miterlimit:4;stroke-dasharray:none"
             d="m 97.880714,158.1767 a 30,30 0 0 1 -30,30 30,30 0 0 1 -30,-30 30,30 0 0 1 30,-30 30,30 0 0 1 30,30 z"
             id="circle4337" />
          <path
             style="fill:none;fill-opacity:1;stroke:#000000;stroke-width:1;stroke-miterlimit:4;stroke-dasharray:none"
             d="m 133.74113,158.1767 a 30,30 0 0 1 -30,30 30,30 0 0 1 -30.000003,-30 30,30 0 0 1 30.000003,-30 30,30 0 0 1 30,30 z"
             id="circle4339" />
          <g
             aria-label="unión por la izquierda
left_join(x,y)"
             style="font-style:normal;font-weight:normal;line-height:0%;font-family:sans-serif;letter-spacing:0px;word-spacing:0px;fill:#000000;fill-opacity:1;stroke:none;stroke-width:1px;stroke-linecap:butt;stroke-linejoin:miter;stroke-opacity:1"
             id="text4341">
            <path
               d="m 156.61871,160.92603 q -0.71838,0.8728 -1.9873,0.8728 -1.16821,0 -1.78589,-0.67139 -0.61096,-0.67139 -0.62439,-1.96716 v -4.76013 h 1.94031 v 4.69299 q 0,1.13464 1.03393,1.13464 0.98694,0 1.3562,-0.68481 v -5.14282 h 1.94703 v 7.2644 h -1.82618 z"
               style="font-style:normal;font-variant:normal;font-weight:bold;font-stretch:normal;font-size:13.75px;line-height:1.25;font-family:Roboto;-inkscape-font-specification:'Roboto Bold'"
               id="path159" />
            <path
               d="m 161.76154,154.40015 0.0604,0.83923 q 0.77881,-0.97351 2.08801,-0.97351 1.15479,0 1.71875,0.6781 0.56397,0.6781 0.5774,2.02759 v 4.69299 h -1.94031 v -4.646 q 0,-0.61767 -0.26856,-0.89294 -0.26855,-0.28198 -0.89294,-0.28198 -0.81909,0 -1.22864,0.69824 v 5.12268 h -1.94031 v -7.2644 z"
               style="font-style:normal;font-variant:normal;font-weight:bold;font-stretch:normal;font-size:13.75px;line-height:1.25;font-family:Roboto;-inkscape-font-specification:'Roboto Bold'"
               id="path161" />
            <path
               d="m 169.7309,161.66455 h -1.94703 v -7.2644 h 1.94703 z m -2.06116,-9.14429 q 0,-0.4364 0.2887,-0.71838 0.29541,-0.28198 0.79895,-0.28198 0.49682,0 0.79223,0.28198 0.29541,0.28198 0.29541,0.71838 0,0.44312 -0.30212,0.7251 -0.29541,0.28198 -0.78552,0.28198 -0.49012,0 -0.79224,-0.28198 -0.29541,-0.28198 -0.29541,-0.7251 z"
               style="font-style:normal;font-variant:normal;font-weight:bold;font-stretch:normal;font-size:13.75px;line-height:1.25;font-family:Roboto;-inkscape-font-specification:'Roboto Bold'"
               id="path163" />
            <path
               d="m 171.03339,157.96521 q 0,-1.08093 0.41626,-1.92688 0.41626,-0.84595 1.19506,-1.3092 0.78553,-0.46326 1.81946,-0.46326 1.47034,0 2.39685,0.89966 0.93323,0.89966 1.04065,2.44384 l 0.0134,0.49683 q 0,1.67175 -0.93323,2.68555 -0.93322,1.00708 -2.50427,1.00708 -1.57104,0 -2.51099,-1.00708 -0.93322,-1.00708 -0.93322,-2.73926 z m 1.9403,0.14099 q 0,1.03394 0.38941,1.58447 0.3894,0.54383 1.1145,0.54383 0.70496,0 1.10107,-0.53711 0.39612,-0.54383 0.39612,-1.73218 0,-1.01379 -0.39612,-1.57104 -0.39611,-0.55726 -1.1145,-0.55726 -0.71167,0 -1.10107,0.55726 -0.38941,0.55053 -0.38941,1.71203 z m 1.87317,-6.75415 h 2.11487 l -1.85974,2.0813 h -1.57776 z"
               style="font-style:normal;font-variant:normal;font-weight:bold;font-stretch:normal;font-size:13.75px;line-height:1.25;font-family:Roboto;-inkscape-font-specification:'Roboto Bold'"
               id="path165" />
            <path
               d="m 180.90948,154.40015 0.0604,0.83923 q 0.77881,-0.97351 2.08801,-0.97351 1.15479,0 1.71875,0.6781 0.56397,0.6781 0.57739,2.02759 v 4.69299 h -1.9403 v -4.646 q 0,-0.61767 -0.26856,-0.89294 -0.26855,-0.28198 -0.89294,-0.28198 -0.81909,0 -1.22864,0.69824 v 5.12268 h -1.94031 v -7.2644 z"
               style="font-style:normal;font-variant:normal;font-weight:bold;font-stretch:normal;font-size:13.75px;line-height:1.25;font-family:Roboto;-inkscape-font-specification:'Roboto Bold'"
               id="path167" />
            <path
               d="m 196.80792,158.09949 q 0,1.67846 -0.76538,2.69226 -0.75867,1.00708 -2.05444,1.00708 -1.10108,0 -1.77918,-0.76538 v 3.42407 h -1.9403 v -10.05737 h 1.79931 l 0.0671,0.71167 q 0.70496,-0.84595 1.8396,-0.84595 1.34277,0 2.08801,0.99365 0.74524,0.99365 0.74524,2.73926 z m -1.94031,-0.14099 q 0,-1.0138 -0.36254,-1.56433 -0.35584,-0.55054 -1.04065,-0.55054 -0.91309,0 -1.2555,0.69824 v 2.97424 q 0.35584,0.71839 1.26892,0.71839 1.38977,0 1.38977,-2.276 z"
               style="font-style:normal;font-variant:normal;font-weight:bold;font-stretch:normal;font-size:13.75px;line-height:1.25;font-family:Roboto;-inkscape-font-specification:'Roboto Bold'"
               id="path169" />
            <path
               d="m 197.70087,157.96521 q 0,-1.08093 0.41626,-1.92688 0.41626,-0.84595 1.19506,-1.3092 0.78553,-0.46326 1.81946,-0.46326 1.47034,0 2.39685,0.89966 0.93323,0.89966 1.04065,2.44384 l 0.0134,0.49683 q 0,1.67175 -0.93323,2.68555 -0.93322,1.00708 -2.50427,1.00708 -1.57104,0 -2.51099,-1.00708 -0.93322,-1.00708 -0.93322,-2.73926 z m 1.9403,0.14099 q 0,1.03394 0.38941,1.58447 0.3894,0.54383 1.1145,0.54383 0.70496,0 1.10107,-0.53711 0.39612,-0.54383 0.39612,-1.73218 0,-1.01379 -0.39612,-1.57104 -0.39611,-0.55726 -1.1145,-0.55726 -0.71167,0 -1.10107,0.55726 -0.38941,0.55053 -0.38941,1.71203 z"
               style="font-style:normal;font-variant:normal;font-weight:bold;font-stretch:normal;font-size:13.75px;line-height:1.25;font-family:Roboto;-inkscape-font-specification:'Roboto Bold'"
               id="path171" />
            <path
               d="m 209.87311,156.2196 q -0.39612,-0.0537 -0.69824,-0.0537 -1.10108,0 -1.44349,0.74524 v 4.75342 h -1.9403 v -7.2644 h 1.83288 l 0.0537,0.86609 q 0.58411,-1.00037 1.61805,-1.00037 0.32226,0 0.60424,0.0873 z"
               style="font-style:normal;font-variant:normal;font-weight:bold;font-stretch:normal;font-size:13.75px;line-height:1.25;font-family:Roboto;-inkscape-font-specification:'Roboto Bold'"
               id="path173" />
            <path
               d="m 216.29828,161.66455 h -1.94702 v -10.3125 h 1.94702 z"
               style="font-style:normal;font-variant:normal;font-weight:bold;font-stretch:normal;font-size:13.75px;line-height:1.25;font-family:Roboto;-inkscape-font-specification:'Roboto Bold'"
               id="path175" />
            <path
               d="m 222.11249,161.66455 q -0.13428,-0.26184 -0.1947,-0.65124 -0.70496,0.78552 -1.83289,0.78552 -1.0675,0 -1.77246,-0.61768 -0.69824,-0.61767 -0.69824,-1.55761 0,-1.15479 0.85266,-1.77247 0.85937,-0.61767 2.47741,-0.62439 h 0.89295 v -0.41626 q 0,-0.50354 -0.26184,-0.80566 -0.25513,-0.30212 -0.81238,-0.30212 -0.49011,0 -0.77209,0.23498 -0.27527,0.23499 -0.27527,0.64453 h -1.94031 q 0,-0.6311 0.3894,-1.16821 0.38941,-0.53711 1.10108,-0.83923 0.71167,-0.30884 1.5979,-0.30884 1.34277,0 2.12829,0.6781 0.79224,0.67139 0.79224,1.89331 v 3.1488 q 0.007,1.03394 0.2887,1.56434 v 0.11413 z m -1.60462,-1.34949 q 0.42969,0 0.79224,-0.18798 0.36255,-0.19471 0.53711,-0.51697 v -1.24878 h -0.7251 q -1.45691,0 -1.5509,1.00708 l -0.007,0.11413 q 0,0.36255 0.25513,0.59754 0.25513,0.23498 0.69824,0.23498 z"
               style="font-style:normal;font-variant:normal;font-weight:bold;font-stretch:normal;font-size:13.75px;line-height:1.25;font-family:Roboto;-inkscape-font-specification:'Roboto Bold'"
               id="path177" />
            <path
               d="m 230.77338,161.66455 h -1.94703 v -7.2644 h 1.94703 z m -2.06116,-9.14429 q 0,-0.4364 0.2887,-0.71838 0.29541,-0.28198 0.79895,-0.28198 0.49682,0 0.79223,0.28198 0.29541,0.28198 0.29541,0.71838 0,0.44312 -0.30212,0.7251 -0.29541,0.28198 -0.78552,0.28198 -0.49012,0 -0.79224,-0.28198 -0.29541,-0.28198 -0.29541,-0.7251 z"
               style="font-style:normal;font-variant:normal;font-weight:bold;font-stretch:normal;font-size:13.75px;line-height:1.25;font-family:Roboto;-inkscape-font-specification:'Roboto Bold'"
               id="path179" />
            <path
               d="m 234.60699,160.10022 h 3.55164 v 1.56433 h -6.02905 v -1.18164 l 3.41736,-4.51172 h -3.31665 v -1.57104 h 5.82092 v 1.14807 z"
               style="font-style:normal;font-variant:normal;font-weight:bold;font-stretch:normal;font-size:13.75px;line-height:1.25;font-family:Roboto;-inkscape-font-specification:'Roboto Bold'"
               id="path181" />
            <path
               d="m 239.08514,157.96521 q 0,-1.71204 0.75867,-2.70569 0.76538,-0.99365 2.09473,-0.99365 1.16821,0 1.85974,0.89294 l 0.12756,-0.75866 h 1.70532 v 10.05737 h -1.94702 v -3.41736 q -0.67138,0.75867 -1.75903,0.75867 -1.29578,0 -2.06787,-1.00708 -0.7721,-1.00708 -0.7721,-2.82654 z m 1.94031,0.14099 q 0,1.04065 0.36255,1.58447 0.36926,0.54383 1.03394,0.54383 0.89294,0 1.2622,-0.71167 v -3.0011 q -0.36255,-0.68482 -1.24878,-0.68482 -0.67138,0 -1.04065,0.54383 -0.36926,0.54382 -0.36926,1.72546 z"
               style="font-style:normal;font-variant:normal;font-weight:bold;font-stretch:normal;font-size:13.75px;line-height:1.25;font-family:Roboto;-inkscape-font-specification:'Roboto Bold'"
               id="path183" />
            <path
               d="m 251.49908,160.92603 q -0.71838,0.8728 -1.9873,0.8728 -1.16821,0 -1.78589,-0.67139 -0.61096,-0.67139 -0.62439,-1.96716 v -4.76013 h 1.94031 v 4.69299 q 0,1.13464 1.03393,1.13464 0.98694,0 1.35621,-0.68481 v -5.14282 h 1.94702 v 7.2644 h -1.82617 z"
               style="font-style:normal;font-variant:normal;font-weight:bold;font-stretch:normal;font-size:13.75px;line-height:1.25;font-family:Roboto;-inkscape-font-specification:'Roboto Bold'"
               id="path185" />
            <path
               d="m 256.90375,161.66455 h -1.94702 v -7.2644 h 1.94702 z m -2.06116,-9.14429 q 0,-0.4364 0.2887,-0.71838 0.29541,-0.28198 0.79895,-0.28198 0.49682,0 0.79223,0.28198 0.29541,0.28198 0.29541,0.71838 0,0.44312 -0.30212,0.7251 -0.29541,0.28198 -0.78552,0.28198 -0.49012,0 -0.79224,-0.28198 -0.29541,-0.28198 -0.29541,-0.7251 z"
               style="font-style:normal;font-variant:normal;font-weight:bold;font-stretch:normal;font-size:13.75px;line-height:1.25;font-family:Roboto;-inkscape-font-specification:'Roboto Bold'"
               id="path187" />
            <path
               d="m 261.85187,161.79883 q -1.5979,0 -2.60498,-0.98023 -1.00037,-0.98022 -1.00037,-2.61169 v -0.18799 q 0,-1.09436 0.42297,-1.95373 0.42298,-0.86609 1.19507,-1.32935 0.77881,-0.46997 1.77246,-0.46997 1.49048,0 2.34314,0.93994 0.85938,0.93994 0.85938,2.66541 v 0.79223 h -4.62586 q 0.094,0.71167 0.56397,1.14136 0.47668,0.42969 1.20178,0.42969 1.12122,0 1.75232,-0.81238 l 0.95337,1.0675 q -0.4364,0.61768 -1.18164,0.9668 -0.74524,0.34241 -1.65161,0.34241 z m -0.22156,-5.96192 q -0.57739,0 -0.93994,0.38941 -0.35584,0.3894 -0.45654,1.1145 h 2.69897 v -0.15442 q -0.0134,-0.64453 -0.34912,-0.99365 -0.33569,-0.35584 -0.95337,-0.35584 z"
               style="font-style:normal;font-variant:normal;font-weight:bold;font-stretch:normal;font-size:13.75px;line-height:1.25;font-family:Roboto;-inkscape-font-specification:'Roboto Bold'"
               id="path189" />
            <path
               d="m 270.02936,156.2196 q -0.39612,-0.0537 -0.69824,-0.0537 -1.10108,0 -1.44349,0.74524 v 4.75342 h -1.9403 v -7.2644 h 1.83288 l 0.0537,0.86609 q 0.58411,-1.00037 1.61805,-1.00037 0.32226,0 0.60424,0.0873 z"
               style="font-style:normal;font-variant:normal;font-weight:bold;font-stretch:normal;font-size:13.75px;line-height:1.25;font-family:Roboto;-inkscape-font-specification:'Roboto Bold'"
               id="path191" />
            <path
               d="m 270.66718,157.97864 q 0,-1.69861 0.75866,-2.70569 0.76538,-1.00708 2.08801,-1.00708 1.0608,0 1.75232,0.79224 v -3.70606 h 1.94703 v 10.3125 h -1.75232 l -0.094,-0.77209 q -0.7251,0.90637 -1.86645,0.90637 -1.28235,0 -2.06116,-1.00708 -0.77209,-1.0138 -0.77209,-2.81311 z m 1.9403,0.14099 q 0,1.02051 0.35584,1.56433 0.35583,0.54382 1.03393,0.54382 0.89966,0 1.26892,-0.75866 v -2.86683 q -0.36254,-0.75866 -1.25549,-0.75866 -1.4032,0 -1.4032,2.276 z"
               style="font-style:normal;font-variant:normal;font-weight:bold;font-stretch:normal;font-size:13.75px;line-height:1.25;font-family:Roboto;-inkscape-font-specification:'Roboto Bold'"
               id="path193" />
            <path
               d="m 282.94012,161.66455 q -0.13427,-0.26184 -0.1947,-0.65124 -0.70495,0.78552 -1.83288,0.78552 -1.06751,0 -1.77246,-0.61768 -0.69825,-0.61767 -0.69825,-1.55761 0,-1.15479 0.85266,-1.77247 0.85938,-0.61767 2.47742,-0.62439 h 0.89295 v -0.41626 q 0,-0.50354 -0.26184,-0.80566 -0.25513,-0.30212 -0.81238,-0.30212 -0.49012,0 -0.7721,0.23498 -0.27527,0.23499 -0.27527,0.64453 h -1.9403 q 0,-0.6311 0.3894,-1.16821 0.3894,-0.53711 1.10107,-0.83923 0.71167,-0.30884 1.59791,-0.30884 1.34277,0 2.12829,0.6781 0.79224,0.67139 0.79224,1.89331 v 3.1488 q 0.007,1.03394 0.28869,1.56434 v 0.11413 z m -1.60461,-1.34949 q 0.42969,0 0.79224,-0.18798 0.36255,-0.19471 0.53711,-0.51697 v -1.24878 h -0.7251 q -1.45691,0 -1.55091,1.00708 l -0.007,0.11413 q 0,0.36255 0.25513,0.59754 0.25513,0.23498 0.69824,0.23498 z"
               style="font-style:normal;font-variant:normal;font-weight:bold;font-stretch:normal;font-size:13.75px;line-height:1.25;font-family:Roboto;-inkscape-font-specification:'Roboto Bold'"
               id="path195" />
            <path
               d="m 152.8858,168.53955 h 3.71277 v 9.23828 h 2.37 v 1.07422 h -6.08277 v -1.07422 h 2.47071 v -8.15735 h -2.47071 z"
               style="font-style:normal;font-variant:normal;font-weight:normal;font-stretch:normal;font-size:13.75px;line-height:1.25;font-family:'Roboto Mono';-inkscape-font-specification:'Roboto Mono'"
               id="path197" />
            <path
               d="m 164.14496,178.98633 q -0.76538,0 -1.40991,-0.26184 -0.63782,-0.26184 -1.09436,-0.73181 -0.45655,-0.46997 -0.71167,-1.11451 -0.25513,-0.64453 -0.25513,-1.40319 v -0.28199 q 0,-0.87951 0.28198,-1.57104 0.28198,-0.69824 0.74524,-1.17493 0.46997,-0.4834 1.06079,-0.73852 0.59754,-0.25513 1.22193,-0.25513 0.78552,0 1.36962,0.27527 0.59082,0.26855 0.98023,0.75195 0.3894,0.47669 0.57739,1.12793 0.1947,0.65125 0.1947,1.40991 v 0.55725 h -5.18982 q 0.0202,0.49683 0.18799,0.93323 0.17456,0.4364 0.46997,0.76538 0.30213,0.32227 0.71839,0.51026 0.41626,0.18798 0.9198,0.18798 0.66467,0 1.18164,-0.26855 0.51697,-0.26856 0.85937,-0.71167 l 0.75867,0.59082 q -0.18127,0.27527 -0.45654,0.5304 -0.26856,0.24841 -0.62439,0.44311 -0.35584,0.1947 -0.80567,0.30884 -0.44983,0.12085 -0.98022,0.12085 z m -0.16113,-6.51245 q -0.37598,0 -0.71167,0.14099 -0.3357,0.13428 -0.60425,0.40283 -0.26856,0.26184 -0.45655,0.65125 -0.18127,0.38269 -0.25512,0.88623 h 3.90747 v -0.094 q -0.0201,-0.36255 -0.14099,-0.71838 -0.11414,-0.35584 -0.34241,-0.63782 -0.22827,-0.28198 -0.57739,-0.45654 -0.34241,-0.17456 -0.81909,-0.17456 z"
               style="font-style:normal;font-variant:normal;font-weight:normal;font-stretch:normal;font-size:13.75px;line-height:1.25;font-family:'Roboto Mono';-inkscape-font-specification:'Roboto Mono'"
               id="path199" />
            <path
               d="m 171.03339,178.85205 v -6.30432 h -2.00074 v -0.96008 h 2.00074 v -0.51026 q 0,-0.69824 0.20141,-1.22192 0.20813,-0.5304 0.57739,-0.88623 0.37598,-0.35584 0.89966,-0.53711 0.52368,-0.18128 1.16822,-0.18128 0.44311,0 0.85937,0.0739 0.42297,0.0738 0.86609,0.18799 l -0.14771,1.02722 q -0.27526,-0.094 -0.64453,-0.16114 -0.36255,-0.0738 -0.77881,-0.0738 -0.8728,0.007 -1.31591,0.44312 -0.4364,0.4364 -0.4364,1.32934 v 0.51026 h 2.79968 v 0.96008 h -2.79968 v 6.30432 z"
               style="font-style:normal;font-variant:normal;font-weight:normal;font-stretch:normal;font-size:13.75px;line-height:1.25;font-family:'Roboto Mono';-inkscape-font-specification:'Roboto Mono'"
               id="path201" />
            <path
               d="m 180.39252,169.82861 v 1.75904 h 2.76611 v 0.96008 h -2.76611 v 3.94775 q 0,0.42298 0.10742,0.69825 0.10742,0.27526 0.29541,0.44311 0.18799,0.16113 0.42969,0.22827 0.24841,0.0671 0.52368,0.0671 0.20141,0 0.41626,-0.0201 0.21484,-0.0269 0.41626,-0.0604 0.20813,-0.0336 0.38269,-0.0671 0.18127,-0.0403 0.29541,-0.0671 l 0.17456,0.87951 q -0.15442,0.094 -0.37598,0.16785 -0.22156,0.0671 -0.4834,0.11414 -0.26184,0.0537 -0.55725,0.0806 -0.28869,0.0269 -0.57739,0.0269 -0.4834,0 -0.90637,-0.13428 -0.41626,-0.14099 -0.7251,-0.4364 -0.30884,-0.30212 -0.49011,-0.7721 -0.17456,-0.47668 -0.17456,-1.14807 v -3.94775 H 177.237 v -0.96008 h 1.90674 v -1.75904 z"
               style="font-style:normal;font-variant:normal;font-weight:normal;font-stretch:normal;font-size:13.75px;line-height:1.25;font-family:'Roboto Mono';-inkscape-font-specification:'Roboto Mono'"
               id="path203" />
            <path
               d="m 191.72552,179.86584 h -6.15661 v -1.01379 h 6.15661 z"
               style="font-style:normal;font-variant:normal;font-weight:normal;font-stretch:normal;font-size:13.75px;line-height:1.25;font-family:'Roboto Mono';-inkscape-font-specification:'Roboto Mono'"
               id="path205" />
            <path
               d="m 194.78033,171.58765 h 3.66578 v 7.3114 q 0,0.69824 -0.19471,1.23535 -0.18798,0.53711 -0.55725,0.89966 -0.36255,0.36926 -0.89294,0.55725 -0.52368,0.1947 -1.19507,0.1947 -0.38269,0 -0.71838,-0.0268 -0.32898,-0.0202 -0.69825,-0.0873 l 0.0873,-1.0205 q 0.11414,0.0201 0.2887,0.0336 0.17456,0.0201 0.34912,0.0268 0.18128,0.0134 0.34241,0.0134 0.16785,0.007 0.26184,0.007 0.34912,0 0.65796,-0.094 0.30884,-0.0873 0.53711,-0.30212 0.22827,-0.21485 0.35583,-0.57068 0.13428,-0.34912 0.13428,-0.86609 v -6.23047 h -2.42371 z m 2.24915,-1.91346 q 0,-0.30212 0.18127,-0.51025 0.18128,-0.21484 0.55726,-0.21484 0.37597,0 0.56396,0.21484 0.18799,0.20813 0.18799,0.51025 0,0.30213 -0.18799,0.51026 -0.18799,0.20141 -0.56396,0.20141 -0.37598,0 -0.55726,-0.20141 -0.18127,-0.20813 -0.18127,-0.51026 z"
               style="font-style:normal;font-variant:normal;font-weight:normal;font-stretch:normal;font-size:13.75px;line-height:1.25;font-family:'Roboto Mono';-inkscape-font-specification:'Roboto Mono'"
               id="path207" />
            <path
               d="m 201.83661,175.15271 q 0,-0.78552 0.22827,-1.45691 0.22827,-0.6781 0.65125,-1.17493 0.42968,-0.49682 1.04064,-0.7788 0.61097,-0.2887 1.37635,-0.2887 0.77209,0 1.38305,0.2887 0.61768,0.28198 1.04065,0.7788 0.42969,0.49683 0.65796,1.17493 0.22827,0.67139 0.22827,1.45691 v 0.14771 q 0,0.78552 -0.22827,1.4569 -0.22827,0.67139 -0.65796,1.16822 -0.42297,0.49682 -1.03393,0.77881 -0.61096,0.28198 -1.37634,0.28198 -0.7721,0 -1.38978,-0.28198 -0.61096,-0.28199 -1.04064,-0.77881 -0.42298,-0.49683 -0.65125,-1.16822 -0.22827,-0.67138 -0.22827,-1.4569 z m 1.24206,0.14771 q 0,0.5371 0.12757,1.02722 0.12756,0.4834 0.38269,0.85266 0.26184,0.36926 0.65124,0.5841 0.38941,0.21485 0.90638,0.21485 0.51025,0 0.89294,-0.21485 0.3894,-0.21484 0.64453,-0.5841 0.26184,-0.36926 0.38941,-0.85266 0.12756,-0.49012 0.12756,-1.02722 v -0.14771 q 0,-0.5304 -0.13428,-1.01379 -0.12756,-0.49012 -0.3894,-0.85938 -0.25513,-0.36926 -0.64453,-0.58411 -0.38269,-0.22155 -0.89966,-0.22155 -0.51697,0 -0.89966,0.22155 -0.38269,0.21485 -0.64453,0.58411 -0.25513,0.36926 -0.38269,0.85938 -0.12757,0.48339 -0.12757,1.01379 z"
               style="font-style:normal;font-variant:normal;font-weight:normal;font-stretch:normal;font-size:13.75px;line-height:1.25;font-family:'Roboto Mono';-inkscape-font-specification:'Roboto Mono'"
               id="path209" />
            <path
               d="m 210.62506,171.58765 h 3.71277 v 6.19018 h 2.36999 v 1.07422 h -6.08276 v -1.07422 h 2.4707 v -5.10925 h -2.4707 z m 2.30957,-1.90674 q 0,-0.30884 0.18128,-0.51697 0.18798,-0.21484 0.56396,-0.21484 0.36926,0 0.55725,0.21484 0.18799,0.20813 0.18799,0.51697 0,0.30212 -0.18799,0.50354 -0.18799,0.20141 -0.55725,0.20141 -0.37598,0 -0.56396,-0.20141 -0.18128,-0.20142 -0.18128,-0.50354 z"
               style="font-style:normal;font-variant:normal;font-weight:normal;font-stretch:normal;font-size:13.75px;line-height:1.25;font-family:'Roboto Mono';-inkscape-font-specification:'Roboto Mono'"
               id="path211" />
            <path
               d="m 219.78949,171.58765 0.0873,1.07422 q 0.39612,-0.56397 0.97351,-0.87952 0.57739,-0.32227 1.28906,-0.32898 0.57068,0 1.03394,0.16113 0.46997,0.16113 0.79895,0.50354 0.32898,0.34241 0.50354,0.8728 0.18127,0.52369 0.18127,1.24878 v 4.61243 h -1.24206 v -4.58557 q 0,-0.4834 -0.10742,-0.81909 -0.10743,-0.3357 -0.32227,-0.54383 -0.20813,-0.20813 -0.51697,-0.30212 -0.30212,-0.094 -0.69824,-0.094 -0.62439,0 -1.10107,0.31555 -0.46997,0.30884 -0.75196,0.81909 v 5.20996 h -1.24206 v -7.2644 z"
               style="font-style:normal;font-variant:normal;font-weight:normal;font-stretch:normal;font-size:13.75px;line-height:1.25;font-family:'Roboto Mono';-inkscape-font-specification:'Roboto Mono'"
               id="path213" />
            <path
               d="m 228.14825,174.88416 q 0,-0.96009 0.14771,-1.80604 0.15442,-0.84594 0.40955,-1.56433 0.25512,-0.72509 0.5841,-1.32263 0.3357,-0.59753 0.69824,-1.06079 0.36927,-0.46326 0.73853,-0.79224 0.36926,-0.32897 0.70496,-0.51696 l 0.26184,0.81909 q -0.41626,0.31555 -0.83252,0.85937 -0.40955,0.54383 -0.73853,1.32264 -0.32226,0.77209 -0.53039,1.78588 -0.20142,1.00708 -0.20142,2.26258 v 0.094 q 0,1.25549 0.20142,2.26929 0.20813,1.01379 0.53039,1.7926 0.32898,0.77881 0.73853,1.32935 0.41626,0.55725 0.83252,0.89294 l -0.26184,0.75867 q -0.3357,-0.18799 -0.71167,-0.51697 -0.36927,-0.32227 -0.73853,-0.79224 -0.36255,-0.46325 -0.69824,-1.06079 -0.32898,-0.59082 -0.58411,-1.3092 -0.24841,-0.7251 -0.40283,-1.57105 -0.14771,-0.84594 -0.14771,-1.80603 z"
               style="font-style:normal;font-variant:normal;font-weight:normal;font-stretch:normal;font-size:13.75px;line-height:1.25;font-family:'Roboto Mono';-inkscape-font-specification:'Roboto Mono'"
               id="path215" />
            <path
               d="m 238.16534,174.27991 1.94031,-2.69226 h 1.45691 l -2.70569,3.59192 2.77954,3.67248 h -1.43676 l -2.00745,-2.76611 -2.00745,2.76611 h -1.45019 l 2.77954,-3.67248 -2.70569,-3.59192 h 1.43677 z"
               style="font-style:normal;font-variant:normal;font-weight:normal;font-stretch:normal;font-size:13.75px;line-height:1.25;font-family:'Roboto Mono';-inkscape-font-specification:'Roboto Mono'"
               id="path217" />
            <path
               d="m 246.55768,178.56335 q 0,0.31556 -0.0806,0.65796 -0.0739,0.34912 -0.22827,0.68482 -0.1477,0.34241 -0.36255,0.65124 -0.21484,0.30884 -0.49682,0.55054 l -0.7721,-0.42297 q 0.32227,-0.46997 0.45654,-1.00037 0.13428,-0.5304 0.13428,-1.10107 v -1.20179 h 1.34949 z"
               style="font-style:normal;font-variant:normal;font-weight:normal;font-stretch:normal;font-size:13.75px;line-height:1.25;font-family:'Roboto Mono';-inkscape-font-specification:'Roboto Mono'"
               id="path219" />
            <path
               d="m 254.32562,176.27393 0.32227,0.87951 2.21557,-5.56579 h 1.38977 l -3.68591,8.38562 q -0.12756,0.28198 -0.32898,0.59753 -0.1947,0.31555 -0.47668,0.58411 -0.28198,0.26855 -0.65796,0.44983 -0.37598,0.18127 -0.86609,0.18127 -0.0873,0 -0.1947,-0.0134 -0.10742,-0.007 -0.21485,-0.0268 -0.10742,-0.0134 -0.20141,-0.0336 -0.094,-0.0201 -0.15442,-0.0336 l 0.20142,-1.0138 q 0.047,0 0.12756,0.007 0.0806,0.007 0.16785,0.0134 0.0873,0.007 0.16784,0.007 0.0806,0.007 0.12757,0.007 0.25512,0 0.46325,-0.14099 0.21485,-0.14099 0.37598,-0.33569 0.16785,-0.1947 0.28198,-0.40283 0.12085,-0.20813 0.18799,-0.34241 l 0.49683,-0.9668 -3.12867,-6.92199 h 1.38977 z"
               style="font-style:normal;font-variant:normal;font-weight:normal;font-stretch:normal;font-size:13.75px;line-height:1.25;font-family:'Roboto Mono';-inkscape-font-specification:'Roboto Mono'"
               id="path221" />
            <path
               d="m 264.42999,174.95129 q 0,0.96009 -0.15442,1.80603 -0.1477,0.84595 -0.40283,1.57105 -0.25513,0.71838 -0.59082,1.3092 -0.32898,0.59754 -0.69824,1.06079 -0.36255,0.46997 -0.73853,0.79224 -0.36926,0.32898 -0.70495,0.51697 l -0.26184,-0.75867 q 0.41626,-0.30884 0.8258,-0.86609 0.41626,-0.55053 0.73853,-1.33606 0.32898,-0.78552 0.53039,-1.80603 0.20813,-1.02051 0.20813,-2.276 v -0.094 q 0,-1.2555 -0.21484,-2.276 -0.21484,-1.02723 -0.55725,-1.81275 -0.33569,-0.79223 -0.74524,-1.34277 -0.40283,-0.55054 -0.78552,-0.85938 l 0.26184,-0.75866 q 0.33569,0.18799 0.70495,0.51696 0.37598,0.32898 0.73853,0.79224 0.36926,0.46326 0.69824,1.06079 0.33569,0.59754 0.59082,1.32263 0.25513,0.71839 0.40283,1.56433 0.15442,0.84595 0.15442,1.80604 z"
               style="font-style:normal;font-variant:normal;font-weight:normal;font-stretch:normal;font-size:13.75px;line-height:1.25;font-family:'Roboto Mono';-inkscape-font-specification:'Roboto Mono'"
               id="path223" />
          </g>
          <path
             style="fill:#cccccc;fill-opacity:1;stroke:#000000;stroke-width:1;stroke-miterlimit:4;stroke-dasharray:none"
             d="m 287.32031,134.16602 a 30,30 0 0 0 -12.0664,24.00976 30,30 0 0 0 12.07421,24.00977 30,30 0 0 0 12.06641,-24.00977 30,30 0 0 0 -12.07422,-24.00976 z"
             transform="translate(-201.51293)"
             id="circle4536"
             inkscape:connector-curvature="0" />
        </g>
      </g>
      <g
         transform="translate(256.95756)"
         id="g4347">
        <path
           inkscape:connector-curvature="0"
           id="path4349"
           d="M 82.785495,257.2365 C 71.98671,245.88809 71.843204,228.40744 82.456991,217.22103 l 3.177869,-3.34932 1.432926,1.04612 c 0.788109,0.57536 2.570336,2.54671 3.960505,4.38076 8.926914,11.77732 7.809727,28.05332 -2.633503,38.36682 l -2.681356,2.64805 z"
           style="fill:#e6e6e6;fill-opacity:1;stroke:none;stroke-width:1;stroke-miterlimit:4;stroke-dasharray:none" />
        <path
           style="fill:#ffffff;fill-opacity:1;stroke:#000000;stroke-width:1;stroke-miterlimit:4;stroke-dasharray:none"
           d="m 97.880714,236.96863 a 30,30 0 0 1 -30,30 30,30 0 0 1 -30,-30 30,30 0 0 1 30,-30 30,30 0 0 1 30,30 z"
           id="circle4351" />
        <path
           style="fill:#cccccc;fill-opacity:1;stroke:#000000;stroke-width:1;stroke-miterlimit:4;stroke-dasharray:none"
           d="m 133.74113,236.96863 a 30,30 0 0 1 -30,30 30,30 0 0 1 -30.000003,-30 30,30 0 0 1 30.000003,-30 30,30 0 0 1 30,30 z"
           id="circle4353" />
        <g
           aria-label="unión por la derecha
right_join(x,y)"
           style="font-style:normal;font-weight:normal;line-height:0%;font-family:sans-serif;letter-spacing:0px;word-spacing:0px;fill:#000000;fill-opacity:1;stroke:none;stroke-width:1px;stroke-linecap:butt;stroke-linejoin:miter;stroke-opacity:1"
           id="text4355">
          <path
             d="m 156.61871,239.71796 q -0.71838,0.8728 -1.9873,0.8728 -1.16821,0 -1.78589,-0.67139 -0.61096,-0.67138 -0.62439,-1.96716 v -4.76013 h 1.94031 v 4.69299 q 0,1.13464 1.03393,1.13464 0.98694,0 1.3562,-0.68481 v -5.14282 h 1.94703 v 7.2644 h -1.82618 z"
             style="font-style:normal;font-variant:normal;font-weight:bold;font-stretch:normal;font-size:13.75px;line-height:1.25;font-family:Roboto;-inkscape-font-specification:'Roboto Bold'"
             id="path228" />
          <path
             d="m 161.76154,233.19208 0.0604,0.83923 q 0.77881,-0.97351 2.08801,-0.97351 1.15479,0 1.71875,0.6781 0.56397,0.6781 0.5774,2.02759 v 4.69299 h -1.94031 v -4.64599 q 0,-0.61768 -0.26856,-0.89295 -0.26855,-0.28198 -0.89294,-0.28198 -0.81909,0 -1.22864,0.69824 v 5.12268 h -1.94031 v -7.2644 z"
             style="font-style:normal;font-variant:normal;font-weight:bold;font-stretch:normal;font-size:13.75px;line-height:1.25;font-family:Roboto;-inkscape-font-specification:'Roboto Bold'"
             id="path230" />
          <path
             d="m 169.7309,240.45648 h -1.94703 v -7.2644 h 1.94703 z m -2.06116,-9.14429 q 0,-0.4364 0.2887,-0.71838 0.29541,-0.28198 0.79895,-0.28198 0.49682,0 0.79223,0.28198 0.29541,0.28198 0.29541,0.71838 0,0.44312 -0.30212,0.7251 -0.29541,0.28198 -0.78552,0.28198 -0.49012,0 -0.79224,-0.28198 -0.29541,-0.28198 -0.29541,-0.7251 z"
             style="font-style:normal;font-variant:normal;font-weight:bold;font-stretch:normal;font-size:13.75px;line-height:1.25;font-family:Roboto;-inkscape-font-specification:'Roboto Bold'"
             id="path232" />
          <path
             d="m 171.03339,236.75714 q 0,-1.08093 0.41626,-1.92688 0.41626,-0.84595 1.19506,-1.3092 0.78553,-0.46326 1.81946,-0.46326 1.47034,0 2.39685,0.89966 0.93323,0.89966 1.04065,2.44385 l 0.0134,0.49682 q 0,1.67176 -0.93323,2.68555 -0.93322,1.00708 -2.50427,1.00708 -1.57104,0 -2.51099,-1.00708 -0.93322,-1.00708 -0.93322,-2.73926 z m 1.9403,0.14099 q 0,1.03394 0.38941,1.58447 0.3894,0.54383 1.1145,0.54383 0.70496,0 1.10107,-0.53711 0.39612,-0.54382 0.39612,-1.73218 0,-1.01379 -0.39612,-1.57104 -0.39611,-0.55725 -1.1145,-0.55725 -0.71167,0 -1.10107,0.55725 -0.38941,0.55053 -0.38941,1.71203 z m 1.87317,-6.75415 h 2.11487 l -1.85974,2.0813 h -1.57776 z"
             style="font-style:normal;font-variant:normal;font-weight:bold;font-stretch:normal;font-size:13.75px;line-height:1.25;font-family:Roboto;-inkscape-font-specification:'Roboto Bold'"
             id="path234" />
          <path
             d="m 180.90948,233.19208 0.0604,0.83923 q 0.77881,-0.97351 2.08801,-0.97351 1.15479,0 1.71875,0.6781 0.56397,0.6781 0.57739,2.02759 v 4.69299 h -1.9403 v -4.64599 q 0,-0.61768 -0.26856,-0.89295 -0.26855,-0.28198 -0.89294,-0.28198 -0.81909,0 -1.22864,0.69824 v 5.12268 h -1.94031 v -7.2644 z"
             style="font-style:normal;font-variant:normal;font-weight:bold;font-stretch:normal;font-size:13.75px;line-height:1.25;font-family:Roboto;-inkscape-font-specification:'Roboto Bold'"
             id="path236" />
          <path
             d="m 196.80792,236.89142 q 0,1.67847 -0.76538,2.69226 -0.75867,1.00708 -2.05444,1.00708 -1.10108,0 -1.77918,-0.76538 v 3.42407 h -1.9403 v -10.05737 h 1.79931 l 0.0671,0.71167 q 0.70496,-0.84595 1.8396,-0.84595 1.34277,0 2.08801,0.99365 0.74524,0.99365 0.74524,2.73926 z m -1.94031,-0.14099 q 0,-1.0138 -0.36254,-1.56433 -0.35584,-0.55054 -1.04065,-0.55054 -0.91309,0 -1.2555,0.69824 v 2.97424 q 0.35584,0.71839 1.26892,0.71839 1.38977,0 1.38977,-2.276 z"
             style="font-style:normal;font-variant:normal;font-weight:bold;font-stretch:normal;font-size:13.75px;line-height:1.25;font-family:Roboto;-inkscape-font-specification:'Roboto Bold'"
             id="path238" />
          <path
             d="m 197.70087,236.75714 q 0,-1.08093 0.41626,-1.92688 0.41626,-0.84595 1.19506,-1.3092 0.78553,-0.46326 1.81946,-0.46326 1.47034,0 2.39685,0.89966 0.93323,0.89966 1.04065,2.44385 l 0.0134,0.49682 q 0,1.67176 -0.93323,2.68555 -0.93322,1.00708 -2.50427,1.00708 -1.57104,0 -2.51099,-1.00708 -0.93322,-1.00708 -0.93322,-2.73926 z m 1.9403,0.14099 q 0,1.03394 0.38941,1.58447 0.3894,0.54383 1.1145,0.54383 0.70496,0 1.10107,-0.53711 0.39612,-0.54382 0.39612,-1.73218 0,-1.01379 -0.39612,-1.57104 -0.39611,-0.55725 -1.1145,-0.55725 -0.71167,0 -1.10107,0.55725 -0.38941,0.55053 -0.38941,1.71203 z"
             style="font-style:normal;font-variant:normal;font-weight:bold;font-stretch:normal;font-size:13.75px;line-height:1.25;font-family:Roboto;-inkscape-font-specification:'Roboto Bold'"
             id="path240" />
          <path
             d="m 209.87311,235.01154 q -0.39612,-0.0537 -0.69824,-0.0537 -1.10108,0 -1.44349,0.74524 v 4.75342 h -1.9403 v -7.2644 h 1.83288 l 0.0537,0.86609 q 0.58411,-1.00037 1.61805,-1.00037 0.32226,0 0.60424,0.0873 z"
             style="font-style:normal;font-variant:normal;font-weight:bold;font-stretch:normal;font-size:13.75px;line-height:1.25;font-family:Roboto;-inkscape-font-specification:'Roboto Bold'"
             id="path242" />
          <path
             d="m 216.29828,240.45648 h -1.94702 v -10.3125 h 1.94702 z"
             style="font-style:normal;font-variant:normal;font-weight:bold;font-stretch:normal;font-size:13.75px;line-height:1.25;font-family:Roboto;-inkscape-font-specification:'Roboto Bold'"
             id="path244" />
          <path
             d="m 222.11249,240.45648 q -0.13428,-0.26184 -0.1947,-0.65124 -0.70496,0.78552 -1.83289,0.78552 -1.0675,0 -1.77246,-0.61768 -0.69824,-0.61767 -0.69824,-1.55761 0,-1.15479 0.85266,-1.77246 0.85937,-0.61768 2.47741,-0.62439 h 0.89295 v -0.41626 q 0,-0.50354 -0.26184,-0.80567 -0.25513,-0.30212 -0.81238,-0.30212 -0.49011,0 -0.77209,0.23498 -0.27527,0.23499 -0.27527,0.64453 h -1.94031 q 0,-0.6311 0.3894,-1.16821 0.38941,-0.53711 1.10108,-0.83923 0.71167,-0.30884 1.5979,-0.30884 1.34277,0 2.12829,0.6781 0.79224,0.67139 0.79224,1.89331 v 3.14881 q 0.007,1.03393 0.2887,1.56433 v 0.11413 z m -1.60462,-1.34949 q 0.42969,0 0.79224,-0.18798 0.36255,-0.19471 0.53711,-0.51697 v -1.24878 h -0.7251 q -1.45691,0 -1.5509,1.00708 l -0.007,0.11414 q 0,0.36254 0.25513,0.59753 0.25513,0.23498 0.69824,0.23498 z"
             style="font-style:normal;font-variant:normal;font-weight:bold;font-stretch:normal;font-size:13.75px;line-height:1.25;font-family:Roboto;-inkscape-font-specification:'Roboto Bold'"
             id="path246" />
          <path
             d="m 228.42352,236.77057 q 0,-1.69861 0.75867,-2.70569 0.76538,-1.00708 2.08801,-1.00708 1.06079,0 1.75232,0.79224 v -3.70606 h 1.94702 v 10.3125 h -1.75232 l -0.094,-0.77209 q -0.7251,0.90637 -1.86646,0.90637 -1.28234,0 -2.06115,-1.00708 -0.7721,-1.01379 -0.7721,-2.81311 z m 1.94031,0.14099 q 0,1.02051 0.35584,1.56433 0.35583,0.54382 1.03393,0.54382 0.89966,0 1.26892,-0.75866 v -2.86682 q -0.36255,-0.75867 -1.25549,-0.75867 -1.4032,0 -1.4032,2.276 z"
             style="font-style:normal;font-variant:normal;font-weight:bold;font-stretch:normal;font-size:13.75px;line-height:1.25;font-family:Roboto;-inkscape-font-specification:'Roboto Bold'"
             id="path248" />
          <path
             d="m 239.83038,240.59076 q -1.5979,0 -2.60498,-0.98023 -1.00036,-0.98022 -1.00036,-2.61169 v -0.18799 q 0,-1.09436 0.42297,-1.95373 0.42297,-0.86609 1.19507,-1.32935 0.77881,-0.46997 1.77246,-0.46997 1.49048,0 2.34314,0.93994 0.85937,0.93994 0.85937,2.66541 v 0.79223 h -4.62585 q 0.094,0.71167 0.56396,1.14136 0.47669,0.42969 1.20179,0.42969 1.12121,0 1.75232,-0.81238 l 0.95337,1.06751 q -0.43641,0.61767 -1.18165,0.96679 -0.74523,0.34241 -1.65161,0.34241 z m -0.22155,-5.96191 q -0.5774,0 -0.93995,0.3894 -0.35583,0.3894 -0.45654,1.1145 h 2.69898 v -0.15442 q -0.0134,-0.64453 -0.34913,-0.99365 -0.33569,-0.35583 -0.95336,-0.35583 z"
             style="font-style:normal;font-variant:normal;font-weight:bold;font-stretch:normal;font-size:13.75px;line-height:1.25;font-family:Roboto;-inkscape-font-specification:'Roboto Bold'"
             id="path250" />
          <path
             d="m 248.00787,235.01154 q -0.39611,-0.0537 -0.69824,-0.0537 -1.10107,0 -1.44348,0.74524 v 4.75342 h -1.94031 v -7.2644 h 1.83289 l 0.0537,0.86609 q 0.58411,-1.00037 1.61804,-1.00037 0.32227,0 0.60425,0.0873 z"
             style="font-style:normal;font-variant:normal;font-weight:bold;font-stretch:normal;font-size:13.75px;line-height:1.25;font-family:Roboto;-inkscape-font-specification:'Roboto Bold'"
             id="path252" />
          <path
             d="m 252.29132,240.59076 q -1.5979,0 -2.60498,-0.98023 -1.00037,-0.98022 -1.00037,-2.61169 v -0.18799 q 0,-1.09436 0.42298,-1.95373 0.42297,-0.86609 1.19507,-1.32935 0.7788,-0.46997 1.77246,-0.46997 1.49048,0 2.34314,0.93994 0.85937,0.93994 0.85937,2.66541 v 0.79223 h -4.62585 q 0.094,0.71167 0.56396,1.14136 0.47669,0.42969 1.20178,0.42969 1.12122,0 1.75232,-0.81238 l 0.95337,1.06751 q -0.4364,0.61767 -1.18164,0.96679 -0.74524,0.34241 -1.65161,0.34241 z m -0.22156,-5.96191 q -0.57739,0 -0.93994,0.3894 -0.35583,0.3894 -0.45654,1.1145 h 2.69897 v -0.15442 q -0.0134,-0.64453 -0.34912,-0.99365 -0.33569,-0.35583 -0.95337,-0.35583 z"
             style="font-style:normal;font-variant:normal;font-weight:bold;font-stretch:normal;font-size:13.75px;line-height:1.25;font-family:Roboto;-inkscape-font-specification:'Roboto Bold'"
             id="path254" />
          <path
             d="m 259.40802,239.02643 q 0.53711,0 0.8728,-0.29541 0.3357,-0.29541 0.34912,-0.78552 h 1.81946 q -0.007,0.73852 -0.40283,1.3562 -0.39612,0.61096 -1.08765,0.95337 -0.68481,0.33569 -1.51733,0.33569 -1.55762,0 -2.45728,-0.98694 -0.89965,-0.99365 -0.89965,-2.73926 V 236.737 q 0,-1.67847 0.89294,-2.67883 0.89294,-1.00037 2.45056,-1.00037 1.36292,0 2.18201,0.77881 0.8258,0.77209 0.83923,2.06116 h -1.81946 q -0.0134,-0.56397 -0.34912,-0.91309 -0.33569,-0.35583 -0.88623,-0.35583 -0.6781,0 -1.02722,0.49682 -0.34241,0.49011 -0.34241,1.5979 v 0.20142 q 0,1.12121 0.34241,1.61133 0.34241,0.49011 1.04065,0.49011 z"
             style="font-style:normal;font-variant:normal;font-weight:bold;font-stretch:normal;font-size:13.75px;line-height:1.25;font-family:Roboto;-inkscape-font-specification:'Roboto Bold'"
             id="path256" />
          <path
             d="m 265.4505,233.98431 q 0.7721,-0.92651 1.94031,-0.92651 2.36328,0 2.39685,2.74597 v 4.65271 h -1.94031 v -4.599 q 0,-0.62439 -0.26855,-0.9198 -0.26856,-0.30212 -0.89295,-0.30212 -0.85266,0 -1.23535,0.65796 v 5.16296 h -1.94031 v -10.3125 h 1.94031 z"
             style="font-style:normal;font-variant:normal;font-weight:bold;font-stretch:normal;font-size:13.75px;line-height:1.25;font-family:Roboto;-inkscape-font-specification:'Roboto Bold'"
             id="path258" />
          <path
             d="m 275.4743,240.45648 q -0.13427,-0.26184 -0.1947,-0.65124 -0.70495,0.78552 -1.83288,0.78552 -1.06751,0 -1.77246,-0.61768 -0.69825,-0.61767 -0.69825,-1.55761 0,-1.15479 0.85266,-1.77246 0.85938,-0.61768 2.47742,-0.62439 h 0.89295 v -0.41626 q 0,-0.50354 -0.26185,-0.80567 -0.25512,-0.30212 -0.81237,-0.30212 -0.49012,0 -0.7721,0.23498 -0.27527,0.23499 -0.27527,0.64453 h -1.9403 q 0,-0.6311 0.3894,-1.16821 0.3894,-0.53711 1.10107,-0.83923 0.71167,-0.30884 1.5979,-0.30884 1.34278,0 2.1283,0.6781 0.79224,0.67139 0.79224,1.89331 v 3.14881 q 0.007,1.03393 0.28869,1.56433 v 0.11413 z m -1.60461,-1.34949 q 0.42969,0 0.79224,-0.18798 0.36255,-0.19471 0.53711,-0.51697 v -1.24878 h -0.7251 q -1.45691,0 -1.55091,1.00708 l -0.007,0.11414 q 0,0.36254 0.25513,0.59753 0.25512,0.23498 0.69824,0.23498 z"
             style="font-style:normal;font-variant:normal;font-weight:bold;font-stretch:normal;font-size:13.75px;line-height:1.25;font-family:Roboto;-inkscape-font-specification:'Roboto Bold'"
             id="path260" />
          <path
             d="m 157.45123,250.2453 q 0.17456,0 0.36255,0.0134 0.18799,0.007 0.35584,0.0336 0.17456,0.0201 0.31555,0.0537 0.1477,0.0336 0.2417,0.0738 l -0.16785,1.21521 q -0.36255,-0.0806 -0.69153,-0.11413 -0.32226,-0.0403 -0.6781,-0.0403 -0.8728,0 -1.41662,0.39612 -0.53711,0.39612 -0.79224,1.10779 v 4.65942 h -1.24878 v -7.2644 h 1.18164 l 0.0604,1.15478 q 0.44311,-0.59753 1.06079,-0.93994 0.62439,-0.34912 1.41662,-0.34912 z"
             style="font-style:normal;font-variant:normal;font-weight:normal;font-stretch:normal;font-size:13.75px;line-height:1.25;font-family:'Roboto Mono';-inkscape-font-specification:'Roboto Mono'"
             id="path262" />
          <path
             d="m 161.13043,250.37958 h 3.71277 v 6.19018 h 2.37 v 1.07422 h -6.08277 v -1.07422 h 2.47071 v -5.10925 h -2.47071 z m 2.30957,-1.90674 q 0,-0.30884 0.18128,-0.51697 0.18799,-0.21484 0.56396,-0.21484 0.36926,0 0.55725,0.21484 0.18799,0.20813 0.18799,0.51697 0,0.30212 -0.18799,0.50354 -0.18799,0.20142 -0.55725,0.20142 -0.37597,0 -0.56396,-0.20142 -0.18128,-0.20142 -0.18128,-0.50354 z"
             style="font-style:normal;font-variant:normal;font-weight:normal;font-stretch:normal;font-size:13.75px;line-height:1.25;font-family:'Roboto Mono';-inkscape-font-specification:'Roboto Mono'"
             id="path264" />
          <path
             d="m 168.95209,253.95135 q 0,-0.81237 0.1947,-1.49047 0.20142,-0.68482 0.57739,-1.17493 0.37598,-0.49011 0.91309,-0.76538 0.53711,-0.27527 1.21521,-0.27527 0.67138,0 1.17492,0.2417 0.51026,0.23498 0.86609,0.68481 l 0.0604,-0.79223 h 1.12793 v 7.10998 q 0,0.71839 -0.22827,1.27564 -0.22156,0.55725 -0.63111,0.94665 -0.40283,0.38941 -0.96679,0.59082 -0.56397,0.20142 -1.24878,0.20142 -0.28199,0 -0.64453,-0.0671 -0.36255,-0.0604 -0.73853,-0.20813 -0.36926,-0.14099 -0.71838,-0.38269 -0.34241,-0.2417 -0.59082,-0.59753 l 0.64453,-0.74524 q 0.22827,0.27527 0.46997,0.46325 0.2417,0.19471 0.49011,0.30884 0.24841,0.11414 0.49683,0.16113 0.24841,0.0537 0.49682,0.0537 0.44312,0 0.79895,-0.12757 0.35584,-0.12756 0.60425,-0.37597 0.25513,-0.2417 0.38941,-0.60425 0.13427,-0.36255 0.13427,-0.83252 v -0.62439 q -0.36255,0.41626 -0.85937,0.63782 -0.49011,0.21484 -1.14136,0.21484 -0.66467,0 -1.20178,-0.28198 -0.53711,-0.28199 -0.91309,-0.77881 -0.36926,-0.49683 -0.57068,-1.16821 -0.20141,-0.67811 -0.20141,-1.45691 z m 1.24206,0.141 q 0,0.53039 0.10742,1.00708 0.11414,0.47668 0.34913,0.83923 0.2417,0.36255 0.61096,0.57739 0.36926,0.20813 0.88623,0.20813 0.32226,0 0.57739,-0.0738 0.26184,-0.0806 0.46326,-0.22156 0.20813,-0.14099 0.36926,-0.33569 0.16113,-0.1947 0.28198,-0.42969 v -3.33008 q -0.12085,-0.22827 -0.28198,-0.41626 -0.16113,-0.18799 -0.36926,-0.32226 -0.20813,-0.14099 -0.46326,-0.21485 -0.25513,-0.0806 -0.56396,-0.0806 -0.52369,0 -0.89966,0.21484 -0.36926,0.21484 -0.61096,0.58411 -0.23499,0.36255 -0.34913,0.84594 -0.10742,0.47669 -0.10742,1.00708 z"
             style="font-style:normal;font-variant:normal;font-weight:normal;font-stretch:normal;font-size:13.75px;line-height:1.25;font-family:'Roboto Mono';-inkscape-font-specification:'Roboto Mono'"
             id="path266" />
          <path
             d="m 178.66705,251.46051 q 0.38941,-0.57068 0.96009,-0.88623 0.57067,-0.32227 1.28234,-0.32898 0.57068,0 1.03394,0.16785 0.46997,0.16113 0.79895,0.51025 0.32898,0.34912 0.50354,0.88623 0.18128,0.5304 0.18128,1.26221 v 4.57214 h -1.24207 v -4.58557 q 0,-0.89294 -0.42969,-1.32935 -0.42297,-0.4364 -1.21521,-0.42968 -0.59753,0 -1.08764,0.29541 -0.4834,0.28869 -0.78553,0.77209 v 5.2771 h -1.24206 v -10.3125 h 1.24206 z"
             style="font-style:normal;font-variant:normal;font-weight:normal;font-stretch:normal;font-size:13.75px;line-height:1.25;font-family:'Roboto Mono';-inkscape-font-specification:'Roboto Mono'"
             id="path268" />
          <path
             d="m 188.61029,248.62054 v 1.75904 h 2.76611 v 0.96008 h -2.76611 v 3.94775 q 0,0.42298 0.10742,0.69825 0.10742,0.27527 0.29541,0.44311 0.18799,0.16113 0.42969,0.22827 0.24841,0.0671 0.52368,0.0671 0.20142,0 0.41626,-0.0201 0.21485,-0.0269 0.41626,-0.0604 0.20813,-0.0336 0.38269,-0.0671 0.18128,-0.0403 0.29541,-0.0671 l 0.17456,0.87951 q -0.15442,0.094 -0.37597,0.16785 -0.22156,0.0671 -0.4834,0.11414 -0.26184,0.0537 -0.55725,0.0806 -0.2887,0.0269 -0.5774,0.0269 -0.48339,0 -0.90637,-0.13428 -0.41626,-0.14099 -0.7251,-0.4364 -0.30883,-0.30212 -0.49011,-0.77209 -0.17456,-0.47669 -0.17456,-1.14808 v -3.94775 h -1.90674 v -0.96008 h 1.90674 v -1.75904 z"
             style="font-style:normal;font-variant:normal;font-weight:normal;font-stretch:normal;font-size:13.75px;line-height:1.25;font-family:'Roboto Mono';-inkscape-font-specification:'Roboto Mono'"
             id="path270" />
          <path
             d="m 199.9433,258.65778 h -6.15662 v -1.0138 h 6.15662 z"
             style="font-style:normal;font-variant:normal;font-weight:normal;font-stretch:normal;font-size:13.75px;line-height:1.25;font-family:'Roboto Mono';-inkscape-font-specification:'Roboto Mono'"
             id="path272" />
          <path
             d="m 202.99811,250.37958 h 3.66577 v 7.3114 q 0,0.69824 -0.1947,1.23535 -0.18799,0.53711 -0.55725,0.89966 -0.36255,0.36926 -0.89295,0.55725 -0.52368,0.1947 -1.19507,0.1947 -0.38269,0 -0.71838,-0.0269 -0.32898,-0.0202 -0.69824,-0.0873 l 0.0873,-1.02051 q 0.11413,0.0201 0.28869,0.0336 0.17456,0.0201 0.34913,0.0268 0.18127,0.0134 0.3424,0.0134 0.16785,0.007 0.26184,0.007 0.34912,0 0.65796,-0.094 0.30884,-0.0873 0.53711,-0.30212 0.22827,-0.21485 0.35584,-0.57068 0.13427,-0.34912 0.13427,-0.86609 v -6.23047 h -2.4237 z m 2.24914,-1.91345 q 0,-0.30213 0.18128,-0.51026 0.18127,-0.21484 0.55725,-0.21484 0.37598,0 0.56396,0.21484 0.18799,0.20813 0.18799,0.51026 0,0.30212 -0.18799,0.51025 -0.18798,0.20142 -0.56396,0.20142 -0.37598,0 -0.55725,-0.20142 -0.18128,-0.20813 -0.18128,-0.51025 z"
             style="font-style:normal;font-variant:normal;font-weight:normal;font-stretch:normal;font-size:13.75px;line-height:1.25;font-family:'Roboto Mono';-inkscape-font-specification:'Roboto Mono'"
             id="path274" />
          <path
             d="m 210.05438,253.94464 q 0,-0.78552 0.22827,-1.45691 0.22828,-0.6781 0.65125,-1.17492 0.42969,-0.49683 1.04065,-0.77881 0.61096,-0.2887 1.37634,-0.2887 0.7721,0 1.38306,0.2887 0.61767,0.28198 1.04065,0.77881 0.42968,0.49682 0.65796,1.17492 0.22827,0.67139 0.22827,1.45691 v 0.14771 q 0,0.78552 -0.22827,1.45691 -0.22828,0.67138 -0.65796,1.16821 -0.42298,0.49682 -1.03394,0.77881 -0.61096,0.28198 -1.37634,0.28198 -0.7721,0 -1.38977,-0.28198 -0.61096,-0.28199 -1.04065,-0.77881 -0.42297,-0.49683 -0.65125,-1.16821 -0.22827,-0.67139 -0.22827,-1.45691 z m 1.24207,0.14771 q 0,0.53711 0.12756,1.02722 0.12756,0.4834 0.38269,0.85266 0.26184,0.36926 0.65125,0.58411 0.3894,0.21484 0.90637,0.21484 0.51025,0 0.89294,-0.21484 0.38941,-0.21485 0.64453,-0.58411 0.26185,-0.36926 0.38941,-0.85266 0.12756,-0.49011 0.12756,-1.02722 v -0.14771 q 0,-0.53039 -0.13428,-1.01379 -0.12756,-0.49012 -0.3894,-0.85938 -0.25513,-0.36926 -0.64453,-0.5841 -0.38269,-0.22156 -0.89966,-0.22156 -0.51697,0 -0.89966,0.22156 -0.38269,0.21484 -0.64453,0.5841 -0.25513,0.36926 -0.38269,0.85938 -0.12756,0.4834 -0.12756,1.01379 z"
             style="font-style:normal;font-variant:normal;font-weight:normal;font-stretch:normal;font-size:13.75px;line-height:1.25;font-family:'Roboto Mono';-inkscape-font-specification:'Roboto Mono'"
             id="path276" />
          <path
             d="m 218.84283,250.37958 h 3.71277 v 6.19018 h 2.37 v 1.07422 h -6.08277 v -1.07422 h 2.47071 v -5.10925 h -2.47071 z m 2.30957,-1.90674 q 0,-0.30884 0.18128,-0.51697 0.18799,-0.21484 0.56396,-0.21484 0.36927,0 0.55726,0.21484 0.18798,0.20813 0.18798,0.51697 0,0.30212 -0.18798,0.50354 -0.18799,0.20142 -0.55726,0.20142 -0.37597,0 -0.56396,-0.20142 -0.18128,-0.20142 -0.18128,-0.50354 z"
             style="font-style:normal;font-variant:normal;font-weight:normal;font-stretch:normal;font-size:13.75px;line-height:1.25;font-family:'Roboto Mono';-inkscape-font-specification:'Roboto Mono'"
             id="path278" />
          <path
             d="m 228.00726,250.37958 0.0873,1.07422 q 0.39612,-0.56397 0.97351,-0.87952 0.5774,-0.32227 1.28907,-0.32898 0.57068,0 1.03393,0.16113 0.46997,0.16114 0.79895,0.50354 0.32898,0.34241 0.50354,0.87281 0.18128,0.52368 0.18128,1.24878 v 4.61242 h -1.24207 v -4.58557 q 0,-0.4834 -0.10742,-0.81909 -0.10742,-0.33569 -0.32227,-0.54382 -0.20813,-0.20813 -0.51696,-0.30213 -0.30213,-0.094 -0.69825,-0.094 -0.62439,0 -1.10107,0.31555 -0.46997,0.30884 -0.75195,0.81909 v 5.20996 h -1.24207 v -7.2644 z"
             style="font-style:normal;font-variant:normal;font-weight:normal;font-stretch:normal;font-size:13.75px;line-height:1.25;font-family:'Roboto Mono';-inkscape-font-specification:'Roboto Mono'"
             id="path280" />
          <path
             d="m 236.36603,253.67609 q 0,-0.96009 0.1477,-1.80603 0.15442,-0.84595 0.40955,-1.56433 0.25513,-0.7251 0.58411,-1.32264 0.33569,-0.59753 0.69824,-1.06079 0.36926,-0.46325 0.73852,-0.79223 0.36927,-0.32898 0.70496,-0.51697 l 0.26184,0.81909 q -0.41626,0.31555 -0.83252,0.85937 -0.40955,0.54383 -0.73853,1.32264 -0.32226,0.77209 -0.53039,1.78589 -0.20142,1.00708 -0.20142,2.26257 v 0.094 q 0,1.2555 0.20142,2.26929 0.20813,1.01379 0.53039,1.7926 0.32898,0.77881 0.73853,1.32935 0.41626,0.55725 0.83252,0.89294 l -0.26184,0.75867 q -0.33569,-0.18799 -0.71167,-0.51697 -0.36926,-0.32226 -0.73853,-0.79223 -0.36255,-0.46326 -0.69824,-1.0608 -0.32898,-0.59082 -0.58411,-1.3092 -0.24841,-0.7251 -0.40283,-1.57104 -0.1477,-0.84595 -0.1477,-1.80603 z"
             style="font-style:normal;font-variant:normal;font-weight:normal;font-stretch:normal;font-size:13.75px;line-height:1.25;font-family:'Roboto Mono';-inkscape-font-specification:'Roboto Mono'"
             id="path282" />
          <path
             d="m 246.38312,253.07184 1.94031,-2.69226 h 1.4569 l -2.70568,3.59192 2.77954,3.67248 h -1.43677 l -2.00745,-2.76611 -2.00744,2.76611 h -1.4502 l 2.77954,-3.67248 -2.70569,-3.59192 h 1.43677 z"
             style="font-style:normal;font-variant:normal;font-weight:normal;font-stretch:normal;font-size:13.75px;line-height:1.25;font-family:'Roboto Mono';-inkscape-font-specification:'Roboto Mono'"
             id="path284" />
          <path
             d="m 254.77545,257.35529 q 0,0.31555 -0.0806,0.65795 -0.0739,0.34913 -0.22828,0.68482 -0.1477,0.34241 -0.36255,0.65124 -0.21484,0.30884 -0.49682,0.55054 l -0.7721,-0.42297 q 0.32227,-0.46997 0.45655,-1.00037 0.13427,-0.53039 0.13427,-1.10107 v -1.20178 h 1.34949 z"
             style="font-style:normal;font-variant:normal;font-weight:normal;font-stretch:normal;font-size:13.75px;line-height:1.25;font-family:'Roboto Mono';-inkscape-font-specification:'Roboto Mono'"
             id="path286" />
          <path
             d="m 262.5434,255.06586 0.32226,0.87951 2.21558,-5.56579 h 1.38977 l -3.68591,8.38562 q -0.12757,0.28198 -0.32898,0.59753 -0.19471,0.31555 -0.47669,0.58411 -0.28198,0.26855 -0.65796,0.44983 -0.37597,0.18127 -0.86609,0.18127 -0.0873,0 -0.1947,-0.0134 -0.10742,-0.007 -0.21484,-0.0268 -0.10742,-0.0134 -0.20142,-0.0336 -0.094,-0.0201 -0.15442,-0.0336 l 0.20142,-1.01379 q 0.047,0 0.12756,0.007 0.0806,0.007 0.16785,0.0134 0.0873,0.007 0.16785,0.007 0.0806,0.007 0.12756,0.007 0.25513,0 0.46326,-0.141 0.21484,-0.14099 0.37597,-0.33569 0.16785,-0.1947 0.28198,-0.40283 0.12085,-0.20813 0.18799,-0.34241 l 0.49683,-0.9668 -3.12866,-6.92199 h 1.38977 z"
             style="font-style:normal;font-variant:normal;font-weight:normal;font-stretch:normal;font-size:13.75px;line-height:1.25;font-family:'Roboto Mono';-inkscape-font-specification:'Roboto Mono'"
             id="path288" />
          <path
             d="m 272.64777,253.74323 q 0,0.96008 -0.15442,1.80603 -0.14771,0.84594 -0.40283,1.57104 -0.25513,0.71838 -0.59083,1.3092 -0.32897,0.59754 -0.69824,1.0608 -0.36255,0.46997 -0.73852,0.79223 -0.36927,0.32898 -0.70496,0.51697 l -0.26184,-0.75867 q 0.41626,-0.30884 0.82581,-0.86609 0.41626,-0.55053 0.73852,-1.33606 0.32898,-0.78552 0.5304,-1.80603 0.20813,-1.0205 0.20813,-2.276 v -0.094 q 0,-1.25549 -0.21485,-2.276 -0.21484,-1.02722 -0.55725,-1.81275 -0.33569,-0.79223 -0.74524,-1.34277 -0.40283,-0.55054 -0.78552,-0.85937 l 0.26184,-0.75867 q 0.33569,0.18799 0.70496,0.51697 0.37597,0.32898 0.73852,0.79223 0.36927,0.46326 0.69824,1.06079 0.3357,0.59754 0.59083,1.32264 0.25512,0.71838 0.40283,1.56433 0.15442,0.84594 0.15442,1.80603 z"
             style="font-style:normal;font-variant:normal;font-weight:normal;font-stretch:normal;font-size:13.75px;line-height:1.25;font-family:'Roboto Mono';-inkscape-font-specification:'Roboto Mono'"
             id="path290" />
        </g>
        <path
           style="fill:#cccccc;fill-opacity:1;stroke:#000000;stroke-width:1;stroke-miterlimit:4;stroke-dasharray:none"
           d="m 287.31836,212.95898 a 30,30 0 0 0 -12.06445,24.00977 30,30 0 0 0 12.07421,24.00977 30,30 0 0 0 12.06641,-24.00977 30,30 0 0 0 -12.07617,-24.00977 z"
           transform="translate(-201.51293)"
           id="circle4526"
           inkscape:connector-curvature="0" />
      </g>
    </g>
  </g>
</svg>
