<?xml version="1.0" encoding="UTF-8" standalone="no"?>
<!-- Created with Inkscape (http://www.inkscape.org/) -->

<svg
   xmlns:dc="http://purl.org/dc/elements/1.1/"
   xmlns:cc="http://creativecommons.org/ns#"
   xmlns:rdf="http://www.w3.org/1999/02/22-rdf-syntax-ns#"
   xmlns:svg="http://www.w3.org/2000/svg"
   xmlns="http://www.w3.org/2000/svg"
   xmlns:sodipodi="http://sodipodi.sourceforge.net/DTD/sodipodi-0.dtd"
   xmlns:inkscape="http://www.inkscape.org/namespaces/inkscape"
   width="83.799164mm"
   height="39.037567mm"
   viewBox="0 0 83.799164 39.037567"
   version="1.1"
   id="svg8"
   sodipodi:docname="join-inner-otp.svg"
   inkscape:version="0.92.3 (2405546, 2018-03-11)">
  <defs
     id="defs2">
    <inkscape:perspective
       id="perspective4714"
       inkscape:persp3d-origin="272.31181 : 84.672275 : 1"
       inkscape:vp_z="544.62364 : 127.00841 : 1"
       inkscape:vp_y="0 : 999.99986 : 0"
       inkscape:vp_x="0 : 127.00841 : 1"
       sodipodi:type="inkscape:persp3d" />
    <inkscape:perspective
       sodipodi:type="inkscape:persp3d"
       inkscape:vp_x="0 : 127.00841 : 1"
       inkscape:vp_y="0 : 999.99986 : 0"
       inkscape:vp_z="544.62364 : 127.00841 : 1"
       inkscape:persp3d-origin="272.31181 : 84.672275 : 1"
       id="perspective4714-3" />
    <inkscape:perspective
       sodipodi:type="inkscape:persp3d"
       inkscape:vp_x="0 : 127.00841 : 1"
       inkscape:vp_y="0 : 999.99987 : 0"
       inkscape:vp_z="544.62366 : 127.00841 : 1"
       inkscape:persp3d-origin="272.31182 : 84.672276 : 1"
       id="perspective4714-7" />
  </defs>
  <sodipodi:namedview
     id="base"
     pagecolor="#ffffff"
     bordercolor="#666666"
     borderopacity="1.0"
     inkscape:pageopacity="0.0"
     inkscape:pageshadow="2"
     inkscape:zoom="7.9195959"
     inkscape:cx="222.49674"
     inkscape:cy="61.49393"
     inkscape:document-units="mm"
     inkscape:current-layer="layer1"
     showgrid="false"
     inkscape:window-width="1920"
     inkscape:window-height="1012"
     inkscape:window-x="0"
     inkscape:window-y="32"
     inkscape:window-maximized="1"
     fit-margin-top="5"
     fit-margin-left="5"
     fit-margin-bottom="5"
     fit-margin-right="5"
     showguides="true"
     inkscape:guide-bbox="true" />
  <metadata
     id="metadata5">
    <rdf:RDF>
      <cc:Work
         rdf:about="">
        <dc:format>image/svg+xml</dc:format>
        <dc:type
           rdf:resource="http://purl.org/dc/dcmitype/StillImage" />
        <dc:title></dc:title>
      </cc:Work>
    </rdf:RDF>
  </metadata>
  <g
     inkscape:label="Layer 1"
     inkscape:groupmode="layer"
     id="layer1"
     transform="translate(35.035205,-126.9522)">
    <g
       id="g131"
       transform="translate(-1.194856,4.5802285)">
      <path
         transform="matrix(0,0.22148418,-0.13625122,0,42.271518,53.10927)"
         style="fill:#808080;fill-opacity:1;stroke:none;stroke-width:2.15971947;stroke-miterlimit:4;stroke-dasharray:none"
         inkscape:transform-center-x="-1.2602661"
         inkscape:transform-center-y="-1.218691e-005"
         d="m 422.91498,169.97858 -9.04282,0 -9.04282,0 4.52141,-7.83131 4.52141,-7.83131 4.52141,7.83131 z"
         id="path5134" />
      <path
         style="fill:#808080;fill-opacity:1;stroke:none;stroke-width:1;stroke-miterlimit:4;stroke-dasharray:none"
         d="m 13.896421,143.81078 h 5.630414 v 1.92925 h -5.630414 z"
         id="rect5136" />
    </g>
    <g
       id="g127">
      <path
         inkscape:connector-curvature="0"
         id="path5046"
         d="M -12.322327,132.0862 4.09371,148.50224"
         style="fill:none;fill-rule:evenodd;stroke:#cccccc;stroke-width:0.30000001;stroke-linecap:butt;stroke-linejoin:miter;stroke-miterlimit:4;stroke-dasharray:none;stroke-opacity:1" />
      <path
         inkscape:connector-curvature="0"
         id="path5048"
         d="M -19.277093,139.04097 -2.8610529,155.457"
         style="fill:none;fill-rule:evenodd;stroke:#cccccc;stroke-width:0.30000001;stroke-linecap:butt;stroke-linejoin:miter;stroke-miterlimit:4;stroke-dasharray:none;stroke-opacity:1" />
      <path
         style="fill:none;fill-rule:evenodd;stroke:#cccccc;stroke-width:0.30000001;stroke-linecap:butt;stroke-linejoin:miter;stroke-miterlimit:4;stroke-dasharray:none;stroke-opacity:1"
         d="M -15.799712,135.56358 0.61632855,151.97962"
         id="path5050"
         inkscape:connector-curvature="0" />
      <path
         transform="rotate(45)"
         style="fill:#8fd091;fill-opacity:1;stroke:#000000;stroke-width:0.29999998;stroke-miterlimit:4;stroke-dasharray:none"
         d="m 99.522446,99.653366 h 4.776674 v 4.917764 h -4.776674 z"
         id="rect4769" />
      <path
         transform="rotate(45)"
         style="fill:#cccccc;fill-opacity:1;stroke:#000000;stroke-width:0.29999998;stroke-miterlimit:4;stroke-dasharray:none"
         d="m 104.26426,99.653366 h 7.30314 v 4.917764 h -7.30314 z"
         id="rect4775" />
      <path
         transform="rotate(45)"
         style="fill:#cabddc;fill-opacity:1;stroke:#000000;stroke-width:0.29999998;stroke-miterlimit:4;stroke-dasharray:none"
         d="m 99.522446,104.57112 h 4.776674 v 4.91776 h -4.776674 z"
         id="use5269" />
      <path
         transform="rotate(45)"
         style="fill:#fffda9;fill-opacity:1;stroke:#000000;stroke-width:0.29999998;stroke-miterlimit:4;stroke-dasharray:none"
         d="m 99.522446,109.48888 h 4.776674 v 4.91776 h -4.776674 z"
         id="use5271" />
      <path
         transform="rotate(45)"
         style="fill:#cccccc;fill-opacity:1;stroke:#000000;stroke-width:0.29999998;stroke-miterlimit:4;stroke-dasharray:none"
         d="m 104.26426,104.57112 h 7.30314 v 4.91776 h -7.30314 z"
         id="use5277" />
      <path
         transform="rotate(45)"
         style="fill:#cccccc;fill-opacity:1;stroke:#000000;stroke-width:0.29999998;stroke-miterlimit:4;stroke-dasharray:none"
         d="m 104.26426,109.48888 h 7.30314 v 4.91776 h -7.30314 z"
         id="use5279" />
      <g
         aria-label="y1"
         transform="rotate(45)"
         style="font-style:normal;font-weight:normal;font-size:3.38666677px;line-height:0%;font-family:sans-serif;letter-spacing:0px;word-spacing:0px;fill:#000000;fill-opacity:1;stroke:none;stroke-width:0.28222224px;stroke-linecap:butt;stroke-linejoin:miter;stroke-opacity:1"
         id="text4614">
        <path
           d="m 107.22852,102.90548 0.43409,-1.39699 h 0.34106 l -0.74931,2.15147 q -0.17397,0.46508 -0.55293,0.46508 l -0.0603,-0.005 -0.11886,-0.0224 v -0.25838 l 0.0861,0.007 q 0.16192,0 0.25149,-0.0654 0.0913,-0.0655 0.14986,-0.23944 l 0.0706,-0.18948 -0.66491,-1.84313 h 0.34796 z"
           style="font-style:normal;font-variant:normal;font-weight:normal;font-stretch:normal;font-size:3.52777791px;line-height:1.25;font-family:Roboto;-inkscape-font-specification:Roboto;stroke-width:0.28222224px"
           id="path94" />
        <path
           d="m 109.30075,103.37229 h -0.32039 v -2.1239 l -0.64251,0.23599 v -0.28939 l 0.91295,-0.34279 h 0.0499 z"
           style="font-style:normal;font-variant:normal;font-weight:normal;font-stretch:normal;font-size:3.52777791px;line-height:1.25;font-family:Roboto;-inkscape-font-specification:Roboto;stroke-width:0.28222224px"
           id="path96" />
      </g>
      <g
         aria-label="1"
         transform="rotate(45)"
         style="font-style:normal;font-weight:normal;font-size:3.38666677px;line-height:0%;font-family:sans-serif;letter-spacing:0px;word-spacing:0px;fill:#000000;fill-opacity:1;stroke:none;stroke-width:0.28222224px;stroke-linecap:butt;stroke-linejoin:miter;stroke-opacity:1"
         id="text4618">
        <path
           d="m 102.39223,103.37229 h -0.32039 v -2.1239 l -0.64251,0.23599 v -0.28939 l 0.91295,-0.34279 h 0.0499 z"
           style="font-style:normal;font-variant:normal;font-weight:normal;font-stretch:normal;font-size:3.52777791px;line-height:1.25;font-family:Roboto;-inkscape-font-specification:Roboto;stroke-width:0.28222224px"
           id="path99" />
      </g>
      <g
         aria-label="y2"
         transform="rotate(45)"
         style="font-style:normal;font-weight:normal;font-size:3.38666677px;line-height:0%;font-family:sans-serif;letter-spacing:0px;word-spacing:0px;fill:#000000;fill-opacity:1;stroke:none;stroke-width:0.28222224px;stroke-linecap:butt;stroke-linejoin:miter;stroke-opacity:1"
         id="text4622">
        <path
           d="m 107.22852,107.82324 0.43409,-1.39699 h 0.34106 l -0.74931,2.15146 q -0.17397,0.46509 -0.55293,0.46509 l -0.0603,-0.005 -0.11886,-0.0224 v -0.25838 l 0.0861,0.007 q 0.16192,0 0.25149,-0.0655 0.0913,-0.0655 0.14986,-0.23943 l 0.0706,-0.18948 -0.66491,-1.84313 h 0.34796 z"
           style="font-style:normal;font-variant:normal;font-weight:normal;font-stretch:normal;font-size:3.52777791px;line-height:1.25;font-family:Roboto;-inkscape-font-specification:Roboto;stroke-width:0.28222224px"
           id="path102" />
        <path
           d="m 109.89675,108.29005 h -1.64331 v -0.2291 l 0.86816,-0.96463 q 0.19293,-0.21876 0.26528,-0.35484 0.0741,-0.13781 0.0741,-0.28422 0,-0.19637 -0.11886,-0.32212 -0.11885,-0.12575 -0.31695,-0.12575 -0.23771,0 -0.37035,0.13608 -0.13091,0.13436 -0.13091,0.37552 h -0.31867 q 0,-0.34623 0.22221,-0.55983 0.22393,-0.21359 0.59772,-0.21359 0.34968,0 0.55294,0.18431 0.20326,0.18259 0.20326,0.48748 0,0.37035 -0.47198,0.88194 l -0.67179,0.72864 h 1.25918 z"
           style="font-style:normal;font-variant:normal;font-weight:normal;font-stretch:normal;font-size:3.52777791px;line-height:1.25;font-family:Roboto;-inkscape-font-specification:Roboto;stroke-width:0.28222224px"
           id="path104" />
      </g>
      <g
         aria-label="2"
         transform="rotate(45)"
         style="font-style:normal;font-weight:normal;font-size:3.38666677px;line-height:0%;font-family:sans-serif;letter-spacing:0px;word-spacing:0px;fill:#000000;fill-opacity:1;stroke:none;stroke-width:0.28222224px;stroke-linecap:butt;stroke-linejoin:miter;stroke-opacity:1"
         id="text4626">
        <path
           d="m 102.75656,108.30125 h -1.64331 v -0.2291 l 0.86817,-0.96463 q 0.19292,-0.21876 0.26527,-0.35484 0.0741,-0.13781 0.0741,-0.28422 0,-0.19637 -0.11886,-0.32212 -0.11885,-0.12575 -0.31695,-0.12575 -0.23771,0 -0.37034,0.13608 -0.13092,0.13436 -0.13092,0.37552 h -0.31867 q 0,-0.34623 0.22221,-0.55983 0.22393,-0.21359 0.59772,-0.21359 0.34968,0 0.55294,0.18431 0.20326,0.18259 0.20326,0.48748 0,0.37035 -0.47198,0.88194 l -0.67179,0.72864 h 1.25918 z"
           style="font-style:normal;font-variant:normal;font-weight:normal;font-stretch:normal;font-size:3.52777791px;line-height:1.25;font-family:Roboto;-inkscape-font-specification:Roboto;stroke-width:0.28222224px"
           id="path107" />
      </g>
      <g
         aria-label="y3"
         transform="rotate(45)"
         style="font-style:normal;font-weight:normal;font-size:3.38666677px;line-height:0%;font-family:sans-serif;letter-spacing:0px;word-spacing:0px;fill:#000000;fill-opacity:1;stroke:none;stroke-width:0.28222224px;stroke-linecap:butt;stroke-linejoin:miter;stroke-opacity:1"
         id="text4630">
        <path
           d="m 107.22852,112.74101 0.43409,-1.39699 h 0.34106 l -0.74931,2.15146 q -0.17397,0.46509 -0.55293,0.46509 l -0.0603,-0.005 -0.11886,-0.0224 v -0.25838 l 0.0861,0.007 q 0.16192,0 0.25149,-0.0655 0.0913,-0.0655 0.14986,-0.23943 l 0.0706,-0.18948 -0.66491,-1.84313 h 0.34796 z"
           style="font-style:normal;font-variant:normal;font-weight:normal;font-stretch:normal;font-size:3.52777791px;line-height:1.25;font-family:Roboto;-inkscape-font-specification:Roboto;stroke-width:0.28222224px"
           id="path110" />
        <path
           d="m 108.71681,111.79877 h 0.23943 q 0.22565,-0.003 0.35485,-0.11885 0.12919,-0.11541 0.12919,-0.31178 0,-0.44098 -0.43925,-0.44098 -0.20671,0 -0.33073,0.11886 -0.1223,0.11713 -0.1223,0.31178 h -0.31867 q 0,-0.298 0.21704,-0.49437 0.21876,-0.19809 0.55466,-0.19809 0.35484,0 0.55638,0.18775 0.20154,0.18776 0.20154,0.52194 0,0.16364 -0.1068,0.31695 -0.10508,0.1533 -0.28767,0.22909 0.20671,0.0655 0.31868,0.21704 0.11368,0.15159 0.11368,0.37035 0,0.33762 -0.22048,0.53572 -0.22049,0.19809 -0.57361,0.19809 -0.35312,0 -0.57533,-0.1912 -0.22049,-0.19121 -0.22049,-0.50471 h 0.3204 q 0,0.19809 0.12919,0.31695 0.12919,0.11885 0.34623,0.11885 0.23082,0 0.35312,-0.12058 0.1223,-0.12057 0.1223,-0.34623 0,-0.21876 -0.13436,-0.33589 -0.13436,-0.11714 -0.38757,-0.12058 h -0.23943 z"
           style="font-style:normal;font-variant:normal;font-weight:normal;font-stretch:normal;font-size:3.52777791px;line-height:1.25;font-family:Roboto;-inkscape-font-specification:Roboto;stroke-width:0.28222224px"
           id="path112" />
      </g>
      <g
         aria-label="4"
         transform="rotate(45)"
         style="font-style:normal;font-weight:normal;font-size:3.38666677px;line-height:0%;font-family:sans-serif;letter-spacing:0px;word-spacing:0px;fill:#000000;fill-opacity:1;stroke:none;stroke-width:0.28222224px;stroke-linecap:butt;stroke-linejoin:miter;stroke-opacity:1"
         id="text4634">
        <path
           d="m 102.45856,112.37668 h 0.34796 v 0.26011 h -0.34796 v 0.58222 h -0.32039 v -0.58222 h -1.14205 v -0.18776 l 1.1231,-1.73805 h 0.33934 z m -1.10071,0 h 0.78032 v -1.2299 l -0.0379,0.0689 z"
           style="font-style:normal;font-variant:normal;font-weight:normal;font-stretch:normal;font-size:3.52777791px;line-height:1.25;font-family:Roboto;-inkscape-font-specification:Roboto;stroke-width:0.28222224px"
           id="path115" />
      </g>
      <path
         style="fill:none;fill-rule:evenodd;stroke:#999999;stroke-width:0.29999998;stroke-linecap:butt;stroke-linejoin:miter;stroke-miterlimit:4;stroke-dasharray:none;stroke-opacity:1"
         d="M -25.513658,148.52361 -9.0483158,132.05827"
         id="path5045"
         inkscape:connector-curvature="0" />
      <path
         style="fill:none;fill-rule:evenodd;stroke:#999999;stroke-width:0.29999998;stroke-linecap:butt;stroke-linejoin:miter;stroke-miterlimit:4;stroke-dasharray:none;stroke-opacity:1"
         d="M -18.558892,155.47837 -2.0935544,139.01303"
         id="path4698"
         inkscape:connector-curvature="0" />
      <path
         inkscape:connector-curvature="0"
         id="path4696"
         d="M -22.036129,152.00084 -5.5461356,135.51085"
         style="fill:none;fill-rule:evenodd;stroke:#999999;stroke-width:0.29999998;stroke-linecap:butt;stroke-linejoin:miter;stroke-miterlimit:4;stroke-dasharray:none;stroke-opacity:1" />
      <path
         transform="matrix(-0.70710678,0.70710678,0.70710678,0.70710678,0,0)"
         style="fill:#cccccc;fill-opacity:1;stroke:#000000;stroke-width:0.29999998;stroke-miterlimit:4;stroke-dasharray:none"
         d="m 119.39534,89.440041 h 7.30314 V 94.3578 h -7.30314 z"
         id="use4459" />
      <path
         transform="matrix(-0.70710678,0.70710678,0.70710678,0.70710678,0,0)"
         style="fill:#cccccc;fill-opacity:1;stroke:#000000;stroke-width:0.29999998;stroke-miterlimit:4;stroke-dasharray:none"
         d="m 119.39534,94.357803 h 7.30314 v 4.91776 h -7.30314 z"
         id="use4461" />
      <path
         transform="matrix(-0.70710678,0.70710678,0.70710678,0.70710678,0,0)"
         style="fill:#cabddc;fill-opacity:1;stroke:#000000;stroke-width:0.29999998;stroke-miterlimit:4;stroke-dasharray:none"
         d="m 114.65353,89.440041 h 4.77667 V 94.3578 h -4.77667 z"
         id="use4467" />
      <path
         transform="matrix(-0.70710678,0.70710678,0.70710678,0.70710678,0,0)"
         style="fill:#fecb98;fill-opacity:1;stroke:#000000;stroke-width:0.29999998;stroke-miterlimit:4;stroke-dasharray:none"
         d="m 114.65353,94.357803 h 4.77667 v 4.91776 h -4.77667 z"
         id="use4469" />
      <path
         transform="matrix(-0.70710678,0.70710678,0.70710678,0.70710678,0,0)"
         style="fill:#cccccc;fill-opacity:1;stroke:#000000;stroke-width:0.29999998;stroke-miterlimit:4;stroke-dasharray:none"
         d="m 119.39534,84.522285 h 7.30314 v 4.91776 h -7.30314 z"
         id="rect4940" />
      <path
         transform="matrix(-0.70710678,0.70710678,0.70710678,0.70710678,0,0)"
         style="fill:#8fd091;fill-opacity:1;stroke:#000000;stroke-width:0.29999998;stroke-miterlimit:4;stroke-dasharray:none"
         d="m 114.65353,84.522285 h 4.77667 v 4.91776 h -4.77667 z"
         id="rect4934" />
      <g
         aria-label="x1"
         transform="rotate(-45)"
         style="font-style:normal;font-weight:normal;font-size:3.38666677px;line-height:0%;font-family:sans-serif;letter-spacing:0px;word-spacing:0px;fill:#000000;fill-opacity:1;stroke:none;stroke-width:0.28222224px;stroke-linecap:butt;stroke-linejoin:miter;stroke-opacity:1"
         id="text4950">
        <path
           d="m -123.71871,87.057821 0.41341,-0.680407 h 0.37207 l -0.60978,0.921563 0.62873,0.942234 h -0.36863 l -0.43063,-0.697632 -0.43064,0.697632 h -0.37035 l 0.62873,-0.942234 -0.60978,-0.921563 h 0.36863 z"
           style="font-style:normal;font-variant:normal;font-weight:normal;font-stretch:normal;font-size:3.52777791px;line-height:1.25;font-family:Roboto;-inkscape-font-specification:Roboto;stroke-width:0.28222224px"
           id="path124" />
        <path
           d="m -121.57931,88.241211 h -0.32039 v -2.123902 l -0.64251,0.23599 v -0.289388 l 0.91295,-0.342788 h 0.0499 z"
           style="font-style:normal;font-variant:normal;font-weight:normal;font-stretch:normal;font-size:3.52777791px;line-height:1.25;font-family:Roboto;-inkscape-font-specification:Roboto;stroke-width:0.28222224px"
           id="path126" />
      </g>
      <g
         aria-label="1"
         transform="rotate(-45)"
         style="font-style:normal;font-weight:normal;font-size:3.38666677px;line-height:0%;font-family:sans-serif;letter-spacing:0px;word-spacing:0px;fill:#000000;fill-opacity:1;stroke:none;stroke-width:0.28222224px;stroke-linecap:butt;stroke-linejoin:miter;stroke-opacity:1"
         id="text4978">
        <path
           d="m -116.56041,88.241211 h -0.32039 v -2.123902 l -0.64251,0.23599 v -0.289388 l 0.91295,-0.342788 h 0.0499 z"
           style="font-style:normal;font-variant:normal;font-weight:normal;font-stretch:normal;font-size:3.52777791px;line-height:1.25;font-family:Roboto;-inkscape-font-specification:Roboto;stroke-width:0.28222224px"
           id="path129" />
      </g>
      <g
         aria-label="2"
         transform="rotate(-45)"
         style="font-style:normal;font-weight:normal;font-size:3.38666677px;line-height:0%;font-family:sans-serif;letter-spacing:0px;word-spacing:0px;fill:#000000;fill-opacity:1;stroke:none;stroke-width:0.28222224px;stroke-linecap:butt;stroke-linejoin:miter;stroke-opacity:1"
         id="text4582">
        <path
           d="m -116.1961,93.170166 h -1.64331 v -0.229099 l 0.86817,-0.964627 q 0.19292,-0.218763 0.26527,-0.354844 0.0741,-0.137804 0.0741,-0.284221 0,-0.19637 -0.11886,-0.322116 -0.11885,-0.125746 -0.31695,-0.125746 -0.23771,0 -0.37034,0.136081 -0.13092,0.134359 -0.13092,0.375515 h -0.31867 q 0,-0.346232 0.22221,-0.559828 0.22393,-0.213596 0.59772,-0.213596 0.34968,0 0.55294,0.184313 0.20326,0.18259 0.20326,0.487481 0,0.370348 -0.47198,0.881945 l -0.67179,0.728637 h 1.25918 z"
           style="font-style:normal;font-variant:normal;font-weight:normal;font-stretch:normal;font-size:3.52777791px;line-height:1.25;font-family:Roboto;-inkscape-font-specification:Roboto;stroke-width:0.28222224px"
           id="path132" />
      </g>
      <g
         aria-label="3"
         transform="rotate(-45)"
         style="font-style:normal;font-weight:normal;font-size:3.38666677px;line-height:0%;font-family:sans-serif;letter-spacing:0px;word-spacing:0px;fill:#000000;fill-opacity:1;stroke:none;stroke-width:0.28222224px;stroke-linecap:butt;stroke-linejoin:miter;stroke-opacity:1"
         id="text4590">
        <path
           d="m -117.37604,96.678885 h 0.23943 q 0.22566,-0.0034 0.35485,-0.118856 0.12919,-0.115411 0.12919,-0.311781 0,-0.440973 -0.43925,-0.440973 -0.20671,0 -0.33073,0.118856 -0.1223,0.117134 -0.1223,0.311781 h -0.31867 q 0,-0.298 0.21704,-0.494371 0.21876,-0.198093 0.55466,-0.198093 0.35484,0 0.55638,0.187758 0.20154,0.187758 0.20154,0.521932 0,0.163642 -0.1068,0.316949 -0.10507,0.153306 -0.28766,0.229099 0.2067,0.06546 0.31867,0.217041 0.11368,0.151584 0.11368,0.370347 0,0.33762 -0.22048,0.535713 -0.22049,0.198093 -0.57361,0.198093 -0.35312,0 -0.57533,-0.191203 -0.22049,-0.191203 -0.22049,-0.504707 h 0.3204 q 0,0.198093 0.12919,0.316949 0.12919,0.118856 0.34623,0.118856 0.23082,0 0.35312,-0.120578 0.1223,-0.120579 0.1223,-0.346232 0,-0.218764 -0.13436,-0.335897 -0.13435,-0.117134 -0.38757,-0.120579 h -0.23943 z"
           style="font-style:normal;font-variant:normal;font-weight:normal;font-stretch:normal;font-size:3.52777791px;line-height:1.25;font-family:Roboto;-inkscape-font-specification:Roboto;stroke-width:0.28222224px"
           id="path135" />
      </g>
      <path
         style="fill:#cabddc;fill-opacity:1;stroke:none;stroke-width:1.02270544;stroke-miterlimit:4;stroke-dasharray:none"
         d="m -9.7123698,140.66394 a 0.98777783,0.98777783 0 0 1 -0.9877782,0.98778 0.98777783,0.98777783 0 0 1 -0.987777,-0.98778 0.98777783,0.98777783 0 0 1 0.987777,-0.98778 0.98777783,0.98777783 0 0 1 0.9877782,0.98778 z"
         id="circle3549" />
      <path
         style="fill:#8fd091;fill-opacity:1;stroke:none;stroke-width:1.02270544;stroke-miterlimit:4;stroke-dasharray:none"
         d="m -9.7123698,133.7084 a 0.98777783,0.98777783 0 0 1 -0.9877782,0.98778 0.98777783,0.98777783 0 0 1 -0.987777,-0.98778 0.98777783,0.98777783 0 0 1 0.987777,-0.98777 0.98777783,0.98777783 0 0 1 0.9877782,0.98777 z"
         id="circle3994" />
      <g
         aria-label="x2"
         transform="rotate(-45)"
         style="font-style:normal;font-weight:normal;font-size:3.38666677px;line-height:0%;font-family:sans-serif;letter-spacing:0px;word-spacing:0px;fill:#000000;fill-opacity:1;stroke:none;stroke-width:0.28222224px;stroke-linecap:butt;stroke-linejoin:miter;stroke-opacity:1"
         id="text3417">
        <path
           d="m -123.71871,91.986768 0.41341,-0.680406 h 0.37207 l -0.60978,0.921563 0.62873,0.942233 h -0.36863 l -0.43063,-0.697631 -0.43064,0.697631 h -0.37035 l 0.62873,-0.942233 -0.60978,-0.921563 h 0.36863 z"
           style="font-style:normal;font-variant:normal;font-weight:normal;font-stretch:normal;font-size:3.52777791px;line-height:1.25;font-family:Roboto;-inkscape-font-specification:Roboto;stroke-width:0.28222224px"
           id="path140" />
        <path
           d="m -120.9833,93.170158 h -1.64331 V 92.94106 l 0.86816,-0.964627 q 0.19292,-0.218764 0.26527,-0.354845 0.0741,-0.137804 0.0741,-0.28422 0,-0.196371 -0.11885,-0.322117 -0.11886,-0.125746 -0.31695,-0.125746 -0.23771,0 -0.37035,0.136081 -0.13091,0.134359 -0.13091,0.375516 h -0.31868 q 0,-0.346232 0.22221,-0.559828 0.22393,-0.213596 0.59773,-0.213596 0.34967,0 0.55293,0.184312 0.20327,0.182591 0.20327,0.487481 0,0.370348 -0.47198,0.881945 l -0.6718,0.728638 h 1.25919 z"
           style="font-style:normal;font-variant:normal;font-weight:normal;font-stretch:normal;font-size:3.52777791px;line-height:1.25;font-family:Roboto;-inkscape-font-specification:Roboto;stroke-width:0.28222224px"
           id="path142" />
      </g>
      <g
         aria-label="x3"
         transform="rotate(-45)"
         style="font-style:normal;font-weight:normal;font-size:3.38666677px;line-height:0%;font-family:sans-serif;letter-spacing:0px;word-spacing:0px;fill:#000000;fill-opacity:1;stroke:none;stroke-width:0.28222224px;stroke-linecap:butt;stroke-linejoin:miter;stroke-opacity:1"
         id="text3421">
        <path
           d="m -123.71871,96.887311 0.41341,-0.680406 h 0.37207 l -0.60978,0.921563 0.62873,0.942234 h -0.36863 l -0.43063,-0.697632 -0.43064,0.697632 h -0.37035 l 0.62873,-0.942234 -0.60978,-0.921563 h 0.36863 z"
           style="font-style:normal;font-variant:normal;font-weight:normal;font-stretch:normal;font-size:3.52777791px;line-height:1.25;font-family:Roboto;-inkscape-font-specification:Roboto;stroke-width:0.28222224px"
           id="path145" />
        <path
           d="m -122.16325,96.661657 h 0.23943 q 0.22566,-0.0034 0.35485,-0.118855 0.12919,-0.115411 0.12919,-0.311781 0,-0.440973 -0.43925,-0.440973 -0.2067,0 -0.33073,0.118856 -0.1223,0.117133 -0.1223,0.311781 h -0.31867 q 0,-0.298001 0.21704,-0.494371 0.21876,-0.198093 0.55466,-0.198093 0.35485,0 0.55638,0.187758 0.20154,0.187757 0.20154,0.521932 0,0.163642 -0.1068,0.316949 -0.10507,0.153306 -0.28766,0.229098 0.2067,0.06546 0.31867,0.217041 0.11369,0.151585 0.11369,0.370348 0,0.33762 -0.22049,0.535713 -0.22048,0.198093 -0.57361,0.198093 -0.35312,0 -0.57533,-0.191203 -0.22048,-0.191203 -0.22048,-0.504707 h 0.32039 q 0,0.198093 0.12919,0.316949 0.12919,0.118856 0.34623,0.118856 0.23082,0 0.35313,-0.120579 0.1223,-0.120578 0.1223,-0.346232 0,-0.218763 -0.13436,-0.335896 -0.13436,-0.117134 -0.38758,-0.120579 h -0.23943 z"
           style="font-style:normal;font-variant:normal;font-weight:normal;font-stretch:normal;font-size:3.52777791px;line-height:1.25;font-family:Roboto;-inkscape-font-specification:Roboto;stroke-width:0.28222224px"
           id="path147" />
      </g>
    </g>
    <g
       id="g160"
       transform="translate(-1.4249055e-6)">
      <path
         style="fill:none;fill-opacity:1;stroke:#666666;stroke-width:0.29999998;stroke-miterlimit:4;stroke-dasharray:none"
         d="m 24.265865,138.90387 h 4.776673 v 12.16744 h -4.776673 z"
         id="rect4786" />
      <path
         style="fill:none;fill-opacity:1;stroke:#666666;stroke-width:0.29999998;stroke-miterlimit:4;stroke-dasharray:none"
         d="m 29.007679,138.90387 h 7.303139 v 12.16744 h -7.303139 z"
         id="rect4788" />
      <path
         style="fill:#8fd091;fill-opacity:1;stroke:#000000;stroke-width:0.29999998;stroke-miterlimit:4;stroke-dasharray:none"
         d="m 24.265865,151.00426 h 4.776673 v 4.91776 h -4.776673 z"
         id="rect4646" />
      <path
         style="fill:#cccccc;fill-opacity:1;stroke:#000000;stroke-width:0.29999998;stroke-miterlimit:4;stroke-dasharray:none"
         d="m 29.007679,151.00426 h 7.303139 v 4.91776 h -7.303139 z"
         id="rect4648" />
      <path
         style="fill:#cabddc;fill-opacity:1;stroke:#000000;stroke-width:0.29999998;stroke-miterlimit:4;stroke-dasharray:none"
         d="m 24.265865,155.92201 h 4.776673 v 4.91776 h -4.776673 z"
         id="rect4650" />
      <path
         style="fill:#cccccc;fill-opacity:1;stroke:#000000;stroke-width:0.29999998;stroke-miterlimit:4;stroke-dasharray:none"
         d="m 29.007679,155.92201 h 7.303139 v 4.91776 h -7.303139 z"
         id="rect4656" />
      <g
         aria-label="1"
         style="font-style:normal;font-weight:normal;font-size:3.38666654px;line-height:0%;font-family:sans-serif;letter-spacing:0px;word-spacing:0px;fill:#000000;fill-opacity:1;stroke:none;stroke-width:0.28222221px;stroke-linecap:butt;stroke-linejoin:miter;stroke-opacity:1"
         id="text4666">
        <path
           d="m 27.135656,154.72318 h -0.320394 v -2.12391 l -0.64251,0.23599 v -0.28939 l 0.91295,-0.34278 h 0.04995 z"
           style="font-style:normal;font-variant:normal;font-weight:normal;font-stretch:normal;font-size:3.52777767px;line-height:1.25;font-family:Roboto;-inkscape-font-specification:Roboto;stroke-width:0.28222221px"
           id="path156" />
      </g>
      <g
         aria-label="x1"
         style="font-style:normal;font-weight:normal;font-size:3.38666654px;line-height:0%;font-family:sans-serif;letter-spacing:0px;word-spacing:0px;fill:#000000;fill-opacity:1;stroke:none;stroke-width:0.28222221px;stroke-linecap:butt;stroke-linejoin:miter;stroke-opacity:1"
         id="text4670">
        <path
           d="m 31.987453,153.53978 0.413412,-0.6804 h 0.37207 l -0.609782,0.92156 0.62873,0.94224 h -0.368625 l -0.430637,-0.69764 -0.430637,0.69764 h -0.370348 l 0.62873,-0.94224 -0.609782,-0.92156 h 0.368625 z"
           style="font-style:normal;font-variant:normal;font-weight:normal;font-stretch:normal;font-size:3.52777767px;line-height:1.25;font-family:Roboto;-inkscape-font-specification:Roboto;stroke-width:0.28222221px"
           id="path159" />
        <path
           d="m 34.126857,154.72318 h -0.320393 v -2.12391 l -0.642511,0.23599 v -0.28939 l 0.912951,-0.34278 h 0.04995 z"
           style="font-style:normal;font-variant:normal;font-weight:normal;font-stretch:normal;font-size:3.52777767px;line-height:1.25;font-family:Roboto;-inkscape-font-specification:Roboto;stroke-width:0.28222221px"
           id="path161" />
      </g>
      <g
         aria-label="2"
         style="font-style:normal;font-weight:normal;font-size:3.38666654px;line-height:0%;font-family:sans-serif;letter-spacing:0px;word-spacing:0px;fill:#000000;fill-opacity:1;stroke:none;stroke-width:0.28222221px;stroke-linecap:butt;stroke-linejoin:miter;stroke-opacity:1"
         id="text4674">
        <path
           d="m 27.499976,159.65213 h -1.643311 v -0.2291 l 0.868165,-0.96463 q 0.192925,-0.21876 0.265272,-0.35484 0.07407,-0.1378 0.07407,-0.28422 0,-0.19637 -0.118855,-0.32212 -0.118856,-0.12574 -0.316949,-0.12574 -0.237712,0 -0.370348,0.13608 -0.130914,0.13436 -0.130914,0.37551 h -0.318671 q 0,-0.34623 0.222209,-0.55982 0.223931,-0.2136 0.597724,-0.2136 0.349677,0 0.552938,0.18431 0.20326,0.18259 0.20326,0.48748 0,0.37035 -0.471978,0.88195 l -0.671793,0.72864 h 1.259182 z"
           style="font-style:normal;font-variant:normal;font-weight:normal;font-stretch:normal;font-size:3.52777767px;line-height:1.25;font-family:Roboto;-inkscape-font-specification:Roboto;stroke-width:0.28222221px"
           id="path164" />
      </g>
      <g
         aria-label="llave"
         transform="rotate(-90)"
         style="font-style:normal;font-weight:normal;font-size:3.38666654px;line-height:0%;font-family:sans-serif;letter-spacing:0px;word-spacing:0px;fill:#000000;fill-opacity:1;stroke:none;stroke-width:0.28222221px;stroke-linecap:butt;stroke-linejoin:miter;stroke-opacity:1"
         id="text4790">
        <path
           d="m -148.4749,27.586086 h -0.31867 v -2.645833 h 0.31867 z"
           style="font-style:normal;font-variant:normal;font-weight:normal;font-stretch:normal;font-size:3.52777767px;line-height:1.25;font-family:Roboto;-inkscape-font-specification:Roboto;stroke-width:0.28222221px"
           id="path167" />
        <path
           d="m -147.62051,27.586086 h -0.31868 v -2.645833 h 0.31868 z"
           style="font-style:normal;font-variant:normal;font-weight:normal;font-stretch:normal;font-size:3.52777767px;line-height:1.25;font-family:Roboto;-inkscape-font-specification:Roboto;stroke-width:0.28222221px"
           id="path169" />
        <path
           d="m -145.9617,27.586086 q -0.0276,-0.05512 -0.0448,-0.19637 -0.22221,0.230821 -0.53054,0.230821 -0.27561,0 -0.45303,-0.155029 -0.1757,-0.156752 -0.1757,-0.396186 0,-0.291111 0.22048,-0.451308 0.22221,-0.161919 0.62357,-0.161919 h 0.31006 v -0.146417 q 0,-0.167087 -0.0999,-0.265272 -0.0999,-0.09991 -0.29456,-0.09991 -0.17053,0 -0.28594,0.08613 -0.11541,0.08613 -0.11541,0.208428 h -0.3204 q 0,-0.139526 0.0982,-0.268717 0.0999,-0.130914 0.26872,-0.206706 0.17053,-0.07579 0.37379,-0.07579 0.32212,0 0.50471,0.161919 0.18259,0.160197 0.18948,0.442695 v 0.857829 q 0,0.256659 0.0654,0.408244 v 0.02756 z m -0.52882,-0.242879 q 0.14986,0 0.28422,-0.07751 0.13436,-0.07751 0.19465,-0.201538 v -0.382405 h -0.24977 q -0.58567,0 -0.58567,0.342787 0,0.149861 0.0999,0.234266 0.0999,0.08441 0.25666,0.08441 z"
           style="font-style:normal;font-variant:normal;font-weight:normal;font-stretch:normal;font-size:3.52777767px;line-height:1.25;font-family:Roboto;-inkscape-font-specification:Roboto;stroke-width:0.28222221px"
           id="path171" />
        <path
           d="m -144.60261,27.153727 0.46164,-1.431437 h 0.32556 l -0.66834,1.863796 h -0.24288 l -0.67524,-1.863796 h 0.32556 z"
           style="font-style:normal;font-variant:normal;font-weight:normal;font-stretch:normal;font-size:3.52777767px;line-height:1.25;font-family:Roboto;-inkscape-font-specification:Roboto;stroke-width:0.28222221px"
           id="path173" />
        <path
           d="m -142.73537,27.620537 q -0.37896,0 -0.61667,-0.248047 -0.23771,-0.249769 -0.23771,-0.666626 v -0.05857 q 0,-0.27733 0.10507,-0.494371 0.1068,-0.218764 0.29628,-0.341065 0.1912,-0.124023 0.41341,-0.124023 0.36346,0 0.565,0.239434 0.20154,0.239434 0.20154,0.685574 v 0.132636 h -1.26263 q 0.007,0.275608 0.1602,0.44614 0.15503,0.16881 0.39274,0.16881 0.16881,0 0.28594,-0.0689 0.11713,-0.0689 0.20498,-0.18259 l 0.19465,0.151584 q -0.23427,0.360012 -0.7028,0.360012 z m -0.0396,-1.670871 q -0.19292,0 -0.32384,0.141249 -0.13091,0.139526 -0.16192,0.392741 h 0.93362 v -0.02412 q -0.0138,-0.242879 -0.13091,-0.375515 -0.11713,-0.134359 -0.31695,-0.134359 z"
           style="font-style:normal;font-variant:normal;font-weight:normal;font-stretch:normal;font-size:3.52777767px;line-height:1.25;font-family:Roboto;-inkscape-font-specification:Roboto;stroke-width:0.28222221px"
           id="path175" />
      </g>
      <g
         aria-label="val_x"
         transform="rotate(-90)"
         style="font-style:normal;font-weight:normal;font-size:3.38666654px;line-height:0%;font-family:sans-serif;letter-spacing:0px;word-spacing:0px;fill:#000000;fill-opacity:1;stroke:none;stroke-width:0.28222221px;stroke-linecap:butt;stroke-linejoin:miter;stroke-opacity:1"
         id="text4794">
        <path
           d="m -148.02015,33.04595 0.46165,-1.431437 h 0.32556 l -0.66835,1.863797 h -0.24288 l -0.67524,-1.863797 h 0.32556 z"
           style="font-style:normal;font-variant:normal;font-weight:normal;font-stretch:normal;font-size:3.52777767px;line-height:1.25;font-family:Roboto;-inkscape-font-specification:Roboto;stroke-width:0.28222221px"
           id="path178" />
        <path
           d="m -145.80323,33.47831 q -0.0276,-0.05512 -0.0448,-0.196371 -0.22221,0.230822 -0.53055,0.230822 -0.2756,0 -0.45303,-0.15503 -0.1757,-0.156752 -0.1757,-0.396186 0,-0.29111 0.22049,-0.451307 0.22221,-0.16192 0.62356,-0.16192 h 0.31006 v -0.146416 q 0,-0.167087 -0.0999,-0.265273 -0.0999,-0.09991 -0.29455,-0.09991 -0.17054,0 -0.28595,0.08613 -0.11541,0.08613 -0.11541,0.208428 h -0.32039 q 0,-0.139526 0.0982,-0.268717 0.0999,-0.130914 0.26872,-0.206706 0.17053,-0.07579 0.37379,-0.07579 0.32212,0 0.50471,0.16192 0.18259,0.160196 0.18948,0.442694 v 0.857829 q 0,0.25666 0.0655,0.408244 v 0.02756 z m -0.52882,-0.24288 q 0.14986,0 0.28422,-0.07751 0.13436,-0.07751 0.19465,-0.201538 v -0.382406 h -0.24977 q -0.58567,0 -0.58567,0.342787 0,0.149862 0.0999,0.234267 0.0999,0.0844 0.25666,0.0844 z"
           style="font-style:normal;font-variant:normal;font-weight:normal;font-stretch:normal;font-size:3.52777767px;line-height:1.25;font-family:Roboto;-inkscape-font-specification:Roboto;stroke-width:0.28222221px"
           id="path180" />
        <path
           d="m -144.68529,33.47831 h -0.31867 v -2.645834 h 0.31867 z"
           style="font-style:normal;font-variant:normal;font-weight:normal;font-stretch:normal;font-size:3.52777767px;line-height:1.25;font-family:Roboto;-inkscape-font-specification:Roboto;stroke-width:0.28222221px"
           id="path182" />
        <path
           d="m -142.83355,33.738414 h -1.57786 V 33.47831 h 1.57786 z"
           style="font-style:normal;font-variant:normal;font-weight:normal;font-stretch:normal;font-size:3.52777767px;line-height:1.25;font-family:Roboto;-inkscape-font-specification:Roboto;stroke-width:0.28222221px"
           id="path184" />
        <path
           d="m -141.96022,32.294919 0.41341,-0.680406 h 0.37207 l -0.60978,0.921563 0.62873,0.942234 h -0.36863 l -0.43063,-0.697632 -0.43064,0.697632 h -0.37035 l 0.62873,-0.942234 -0.60978,-0.921563 h 0.36862 z"
           style="font-style:normal;font-variant:normal;font-weight:normal;font-stretch:normal;font-size:3.52777767px;line-height:1.25;font-family:Roboto;-inkscape-font-specification:Roboto;stroke-width:0.28222221px"
           id="path186" />
      </g>
      <g
         aria-label="x2"
         style="font-style:normal;font-weight:normal;font-size:3.38666654px;line-height:0%;font-family:sans-serif;letter-spacing:0px;word-spacing:0px;fill:#000000;fill-opacity:1;stroke:none;stroke-width:0.28222221px;stroke-linecap:butt;stroke-linejoin:miter;stroke-opacity:1"
         id="text3409">
        <path
           d="m 31.987453,158.46874 0.413412,-0.68041 h 0.37207 l -0.609782,0.92157 0.62873,0.94223 h -0.368625 l -0.430637,-0.69763 -0.430637,0.69763 h -0.370348 l 0.62873,-0.94223 -0.609782,-0.92157 h 0.368625 z"
           style="font-style:normal;font-variant:normal;font-weight:normal;font-stretch:normal;font-size:3.52777767px;line-height:1.25;font-family:Roboto;-inkscape-font-specification:Roboto;stroke-width:0.28222221px"
           id="path189" />
        <path
           d="m 34.722859,159.65213 h -1.643311 v -0.2291 l 0.868165,-0.96463 q 0.192925,-0.21876 0.265272,-0.35484 0.07407,-0.1378 0.07407,-0.28422 0,-0.19637 -0.118855,-0.32212 -0.118856,-0.12574 -0.316949,-0.12574 -0.237712,0 -0.370348,0.13608 -0.130914,0.13436 -0.130914,0.37551 h -0.318671 q 0,-0.34623 0.222209,-0.55982 0.223931,-0.2136 0.597724,-0.2136 0.349677,0 0.552938,0.18431 0.20326,0.18259 0.20326,0.48748 0,0.37035 -0.471978,0.88195 l -0.671793,0.72864 h 1.259182 z"
           style="font-style:normal;font-variant:normal;font-weight:normal;font-stretch:normal;font-size:3.52777767px;line-height:1.25;font-family:Roboto;-inkscape-font-specification:Roboto;stroke-width:0.28222221px"
           id="path191" />
      </g>
      <path
         style="fill:none;fill-opacity:1;stroke:#666666;stroke-width:0.29999998;stroke-miterlimit:4;stroke-dasharray:none"
         d="m 36.310818,138.90387 h 7.303139 v 12.16744 h -7.303139 z"
         id="rect4808" />
      <path
         style="fill:#cccccc;fill-opacity:1;stroke:#000000;stroke-width:0.29999998;stroke-miterlimit:4;stroke-dasharray:none"
         d="m 36.310818,151.00426 h 7.303139 v 4.91776 h -7.303139 z"
         id="rect4810" />
      <path
         style="fill:#cccccc;fill-opacity:1;stroke:#000000;stroke-width:0.29999998;stroke-miterlimit:4;stroke-dasharray:none"
         d="m 36.310818,155.92201 h 7.303139 v 4.91776 h -7.303139 z"
         id="rect4812" />
      <g
         aria-label="y1"
         style="font-style:normal;font-weight:normal;font-size:3.38666654px;line-height:0%;font-family:sans-serif;letter-spacing:0px;word-spacing:0px;fill:#000000;fill-opacity:1;stroke:none;stroke-width:0.28222221px;stroke-linecap:butt;stroke-linejoin:miter;stroke-opacity:1"
         id="text4816">
        <path
           d="m 39.275087,154.25636 0.434082,-1.39698 h 0.341065 l -0.749309,2.15146 q -0.173977,0.46509 -0.552937,0.46509 l -0.06029,-0.005 -0.118855,-0.0224 v -0.25838 l 0.08613,0.007 q 0.161919,0 0.251492,-0.0655 0.0913,-0.0655 0.149862,-0.23944 l 0.07062,-0.18948 -0.664903,-1.84312 h 0.347954 z"
           style="font-style:normal;font-variant:normal;font-weight:normal;font-stretch:normal;font-size:3.52777767px;line-height:1.25;font-family:Roboto;-inkscape-font-specification:Roboto;stroke-width:0.28222221px"
           id="path197" />
        <path
           d="m 41.347312,154.72318 h -0.320394 v -2.12391 l -0.64251,0.23599 v -0.28939 l 0.91295,-0.34278 h 0.04995 z"
           style="font-style:normal;font-variant:normal;font-weight:normal;font-stretch:normal;font-size:3.52777767px;line-height:1.25;font-family:Roboto;-inkscape-font-specification:Roboto;stroke-width:0.28222221px"
           id="path199" />
      </g>
      <g
         aria-label="val_y"
         transform="rotate(-90)"
         style="font-style:normal;font-weight:normal;font-size:3.38666654px;line-height:0%;font-family:sans-serif;letter-spacing:0px;word-spacing:0px;fill:#000000;fill-opacity:1;stroke:none;stroke-width:0.28222221px;stroke-linecap:butt;stroke-linejoin:miter;stroke-opacity:1"
         id="text4820">
        <path
           d="m -148.02015,40.349089 0.46165,-1.431437 h 0.32556 l -0.66835,1.863796 h -0.24288 l -0.67524,-1.863796 h 0.32556 z"
           style="font-style:normal;font-variant:normal;font-weight:normal;font-stretch:normal;font-size:3.52777767px;line-height:1.25;font-family:Roboto;-inkscape-font-specification:Roboto;stroke-width:0.28222221px"
           id="path202" />
        <path
           d="m -145.80323,40.781448 q -0.0276,-0.05512 -0.0448,-0.19637 -0.22221,0.230821 -0.53055,0.230821 -0.2756,0 -0.45303,-0.155029 -0.1757,-0.156752 -0.1757,-0.396186 0,-0.291111 0.22049,-0.451307 0.22221,-0.16192 0.62356,-0.16192 h 0.31006 v -0.146416 q 0,-0.167088 -0.0999,-0.265273 -0.0999,-0.09991 -0.29455,-0.09991 -0.17054,0 -0.28595,0.08613 -0.11541,0.08613 -0.11541,0.208428 h -0.32039 q 0,-0.139526 0.0982,-0.268717 0.0999,-0.130914 0.26872,-0.206706 0.17053,-0.07579 0.37379,-0.07579 0.32212,0 0.50471,0.161919 0.18259,0.160197 0.18948,0.442695 v 0.857829 q 0,0.256659 0.0655,0.408244 v 0.02756 z m -0.52882,-0.242879 q 0.14986,0 0.28422,-0.07752 0.13436,-0.07751 0.19465,-0.201538 v -0.382405 h -0.24977 q -0.58567,0 -0.58567,0.342787 0,0.149861 0.0999,0.234266 0.0999,0.08441 0.25666,0.08441 z"
           style="font-style:normal;font-variant:normal;font-weight:normal;font-stretch:normal;font-size:3.52777767px;line-height:1.25;font-family:Roboto;-inkscape-font-specification:Roboto;stroke-width:0.28222221px"
           id="path204" />
        <path
           d="m -144.68529,40.781448 h -0.31867 v -2.645833 h 0.31867 z"
           style="font-style:normal;font-variant:normal;font-weight:normal;font-stretch:normal;font-size:3.52777767px;line-height:1.25;font-family:Roboto;-inkscape-font-specification:Roboto;stroke-width:0.28222221px"
           id="path206" />
        <path
           d="m -142.83355,41.041553 h -1.57786 v -0.260105 h 1.57786 z"
           style="font-style:normal;font-variant:normal;font-weight:normal;font-stretch:normal;font-size:3.52777767px;line-height:1.25;font-family:Roboto;-inkscape-font-specification:Roboto;stroke-width:0.28222221px"
           id="path208" />
        <path
           d="m -141.97572,40.314638 0.43408,-1.396986 h 0.34106 l -0.74931,2.151462 q -0.17397,0.465088 -0.55293,0.465088 l -0.0603,-0.0052 -0.11886,-0.02239 v -0.258382 l 0.0861,0.0069 q 0.16192,0 0.25149,-0.06546 0.0913,-0.06546 0.14986,-0.239434 l 0.0706,-0.18948 -0.66491,-1.843126 h 0.34796 z"
           style="font-style:normal;font-variant:normal;font-weight:normal;font-stretch:normal;font-size:3.52777767px;line-height:1.25;font-family:Roboto;-inkscape-font-specification:Roboto;stroke-width:0.28222221px"
           id="path210" />
      </g>
      <g
         aria-label="y2"
         style="font-style:normal;font-weight:normal;font-size:3.38666654px;line-height:0%;font-family:sans-serif;letter-spacing:0px;word-spacing:0px;fill:#000000;fill-opacity:1;stroke:none;stroke-width:0.28222221px;stroke-linecap:butt;stroke-linejoin:miter;stroke-opacity:1"
         id="text4824">
        <path
           d="m 39.275087,159.18532 0.434082,-1.39699 h 0.341065 l -0.749309,2.15147 q -0.173977,0.46508 -0.552937,0.46508 l -0.06029,-0.005 -0.118855,-0.0224 v -0.25838 l 0.08613,0.007 q 0.161919,0 0.251492,-0.0655 0.0913,-0.0654 0.149862,-0.23943 l 0.07062,-0.18948 -0.664903,-1.84313 h 0.347954 z"
           style="font-style:normal;font-variant:normal;font-weight:normal;font-stretch:normal;font-size:3.52777767px;line-height:1.25;font-family:Roboto;-inkscape-font-specification:Roboto;stroke-width:0.28222221px"
           id="path213" />
        <path
           d="m 41.943313,159.65213 h -1.64331 v -0.2291 l 0.868164,-0.96463 q 0.192925,-0.21876 0.265272,-0.35484 0.07407,-0.1378 0.07407,-0.28422 0,-0.19637 -0.118856,-0.32212 -0.118856,-0.12574 -0.316949,-0.12574 -0.237711,0 -0.370347,0.13608 -0.130914,0.13436 -0.130914,0.37551 h -0.318671 q 0,-0.34623 0.222208,-0.55982 0.223931,-0.2136 0.597724,-0.2136 0.349677,0 0.552938,0.18431 0.203261,0.18259 0.203261,0.48748 0,0.37035 -0.471978,0.88195 l -0.671794,0.72864 h 1.259182 z"
           style="font-style:normal;font-variant:normal;font-weight:normal;font-stretch:normal;font-size:3.52777767px;line-height:1.25;font-family:Roboto;-inkscape-font-specification:Roboto;stroke-width:0.28222221px"
           id="path215" />
      </g>
    </g>
  </g>
</svg>
