<?xml version="1.0" encoding="UTF-8" standalone="no"?>
<!-- Created with Inkscape (http://www.inkscape.org/) -->

<svg
   xmlns:dc="http://purl.org/dc/elements/1.1/"
   xmlns:cc="http://creativecommons.org/ns#"
   xmlns:rdf="http://www.w3.org/1999/02/22-rdf-syntax-ns#"
   xmlns:svg="http://www.w3.org/2000/svg"
   xmlns="http://www.w3.org/2000/svg"
   xmlns:sodipodi="http://sodipodi.sourceforge.net/DTD/sodipodi-0.dtd"
   xmlns:inkscape="http://www.inkscape.org/namespaces/inkscape"
   id="svg2"
   version="1.1"
   inkscape:version="0.92.3 (2405546, 2018-03-11)"
   width="102.933mm"
   height="79.852585mm"
   viewBox="0 0 389.03808 301.80503"
   sodipodi:docname="lists-subsetting-otp.svg">
  <metadata
     id="metadata8">
    <rdf:RDF>
      <cc:Work
         rdf:about="">
        <dc:format>image/svg+xml</dc:format>
        <dc:type
           rdf:resource="http://purl.org/dc/dcmitype/StillImage" />
        <dc:title></dc:title>
      </cc:Work>
    </rdf:RDF>
  </metadata>
  <defs
     id="defs6" />
  <sodipodi:namedview
     pagecolor="#ffffff"
     bordercolor="#666666"
     borderopacity="1"
     objecttolerance="10"
     gridtolerance="10"
     guidetolerance="10"
     inkscape:pageopacity="0"
     inkscape:pageshadow="2"
     inkscape:window-width="1600"
     inkscape:window-height="832"
     id="namedview4"
     showgrid="false"
     inkscape:zoom="1.5740487"
     inkscape:cx="73.611346"
     inkscape:cy="62.851249"
     inkscape:window-x="0"
     inkscape:window-y="32"
     inkscape:window-maximized="1"
     inkscape:current-layer="svg2"
     units="mm"
     fit-margin-top="5"
     fit-margin-left="5"
     fit-margin-bottom="5"
     fit-margin-right="5" />
  <g
     aria-label="a"
     style="font-style:normal;font-weight:normal;font-size:11.25px;line-height:0%;font-family:sans-serif;letter-spacing:0px;word-spacing:0px;fill:#000000;fill-opacity:1;stroke:none;stroke-width:1.13385832;stroke-miterlimit:4;stroke-dasharray:none;paint-order:markers fill stroke"
     id="text916">
    <path
       d="m 68.051625,31.085138 q -0.08057,-0.153808 -0.131836,-0.380859 -0.04395,-0.234375 -0.06592,-0.483399 -0.205078,0.205079 -0.461426,0.388184 -0.249023,0.183106 -0.556641,0.322266 -0.300293,0.13916 -0.644531,0.219726 -0.344238,0.08057 -0.732422,0.08057 -0.629883,0 -1.142578,-0.183106 -0.505371,-0.183105 -0.864258,-0.490722 -0.351562,-0.314942 -0.549316,-0.739747 -0.19043,-0.432129 -0.19043,-0.930175 0,-0.651856 0.256348,-1.142579 0.263671,-0.490722 0.739746,-0.812988 0.476074,-0.32959 1.142578,-0.490723 0.673828,-0.161132 1.501465,-0.161132 h 1.479492 v -0.622559 q 0,-0.358887 -0.131836,-0.644531 -0.131836,-0.285645 -0.373535,-0.483399 -0.241699,-0.205078 -0.593262,-0.314941 -0.344238,-0.109864 -0.776367,-0.109864 -0.402832,0 -0.725098,0.102539 -0.314941,0.10254 -0.534668,0.270997 -0.219726,0.168457 -0.344238,0.402832 -0.117188,0.22705 -0.117188,0.476074 h -1.362304 q 0.0073,-0.432129 0.219726,-0.84961 0.219727,-0.41748 0.622559,-0.74707 0.410156,-0.336914 0.98877,-0.541992 0.585937,-0.205078 1.325683,-0.205078 0.673828,0 1.252442,0.168457 0.578613,0.161133 0.996094,0.498047 0.424804,0.32959 0.666503,0.827636 0.2417,0.498047 0.2417,1.164551 v 3.684083 q 0,0.395507 0.07324,0.842285 0.07324,0.439453 0.205078,0.769043 v 0.117187 z m -2.39502,-1.032715 q 0.395508,0 0.739746,-0.102539 0.344238,-0.102539 0.622559,-0.270996 0.285644,-0.168457 0.490722,-0.380859 0.205079,-0.219727 0.322266,-0.454102 v -1.604004 h -1.259766 q -1.186523,0 -1.845703,0.351563 -0.65918,0.351562 -0.65918,1.105957 0,0.292969 0.09521,0.541992 0.102539,0.249024 0.300293,0.432129 0.197754,0.175781 0.498047,0.27832 0.300293,0.102539 0.695801,0.102539 z"
       style="font-style:normal;font-variant:normal;font-weight:normal;font-stretch:normal;font-size:15.00000095px;line-height:1.25;font-family:'Roboto Mono';-inkscape-font-specification:'Roboto Mono';stroke-width:1.13385832;stroke-miterlimit:4;stroke-dasharray:none;paint-order:markers fill stroke"
       id="path76" />
  </g>
  <path
     style="fill:none;fill-opacity:1;stroke:#000000;stroke-width:1.13385832;stroke-miterlimit:4;stroke-dasharray:none;paint-order:markers fill stroke"
     d="m 24.719175,43.204834 h 82.739115 c 2.89645,0 5.22825,2.184173 5.22825,4.89725 V 179.02157 c 0,2.71308 -2.3318,4.89725 -5.22825,4.89725 H 24.719175 c -2.896449,0 -5.228248,-2.18417 -5.228248,-4.89725 V 48.102084 c 0,-2.713077 2.331799,-4.89725 5.228248,-4.89725 z"
     id="rect918" />
  <path
     style="fill:#ebebeb;fill-opacity:1;stroke:#000000;stroke-width:1.13385832;stroke-miterlimit:4;stroke-dasharray:none;paint-order:markers fill stroke"
     d="M 76.085968,52.151161 H 96.080437 V 73.963308 H 76.085968 Z"
     id="rect922" />
  <g
     aria-label="3"
     style="font-style:normal;font-weight:normal;font-size:11.25px;line-height:0%;font-family:sans-serif;letter-spacing:0px;word-spacing:0px;fill:#000000;fill-opacity:1;stroke:none;stroke-width:1.13385832;stroke-miterlimit:4;stroke-dasharray:none;paint-order:markers fill stroke"
     id="text926">
    <path
       d="m 84.871041,62.423675 h 1.018066 q 0.959473,-0.01465 1.508789,-0.505371 0.549317,-0.490723 0.549317,-1.325684 0,-1.875 -1.867676,-1.875 -0.878907,0 -1.40625,0.505371 -0.52002,0.498047 -0.52002,1.325684 h -1.354981 q 0,-1.26709 0.922852,-2.102051 0.930176,-0.842285 2.358399,-0.842285 1.508789,0 2.365723,0.79834 0.856933,0.79834 0.856933,2.219238 0,0.695801 -0.454101,1.347657 -0.446778,0.651855 -1.223145,0.974121 0.878906,0.27832 1.354981,0.922851 0.483398,0.644532 0.483398,1.574707 0,1.435547 -0.9375,2.277833 -0.9375,0.842285 -2.438965,0.842285 -1.501465,0 -2.446289,-0.812988 -0.9375,-0.812989 -0.9375,-2.145997 h 1.362304 q 0,0.842286 0.549317,1.347657 0.549316,0.505371 1.472168,0.505371 0.981445,0 1.501465,-0.512696 0.520019,-0.512695 0.520019,-1.472168 0,-0.930175 -0.571289,-1.428222 -0.571289,-0.498047 -1.647949,-0.512696 h -1.018066 z"
       style="font-style:normal;font-variant:normal;font-weight:normal;font-stretch:normal;font-size:15.00000095px;line-height:1.25;font-family:Roboto;-inkscape-font-specification:Roboto;stroke-width:1.13385832;stroke-miterlimit:4;stroke-dasharray:none;paint-order:markers fill stroke"
       id="path81" />
  </g>
  <path
     style="fill:#ebebeb;fill-opacity:1;stroke:#000000;stroke-width:1.13385832;stroke-miterlimit:4;stroke-dasharray:none;paint-order:markers fill stroke"
     d="M 36.097031,52.151161 H 56.091499 V 73.963308 H 36.097031 Z"
     id="rect938" />
  <g
     aria-label="1"
     style="font-style:normal;font-weight:normal;font-size:11.25px;line-height:0%;font-family:sans-serif;letter-spacing:0px;word-spacing:0px;fill:#000000;fill-opacity:1;stroke:none;stroke-width:1.13385832;stroke-miterlimit:4;stroke-dasharray:none;paint-order:markers fill stroke"
     id="text942">
    <path
       d="M 48.141384,68.414909 H 46.77908 v -9.030762 l -2.731934,1.003418 v -1.230469 l 3.881836,-1.457519 h 0.212402 z"
       style="font-style:normal;font-variant:normal;font-weight:normal;font-stretch:normal;font-size:15.00000095px;line-height:1.25;font-family:Roboto;-inkscape-font-specification:Roboto;stroke-width:1.13385832;stroke-miterlimit:4;stroke-dasharray:none;paint-order:markers fill stroke"
       id="path85" />
  </g>
  <path
     style="fill:#ebebeb;fill-opacity:1;stroke:#000000;stroke-width:1.13385832;stroke-miterlimit:4;stroke-dasharray:none;paint-order:markers fill stroke"
     d="M 56.091499,52.151161 H 76.085968 V 73.963308 H 56.091499 Z"
     id="rect944" />
  <g
     aria-label="2"
     style="font-style:normal;font-weight:normal;font-size:11.25px;line-height:0%;font-family:sans-serif;letter-spacing:0px;word-spacing:0px;fill:#000000;fill-opacity:1;stroke:none;stroke-width:1.13385832;stroke-miterlimit:4;stroke-dasharray:none;paint-order:markers fill stroke"
     id="text948">
    <path
       d="M 69.684926,68.414909 H 62.69762 v -0.974121 l 3.691407,-4.101563 q 0.820312,-0.930175 1.12793,-1.508789 0.314941,-0.585937 0.314941,-1.208496 0,-0.834961 -0.505371,-1.369629 -0.505371,-0.534668 -1.347656,-0.534668 -1.010743,0 -1.574707,0.578613 -0.556641,0.57129 -0.556641,1.59668 h -1.354981 q 0,-1.472168 0.944825,-2.380371 0.952148,-0.908203 2.541504,-0.908203 1.486816,0 2.351074,0.783691 0.864258,0.776367 0.864258,2.072754 0,1.574707 -2.006836,3.750001 l -2.856446,3.098144 h 5.354005 z"
       style="font-style:normal;font-variant:normal;font-weight:normal;font-stretch:normal;font-size:15.00000095px;line-height:1.25;font-family:Roboto;-inkscape-font-specification:Roboto;stroke-width:1.13385832;stroke-miterlimit:4;stroke-dasharray:none;paint-order:markers fill stroke"
       id="path89" />
  </g>
  <path
     style="fill:#ebebeb;fill-opacity:1;stroke:#000000;stroke-width:1.13385827;stroke-miterlimit:4;stroke-dasharray:none;paint-order:markers fill stroke"
     d="M 30.86447,80.688855 V 102.47058 H 54.346548 77.828625 101.313 V 80.688855 H 77.828625 54.346548 Z"
     id="path4622"
     inkscape:connector-curvature="0" />
  <g
     aria-label="&quot;a string&quot;"
     style="font-style:normal;font-weight:normal;font-size:11.25px;line-height:0%;font-family:sans-serif;letter-spacing:0px;word-spacing:0px;fill:#000000;fill-opacity:1;stroke:none;stroke-width:1.13385832;stroke-miterlimit:4;stroke-dasharray:none;paint-order:markers fill stroke"
     id="text4598">
    <path
       d="m 38.428818,85.063613 -0.219727,2.622071 h -0.812988 l 0.0073,-3.618165 h 1.025391 z m 1.977539,0 -0.219727,2.622071 h -0.812988 l 0.0073,-3.618165 h 1.025391 z"
       style="font-style:normal;font-variant:normal;font-weight:normal;font-stretch:normal;font-size:15.00000095px;line-height:1.25;font-family:Roboto;-inkscape-font-specification:Roboto;stroke-width:1.13385832;stroke-miterlimit:4;stroke-dasharray:none;paint-order:markers fill stroke"
       id="path92" />
    <path
       d="m 46.771104,95.31752 q -0.117188,-0.234375 -0.19043,-0.834961 -0.944824,0.981446 -2.255859,0.981446 -1.171876,0 -1.92627,-0.65918 -0.74707,-0.666504 -0.74707,-1.684571 0,-1.237793 0.9375,-1.918945 0.944824,-0.688477 2.651367,-0.688477 h 1.318359 v -0.622558 q 0,-0.71045 -0.424804,-1.12793 -0.424805,-0.424805 -1.252442,-0.424805 -0.725098,0 -1.21582,0.366211 -0.490723,0.366211 -0.490723,0.886231 h -1.362305 q 0,-0.593262 0.417481,-1.142578 0.424805,-0.556641 1.142578,-0.878907 0.725098,-0.322265 1.589356,-0.322265 1.369629,0 2.145996,0.688476 0.776367,0.681153 0.805664,1.882325 v 3.647461 q 0,1.091308 0.27832,1.73584 v 0.117187 z m -2.248536,-1.032715 q 0.637208,0 1.208497,-0.32959 0.571289,-0.329589 0.827636,-0.856933 V 91.472305 H 45.49669 q -2.490235,0 -2.490235,1.45752 0,0.637207 0.424805,0.996093 0.424805,0.358887 1.091308,0.358887 z"
       style="font-style:normal;font-variant:normal;font-weight:normal;font-stretch:normal;font-size:15.00000095px;line-height:1.25;font-family:Roboto;-inkscape-font-specification:Roboto;stroke-width:1.13385832;stroke-miterlimit:4;stroke-dasharray:none;paint-order:markers fill stroke"
       id="path94" />
    <path
       d="m 58.387316,93.215469 q 0,-0.549316 -0.41748,-0.849609 -0.410157,-0.307617 -1.442872,-0.527344 -1.02539,-0.219727 -1.6333,-0.527344 -0.600586,-0.307617 -0.893555,-0.732422 -0.285645,-0.424804 -0.285645,-1.010742 0,-0.974121 0.820313,-1.647949 0.827637,-0.673828 2.109375,-0.673828 1.347656,0 2.182617,0.6958 0.842285,0.695801 0.842285,1.779786 H 58.30675 q 0,-0.556641 -0.476075,-0.959473 -0.46875,-0.402832 -1.186523,-0.402832 -0.739746,0 -1.157227,0.322266 -0.41748,0.322265 -0.41748,0.842285 0,0.490722 0.388183,0.739746 0.388184,0.249023 1.398926,0.476074 1.018067,0.227051 1.64795,0.541992 0.629882,0.314942 0.930175,0.761719 0.307618,0.439453 0.307618,1.07666 0,1.062012 -0.84961,1.706543 -0.849609,0.637208 -2.20459,0.637208 -0.952148,0 -1.68457,-0.336915 -0.732422,-0.336914 -1.149903,-0.9375 -0.410156,-0.60791 -0.410156,-1.311035 h 1.354981 q 0.03662,0.681153 0.541992,1.083985 0.512695,0.395507 1.347656,0.395507 0.769043,0 1.230469,-0.307617 0.46875,-0.314941 0.46875,-0.834961 z"
       style="font-style:normal;font-variant:normal;font-weight:normal;font-stretch:normal;font-size:15.00000095px;line-height:1.25;font-family:Roboto;-inkscape-font-specification:Roboto;stroke-width:1.13385832;stroke-miterlimit:4;stroke-dasharray:none;paint-order:markers fill stroke"
       id="path96" />
    <path
       d="m 63.345812,85.47377 v 1.918945 h 1.479492 v 1.047363 h -1.479492 v 4.914551 q 0,0.476075 0.197754,0.717774 0.197754,0.234375 0.673828,0.234375 0.234375,0 0.644531,-0.08789 v 1.098633 q -0.534668,0.146485 -1.040039,0.146485 -0.908203,0 -1.369629,-0.549317 -0.461426,-0.549316 -0.461426,-1.560059 V 88.440078 H 60.54796 v -1.047363 h 1.442871 V 85.47377 Z"
       style="font-style:normal;font-variant:normal;font-weight:normal;font-stretch:normal;font-size:15.00000095px;line-height:1.25;font-family:Roboto;-inkscape-font-specification:Roboto;stroke-width:1.13385832;stroke-miterlimit:4;stroke-dasharray:none;paint-order:markers fill stroke"
       id="path98" />
    <path
       d="m 70.230578,88.608535 q -0.307617,-0.05127 -0.666504,-0.05127 -1.333008,0 -1.809082,1.135254 v 5.625 h -1.354981 v -7.924805 h 1.31836 l 0.02197,0.915527 q 0.666504,-1.062011 1.889649,-1.062011 0.395508,0 0.600586,0.102539 z"
       style="font-style:normal;font-variant:normal;font-weight:normal;font-stretch:normal;font-size:15.00000095px;line-height:1.25;font-family:Roboto;-inkscape-font-specification:Roboto;stroke-width:1.13385832;stroke-miterlimit:4;stroke-dasharray:none;paint-order:markers fill stroke"
       id="path100" />
    <path
       d="m 72.94054,95.31752 h -1.35498 v -7.924805 h 1.35498 z M 71.475697,85.290664 q 0,-0.32959 0.197754,-0.556641 0.205078,-0.22705 0.600586,-0.22705 0.395507,0 0.600585,0.22705 0.205079,0.227051 0.205079,0.556641 0,0.32959 -0.205079,0.549316 -0.205078,0.219727 -0.600585,0.219727 -0.395508,0 -0.600586,-0.219727 -0.197754,-0.219726 -0.197754,-0.549316 z"
       style="font-style:normal;font-variant:normal;font-weight:normal;font-stretch:normal;font-size:15.00000095px;line-height:1.25;font-family:Roboto;-inkscape-font-specification:Roboto;stroke-width:1.13385832;stroke-miterlimit:4;stroke-dasharray:none;paint-order:markers fill stroke"
       id="path102" />
    <path
       d="m 76.382923,87.392715 0.04395,0.996094 q 0.908203,-1.142578 2.373047,-1.142578 2.512207,0 2.534179,2.834472 v 5.236817 h -1.35498 v -5.244141 q -0.0073,-0.856933 -0.395508,-1.26709 -0.380859,-0.410156 -1.193848,-0.410156 -0.659179,0 -1.157226,0.351563 -0.498047,0.351562 -0.776368,0.922851 v 5.646973 h -1.35498 v -7.924805 z"
       style="font-style:normal;font-variant:normal;font-weight:normal;font-stretch:normal;font-size:15.00000095px;line-height:1.25;font-family:Roboto;-inkscape-font-specification:Roboto;stroke-width:1.13385832;stroke-miterlimit:4;stroke-dasharray:none;paint-order:markers fill stroke"
       id="path104" />
    <path
       d="m 83.069935,91.2892 q 0,-1.853028 0.856934,-2.944337 0.856933,-1.098632 2.270507,-1.098632 1.450196,0 2.263184,1.02539 l 0.06592,-0.878906 h 1.237793 v 7.734375 q 0,1.538086 -0.915527,2.424317 -0.908203,0.886231 -2.446289,0.886231 -0.856934,0 -1.677247,-0.366211 -0.820312,-0.366211 -1.252441,-1.003418 l 0.703125,-0.812989 q 0.871582,1.07666 2.131348,1.07666 0.988769,0 1.538086,-0.55664 0.55664,-0.556641 0.55664,-1.567383 v -0.681153 q -0.812988,0.937501 -2.219238,0.937501 -1.391602,0 -2.255859,-1.120606 -0.856934,-1.120606 -0.856934,-3.054199 z m 1.362305,0.153808 q 0,1.340332 0.549316,2.109375 0.549317,0.761719 1.538086,0.761719 1.281739,0 1.882324,-1.164551 v -3.618164 q -0.622558,-1.135254 -1.867675,-1.135254 -0.98877,0 -1.545411,0.769043 -0.55664,0.769043 -0.55664,2.277832 z"
       style="font-style:normal;font-variant:normal;font-weight:normal;font-stretch:normal;font-size:15.00000095px;line-height:1.25;font-family:Roboto;-inkscape-font-specification:Roboto;stroke-width:1.13385832;stroke-miterlimit:4;stroke-dasharray:none;paint-order:markers fill stroke"
       id="path106" />
    <path
       d="m 92.803822,85.063613 -0.219727,2.622071 h -0.812988 l 0.0073,-3.618165 h 1.025391 z m 1.977539,0 -0.219727,2.622071 h -0.812988 l 0.0073,-3.618165 h 1.025391 z"
       style="font-style:normal;font-variant:normal;font-weight:normal;font-stretch:normal;font-size:15.00000095px;line-height:1.25;font-family:Roboto;-inkscape-font-specification:Roboto;stroke-width:1.13385832;stroke-miterlimit:4;stroke-dasharray:none;paint-order:markers fill stroke"
       id="path108" />
  </g>
  <path
     inkscape:connector-curvature="0"
     id="path4600"
     d="m 30.864469,109.19612 v 21.78172 H 54.346547 77.828624 101.31299 V 109.19612 H 77.828624 54.346547 Z"
     style="fill:#ebebeb;fill-opacity:1;stroke:#000000;stroke-width:1.13385827;stroke-miterlimit:4;stroke-dasharray:none;paint-order:markers fill stroke" />
  <g
     aria-label="3.141525"
     style="font-style:normal;font-weight:normal;font-size:11.25px;line-height:0%;font-family:sans-serif;letter-spacing:0px;word-spacing:0px;fill:#000000;fill-opacity:1;stroke:none;stroke-width:1.13385832;stroke-miterlimit:4;stroke-dasharray:none;paint-order:markers fill stroke"
     id="text4606">
    <path
       d="m 37.396103,118.05818 h 1.018067 q 0.959472,-0.0146 1.508789,-0.50537 0.549316,-0.49072 0.549316,-1.32568 0,-1.875 -1.867676,-1.875 -0.878906,0 -1.40625,0.50537 -0.520019,0.49804 -0.520019,1.32568 h -1.354981 q 0,-1.26709 0.922852,-2.10205 0.930176,-0.84228 2.358398,-0.84228 1.508789,0 2.365723,0.79834 0.856934,0.79833 0.856934,2.21923 0,0.6958 -0.454102,1.34766 -0.446777,0.65186 -1.223144,0.97412 0.878906,0.27832 1.35498,0.92285 0.483399,0.64453 0.483399,1.57471 0,1.43555 -0.937501,2.27783 -0.9375,0.84229 -2.438965,0.84229 -1.501464,0 -2.446289,-0.81299 -0.9375,-0.81299 -0.9375,-2.146 h 1.362305 q 0,0.84229 0.549316,1.34766 0.549317,0.50537 1.472168,0.50537 0.981446,0 1.501465,-0.5127 0.52002,-0.51269 0.52002,-1.47216 0,-0.93018 -0.571289,-1.42823 -0.571289,-0.49804 -1.647949,-0.51269 h -1.018067 z"
       style="font-style:normal;font-variant:normal;font-weight:normal;font-stretch:normal;font-size:15.00000095px;line-height:1.25;font-family:Roboto;-inkscape-font-specification:Roboto;stroke-width:1.13385832;stroke-miterlimit:4;stroke-dasharray:none;paint-order:markers fill stroke"
       id="path111" />
    <path
       d="m 44.031846,123.33894 q 0,-0.35156 0.205078,-0.58593 0.212403,-0.23438 0.629883,-0.23438 0.417481,0 0.629883,0.23438 0.219727,0.23437 0.219727,0.58593 0,0.33692 -0.219727,0.56397 -0.212402,0.22705 -0.629883,0.22705 -0.41748,0 -0.629883,-0.22705 -0.205078,-0.22705 -0.205078,-0.56397 z"
       style="font-style:normal;font-variant:normal;font-weight:normal;font-stretch:normal;font-size:15.00000095px;line-height:1.25;font-family:Roboto;-inkscape-font-specification:Roboto;stroke-width:1.13385832;stroke-miterlimit:4;stroke-dasharray:none;paint-order:markers fill stroke"
       id="path113" />
    <path
       d="m 52.271592,124.04939 h -1.362304 v -9.03076 l -2.731934,1.00342 v -1.23047 l 3.881836,-1.45752 h 0.212402 z"
       style="font-style:normal;font-variant:normal;font-weight:normal;font-stretch:normal;font-size:15.00000095px;line-height:1.25;font-family:Roboto;-inkscape-font-specification:Roboto;stroke-width:1.13385832;stroke-miterlimit:4;stroke-dasharray:none;paint-order:markers fill stroke"
       id="path115" />
    <path
       d="m 61.976183,120.46785 h 1.479493 v 1.10596 h -1.479493 v 2.47558 h -1.362304 v -2.47558 h -4.855958 v -0.79834 l 4.775391,-7.39014 h 1.442871 z m -4.680176,0 h 3.317872 v -5.22949 l -0.161133,0.29297 z"
       style="font-style:normal;font-variant:normal;font-weight:normal;font-stretch:normal;font-size:15.00000095px;line-height:1.25;font-family:Roboto;-inkscape-font-specification:Roboto;stroke-width:1.13385832;stroke-miterlimit:4;stroke-dasharray:none;paint-order:markers fill stroke"
       id="path117" />
    <path
       d="m 69.146595,124.04939 h -1.362304 v -9.03076 l -2.731934,1.00342 v -1.23047 l 3.881836,-1.45752 h 0.212402 z"
       style="font-style:normal;font-variant:normal;font-weight:normal;font-stretch:normal;font-size:15.00000095px;line-height:1.25;font-family:Roboto;-inkscape-font-specification:Roboto;stroke-width:1.13385832;stroke-miterlimit:4;stroke-dasharray:none;paint-order:markers fill stroke"
       id="path119" />
    <path
       d="m 73.753529,118.70271 0.541992,-5.31738 h 5.463867 v 1.25244 h -4.313965 l -0.322265,2.90772 q 0.783691,-0.46143 1.779785,-0.46143 1.45752,0 2.314453,0.9668 0.856934,0.95947 0.856934,2.60009 0,1.64795 -0.893555,2.6001 -0.88623,0.94483 -2.48291,0.94483 -1.413574,0 -2.307129,-0.78369 -0.893555,-0.7837 -1.018067,-2.16797 h 1.281739 q 0.124511,0.91552 0.651855,1.38427 0.527344,0.46143 1.391602,0.46143 0.944824,0 1.479492,-0.64453 0.541992,-0.64453 0.541992,-1.77979 0,-1.06933 -0.585937,-1.71386 -0.578614,-0.65186 -1.54541,-0.65186 -0.886231,0 -1.391602,0.38818 l -0.358887,0.29297 z"
       style="font-style:normal;font-variant:normal;font-weight:normal;font-stretch:normal;font-size:15.00000095px;line-height:1.25;font-family:Roboto;-inkscape-font-specification:Roboto;stroke-width:1.13385832;stroke-miterlimit:4;stroke-dasharray:none;paint-order:markers fill stroke"
       id="path121" />
    <path
       d="M 88.555775,124.04939 H 81.56847 v -0.97412 l 3.691407,-4.10156 q 0.820312,-0.93018 1.127929,-1.50879 0.314942,-0.58594 0.314942,-1.2085 0,-0.83496 -0.505371,-1.36963 -0.505372,-0.53466 -1.347657,-0.53466 -1.010742,0 -1.574707,0.57861 -0.556641,0.57129 -0.556641,1.59668 h -1.35498 q 0,-1.47217 0.944824,-2.38037 0.952149,-0.9082 2.541504,-0.9082 1.486817,0 2.351075,0.78369 0.864258,0.77636 0.864258,2.07275 0,1.57471 -2.006837,3.75 l -2.856445,3.09815 h 5.354004 z"
       style="font-style:normal;font-variant:normal;font-weight:normal;font-stretch:normal;font-size:15.00000095px;line-height:1.25;font-family:Roboto;-inkscape-font-specification:Roboto;stroke-width:1.13385832;stroke-miterlimit:4;stroke-dasharray:none;paint-order:markers fill stroke"
       id="path123" />
    <path
       d="m 90.628533,118.70271 0.541992,-5.31738 h 5.463867 v 1.25244 h -4.313965 l -0.322266,2.90772 q 0.783692,-0.46143 1.779786,-0.46143 1.457519,0 2.314453,0.9668 0.856934,0.95947 0.856934,2.60009 0,1.64795 -0.893555,2.6001 -0.886231,0.94483 -2.48291,0.94483 -1.413575,0 -2.307129,-0.78369 -0.893555,-0.7837 -1.018067,-2.16797 h 1.281738 q 0.124512,0.91552 0.651856,1.38427 0.527344,0.46143 1.391602,0.46143 0.944824,0 1.479492,-0.64453 0.541992,-0.64453 0.541992,-1.77979 0,-1.06933 -0.585937,-1.71386 -0.578614,-0.65186 -1.545411,-0.65186 -0.88623,0 -1.391601,0.38818 l -0.358887,0.29297 z"
       style="font-style:normal;font-variant:normal;font-weight:normal;font-stretch:normal;font-size:15.00000095px;line-height:1.25;font-family:Roboto;-inkscape-font-specification:Roboto;stroke-width:1.13385832;stroke-miterlimit:4;stroke-dasharray:none;paint-order:markers fill stroke"
       id="path125" />
  </g>
  <path
     style="fill:#ebebeb;fill-opacity:1;stroke:#000000;stroke-width:1.13385832;stroke-miterlimit:4;stroke-dasharray:none;paint-order:markers fill stroke"
     d="m 42.18127,137.70338 h 47.814932 c 2.742259,0 4.949927,2.45583 4.949927,5.50633 v 26.25646 c 0,3.0505 -2.207668,5.50632 -4.949927,5.50632 H 42.18127 c -2.74226,0 -4.949928,-2.45582 -4.949928,-5.50632 v -26.25646 c 0,-3.0505 2.207668,-5.50633 4.949928,-5.50633 z"
     id="rect4608" />
  <path
     style="fill:#d6d6d6;fill-opacity:1;stroke:#000000;stroke-width:1.13385832;stroke-miterlimit:4;stroke-dasharray:none;paint-order:markers fill stroke"
     d="m 42.666813,145.43184 h 19.994469 v 21.81215 H 42.666813 Z"
     id="rect4610" />
  <g
     aria-label="-1"
     style="font-style:normal;font-weight:normal;font-size:11.25px;line-height:0%;font-family:sans-serif;letter-spacing:0px;word-spacing:0px;fill:#000000;fill-opacity:1;stroke:none;stroke-width:1.13385832;stroke-miterlimit:4;stroke-dasharray:none;paint-order:markers fill stroke"
     id="text4614">
    <path
       d="m 51.638657,157.71855 h -3.574219 v -1.10596 h 3.574219 z"
       style="font-style:normal;font-variant:normal;font-weight:normal;font-stretch:normal;font-size:15.00000095px;line-height:1.25;font-family:Roboto;-inkscape-font-specification:Roboto;stroke-width:1.13385832;stroke-miterlimit:4;stroke-dasharray:none;paint-order:markers fill stroke"
       id="path130" />
    <path
       d="m 57.263657,161.6956 h -1.362304 v -9.03076 l -2.731934,1.00342 v -1.23047 l 3.881836,-1.45752 h 0.212402 z"
       style="font-style:normal;font-variant:normal;font-weight:normal;font-stretch:normal;font-size:15.00000095px;line-height:1.25;font-family:Roboto;-inkscape-font-specification:Roboto;stroke-width:1.13385832;stroke-miterlimit:4;stroke-dasharray:none;paint-order:markers fill stroke"
       id="path132" />
  </g>
  <path
     style="fill:#d6d6d6;fill-opacity:1;stroke:#000000;stroke-width:1.13385832;stroke-miterlimit:4;stroke-dasharray:none;paint-order:markers fill stroke"
     d="m 69.516197,145.43184 h 19.994469 v 21.81215 H 69.516197 Z"
     id="rect4616" />
  <g
     aria-label="-5"
     style="font-style:normal;font-weight:normal;font-size:11.25px;line-height:0%;font-family:sans-serif;letter-spacing:0px;word-spacing:0px;fill:#000000;fill-opacity:1;stroke:none;stroke-width:1.13385832;stroke-miterlimit:4;stroke-dasharray:none;paint-order:markers fill stroke"
     id="text4620">
    <path
       d="m 77.24292,157.71855 h -3.574219 v -1.10596 h 3.574219 z"
       style="font-style:normal;font-variant:normal;font-weight:normal;font-stretch:normal;font-size:15.00000095px;line-height:1.25;font-family:Roboto;-inkscape-font-specification:Roboto;stroke-width:1.13385832;stroke-miterlimit:4;stroke-dasharray:none;paint-order:markers fill stroke"
       id="path136" />
    <path
       d="m 79.037354,156.34892 0.541992,-5.31738 h 5.463868 v 1.25244 h -4.313965 l -0.322266,2.90772 q 0.783692,-0.46143 1.779785,-0.46143 1.45752,0 2.314454,0.9668 0.856933,0.95947 0.856933,2.60009 0,1.64795 -0.893554,2.6001 -0.886231,0.94483 -2.482911,0.94483 -1.413574,0 -2.307129,-0.78369 -0.893555,-0.7837 -1.018066,-2.16797 h 1.281738 q 0.124512,0.91552 0.651856,1.38427 0.527343,0.46143 1.391601,0.46143 0.944824,0 1.479492,-0.64453 0.541993,-0.64453 0.541993,-1.77979 0,-1.06933 -0.585938,-1.71386 -0.578613,-0.65186 -1.54541,-0.65186 -0.886231,0 -1.391602,0.38818 l -0.358886,0.29297 z"
       style="font-style:normal;font-variant:normal;font-weight:normal;font-stretch:normal;font-size:15.00000095px;line-height:1.25;font-family:Roboto;-inkscape-font-specification:Roboto;stroke-width:1.13385832;stroke-miterlimit:4;stroke-dasharray:none;paint-order:markers fill stroke"
       id="path138" />
  </g>
  <path
     style="fill:#ebebeb;fill-opacity:1;stroke:#000000;stroke-width:1.13385832;stroke-miterlimit:4;stroke-dasharray:none;paint-order:markers fill stroke"
     d="m 42.181266,245.07137 h 47.814932 c 2.742259,0 4.949927,2.45582 4.949927,5.50632 v 26.25646 c 0,3.0505 -2.207668,5.50632 -4.949927,5.50632 H 42.181266 c -2.74226,0 -4.949927,-2.45582 -4.949927,-5.50632 v -26.25646 c 0,-3.0505 2.207667,-5.50632 4.949927,-5.50632 z"
     id="rect4735" />
  <path
     style="fill:#d6d6d6;fill-opacity:1;stroke:#000000;stroke-width:1.13385832;stroke-miterlimit:4;stroke-dasharray:none;paint-order:markers fill stroke"
     d="m 42.666809,252.79982 h 19.994469 v 21.81215 H 42.666809 Z"
     id="rect4737" />
  <g
     aria-label="-1"
     style="font-style:normal;font-weight:normal;font-size:11.25px;line-height:0%;font-family:sans-serif;letter-spacing:0px;word-spacing:0px;fill:#000000;fill-opacity:1;stroke:none;stroke-width:1.13385832;stroke-miterlimit:4;stroke-dasharray:none;paint-order:markers fill stroke"
     id="text4741">
    <path
       d="M 51.638649,265.08652 H 48.06443 v -1.10596 h 3.574219 z"
       style="font-style:normal;font-variant:normal;font-weight:normal;font-stretch:normal;font-size:15.00000095px;line-height:1.25;font-family:Roboto;-inkscape-font-specification:Roboto;stroke-width:1.13385832;stroke-miterlimit:4;stroke-dasharray:none;paint-order:markers fill stroke"
       id="path143" />
    <path
       d="m 57.26365,269.06357 h -1.362305 v -9.03076 l -2.731934,1.00341 v -1.23046 l 3.881836,-1.45752 h 0.212403 z"
       style="font-style:normal;font-variant:normal;font-weight:normal;font-stretch:normal;font-size:15.00000095px;line-height:1.25;font-family:Roboto;-inkscape-font-specification:Roboto;stroke-width:1.13385832;stroke-miterlimit:4;stroke-dasharray:none;paint-order:markers fill stroke"
       id="path145" />
  </g>
  <path
     style="fill:#d6d6d6;fill-opacity:1;stroke:#000000;stroke-width:1.13385832;stroke-miterlimit:4;stroke-dasharray:none;paint-order:markers fill stroke"
     d="m 69.51619,252.79982 h 19.994468 v 21.81215 H 69.51619 Z"
     id="rect4743" />
  <g
     aria-label="-5"
     style="font-style:normal;font-weight:normal;font-size:11.25px;line-height:0%;font-family:sans-serif;letter-spacing:0px;word-spacing:0px;fill:#000000;fill-opacity:1;stroke:none;stroke-width:1.13385832;stroke-miterlimit:4;stroke-dasharray:none;paint-order:markers fill stroke"
     id="text4747">
    <path
       d="m 77.24292,265.08652 h -3.574219 v -1.10596 h 3.574219 z"
       style="font-style:normal;font-variant:normal;font-weight:normal;font-stretch:normal;font-size:15.00000095px;line-height:1.25;font-family:Roboto;-inkscape-font-specification:Roboto;stroke-width:1.13385832;stroke-miterlimit:4;stroke-dasharray:none;paint-order:markers fill stroke"
       id="path149" />
    <path
       d="m 79.037354,263.71689 0.541992,-5.31739 h 5.463868 v 1.25245 h -4.313965 l -0.322266,2.90771 q 0.783692,-0.46142 1.779785,-0.46142 1.45752,0 2.314454,0.96679 0.856933,0.95948 0.856933,2.6001 0,1.64795 -0.893554,2.6001 -0.886231,0.94482 -2.482911,0.94482 -1.413574,0 -2.307129,-0.78369 -0.893555,-0.78369 -1.018066,-2.16797 h 1.281738 q 0.124512,0.91553 0.651856,1.38428 0.527343,0.46143 1.391601,0.46143 0.944824,0 1.479492,-0.64454 0.541993,-0.64453 0.541993,-1.77978 0,-1.06934 -0.585938,-1.71387 -0.578613,-0.65185 -1.54541,-0.65185 -0.886231,0 -1.391602,0.38818 l -0.358886,0.29297 z"
       style="font-style:normal;font-variant:normal;font-weight:normal;font-stretch:normal;font-size:15.00000095px;line-height:1.25;font-family:Roboto;-inkscape-font-specification:Roboto;stroke-width:1.13385832;stroke-miterlimit:4;stroke-dasharray:none;paint-order:markers fill stroke"
       id="path151" />
  </g>
  <g
     aria-label="a[[4]]"
     style="font-style:normal;font-weight:normal;font-size:11.25px;line-height:0%;font-family:sans-serif;letter-spacing:0px;word-spacing:0px;fill:#000000;fill-opacity:1;stroke:none;stroke-width:1.13385832;stroke-miterlimit:4;stroke-dasharray:none;paint-order:markers fill stroke"
     id="text4753">
    <path
       d="m 46.577012,233.11192 q -0.08057,-0.15381 -0.131836,-0.38086 -0.04395,-0.23437 -0.06592,-0.48339 -0.205079,0.20507 -0.461426,0.38818 -0.249024,0.1831 -0.556641,0.32226 -0.300293,0.13916 -0.644531,0.21973 -0.344238,0.0806 -0.732422,0.0806 -0.629883,0 -1.142578,-0.18311 -0.505371,-0.1831 -0.864258,-0.49072 -0.351563,-0.31494 -0.549317,-0.73975 -0.190429,-0.43213 -0.190429,-0.93017 0,-0.65186 0.256347,-1.14258 0.263672,-0.49072 0.739747,-0.81299 0.476074,-0.32959 1.142578,-0.49072 0.673828,-0.16113 1.501465,-0.16113 h 1.479492 v -0.62256 q 0,-0.35889 -0.131836,-0.64453 -0.131836,-0.28565 -0.373535,-0.4834 -0.241699,-0.20508 -0.593262,-0.31494 -0.344238,-0.10987 -0.776367,-0.10987 -0.402832,0 -0.725098,0.10254 -0.314941,0.10254 -0.534668,0.271 -0.219726,0.16845 -0.344238,0.40283 -0.117188,0.22705 -0.117188,0.47607 h -1.362304 q 0.0073,-0.43213 0.219726,-0.84961 0.219727,-0.41748 0.622559,-0.74707 0.410156,-0.33691 0.988769,-0.54199 0.585938,-0.20508 1.325684,-0.20508 0.673828,0 1.252442,0.16846 0.578613,0.16113 0.996093,0.49805 0.424805,0.32959 0.666504,0.82763 0.241699,0.49805 0.241699,1.16456 v 3.68408 q 0,0.39551 0.07324,0.84228 0.07324,0.43946 0.205078,0.76905 v 0.11718 z m -2.39502,-1.03271 q 0.395508,0 0.739746,-0.10254 0.344238,-0.10254 0.622559,-0.271 0.285644,-0.16845 0.490722,-0.38086 0.205078,-0.21972 0.322266,-0.4541 v -1.604 h -1.259766 q -1.186523,0 -1.845703,0.35156 -0.65918,0.35156 -0.65918,1.10596 0,0.29297 0.09522,0.54199 0.102539,0.24902 0.300293,0.43213 0.197754,0.17578 0.498047,0.27832 0.300293,0.10254 0.695801,0.10254 z"
       style="font-style:normal;font-variant:normal;font-weight:normal;font-stretch:normal;font-size:15.00000095px;line-height:1.25;font-family:'Roboto Mono';-inkscape-font-specification:'Roboto Mono';stroke-width:1.13385832;stroke-miterlimit:4;stroke-dasharray:none;paint-order:markers fill stroke"
       id="path154" />
    <path
       d="m 55.109727,222.0377 h -1.618652 v 12.2461 h 1.618652 v 1.11328 h -2.900391 v -14.47266 h 2.900391 z"
       style="font-style:normal;font-variant:normal;font-weight:normal;font-stretch:normal;font-size:15.00000095px;line-height:1.25;font-family:'Roboto Mono';-inkscape-font-specification:'Roboto Mono';stroke-width:1.13385832;stroke-miterlimit:4;stroke-dasharray:none;paint-order:markers fill stroke"
       id="path156" />
    <path
       d="m 64.103869,222.0377 h -1.618653 v 12.2461 h 1.618653 v 1.11328 h -2.900391 v -14.47266 h 2.900391 z"
       style="font-style:normal;font-variant:normal;font-weight:normal;font-stretch:normal;font-size:15.00000095px;line-height:1.25;font-family:'Roboto Mono';-inkscape-font-specification:'Roboto Mono';stroke-width:1.13385832;stroke-miterlimit:4;stroke-dasharray:none;paint-order:markers fill stroke"
       id="path158" />
    <path
       d="m 73.845082,229.53038 h 1.486816 v 1.10596 h -1.486816 v 2.47558 h -1.354981 v -2.47558 H 67.62682 V 229.838 l 4.775391,-7.39014 h 1.442871 z m -4.716797,0 h 3.361816 v -5.28076 l -0.219726,0.41015 z"
       style="font-style:normal;font-variant:normal;font-weight:normal;font-stretch:normal;font-size:15.00000095px;line-height:1.25;font-family:'Roboto Mono';-inkscape-font-specification:'Roboto Mono';stroke-width:1.13385832;stroke-miterlimit:4;stroke-dasharray:none;paint-order:markers fill stroke"
       id="path160" />
    <path
       d="m 79.037953,220.92442 h 2.907715 v 14.47266 h -2.907715 v -1.11328 h 1.625976 v -12.2461 h -1.625976 z"
       style="font-style:normal;font-variant:normal;font-weight:normal;font-stretch:normal;font-size:15.00000095px;line-height:1.25;font-family:'Roboto Mono';-inkscape-font-specification:'Roboto Mono';stroke-width:1.13385832;stroke-miterlimit:4;stroke-dasharray:none;paint-order:markers fill stroke"
       id="path162" />
    <path
       d="m 88.032093,220.92442 h 2.907715 v 14.47266 h -2.907715 v -1.11328 h 1.625977 v -12.2461 h -1.625977 z"
       style="font-style:normal;font-variant:normal;font-weight:normal;font-stretch:normal;font-size:15.00000095px;line-height:1.25;font-family:'Roboto Mono';-inkscape-font-specification:'Roboto Mono';stroke-width:1.13385832;stroke-miterlimit:4;stroke-dasharray:none;paint-order:markers fill stroke"
       id="path164" />
  </g>
  <path
     style="fill:#ebebeb;fill-opacity:1;stroke:#000000;stroke-width:1.13385832;stroke-miterlimit:4;stroke-dasharray:none;paint-order:markers fill stroke"
     d="m 170.46625,245.07137 h 47.81494 c 2.74226,0 4.94992,2.45582 4.94992,5.50632 v 26.25646 c 0,3.0505 -2.20766,5.50632 -4.94992,5.50632 h -47.81494 c -2.74226,0 -4.94992,-2.45582 -4.94992,-5.50632 v -26.25646 c 0,-3.0505 2.20766,-5.50632 4.94992,-5.50632 z"
     id="rect5266" />
  <path
     style="fill:#d6d6d6;fill-opacity:1;stroke:#000000;stroke-width:1.13385832;stroke-miterlimit:4;stroke-dasharray:none;paint-order:markers fill stroke"
     d="m 170.9518,252.79982 h 19.99447 v 21.81215 H 170.9518 Z"
     id="rect5268" />
  <g
     aria-label="-1"
     style="font-style:normal;font-weight:normal;font-size:11.25px;line-height:0%;font-family:sans-serif;letter-spacing:0px;word-spacing:0px;fill:#000000;fill-opacity:1;stroke:none;stroke-width:1.13385832;stroke-miterlimit:4;stroke-dasharray:none;paint-order:markers fill stroke"
     id="text5272">
    <path
       d="m 179.92365,265.08652 h -3.57422 v -1.10596 h 3.57422 z"
       style="font-style:normal;font-variant:normal;font-weight:normal;font-stretch:normal;font-size:15.00000095px;line-height:1.25;font-family:Roboto;-inkscape-font-specification:Roboto;stroke-width:1.13385832;stroke-miterlimit:4;stroke-dasharray:none;paint-order:markers fill stroke"
       id="path169" />
    <path
       d="m 185.54865,269.06357 h -1.36231 v -9.03076 l -2.73193,1.00341 v -1.23046 l 3.88183,-1.45752 h 0.21241 z"
       style="font-style:normal;font-variant:normal;font-weight:normal;font-stretch:normal;font-size:15.00000095px;line-height:1.25;font-family:Roboto;-inkscape-font-specification:Roboto;stroke-width:1.13385832;stroke-miterlimit:4;stroke-dasharray:none;paint-order:markers fill stroke"
       id="path171" />
  </g>
  <g
     aria-label="a[[4]][1]"
     style="font-style:normal;font-weight:normal;font-size:11.25px;line-height:0%;font-family:sans-serif;letter-spacing:0px;word-spacing:0px;fill:#000000;fill-opacity:1;stroke:none;stroke-width:1.13385832;stroke-miterlimit:4;stroke-dasharray:none;paint-order:markers fill stroke"
     id="text5284">
    <path
       d="m 161.37079,233.11192 q -0.0806,-0.15381 -0.13184,-0.38086 -0.0439,-0.23437 -0.0659,-0.48339 -0.20508,0.20507 -0.46143,0.38818 -0.24902,0.1831 -0.55664,0.32226 -0.30029,0.13916 -0.64453,0.21973 -0.34424,0.0806 -0.73242,0.0806 -0.62989,0 -1.14258,-0.18311 -0.50537,-0.1831 -0.86426,-0.49072 -0.35156,-0.31494 -0.54932,-0.73975 -0.19043,-0.43213 -0.19043,-0.93017 0,-0.65186 0.25635,-1.14258 0.26367,-0.49072 0.73975,-0.81299 0.47607,-0.32959 1.14258,-0.49072 0.67382,-0.16113 1.50146,-0.16113 h 1.47949 v -0.62256 q 0,-0.35889 -0.13183,-0.64453 -0.13184,-0.28565 -0.37354,-0.4834 -0.2417,-0.20508 -0.59326,-0.31494 -0.34424,-0.10987 -0.77637,-0.10987 -0.40283,0 -0.7251,0.10254 -0.31494,0.10254 -0.53466,0.271 -0.21973,0.16845 -0.34424,0.40283 -0.11719,0.22705 -0.11719,0.47607 h -1.3623 q 0.007,-0.43213 0.21972,-0.84961 0.21973,-0.41748 0.62256,-0.74707 0.41016,-0.33691 0.98877,-0.54199 0.58594,-0.20508 1.32568,-0.20508 0.67383,0 1.25245,0.16846 0.57861,0.16113 0.99609,0.49805 0.4248,0.32959 0.6665,0.82763 0.2417,0.49805 0.2417,1.16456 v 3.68408 q 0,0.39551 0.0732,0.84228 0.0732,0.43946 0.20507,0.76905 v 0.11718 z m -2.39502,-1.03271 q 0.39551,0 0.73975,-0.10254 0.34423,-0.10254 0.62255,-0.271 0.28565,-0.16845 0.49073,-0.38086 0.20507,-0.21972 0.32226,-0.4541 v -1.604 h -1.25976 q -1.18653,0 -1.84571,0.35156 -0.65918,0.35156 -0.65918,1.10596 0,0.29297 0.0952,0.54199 0.10254,0.24902 0.30029,0.43213 0.19776,0.17578 0.49805,0.27832 0.30029,0.10254 0.6958,0.10254 z"
       style="font-style:normal;font-variant:normal;font-weight:normal;font-stretch:normal;font-size:15.00000095px;line-height:1.25;font-family:'Roboto Mono';-inkscape-font-specification:'Roboto Mono';stroke-width:1.13385832;stroke-miterlimit:4;stroke-dasharray:none;paint-order:markers fill stroke"
       id="path174" />
    <path
       d="m 169.9035,222.0377 h -1.61865 v 12.2461 h 1.61865 v 1.11328 h -2.90039 v -14.47266 h 2.90039 z"
       style="font-style:normal;font-variant:normal;font-weight:normal;font-stretch:normal;font-size:15.00000095px;line-height:1.25;font-family:'Roboto Mono';-inkscape-font-specification:'Roboto Mono';stroke-width:1.13385832;stroke-miterlimit:4;stroke-dasharray:none;paint-order:markers fill stroke"
       id="path176" />
    <path
       d="m 178.89765,222.0377 h -1.61866 v 12.2461 h 1.61866 v 1.11328 h -2.90039 v -14.47266 h 2.90039 z"
       style="font-style:normal;font-variant:normal;font-weight:normal;font-stretch:normal;font-size:15.00000095px;line-height:1.25;font-family:'Roboto Mono';-inkscape-font-specification:'Roboto Mono';stroke-width:1.13385832;stroke-miterlimit:4;stroke-dasharray:none;paint-order:markers fill stroke"
       id="path178" />
    <path
       d="m 188.63886,229.53038 h 1.48682 v 1.10596 h -1.48682 v 2.47558 h -1.35498 v -2.47558 H 182.4206 V 229.838 l 4.77539,-7.39014 h 1.44287 z m -4.7168,0 h 3.36182 v -5.28076 l -0.21973,0.41015 z"
       style="font-style:normal;font-variant:normal;font-weight:normal;font-stretch:normal;font-size:15.00000095px;line-height:1.25;font-family:'Roboto Mono';-inkscape-font-specification:'Roboto Mono';stroke-width:1.13385832;stroke-miterlimit:4;stroke-dasharray:none;paint-order:markers fill stroke"
       id="path180" />
    <path
       d="m 193.83173,220.92442 h 2.90772 v 14.47266 h -2.90772 v -1.11328 h 1.62598 v -12.2461 h -1.62598 z"
       style="font-style:normal;font-variant:normal;font-weight:normal;font-stretch:normal;font-size:15.00000095px;line-height:1.25;font-family:'Roboto Mono';-inkscape-font-specification:'Roboto Mono';stroke-width:1.13385832;stroke-miterlimit:4;stroke-dasharray:none;paint-order:markers fill stroke"
       id="path182" />
    <path
       d="m 202.82587,220.92442 h 2.90772 v 14.47266 h -2.90772 v -1.11328 h 1.62598 v -12.2461 h -1.62598 z"
       style="font-style:normal;font-variant:normal;font-weight:normal;font-stretch:normal;font-size:15.00000095px;line-height:1.25;font-family:'Roboto Mono';-inkscape-font-specification:'Roboto Mono';stroke-width:1.13385832;stroke-miterlimit:4;stroke-dasharray:none;paint-order:markers fill stroke"
       id="path184" />
    <path
       d="m 214.87421,222.0377 h -1.61865 v 12.2461 h 1.61865 v 1.11328 h -2.90039 v -14.47266 h 2.90039 z"
       style="font-style:normal;font-variant:normal;font-weight:normal;font-stretch:normal;font-size:15.00000095px;line-height:1.25;font-family:'Roboto Mono';-inkscape-font-specification:'Roboto Mono';stroke-width:1.13385832;stroke-miterlimit:4;stroke-dasharray:none;paint-order:markers fill stroke"
       id="path186" />
    <path
       d="m 223.51679,233.11192 h -1.35498 v -8.93554 l -2.79053,1.06201 v -1.2378 l 4.03565,-1.55273 h 0.10986 z"
       style="font-style:normal;font-variant:normal;font-weight:normal;font-stretch:normal;font-size:15.00000095px;line-height:1.25;font-family:'Roboto Mono';-inkscape-font-specification:'Roboto Mono';stroke-width:1.13385832;stroke-miterlimit:4;stroke-dasharray:none;paint-order:markers fill stroke"
       id="path188" />
    <path
       d="m 229.8083,220.92442 h 2.90771 v 14.47266 h -2.90771 v -1.11328 h 1.62597 v -12.2461 h -1.62597 z"
       style="font-style:normal;font-variant:normal;font-weight:normal;font-stretch:normal;font-size:15.00000095px;line-height:1.25;font-family:'Roboto Mono';-inkscape-font-specification:'Roboto Mono';stroke-width:1.13385832;stroke-miterlimit:4;stroke-dasharray:none;paint-order:markers fill stroke"
       id="path190" />
  </g>
  <g
     aria-label="a[1:2]"
     style="font-style:normal;font-weight:normal;font-size:11.25px;line-height:0%;font-family:sans-serif;letter-spacing:0px;word-spacing:0px;fill:#000000;fill-opacity:1;stroke:none;stroke-width:1.13385832;stroke-miterlimit:4;stroke-dasharray:none;paint-order:markers fill stroke"
     id="text5076">
    <path
       d="m 174.86202,31.085138 q -0.0806,-0.153808 -0.13184,-0.380859 -0.0439,-0.234375 -0.0659,-0.483399 -0.20508,0.205079 -0.46142,0.388184 -0.24903,0.183106 -0.55665,0.322266 -0.30029,0.13916 -0.64453,0.219726 -0.34423,0.08057 -0.73242,0.08057 -0.62988,0 -1.14258,-0.183106 -0.50537,-0.183105 -0.86425,-0.490722 -0.35157,-0.314942 -0.54932,-0.739747 -0.19043,-0.432129 -0.19043,-0.930175 0,-0.651856 0.25635,-1.142579 0.26367,-0.490722 0.73974,-0.812988 0.47608,-0.32959 1.14258,-0.490723 0.67383,-0.161132 1.50147,-0.161132 h 1.47949 v -0.622559 q 0,-0.358887 -0.13184,-0.644531 -0.13183,-0.285645 -0.37353,-0.483399 -0.2417,-0.205078 -0.59326,-0.314941 -0.34424,-0.109864 -0.77637,-0.109864 -0.40283,0 -0.7251,0.102539 -0.31494,0.10254 -0.53467,0.270997 -0.21972,0.168457 -0.34424,0.402832 -0.11718,0.22705 -0.11718,0.476074 h -1.36231 q 0.007,-0.432129 0.21973,-0.84961 0.21973,-0.41748 0.62256,-0.74707 0.41015,-0.336914 0.98877,-0.541992 0.58593,-0.205078 1.32568,-0.205078 0.67383,0 1.25244,0.168457 0.57862,0.161133 0.9961,0.498047 0.4248,0.32959 0.6665,0.827636 0.2417,0.498047 0.2417,1.164551 v 3.684083 q 0,0.395507 0.0732,0.842285 0.0732,0.439453 0.20508,0.769043 v 0.117187 z M 172.467,30.052423 q 0.3955,0 0.73974,-0.102539 0.34424,-0.102539 0.62256,-0.270996 0.28564,-0.168457 0.49072,-0.380859 0.20508,-0.219727 0.32227,-0.454102 v -1.604004 h -1.25977 q -1.18652,0 -1.8457,0.351563 -0.65918,0.351562 -0.65918,1.105957 0,0.292969 0.0952,0.541992 0.10254,0.249024 0.3003,0.432129 0.19775,0.175781 0.49804,0.27832 0.3003,0.102539 0.69581,0.102539 z"
       style="font-style:normal;font-variant:normal;font-weight:normal;font-stretch:normal;font-size:15.00000095px;line-height:1.25;font-family:'Roboto Mono';-inkscape-font-specification:'Roboto Mono';stroke-width:1.13385832;stroke-miterlimit:4;stroke-dasharray:none;paint-order:markers fill stroke"
       id="path193" />
    <path
       d="m 183.39473,20.010919 h -1.61865 v 12.246094 h 1.61865 v 1.113282 h -2.90039 V 18.897638 h 2.90039 z"
       style="font-style:normal;font-variant:normal;font-weight:normal;font-stretch:normal;font-size:15.00000095px;line-height:1.25;font-family:'Roboto Mono';-inkscape-font-specification:'Roboto Mono';stroke-width:1.13385832;stroke-miterlimit:4;stroke-dasharray:none;paint-order:markers fill stroke"
       id="path195" />
    <path
       d="m 192.03731,31.085138 h -1.35498 v -8.935547 l -2.79053,1.062012 V 21.97381 l 4.03565,-1.552735 h 0.10986 z"
       style="font-style:normal;font-variant:normal;font-weight:normal;font-stretch:normal;font-size:15.00000095px;line-height:1.25;font-family:'Roboto Mono';-inkscape-font-specification:'Roboto Mono';stroke-width:1.13385832;stroke-miterlimit:4;stroke-dasharray:none;paint-order:markers fill stroke"
       id="path197" />
    <path
       d="m 199.36153,30.206232 q 0,-0.219727 0.0659,-0.410156 0.0732,-0.19043 0.20508,-0.32959 0.13183,-0.146485 0.32959,-0.227051 0.19775,-0.08057 0.46142,-0.08057 0.26367,0 0.46143,0.08057 0.20508,0.08057 0.33691,0.227051 0.13916,0.13916 0.20508,0.32959 0.0732,0.190429 0.0732,0.410156 0,0.212402 -0.0732,0.402832 -0.0659,0.183106 -0.20508,0.322266 -0.13183,0.13916 -0.33691,0.212402 -0.19776,0.08057 -0.46143,0.08057 -0.26367,0 -0.46142,-0.08057 -0.19776,-0.07324 -0.32959,-0.212402 -0.13184,-0.13916 -0.20508,-0.322266 -0.0659,-0.19043 -0.0659,-0.402832 z m 0,-6.416016 q 0,-0.219727 0.0659,-0.410156 0.0732,-0.19043 0.20508,-0.32959 0.13183,-0.146485 0.32959,-0.227051 0.19775,-0.08057 0.46142,-0.08057 0.26367,0 0.46143,0.08057 0.20508,0.08057 0.33691,0.227051 0.13916,0.13916 0.20508,0.32959 0.0732,0.190429 0.0732,0.410156 0,0.212402 -0.0732,0.402832 -0.0659,0.183106 -0.20508,0.322266 -0.13183,0.13916 -0.33691,0.219726 -0.19776,0.07324 -0.46143,0.07324 -0.26367,0 -0.46142,-0.07324 -0.19776,-0.08057 -0.32959,-0.219726 -0.13184,-0.13916 -0.20508,-0.322266 -0.0659,-0.19043 -0.0659,-0.402832 z"
       style="font-style:normal;font-variant:normal;font-weight:normal;font-stretch:normal;font-size:15.00000095px;line-height:1.25;font-family:'Roboto Mono';-inkscape-font-specification:'Roboto Mono';stroke-width:1.13385832;stroke-miterlimit:4;stroke-dasharray:none;paint-order:markers fill stroke"
       id="path199" />
    <path
       d="m 212.17159,31.085138 h -6.98731 v -0.974121 l 3.49366,-3.881836 q 0.46875,-0.52002 0.78369,-0.922852 0.31494,-0.402832 0.50537,-0.739746 0.19043,-0.344238 0.271,-0.644531 0.0806,-0.307617 0.0806,-0.629883 0,-0.395508 -0.13183,-0.739746 -0.12452,-0.351563 -0.37354,-0.60791 -0.2417,-0.256348 -0.59326,-0.402832 -0.34424,-0.153809 -0.78369,-0.153809 -0.53467,0 -0.93018,0.153809 -0.38818,0.153808 -0.65185,0.439453 -0.25635,0.27832 -0.38819,0.681152 -0.12451,0.402832 -0.12451,0.900879 h -1.3623 q 0,-0.673828 0.23437,-1.26709 0.23438,-0.600586 0.67383,-1.047363 0.44678,-0.446777 1.08398,-0.710449 0.64454,-0.263672 1.46485,-0.263672 0.75439,0 1.35498,0.227051 0.60791,0.219726 1.02539,0.615234 0.41748,0.395508 0.63721,0.9375 0.22705,0.541992 0.22705,1.179199 0,0.476075 -0.16114,0.944825 -0.16113,0.461425 -0.43945,0.915527 -0.271,0.454102 -0.63721,0.900879 -0.35888,0.439453 -0.76172,0.878906 l -2.86376,3.105469 h 5.354 z"
       style="font-style:normal;font-variant:normal;font-weight:normal;font-stretch:normal;font-size:15.00000095px;line-height:1.25;font-family:'Roboto Mono';-inkscape-font-specification:'Roboto Mono';stroke-width:1.13385832;stroke-miterlimit:4;stroke-dasharray:none;paint-order:markers fill stroke"
       id="path201" />
    <path
       d="m 216.3171,18.897638 h 2.90771 v 14.472657 h -2.90771 v -1.113282 h 1.62597 V 20.010919 h -1.62597 z"
       style="font-style:normal;font-variant:normal;font-weight:normal;font-stretch:normal;font-size:15.00000095px;line-height:1.25;font-family:'Roboto Mono';-inkscape-font-specification:'Roboto Mono';stroke-width:1.13385832;stroke-miterlimit:4;stroke-dasharray:none;paint-order:markers fill stroke"
       id="path203" />
  </g>
  <path
     style="fill:none;fill-opacity:1;stroke:#000000;stroke-width:1.13385832;stroke-miterlimit:4;stroke-dasharray:none;paint-order:markers fill stroke"
     d="m 153.00417,43.204834 h 82.73912 c 2.89645,0 5.22824,2.184173 5.22824,4.89725 V 179.02157 c 0,2.71308 -2.33179,4.89725 -5.22824,4.89725 h -82.73912 c -2.89645,0 -5.22825,-2.18417 -5.22825,-4.89725 V 48.102084 c 0,-2.713077 2.3318,-4.89725 5.22825,-4.89725 z"
     id="rect446" />
  <path
     style="fill:#ebebeb;fill-opacity:1;stroke:#000000;stroke-width:1.13385832;stroke-miterlimit:4;stroke-dasharray:none;paint-order:markers fill stroke"
     d="m 204.37096,52.151161 h 19.99447 v 21.812147 h -19.99447 z"
     id="rect448" />
  <g
     aria-label="3"
     style="font-style:normal;font-weight:normal;font-size:11.25px;line-height:0%;font-family:sans-serif;letter-spacing:0px;word-spacing:0px;fill:#000000;fill-opacity:1;stroke:none;stroke-width:1.13385832;stroke-miterlimit:4;stroke-dasharray:none;paint-order:markers fill stroke"
     id="text452">
    <path
       d="m 213.15604,62.423675 h 1.01806 q 0.95948,-0.01465 1.50879,-0.505371 0.54932,-0.490723 0.54932,-1.325684 0,-1.875 -1.86768,-1.875 -0.8789,0 -1.40625,0.505371 -0.52002,0.498047 -0.52002,1.325684 h -1.35498 q 0,-1.26709 0.92285,-2.102051 0.93018,-0.842285 2.3584,-0.842285 1.50879,0 2.36573,0.79834 0.85693,0.79834 0.85693,2.219238 0,0.695801 -0.4541,1.347657 -0.44678,0.651855 -1.22315,0.974121 0.87891,0.27832 1.35498,0.922851 0.4834,0.644532 0.4834,1.574707 0,1.435547 -0.9375,2.277833 -0.9375,0.842285 -2.43896,0.842285 -1.50147,0 -2.44629,-0.812988 -0.9375,-0.812989 -0.9375,-2.145997 h 1.3623 q 0,0.842286 0.54932,1.347657 0.54932,0.505371 1.47217,0.505371 0.98144,0 1.50146,-0.512696 0.52002,-0.512695 0.52002,-1.472168 0,-0.930175 -0.57129,-1.428222 -0.57129,-0.498047 -1.64795,-0.512696 h -1.01806 z"
       style="font-style:normal;font-variant:normal;font-weight:normal;font-stretch:normal;font-size:15.00000095px;line-height:1.25;font-family:Roboto;-inkscape-font-specification:Roboto;stroke-width:1.13385832;stroke-miterlimit:4;stroke-dasharray:none;paint-order:markers fill stroke"
       id="path208" />
  </g>
  <path
     style="fill:#ebebeb;fill-opacity:1;stroke:#000000;stroke-width:1.13385832;stroke-miterlimit:4;stroke-dasharray:none;paint-order:markers fill stroke"
     d="m 164.38202,52.151161 h 19.99447 v 21.812147 h -19.99447 z"
     id="rect454" />
  <g
     aria-label="1"
     style="font-style:normal;font-weight:normal;font-size:11.25px;line-height:0%;font-family:sans-serif;letter-spacing:0px;word-spacing:0px;fill:#000000;fill-opacity:1;stroke:none;stroke-width:1.13385832;stroke-miterlimit:4;stroke-dasharray:none;paint-order:markers fill stroke"
     id="text458">
    <path
       d="m 176.42638,68.414909 h -1.36231 v -9.030762 l -2.73193,1.003418 v -1.230469 l 3.88183,-1.457519 h 0.21241 z"
       style="font-style:normal;font-variant:normal;font-weight:normal;font-stretch:normal;font-size:15.00000095px;line-height:1.25;font-family:Roboto;-inkscape-font-specification:Roboto;stroke-width:1.13385832;stroke-miterlimit:4;stroke-dasharray:none;paint-order:markers fill stroke"
       id="path212" />
  </g>
  <path
     style="fill:#ebebeb;fill-opacity:1;stroke:#000000;stroke-width:1.13385832;stroke-miterlimit:4;stroke-dasharray:none;paint-order:markers fill stroke"
     d="m 184.3765,52.151161 h 19.99446 V 73.963308 H 184.3765 Z"
     id="rect460" />
  <g
     aria-label="2"
     style="font-style:normal;font-weight:normal;font-size:11.25px;line-height:0%;font-family:sans-serif;letter-spacing:0px;word-spacing:0px;fill:#000000;fill-opacity:1;stroke:none;stroke-width:1.13385832;stroke-miterlimit:4;stroke-dasharray:none;paint-order:markers fill stroke"
     id="text464">
    <path
       d="m 197.96991,68.414909 h -6.9873 v -0.974121 l 3.6914,-4.101563 q 0.82031,-0.930175 1.12793,-1.508789 0.31494,-0.585937 0.31494,-1.208496 0,-0.834961 -0.50537,-1.369629 -0.50537,-0.534668 -1.34765,-0.534668 -1.01075,0 -1.57471,0.578613 -0.55664,0.57129 -0.55664,1.59668 h -1.35498 q 0,-1.472168 0.94482,-2.380371 0.95215,-0.908203 2.54151,-0.908203 1.48681,0 2.35107,0.783691 0.86426,0.776367 0.86426,2.072754 0,1.574707 -2.00684,3.750001 l -2.85644,3.098144 h 5.354 z"
       style="font-style:normal;font-variant:normal;font-weight:normal;font-stretch:normal;font-size:15.00000095px;line-height:1.25;font-family:Roboto;-inkscape-font-specification:Roboto;stroke-width:1.13385832;stroke-miterlimit:4;stroke-dasharray:none;paint-order:markers fill stroke"
       id="path216" />
  </g>
  <path
     inkscape:connector-curvature="0"
     id="path468"
     d="m 159.14946,80.688855 v 21.781725 h 23.48208 23.48207 23.48438 V 80.688855 h -23.48438 -23.48207 z"
     style="fill:#ebebeb;fill-opacity:1;stroke:#000000;stroke-width:1.13385827;stroke-miterlimit:4;stroke-dasharray:none;paint-order:markers fill stroke" />
  <g
     aria-label="&quot;a string&quot;"
     style="font-style:normal;font-weight:normal;font-size:11.25px;line-height:0%;font-family:sans-serif;letter-spacing:0px;word-spacing:0px;fill:#000000;fill-opacity:1;stroke:none;stroke-width:1.13385832;stroke-miterlimit:4;stroke-dasharray:none;paint-order:markers fill stroke"
     id="text472">
    <path
       d="m 166.71381,85.063613 -0.21973,2.622071 h -0.81299 l 0.007,-3.618165 h 1.02539 z m 1.97754,0 -0.21973,2.622071 h -0.81299 l 0.007,-3.618165 h 1.0254 z"
       style="font-style:normal;font-variant:normal;font-weight:normal;font-stretch:normal;font-size:15.00000095px;line-height:1.25;font-family:Roboto;-inkscape-font-specification:Roboto;stroke-width:1.13385832;stroke-miterlimit:4;stroke-dasharray:none;paint-order:markers fill stroke"
       id="path219" />
    <path
       d="m 175.05609,95.31752 q -0.11719,-0.234375 -0.19043,-0.834961 -0.94482,0.981446 -2.25586,0.981446 -1.17187,0 -1.92627,-0.65918 -0.74707,-0.666504 -0.74707,-1.684571 0,-1.237793 0.9375,-1.918945 0.94483,-0.688477 2.65137,-0.688477 h 1.31836 v -0.622558 q 0,-0.71045 -0.4248,-1.12793 -0.42481,-0.424805 -1.25245,-0.424805 -0.72509,0 -1.21582,0.366211 -0.49072,0.366211 -0.49072,0.886231 h -1.3623 q 0,-0.593262 0.41748,-1.142578 0.4248,-0.556641 1.14257,-0.878907 0.7251,-0.322265 1.58936,-0.322265 1.36963,0 2.146,0.688476 0.77636,0.681153 0.80566,1.882325 v 3.647461 q 0,1.091308 0.27832,1.73584 v 0.117187 z m -2.24853,-1.032715 q 0.6372,0 1.20849,-0.32959 0.57129,-0.329589 0.82764,-0.856933 v -1.625977 h -1.06201 q -2.49024,0 -2.49024,1.45752 0,0.637207 0.42481,0.996093 0.4248,0.358887 1.09131,0.358887 z"
       style="font-style:normal;font-variant:normal;font-weight:normal;font-stretch:normal;font-size:15.00000095px;line-height:1.25;font-family:Roboto;-inkscape-font-specification:Roboto;stroke-width:1.13385832;stroke-miterlimit:4;stroke-dasharray:none;paint-order:markers fill stroke"
       id="path221" />
    <path
       d="m 186.6723,93.215469 q 0,-0.549316 -0.41748,-0.849609 -0.41015,-0.307617 -1.44287,-0.527344 -1.02539,-0.219727 -1.6333,-0.527344 -0.60058,-0.307617 -0.89355,-0.732422 -0.28565,-0.424804 -0.28565,-1.010742 0,-0.974121 0.82032,-1.647949 0.82763,-0.673828 2.10937,-0.673828 1.34766,0 2.18262,0.6958 0.84228,0.695801 0.84228,1.779786 h -1.3623 q 0,-0.556641 -0.47608,-0.959473 -0.46875,-0.402832 -1.18652,-0.402832 -0.73975,0 -1.15723,0.322266 -0.41748,0.322265 -0.41748,0.842285 0,0.490722 0.38819,0.739746 0.38818,0.249023 1.39892,0.476074 1.01807,0.227051 1.64795,0.541992 0.62988,0.314942 0.93018,0.761719 0.30762,0.439453 0.30762,1.07666 0,1.062012 -0.84961,1.706543 -0.84961,0.637208 -2.20459,0.637208 -0.95215,0 -1.68457,-0.336915 -0.73243,-0.336914 -1.14991,-0.9375 -0.41015,-0.60791 -0.41015,-1.311035 h 1.35498 q 0.0366,0.681153 0.54199,1.083985 0.51269,0.395507 1.34766,0.395507 0.76904,0 1.23046,-0.307617 0.46875,-0.314941 0.46875,-0.834961 z"
       style="font-style:normal;font-variant:normal;font-weight:normal;font-stretch:normal;font-size:15.00000095px;line-height:1.25;font-family:Roboto;-inkscape-font-specification:Roboto;stroke-width:1.13385832;stroke-miterlimit:4;stroke-dasharray:none;paint-order:markers fill stroke"
       id="path223" />
    <path
       d="m 191.6308,85.47377 v 1.918945 h 1.47949 v 1.047363 h -1.47949 v 4.914551 q 0,0.476075 0.19775,0.717774 0.19776,0.234375 0.67383,0.234375 0.23438,0 0.64453,-0.08789 v 1.098633 q -0.53466,0.146485 -1.04004,0.146485 -0.9082,0 -1.36962,-0.549317 -0.46143,-0.549316 -0.46143,-1.560059 v -4.914551 h -1.44287 v -1.047363 h 1.44287 V 85.47377 Z"
       style="font-style:normal;font-variant:normal;font-weight:normal;font-stretch:normal;font-size:15.00000095px;line-height:1.25;font-family:Roboto;-inkscape-font-specification:Roboto;stroke-width:1.13385832;stroke-miterlimit:4;stroke-dasharray:none;paint-order:markers fill stroke"
       id="path225" />
    <path
       d="m 198.51557,88.608535 q -0.30762,-0.05127 -0.66651,-0.05127 -1.33301,0 -1.80908,1.135254 v 5.625 H 194.685 v -7.924805 h 1.31836 l 0.022,0.915527 q 0.66651,-1.062011 1.88965,-1.062011 0.39551,0 0.60059,0.102539 z"
       style="font-style:normal;font-variant:normal;font-weight:normal;font-stretch:normal;font-size:15.00000095px;line-height:1.25;font-family:Roboto;-inkscape-font-specification:Roboto;stroke-width:1.13385832;stroke-miterlimit:4;stroke-dasharray:none;paint-order:markers fill stroke"
       id="path227" />
    <path
       d="m 201.22553,95.31752 h -1.35498 v -7.924805 h 1.35498 z m -1.46484,-10.026856 q 0,-0.32959 0.19775,-0.556641 0.20508,-0.22705 0.60058,-0.22705 0.39551,0 0.60059,0.22705 0.20508,0.227051 0.20508,0.556641 0,0.32959 -0.20508,0.549316 -0.20508,0.219727 -0.60059,0.219727 -0.3955,0 -0.60058,-0.219727 -0.19775,-0.219726 -0.19775,-0.549316 z"
       style="font-style:normal;font-variant:normal;font-weight:normal;font-stretch:normal;font-size:15.00000095px;line-height:1.25;font-family:Roboto;-inkscape-font-specification:Roboto;stroke-width:1.13385832;stroke-miterlimit:4;stroke-dasharray:none;paint-order:markers fill stroke"
       id="path229" />
    <path
       d="m 204.66791,87.392715 0.0439,0.996094 q 0.9082,-1.142578 2.37304,-1.142578 2.51221,0 2.53418,2.834472 v 5.236817 h -1.35498 v -5.244141 q -0.007,-0.856933 -0.3955,-1.26709 -0.38086,-0.410156 -1.19385,-0.410156 -0.65918,0 -1.15723,0.351563 -0.49805,0.351562 -0.77637,0.922851 v 5.646973 h -1.35498 v -7.924805 z"
       style="font-style:normal;font-variant:normal;font-weight:normal;font-stretch:normal;font-size:15.00000095px;line-height:1.25;font-family:Roboto;-inkscape-font-specification:Roboto;stroke-width:1.13385832;stroke-miterlimit:4;stroke-dasharray:none;paint-order:markers fill stroke"
       id="path231" />
    <path
       d="m 211.35492,91.2892 q 0,-1.853028 0.85694,-2.944337 0.85693,-1.098632 2.2705,-1.098632 1.4502,0 2.26319,1.02539 l 0.0659,-0.878906 h 1.23779 v 7.734375 q 0,1.538086 -0.91553,2.424317 -0.9082,0.886231 -2.44629,0.886231 -0.85693,0 -1.67724,-0.366211 -0.82032,-0.366211 -1.25244,-1.003418 l 0.70312,-0.812989 q 0.87158,1.07666 2.13135,1.07666 0.98877,0 1.53808,-0.55664 0.55664,-0.556641 0.55664,-1.567383 v -0.681153 q -0.81298,0.937501 -2.21923,0.937501 -1.39161,0 -2.25586,-1.120606 -0.85694,-1.120606 -0.85694,-3.054199 z m 1.36231,0.153808 q 0,1.340332 0.54931,2.109375 0.54932,0.761719 1.53809,0.761719 1.28174,0 1.88232,-1.164551 v -3.618164 q -0.62255,-1.135254 -1.86767,-1.135254 -0.98877,0 -1.54541,0.769043 -0.55664,0.769043 -0.55664,2.277832 z"
       style="font-style:normal;font-variant:normal;font-weight:normal;font-stretch:normal;font-size:15.00000095px;line-height:1.25;font-family:Roboto;-inkscape-font-specification:Roboto;stroke-width:1.13385832;stroke-miterlimit:4;stroke-dasharray:none;paint-order:markers fill stroke"
       id="path233" />
    <path
       d="m 221.08881,85.063613 -0.21973,2.622071 h -0.81298 l 0.007,-3.618165 h 1.02539 z m 1.97754,0 -0.21973,2.622071 h -0.81299 l 0.007,-3.618165 h 1.02539 z"
       style="font-style:normal;font-variant:normal;font-weight:normal;font-stretch:normal;font-size:15.00000095px;line-height:1.25;font-family:Roboto;-inkscape-font-specification:Roboto;stroke-width:1.13385832;stroke-miterlimit:4;stroke-dasharray:none;paint-order:markers fill stroke"
       id="path235" />
  </g>
  <path
     style="fill:#d6d6d6;fill-opacity:1;stroke:#000000;stroke-width:1.13385832;stroke-miterlimit:4;stroke-dasharray:none;paint-order:markers fill stroke"
     d="m 312.80682,252.79982 h 19.99447 v 21.81215 h -19.99447 z"
     id="rect5308" />
  <g
     aria-label="-1"
     style="font-style:normal;font-weight:normal;font-size:11.25px;line-height:0%;font-family:sans-serif;letter-spacing:0px;word-spacing:0px;fill:#000000;fill-opacity:1;stroke:none;stroke-width:1.13385832;stroke-miterlimit:4;stroke-dasharray:none;paint-order:markers fill stroke"
     id="text5312">
    <path
       d="m 321.77866,265.08652 h -3.57422 v -1.10596 h 3.57422 z"
       style="font-style:normal;font-variant:normal;font-weight:normal;font-stretch:normal;font-size:15.00000095px;line-height:1.25;font-family:Roboto;-inkscape-font-specification:Roboto;stroke-width:1.13385832;stroke-miterlimit:4;stroke-dasharray:none;paint-order:markers fill stroke"
       id="path239" />
    <path
       d="m 327.40366,269.06357 h -1.36231 v -9.03076 l -2.73193,1.00341 v -1.23046 l 3.88183,-1.45752 h 0.21241 z"
       style="font-style:normal;font-variant:normal;font-weight:normal;font-stretch:normal;font-size:15.00000095px;line-height:1.25;font-family:Roboto;-inkscape-font-specification:Roboto;stroke-width:1.13385832;stroke-miterlimit:4;stroke-dasharray:none;paint-order:markers fill stroke"
       id="path241" />
  </g>
  <g
     aria-label="a[[4]][[1]]"
     style="font-style:normal;font-weight:normal;font-size:11.25px;line-height:0%;font-family:sans-serif;letter-spacing:0px;word-spacing:0px;fill:#000000;fill-opacity:1;stroke:none;stroke-width:1.13385832;stroke-miterlimit:4;stroke-dasharray:none;paint-order:markers fill stroke"
     id="text5318">
    <path
       d="m 280.80698,233.11192 q -0.0806,-0.15381 -0.13184,-0.38086 -0.0439,-0.23437 -0.0659,-0.48339 -0.20508,0.20507 -0.46142,0.38818 -0.24903,0.1831 -0.55664,0.32226 -0.3003,0.13916 -0.64453,0.21973 -0.34424,0.0806 -0.73243,0.0806 -0.62988,0 -1.14258,-0.18311 -0.50537,-0.1831 -0.86425,-0.49072 -0.35157,-0.31494 -0.54932,-0.73975 -0.19043,-0.43213 -0.19043,-0.93017 0,-0.65186 0.25635,-1.14258 0.26367,-0.49072 0.73974,-0.81299 0.47608,-0.32959 1.14258,-0.49072 0.67383,-0.16113 1.50147,-0.16113 h 1.47949 v -0.62256 q 0,-0.35889 -0.13184,-0.64453 -0.13183,-0.28565 -0.37353,-0.4834 -0.2417,-0.20508 -0.59326,-0.31494 -0.34424,-0.10987 -0.77637,-0.10987 -0.40283,0 -0.7251,0.10254 -0.31494,0.10254 -0.53467,0.271 -0.21972,0.16845 -0.34423,0.40283 -0.11719,0.22705 -0.11719,0.47607 h -1.36231 q 0.007,-0.43213 0.21973,-0.84961 0.21973,-0.41748 0.62256,-0.74707 0.41016,-0.33691 0.98877,-0.54199 0.58594,-0.20508 1.32568,-0.20508 0.67383,0 1.25244,0.16846 0.57862,0.16113 0.9961,0.49805 0.4248,0.32959 0.6665,0.82763 0.2417,0.49805 0.2417,1.16456 v 3.68408 q 0,0.39551 0.0732,0.84228 0.0733,0.43946 0.20508,0.76905 v 0.11718 z m -2.39502,-1.03271 q 0.3955,0 0.73974,-0.10254 0.34424,-0.10254 0.62256,-0.271 0.28565,-0.16845 0.49072,-0.38086 0.20508,-0.21972 0.32227,-0.4541 v -1.604 h -1.25977 q -1.18652,0 -1.8457,0.35156 -0.65918,0.35156 -0.65918,1.10596 0,0.29297 0.0952,0.54199 0.10254,0.24902 0.30029,0.43213 0.19775,0.17578 0.49805,0.27832 0.30029,0.10254 0.6958,0.10254 z"
       style="font-style:normal;font-variant:normal;font-weight:normal;font-stretch:normal;font-size:15.00000095px;line-height:1.25;font-family:'Roboto Mono';-inkscape-font-specification:'Roboto Mono';stroke-width:1.13385832;stroke-miterlimit:4;stroke-dasharray:none;paint-order:markers fill stroke"
       id="path244" />
    <path
       d="m 289.33969,222.0377 h -1.61865 v 12.2461 h 1.61865 v 1.11328 h -2.90039 v -14.47266 h 2.90039 z"
       style="font-style:normal;font-variant:normal;font-weight:normal;font-stretch:normal;font-size:15.00000095px;line-height:1.25;font-family:'Roboto Mono';-inkscape-font-specification:'Roboto Mono';stroke-width:1.13385832;stroke-miterlimit:4;stroke-dasharray:none;paint-order:markers fill stroke"
       id="path246" />
    <path
       d="m 298.33383,222.0377 h -1.61865 v 12.2461 h 1.61865 v 1.11328 h -2.90039 v -14.47266 h 2.90039 z"
       style="font-style:normal;font-variant:normal;font-weight:normal;font-stretch:normal;font-size:15.00000095px;line-height:1.25;font-family:'Roboto Mono';-inkscape-font-specification:'Roboto Mono';stroke-width:1.13385832;stroke-miterlimit:4;stroke-dasharray:none;paint-order:markers fill stroke"
       id="path248" />
    <path
       d="m 308.07505,229.53038 h 1.48681 v 1.10596 h -1.48681 v 2.47558 h -1.35498 v -2.47558 h -4.86329 V 229.838 l 4.7754,-7.39014 h 1.44287 z m -4.7168,0 h 3.36182 v -5.28076 l -0.21973,0.41015 z"
       style="font-style:normal;font-variant:normal;font-weight:normal;font-stretch:normal;font-size:15.00000095px;line-height:1.25;font-family:'Roboto Mono';-inkscape-font-specification:'Roboto Mono';stroke-width:1.13385832;stroke-miterlimit:4;stroke-dasharray:none;paint-order:markers fill stroke"
       id="path250" />
    <path
       d="m 313.26792,220.92442 h 2.90771 v 14.47266 h -2.90771 v -1.11328 h 1.62597 v -12.2461 h -1.62597 z"
       style="font-style:normal;font-variant:normal;font-weight:normal;font-stretch:normal;font-size:15.00000095px;line-height:1.25;font-family:'Roboto Mono';-inkscape-font-specification:'Roboto Mono';stroke-width:1.13385832;stroke-miterlimit:4;stroke-dasharray:none;paint-order:markers fill stroke"
       id="path252" />
    <path
       d="m 322.26206,220.92442 h 2.90771 v 14.47266 h -2.90771 v -1.11328 h 1.62598 v -12.2461 h -1.62598 z"
       style="font-style:normal;font-variant:normal;font-weight:normal;font-stretch:normal;font-size:15.00000095px;line-height:1.25;font-family:'Roboto Mono';-inkscape-font-specification:'Roboto Mono';stroke-width:1.13385832;stroke-miterlimit:4;stroke-dasharray:none;paint-order:markers fill stroke"
       id="path254" />
    <path
       d="m 334.3104,222.0377 h -1.61865 v 12.2461 h 1.61865 v 1.11328 h -2.90039 v -14.47266 h 2.90039 z"
       style="font-style:normal;font-variant:normal;font-weight:normal;font-stretch:normal;font-size:15.00000095px;line-height:1.25;font-family:'Roboto Mono';-inkscape-font-specification:'Roboto Mono';stroke-width:1.13385832;stroke-miterlimit:4;stroke-dasharray:none;paint-order:markers fill stroke"
       id="path256" />
    <path
       d="m 343.30454,222.0377 h -1.61865 v 12.2461 h 1.61865 v 1.11328 h -2.90039 v -14.47266 h 2.90039 z"
       style="font-style:normal;font-variant:normal;font-weight:normal;font-stretch:normal;font-size:15.00000095px;line-height:1.25;font-family:'Roboto Mono';-inkscape-font-specification:'Roboto Mono';stroke-width:1.13385832;stroke-miterlimit:4;stroke-dasharray:none;paint-order:markers fill stroke"
       id="path258" />
    <path
       d="m 351.94712,233.11192 h -1.35498 v -8.93554 l -2.79053,1.06201 v -1.2378 l 4.03565,-1.55273 h 0.10986 z"
       style="font-style:normal;font-variant:normal;font-weight:normal;font-stretch:normal;font-size:15.00000095px;line-height:1.25;font-family:'Roboto Mono';-inkscape-font-specification:'Roboto Mono';stroke-width:1.13385832;stroke-miterlimit:4;stroke-dasharray:none;paint-order:markers fill stroke"
       id="path260" />
    <path
       d="m 358.23862,220.92442 h 2.90772 v 14.47266 h -2.90772 v -1.11328 h 1.62598 v -12.2461 h -1.62598 z"
       style="font-style:normal;font-variant:normal;font-weight:normal;font-stretch:normal;font-size:15.00000095px;line-height:1.25;font-family:'Roboto Mono';-inkscape-font-specification:'Roboto Mono';stroke-width:1.13385832;stroke-miterlimit:4;stroke-dasharray:none;paint-order:markers fill stroke"
       id="path262" />
    <path
       d="m 367.23277,220.92442 h 2.90771 v 14.47266 h -2.90771 v -1.11328 h 1.62597 v -12.2461 h -1.62597 z"
       style="font-style:normal;font-variant:normal;font-weight:normal;font-stretch:normal;font-size:15.00000095px;line-height:1.25;font-family:'Roboto Mono';-inkscape-font-specification:'Roboto Mono';stroke-width:1.13385832;stroke-miterlimit:4;stroke-dasharray:none;paint-order:markers fill stroke"
       id="path264" />
  </g>
  <g
     aria-label="a[4]"
     style="font-style:normal;font-weight:normal;font-size:11.25px;line-height:0%;font-family:sans-serif;letter-spacing:0px;word-spacing:0px;fill:#000000;fill-opacity:1;stroke:none;stroke-width:1.13385832;stroke-miterlimit:4;stroke-dasharray:none;paint-order:markers fill stroke"
     id="text5144">
    <path
       d="m 312.28647,31.085138 q -0.0806,-0.153808 -0.13184,-0.380859 -0.0439,-0.234375 -0.0659,-0.483399 -0.20507,0.205079 -0.46142,0.388184 -0.24902,0.183106 -0.55664,0.322266 -0.30029,0.13916 -0.64453,0.219726 -0.34424,0.08057 -0.73242,0.08057 -0.62989,0 -1.14258,-0.183106 -0.50537,-0.183105 -0.86426,-0.490722 -0.35156,-0.314942 -0.54932,-0.739747 -0.19043,-0.432129 -0.19043,-0.930175 0,-0.651856 0.25635,-1.142579 0.26367,-0.490722 0.73975,-0.812988 0.47607,-0.32959 1.14258,-0.490723 0.67382,-0.161132 1.50146,-0.161132 h 1.47949 v -0.622559 q 0,-0.358887 -0.13183,-0.644531 -0.13184,-0.285645 -0.37354,-0.483399 -0.2417,-0.205078 -0.59326,-0.314941 -0.34424,-0.109864 -0.77637,-0.109864 -0.40283,0 -0.7251,0.102539 -0.31494,0.10254 -0.53466,0.270997 -0.21973,0.168457 -0.34424,0.402832 -0.11719,0.22705 -0.11719,0.476074 h -1.3623 q 0.007,-0.432129 0.21972,-0.84961 0.21973,-0.41748 0.62256,-0.74707 0.41016,-0.336914 0.98877,-0.541992 0.58594,-0.205078 1.32568,-0.205078 0.67383,0 1.25245,0.168457 0.57861,0.161133 0.99609,0.498047 0.4248,0.32959 0.6665,0.827636 0.2417,0.498047 0.2417,1.164551 v 3.684083 q 0,0.395507 0.0733,0.842285 0.0732,0.439453 0.20507,0.769043 v 0.117187 z m -2.39502,-1.032715 q 0.39551,0 0.73975,-0.102539 0.34423,-0.102539 0.62255,-0.270996 0.28565,-0.168457 0.49073,-0.380859 0.20507,-0.219727 0.32226,-0.454102 v -1.604004 h -1.25976 q -1.18653,0 -1.84571,0.351563 -0.65918,0.351562 -0.65918,1.105957 0,0.292969 0.0952,0.541992 0.10254,0.249024 0.30029,0.432129 0.19776,0.175781 0.49805,0.27832 0.30029,0.102539 0.6958,0.102539 z"
       style="font-style:normal;font-variant:normal;font-weight:normal;font-stretch:normal;font-size:15.00000095px;line-height:1.25;font-family:'Roboto Mono';-inkscape-font-specification:'Roboto Mono';stroke-width:1.13385832;stroke-miterlimit:4;stroke-dasharray:none;paint-order:markers fill stroke"
       id="path267" />
    <path
       d="m 320.81918,20.010919 h -1.61865 v 12.246094 h 1.61865 v 1.113282 h -2.90039 V 18.897638 h 2.90039 z"
       style="font-style:normal;font-variant:normal;font-weight:normal;font-stretch:normal;font-size:15.00000095px;line-height:1.25;font-family:'Roboto Mono';-inkscape-font-specification:'Roboto Mono';stroke-width:1.13385832;stroke-miterlimit:4;stroke-dasharray:none;paint-order:markers fill stroke"
       id="path269" />
    <path
       d="m 330.5604,27.503595 h 1.48681 v 1.105957 h -1.48681 v 2.475586 h -1.35498 v -2.475586 h -4.86329 v -0.79834 l 4.7754,-7.390137 h 1.44287 z m -4.7168,0 h 3.36182 v -5.280762 l -0.21973,0.410156 z"
       style="font-style:normal;font-variant:normal;font-weight:normal;font-stretch:normal;font-size:15.00000095px;line-height:1.25;font-family:'Roboto Mono';-inkscape-font-specification:'Roboto Mono';stroke-width:1.13385832;stroke-miterlimit:4;stroke-dasharray:none;paint-order:markers fill stroke"
       id="path271" />
    <path
       d="m 335.75327,18.897638 h 2.90771 v 14.472657 h -2.90771 v -1.113282 h 1.62598 V 20.010919 h -1.62598 z"
       style="font-style:normal;font-variant:normal;font-weight:normal;font-stretch:normal;font-size:15.00000095px;line-height:1.25;font-family:'Roboto Mono';-inkscape-font-specification:'Roboto Mono';stroke-width:1.13385832;stroke-miterlimit:4;stroke-dasharray:none;paint-order:markers fill stroke"
       id="path273" />
  </g>
  <path
     style="fill:none;fill-opacity:1;stroke:#000000;stroke-width:1.13385832;stroke-miterlimit:4;stroke-dasharray:none;paint-order:markers fill stroke"
     d="m 281.43449,43.204834 h 82.73911 c 2.89645,0 5.22825,2.184173 5.22825,4.89725 V 179.02157 c 0,2.71308 -2.3318,4.89725 -5.22825,4.89725 h -82.73911 c -2.89645,0 -5.22825,-2.18417 -5.22825,-4.89725 V 48.102084 c 0,-2.713077 2.3318,-4.89725 5.22825,-4.89725 z"
     id="rect502" />
  <path
     style="fill:#ebebeb;fill-opacity:1;stroke:#000000;stroke-width:1.13385832;stroke-miterlimit:4;stroke-dasharray:none;paint-order:markers fill stroke"
     d="m 298.89658,137.70338 h 47.81493 c 2.74226,0 4.94993,2.45583 4.94993,5.50633 v 26.25646 c 0,3.0505 -2.20767,5.50632 -4.94993,5.50632 h -47.81493 c -2.74226,0 -4.94992,-2.45582 -4.94992,-5.50632 v -26.25646 c 0,-3.0505 2.20766,-5.50633 4.94992,-5.50633 z"
     id="rect540" />
  <path
     style="fill:#d6d6d6;fill-opacity:1;stroke:#000000;stroke-width:1.13385832;stroke-miterlimit:4;stroke-dasharray:none;paint-order:markers fill stroke"
     d="m 299.38211,145.43184 h 19.99447 v 21.81215 h -19.99447 z"
     id="rect542" />
  <g
     aria-label="-1"
     style="font-style:normal;font-weight:normal;font-size:11.25px;line-height:0%;font-family:sans-serif;letter-spacing:0px;word-spacing:0px;fill:#000000;fill-opacity:1;stroke:none;stroke-width:1.13385832;stroke-miterlimit:4;stroke-dasharray:none;paint-order:markers fill stroke"
     id="text546">
    <path
       d="m 308.35397,157.71855 h -3.57422 v -1.10596 h 3.57422 z"
       style="font-style:normal;font-variant:normal;font-weight:normal;font-stretch:normal;font-size:15.00000095px;line-height:1.25;font-family:Roboto;-inkscape-font-specification:Roboto;stroke-width:1.13385832;stroke-miterlimit:4;stroke-dasharray:none;paint-order:markers fill stroke"
       id="path279" />
    <path
       d="m 313.97897,161.6956 h -1.3623 v -9.03076 l -2.73193,1.00342 v -1.23047 l 3.88183,-1.45752 h 0.2124 z"
       style="font-style:normal;font-variant:normal;font-weight:normal;font-stretch:normal;font-size:15.00000095px;line-height:1.25;font-family:Roboto;-inkscape-font-specification:Roboto;stroke-width:1.13385832;stroke-miterlimit:4;stroke-dasharray:none;paint-order:markers fill stroke"
       id="path281" />
  </g>
  <path
     style="fill:#d6d6d6;fill-opacity:1;stroke:#000000;stroke-width:1.13385832;stroke-miterlimit:4;stroke-dasharray:none;paint-order:markers fill stroke"
     d="m 326.23151,145.43184 h 19.99447 v 21.81215 h -19.99447 z"
     id="rect548" />
  <g
     aria-label="-5"
     style="font-style:normal;font-weight:normal;font-size:11.25px;line-height:0%;font-family:sans-serif;letter-spacing:0px;word-spacing:0px;fill:#000000;fill-opacity:1;stroke:none;stroke-width:1.13385832;stroke-miterlimit:4;stroke-dasharray:none;paint-order:markers fill stroke"
     id="text552">
    <path
       d="M 333.95822,157.71855 H 330.384 v -1.10596 h 3.57422 z"
       style="font-style:normal;font-variant:normal;font-weight:normal;font-stretch:normal;font-size:15.00000095px;line-height:1.25;font-family:Roboto;-inkscape-font-specification:Roboto;stroke-width:1.13385832;stroke-miterlimit:4;stroke-dasharray:none;paint-order:markers fill stroke"
       id="path285" />
    <path
       d="m 335.75266,156.34892 0.54199,-5.31738 h 5.46387 v 1.25244 h -4.31397 l -0.32227,2.90772 q 0.7837,-0.46143 1.77979,-0.46143 1.45752,0 2.31445,0.9668 0.85694,0.95947 0.85694,2.60009 0,1.64795 -0.89356,2.6001 -0.88623,0.94483 -2.48291,0.94483 -1.41357,0 -2.30713,-0.78369 -0.89355,-0.7837 -1.01806,-2.16797 h 1.28173 q 0.12452,0.91552 0.65186,1.38427 0.52734,0.46143 1.3916,0.46143 0.94483,0 1.47949,-0.64453 0.542,-0.64453 0.542,-1.77979 0,-1.06933 -0.58594,-1.71386 -0.57861,-0.65186 -1.54541,-0.65186 -0.88623,0 -1.3916,0.38818 l -0.35889,0.29297 z"
       style="font-style:normal;font-variant:normal;font-weight:normal;font-stretch:normal;font-size:15.00000095px;line-height:1.25;font-family:Roboto;-inkscape-font-specification:Roboto;stroke-width:1.13385832;stroke-miterlimit:4;stroke-dasharray:none;paint-order:markers fill stroke"
       id="path287" />
  </g>
</svg>
