<?xml version="1.0" encoding="UTF-8" standalone="no"?>
<!-- Created with Inkscape (http://www.inkscape.org/) -->

<svg
   xmlns:dc="http://purl.org/dc/elements/1.1/"
   xmlns:cc="http://creativecommons.org/ns#"
   xmlns:rdf="http://www.w3.org/1999/02/22-rdf-syntax-ns#"
   xmlns:svg="http://www.w3.org/2000/svg"
   xmlns="http://www.w3.org/2000/svg"
   xmlns:sodipodi="http://sodipodi.sourceforge.net/DTD/sodipodi-0.dtd"
   xmlns:inkscape="http://www.inkscape.org/namespaces/inkscape"
   version="1.1"
   id="svg2"
   width="114.88605mm"
   height="45.355293mm"
   viewBox="0 0 434.21498 171.42159"
   sodipodi:docname="lists-map2-otp.svg"
   inkscape:version="0.92.3 (2405546, 2018-03-11)">
  <metadata
     id="metadata8">
    <rdf:RDF>
      <cc:Work
         rdf:about="">
        <dc:format>image/svg+xml</dc:format>
        <dc:type
           rdf:resource="http://purl.org/dc/dcmitype/StillImage" />
        <dc:title></dc:title>
      </cc:Work>
    </rdf:RDF>
  </metadata>
  <defs
     id="defs6" />
  <sodipodi:namedview
     pagecolor="#ffffff"
     bordercolor="#666666"
     borderopacity="1"
     objecttolerance="10"
     gridtolerance="10"
     guidetolerance="10"
     inkscape:pageopacity="0"
     inkscape:pageshadow="2"
     inkscape:window-width="1600"
     inkscape:window-height="832"
     id="namedview4"
     showgrid="false"
     inkscape:zoom="2.5788382"
     inkscape:cx="199.8387"
     inkscape:cy="151.61319"
     inkscape:window-x="0"
     inkscape:window-y="32"
     inkscape:window-maximized="1"
     inkscape:current-layer="svg2"
     units="mm"
     fit-margin-top="5"
     fit-margin-left="5"
     fit-margin-bottom="5"
     fit-margin-right="5"
     showguides="true"
     inkscape:guide-bbox="true">
    <sodipodi:guide
       position="661.58408,414.40145"
       orientation="1,0"
       id="guide1882"
       inkscape:locked="false" />
    <sodipodi:guide
       position="299.98251,56.018466"
       orientation="1,0"
       id="guide2525"
       inkscape:locked="false" />
  </sodipodi:namedview>
  <g
     id="g122"
     transform="translate(-64.134947,-357.63932)">
    <g
       aria-label="mu"
       style="font-style:normal;font-weight:normal;font-size:40px;line-height:1.25;font-family:sans-serif;letter-spacing:0px;word-spacing:0px;fill:#000000;fill-opacity:1;stroke:none;stroke-width:1.13385832;stroke-miterlimit:4;stroke-dasharray:none;paint-order:markers fill stroke"
       id="text887-0">
      <path
         d="m 96.083794,380.91977 0.03906,0.79687 q 0.257813,-0.44531 0.671875,-0.69531 0.421875,-0.25 1.015625,-0.25781 1.164063,0 1.554688,0.90625 0.25,-0.40625 0.656246,-0.64844 0.41407,-0.25 1,-0.25781 0.92969,0 1.42969,0.57031 0.5,0.57031 0.5,1.72656 v 6.3125 h -1.375 v -6.32812 q 0,-1.0625 -0.97656,-1.05469 -0.25781,0 -0.44531,0.0703 -0.187504,0.0703 -0.312504,0.19532 -0.125,0.11718 -0.195312,0.28125 -0.07031,0.15625 -0.09375,0.32812 v 6.50781 h -1.375 v -6.33593 q 0,-0.50782 -0.226563,-0.78125 -0.226562,-0.27344 -0.71875,-0.26563 -0.453125,0 -0.703125,0.17969 -0.25,0.17969 -0.367187,0.47656 v 6.72656 h -1.375 v -8.45312 z"
         style="font-style:normal;font-variant:normal;font-weight:normal;font-stretch:normal;font-size:16px;font-family:'Roboto Mono';-inkscape-font-specification:'Roboto Mono';stroke-width:1.13385832;stroke-miterlimit:4;stroke-dasharray:none;paint-order:markers fill stroke"
         id="path47" />
      <path
         d="m 110.49786,388.20883 q -0.42188,0.625 -1.05469,0.97656 -0.63281,0.34375 -1.46094,0.34375 -0.66406,0 -1.20312,-0.20312 -0.53907,-0.21094 -0.92188,-0.64844 -0.38281,-0.4375 -0.59375,-1.10937 -0.20312,-0.67969 -0.20312,-1.625 v -5.02344 h 1.44531 v 5.03906 q 0,0.6875 0.10937,1.14063 0.10938,0.45312 0.32813,0.72656 0.21875,0.26562 0.53125,0.375 0.32031,0.10937 0.73437,0.10937 0.88282,0 1.42188,-0.35937 0.54687,-0.35938 0.8125,-0.96875 v -6.0625 h 1.45312 v 8.45312 h -1.3125 z"
         style="font-style:normal;font-variant:normal;font-weight:normal;font-stretch:normal;font-size:16px;font-family:'Roboto Mono';-inkscape-font-specification:'Roboto Mono';stroke-width:1.13385832;stroke-miterlimit:4;stroke-dasharray:none;paint-order:markers fill stroke"
         id="path49" />
    </g>
    <path
       transform="rotate(90)"
       style="fill:#ebebeb;fill-opacity:1;stroke:#000000;stroke-width:1.13385832;stroke-miterlimit:4;stroke-dasharray:none;paint-order:markers fill stroke"
       d="m 412.92883,-114.97476 h 21.32744 v 23.266289 h -21.32744 z"
       id="rect859" />
    <g
       aria-label="5"
       style="font-style:normal;font-weight:normal;font-size:40px;line-height:1.25;font-family:sans-serif;letter-spacing:0px;word-spacing:0px;fill:#000000;fill-opacity:1;stroke:none;stroke-width:1.13385832;stroke-miterlimit:4;stroke-dasharray:none;paint-order:markers fill stroke"
       id="text863">
      <path
         d="m 100.17365,423.49878 0.57812,-5.67188 h 5.82813 v 1.33594 h -4.60157 l -0.34375,3.10156 q 0.83594,-0.49218 1.89844,-0.49218 1.55469,0 2.46875,1.03125 0.91406,1.02343 0.91406,2.77343 0,1.75782 -0.95312,2.77344 -0.94531,1.00781 -2.64844,1.00781 -1.50781,0 -2.46094,-0.83593 -0.953122,-0.83594 -1.085935,-2.3125 h 1.367185 q 0.13282,0.97656 0.69532,1.47656 0.5625,0.49219 1.48437,0.49219 1.00781,0 1.57813,-0.6875 0.57812,-0.6875 0.57812,-1.89844 0,-1.14063 -0.625,-1.82813 -0.61719,-0.69531 -1.64844,-0.69531 -0.94531,0 -1.48437,0.41406 l -0.38281,0.3125 z"
         style="font-style:normal;font-variant:normal;font-weight:normal;font-stretch:normal;font-size:16px;font-family:Roboto;-inkscape-font-specification:Roboto;stroke-width:1.13385832;stroke-miterlimit:4;stroke-dasharray:none;paint-order:markers fill stroke"
         id="path53" />
    </g>
    <path
       transform="rotate(90)"
       style="fill:#ebebeb;fill-opacity:1;stroke:#000000;stroke-width:1.13385832;stroke-miterlimit:4;stroke-dasharray:none;paint-order:markers fill stroke"
       d="m 444.91998,-114.97476 h 21.32744 v 23.266289 h -21.32744 z"
       id="rect871" />
    <g
       aria-label="10"
       style="font-style:normal;font-weight:normal;font-size:40px;line-height:1.25;font-family:sans-serif;letter-spacing:0px;word-spacing:0px;fill:#000000;fill-opacity:1;stroke:none;stroke-width:1.13385832;stroke-miterlimit:4;stroke-dasharray:none;paint-order:markers fill stroke"
       id="text875">
      <path
         d="m 99.833801,461.27118 h -1.453125 v -9.63281 l -2.914062,1.07031 v -1.3125 l 4.140625,-1.55469 h 0.226562 z"
         style="font-style:normal;font-variant:normal;font-weight:normal;font-stretch:normal;font-size:16px;font-family:Roboto;-inkscape-font-specification:Roboto;stroke-width:1.13385832;stroke-miterlimit:4;stroke-dasharray:none;paint-order:markers fill stroke"
         id="path57" />
      <path
         d="m 111.21661,456.41962 q 0,2.53906 -0.86718,3.77343 -0.86719,1.23438 -2.71094,1.23438 -1.82031,0 -2.69531,-1.20313 -0.875,-1.21093 -0.90625,-3.60937 v -1.92969 q 0,-2.50781 0.86718,-3.72656 0.86719,-1.21875 2.71875,-1.21875 1.83594,0 2.70313,1.17969 0.86719,1.17187 0.89062,3.625 z m -1.44531,-1.97657 q 0,-1.83593 -0.51562,-2.67187 -0.51563,-0.84375 -1.63282,-0.84375 -1.10937,0 -1.61718,0.83594 -0.50782,0.83593 -0.52344,2.57031 v 2.3125 q 0,1.84375 0.53125,2.72656 0.53906,0.875 1.625,0.875 1.07031,0 1.58594,-0.82812 0.52343,-0.82813 0.54687,-2.60938 z"
         style="font-style:normal;font-variant:normal;font-weight:normal;font-stretch:normal;font-size:16px;font-family:Roboto;-inkscape-font-specification:Roboto;stroke-width:1.13385832;stroke-miterlimit:4;stroke-dasharray:none;paint-order:markers fill stroke"
         id="path59" />
    </g>
    <path
       transform="rotate(90)"
       style="fill:#ebebeb;fill-opacity:1;stroke:#000000;stroke-width:1.13385832;stroke-miterlimit:4;stroke-dasharray:none;paint-order:markers fill stroke"
       d="m 476.91113,-114.97477 h 21.32744 v 23.266291 h -21.32744 z"
       id="rect877" />
    <g
       aria-label="-3"
       style="font-style:normal;font-weight:normal;font-size:40px;line-height:1.25;font-family:sans-serif;letter-spacing:0px;word-spacing:0px;fill:#000000;fill-opacity:1;stroke:none;stroke-width:1.13385832;stroke-miterlimit:4;stroke-dasharray:none;paint-order:markers fill stroke"
       id="text881">
      <path
         d="m 101.12287,489.02017 h -3.812499 v -1.17969 h 3.812499 z"
         style="font-style:normal;font-variant:normal;font-weight:normal;font-stretch:normal;font-size:16px;font-family:Roboto;-inkscape-font-specification:Roboto;stroke-width:1.13385832;stroke-miterlimit:4;stroke-dasharray:none;paint-order:markers fill stroke"
         id="path63" />
      <path
         d="m 104.47443,486.87173 h 1.08594 q 1.02344,-0.0156 1.60938,-0.53906 0.58593,-0.52344 0.58593,-1.41406 0,-2 -1.99218,-2 -0.9375,0 -1.5,0.53906 -0.55469,0.53125 -0.55469,1.41406 h -1.44531 q 0,-1.35156 0.98437,-2.24218 0.99219,-0.89844 2.51563,-0.89844 1.60937,0 2.52343,0.85156 0.91407,0.85156 0.91407,2.36719 0,0.74219 -0.48438,1.4375 -0.47656,0.69531 -1.30469,1.03906 0.9375,0.29688 1.44532,0.98438 0.51562,0.6875 0.51562,1.67968 0,1.53125 -1,2.42969 -1,0.89844 -2.60156,0.89844 -1.60156,0 -2.60938,-0.86719 -1,-0.86719 -1,-2.28906 h 1.45313 q 0,0.89844 0.58594,1.4375 0.58593,0.53906 1.57031,0.53906 1.04687,0 1.60156,-0.54687 0.55469,-0.54688 0.55469,-1.57032 0,-0.99218 -0.60938,-1.52343 -0.60937,-0.53125 -1.75781,-0.54688 h -1.08594 z"
         style="font-style:normal;font-variant:normal;font-weight:normal;font-stretch:normal;font-size:16px;font-family:Roboto;-inkscape-font-specification:Roboto;stroke-width:1.13385832;stroke-miterlimit:4;stroke-dasharray:none;paint-order:markers fill stroke"
         id="path65" />
    </g>
    <path
       transform="rotate(90)"
       style="fill:none;fill-opacity:1;stroke:#000000;stroke-width:1.13385832;stroke-miterlimit:4;stroke-dasharray:none;paint-order:markers fill stroke"
       d="m 408.45435,-123.08372 h 94.25868 c 3.81335,0 6.88331,3.03122 6.88331,6.79645 v 25.891305 c 0,3.765234 -3.06996,6.796451 -6.88331,6.796451 h -94.25868 c -3.81335,0 -6.88331,-3.031217 -6.88331,-6.796451 v -25.891305 c 0,-3.76523 3.06996,-6.79645 6.88331,-6.79645 z"
       id="rect889" />
  </g>
  <g
     id="g136"
     transform="translate(-64.530974,-357.63932)">
    <g
       aria-label="sigma"
       style="font-style:normal;font-weight:normal;font-size:40px;line-height:1.25;font-family:sans-serif;letter-spacing:0px;word-spacing:0px;fill:#000000;fill-opacity:1;stroke:none;stroke-width:1.13385832;stroke-miterlimit:4;stroke-dasharray:none;paint-order:markers fill stroke"
       id="text2409">
      <path
         d="m 147.5764,387.13071 q 0,-0.25782 -0.10156,-0.46094 -0.10156,-0.21094 -0.34375,-0.38281 -0.24219,-0.17188 -0.64063,-0.3125 -0.39843,-0.14844 -0.99218,-0.26563 -0.72657,-0.14844 -1.32813,-0.35937 -0.59375,-0.21094 -1.02344,-0.5 -0.42187,-0.29688 -0.65625,-0.6875 -0.23437,-0.39844 -0.23437,-0.92188 0,-0.51562 0.24219,-0.96094 0.24218,-0.45312 0.67968,-0.78906 0.4375,-0.33594 1.03907,-0.53125 0.60937,-0.19531 1.33593,-0.19531 0.78125,0 1.40625,0.20312 0.625,0.20313 1.0625,0.5625 0.4375,0.35938 0.67188,0.84375 0.24219,0.47657 0.24219,1.03125 h -1.44532 q 0,-0.27343 -0.14062,-0.53125 -0.14063,-0.26562 -0.39063,-0.46875 -0.25,-0.20312 -0.60937,-0.32812 -0.35156,-0.125 -0.79688,-0.125 -0.46093,0 -0.8125,0.10156 -0.34375,0.10156 -0.57812,0.27344 -0.22656,0.17187 -0.34375,0.39844 -0.11719,0.22656 -0.11719,0.46875 0,0.25 0.0937,0.44531 0.0937,0.19531 0.32031,0.35156 0.23438,0.15625 0.61719,0.28125 0.39063,0.125 0.98438,0.24219 0.78125,0.16406 1.39843,0.38281 0.61719,0.21094 1.03907,0.51563 0.42187,0.29687 0.64062,0.69531 0.22656,0.39844 0.22656,0.92187 0,0.5625 -0.25781,1.02344 -0.25,0.46094 -0.70312,0.78906 -0.45313,0.32813 -1.08594,0.50782 -0.63281,0.17968 -1.38281,0.17968 -0.85938,0 -1.53125,-0.22656 -0.67188,-0.23437 -1.14063,-0.60937 -0.46094,-0.38282 -0.71094,-0.88282 -0.24218,-0.5 -0.24218,-1.03906 h 1.44531 q 0.0312,0.44531 0.23437,0.75 0.21094,0.30469 0.51563,0.49219 0.3125,0.1875 0.6875,0.26562 0.375,0.0781 0.74219,0.0781 0.91406,0 1.44531,-0.33594 0.53125,-0.33594 0.53906,-0.89062 z"
         style="font-style:normal;font-variant:normal;font-weight:normal;font-stretch:normal;font-size:16px;font-family:'Roboto Mono';-inkscape-font-specification:'Roboto Mono';stroke-width:1.13385832;stroke-miterlimit:4;stroke-dasharray:none;paint-order:markers fill stroke"
         id="path69" />
      <path
         d="m 151.77953,380.91977 h 4.32031 v 7.20312 h 2.75781 v 1.25 h -7.07812 v -1.25 h 2.875 v -5.94531 h -2.875 z m 2.6875,-2.21875 q 0,-0.35938 0.21093,-0.60156 0.21875,-0.25 0.65625,-0.25 0.42969,0 0.64844,0.25 0.21875,0.24218 0.21875,0.60156 0,0.35156 -0.21875,0.58594 -0.21875,0.23437 -0.64844,0.23437 -0.4375,0 -0.65625,-0.23437 -0.21093,-0.23438 -0.21093,-0.58594 z"
         style="font-style:normal;font-variant:normal;font-weight:normal;font-stretch:normal;font-size:16px;font-family:'Roboto Mono';-inkscape-font-specification:'Roboto Mono';stroke-width:1.13385832;stroke-miterlimit:4;stroke-dasharray:none;paint-order:markers fill stroke"
         id="path71" />
      <path
         d="m 160.88109,385.07602 q 0,-0.94531 0.22656,-1.73438 0.23438,-0.79687 0.67188,-1.36718 0.4375,-0.57032 1.0625,-0.89063 0.625,-0.32031 1.41406,-0.32031 0.78125,0 1.36719,0.28125 0.59375,0.27344 1.00781,0.79687 l 0.0703,-0.92187 h 1.3125 v 8.27344 q 0,0.83593 -0.26562,1.48437 -0.25782,0.64844 -0.73438,1.10156 -0.46875,0.45313 -1.125,0.6875 -0.65625,0.23438 -1.45312,0.23438 -0.32813,0 -0.75,-0.0781 -0.42188,-0.0703 -0.85938,-0.24218 -0.42969,-0.16407 -0.83594,-0.44532 -0.39843,-0.28125 -0.6875,-0.69531 l 0.75,-0.86719 q 0.26563,0.32032 0.54688,0.53907 0.28125,0.22656 0.57031,0.35937 0.28906,0.13281 0.57813,0.1875 0.28906,0.0625 0.57812,0.0625 0.51563,0 0.92969,-0.14844 0.41406,-0.14843 0.70312,-0.4375 0.29688,-0.28125 0.45313,-0.70312 0.15625,-0.42188 0.15625,-0.96875 v -0.72656 q -0.42188,0.48437 -1,0.74218 -0.57031,0.25 -1.32813,0.25 -0.77343,0 -1.39843,-0.32812 -0.625,-0.32813 -1.0625,-0.90625 -0.42969,-0.57813 -0.66407,-1.35938 -0.23437,-0.78906 -0.23437,-1.69531 z m 1.44531,0.16406 q 0,0.61719 0.125,1.17188 0.13281,0.55468 0.40625,0.97656 0.28125,0.42187 0.71094,0.67187 0.42969,0.24219 1.03125,0.24219 0.375,0 0.67187,-0.0859 0.30469,-0.0937 0.53907,-0.25781 0.24218,-0.16406 0.42968,-0.39062 0.1875,-0.22657 0.32813,-0.5 v -3.875 q -0.14063,-0.26563 -0.32813,-0.48438 -0.1875,-0.21875 -0.42968,-0.375 -0.24219,-0.16406 -0.53907,-0.25 -0.29687,-0.0937 -0.65625,-0.0937 -0.60937,0 -1.04687,0.25 -0.42969,0.25 -0.71094,0.67969 -0.27344,0.42187 -0.40625,0.98437 -0.125,0.55469 -0.125,1.17188 z"
         style="font-style:normal;font-variant:normal;font-weight:normal;font-stretch:normal;font-size:16px;font-family:'Roboto Mono';-inkscape-font-specification:'Roboto Mono';stroke-width:1.13385832;stroke-miterlimit:4;stroke-dasharray:none;paint-order:markers fill stroke"
         id="path73" />
      <path
         d="m 171.40453,380.91977 0.0391,0.79687 q 0.25781,-0.44531 0.67187,-0.69531 0.42188,-0.25 1.01563,-0.25781 1.16406,0 1.55469,0.90625 0.25,-0.40625 0.65625,-0.64844 0.41406,-0.25 1,-0.25781 0.92968,0 1.42968,0.57031 0.5,0.57031 0.5,1.72656 v 6.3125 h -1.375 v -6.32812 q 0,-1.0625 -0.97656,-1.05469 -0.25781,0 -0.44531,0.0703 -0.1875,0.0703 -0.3125,0.19532 -0.125,0.11718 -0.19531,0.28125 -0.0703,0.15625 -0.0937,0.32812 v 6.50781 h -1.375 v -6.33593 q 0,-0.50782 -0.22657,-0.78125 -0.22656,-0.27344 -0.71875,-0.26563 -0.45312,0 -0.70312,0.17969 -0.25,0.17969 -0.36719,0.47656 v 6.72656 h -1.375 v -8.45312 z"
         style="font-style:normal;font-variant:normal;font-weight:normal;font-stretch:normal;font-size:16px;font-family:'Roboto Mono';-inkscape-font-specification:'Roboto Mono';stroke-width:1.13385832;stroke-miterlimit:4;stroke-dasharray:none;paint-order:markers fill stroke"
         id="path75" />
      <path
         d="m 185.8889,389.37289 q -0.0859,-0.16406 -0.14062,-0.40625 -0.0469,-0.25 -0.0703,-0.51562 -0.21875,0.21875 -0.49218,0.41406 -0.26563,0.19531 -0.59375,0.34375 -0.32032,0.14844 -0.6875,0.23438 -0.36719,0.0859 -0.78125,0.0859 -0.67188,0 -1.21875,-0.19531 -0.53907,-0.19531 -0.92188,-0.52344 -0.375,-0.33593 -0.58594,-0.78906 -0.20312,-0.46094 -0.20312,-0.99219 0,-0.69531 0.27344,-1.21875 0.28125,-0.52343 0.78906,-0.86718 0.50781,-0.35157 1.21875,-0.52344 0.71875,-0.17188 1.60156,-0.17188 h 1.57813 v -0.66406 q 0,-0.38281 -0.14063,-0.6875 -0.14062,-0.30469 -0.39844,-0.51562 -0.25781,-0.21875 -0.63281,-0.33594 -0.36719,-0.11719 -0.82812,-0.11719 -0.42969,0 -0.77344,0.10938 -0.33594,0.10937 -0.57031,0.28906 -0.23438,0.17969 -0.36719,0.42969 -0.125,0.24218 -0.125,0.50781 h -1.45313 q 0.008,-0.46094 0.23438,-0.90625 0.23437,-0.44531 0.66406,-0.79688 0.4375,-0.35937 1.05469,-0.57812 0.625,-0.21875 1.41406,-0.21875 0.71875,0 1.33594,0.17969 0.61719,0.17187 1.0625,0.53125 0.45312,0.35156 0.71094,0.88281 0.25781,0.53125 0.25781,1.24219 v 3.92968 q 0,0.42188 0.0781,0.89844 0.0781,0.46875 0.21875,0.82031 v 0.125 z m -2.55469,-1.10156 q 0.42188,0 0.78907,-0.10937 0.36718,-0.10938 0.66406,-0.28907 0.30469,-0.17968 0.52344,-0.40625 0.21875,-0.23437 0.34375,-0.48437 v -1.71094 h -1.34375 q -1.26563,0 -1.96875,0.375 -0.70313,0.375 -0.70313,1.17969 0,0.3125 0.10156,0.57812 0.10938,0.26563 0.32032,0.46094 0.21093,0.1875 0.53125,0.29688 0.32031,0.10937 0.74218,0.10937 z"
         style="font-style:normal;font-variant:normal;font-weight:normal;font-stretch:normal;font-size:16px;font-family:'Roboto Mono';-inkscape-font-specification:'Roboto Mono';stroke-width:1.13385832;stroke-miterlimit:4;stroke-dasharray:none;paint-order:markers fill stroke"
         id="path77" />
    </g>
    <path
       transform="rotate(90)"
       style="fill:#ebebeb;fill-opacity:1;stroke:#000000;stroke-width:1.13385832;stroke-miterlimit:4;stroke-dasharray:none;paint-order:markers fill stroke"
       d="m 412.92883,-176.315 h 21.32744 v 23.26629 h -21.32744 z"
       id="rect2411" />
    <g
       aria-label="1"
       style="font-style:normal;font-weight:normal;font-size:40px;line-height:1.25;font-family:sans-serif;letter-spacing:0px;word-spacing:0px;fill:#000000;fill-opacity:1;stroke:none;stroke-width:1.13385832;stroke-miterlimit:4;stroke-dasharray:none;paint-order:markers fill stroke"
       id="text2415">
      <path
         d="m 166.86546,429.2019 h -1.45312 v -9.63281 l -2.91406,1.07031 v -1.3125 l 4.14062,-1.55468 h 0.22656 z"
         style="font-style:normal;font-variant:normal;font-weight:normal;font-stretch:normal;font-size:16px;font-family:Roboto;-inkscape-font-specification:Roboto;stroke-width:1.13385832;stroke-miterlimit:4;stroke-dasharray:none;paint-order:markers fill stroke"
         id="path81" />
    </g>
    <path
       transform="rotate(90)"
       style="fill:#ebebeb;fill-opacity:1;stroke:#000000;stroke-width:1.13385832;stroke-miterlimit:4;stroke-dasharray:none;paint-order:markers fill stroke"
       d="m 444.91998,-176.315 h 21.32744 v 23.26629 h -21.32744 z"
       id="rect2421" />
    <g
       aria-label="5"
       style="font-style:normal;font-weight:normal;font-size:40px;line-height:1.25;font-family:sans-serif;letter-spacing:0px;word-spacing:0px;fill:#000000;fill-opacity:1;stroke:none;stroke-width:1.13385832;stroke-miterlimit:4;stroke-dasharray:none;paint-order:markers fill stroke"
       id="text2425">
      <path
         d="m 161.5139,455.56805 0.57813,-5.67187 h 5.82812 v 1.33594 h -4.60156 l -0.34375,3.10156 q 0.83594,-0.49219 1.89844,-0.49219 1.55468,0 2.46875,1.03125 0.91406,1.02344 0.91406,2.77344 0,1.75781 -0.95313,2.77344 -0.94531,1.00781 -2.64843,1.00781 -1.50782,0 -2.46094,-0.83594 -0.95313,-0.83594 -1.08594,-2.3125 h 1.36719 q 0.13281,0.97656 0.69531,1.47656 0.5625,0.49219 1.48438,0.49219 1.00781,0 1.57812,-0.6875 0.57813,-0.6875 0.57813,-1.89844 0,-1.14062 -0.625,-1.82812 -0.61719,-0.69531 -1.64844,-0.69531 -0.94531,0 -1.48438,0.41406 l -0.38281,0.3125 z"
         style="font-style:normal;font-variant:normal;font-weight:normal;font-stretch:normal;font-size:16px;font-family:Roboto;-inkscape-font-specification:Roboto;stroke-width:1.13385832;stroke-miterlimit:4;stroke-dasharray:none;paint-order:markers fill stroke"
         id="path85" />
    </g>
    <path
       transform="rotate(90)"
       style="fill:#ebebeb;fill-opacity:1;stroke:#000000;stroke-width:1.13385832;stroke-miterlimit:4;stroke-dasharray:none;paint-order:markers fill stroke"
       d="m 476.91116,-176.315 h 21.32744 v 23.26629 h -21.32744 z"
       id="rect2429" />
    <g
       aria-label="10"
       style="font-style:normal;font-weight:normal;font-size:40px;line-height:1.25;font-family:sans-serif;letter-spacing:0px;word-spacing:0px;fill:#000000;fill-opacity:1;stroke:none;stroke-width:1.13385832;stroke-miterlimit:4;stroke-dasharray:none;paint-order:markers fill stroke"
       id="text2433">
      <path
         d="m 161.17406,493.26236 h -1.45313 v -9.63281 l -2.91406,1.07031 v -1.3125 l 4.14062,-1.55469 h 0.22657 z"
         style="font-style:normal;font-variant:normal;font-weight:normal;font-stretch:normal;font-size:16px;font-family:Roboto;-inkscape-font-specification:Roboto;stroke-width:1.13385832;stroke-miterlimit:4;stroke-dasharray:none;paint-order:markers fill stroke"
         id="path89" />
      <path
         d="m 172.55687,488.4108 q 0,2.53906 -0.86719,3.77343 -0.86719,1.23438 -2.71094,1.23438 -1.82031,0 -2.69531,-1.20313 -0.875,-1.21093 -0.90625,-3.60937 v -1.92969 q 0,-2.50781 0.86719,-3.72656 0.86719,-1.21875 2.71875,-1.21875 1.83594,0 2.70312,1.17969 0.86719,1.17187 0.89063,3.625 z m -1.44531,-1.97657 q 0,-1.83593 -0.51563,-2.67187 -0.51562,-0.84375 -1.63281,-0.84375 -1.10938,0 -1.61719,0.83594 -0.50781,0.83593 -0.52344,2.57031 v 2.3125 q 0,1.84375 0.53125,2.72656 0.53907,0.875 1.625,0.875 1.07032,0 1.58594,-0.82812 0.52344,-0.82813 0.54688,-2.60938 z"
         style="font-style:normal;font-variant:normal;font-weight:normal;font-stretch:normal;font-size:16px;font-family:Roboto;-inkscape-font-specification:Roboto;stroke-width:1.13385832;stroke-miterlimit:4;stroke-dasharray:none;paint-order:markers fill stroke"
         id="path91" />
    </g>
    <path
       transform="rotate(90)"
       style="fill:none;fill-opacity:1;stroke:#000000;stroke-width:1.13385832;stroke-miterlimit:4;stroke-dasharray:none;paint-order:markers fill stroke"
       d="m 408.45435,-184.42395 h 94.25868 c 3.81335,0 6.88331,3.03122 6.88331,6.79645 v 25.8913 c 0,3.76524 -3.06996,6.79645 -6.88331,6.79645 h -94.25868 c -3.81335,0 -6.88331,-3.03121 -6.88331,-6.79645 v -25.8913 c 0,-3.76523 3.06996,-6.79645 6.88331,-6.79645 z"
       id="rect2437" />
  </g>
  <g
     id="g108"
     transform="translate(-64.134855,-357.63932)">
    <g
       aria-label="map2(mu, sigma, rnorm, n = 5)"
       style="font-style:normal;font-weight:normal;font-size:40px;line-height:1.25;font-family:sans-serif;letter-spacing:0px;word-spacing:0px;fill:#000000;fill-opacity:1;stroke:none;stroke-width:1.13385832;stroke-miterlimit:4;stroke-dasharray:none;paint-order:markers fill stroke"
       id="text2470">
      <path
         d="m 206.21782,380.91977 0.0391,0.79687 q 0.25781,-0.44531 0.67188,-0.69531 0.42187,-0.25 1.01562,-0.25781 1.16406,0 1.55469,0.90625 0.25,-0.40625 0.65625,-0.64844 0.41406,-0.25 1,-0.25781 0.92969,0 1.42969,0.57031 0.5,0.57031 0.5,1.72656 v 6.3125 h -1.375 v -6.32812 q 0,-1.0625 -0.97657,-1.05469 -0.25781,0 -0.44531,0.0703 -0.1875,0.0703 -0.3125,0.19532 -0.125,0.11718 -0.19531,0.28125 -0.0703,0.15625 -0.0937,0.32812 v 6.50781 h -1.375 v -6.33593 q 0,-0.50782 -0.22656,-0.78125 -0.22657,-0.27344 -0.71875,-0.26563 -0.45313,0 -0.70313,0.17969 -0.25,0.17969 -0.36719,0.47656 v 6.72656 h -1.375 v -8.45312 z"
         style="font-style:normal;font-variant:normal;font-weight:normal;font-stretch:normal;font-size:16px;font-family:'Roboto Mono';-inkscape-font-specification:'Roboto Mono';stroke-width:1.13385832;stroke-miterlimit:4;stroke-dasharray:none;paint-order:markers fill stroke"
         id="path95" />
      <path
         d="m 220.70219,389.37289 q -0.0859,-0.16406 -0.14062,-0.40625 -0.0469,-0.25 -0.0703,-0.51562 -0.21875,0.21875 -0.49219,0.41406 -0.26563,0.19531 -0.59375,0.34375 -0.32031,0.14844 -0.6875,0.23438 -0.36719,0.0859 -0.78125,0.0859 -0.67188,0 -1.21875,-0.19531 -0.53906,-0.19531 -0.92188,-0.52344 -0.375,-0.33593 -0.58593,-0.78906 -0.20313,-0.46094 -0.20313,-0.99219 0,-0.69531 0.27344,-1.21875 0.28125,-0.52343 0.78906,-0.86718 0.50781,-0.35157 1.21875,-0.52344 0.71875,-0.17188 1.60156,-0.17188 h 1.57813 v -0.66406 q 0,-0.38281 -0.14063,-0.6875 -0.14062,-0.30469 -0.39843,-0.51562 -0.25782,-0.21875 -0.63282,-0.33594 -0.36718,-0.11719 -0.82812,-0.11719 -0.42969,0 -0.77344,0.10938 -0.33594,0.10937 -0.57031,0.28906 -0.23438,0.17969 -0.36719,0.42969 -0.125,0.24218 -0.125,0.50781 h -1.45312 q 0.008,-0.46094 0.23437,-0.90625 0.23438,-0.44531 0.66406,-0.79688 0.4375,-0.35937 1.05469,-0.57812 0.625,-0.21875 1.41406,-0.21875 0.71875,0 1.33594,0.17969 0.61719,0.17187 1.0625,0.53125 0.45313,0.35156 0.71094,0.88281 0.25781,0.53125 0.25781,1.24219 v 3.92968 q 0,0.42188 0.0781,0.89844 0.0781,0.46875 0.21875,0.82031 v 0.125 z m -2.55468,-1.10156 q 0.42187,0 0.78906,-0.10937 0.36719,-0.10938 0.66406,-0.28907 0.30469,-0.17968 0.52344,-0.40625 0.21875,-0.23437 0.34375,-0.48437 v -1.71094 h -1.34375 q -1.26563,0 -1.96875,0.375 -0.70313,0.375 -0.70313,1.17969 0,0.3125 0.10157,0.57812 0.10937,0.26563 0.32031,0.46094 0.21094,0.1875 0.53125,0.29688 0.32031,0.10937 0.74219,0.10937 z"
         style="font-style:normal;font-variant:normal;font-weight:normal;font-stretch:normal;font-size:16px;font-family:'Roboto Mono';-inkscape-font-specification:'Roboto Mono';stroke-width:1.13385832;stroke-miterlimit:4;stroke-dasharray:none;paint-order:markers fill stroke"
         id="path97" />
      <path
         d="m 231.87407,385.24008 q 0,0.90625 -0.21875,1.69531 -0.21875,0.78125 -0.64063,1.35938 -0.42187,0.57812 -1.04687,0.90625 -0.61719,0.32812 -1.41406,0.32812 -0.77344,0 -1.36719,-0.25 -0.58594,-0.25 -1.00781,-0.71875 v 4.0625 h -1.44532 v -11.70312 h 1.32032 l 0.0703,0.92187 q 0.42187,-0.52343 1.01562,-0.79687 0.60157,-0.28125 1.39063,-0.28125 0.8125,0 1.4375,0.32031 0.625,0.32031 1.04687,0.89063 0.42188,0.57031 0.64063,1.36718 0.21875,0.78907 0.21875,1.73438 z m -1.44531,-0.16406 q 0,-0.61719 -0.14063,-1.17188 -0.13281,-0.5625 -0.42187,-0.98437 -0.28125,-0.42969 -0.71875,-0.67969 -0.4375,-0.25 -1.04688,-0.25 -0.69531,0 -1.17187,0.32813 -0.46875,0.32031 -0.75,0.82812 v 4.07031 q 0.28125,0.5 0.75,0.82032 0.46875,0.3125 1.1875,0.3125 0.60156,0 1.03906,-0.25 0.4375,-0.25782 0.71875,-0.6875 0.28125,-0.42969 0.41406,-0.99219 0.14063,-0.5625 0.14063,-1.17969 z"
         style="font-style:normal;font-variant:normal;font-weight:normal;font-stretch:normal;font-size:16px;font-family:'Roboto Mono';-inkscape-font-specification:'Roboto Mono';stroke-width:1.13385832;stroke-miterlimit:4;stroke-dasharray:none;paint-order:markers fill stroke"
         id="path99" />
      <path
         d="m 241.31157,389.37289 h -7.45313 v -1.03906 l 3.72657,-4.14062 q 0.5,-0.55469 0.83593,-0.98438 0.33594,-0.42969 0.53907,-0.78906 0.20312,-0.36719 0.28906,-0.6875 0.0859,-0.32813 0.0859,-0.67188 0,-0.42187 -0.14063,-0.78906 -0.13281,-0.375 -0.39844,-0.64844 -0.25781,-0.27343 -0.63281,-0.42968 -0.36719,-0.16407 -0.83594,-0.16407 -0.57031,0 -0.99218,0.16407 -0.41407,0.16406 -0.69532,0.46875 -0.27343,0.29687 -0.41406,0.72656 -0.13281,0.42969 -0.13281,0.96094 h -1.45313 q 0,-0.71875 0.25,-1.35157 0.25,-0.64062 0.71875,-1.11718 0.47657,-0.47657 1.15625,-0.75782 0.6875,-0.28125 1.5625,-0.28125 0.80469,0 1.44532,0.24219 0.64843,0.23438 1.09375,0.65625 0.44531,0.42188 0.67968,1 0.24219,0.57813 0.24219,1.25781 0,0.50782 -0.17187,1.00782 -0.17188,0.49218 -0.46875,0.97656 -0.28907,0.48437 -0.67969,0.96094 -0.38281,0.46875 -0.8125,0.9375 l -3.05469,3.3125 h 5.71094 z"
         style="font-style:normal;font-variant:normal;font-weight:normal;font-stretch:normal;font-size:16px;font-family:'Roboto Mono';-inkscape-font-specification:'Roboto Mono';stroke-width:1.13385832;stroke-miterlimit:4;stroke-dasharray:none;paint-order:markers fill stroke"
         id="path101" />
      <path
         d="m 245.35844,384.75571 q 0,-1.11719 0.17188,-2.10157 0.17969,-0.98437 0.47656,-1.82031 0.29688,-0.84375 0.67969,-1.53906 0.39062,-0.69531 0.8125,-1.23438 0.42969,-0.53906 0.85937,-0.92187 0.42969,-0.38281 0.82032,-0.60156 l 0.30468,0.95312 q -0.48437,0.36719 -0.96875,1 -0.47656,0.63281 -0.85937,1.53906 -0.375,0.89844 -0.61719,2.07813 -0.23437,1.17187 -0.23437,2.63281 v 0.10938 q 0,1.46093 0.23437,2.64062 0.24219,1.17969 0.61719,2.08594 0.38281,0.90625 0.85937,1.54687 0.48438,0.64844 0.96875,1.03907 l -0.30468,0.88281 q -0.39063,-0.21875 -0.82813,-0.60156 -0.42969,-0.375 -0.85937,-0.92188 -0.42188,-0.53906 -0.8125,-1.23437 -0.38282,-0.6875 -0.67969,-1.52344 -0.28906,-0.84375 -0.46875,-1.82813 -0.17188,-0.98437 -0.17188,-2.10156 z"
         style="font-style:normal;font-variant:normal;font-weight:normal;font-stretch:normal;font-size:16px;font-family:'Roboto Mono';-inkscape-font-specification:'Roboto Mono';stroke-width:1.13385832;stroke-miterlimit:4;stroke-dasharray:none;paint-order:markers fill stroke"
         id="path103" />
      <path
         d="m 254.18657,380.91977 0.0391,0.79687 q 0.25781,-0.44531 0.67188,-0.69531 0.42187,-0.25 1.01562,-0.25781 1.16406,0 1.55469,0.90625 0.25,-0.40625 0.65625,-0.64844 0.41406,-0.25 1,-0.25781 0.92969,0 1.42969,0.57031 0.5,0.57031 0.5,1.72656 v 6.3125 h -1.375 v -6.32812 q 0,-1.0625 -0.97657,-1.05469 -0.25781,0 -0.44531,0.0703 -0.1875,0.0703 -0.3125,0.19532 -0.125,0.11718 -0.19531,0.28125 -0.0703,0.15625 -0.0937,0.32812 v 6.50781 h -1.375 v -6.33593 q 0,-0.50782 -0.22656,-0.78125 -0.22657,-0.27344 -0.71875,-0.26563 -0.45313,0 -0.70313,0.17969 -0.25,0.17969 -0.36719,0.47656 v 6.72656 h -1.375 v -8.45312 z"
         style="font-style:normal;font-variant:normal;font-weight:normal;font-stretch:normal;font-size:16px;font-family:'Roboto Mono';-inkscape-font-specification:'Roboto Mono';stroke-width:1.13385832;stroke-miterlimit:4;stroke-dasharray:none;paint-order:markers fill stroke"
         id="path105" />
      <path
         d="m 268.60063,388.20883 q -0.42187,0.625 -1.05469,0.97656 -0.63281,0.34375 -1.46093,0.34375 -0.66407,0 -1.20313,-0.20312 -0.53906,-0.21094 -0.92187,-0.64844 -0.38282,-0.4375 -0.59375,-1.10937 -0.20313,-0.67969 -0.20313,-1.625 v -5.02344 h 1.44531 v 5.03906 q 0,0.6875 0.10938,1.14063 0.10937,0.45312 0.32812,0.72656 0.21875,0.26562 0.53125,0.375 0.32032,0.10937 0.73438,0.10937 0.88281,0 1.42187,-0.35937 0.54688,-0.35938 0.8125,-0.96875 v -6.0625 h 1.45313 v 8.45312 h -1.3125 z"
         style="font-style:normal;font-variant:normal;font-weight:normal;font-stretch:normal;font-size:16px;font-family:'Roboto Mono';-inkscape-font-specification:'Roboto Mono';stroke-width:1.13385832;stroke-miterlimit:4;stroke-dasharray:none;paint-order:markers fill stroke"
         id="path107" />
      <path
         d="m 276.37407,389.03696 q 0,0.36718 -0.0937,0.76562 -0.0859,0.40625 -0.26563,0.79688 -0.17187,0.39843 -0.42187,0.75781 -0.25,0.35937 -0.57813,0.64062 l -0.89843,-0.49218 q 0.375,-0.54688 0.53125,-1.16407 0.15625,-0.61718 0.15625,-1.28125 v -1.39843 h 1.57031 z"
         style="font-style:normal;font-variant:normal;font-weight:normal;font-stretch:normal;font-size:16px;font-family:'Roboto Mono';-inkscape-font-specification:'Roboto Mono';stroke-width:1.13385832;stroke-miterlimit:4;stroke-dasharray:none;paint-order:markers fill stroke"
         id="path109" />
      <path
         d="m 297.51469,387.13071 q 0,-0.25782 -0.10156,-0.46094 -0.10156,-0.21094 -0.34375,-0.38281 -0.24219,-0.17188 -0.64062,-0.3125 -0.39844,-0.14844 -0.99219,-0.26563 -0.72656,-0.14844 -1.32813,-0.35937 -0.59375,-0.21094 -1.02343,-0.5 -0.42188,-0.29688 -0.65625,-0.6875 -0.23438,-0.39844 -0.23438,-0.92188 0,-0.51562 0.24219,-0.96094 0.24219,-0.45312 0.67969,-0.78906 0.4375,-0.33594 1.03906,-0.53125 0.60937,-0.19531 1.33594,-0.19531 0.78125,0 1.40625,0.20312 0.625,0.20313 1.0625,0.5625 0.4375,0.35938 0.67187,0.84375 0.24219,0.47657 0.24219,1.03125 h -1.44531 q 0,-0.27343 -0.14063,-0.53125 -0.14062,-0.26562 -0.39062,-0.46875 -0.25,-0.20312 -0.60938,-0.32812 -0.35156,-0.125 -0.79687,-0.125 -0.46094,0 -0.8125,0.10156 -0.34375,0.10156 -0.57813,0.27344 -0.22656,0.17187 -0.34375,0.39844 -0.11719,0.22656 -0.11719,0.46875 0,0.25 0.0937,0.44531 0.0937,0.19531 0.32032,0.35156 0.23437,0.15625 0.61718,0.28125 0.39063,0.125 0.98438,0.24219 0.78125,0.16406 1.39844,0.38281 0.61718,0.21094 1.03906,0.51563 0.42187,0.29687 0.64062,0.69531 0.22657,0.39844 0.22657,0.92187 0,0.5625 -0.25782,1.02344 -0.25,0.46094 -0.70312,0.78906 -0.45313,0.32813 -1.08594,0.50782 -0.63281,0.17968 -1.38281,0.17968 -0.85938,0 -1.53125,-0.22656 -0.67188,-0.23437 -1.14063,-0.60937 -0.46093,-0.38282 -0.71093,-0.88282 -0.24219,-0.5 -0.24219,-1.03906 h 1.44531 q 0.0312,0.44531 0.23438,0.75 0.21093,0.30469 0.51562,0.49219 0.3125,0.1875 0.6875,0.26562 0.375,0.0781 0.74219,0.0781 0.91406,0 1.44531,-0.33594 0.53125,-0.33594 0.53906,-0.89062 z"
         style="font-style:normal;font-variant:normal;font-weight:normal;font-stretch:normal;font-size:16px;font-family:'Roboto Mono';-inkscape-font-specification:'Roboto Mono';stroke-width:1.13385832;stroke-miterlimit:4;stroke-dasharray:none;paint-order:markers fill stroke"
         id="path111" />
      <path
         d="m 301.71782,380.91977 h 4.32031 v 7.20312 h 2.75781 v 1.25 h -7.07812 v -1.25 h 2.875 v -5.94531 h -2.875 z m 2.6875,-2.21875 q 0,-0.35938 0.21094,-0.60156 0.21875,-0.25 0.65625,-0.25 0.42968,0 0.64843,0.25 0.21875,0.24218 0.21875,0.60156 0,0.35156 -0.21875,0.58594 -0.21875,0.23437 -0.64843,0.23437 -0.4375,0 -0.65625,-0.23437 -0.21094,-0.23438 -0.21094,-0.58594 z"
         style="font-style:normal;font-variant:normal;font-weight:normal;font-stretch:normal;font-size:16px;font-family:'Roboto Mono';-inkscape-font-specification:'Roboto Mono';stroke-width:1.13385832;stroke-miterlimit:4;stroke-dasharray:none;paint-order:markers fill stroke"
         id="path113" />
      <path
         d="m 310.81938,385.07602 q 0,-0.94531 0.22656,-1.73438 0.23438,-0.79687 0.67188,-1.36718 0.4375,-0.57032 1.0625,-0.89063 0.625,-0.32031 1.41406,-0.32031 0.78125,0 1.36719,0.28125 0.59375,0.27344 1.00781,0.79687 l 0.0703,-0.92187 h 1.3125 v 8.27344 q 0,0.83593 -0.26562,1.48437 -0.25781,0.64844 -0.73438,1.10156 -0.46875,0.45313 -1.125,0.6875 -0.65625,0.23438 -1.45312,0.23438 -0.32813,0 -0.75,-0.0781 -0.42188,-0.0703 -0.85938,-0.24218 -0.42968,-0.16407 -0.83593,-0.44532 -0.39844,-0.28125 -0.6875,-0.69531 l 0.75,-0.86719 q 0.26562,0.32032 0.54687,0.53907 0.28125,0.22656 0.57031,0.35937 0.28907,0.13281 0.57813,0.1875 0.28906,0.0625 0.57812,0.0625 0.51563,0 0.92969,-0.14844 0.41406,-0.14843 0.70313,-0.4375 0.29687,-0.28125 0.45312,-0.70312 0.15625,-0.42188 0.15625,-0.96875 v -0.72656 q -0.42187,0.48437 -1,0.74218 -0.57031,0.25 -1.32812,0.25 -0.77344,0 -1.39844,-0.32812 -0.625,-0.32813 -1.0625,-0.90625 -0.42969,-0.57813 -0.66406,-1.35938 -0.23438,-0.78906 -0.23438,-1.69531 z m 1.44531,0.16406 q 0,0.61719 0.125,1.17188 0.13282,0.55468 0.40625,0.97656 0.28125,0.42187 0.71094,0.67187 0.42969,0.24219 1.03125,0.24219 0.375,0 0.67188,-0.0859 0.30468,-0.0937 0.53906,-0.25781 0.24219,-0.16406 0.42969,-0.39062 0.1875,-0.22657 0.32812,-0.5 v -3.875 q -0.14062,-0.26563 -0.32812,-0.48438 -0.1875,-0.21875 -0.42969,-0.375 -0.24219,-0.16406 -0.53906,-0.25 -0.29688,-0.0937 -0.65625,-0.0937 -0.60938,0 -1.04688,0.25 -0.42969,0.25 -0.71094,0.67969 -0.27343,0.42187 -0.40625,0.98437 -0.125,0.55469 -0.125,1.17188 z"
         style="font-style:normal;font-variant:normal;font-weight:normal;font-stretch:normal;font-size:16px;font-family:'Roboto Mono';-inkscape-font-specification:'Roboto Mono';stroke-width:1.13385832;stroke-miterlimit:4;stroke-dasharray:none;paint-order:markers fill stroke"
         id="path115" />
      <path
         d="m 321.34282,380.91977 0.0391,0.79687 q 0.25781,-0.44531 0.67188,-0.69531 0.42187,-0.25 1.01562,-0.25781 1.16406,0 1.55469,0.90625 0.25,-0.40625 0.65625,-0.64844 0.41406,-0.25 1,-0.25781 0.92969,0 1.42969,0.57031 0.5,0.57031 0.5,1.72656 v 6.3125 h -1.375 v -6.32812 q 0,-1.0625 -0.97657,-1.05469 -0.25781,0 -0.44531,0.0703 -0.1875,0.0703 -0.3125,0.19532 -0.125,0.11718 -0.19531,0.28125 -0.0703,0.15625 -0.0937,0.32812 v 6.50781 h -1.375 v -6.33593 q 0,-0.50782 -0.22656,-0.78125 -0.22657,-0.27344 -0.71875,-0.26563 -0.45313,0 -0.70313,0.17969 -0.25,0.17969 -0.36719,0.47656 v 6.72656 h -1.375 v -8.45312 z"
         style="font-style:normal;font-variant:normal;font-weight:normal;font-stretch:normal;font-size:16px;font-family:'Roboto Mono';-inkscape-font-specification:'Roboto Mono';stroke-width:1.13385832;stroke-miterlimit:4;stroke-dasharray:none;paint-order:markers fill stroke"
         id="path117" />
      <path
         d="m 335.82719,389.37289 q -0.0859,-0.16406 -0.14062,-0.40625 -0.0469,-0.25 -0.0703,-0.51562 -0.21875,0.21875 -0.49219,0.41406 -0.26563,0.19531 -0.59375,0.34375 -0.32031,0.14844 -0.6875,0.23438 -0.36719,0.0859 -0.78125,0.0859 -0.67188,0 -1.21875,-0.19531 -0.53906,-0.19531 -0.92188,-0.52344 -0.375,-0.33593 -0.58593,-0.78906 -0.20313,-0.46094 -0.20313,-0.99219 0,-0.69531 0.27344,-1.21875 0.28125,-0.52343 0.78906,-0.86718 0.50781,-0.35157 1.21875,-0.52344 0.71875,-0.17188 1.60156,-0.17188 h 1.57813 v -0.66406 q 0,-0.38281 -0.14063,-0.6875 -0.14062,-0.30469 -0.39843,-0.51562 -0.25782,-0.21875 -0.63282,-0.33594 -0.36718,-0.11719 -0.82812,-0.11719 -0.42969,0 -0.77344,0.10938 -0.33594,0.10937 -0.57031,0.28906 -0.23438,0.17969 -0.36719,0.42969 -0.125,0.24218 -0.125,0.50781 h -1.45312 q 0.008,-0.46094 0.23437,-0.90625 0.23438,-0.44531 0.66406,-0.79688 0.4375,-0.35937 1.05469,-0.57812 0.625,-0.21875 1.41406,-0.21875 0.71875,0 1.33594,0.17969 0.61719,0.17187 1.0625,0.53125 0.45313,0.35156 0.71094,0.88281 0.25781,0.53125 0.25781,1.24219 v 3.92968 q 0,0.42188 0.0781,0.89844 0.0781,0.46875 0.21875,0.82031 v 0.125 z m -2.55468,-1.10156 q 0.42187,0 0.78906,-0.10937 0.36719,-0.10938 0.66406,-0.28907 0.30469,-0.17968 0.52344,-0.40625 0.21875,-0.23437 0.34375,-0.48437 v -1.71094 h -1.34375 q -1.26563,0 -1.96875,0.375 -0.70313,0.375 -0.70313,1.17969 0,0.3125 0.10157,0.57812 0.10937,0.26563 0.32031,0.46094 0.21094,0.1875 0.53125,0.29688 0.32031,0.10937 0.74219,0.10937 z"
         style="font-style:normal;font-variant:normal;font-weight:normal;font-stretch:normal;font-size:16px;font-family:'Roboto Mono';-inkscape-font-specification:'Roboto Mono';stroke-width:1.13385832;stroke-miterlimit:4;stroke-dasharray:none;paint-order:markers fill stroke"
         id="path119" />
      <path
         d="m 343.53032,389.03696 q 0,0.36718 -0.0937,0.76562 -0.0859,0.40625 -0.26563,0.79688 -0.17187,0.39843 -0.42187,0.75781 -0.25,0.35937 -0.57813,0.64062 l -0.89843,-0.49218 q 0.375,-0.54688 0.53125,-1.16407 0.15625,-0.61718 0.15625,-1.28125 v -1.39843 h 1.57031 z"
         style="font-style:normal;font-variant:normal;font-weight:normal;font-stretch:normal;font-size:16px;font-family:'Roboto Mono';-inkscape-font-specification:'Roboto Mono';stroke-width:1.13385832;stroke-miterlimit:4;stroke-dasharray:none;paint-order:markers fill stroke"
         id="path121" />
      <path
         d="m 364.59282,380.76352 q 0.20312,0 0.42187,0.0156 0.21875,0.008 0.41407,0.0391 0.20312,0.0234 0.36718,0.0625 0.17188,0.0391 0.28125,0.0859 l -0.19531,1.41407 q -0.42187,-0.0937 -0.80469,-0.13282 -0.375,-0.0469 -0.78906,-0.0469 -1.01562,0 -1.64844,0.46094 -0.625,0.46093 -0.92187,1.28906 v 5.42187 h -1.45313 v -8.45312 h 1.375 l 0.0703,1.34375 q 0.51562,-0.69531 1.23437,-1.09375 0.72656,-0.40625 1.64844,-0.40625 z"
         style="font-style:normal;font-variant:normal;font-weight:normal;font-stretch:normal;font-size:16px;font-family:'Roboto Mono';-inkscape-font-specification:'Roboto Mono';stroke-width:1.13385832;stroke-miterlimit:4;stroke-dasharray:none;paint-order:markers fill stroke"
         id="path123" />
      <path
         d="m 369.94438,380.91977 0.10156,1.25 q 0.46094,-0.65625 1.13282,-1.02344 0.67187,-0.375 1.5,-0.38281 0.66406,0 1.20312,0.1875 0.54688,0.1875 0.92969,0.58594 0.38281,0.39843 0.58594,1.01562 0.21093,0.60938 0.21093,1.45313 v 5.36718 h -1.44531 v -5.33593 q 0,-0.5625 -0.125,-0.95313 -0.125,-0.39062 -0.375,-0.63281 -0.24219,-0.24219 -0.60156,-0.35156 -0.35156,-0.10938 -0.8125,-0.10938 -0.72656,0 -1.28125,0.36719 -0.54688,0.35937 -0.875,0.95312 v 6.0625 h -1.44531 v -8.45312 z"
         style="font-style:normal;font-variant:normal;font-weight:normal;font-stretch:normal;font-size:16px;font-family:'Roboto Mono';-inkscape-font-specification:'Roboto Mono';stroke-width:1.13385832;stroke-miterlimit:4;stroke-dasharray:none;paint-order:markers fill stroke"
         id="path125" />
      <path
         d="m 377.83501,385.06821 q 0,-0.91407 0.26562,-1.69532 0.26563,-0.78906 0.75781,-1.36718 0.5,-0.57813 1.21094,-0.90625 0.71094,-0.33594 1.60156,-0.33594 0.89844,0 1.60938,0.33594 0.71875,0.32812 1.21094,0.90625 0.5,0.57812 0.76562,1.36718 0.26563,0.78125 0.26563,1.69532 v 0.17187 q 0,0.91406 -0.26563,1.69531 -0.26562,0.78125 -0.76562,1.35938 -0.49219,0.57812 -1.20313,0.90625 -0.71094,0.32812 -1.60156,0.32812 -0.89844,0 -1.61719,-0.32812 -0.71094,-0.32813 -1.21094,-0.90625 -0.49218,-0.57813 -0.75781,-1.35938 -0.26562,-0.78125 -0.26562,-1.69531 z m 1.44531,0.17187 q 0,0.625 0.14844,1.19531 0.14843,0.5625 0.44531,0.99219 0.30469,0.42969 0.75781,0.67969 0.45313,0.25 1.05469,0.25 0.59375,0 1.03906,-0.25 0.45313,-0.25 0.75,-0.67969 0.30469,-0.42969 0.45313,-0.99219 0.14843,-0.57031 0.14843,-1.19531 v -0.17187 q 0,-0.61719 -0.15625,-1.17969 -0.14843,-0.57031 -0.45312,-1 -0.29688,-0.42969 -0.75,-0.67969 -0.44531,-0.25781 -1.04688,-0.25781 -0.60156,0 -1.04687,0.25781 -0.44531,0.25 -0.75,0.67969 -0.29688,0.42969 -0.44531,1 -0.14844,0.5625 -0.14844,1.17969 z"
         style="font-style:normal;font-variant:normal;font-weight:normal;font-stretch:normal;font-size:16px;font-family:'Roboto Mono';-inkscape-font-specification:'Roboto Mono';stroke-width:1.13385832;stroke-miterlimit:4;stroke-dasharray:none;paint-order:markers fill stroke"
         id="path127" />
      <path
         d="m 393.37407,380.76352 q 0.20312,0 0.42187,0.0156 0.21875,0.008 0.41407,0.0391 0.20312,0.0234 0.36718,0.0625 0.17188,0.0391 0.28125,0.0859 l -0.19531,1.41407 q -0.42187,-0.0937 -0.80469,-0.13282 -0.375,-0.0469 -0.78906,-0.0469 -1.01562,0 -1.64844,0.46094 -0.625,0.46093 -0.92187,1.28906 v 5.42187 h -1.45313 v -8.45312 h 1.375 l 0.0703,1.34375 q 0.51562,-0.69531 1.23437,-1.09375 0.72656,-0.40625 1.64844,-0.40625 z"
         style="font-style:normal;font-variant:normal;font-weight:normal;font-stretch:normal;font-size:16px;font-family:'Roboto Mono';-inkscape-font-specification:'Roboto Mono';stroke-width:1.13385832;stroke-miterlimit:4;stroke-dasharray:none;paint-order:markers fill stroke"
         id="path129" />
      <path
         d="m 398.09282,380.91977 0.0391,0.79687 q 0.25781,-0.44531 0.67188,-0.69531 0.42187,-0.25 1.01562,-0.25781 1.16406,0 1.55469,0.90625 0.25,-0.40625 0.65625,-0.64844 0.41406,-0.25 1,-0.25781 0.92969,0 1.42969,0.57031 0.5,0.57031 0.5,1.72656 v 6.3125 h -1.375 v -6.32812 q 0,-1.0625 -0.97657,-1.05469 -0.25781,0 -0.44531,0.0703 -0.1875,0.0703 -0.3125,0.19532 -0.125,0.11718 -0.19531,0.28125 -0.0703,0.15625 -0.0937,0.32812 v 6.50781 h -1.375 v -6.33593 q 0,-0.50782 -0.22656,-0.78125 -0.22657,-0.27344 -0.71875,-0.26563 -0.45313,0 -0.70313,0.17969 -0.25,0.17969 -0.36719,0.47656 v 6.72656 h -1.375 v -8.45312 z"
         style="font-style:normal;font-variant:normal;font-weight:normal;font-stretch:normal;font-size:16px;font-family:'Roboto Mono';-inkscape-font-specification:'Roboto Mono';stroke-width:1.13385832;stroke-miterlimit:4;stroke-dasharray:none;paint-order:markers fill stroke"
         id="path131" />
      <path
         d="m 410.68657,389.03696 q 0,0.36718 -0.0937,0.76562 -0.0859,0.40625 -0.26563,0.79688 -0.17187,0.39843 -0.42187,0.75781 -0.25,0.35937 -0.57813,0.64062 l -0.89843,-0.49218 q 0.375,-0.54688 0.53125,-1.16407 0.15625,-0.61718 0.15625,-1.28125 v -1.39843 h 1.57031 z"
         style="font-style:normal;font-variant:normal;font-weight:normal;font-stretch:normal;font-size:16px;font-family:'Roboto Mono';-inkscape-font-specification:'Roboto Mono';stroke-width:1.13385832;stroke-miterlimit:4;stroke-dasharray:none;paint-order:markers fill stroke"
         id="path133" />
      <path
         d="m 427.50688,380.91977 0.10156,1.25 q 0.46094,-0.65625 1.13282,-1.02344 0.67187,-0.375 1.5,-0.38281 0.66406,0 1.20312,0.1875 0.54688,0.1875 0.92969,0.58594 0.38281,0.39843 0.58594,1.01562 0.21093,0.60938 0.21093,1.45313 v 5.36718 h -1.44531 v -5.33593 q 0,-0.5625 -0.125,-0.95313 -0.125,-0.39062 -0.375,-0.63281 -0.24219,-0.24219 -0.60156,-0.35156 -0.35156,-0.10938 -0.8125,-0.10938 -0.72656,0 -1.28125,0.36719 -0.54688,0.35937 -0.875,0.95312 v 6.0625 h -1.44531 v -8.45312 z"
         style="font-style:normal;font-variant:normal;font-weight:normal;font-stretch:normal;font-size:16px;font-family:'Roboto Mono';-inkscape-font-specification:'Roboto Mono';stroke-width:1.13385832;stroke-miterlimit:4;stroke-dasharray:none;paint-order:markers fill stroke"
         id="path135" />
      <path
         d="m 452.36626,383.27914 h -6.97657 v -1.25781 h 6.97657 z m 0,3.24219 h -6.97657 v -1.25 h 6.97657 z"
         style="font-style:normal;font-variant:normal;font-weight:normal;font-stretch:normal;font-size:16px;font-family:'Roboto Mono';-inkscape-font-specification:'Roboto Mono';stroke-width:1.13385832;stroke-miterlimit:4;stroke-dasharray:none;paint-order:markers fill stroke"
         id="path137" />
      <path
         d="m 465.10063,383.66977 0.57031,-5.67188 h 5.83594 v 1.40625 h -4.61719 l -0.32031,3.03125 q 0.33594,-0.19531 0.80469,-0.34375 0.46875,-0.14843 1.08594,-0.14843 0.78906,0 1.41406,0.27343 0.625,0.27344 1.0625,0.77344 0.4375,0.49219 0.67187,1.19531 0.23438,0.70313 0.23438,1.5625 0,0.8125 -0.21875,1.50782 -0.21875,0.69531 -0.66406,1.20312 -0.4375,0.5 -1.10938,0.78906 -0.67187,0.28125 -1.57812,0.28125 -0.69532,0 -1.3125,-0.19531 -0.61719,-0.19531 -1.10157,-0.58594 -0.47656,-0.39062 -0.78906,-0.98437 -0.30469,-0.59375 -0.38281,-1.38281 h 1.375 q 0.13281,0.96875 0.71094,1.46875 0.58593,0.5 1.5,0.5 0.51562,0 0.91406,-0.17969 0.39844,-0.1875 0.66406,-0.52344 0.27344,-0.34375 0.40625,-0.82031 0.14063,-0.47656 0.14063,-1.0625 0,-0.53125 -0.15625,-0.99219 -0.14844,-0.46094 -0.4375,-0.79687 -0.28907,-0.34375 -0.71094,-0.53907 -0.42188,-0.19531 -0.96875,-0.19531 -0.35938,0 -0.625,0.0547 -0.25781,0.0469 -0.46875,0.14062 -0.21094,0.0937 -0.39844,0.22657 -0.17969,0.13281 -0.375,0.30468 z"
         style="font-style:normal;font-variant:normal;font-weight:normal;font-stretch:normal;font-size:16px;font-family:'Roboto Mono';-inkscape-font-specification:'Roboto Mono';stroke-width:1.13385832;stroke-miterlimit:4;stroke-dasharray:none;paint-order:markers fill stroke"
         id="path139" />
      <path
         d="m 479.45219,384.83383 q 0,1.11719 -0.17968,2.10156 -0.17188,0.98438 -0.46875,1.82813 -0.29688,0.83594 -0.6875,1.52344 -0.38282,0.69531 -0.8125,1.23437 -0.42188,0.54688 -0.85938,0.92188 -0.42969,0.38281 -0.82031,0.60156 l -0.30469,-0.88281 q 0.48438,-0.35938 0.96094,-1.00782 0.48437,-0.64062 0.85937,-1.55468 0.38282,-0.91407 0.61719,-2.10157 0.24219,-1.1875 0.24219,-2.64843 v -0.10938 q 0,-1.46094 -0.25,-2.64844 -0.25,-1.19531 -0.64844,-2.10937 -0.39062,-0.92188 -0.86719,-1.5625 -0.46875,-0.64063 -0.91406,-1 l 0.30469,-0.88281 q 0.39062,0.21875 0.82031,0.60156 0.4375,0.38281 0.85938,0.92187 0.42968,0.53907 0.8125,1.23438 0.39062,0.69531 0.6875,1.53906 0.29687,0.83594 0.46875,1.82031 0.17968,0.98438 0.17968,2.10157 z"
         style="font-style:normal;font-variant:normal;font-weight:normal;font-stretch:normal;font-size:16px;font-family:'Roboto Mono';-inkscape-font-specification:'Roboto Mono';stroke-width:1.13385832;stroke-miterlimit:4;stroke-dasharray:none;paint-order:markers fill stroke"
         id="path141" />
    </g>
    <path
       transform="rotate(90)"
       style="fill:#ebebeb;fill-opacity:1;stroke:#000000;stroke-width:1.13385832;stroke-miterlimit:4;stroke-dasharray:none;paint-order:markers fill stroke"
       d="m 412.92883,-415.92365 h 21.32744 v 147.47417 h -21.32744 z"
       id="rect2472" />
    <g
       aria-label="rnorm(5, 1, n = 5)"
       style="font-style:normal;font-weight:normal;font-size:40px;line-height:1.25;font-family:sans-serif;letter-spacing:0px;word-spacing:0px;fill:#000000;fill-opacity:1;stroke:none;stroke-width:1.13385832;stroke-miterlimit:4;stroke-dasharray:none;paint-order:markers fill stroke"
       id="text2476">
      <path
         d="m 287.05768,422.04565 q -0.32813,-0.0547 -0.71094,-0.0547 -1.42187,0 -1.92969,1.21093 v 6 h -1.44531 v -8.45312 h 1.40625 l 0.0234,0.97656 q 0.71094,-1.13281 2.01562,-1.13281 0.42188,0 0.64063,0.10937 z"
         style="font-style:normal;font-variant:normal;font-weight:normal;font-stretch:normal;font-size:16px;font-family:Roboto;-inkscape-font-specification:Roboto;stroke-width:1.13385832;stroke-miterlimit:4;stroke-dasharray:none;paint-order:markers fill stroke"
         id="path145" />
      <path
         d="m 289.74518,420.74878 0.0469,1.0625 q 0.96875,-1.21875 2.53125,-1.21875 2.67969,0 2.70313,3.02344 v 5.58593 h -1.44531 v -5.59375 q -0.008,-0.91406 -0.42188,-1.35156 -0.40625,-0.4375 -1.27344,-0.4375 -0.70312,0 -1.23437,0.375 -0.53125,0.375 -0.82813,0.98438 v 6.02343 h -1.44531 v -8.45312 z"
         style="font-style:normal;font-variant:normal;font-weight:normal;font-stretch:normal;font-size:16px;font-family:Roboto;-inkscape-font-specification:Roboto;stroke-width:1.13385832;stroke-miterlimit:4;stroke-dasharray:none;paint-order:markers fill stroke"
         id="path147" />
      <path
         d="m 296.83893,424.89722 q 0,-1.24219 0.48437,-2.23438 0.49219,-0.99219 1.35938,-1.53125 0.875,-0.53906 1.99219,-0.53906 1.72656,0 2.78906,1.19531 1.07031,1.19531 1.07031,3.17969 v 0.10156 q 0,1.23438 -0.47656,2.21875 -0.46875,0.97656 -1.35156,1.52344 -0.875,0.54687 -2.01563,0.54687 -1.71875,0 -2.78906,-1.19531 -1.0625,-1.19531 -1.0625,-3.16406 z m 1.45312,0.17187 q 0,1.40625 0.64844,2.25781 0.65625,0.85157 1.75,0.85157 1.10156,0 1.75,-0.85938 0.64844,-0.86719 0.64844,-2.42187 0,-1.39063 -0.66406,-2.25 -0.65625,-0.86719 -1.75,-0.86719 -1.07032,0 -1.72657,0.85156 -0.65625,0.85156 -0.65625,2.4375 z"
         style="font-style:normal;font-variant:normal;font-weight:normal;font-stretch:normal;font-size:16px;font-family:Roboto;-inkscape-font-specification:Roboto;stroke-width:1.13385832;stroke-miterlimit:4;stroke-dasharray:none;paint-order:markers fill stroke"
         id="path149" />
      <path
         d="m 310.43268,422.04565 q -0.32813,-0.0547 -0.71094,-0.0547 -1.42187,0 -1.92969,1.21093 v 6 h -1.44531 v -8.45312 h 1.40625 l 0.0234,0.97656 q 0.71094,-1.13281 2.01562,-1.13281 0.42188,0 0.64063,0.10937 z"
         style="font-style:normal;font-variant:normal;font-weight:normal;font-stretch:normal;font-size:16px;font-family:Roboto;-inkscape-font-specification:Roboto;stroke-width:1.13385832;stroke-miterlimit:4;stroke-dasharray:none;paint-order:markers fill stroke"
         id="path151" />
      <path
         d="m 313.11237,420.74878 0.0391,0.9375 q 0.92969,-1.09375 2.50781,-1.09375 1.77344,0 2.41406,1.35937 0.42188,-0.60937 1.09375,-0.98437 0.67969,-0.375 1.60157,-0.375 2.78125,0 2.82812,2.94531 v 5.66406 h -1.44531 v -5.57812 q 0,-0.90625 -0.41406,-1.35156 -0.41407,-0.45313 -1.39063,-0.45313 -0.80469,0 -1.33594,0.48438 -0.53125,0.47656 -0.61718,1.28906 v 5.60937 h -1.45313 v -5.53906 q 0,-1.84375 -1.80469,-1.84375 -1.42187,0 -1.94531,1.21094 v 6.17187 h -1.44531 v -8.45312 z"
         style="font-style:normal;font-variant:normal;font-weight:normal;font-stretch:normal;font-size:16px;font-family:Roboto;-inkscape-font-specification:Roboto;stroke-width:1.13385832;stroke-miterlimit:4;stroke-dasharray:none;paint-order:markers fill stroke"
         id="path153" />
      <path
         d="m 325.72955,424.58472 q 0,-1.76563 0.46875,-3.39063 0.47657,-1.625 1.41407,-2.95312 0.9375,-1.32813 1.94531,-1.875 l 0.29687,0.95312 q -1.14062,0.875 -1.875,2.67188 -0.72656,1.79687 -0.79687,4.02343 l -0.008,0.66407 q 0,3.01562 1.10156,5.23437 0.66406,1.32813 1.57812,2.07813 l -0.29687,0.88281 q -1.03906,-0.57813 -1.98438,-1.9375 -1.84375,-2.65625 -1.84375,-6.35156 z"
         style="font-style:normal;font-variant:normal;font-weight:normal;font-stretch:normal;font-size:16px;font-family:Roboto;-inkscape-font-specification:Roboto;stroke-width:1.13385832;stroke-miterlimit:4;stroke-dasharray:none;paint-order:markers fill stroke"
         id="path155" />
      <path
         d="m 331.76862,423.49878 0.57812,-5.67188 h 5.82813 v 1.33594 h -4.60157 l -0.34375,3.10156 q 0.83594,-0.49218 1.89844,-0.49218 1.55469,0 2.46875,1.03125 0.91406,1.02343 0.91406,2.77343 0,1.75782 -0.95312,2.77344 -0.94531,1.00781 -2.64844,1.00781 -1.50781,0 -2.46094,-0.83593 -0.95312,-0.83594 -1.08593,-2.3125 h 1.36718 q 0.13282,0.97656 0.69532,1.47656 0.5625,0.49219 1.48437,0.49219 1.00781,0 1.57813,-0.6875 0.57812,-0.6875 0.57812,-1.89844 0,-1.14063 -0.625,-1.82813 -0.61719,-0.69531 -1.64844,-0.69531 -0.94531,0 -1.48437,0.41406 l -0.38281,0.3125 z"
         style="font-style:normal;font-variant:normal;font-weight:normal;font-stretch:normal;font-size:16px;font-family:Roboto;-inkscape-font-specification:Roboto;stroke-width:1.13385832;stroke-miterlimit:4;stroke-dasharray:none;paint-order:markers fill stroke"
         id="path157" />
      <path
         d="m 340.20612,431.46753 -0.82032,-0.5625 q 0.73438,-1.02344 0.76563,-2.10938 v -1.30468 h 1.41406 v 1.13281 q 0,0.78906 -0.39062,1.57812 -0.38282,0.78907 -0.96875,1.26563 z"
         style="font-style:normal;font-variant:normal;font-weight:normal;font-stretch:normal;font-size:16px;font-family:Roboto;-inkscape-font-specification:Roboto;stroke-width:1.13385832;stroke-miterlimit:4;stroke-dasharray:none;paint-order:markers fill stroke"
         id="path159" />
      <path
         d="m 351.97955,429.2019 h -1.45312 v -9.63281 l -2.91406,1.07031 v -1.3125 l 4.14062,-1.55468 h 0.22656 z"
         style="font-style:normal;font-variant:normal;font-weight:normal;font-stretch:normal;font-size:16px;font-family:Roboto;-inkscape-font-specification:Roboto;stroke-width:1.13385832;stroke-miterlimit:4;stroke-dasharray:none;paint-order:markers fill stroke"
         id="path161" />
      <path
         d="m 356.33112,431.46753 -0.82032,-0.5625 q 0.73438,-1.02344 0.76563,-2.10938 v -1.30468 h 1.41406 v 1.13281 q 0,0.78906 -0.39062,1.57812 -0.38282,0.78907 -0.96875,1.26563 z"
         style="font-style:normal;font-variant:normal;font-weight:normal;font-stretch:normal;font-size:16px;font-family:Roboto;-inkscape-font-specification:Roboto;stroke-width:1.13385832;stroke-miterlimit:4;stroke-dasharray:none;paint-order:markers fill stroke"
         id="path163" />
      <path
         d="m 364.87018,420.74878 0.0469,1.0625 q 0.96875,-1.21875 2.53125,-1.21875 2.67969,0 2.70313,3.02344 v 5.58593 h -1.44531 v -5.59375 q -0.008,-0.91406 -0.42188,-1.35156 -0.40625,-0.4375 -1.27344,-0.4375 -0.70312,0 -1.23437,0.375 -0.53125,0.375 -0.82813,0.98438 v 6.02343 h -1.44531 v -8.45312 z"
         style="font-style:normal;font-variant:normal;font-weight:normal;font-stretch:normal;font-size:16px;font-family:Roboto;-inkscape-font-specification:Roboto;stroke-width:1.13385832;stroke-miterlimit:4;stroke-dasharray:none;paint-order:markers fill stroke"
         id="path165" />
      <path
         d="m 382.92487,422.84253 h -6.51563 v -1.25781 h 6.51563 z m 0,3.24219 h -6.51563 v -1.25 h 6.51563 z"
         style="font-style:normal;font-variant:normal;font-weight:normal;font-stretch:normal;font-size:16px;font-family:Roboto;-inkscape-font-specification:Roboto;stroke-width:1.13385832;stroke-miterlimit:4;stroke-dasharray:none;paint-order:markers fill stroke"
         id="path167" />
      <path
         d="m 389.58112,423.49878 0.57812,-5.67188 h 5.82813 v 1.33594 h -4.60157 l -0.34375,3.10156 q 0.83594,-0.49218 1.89844,-0.49218 1.55469,0 2.46875,1.03125 0.91406,1.02343 0.91406,2.77343 0,1.75782 -0.95312,2.77344 -0.94531,1.00781 -2.64844,1.00781 -1.50781,0 -2.46094,-0.83593 -0.95312,-0.83594 -1.08593,-2.3125 h 1.36718 q 0.13282,0.97656 0.69532,1.47656 0.5625,0.49219 1.48437,0.49219 1.00781,0 1.57813,-0.6875 0.57812,-0.6875 0.57812,-1.89844 0,-1.14063 -0.625,-1.82813 -0.61719,-0.69531 -1.64844,-0.69531 -0.94531,0 -1.48437,0.41406 l -0.38281,0.3125 z"
         style="font-style:normal;font-variant:normal;font-weight:normal;font-stretch:normal;font-size:16px;font-family:Roboto;-inkscape-font-specification:Roboto;stroke-width:1.13385832;stroke-miterlimit:4;stroke-dasharray:none;paint-order:markers fill stroke"
         id="path169" />
      <path
         d="m 401.40143,424.66284 q 0,1.74219 -0.46094,3.34375 -0.45312,1.59375 -1.39844,2.94531 -0.9375,1.35157 -1.96875,1.92188 l -0.30468,-0.88281 q 1.20312,-0.92188 1.92968,-2.85938 0.73438,-1.94531 0.75,-4.3125 v -0.25 q 0,-1.64062 -0.34375,-3.04687 -0.34375,-1.41407 -0.96093,-2.53125 -0.60938,-1.11719 -1.375,-1.74219 l 0.30468,-0.88281 q 1.03125,0.57031 1.96094,1.90625 0.9375,1.33593 1.39844,2.94531 0.46875,1.60937 0.46875,3.44531 z"
         style="font-style:normal;font-variant:normal;font-weight:normal;font-stretch:normal;font-size:16px;font-family:Roboto;-inkscape-font-specification:Roboto;stroke-width:1.13385832;stroke-miterlimit:4;stroke-dasharray:none;paint-order:markers fill stroke"
         id="path171" />
    </g>
    <path
       transform="rotate(90)"
       style="fill:#ebebeb;fill-opacity:1;stroke:#000000;stroke-width:1.13385832;stroke-miterlimit:4;stroke-dasharray:none;paint-order:markers fill stroke"
       d="m 444.91998,-415.92368 h 21.32744 v 147.4742 h -21.32744 z"
       id="rect2478" />
    <g
       aria-label="rnorm(10, 5, n = 5)"
       style="font-style:normal;font-weight:normal;font-size:40px;line-height:1.25;font-family:sans-serif;letter-spacing:0px;word-spacing:0px;fill:#000000;fill-opacity:1;stroke:none;stroke-width:1.13385832;stroke-miterlimit:4;stroke-dasharray:none;paint-order:markers fill stroke"
       id="text2482">
      <path
         d="m 282.55768,454.11493 q -0.32813,-0.0547 -0.71094,-0.0547 -1.42187,0 -1.92969,1.21094 v 6 h -1.44531 v -8.45313 h 1.40625 l 0.0234,0.97657 q 0.71094,-1.13282 2.01562,-1.13282 0.42188,0 0.64063,0.10938 z"
         style="font-style:normal;font-variant:normal;font-weight:normal;font-stretch:normal;font-size:16px;font-family:Roboto;-inkscape-font-specification:Roboto;stroke-width:1.13385832;stroke-miterlimit:4;stroke-dasharray:none;paint-order:markers fill stroke"
         id="path175" />
      <path
         d="m 285.24518,452.81805 0.0469,1.0625 q 0.96875,-1.21875 2.53125,-1.21875 2.67969,0 2.70313,3.02344 v 5.58594 h -1.44531 v -5.59375 q -0.008,-0.91406 -0.42188,-1.35156 -0.40625,-0.4375 -1.27344,-0.4375 -0.70312,0 -1.23437,0.375 -0.53125,0.375 -0.82813,0.98437 v 6.02344 h -1.44531 v -8.45313 z"
         style="font-style:normal;font-variant:normal;font-weight:normal;font-stretch:normal;font-size:16px;font-family:Roboto;-inkscape-font-specification:Roboto;stroke-width:1.13385832;stroke-miterlimit:4;stroke-dasharray:none;paint-order:markers fill stroke"
         id="path177" />
      <path
         d="m 292.33893,456.96649 q 0,-1.24219 0.48437,-2.23437 0.49219,-0.99219 1.35938,-1.53125 0.875,-0.53907 1.99219,-0.53907 1.72656,0 2.78906,1.19532 1.07031,1.19531 1.07031,3.17968 v 0.10157 q 0,1.23437 -0.47656,2.21875 -0.46875,0.97656 -1.35156,1.52343 -0.875,0.54688 -2.01563,0.54688 -1.71875,0 -2.78906,-1.19531 -1.0625,-1.19532 -1.0625,-3.16407 z m 1.45312,0.17188 q 0,1.40625 0.64844,2.25781 0.65625,0.85156 1.75,0.85156 1.10156,0 1.75,-0.85937 0.64844,-0.86719 0.64844,-2.42188 0,-1.39062 -0.66406,-2.25 -0.65625,-0.86719 -1.75,-0.86719 -1.07032,0 -1.72657,0.85157 -0.65625,0.85156 -0.65625,2.4375 z"
         style="font-style:normal;font-variant:normal;font-weight:normal;font-stretch:normal;font-size:16px;font-family:Roboto;-inkscape-font-specification:Roboto;stroke-width:1.13385832;stroke-miterlimit:4;stroke-dasharray:none;paint-order:markers fill stroke"
         id="path179" />
      <path
         d="m 305.93268,454.11493 q -0.32813,-0.0547 -0.71094,-0.0547 -1.42187,0 -1.92969,1.21094 v 6 h -1.44531 v -8.45313 h 1.40625 l 0.0234,0.97657 q 0.71094,-1.13282 2.01562,-1.13282 0.42188,0 0.64063,0.10938 z"
         style="font-style:normal;font-variant:normal;font-weight:normal;font-stretch:normal;font-size:16px;font-family:Roboto;-inkscape-font-specification:Roboto;stroke-width:1.13385832;stroke-miterlimit:4;stroke-dasharray:none;paint-order:markers fill stroke"
         id="path181" />
      <path
         d="m 308.61237,452.81805 0.0391,0.9375 q 0.92969,-1.09375 2.50781,-1.09375 1.77344,0 2.41406,1.35938 0.42188,-0.60938 1.09375,-0.98438 0.67969,-0.375 1.60157,-0.375 2.78125,0 2.82812,2.94532 v 5.66406 h -1.44531 v -5.57813 q 0,-0.90625 -0.41406,-1.35156 -0.41407,-0.45312 -1.39063,-0.45312 -0.80469,0 -1.33594,0.48437 -0.53125,0.47656 -0.61718,1.28906 v 5.60938 h -1.45313 v -5.53906 q 0,-1.84375 -1.80469,-1.84375 -1.42187,0 -1.94531,1.21093 v 6.17188 h -1.44531 v -8.45313 z"
         style="font-style:normal;font-variant:normal;font-weight:normal;font-stretch:normal;font-size:16px;font-family:Roboto;-inkscape-font-specification:Roboto;stroke-width:1.13385832;stroke-miterlimit:4;stroke-dasharray:none;paint-order:markers fill stroke"
         id="path183" />
      <path
         d="m 321.22955,456.65399 q 0,-1.76562 0.46875,-3.39062 0.47657,-1.625 1.41407,-2.95313 0.9375,-1.32812 1.94531,-1.875 l 0.29687,0.95313 q -1.14062,0.875 -1.875,2.67187 -0.72656,1.79688 -0.79687,4.02344 l -0.008,0.66406 q 0,3.01563 1.10156,5.23438 0.66406,1.32812 1.57812,2.07812 l -0.29687,0.88281 q -1.03906,-0.57812 -1.98438,-1.9375 -1.84375,-2.65625 -1.84375,-6.35156 z"
         style="font-style:normal;font-variant:normal;font-weight:normal;font-stretch:normal;font-size:16px;font-family:Roboto;-inkscape-font-specification:Roboto;stroke-width:1.13385832;stroke-miterlimit:4;stroke-dasharray:none;paint-order:markers fill stroke"
         id="path185" />
      <path
         d="m 331.35455,461.27118 h -1.45312 v -9.63281 l -2.91406,1.07031 v -1.3125 l 4.14062,-1.55469 h 0.22656 z"
         style="font-style:normal;font-variant:normal;font-weight:normal;font-stretch:normal;font-size:16px;font-family:Roboto;-inkscape-font-specification:Roboto;stroke-width:1.13385832;stroke-miterlimit:4;stroke-dasharray:none;paint-order:markers fill stroke"
         id="path187" />
      <path
         d="m 342.73737,456.41962 q 0,2.53906 -0.86719,3.77343 -0.86719,1.23438 -2.71094,1.23438 -1.82031,0 -2.69531,-1.20313 -0.875,-1.21093 -0.90625,-3.60937 v -1.92969 q 0,-2.50781 0.86719,-3.72656 0.86718,-1.21875 2.71875,-1.21875 1.83593,0 2.70312,1.17969 0.86719,1.17187 0.89063,3.625 z m -1.44532,-1.97657 q 0,-1.83593 -0.51562,-2.67187 -0.51563,-0.84375 -1.63281,-0.84375 -1.10938,0 -1.61719,0.83594 -0.50781,0.83593 -0.52344,2.57031 v 2.3125 q 0,1.84375 0.53125,2.72656 0.53906,0.875 1.625,0.875 1.07031,0 1.58594,-0.82812 0.52344,-0.82813 0.54687,-2.60938 z"
         style="font-style:normal;font-variant:normal;font-weight:normal;font-stretch:normal;font-size:16px;font-family:Roboto;-inkscape-font-specification:Roboto;stroke-width:1.13385832;stroke-miterlimit:4;stroke-dasharray:none;paint-order:markers fill stroke"
         id="path189" />
      <path
         d="m 344.70612,463.5368 -0.82032,-0.5625 q 0.73438,-1.02343 0.76563,-2.10937 v -1.30469 h 1.41406 v 1.13281 q 0,0.78907 -0.39062,1.57813 -0.38282,0.78906 -0.96875,1.26562 z"
         style="font-style:normal;font-variant:normal;font-weight:normal;font-stretch:normal;font-size:16px;font-family:Roboto;-inkscape-font-specification:Roboto;stroke-width:1.13385832;stroke-miterlimit:4;stroke-dasharray:none;paint-order:markers fill stroke"
         id="path191" />
      <path
         d="m 352.39362,455.56805 0.57812,-5.67187 h 5.82813 v 1.33594 h -4.60157 l -0.34375,3.10156 q 0.83594,-0.49219 1.89844,-0.49219 1.55469,0 2.46875,1.03125 0.91406,1.02344 0.91406,2.77344 0,1.75781 -0.95312,2.77344 -0.94531,1.00781 -2.64844,1.00781 -1.50781,0 -2.46094,-0.83594 -0.95312,-0.83594 -1.08593,-2.3125 h 1.36718 q 0.13282,0.97656 0.69532,1.47656 0.5625,0.49219 1.48437,0.49219 1.00781,0 1.57813,-0.6875 0.57812,-0.6875 0.57812,-1.89844 0,-1.14062 -0.625,-1.82812 -0.61719,-0.69531 -1.64844,-0.69531 -0.94531,0 -1.48437,0.41406 l -0.38281,0.3125 z"
         style="font-style:normal;font-variant:normal;font-weight:normal;font-stretch:normal;font-size:16px;font-family:Roboto;-inkscape-font-specification:Roboto;stroke-width:1.13385832;stroke-miterlimit:4;stroke-dasharray:none;paint-order:markers fill stroke"
         id="path193" />
      <path
         d="m 360.83112,463.5368 -0.82032,-0.5625 q 0.73438,-1.02343 0.76563,-2.10937 v -1.30469 h 1.41406 v 1.13281 q 0,0.78907 -0.39062,1.57813 -0.38282,0.78906 -0.96875,1.26562 z"
         style="font-style:normal;font-variant:normal;font-weight:normal;font-stretch:normal;font-size:16px;font-family:Roboto;-inkscape-font-specification:Roboto;stroke-width:1.13385832;stroke-miterlimit:4;stroke-dasharray:none;paint-order:markers fill stroke"
         id="path195" />
      <path
         d="m 369.37018,452.81805 0.0469,1.0625 q 0.96875,-1.21875 2.53125,-1.21875 2.67969,0 2.70313,3.02344 v 5.58594 h -1.44531 v -5.59375 q -0.008,-0.91406 -0.42188,-1.35156 -0.40625,-0.4375 -1.27344,-0.4375 -0.70312,0 -1.23437,0.375 -0.53125,0.375 -0.82813,0.98437 v 6.02344 h -1.44531 v -8.45313 z"
         style="font-style:normal;font-variant:normal;font-weight:normal;font-stretch:normal;font-size:16px;font-family:Roboto;-inkscape-font-specification:Roboto;stroke-width:1.13385832;stroke-miterlimit:4;stroke-dasharray:none;paint-order:markers fill stroke"
         id="path197" />
      <path
         d="m 387.42487,454.9118 h -6.51563 v -1.25781 h 6.51563 z m 0,3.24219 h -6.51563 v -1.25 h 6.51563 z"
         style="font-style:normal;font-variant:normal;font-weight:normal;font-stretch:normal;font-size:16px;font-family:Roboto;-inkscape-font-specification:Roboto;stroke-width:1.13385832;stroke-miterlimit:4;stroke-dasharray:none;paint-order:markers fill stroke"
         id="path199" />
      <path
         d="m 394.08112,455.56805 0.57812,-5.67187 h 5.82813 v 1.33594 h -4.60157 l -0.34375,3.10156 q 0.83594,-0.49219 1.89844,-0.49219 1.55469,0 2.46875,1.03125 0.91406,1.02344 0.91406,2.77344 0,1.75781 -0.95312,2.77344 -0.94531,1.00781 -2.64844,1.00781 -1.50781,0 -2.46094,-0.83594 -0.95312,-0.83594 -1.08593,-2.3125 h 1.36718 q 0.13282,0.97656 0.69532,1.47656 0.5625,0.49219 1.48437,0.49219 1.00781,0 1.57813,-0.6875 0.57812,-0.6875 0.57812,-1.89844 0,-1.14062 -0.625,-1.82812 -0.61719,-0.69531 -1.64844,-0.69531 -0.94531,0 -1.48437,0.41406 l -0.38281,0.3125 z"
         style="font-style:normal;font-variant:normal;font-weight:normal;font-stretch:normal;font-size:16px;font-family:Roboto;-inkscape-font-specification:Roboto;stroke-width:1.13385832;stroke-miterlimit:4;stroke-dasharray:none;paint-order:markers fill stroke"
         id="path201" />
      <path
         d="m 405.90143,456.73212 q 0,1.74218 -0.46094,3.34375 -0.45312,1.59375 -1.39844,2.94531 -0.9375,1.35156 -1.96875,1.92187 l -0.30468,-0.88281 q 1.20312,-0.92187 1.92968,-2.85937 0.73438,-1.94532 0.75,-4.3125 v -0.25 q 0,-1.64063 -0.34375,-3.04688 -0.34375,-1.41406 -0.96093,-2.53125 -0.60938,-1.11719 -1.375,-1.74219 l 0.30468,-0.88281 q 1.03125,0.57031 1.96094,1.90625 0.9375,1.33594 1.39844,2.94531 0.46875,1.60938 0.46875,3.44532 z"
         style="font-style:normal;font-variant:normal;font-weight:normal;font-stretch:normal;font-size:16px;font-family:Roboto;-inkscape-font-specification:Roboto;stroke-width:1.13385832;stroke-miterlimit:4;stroke-dasharray:none;paint-order:markers fill stroke"
         id="path203" />
    </g>
    <path
       transform="rotate(90)"
       style="fill:#ebebeb;fill-opacity:1;stroke:#000000;stroke-width:1.13385832;stroke-miterlimit:4;stroke-dasharray:none;paint-order:markers fill stroke"
       d="m 476.91116,-415.92368 h 21.32744 v 147.4742 h -21.32744 z"
       id="rect2484" />
    <g
       aria-label="rnorm(-3, 10, n = 5)"
       style="font-style:normal;font-weight:normal;font-size:40px;line-height:1.25;font-family:sans-serif;letter-spacing:0px;word-spacing:0px;fill:#000000;fill-opacity:1;stroke:none;stroke-width:1.13385832;stroke-miterlimit:4;stroke-dasharray:none;paint-order:markers fill stroke"
       id="text2488">
      <path
         d="m 280.35455,486.10611 q -0.32812,-0.0547 -0.71093,-0.0547 -1.42188,0 -1.92969,1.21094 v 6 h -1.44531 v -8.45313 h 1.40625 l 0.0234,0.97657 q 0.71094,-1.13282 2.01563,-1.13282 0.42187,0 0.64062,0.10938 z"
         style="font-style:normal;font-variant:normal;font-weight:normal;font-stretch:normal;font-size:16px;font-family:Roboto;-inkscape-font-specification:Roboto;stroke-width:1.13385832;stroke-miterlimit:4;stroke-dasharray:none;paint-order:markers fill stroke"
         id="path207" />
      <path
         d="m 283.04205,484.80923 0.0469,1.0625 q 0.96875,-1.21875 2.53125,-1.21875 2.67969,0 2.70312,3.02344 v 5.58594 h -1.44531 v -5.59375 q -0.008,-0.91406 -0.42187,-1.35156 -0.40625,-0.4375 -1.27344,-0.4375 -0.70313,0 -1.23438,0.375 -0.53125,0.375 -0.82812,0.98437 v 6.02344 h -1.44531 v -8.45313 z"
         style="font-style:normal;font-variant:normal;font-weight:normal;font-stretch:normal;font-size:16px;font-family:Roboto;-inkscape-font-specification:Roboto;stroke-width:1.13385832;stroke-miterlimit:4;stroke-dasharray:none;paint-order:markers fill stroke"
         id="path209" />
      <path
         d="m 290.1358,488.95767 q 0,-1.24219 0.48438,-2.23437 0.49219,-0.99219 1.35937,-1.53125 0.875,-0.53907 1.99219,-0.53907 1.72656,0 2.78906,1.19532 1.07032,1.19531 1.07032,3.17968 v 0.10157 q 0,1.23437 -0.47657,2.21875 -0.46875,0.97656 -1.35156,1.52343 -0.875,0.54688 -2.01562,0.54688 -1.71875,0 -2.78907,-1.19531 -1.0625,-1.19532 -1.0625,-3.16407 z m 1.45313,0.17188 q 0,1.40625 0.64844,2.25781 0.65625,0.85156 1.75,0.85156 1.10156,0 1.75,-0.85937 0.64843,-0.86719 0.64843,-2.42188 0,-1.39062 -0.66406,-2.25 -0.65625,-0.86719 -1.75,-0.86719 -1.07031,0 -1.72656,0.85157 -0.65625,0.85156 -0.65625,2.4375 z"
         style="font-style:normal;font-variant:normal;font-weight:normal;font-stretch:normal;font-size:16px;font-family:Roboto;-inkscape-font-specification:Roboto;stroke-width:1.13385832;stroke-miterlimit:4;stroke-dasharray:none;paint-order:markers fill stroke"
         id="path211" />
      <path
         d="m 303.72955,486.10611 q -0.32812,-0.0547 -0.71093,-0.0547 -1.42188,0 -1.92969,1.21094 v 6 h -1.44531 v -8.45313 h 1.40625 l 0.0234,0.97657 q 0.71094,-1.13282 2.01563,-1.13282 0.42187,0 0.64062,0.10938 z"
         style="font-style:normal;font-variant:normal;font-weight:normal;font-stretch:normal;font-size:16px;font-family:Roboto;-inkscape-font-specification:Roboto;stroke-width:1.13385832;stroke-miterlimit:4;stroke-dasharray:none;paint-order:markers fill stroke"
         id="path213" />
      <path
         d="m 306.40924,484.80923 0.0391,0.9375 q 0.92969,-1.09375 2.50782,-1.09375 1.77343,0 2.41406,1.35938 0.42187,-0.60938 1.09375,-0.98438 0.67969,-0.375 1.60156,-0.375 2.78125,0 2.82813,2.94532 v 5.66406 h -1.44532 v -5.57813 q 0,-0.90625 -0.41406,-1.35156 -0.41406,-0.45312 -1.39062,-0.45312 -0.80469,0 -1.33594,0.48437 -0.53125,0.47656 -0.61719,1.28906 v 5.60938 h -1.45312 v -5.53906 q 0,-1.84375 -1.80469,-1.84375 -1.42188,0 -1.94531,1.21093 v 6.17188 h -1.44532 v -8.45313 z"
         style="font-style:normal;font-variant:normal;font-weight:normal;font-stretch:normal;font-size:16px;font-family:Roboto;-inkscape-font-specification:Roboto;stroke-width:1.13385832;stroke-miterlimit:4;stroke-dasharray:none;paint-order:markers fill stroke"
         id="path215" />
      <path
         d="m 319.02643,488.64517 q 0,-1.76562 0.46875,-3.39062 0.47656,-1.625 1.41406,-2.95313 0.9375,-1.32812 1.94531,-1.875 l 0.29688,0.95313 q -1.14063,0.875 -1.875,2.67187 -0.72656,1.79688 -0.79688,4.02344 l -0.008,0.66406 q 0,3.01563 1.10156,5.23438 0.66407,1.32812 1.57813,2.07812 l -0.29688,0.88281 q -1.03906,-0.57812 -1.98437,-1.9375 -1.84375,-2.65625 -1.84375,-6.35156 z"
         style="font-style:normal;font-variant:normal;font-weight:normal;font-stretch:normal;font-size:16px;font-family:Roboto;-inkscape-font-specification:Roboto;stroke-width:1.13385832;stroke-miterlimit:4;stroke-dasharray:none;paint-order:markers fill stroke"
         id="path217" />
      <path
         d="m 327.55768,489.02017 h -3.8125 v -1.17969 h 3.8125 z"
         style="font-style:normal;font-variant:normal;font-weight:normal;font-stretch:normal;font-size:16px;font-family:Roboto;-inkscape-font-specification:Roboto;stroke-width:1.13385832;stroke-miterlimit:4;stroke-dasharray:none;paint-order:markers fill stroke"
         id="path219" />
      <path
         d="m 330.90924,486.87173 h 1.08594 q 1.02344,-0.0156 1.60937,-0.53906 0.58594,-0.52344 0.58594,-1.41406 0,-2 -1.99219,-2 -0.9375,0 -1.5,0.53906 -0.55468,0.53125 -0.55468,1.41406 h -1.44532 q 0,-1.35156 0.98438,-2.24218 0.99219,-0.89844 2.51562,-0.89844 1.60938,0 2.52344,0.85156 0.91406,0.85156 0.91406,2.36719 0,0.74219 -0.48437,1.4375 -0.47656,0.69531 -1.30469,1.03906 0.9375,0.29688 1.44531,0.98438 0.51563,0.6875 0.51563,1.67968 0,1.53125 -1,2.42969 -1,0.89844 -2.60156,0.89844 -1.60157,0 -2.60938,-0.86719 -1,-0.86719 -1,-2.28906 h 1.45313 q 0,0.89844 0.58593,1.4375 0.58594,0.53906 1.57032,0.53906 1.04687,0 1.60156,-0.54687 0.55469,-0.54688 0.55469,-1.57032 0,-0.99218 -0.60938,-1.52343 -0.60937,-0.53125 -1.75781,-0.54688 h -1.08594 z"
         style="font-style:normal;font-variant:normal;font-weight:normal;font-stretch:normal;font-size:16px;font-family:Roboto;-inkscape-font-specification:Roboto;stroke-width:1.13385832;stroke-miterlimit:4;stroke-dasharray:none;paint-order:markers fill stroke"
         id="path221" />
      <path
         d="m 337.90924,495.52798 -0.82031,-0.5625 q 0.73437,-1.02343 0.76562,-2.10937 v -1.30469 h 1.41407 v 1.13281 q 0,0.78907 -0.39063,1.57813 -0.38281,0.78906 -0.96875,1.26562 z"
         style="font-style:normal;font-variant:normal;font-weight:normal;font-stretch:normal;font-size:16px;font-family:Roboto;-inkscape-font-specification:Roboto;stroke-width:1.13385832;stroke-miterlimit:4;stroke-dasharray:none;paint-order:markers fill stroke"
         id="path223" />
      <path
         d="m 349.68268,493.26236 h -1.45313 v -9.63281 l -2.91406,1.07031 v -1.3125 l 4.14063,-1.55469 h 0.22656 z"
         style="font-style:normal;font-variant:normal;font-weight:normal;font-stretch:normal;font-size:16px;font-family:Roboto;-inkscape-font-specification:Roboto;stroke-width:1.13385832;stroke-miterlimit:4;stroke-dasharray:none;paint-order:markers fill stroke"
         id="path225" />
      <path
         d="m 361.06549,488.4108 q 0,2.53906 -0.86719,3.77343 -0.86718,1.23438 -2.71093,1.23438 -1.82032,0 -2.69532,-1.20313 -0.875,-1.21093 -0.90625,-3.60937 v -1.92969 q 0,-2.50781 0.86719,-3.72656 0.86719,-1.21875 2.71875,-1.21875 1.83594,0 2.70313,1.17969 0.86718,1.17187 0.89062,3.625 z m -1.44531,-1.97657 q 0,-1.83593 -0.51563,-2.67187 -0.51562,-0.84375 -1.63281,-0.84375 -1.10937,0 -1.61719,0.83594 -0.50781,0.83593 -0.52343,2.57031 v 2.3125 q 0,1.84375 0.53125,2.72656 0.53906,0.875 1.625,0.875 1.07031,0 1.58593,-0.82812 0.52344,-0.82813 0.54688,-2.60938 z"
         style="font-style:normal;font-variant:normal;font-weight:normal;font-stretch:normal;font-size:16px;font-family:Roboto;-inkscape-font-specification:Roboto;stroke-width:1.13385832;stroke-miterlimit:4;stroke-dasharray:none;paint-order:markers fill stroke"
         id="path227" />
      <path
         d="m 363.03424,495.52798 -0.82031,-0.5625 q 0.73437,-1.02343 0.76562,-2.10937 v -1.30469 h 1.41407 v 1.13281 q 0,0.78907 -0.39063,1.57813 -0.38281,0.78906 -0.96875,1.26562 z"
         style="font-style:normal;font-variant:normal;font-weight:normal;font-stretch:normal;font-size:16px;font-family:Roboto;-inkscape-font-specification:Roboto;stroke-width:1.13385832;stroke-miterlimit:4;stroke-dasharray:none;paint-order:markers fill stroke"
         id="path229" />
      <path
         d="m 371.5733,484.80923 0.0469,1.0625 q 0.96875,-1.21875 2.53125,-1.21875 2.67969,0 2.70312,3.02344 v 5.58594 h -1.44531 v -5.59375 q -0.008,-0.91406 -0.42187,-1.35156 -0.40625,-0.4375 -1.27344,-0.4375 -0.70313,0 -1.23438,0.375 -0.53125,0.375 -0.82812,0.98437 v 6.02344 h -1.44531 v -8.45313 z"
         style="font-style:normal;font-variant:normal;font-weight:normal;font-stretch:normal;font-size:16px;font-family:Roboto;-inkscape-font-specification:Roboto;stroke-width:1.13385832;stroke-miterlimit:4;stroke-dasharray:none;paint-order:markers fill stroke"
         id="path231" />
      <path
         d="m 389.62799,486.90298 h -6.51562 v -1.25781 h 6.51562 z m 0,3.24219 h -6.51562 v -1.25 h 6.51562 z"
         style="font-style:normal;font-variant:normal;font-weight:normal;font-stretch:normal;font-size:16px;font-family:Roboto;-inkscape-font-specification:Roboto;stroke-width:1.13385832;stroke-miterlimit:4;stroke-dasharray:none;paint-order:markers fill stroke"
         id="path233" />
      <path
         d="m 396.28424,487.55923 0.57813,-5.67187 h 5.82812 v 1.33594 h -4.60156 l -0.34375,3.10156 q 0.83594,-0.49219 1.89844,-0.49219 1.55468,0 2.46875,1.03125 0.91406,1.02344 0.91406,2.77344 0,1.75781 -0.95313,2.77344 -0.94531,1.00781 -2.64843,1.00781 -1.50782,0 -2.46094,-0.83594 -0.95313,-0.83594 -1.08594,-2.3125 h 1.36719 q 0.13281,0.97656 0.69531,1.47656 0.5625,0.49219 1.48438,0.49219 1.00781,0 1.57812,-0.6875 0.57813,-0.6875 0.57813,-1.89844 0,-1.14062 -0.625,-1.82812 -0.61719,-0.69531 -1.64844,-0.69531 -0.94531,0 -1.48438,0.41406 l -0.38281,0.3125 z"
         style="font-style:normal;font-variant:normal;font-weight:normal;font-stretch:normal;font-size:16px;font-family:Roboto;-inkscape-font-specification:Roboto;stroke-width:1.13385832;stroke-miterlimit:4;stroke-dasharray:none;paint-order:markers fill stroke"
         id="path235" />
      <path
         d="m 408.10455,488.7233 q 0,1.74218 -0.46093,3.34375 -0.45313,1.59375 -1.39844,2.94531 -0.9375,1.35156 -1.96875,1.92187 l -0.30469,-0.88281 q 1.20313,-0.92187 1.92969,-2.85937 0.73437,-1.94532 0.75,-4.3125 v -0.25 q 0,-1.64063 -0.34375,-3.04688 -0.34375,-1.41406 -0.96094,-2.53125 -0.60937,-1.11719 -1.375,-1.74219 l 0.30469,-0.88281 q 1.03125,0.57031 1.96094,1.90625 0.9375,1.33594 1.39843,2.94531 0.46875,1.60938 0.46875,3.44532 z"
         style="font-style:normal;font-variant:normal;font-weight:normal;font-stretch:normal;font-size:16px;font-family:Roboto;-inkscape-font-specification:Roboto;stroke-width:1.13385832;stroke-miterlimit:4;stroke-dasharray:none;paint-order:markers fill stroke"
         id="path237" />
    </g>
    <path
       transform="rotate(90)"
       style="fill:none;fill-opacity:1;stroke:#000000;stroke-width:1.13385832;stroke-miterlimit:4;stroke-dasharray:none;paint-order:markers fill stroke"
       d="m 410.78097,-427.30853 h 89.60544 c 5.1023,0 9.20993,4.10763 9.20993,9.20993 v 151.8241 c 0,5.1023 -4.10763,9.20992 -9.20993,9.20992 h -89.60544 c -5.1023,0 -9.20993,-4.10762 -9.20993,-9.20992 v -151.8241 c 0,-5.1023 4.10763,-9.20993 9.20993,-9.20993 z"
       id="rect2490" />
  </g>
</svg>
