<?xml version="1.0" encoding="UTF-8" standalone="no"?>
<!-- Created with Inkscape (http://www.inkscape.org/) -->

<svg
   xmlns:dc="http://purl.org/dc/elements/1.1/"
   xmlns:cc="http://creativecommons.org/ns#"
   xmlns:rdf="http://www.w3.org/1999/02/22-rdf-syntax-ns#"
   xmlns:svg="http://www.w3.org/2000/svg"
   xmlns="http://www.w3.org/2000/svg"
   xmlns:sodipodi="http://sodipodi.sourceforge.net/DTD/sodipodi-0.dtd"
   xmlns:inkscape="http://www.inkscape.org/namespaces/inkscape"
   width="153.7049mm"
   height="71.689201mm"
   viewBox="0 0 544.62365 254.01686"
   id="svg2"
   version="1.1"
   inkscape:version="0.92.3 (2405546, 2018-03-11)"
   sodipodi:docname="transform-logical-otp.svg">
  <defs
     id="defs4" />
  <sodipodi:namedview
     id="base"
     pagecolor="#ffffff"
     bordercolor="#666666"
     borderopacity="1.0"
     inkscape:pageopacity="0.0"
     inkscape:pageshadow="2"
     inkscape:zoom="1.4"
     inkscape:cx="233.54697"
     inkscape:cy="157.51523"
     inkscape:document-units="px"
     inkscape:current-layer="layer1"
     showgrid="false"
     fit-margin-top="5"
     fit-margin-left="5"
     fit-margin-right="5"
     fit-margin-bottom="5"
     inkscape:window-width="1366"
     inkscape:window-height="732"
     inkscape:window-x="1920"
     inkscape:window-y="0"
     inkscape:window-maximized="1" />
  <metadata
     id="metadata7">
    <rdf:RDF>
      <cc:Work
         rdf:about="">
        <dc:format>image/svg+xml</dc:format>
        <dc:type
           rdf:resource="http://purl.org/dc/dcmitype/StillImage" />
        <dc:title></dc:title>
      </cc:Work>
    </rdf:RDF>
  </metadata>
  <g
     inkscape:label="Layer 1"
     inkscape:groupmode="layer"
     id="layer1"
     transform="translate(-19.664178,-109.96017)">
    <g
       id="g4413">
      <g
         id="g4242">
        <g
           id="g4310">
          <path
             style="fill:#ffffff;fill-opacity:1;stroke:#000000;stroke-width:1;stroke-miterlimit:4;stroke-dasharray:none"
             d="m 97.880714,158.1767 a 30,30 0 0 1 -30,30 30,30 0 0 1 -30,-30 30,30 0 0 1 30,-30 30,30 0 0 1 30,30 z"
             id="path3401" />
          <path
             style="fill:#cccccc;fill-opacity:1;stroke:#000000;stroke-width:1;stroke-miterlimit:4;stroke-dasharray:none"
             d="m 133.74113,158.1767 a 30,30 0 0 1 -30,30 30,30 0 0 1 -30.000003,-30 30,30 0 0 1 30.000003,-30 30,30 0 0 1 30,30 z"
             id="circle4203" />
          <g
             aria-label="y &amp; !x"
             style="font-style:normal;font-weight:normal;line-height:0%;font-family:sans-serif;letter-spacing:0px;word-spacing:0px;fill:#000000;fill-opacity:1;stroke:none;stroke-width:1px;stroke-linecap:butt;stroke-linejoin:miter;stroke-opacity:1"
             id="text4228">
            <path
               d="m 155.36322,159.08643 0.32227,0.87951 2.21557,-5.56579 h 1.38977 l -3.68591,8.38562 q -0.12756,0.28198 -0.32898,0.59753 -0.1947,0.31555 -0.47668,0.58411 -0.28199,0.26855 -0.65796,0.44983 -0.37598,0.18127 -0.86609,0.18127 -0.0873,0 -0.1947,-0.0134 -0.10743,-0.007 -0.21485,-0.0268 -0.10742,-0.0134 -0.20141,-0.0336 -0.094,-0.0201 -0.15442,-0.0336 l 0.20141,-1.0138 q 0.047,0 0.12757,0.007 0.0806,0.007 0.16784,0.0134 0.0873,0.007 0.16785,0.007 0.0806,0.007 0.12756,0.007 0.25513,0 0.46326,-0.14099 0.21484,-0.14099 0.37598,-0.33569 0.16784,-0.1947 0.28198,-0.40283 0.12085,-0.20813 0.18799,-0.34241 l 0.49682,-0.9668 -3.12866,-6.92199 h 1.38977 z"
               style="font-style:normal;font-variant:normal;font-weight:normal;font-stretch:normal;font-size:13.75px;line-height:1.25;font-family:'Roboto Mono';-inkscape-font-specification:'Roboto Mono'"
               id="path59" />
            <path
               d="m 168.73053,159.16028 q 0,-0.44983 0.13428,-0.83252 0.13427,-0.38269 0.37597,-0.71167 0.2417,-0.33569 0.5774,-0.6311 0.33569,-0.30213 0.74524,-0.59082 -0.44983,-0.61097 -0.71839,-1.15479 -0.26184,-0.54382 -0.26184,-1.13464 0,-0.57068 0.16785,-1.00708 0.17456,-0.44312 0.49011,-0.73853 0.31555,-0.30212 0.75867,-0.45654 0.44311,-0.15442 0.99365,-0.15442 0.47668,0 0.86609,0.16785 0.3894,0.16784 0.65796,0.45654 0.27527,0.28198 0.42297,0.65796 0.14771,0.37597 0.14771,0.79223 0,0.35584 -0.10743,0.65125 -0.1007,0.2887 -0.28869,0.54382 -0.18128,0.25513 -0.4364,0.4834 -0.25513,0.22827 -0.55054,0.44983 l -0.6311,0.53711 2.06115,2.70569 q 0.23499,-0.42969 0.36927,-0.93994 0.13427,-0.51026 0.14099,-1.10108 h 1.12121 q 0,0.85938 -0.24841,1.5979 -0.2417,0.73181 -0.71167,1.32263 l 1.21521,1.59119 h -1.48377 l -0.55725,-0.73852 q -0.49682,0.42297 -1.09436,0.65124 -0.59753,0.22156 -1.25549,0.22156 -0.66467,0 -1.20178,-0.1947 -0.53711,-0.19471 -0.91309,-0.54383 -0.37597,-0.34912 -0.5841,-0.83252 -0.20142,-0.49011 -0.20142,-1.0675 z m 2.90039,1.63147 q 0.47668,0 0.9198,-0.17456 0.44312,-0.17456 0.82581,-0.49683 l -2.16858,-2.89368 -0.18799,0.16114 q -0.33569,0.27527 -0.54382,0.53711 -0.20813,0.26184 -0.32227,0.49682 -0.10742,0.22827 -0.14771,0.42298 -0.0336,0.18798 -0.0336,0.31555 0,0.34241 0.10742,0.63782 0.10742,0.29541 0.31555,0.51696 0.20813,0.22156 0.51697,0.34912 0.30883,0.12757 0.71838,0.12757 z m -0.79895,-6.70044 q 0,0.37598 0.16785,0.77209 0.16784,0.38941 0.46997,0.82581 l 0.78552,-0.62439 q 0.20813,-0.14099 0.34241,-0.29541 0.13427,-0.15442 0.20813,-0.30884 0.0739,-0.16113 0.10071,-0.32226 0.0336,-0.16114 0.0336,-0.31556 0,-0.20141 -0.0671,-0.3894 -0.0604,-0.1947 -0.18799,-0.33569 -0.12085,-0.14771 -0.29541,-0.23499 -0.17456,-0.094 -0.39612,-0.094 -0.2887,0 -0.51025,0.10742 -0.21485,0.10742 -0.36255,0.28869 -0.14099,0.18128 -0.21485,0.42298 -0.0738,0.23498 -0.0738,0.50354 z"
               style="font-style:normal;font-variant:normal;font-weight:normal;font-stretch:normal;font-size:13.75px;line-height:1.25;font-family:'Roboto Mono';-inkscape-font-specification:'Roboto Mono'"
               id="path61" />
            <path
               d="m 189.13397,158.50232 h -1.24878 v -6.61316 h 1.24878 z m -1.36963,2.51099 q 0,-0.32227 0.18799,-0.53711 0.1947,-0.21485 0.57739,-0.21485 0.38269,0 0.5774,0.21485 0.20141,0.21484 0.20141,0.53711 0,0.30883 -0.20141,0.51696 -0.19471,0.20813 -0.5774,0.20813 -0.38269,0 -0.57739,-0.20813 -0.18799,-0.20813 -0.18799,-0.51696 z"
               style="font-style:normal;font-variant:normal;font-weight:normal;font-stretch:normal;font-size:13.75px;line-height:1.25;font-family:'Roboto Mono';-inkscape-font-specification:'Roboto Mono'"
               id="path63" />
            <path
               d="m 196.91534,157.09241 1.94031,-2.69226 h 1.45691 l -2.70569,3.59192 2.77954,3.67248 h -1.43676 l -2.00745,-2.76611 -2.00745,2.76611 h -1.45019 l 2.77954,-3.67248 -2.70569,-3.59192 h 1.43677 z"
               style="font-style:normal;font-variant:normal;font-weight:normal;font-stretch:normal;font-size:13.75px;line-height:1.25;font-family:'Roboto Mono';-inkscape-font-specification:'Roboto Mono'"
               id="path65" />
          </g>
          <path
             style="fill:#ffffff;fill-opacity:1;stroke:#000000;stroke-width:1;stroke-miterlimit:4;stroke-dasharray:none"
             d="M 85.806641,134.16602 A 30,30 0 0 0 73.740234,158.17578 30,30 0 0 0 85.814453,182.18555 30,30 0 0 0 97.880859,158.17578 30,30 0 0 0 85.806641,134.16602 Z"
             id="circle4531"
             inkscape:connector-curvature="0" />
        </g>
      </g>
      <g
         id="g4318">
        <path
           style="fill:#e6e6e6;fill-opacity:1;stroke:none;stroke-width:1;stroke-miterlimit:4;stroke-dasharray:none"
           d="M 82.785495,257.2365 C 71.98671,245.88809 71.843204,228.40744 82.456991,217.22103 l 3.177869,-3.34932 1.432926,1.04612 c 0.788109,0.57536 2.570336,2.54671 3.960505,4.38076 8.926914,11.77732 7.809727,28.05332 -2.633503,38.36682 l -2.681356,2.64805 -2.927937,-3.07696 z"
           id="path4278"
           inkscape:connector-curvature="0" />
        <path
           style="fill:#ffffff;fill-opacity:1;stroke:#000000;stroke-width:1;stroke-miterlimit:4;stroke-dasharray:none"
           d="m 97.880714,236.96863 a 30,30 0 0 1 -30,30 30,30 0 0 1 -30,-30 30,30 0 0 1 30,-30 30,30 0 0 1 30,30 z"
           id="circle4211" />
        <path
           style="fill:none;fill-opacity:1;stroke:#000000;stroke-width:1;stroke-miterlimit:4;stroke-dasharray:none"
           d="m 133.74113,236.96863 a 30,30 0 0 1 -30,30 30,30 0 0 1 -30.000003,-30 30,30 0 0 1 30.000003,-30 30,30 0 0 1 30,30 z"
           id="circle4213" />
        <g
           aria-label="x &amp; y"
           style="font-style:normal;font-weight:normal;line-height:0%;font-family:sans-serif;letter-spacing:0px;word-spacing:0px;fill:#000000;fill-opacity:1;stroke:none;stroke-width:1px;stroke-linecap:butt;stroke-linejoin:miter;stroke-opacity:1"
           id="text4232">
          <path
             d="m 155.6922,235.88434 1.94031,-2.69226 h 1.45691 l -2.70569,3.59192 2.77954,3.67248 h -1.43677 l -2.00744,-2.76611 -2.00745,2.76611 h -1.4502 l 2.77954,-3.67248 -2.70568,-3.59192 h 1.43676 z"
             style="font-style:normal;font-variant:normal;font-weight:normal;font-stretch:normal;font-size:13.75px;line-height:1.25;font-family:'Roboto Mono';-inkscape-font-specification:'Roboto Mono'"
             id="path70" />
          <path
             d="m 168.73053,237.95221 q 0,-0.44983 0.13428,-0.83252 0.13427,-0.38269 0.37597,-0.71167 0.2417,-0.33569 0.5774,-0.6311 0.33569,-0.30213 0.74524,-0.59082 -0.44983,-0.61097 -0.71839,-1.15479 -0.26184,-0.54382 -0.26184,-1.13464 0,-0.57068 0.16785,-1.00708 0.17456,-0.44312 0.49011,-0.73853 0.31555,-0.30212 0.75867,-0.45654 0.44311,-0.15442 0.99365,-0.15442 0.47668,0 0.86609,0.16785 0.3894,0.16784 0.65796,0.45654 0.27527,0.28198 0.42297,0.65796 0.14771,0.37598 0.14771,0.79224 0,0.35583 -0.10743,0.65124 -0.1007,0.2887 -0.28869,0.54382 -0.18128,0.25513 -0.4364,0.4834 -0.25513,0.22827 -0.55054,0.44983 l -0.6311,0.53711 2.06115,2.70569 q 0.23499,-0.42969 0.36927,-0.93994 0.13427,-0.51026 0.14099,-1.10108 h 1.12121 q 0,0.85938 -0.24841,1.5979 -0.2417,0.73182 -0.71167,1.32264 l 1.21521,1.59118 h -1.48377 l -0.55725,-0.73852 q -0.49682,0.42297 -1.09436,0.65124 -0.59753,0.22156 -1.25549,0.22156 -0.66467,0 -1.20178,-0.1947 -0.53711,-0.19471 -0.91309,-0.54383 -0.37597,-0.34912 -0.5841,-0.83252 -0.20142,-0.49011 -0.20142,-1.0675 z m 2.90039,1.63147 q 0.47668,0 0.9198,-0.17456 0.44312,-0.17456 0.82581,-0.49683 l -2.16858,-2.89367 -0.18799,0.16113 q -0.33569,0.27527 -0.54382,0.53711 -0.20813,0.26184 -0.32227,0.49682 -0.10742,0.22828 -0.14771,0.42298 -0.0336,0.18799 -0.0336,0.31555 0,0.34241 0.10742,0.63782 0.10742,0.29541 0.31555,0.51696 0.20813,0.22156 0.51697,0.34913 0.30883,0.12756 0.71838,0.12756 z m -0.79895,-6.70044 q 0,0.37598 0.16785,0.77209 0.16784,0.38941 0.46997,0.82581 l 0.78552,-0.62439 q 0.20813,-0.14099 0.34241,-0.29541 0.13427,-0.15442 0.20813,-0.30884 0.0739,-0.16113 0.10071,-0.32226 0.0336,-0.16114 0.0336,-0.31555 0,-0.20142 -0.0671,-0.38941 -0.0604,-0.1947 -0.18799,-0.33569 -0.12085,-0.14771 -0.29541,-0.23499 -0.17456,-0.094 -0.39612,-0.094 -0.2887,0 -0.51025,0.10742 -0.21485,0.10742 -0.36255,0.2887 -0.14099,0.18127 -0.21485,0.42297 -0.0738,0.23499 -0.0738,0.50354 z"
             style="font-style:normal;font-variant:normal;font-weight:normal;font-stretch:normal;font-size:13.75px;line-height:1.25;font-family:'Roboto Mono';-inkscape-font-specification:'Roboto Mono'"
             id="path72" />
          <path
             d="m 188.34174,237.87836 0.32226,0.87951 2.21558,-5.56579 h 1.38977 l -3.68591,8.38562 q -0.12757,0.28198 -0.32898,0.59753 -0.19471,0.31555 -0.47669,0.58411 -0.28198,0.26855 -0.65796,0.44983 -0.37597,0.18127 -0.86609,0.18127 -0.0873,0 -0.1947,-0.0134 -0.10742,-0.007 -0.21484,-0.0269 -0.10742,-0.0134 -0.20142,-0.0336 -0.094,-0.0201 -0.15442,-0.0336 l 0.20142,-1.01379 q 0.047,0 0.12756,0.007 0.0806,0.007 0.16785,0.0134 0.0873,0.007 0.16785,0.007 0.0806,0.007 0.12756,0.007 0.25513,0 0.46326,-0.141 0.21484,-0.14099 0.37597,-0.33569 0.16785,-0.1947 0.28198,-0.40283 0.12085,-0.20813 0.18799,-0.34241 l 0.49683,-0.9668 -3.12866,-6.92199 h 1.38977 z"
             style="font-style:normal;font-variant:normal;font-weight:normal;font-stretch:normal;font-size:13.75px;line-height:1.25;font-family:'Roboto Mono';-inkscape-font-specification:'Roboto Mono'"
             id="path74" />
        </g>
        <path
           style="fill:#cccccc;fill-opacity:1;stroke:#000000;stroke-width:1;stroke-miterlimit:4;stroke-dasharray:none"
           d="M 85.806641,212.95898 A 30,30 0 0 0 73.740234,236.96875 30,30 0 0 0 85.816406,260.97852 30,30 0 0 0 97.880859,236.96875 30,30 0 0 0 85.806641,212.95898 Z"
           id="circle4521"
           inkscape:connector-curvature="0" />
      </g>
      <g
         id="g4326">
        <path
           style="fill:#cccccc;fill-opacity:1;stroke:#000000;stroke-width:1;stroke-miterlimit:4;stroke-dasharray:none"
           d="m 97.880714,315.7605 a 30,30 0 0 1 -30,30 30,30 0 0 1 -30,-30 30,30 0 0 1 30,-30 30,30 0 0 1 30,30 z"
           id="circle4224" />
        <path
           style="fill:none;fill-opacity:1;stroke:#000000;stroke-width:1;stroke-miterlimit:4;stroke-dasharray:none"
           d="m 133.74113,315.7605 a 30,30 0 0 1 -30,30 30,30 0 0 1 -30.000003,-30 30,30 0 0 1 30.000003,-30 30,30 0 0 1 30,30 z"
           id="circle4226" />
        <g
           aria-label="x &amp; !y"
           style="font-style:normal;font-weight:normal;line-height:0%;font-family:sans-serif;letter-spacing:0px;word-spacing:0px;fill:#000000;fill-opacity:1;stroke:none;stroke-width:1px;stroke-linecap:butt;stroke-linejoin:miter;stroke-opacity:1"
           id="text4236">
          <path
             d="m 155.6922,314.67621 1.94031,-2.69226 h 1.45691 l -2.70569,3.59192 2.77954,3.67248 h -1.43677 l -2.00744,-2.76611 -2.00745,2.76611 h -1.4502 l 2.77954,-3.67248 -2.70568,-3.59192 h 1.43676 z"
             style="font-style:normal;font-variant:normal;font-weight:normal;font-stretch:normal;font-size:13.75px;line-height:1.25;font-family:'Roboto Mono';-inkscape-font-specification:'Roboto Mono'"
             id="path79" />
          <path
             d="m 168.73053,316.74408 q 0,-0.44983 0.13428,-0.83252 0.13427,-0.38269 0.37597,-0.71167 0.2417,-0.33569 0.5774,-0.6311 0.33569,-0.30213 0.74524,-0.59082 -0.44983,-0.61097 -0.71839,-1.15479 -0.26184,-0.54382 -0.26184,-1.13464 0,-0.57068 0.16785,-1.00708 0.17456,-0.44312 0.49011,-0.73853 0.31555,-0.30212 0.75867,-0.45654 0.44311,-0.15442 0.99365,-0.15442 0.47668,0 0.86609,0.16785 0.3894,0.16784 0.65796,0.45654 0.27527,0.28198 0.42297,0.65796 0.14771,0.37598 0.14771,0.79224 0,0.35583 -0.10743,0.65124 -0.1007,0.2887 -0.28869,0.54382 -0.18128,0.25513 -0.4364,0.4834 -0.25513,0.22827 -0.55054,0.44983 l -0.6311,0.53711 2.06115,2.70569 q 0.23499,-0.42969 0.36927,-0.93994 0.13427,-0.51026 0.14099,-1.10108 h 1.12121 q 0,0.85938 -0.24841,1.5979 -0.2417,0.73182 -0.71167,1.32264 l 1.21521,1.59118 h -1.48377 l -0.55725,-0.73852 q -0.49682,0.42297 -1.09436,0.65124 -0.59753,0.22156 -1.25549,0.22156 -0.66467,0 -1.20178,-0.1947 -0.53711,-0.1947 -0.91309,-0.54383 -0.37597,-0.34912 -0.5841,-0.83252 -0.20142,-0.49011 -0.20142,-1.0675 z m 2.90039,1.63147 q 0.47668,0 0.9198,-0.17456 0.44312,-0.17456 0.82581,-0.49683 l -2.16858,-2.89367 -0.18799,0.16113 q -0.33569,0.27527 -0.54382,0.53711 -0.20813,0.26184 -0.32227,0.49682 -0.10742,0.22828 -0.14771,0.42298 -0.0336,0.18799 -0.0336,0.31555 0,0.34241 0.10742,0.63782 0.10742,0.29541 0.31555,0.51696 0.20813,0.22156 0.51697,0.34913 0.30883,0.12756 0.71838,0.12756 z m -0.79895,-6.70044 q 0,0.37598 0.16785,0.77209 0.16784,0.38941 0.46997,0.82581 l 0.78552,-0.62439 q 0.20813,-0.14099 0.34241,-0.29541 0.13427,-0.15442 0.20813,-0.30884 0.0739,-0.16113 0.10071,-0.32226 0.0336,-0.16114 0.0336,-0.31555 0,-0.20142 -0.0671,-0.38941 -0.0604,-0.1947 -0.18799,-0.33569 -0.12085,-0.14771 -0.29541,-0.23499 -0.17456,-0.094 -0.39612,-0.094 -0.2887,0 -0.51025,0.10742 -0.21485,0.10742 -0.36255,0.2887 -0.14099,0.18127 -0.21485,0.42297 -0.0738,0.23499 -0.0738,0.50354 z"
             style="font-style:normal;font-variant:normal;font-weight:normal;font-stretch:normal;font-size:13.75px;line-height:1.25;font-family:'Roboto Mono';-inkscape-font-specification:'Roboto Mono'"
             id="path81" />
          <path
             d="m 189.13397,316.08612 h -1.24878 v -6.61316 h 1.24878 z m -1.36963,2.51099 q 0,-0.32227 0.18799,-0.53711 0.1947,-0.21485 0.57739,-0.21485 0.38269,0 0.5774,0.21485 0.20141,0.21484 0.20141,0.53711 0,0.30883 -0.20141,0.51696 -0.19471,0.20813 -0.5774,0.20813 -0.38269,0 -0.57739,-0.20813 -0.18799,-0.20813 -0.18799,-0.51696 z"
             style="font-style:normal;font-variant:normal;font-weight:normal;font-stretch:normal;font-size:13.75px;line-height:1.25;font-family:'Roboto Mono';-inkscape-font-specification:'Roboto Mono'"
             id="path83" />
          <path
             d="m 196.58636,316.67023 0.32227,0.87951 2.21558,-5.56579 h 1.38977 l -3.68592,8.38562 q -0.12756,0.28198 -0.32898,0.59753 -0.1947,0.31555 -0.47668,0.58411 -0.28198,0.26855 -0.65796,0.44983 -0.37598,0.18127 -0.86609,0.18127 -0.0873,0 -0.1947,-0.0134 -0.10742,-0.007 -0.21484,-0.0269 -0.10743,-0.0134 -0.20142,-0.0336 -0.094,-0.0201 -0.15442,-0.0336 l 0.20142,-1.01379 q 0.047,0 0.12756,0.007 0.0806,0.007 0.16785,0.0134 0.0873,0.007 0.16784,0.007 0.0806,0.007 0.12757,0.007 0.25512,0 0.46325,-0.141 0.21485,-0.14099 0.37598,-0.33569 0.16785,-0.1947 0.28198,-0.40283 0.12085,-0.20813 0.18799,-0.34241 l 0.49683,-0.9668 -3.12866,-6.92199 h 1.38977 z"
             style="font-style:normal;font-variant:normal;font-weight:normal;font-stretch:normal;font-size:13.75px;line-height:1.25;font-family:'Roboto Mono';-inkscape-font-specification:'Roboto Mono'"
             id="path85" />
        </g>
        <path
           style="fill:#cccccc;fill-opacity:1;stroke:#000000;stroke-width:1;stroke-miterlimit:4;stroke-dasharray:none"
           d="M 85.806641,291.75 A 30,30 0 0 0 73.740234,315.75977 30,30 0 0 0 85.814453,339.76953 30,30 0 0 0 97.880859,315.75977 30,30 0 0 0 85.806641,291.75 Z"
           id="circle4516"
           inkscape:connector-curvature="0" />
      </g>
    </g>
    <g
       id="g4435"
       transform="translate(-18.310482,0)">
      <g
         transform="translate(194.45437,0)"
         id="g4333">
        <g
           id="g4335">
          <path
             style="fill:#cccccc;fill-opacity:1;stroke:#000000;stroke-width:1;stroke-miterlimit:4;stroke-dasharray:none"
             d="m 97.880714,158.1767 a 30,30 0 0 1 -30,30 30,30 0 0 1 -30,-30 30,30 0 0 1 30,-30 30,30 0 0 1 30,30 z"
             id="circle4337" />
          <path
             style="fill:none;fill-opacity:1;stroke:#000000;stroke-width:1;stroke-miterlimit:4;stroke-dasharray:none"
             d="m 133.74113,158.1767 a 30,30 0 0 1 -30,30 30,30 0 0 1 -30.000003,-30 30,30 0 0 1 30.000003,-30 30,30 0 0 1 30,30 z"
             id="circle4339" />
          <g
             aria-label="x"
             style="font-style:normal;font-weight:normal;line-height:0%;font-family:sans-serif;letter-spacing:0px;word-spacing:0px;fill:#000000;fill-opacity:1;stroke:none;stroke-width:1px;stroke-linecap:butt;stroke-linejoin:miter;stroke-opacity:1"
             id="text4341">
            <path
               d="m 155.6922,157.09241 1.94031,-2.69226 h 1.45691 l -2.70569,3.59192 2.77954,3.67248 h -1.43677 l -2.00744,-2.76611 -2.00745,2.76611 h -1.4502 l 2.77954,-3.67248 -2.70568,-3.59192 h 1.43676 z"
               style="font-style:normal;font-variant:normal;font-weight:normal;font-stretch:normal;font-size:13.75px;line-height:1.25;font-family:'Roboto Mono';-inkscape-font-specification:'Roboto Mono'"
               id="path90" />
          </g>
          <path
             style="fill:#cccccc;fill-opacity:1;stroke:#000000;stroke-width:1;stroke-miterlimit:4;stroke-dasharray:none"
             d="m 287.32031,134.16602 a 30,30 0 0 0 -12.0664,24.00976 30,30 0 0 0 12.07421,24.00977 30,30 0 0 0 12.06641,-24.00977 30,30 0 0 0 -12.07422,-24.00976 z"
             transform="translate(-201.51293,0)"
             id="circle4536"
             inkscape:connector-curvature="0" />
        </g>
      </g>
      <g
         transform="translate(194.45437,0)"
         id="g4347">
        <path
           inkscape:connector-curvature="0"
           id="path4349"
           d="M 82.785495,257.2365 C 71.98671,245.88809 71.843204,228.40744 82.456991,217.22103 l 3.177869,-3.34932 1.432926,1.04612 c 0.788109,0.57536 2.570336,2.54671 3.960505,4.38076 8.926914,11.77732 7.809727,28.05332 -2.633503,38.36682 l -2.681356,2.64805 -2.927937,-3.07696 z"
           style="fill:#e6e6e6;fill-opacity:1;stroke:none;stroke-width:1;stroke-miterlimit:4;stroke-dasharray:none" />
        <path
           style="fill:#cccccc;fill-opacity:1;stroke:#000000;stroke-width:1;stroke-miterlimit:4;stroke-dasharray:none"
           d="m 97.880714,236.96863 a 30,30 0 0 1 -30,30 30,30 0 0 1 -30,-30 30,30 0 0 1 30,-30 30,30 0 0 1 30,30 z"
           id="circle4351" />
        <path
           style="fill:#cccccc;fill-opacity:1;stroke:#000000;stroke-width:1;stroke-miterlimit:4;stroke-dasharray:none"
           d="m 133.74113,236.96863 a 30,30 0 0 1 -30,30 30,30 0 0 1 -30.000003,-30 30,30 0 0 1 30.000003,-30 30,30 0 0 1 30,30 z"
           id="circle4353" />
        <g
           aria-label="xor(x, y)"
           style="font-style:normal;font-weight:normal;line-height:0%;font-family:sans-serif;letter-spacing:0px;word-spacing:0px;fill:#000000;fill-opacity:1;stroke:none;stroke-width:1px;stroke-linecap:butt;stroke-linejoin:miter;stroke-opacity:1"
           id="text4355">
          <path
             d="m 155.6922,235.88434 1.94031,-2.69226 h 1.45691 l -2.70569,3.59192 2.77954,3.67248 h -1.43677 l -2.00744,-2.76611 -2.00745,2.76611 h -1.4502 l 2.77954,-3.67248 -2.70568,-3.59192 h 1.43676 z"
             style="font-style:normal;font-variant:normal;font-weight:normal;font-stretch:normal;font-size:13.75px;line-height:1.25;font-family:'Roboto Mono';-inkscape-font-specification:'Roboto Mono'"
             id="path95" />
          <path
             d="m 160.58661,236.75714 q 0,-0.78552 0.22827,-1.45691 0.22827,-0.6781 0.65125,-1.17492 0.42968,-0.49683 1.04064,-0.77881 0.61097,-0.2887 1.37635,-0.2887 0.77209,0 1.38305,0.2887 0.61768,0.28198 1.04065,0.77881 0.42969,0.49682 0.65796,1.17492 0.22827,0.67139 0.22827,1.45691 v 0.14771 q 0,0.78552 -0.22827,1.45691 -0.22827,0.67138 -0.65796,1.16821 -0.42297,0.49682 -1.03393,0.77881 -0.61096,0.28198 -1.37634,0.28198 -0.7721,0 -1.38978,-0.28198 -0.61096,-0.28199 -1.04064,-0.77881 -0.42298,-0.49683 -0.65125,-1.16821 -0.22827,-0.67139 -0.22827,-1.45691 z m 1.24206,0.14771 q 0,0.53711 0.12757,1.02722 0.12756,0.4834 0.38269,0.85266 0.26184,0.36926 0.65124,0.58411 0.38941,0.21484 0.90638,0.21484 0.51025,0 0.89294,-0.21484 0.3894,-0.21485 0.64453,-0.58411 0.26184,-0.36926 0.38941,-0.85266 0.12756,-0.49011 0.12756,-1.02722 v -0.14771 q 0,-0.53039 -0.13428,-1.01379 -0.12756,-0.49012 -0.3894,-0.85938 -0.25513,-0.36926 -0.64453,-0.5841 -0.38269,-0.22156 -0.89966,-0.22156 -0.51697,0 -0.89966,0.22156 -0.38269,0.21484 -0.64453,0.5841 -0.25513,0.36926 -0.38269,0.85938 -0.12757,0.4834 -0.12757,1.01379 z"
             style="font-style:normal;font-variant:normal;font-weight:normal;font-stretch:normal;font-size:13.75px;line-height:1.25;font-family:'Roboto Mono';-inkscape-font-specification:'Roboto Mono'"
             id="path97" />
          <path
             d="m 173.94049,233.0578 q 0.17456,0 0.36255,0.0134 0.18799,0.007 0.35583,0.0336 0.17457,0.0201 0.31556,0.0537 0.1477,0.0336 0.2417,0.0738 l -0.16785,1.21521 q -0.36255,-0.0806 -0.69153,-0.11413 -0.32227,-0.0403 -0.6781,-0.0403 -0.8728,0 -1.41663,0.39612 -0.53711,0.39612 -0.79223,1.10779 v 4.65942 h -1.24878 v -7.2644 h 1.18164 l 0.0604,1.15478 q 0.44312,-0.59753 1.06079,-0.93994 0.62439,-0.34912 1.41663,-0.34912 z"
             style="font-style:normal;font-variant:normal;font-weight:normal;font-stretch:normal;font-size:13.75px;line-height:1.25;font-family:'Roboto Mono';-inkscape-font-specification:'Roboto Mono'"
             id="path99" />
          <path
             d="m 178.65363,236.48859 q 0,-0.96009 0.1477,-1.80603 0.15442,-0.84595 0.40955,-1.56433 0.25512,-0.7251 0.5841,-1.32264 0.3357,-0.59753 0.69825,-1.06079 0.36926,-0.46325 0.73852,-0.79223 0.36926,-0.32898 0.70496,-0.51697 l 0.26184,0.81909 q -0.41626,0.31555 -0.83252,0.85937 -0.40955,0.54383 -0.73853,1.32264 -0.32226,0.77209 -0.53039,1.78589 -0.20142,1.00708 -0.20142,2.26257 v 0.094 q 0,1.2555 0.20142,2.26929 0.20813,1.01379 0.53039,1.7926 0.32898,0.77881 0.73853,1.32935 0.41626,0.55725 0.83252,0.89294 l -0.26184,0.75867 q -0.3357,-0.18799 -0.71167,-0.51697 -0.36927,-0.32226 -0.73853,-0.79223 -0.36255,-0.46326 -0.69824,-1.0608 -0.32898,-0.59082 -0.58411,-1.3092 -0.24841,-0.7251 -0.40283,-1.57104 -0.1477,-0.84595 -0.1477,-1.80603 z"
             style="font-style:normal;font-variant:normal;font-weight:normal;font-stretch:normal;font-size:13.75px;line-height:1.25;font-family:'Roboto Mono';-inkscape-font-specification:'Roboto Mono'"
             id="path101" />
          <path
             d="m 188.67072,235.88434 1.9403,-2.69226 h 1.45691 l -2.70569,3.59192 2.77954,3.67248 h -1.43676 l -2.00745,-2.76611 -2.00745,2.76611 h -1.45019 l 2.77954,-3.67248 -2.70569,-3.59192 h 1.43677 z"
             style="font-style:normal;font-variant:normal;font-weight:normal;font-stretch:normal;font-size:13.75px;line-height:1.25;font-family:'Roboto Mono';-inkscape-font-specification:'Roboto Mono'"
             id="path103" />
          <path
             d="m 197.06305,240.16779 q 0,0.31555 -0.0806,0.65795 -0.0739,0.34913 -0.22827,0.68482 -0.1477,0.34241 -0.36255,0.65124 -0.21484,0.30884 -0.49682,0.55054 l -0.7721,-0.42297 q 0.32227,-0.46997 0.45654,-1.00037 0.13428,-0.53039 0.13428,-1.10107 v -1.20178 h 1.34949 z"
             style="font-style:normal;font-variant:normal;font-weight:normal;font-stretch:normal;font-size:13.75px;line-height:1.25;font-family:'Roboto Mono';-inkscape-font-specification:'Roboto Mono'"
             id="path105" />
          <path
             d="m 213.07562,237.87836 0.32227,0.87951 2.21557,-5.56579 h 1.38977 l -3.68591,8.38562 q -0.12756,0.28198 -0.32898,0.59753 -0.1947,0.31555 -0.47668,0.58411 -0.28198,0.26855 -0.65796,0.44983 -0.37598,0.18127 -0.86609,0.18127 -0.0873,0 -0.1947,-0.0134 -0.10742,-0.007 -0.21485,-0.0269 -0.10742,-0.0134 -0.20141,-0.0336 -0.094,-0.0201 -0.15442,-0.0336 l 0.20142,-1.01379 q 0.047,0 0.12756,0.007 0.0806,0.007 0.16785,0.0134 0.0873,0.007 0.16784,0.007 0.0806,0.007 0.12757,0.007 0.25512,0 0.46325,-0.141 0.21485,-0.14099 0.37598,-0.33569 0.16785,-0.1947 0.28198,-0.40283 0.12085,-0.20813 0.18799,-0.34241 l 0.49683,-0.9668 -3.12867,-6.92199 h 1.38977 z"
             style="font-style:normal;font-variant:normal;font-weight:normal;font-stretch:normal;font-size:13.75px;line-height:1.25;font-family:'Roboto Mono';-inkscape-font-specification:'Roboto Mono'"
             id="path107" />
          <path
             d="m 223.17999,236.55573 q 0,0.96008 -0.15442,1.80603 -0.1477,0.84594 -0.40283,1.57104 -0.25513,0.71838 -0.59082,1.3092 -0.32898,0.59754 -0.69824,1.0608 -0.36255,0.46997 -0.73853,0.79223 -0.36926,0.32898 -0.70495,0.51697 l -0.26184,-0.75867 q 0.41626,-0.30884 0.8258,-0.86609 0.41626,-0.55053 0.73853,-1.33606 0.32898,-0.78552 0.53039,-1.80603 0.20813,-1.0205 0.20813,-2.276 v -0.094 q 0,-1.25549 -0.21484,-2.276 -0.21484,-1.02722 -0.55725,-1.81275 -0.33569,-0.79223 -0.74524,-1.34277 -0.40283,-0.55054 -0.78552,-0.85937 l 0.26184,-0.75867 q 0.33569,0.18799 0.70495,0.51697 0.37598,0.32898 0.73853,0.79223 0.36926,0.46326 0.69824,1.06079 0.33569,0.59754 0.59082,1.32264 0.25513,0.71838 0.40283,1.56433 0.15442,0.84594 0.15442,1.80603 z"
             style="font-style:normal;font-variant:normal;font-weight:normal;font-stretch:normal;font-size:13.75px;line-height:1.25;font-family:'Roboto Mono';-inkscape-font-specification:'Roboto Mono'"
             id="path109" />
        </g>
        <path
           style="fill:#ffffff;fill-opacity:1;stroke:#000000;stroke-width:1;stroke-miterlimit:4;stroke-dasharray:none"
           d="m 287.31836,212.95898 a 30,30 0 0 0 -12.06445,24.00977 30,30 0 0 0 12.07421,24.00977 30,30 0 0 0 12.06641,-24.00977 30,30 0 0 0 -12.07617,-24.00977 z"
           transform="translate(-201.51293,0)"
           id="circle4526"
           inkscape:connector-curvature="0" />
      </g>
      <g
         transform="translate(194.45437,0)"
         id="g4361">
        <path
           style="fill:#ffffff;fill-opacity:1;stroke:#000000;stroke-width:1;stroke-miterlimit:4;stroke-dasharray:none"
           d="m 97.880714,315.7605 a 30,30 0 0 1 -30,30 30,30 0 0 1 -30,-30 30,30 0 0 1 30,-30 30,30 0 0 1 30,30 z"
           id="circle4363" />
        <path
           style="fill:#cccccc;fill-opacity:1;stroke:#000000;stroke-width:1;stroke-miterlimit:4;stroke-dasharray:none"
           d="m 133.74113,315.7605 a 30,30 0 0 1 -30,30 30,30 0 0 1 -30.000003,-30 30,30 0 0 1 30.000003,-30 30,30 0 0 1 30,30 z"
           id="circle4365" />
        <g
           aria-label="y"
           style="font-style:normal;font-weight:normal;line-height:0%;font-family:sans-serif;letter-spacing:0px;word-spacing:0px;fill:#000000;fill-opacity:1;stroke:none;stroke-width:1px;stroke-linecap:butt;stroke-linejoin:miter;stroke-opacity:1"
           id="text4367">
          <path
             d="m 155.36322,316.67023 0.32227,0.87951 2.21557,-5.56579 h 1.38977 l -3.68591,8.38562 q -0.12756,0.28198 -0.32898,0.59753 -0.1947,0.31555 -0.47668,0.58411 -0.28199,0.26855 -0.65796,0.44983 -0.37598,0.18127 -0.86609,0.18127 -0.0873,0 -0.1947,-0.0134 -0.10743,-0.007 -0.21485,-0.0269 -0.10742,-0.0134 -0.20141,-0.0336 -0.094,-0.0201 -0.15442,-0.0336 l 0.20141,-1.01379 q 0.047,0 0.12757,0.007 0.0806,0.007 0.16784,0.0134 0.0873,0.007 0.16785,0.007 0.0806,0.007 0.12756,0.007 0.25513,0 0.46326,-0.141 0.21484,-0.14099 0.37598,-0.33569 0.16784,-0.1947 0.28198,-0.40283 0.12085,-0.20813 0.18799,-0.34241 l 0.49682,-0.9668 -3.12866,-6.92199 h 1.38977 z"
             style="font-style:normal;font-variant:normal;font-weight:normal;font-stretch:normal;font-size:13.75px;line-height:1.25;font-family:'Roboto Mono';-inkscape-font-specification:'Roboto Mono'"
             id="path114" />
        </g>
        <path
           style="fill:#cccccc;fill-opacity:1;stroke:#000000;stroke-width:1;stroke-miterlimit:4;stroke-dasharray:none"
           d="m 287.31836,291.75 a 30,30 0 0 0 -12.06445,24.00977 30,30 0 0 0 12.07421,24.00976 30,30 0 0 0 12.06641,-24.00976 A 30,30 0 0 0 287.31836,291.75 Z"
           transform="translate(-201.51293,0)"
           id="circle4511"
           inkscape:connector-curvature="0" />
      </g>
    </g>
    <g
       id="g4457"
       transform="translate(-31.31476,0)">
      <g
         id="g4373"
         transform="translate(403.0258,0)">
        <g
           id="g4375">
          <path
             style="fill:#cccccc;fill-opacity:1;stroke:#000000;stroke-width:1;stroke-miterlimit:4;stroke-dasharray:none"
             d="m 97.880714,158.1767 a 30,30 0 0 1 -30,30 30,30 0 0 1 -30,-30 30,30 0 0 1 30,-30 30,30 0 0 1 30,30 z"
             id="circle4377" />
          <path
             style="fill:#cccccc;fill-opacity:1;stroke:#000000;stroke-width:1;stroke-miterlimit:4;stroke-dasharray:none"
             d="m 133.74113,158.1767 a 30,30 0 0 1 -30,30 30,30 0 0 1 -30.000003,-30 30,30 0 0 1 30.000003,-30 30,30 0 0 1 30,30 z"
             id="circle4379" />
          <g
             aria-label="x | y"
             style="font-style:normal;font-weight:normal;line-height:0%;font-family:sans-serif;letter-spacing:0px;word-spacing:0px;fill:#000000;fill-opacity:1;stroke:none;stroke-width:1px;stroke-linecap:butt;stroke-linejoin:miter;stroke-opacity:1"
             id="text4381">
            <path
               d="m 155.6922,157.09241 1.94031,-2.69226 h 1.45691 l -2.70569,3.59192 2.77954,3.67248 h -1.43677 l -2.00744,-2.76611 -2.00745,2.76611 h -1.4502 l 2.77954,-3.67248 -2.70568,-3.59192 h 1.43676 z"
               style="font-style:normal;font-variant:normal;font-weight:normal;font-stretch:normal;font-size:13.75px;line-height:1.25;font-family:'Roboto Mono';-inkscape-font-specification:'Roboto Mono'"
               id="path119" />
            <path
               d="m 172.638,164.33667 h -1.00037 v -12.44751 h 1.00037 z"
               style="font-style:normal;font-variant:normal;font-weight:normal;font-stretch:normal;font-size:13.75px;line-height:1.25;font-family:'Roboto Mono';-inkscape-font-specification:'Roboto Mono'"
               id="path121" />
            <path
               d="m 188.34174,159.08643 0.32226,0.87951 2.21558,-5.56579 h 1.38977 l -3.68591,8.38562 q -0.12757,0.28198 -0.32898,0.59753 -0.19471,0.31555 -0.47669,0.58411 -0.28198,0.26855 -0.65796,0.44983 -0.37597,0.18127 -0.86609,0.18127 -0.0873,0 -0.1947,-0.0134 -0.10742,-0.007 -0.21484,-0.0268 -0.10742,-0.0134 -0.20142,-0.0336 -0.094,-0.0201 -0.15442,-0.0336 l 0.20142,-1.0138 q 0.047,0 0.12756,0.007 0.0806,0.007 0.16785,0.0134 0.0873,0.007 0.16785,0.007 0.0806,0.007 0.12756,0.007 0.25513,0 0.46326,-0.14099 0.21484,-0.14099 0.37597,-0.33569 0.16785,-0.1947 0.28198,-0.40283 0.12085,-0.20813 0.18799,-0.34241 l 0.49683,-0.9668 -3.12866,-6.92199 h 1.38977 z"
               style="font-style:normal;font-variant:normal;font-weight:normal;font-stretch:normal;font-size:13.75px;line-height:1.25;font-family:'Roboto Mono';-inkscape-font-specification:'Roboto Mono'"
               id="path123" />
          </g>
          <path
             style="fill:#cccccc;fill-opacity:1;stroke:#000000;stroke-width:1;stroke-miterlimit:4;stroke-dasharray:none"
             d="m 488.83398,134.16602 a 30,30 0 0 0 -12.0664,24.00976 30,30 0 0 0 12.07226,24.00977 30,30 0 0 0 12.06641,-24.00977 30,30 0 0 0 -12.07227,-24.00976 z"
             transform="translate(-403.0258,0)"
             id="circle4541"
             inkscape:connector-curvature="0" />
        </g>
      </g>
    </g>
  </g>
</svg>
