<?xml version="1.0" encoding="UTF-8" standalone="no"?>
<svg
   xmlns:dc="http://purl.org/dc/elements/1.1/"
   xmlns:cc="http://creativecommons.org/ns#"
   xmlns:rdf="http://www.w3.org/1999/02/22-rdf-syntax-ns#"
   xmlns:svg="http://www.w3.org/2000/svg"
   xmlns="http://www.w3.org/2000/svg"
   viewBox="0 0 555.92915 227.42689"
   height="60.173363mm"
   width="147.08958mm"
   id="svg2"
   version="1.1">
  <metadata
     id="metadata8">
    <rdf:RDF>
      <cc:Work
         rdf:about="">
        <dc:format>image/svg+xml</dc:format>
        <dc:type
           rdf:resource="http://purl.org/dc/dcmitype/StillImage" />
        <dc:title />
      </cc:Work>
    </rdf:RDF>
  </metadata>
  <defs
     id="defs6">
    <marker
       style="overflow:visible"
       id="marker8276"
       refX="0"
       refY="0"
       orient="auto">
      <path
         transform="scale(-0.6)"
         d="M 8.7185878,4.0337352 -2.2072895,0.01601326 8.7185884,-4.0017078 c -1.7454984,2.3720609 -1.7354408,5.6174519 -6e-7,8.035443 z"
         style="fill:#000000;fill-opacity:1;fill-rule:evenodd;stroke:#000000;stroke-width:0.625;stroke-linejoin:round;stroke-opacity:1"
         id="path8274" />
    </marker>
    <marker
       style="overflow:visible"
       id="marker7064"
       refX="0"
       refY="0"
       orient="auto">
      <path
         transform="scale(-0.6)"
         d="M 8.7185878,4.0337352 -2.2072895,0.01601326 8.7185884,-4.0017078 c -1.7454984,2.3720609 -1.7354408,5.6174519 -6e-7,8.035443 z"
         style="fill:#000000;fill-opacity:1;fill-rule:evenodd;stroke:#000000;stroke-width:0.625;stroke-linejoin:round;stroke-opacity:1"
         id="path7062" />
    </marker>
    <marker
       style="overflow:visible"
       id="marker5888"
       refX="0"
       refY="0"
       orient="auto">
      <path
         transform="scale(-0.6)"
         d="M 8.7185878,4.0337352 -2.2072895,0.01601326 8.7185884,-4.0017078 c -1.7454984,2.3720609 -1.7354408,5.6174519 -6e-7,8.035443 z"
         style="fill:#000000;fill-opacity:1;fill-rule:evenodd;stroke:#000000;stroke-width:0.625;stroke-linejoin:round;stroke-opacity:1"
         id="path5886" />
    </marker>
    <marker
       style="overflow:visible"
       id="marker5845"
       refX="0"
       refY="0"
       orient="auto">
      <path
         transform="scale(-0.6)"
         d="M 8.7185878,4.0337352 -2.2072895,0.01601326 8.7185884,-4.0017078 c -1.7454984,2.3720609 -1.7354408,5.6174519 -6e-7,8.035443 z"
         style="fill:#000000;fill-opacity:1;fill-rule:evenodd;stroke:#000000;stroke-width:0.625;stroke-linejoin:round;stroke-opacity:1"
         id="path5843" />
    </marker>
    <marker
       style="overflow:visible"
       id="marker5115"
       refX="0"
       refY="0"
       orient="auto">
      <path
         transform="scale(-0.6)"
         d="M 8.7185878,4.0337352 -2.2072895,0.01601326 8.7185884,-4.0017078 c -1.7454984,2.3720609 -1.7354408,5.6174519 -6e-7,8.035443 z"
         style="fill:#000000;fill-opacity:1;fill-rule:evenodd;stroke:#000000;stroke-width:0.625;stroke-linejoin:round;stroke-opacity:1"
         id="path5113" />
    </marker>
    <marker
       orient="auto"
       refY="0"
       refX="0"
       id="marker4863"
       style="overflow:visible">
      <path
         id="path4861"
         style="fill:#000000;fill-opacity:1;fill-rule:evenodd;stroke:#000000;stroke-width:0.625;stroke-linejoin:round;stroke-opacity:1"
         d="M 8.7185878,4.0337352 -2.2072895,0.01601326 8.7185884,-4.0017078 c -1.7454984,2.3720609 -1.7354408,5.6174519 -6e-7,8.035443 z"
         transform="scale(-0.6)" />
    </marker>
    <marker
       style="overflow:visible"
       id="Arrow2Mend"
       refX="0"
       refY="0"
       orient="auto">
      <path
         transform="scale(-0.6)"
         d="M 8.7185878,4.0337352 -2.2072895,0.01601326 8.7185884,-4.0017078 c -1.7454984,2.3720609 -1.7354408,5.6174519 -6e-7,8.035443 z"
         style="fill:#000000;fill-opacity:1;fill-rule:evenodd;stroke:#000000;stroke-width:0.625;stroke-linejoin:round;stroke-opacity:1"
         id="path4604" />
    </marker>
  </defs>
  <g
     id="g966">
    <path
       id="rect4537"
       d="M 31.665159,19.464567 H 524.26398 c 6.75912,0 12.20059,6.135042 12.20059,13.7557 V 179.31432 c 0,7.62066 -5.44147,13.7557 -12.20059,13.7557 H 31.665159 c -6.759128,0 -12.200592,-6.13504 -12.200592,-13.7557 V 33.220267 c 0,-7.620658 5.441464,-13.7557 12.200592,-13.7557 z"
       style="fill:none;fill-opacity:1;stroke:#4d4d4d;stroke-width:1.13385832;stroke-miterlimit:4;stroke-dasharray:none;paint-order:stroke markers fill" />
    <g
       id="text4571"
       style="font-style:normal;font-weight:normal;font-size:40px;line-height:1.25;font-family:sans-serif;letter-spacing:0px;word-spacing:0px;fill:#4d4d4d;fill-opacity:1;stroke:none"
       aria-label="Program">
      <path
         id="path48"
         style="font-style:normal;font-variant:normal;font-weight:bold;font-stretch:normal;font-size:12px;font-family:'Fira Sans';-inkscape-font-specification:'Fira Sans Bold';fill:#4d4d4d"
         d="m 34.179979,197.71716 h -2.688 v 8.316 h 1.968 v -2.772 h 0.9 c 1.92,0 3.288,-0.9 3.288,-2.832 0,-1.824 -1.32,-2.712 -3.468,-2.712 z m 0.012,4.128 h -0.732 v -2.724 h 0.696 c 0.972,0 1.464,0.42 1.464,1.308 0,1.044 -0.54,1.416 -1.428,1.416 z" />
      <path
         id="path50"
         style="font-style:normal;font-variant:normal;font-weight:bold;font-stretch:normal;font-size:12px;font-family:'Fira Sans';-inkscape-font-specification:'Fira Sans Bold';fill:#4d4d4d"
         d="m 41.872916,199.48116 c -0.732,0 -1.356,0.528 -1.644,1.416 l -0.156,-1.236 h -1.656 v 6.372 h 1.896 v -3.156 c 0.204,-0.972 0.528,-1.56 1.32,-1.56 0.216,0 0.372,0.036 0.576,0.084 l 0.3,-1.836 c -0.204,-0.06 -0.396,-0.084 -0.636,-0.084 z" />
      <path
         id="path52"
         style="font-style:normal;font-variant:normal;font-weight:bold;font-stretch:normal;font-size:12px;font-family:'Fira Sans';-inkscape-font-specification:'Fira Sans Bold';fill:#4d4d4d"
         d="m 45.630041,199.45716 c -1.944,0 -3.12,1.344 -3.12,3.384 0,2.148 1.188,3.396 3.12,3.396 1.944,0 3.12,-1.344 3.12,-3.384 0,-2.148 -1.176,-3.396 -3.12,-3.396 z m 0,1.392 c 0.768,0 1.152,0.588 1.152,2.004 0,1.38 -0.384,1.992 -1.152,1.992 -0.768,0 -1.152,-0.588 -1.152,-2.004 0,-1.38 0.384,-1.992 1.152,-1.992 z" />
      <path
         id="path54"
         style="font-style:normal;font-variant:normal;font-weight:bold;font-stretch:normal;font-size:12px;font-family:'Fira Sans';-inkscape-font-specification:'Fira Sans Bold';fill:#4d4d4d"
         d="m 55.301854,198.62916 c -0.768,0.456 -1.584,0.864 -3,0.828 -1.668,0 -2.796,0.888 -2.796,2.328 0,0.828 0.324,1.392 1.14,1.824 -0.456,0.288 -0.756,0.756 -0.756,1.224 0,0.684 0.564,1.26 1.956,1.26 h 0.924 c 0.636,0 0.912,0.252 0.912,0.624 0,0.408 -0.264,0.72 -1.38,0.72 -1.152,0 -1.392,-0.24 -1.392,-0.792 h -1.704 c 0,1.26 0.636,2.052 3.048,2.052 2.184,0 3.336,-0.804 3.336,-2.112 0,-1.068 -0.948,-1.848 -2.436,-1.848 h -0.96 c -0.612,0 -0.696,-0.192 -0.696,-0.384 0,-0.144 0.072,-0.288 0.204,-0.36 0.228,0.048 0.468,0.072 0.732,0.072 1.656,0 2.676,-0.9 2.676,-2.136 0,-0.828 -0.396,-1.296 -1.2,-1.644 0.804,0 1.392,-0.072 1.836,-0.252 z m -2.952,2.076 c 0.636,0 0.96,0.324 0.96,1.032 0,0.732 -0.336,1.104 -0.96,1.104 -0.576,0 -0.96,-0.384 -0.96,-1.08 0,-0.66 0.372,-1.056 0.96,-1.056 z" />
      <path
         id="path56"
         style="font-style:normal;font-variant:normal;font-weight:bold;font-stretch:normal;font-size:12px;font-family:'Fira Sans';-inkscape-font-specification:'Fira Sans Bold';fill:#4d4d4d"
         d="m 59.943229,199.48116 c -0.732,0 -1.356,0.528 -1.644,1.416 l -0.156,-1.236 h -1.656 v 6.372 h 1.896 v -3.156 c 0.204,-0.972 0.528,-1.56 1.32,-1.56 0.216,0 0.372,0.036 0.576,0.084 l 0.3,-1.836 c -0.204,-0.06 -0.396,-0.084 -0.636,-0.084 z" />
      <path
         id="path58"
         style="font-style:normal;font-variant:normal;font-weight:bold;font-stretch:normal;font-size:12px;font-family:'Fira Sans';-inkscape-font-specification:'Fira Sans Bold';fill:#4d4d4d"
         d="m 65.934041,204.18516 v -2.472 c 0,-1.476 -0.792,-2.256 -2.64,-2.256 -0.72,0 -1.596,0.168 -2.4,0.468 l 0.432,1.248 c 0.636,-0.216 1.26,-0.336 1.668,-0.336 0.78,0 1.08,0.228 1.08,0.984 v 0.276 h -0.648 c -1.932,0 -2.988,0.756 -2.988,2.148 0,1.164 0.804,1.992 2.076,1.992 0.756,0 1.464,-0.252 1.92,-0.96 0.288,0.636 0.78,0.864 1.536,0.924 l 0.396,-1.236 c -0.3,-0.108 -0.432,-0.288 -0.432,-0.78 z m -2.868,0.696 c -0.468,0 -0.744,-0.3 -0.744,-0.804 0,-0.636 0.42,-0.936 1.284,-0.936 h 0.468 v 1.128 c -0.228,0.384 -0.564,0.612 -1.008,0.612 z" />
      <path
         id="path60"
         style="font-style:normal;font-variant:normal;font-weight:bold;font-stretch:normal;font-size:12px;font-family:'Fira Sans';-inkscape-font-specification:'Fira Sans Bold';fill:#4d4d4d"
         d="m 74.499979,199.45716 c -0.816,0 -1.404,0.336 -1.908,1.008 -0.24,-0.648 -0.792,-1.008 -1.5,-1.008 -0.78,0 -1.356,0.324 -1.848,0.948 l -0.132,-0.744 h -1.656 v 6.372 h 1.896 v -4.356 c 0.276,-0.528 0.576,-0.828 0.972,-0.828 0.288,0 0.54,0.18 0.54,0.852 v 4.332 h 1.896 v -4.356 c 0.276,-0.528 0.564,-0.828 0.972,-0.828 0.288,0 0.54,0.18 0.54,0.852 v 4.332 h 1.896 v -4.656 c 0,-1.212 -0.684,-1.92 -1.668,-1.92 z" />
    </g>
  </g>
  <g
     transform="translate(28.030284,19.464566)"
     id="g10460">
    <g
       id="g919">
      <path
         id="path5111"
         d="m 353.67274,79.43215 h 30.31084"
         style="fill:none;stroke:#000000;stroke-width:1.20000005;stroke-linecap:butt;stroke-linejoin:miter;stroke-miterlimit:4;stroke-dasharray:none;stroke-opacity:1;marker-end:url(#marker5115)" />
      <path
         id="rect4539"
         d="m 163.54809,20.699871 h 182.7749 c 4.15385,0 7.49792,4.402544 7.49792,9.871176 V 135.40905 c 0,5.46863 -3.34407,9.87117 -7.49792,9.87117 h -182.7749 c -4.15385,0 -7.49792,-4.40254 -7.49792,-9.87117 V 30.571047 c 0,-5.468632 3.34407,-9.871176 7.49792,-9.871176 z"
         style="fill:#ebebeb;fill-opacity:1;stroke:none;stroke-width:0.59407002;stroke-miterlimit:4;stroke-dasharray:none;paint-order:stroke markers fill" />
      <g
         id="text4543"
         style="font-style:normal;font-weight:normal;font-size:40px;line-height:1.25;font-family:sans-serif;letter-spacing:0px;word-spacing:0px;fill:#000000;fill-opacity:1;stroke:none"
         aria-label="Import">
        <path
           id="path64"
           style="font-style:normal;font-variant:normal;font-weight:normal;font-stretch:normal;font-size:14.66666698px;font-family:'Fira Sans';-inkscape-font-specification:'Fira Sans'"
           d="M 18.873273,75.427114 H 17.47994 v 10.105334 h 1.393333 z" />
        <path
           id="path66"
           style="font-style:normal;font-variant:normal;font-weight:normal;font-stretch:normal;font-size:14.66666698px;font-family:'Fira Sans';-inkscape-font-specification:'Fira Sans'"
           d="m 29.490794,77.627114 c -1.041333,0 -1.745333,0.557334 -2.302666,1.393334 -0.293334,-0.88 -0.997334,-1.393334 -1.950667,-1.393334 -1.012,0 -1.716,0.528 -2.229333,1.305334 l -0.117334,-1.129334 h -1.158666 v 7.729334 h 1.349333 v -5.485334 c 0.513333,-0.821333 0.982667,-1.364 1.818667,-1.364 0.586666,0 1.085333,0.337334 1.085333,1.496 v 5.353334 h 1.349333 v -5.485334 c 0.528,-0.821333 0.982667,-1.364 1.818667,-1.364 0.586667,0 1.085333,0.337334 1.085333,1.496 v 5.353334 h 1.349334 v -5.544 c 0,-1.452 -0.836,-2.361334 -2.097334,-2.361334 z" />
        <path
           id="path68"
           style="font-style:normal;font-variant:normal;font-weight:normal;font-stretch:normal;font-size:14.66666698px;font-family:'Fira Sans';-inkscape-font-specification:'Fira Sans'"
           d="m 37.856983,77.627114 c -0.88,0 -1.716,0.425334 -2.288,1.217334 L 35.466316,77.803114 H 34.30765 v 10.853334 l 1.349333,-0.161333 v -3.666667 c 0.498667,0.601333 1.188,0.88 2.024,0.88 1.994667,0 3.036,-1.701334 3.036,-4.048 0,-2.434667 -0.806667,-4.033334 -2.86,-4.033334 z m -0.498667,6.981334 c -0.704,0 -1.305333,-0.337334 -1.701333,-0.938667 v -3.769333 c 0.410667,-0.616 1.041333,-1.202667 1.862667,-1.202667 1.158666,0 1.745333,0.953333 1.745333,2.962667 0,2.024 -0.674667,2.948 -1.906667,2.948 z" />
        <path
           id="path70"
           style="font-style:normal;font-variant:normal;font-weight:normal;font-stretch:normal;font-size:14.66666698px;font-family:'Fira Sans';-inkscape-font-specification:'Fira Sans'"
           d="m 45.919984,77.627114 c -2.2,0 -3.461334,1.657334 -3.461334,4.048 0,2.449334 1.246667,4.033334 3.446667,4.033334 2.185333,0 3.446667,-1.657334 3.446667,-4.048 0,-2.449334 -1.232,-4.033334 -3.432,-4.033334 z m 0,1.085334 c 1.276,0 1.98,0.938666 1.98,2.948 0,2.024 -0.704,2.962666 -1.994667,2.962666 -1.290667,0 -1.994667,-0.938666 -1.994667,-2.948 0,-2.024 0.718667,-2.962666 2.009334,-2.962666 z" />
        <path
           id="path72"
           style="font-style:normal;font-variant:normal;font-weight:normal;font-stretch:normal;font-size:14.66666698px;font-family:'Fira Sans';-inkscape-font-specification:'Fira Sans'"
           d="m 54.939754,77.627114 c -0.938667,0 -1.657334,0.586667 -2.068,1.745334 l -0.132,-1.569334 h -1.158667 v 7.729334 h 1.349333 v -4.414667 c 0.322667,-1.481333 0.88,-2.170667 1.848,-2.170667 0.278667,0 0.44,0.02933 0.674667,0.088 l 0.249333,-1.32 c -0.234666,-0.05867 -0.513333,-0.088 -0.762666,-0.088 z" />
        <path
           id="path74"
           style="font-style:normal;font-variant:normal;font-weight:normal;font-stretch:normal;font-size:14.66666698px;font-family:'Fira Sans';-inkscape-font-specification:'Fira Sans'"
           d="m 60.640962,84.285781 c -0.381333,0.205333 -0.689333,0.308 -1.026667,0.308 -0.674666,0 -0.924,-0.366667 -0.924,-1.144 v -4.605333 h 1.686667 l 0.146667,-1.041334 h -1.833334 v -1.906666 l -1.349333,0.161333 v 1.745333 h -1.349333 v 1.041334 h 1.349333 v 4.664 c 0,1.437333 0.777333,2.2 2.082667,2.2 0.66,0 1.217333,-0.176 1.730666,-0.528 z" />
      </g>
      <g
         id="text4547"
         style="font-style:normal;font-weight:normal;font-size:40px;line-height:1.25;font-family:sans-serif;letter-spacing:0px;word-spacing:0px;fill:#000000;fill-opacity:1;stroke:none"
         aria-label="Tidy">
        <path
           id="path77"
           style="font-style:normal;font-variant:normal;font-weight:normal;font-stretch:normal;font-size:14.66666698px;font-family:'Fira Sans';-inkscape-font-specification:'Fira Sans'"
           d="m 114.59527,75.427114 h -7.216 v 1.188 h 2.87467 v 8.917334 h 1.39333 v -8.917334 h 2.80133 z" />
        <path
           id="path79"
           style="font-style:normal;font-variant:normal;font-weight:normal;font-stretch:normal;font-size:14.66666698px;font-family:'Fira Sans';-inkscape-font-specification:'Fira Sans'"
           d="m 116.80375,74.092448 c -0.55733,0 -0.93867,0.396 -0.93867,0.924 0,0.513333 0.38134,0.909333 0.93867,0.909333 0.572,0 0.95333,-0.396 0.95333,-0.909333 0,-0.528 -0.38133,-0.924 -0.95333,-0.924 z m 0.68933,3.710666 h -1.34933 v 7.729334 h 1.34933 z" />
        <path
           id="path81"
           style="font-style:normal;font-variant:normal;font-weight:normal;font-stretch:normal;font-size:14.66666698px;font-family:'Fira Sans';-inkscape-font-specification:'Fira Sans'"
           d="m 124.90342,74.532448 v 4.048 c -0.51334,-0.542667 -1.17334,-0.953334 -2.08267,-0.953334 -1.892,0 -3.036,1.716 -3.036,4.077334 0,2.405333 1.04133,4.004 2.91867,4.004 0.95333,0 1.73066,-0.469334 2.22933,-1.246667 l 0.132,1.070667 h 1.188 V 74.693781 Z m -1.90667,10.105333 c -1.11467,0 -1.76,-0.924 -1.76,-2.962667 0,-2.009333 0.71867,-2.977333 1.87733,-2.977333 0.76267,0 1.30534,0.396 1.78934,1.012 v 3.784 c -0.51334,0.718667 -1.04134,1.144 -1.90667,1.144 z" />
        <path
           id="path83"
           style="font-style:normal;font-variant:normal;font-weight:normal;font-stretch:normal;font-size:14.66666698px;font-family:'Fira Sans';-inkscape-font-specification:'Fira Sans'"
           d="m 134.71038,77.803114 h -1.39334 l -2.024,6.746667 -2.068,-6.746667 h -1.43733 l 2.596,7.729334 h 0.45467 c -0.44,1.202667 -0.88,1.804 -2.44934,2.068 l 0.14667,1.056 c 2.14133,-0.234667 3.05067,-1.437333 3.59333,-3.08 z" />
      </g>
      <g
         id="text4551"
         style="font-style:normal;font-weight:normal;font-size:40px;line-height:1.25;font-family:sans-serif;letter-spacing:0px;word-spacing:0px;fill:#000000;fill-opacity:1;stroke:none"
         aria-label="Transform">
        <path
           id="path86"
           style="font-style:normal;font-variant:normal;font-weight:normal;font-stretch:normal;font-size:14.66666698px;font-family:'Fira Sans';-inkscape-font-specification:'Fira Sans'"
           d="m 188.34787,75.427114 h -7.216 v 1.188 h 2.87466 v 8.917334 h 1.39334 v -8.917334 h 2.80133 z" />
        <path
           id="path88"
           style="font-style:normal;font-variant:normal;font-weight:normal;font-stretch:normal;font-size:14.66666698px;font-family:'Fira Sans';-inkscape-font-specification:'Fira Sans'"
           d="m 192.82532,77.627114 c -0.93866,0 -1.65733,0.586667 -2.068,1.745334 l -0.132,-1.569334 h -1.15866 v 7.729334 h 1.34933 v -4.414667 c 0.32267,-1.481333 0.88,-2.170667 1.848,-2.170667 0.27867,0 0.44,0.02933 0.67467,0.088 l 0.24933,-1.32 c -0.23467,-0.05867 -0.51333,-0.088 -0.76267,-0.088 z" />
        <path
           id="path90"
           style="font-style:normal;font-variant:normal;font-weight:normal;font-stretch:normal;font-size:14.66666698px;font-family:'Fira Sans';-inkscape-font-specification:'Fira Sans'"
           d="m 199.82957,83.728448 v -3.534667 c 0,-1.613333 -0.85066,-2.566667 -2.71333,-2.566667 -0.86533,0 -1.716,0.176 -2.66933,0.528 l 0.33733,0.982667 c 0.792,-0.264 1.51067,-0.410667 2.08267,-0.410667 1.07066,0 1.61333,0.410667 1.61333,1.525334 v 0.572 h -1.188 c -2.156,0 -3.40267,0.894666 -3.40267,2.552 0,1.378666 0.924,2.332 2.464,2.332 0.93867,0 1.76,-0.352 2.30267,-1.158667 0.23467,0.762667 0.73333,1.070667 1.51067,1.158667 l 0.308,-0.938667 c -0.396,-0.146667 -0.64534,-0.366667 -0.64534,-1.041333 z m -3.168,0.968 c -0.88,0 -1.33466,-0.484 -1.33466,-1.393334 0,-1.056 0.71866,-1.584 2.14133,-1.584 h 1.012 v 1.774667 c -0.44,0.806667 -1.02667,1.202667 -1.81867,1.202667 z" />
        <path
           id="path92"
           style="font-style:normal;font-variant:normal;font-weight:normal;font-stretch:normal;font-size:14.66666698px;font-family:'Fira Sans';-inkscape-font-specification:'Fira Sans'"
           d="m 206.25243,77.627114 c -1.012,0 -1.83333,0.528 -2.36133,1.32 l -0.11734,-1.144 h -1.15866 v 7.729334 h 1.34933 v -5.485334 c 0.51333,-0.821333 1.1,-1.364 1.96533,-1.364 0.748,0 1.21734,0.337334 1.21734,1.496 v 5.353334 h 1.34933 v -5.544 c 0,-1.466667 -0.82133,-2.361334 -2.244,-2.361334 z" />
        <path
           id="path94"
           style="font-style:normal;font-variant:normal;font-weight:normal;font-stretch:normal;font-size:14.66666698px;font-family:'Fira Sans';-inkscape-font-specification:'Fira Sans'"
           d="m 213.30618,77.627114 c -1.59867,0 -2.78667,0.894667 -2.78667,2.126667 0,1.085333 0.66,1.804 2.332,2.244 1.496,0.396 1.87734,0.689333 1.87734,1.452 0,0.733333 -0.64534,1.173333 -1.65734,1.173333 -0.836,0 -1.55466,-0.278666 -2.17066,-0.748 l -0.71867,0.821334 c 0.67467,0.586666 1.61333,1.012 2.91867,1.012 1.56933,0 3.05066,-0.733334 3.05066,-2.346667 0,-1.349333 -0.93866,-1.994667 -2.56666,-2.405333 -1.24667,-0.322667 -1.65734,-0.616 -1.65734,-1.246667 0,-0.616 0.54267,-1.012 1.42267,-1.012 0.71867,0 1.32,0.22 2.00933,0.66 l 0.572,-0.850667 c -0.73333,-0.557333 -1.54,-0.88 -2.62533,-0.88 z" />
        <path
           id="path96"
           style="font-style:normal;font-variant:normal;font-weight:normal;font-stretch:normal;font-size:14.66666698px;font-family:'Fira Sans';-inkscape-font-specification:'Fira Sans'"
           d="m 220.68053,75.617781 c 0.396,0 0.85067,0.07333 1.34934,0.293333 l 0.42533,-0.982666 c -0.616,-0.264 -1.11467,-0.396 -1.848,-0.396 -1.56933,0 -2.42,0.924 -2.42,2.214666 v 1.056 h -1.37867 v 1.041334 h 1.37867 v 6.688 h 1.34933 v -6.688 h 1.73067 l 0.14667,-1.041334 h -1.87734 v -1.070666 c 0,-0.748 0.29334,-1.114667 1.144,-1.114667 z" />
        <path
           id="path98"
           style="font-style:normal;font-variant:normal;font-weight:normal;font-stretch:normal;font-size:14.66666698px;font-family:'Fira Sans';-inkscape-font-specification:'Fira Sans'"
           d="m 225.74305,77.627114 c -2.2,0 -3.46133,1.657334 -3.46133,4.048 0,2.449334 1.24667,4.033334 3.44667,4.033334 2.18533,0 3.44666,-1.657334 3.44666,-4.048 0,-2.449334 -1.232,-4.033334 -3.432,-4.033334 z m 0,1.085334 c 1.276,0 1.98,0.938666 1.98,2.948 0,2.024 -0.704,2.962666 -1.99466,2.962666 -1.29067,0 -1.99467,-0.938666 -1.99467,-2.948 0,-2.024 0.71867,-2.962666 2.00933,-2.962666 z" />
        <path
           id="path100"
           style="font-style:normal;font-variant:normal;font-weight:normal;font-stretch:normal;font-size:14.66666698px;font-family:'Fira Sans';-inkscape-font-specification:'Fira Sans'"
           d="m 234.76283,77.627114 c -0.93867,0 -1.65734,0.586667 -2.068,1.745334 l -0.132,-1.569334 h -1.15867 v 7.729334 h 1.34933 v -4.414667 c 0.32267,-1.481333 0.88,-2.170667 1.848,-2.170667 0.27867,0 0.44,0.02933 0.67467,0.088 l 0.24933,-1.32 c -0.23466,-0.05867 -0.51333,-0.088 -0.76266,-0.088 z" />
        <path
           id="path102"
           style="font-style:normal;font-variant:normal;font-weight:normal;font-stretch:normal;font-size:14.66666698px;font-family:'Fira Sans';-inkscape-font-specification:'Fira Sans'"
           d="m 244.8347,77.627114 c -1.04133,0 -1.74533,0.557334 -2.30267,1.393334 -0.29333,-0.88 -0.99733,-1.393334 -1.95066,-1.393334 -1.012,0 -1.716,0.528 -2.22934,1.305334 l -0.11733,-1.129334 h -1.15867 v 7.729334 h 1.34934 v -5.485334 c 0.51333,-0.821333 0.98266,-1.364 1.81866,-1.364 0.58667,0 1.08534,0.337334 1.08534,1.496 v 5.353334 h 1.34933 v -5.485334 c 0.528,-0.821333 0.98267,-1.364 1.81867,-1.364 0.58666,0 1.08533,0.337334 1.08533,1.496 v 5.353334 h 1.34933 v -5.544 c 0,-1.452 -0.836,-2.361334 -2.09733,-2.361334 z" />
      </g>
      <g
         id="text4555"
         style="font-style:normal;font-weight:normal;font-size:40px;line-height:1.25;font-family:sans-serif;letter-spacing:0px;word-spacing:0px;fill:#000000;fill-opacity:1;stroke:none"
         aria-label="Visualise">
        <path
           id="path105"
           style="font-style:normal;font-variant:normal;font-weight:normal;font-stretch:normal;font-size:14.66666698px;font-family:'Fira Sans';-inkscape-font-specification:'Fira Sans'"
           d="m 286.77388,30.437437 h -1.408 l -2.53733,8.594667 -2.53734,-8.594667 h -1.496 l 3.256,10.105333 h 1.496 z" />
        <path
           id="path107"
           style="font-style:normal;font-variant:normal;font-weight:normal;font-stretch:normal;font-size:14.66666698px;font-family:'Fira Sans';-inkscape-font-specification:'Fira Sans'"
           d="m 288.92461,29.10277 c -0.55733,0 -0.93867,0.396 -0.93867,0.924 0,0.513334 0.38134,0.909334 0.93867,0.909334 0.572,0 0.95333,-0.396 0.95333,-0.909334 0,-0.528 -0.38133,-0.924 -0.95333,-0.924 z m 0.68933,3.710667 h -1.34933 v 7.729333 h 1.34933 z" />
        <path
           id="path109"
           style="font-style:normal;font-variant:normal;font-weight:normal;font-stretch:normal;font-size:14.66666698px;font-family:'Fira Sans';-inkscape-font-specification:'Fira Sans'"
           d="m 294.48694,32.637437 c -1.59866,0 -2.78666,0.894667 -2.78666,2.126667 0,1.085333 0.66,1.804 2.332,2.244 1.496,0.396 1.87733,0.689333 1.87733,1.452 0,0.733333 -0.64533,1.173333 -1.65733,1.173333 -0.836,0 -1.55467,-0.278667 -2.17067,-0.748 l -0.71867,0.821333 c 0.67467,0.586667 1.61334,1.012 2.91867,1.012 1.56933,0 3.05067,-0.733333 3.05067,-2.346666 0,-1.349334 -0.93867,-1.994667 -2.56667,-2.405334 -1.24667,-0.322666 -1.65733,-0.616 -1.65733,-1.246666 0,-0.616 0.54266,-1.012 1.42266,-1.012 0.71867,0 1.32,0.22 2.00934,0.66 l 0.572,-0.850667 c -0.73334,-0.557333 -1.54,-0.88 -2.62534,-0.88 z" />
        <path
           id="path111"
           style="font-style:normal;font-variant:normal;font-weight:normal;font-stretch:normal;font-size:14.66666698px;font-family:'Fira Sans';-inkscape-font-specification:'Fira Sans'"
           d="m 304.9853,32.813437 h -1.34933 v 5.514667 c -0.46934,0.777333 -1.1,1.334666 -1.936,1.334666 -0.836,0 -1.188,-0.396 -1.188,-1.452 v -5.397333 h -1.34934 v 5.544 c 0,1.510667 0.80667,2.361333 2.156,2.361333 1.1,0 1.81867,-0.44 2.40534,-1.378666 l 0.10266,1.202666 h 1.15867 z" />
        <path
           id="path113"
           style="font-style:normal;font-variant:normal;font-weight:normal;font-stretch:normal;font-size:14.66666698px;font-family:'Fira Sans';-inkscape-font-specification:'Fira Sans'"
           d="m 312.97909,38.73877 v -3.534666 c 0,-1.613334 -0.85067,-2.566667 -2.71333,-2.566667 -0.86534,0 -1.716,0.176 -2.66934,0.528 l 0.33734,0.982667 c 0.792,-0.264 1.51066,-0.410667 2.08266,-0.410667 1.07067,0 1.61334,0.410667 1.61334,1.525333 v 0.572 h -1.188 c -2.156,0 -3.40267,0.894667 -3.40267,2.552 0,1.378667 0.924,2.332 2.464,2.332 0.93867,0 1.76,-0.352 2.30267,-1.158666 0.23466,0.762666 0.73333,1.070666 1.51066,1.158666 l 0.308,-0.938666 c -0.396,-0.146667 -0.64533,-0.366667 -0.64533,-1.041334 z m -3.168,0.968 c -0.88,0 -1.33467,-0.484 -1.33467,-1.393333 0,-1.056 0.71867,-1.584 2.14134,-1.584 h 1.012 v 1.774667 c -0.44,0.806666 -1.02667,1.202666 -1.81867,1.202666 z" />
        <path
           id="path115"
           style="font-style:normal;font-variant:normal;font-weight:normal;font-stretch:normal;font-size:14.66666698px;font-family:'Fira Sans';-inkscape-font-specification:'Fira Sans'"
           d="m 317.16138,40.71877 c 0.396,0 0.77734,-0.102666 1.07067,-0.264 l -0.352,-0.938666 c -0.14667,0.05867 -0.308,0.088 -0.49867,0.088 -0.352,0 -0.484,-0.205334 -0.484,-0.616 V 29.54277 l -1.34933,0.161333 v 9.313334 c 0,1.1 0.63067,1.701333 1.61333,1.701333 z" />
        <path
           id="path117"
           style="font-style:normal;font-variant:normal;font-weight:normal;font-stretch:normal;font-size:14.66666698px;font-family:'Fira Sans';-inkscape-font-specification:'Fira Sans'"
           d="m 320.57826,29.10277 c -0.55733,0 -0.93867,0.396 -0.93867,0.924 0,0.513334 0.38134,0.909334 0.93867,0.909334 0.572,0 0.95333,-0.396 0.95333,-0.909334 0,-0.528 -0.38133,-0.924 -0.95333,-0.924 z m 0.68933,3.710667 h -1.34933 v 7.729333 h 1.34933 z" />
        <path
           id="path119"
           style="font-style:normal;font-variant:normal;font-weight:normal;font-stretch:normal;font-size:14.66666698px;font-family:'Fira Sans';-inkscape-font-specification:'Fira Sans'"
           d="m 326.14059,32.637437 c -1.59866,0 -2.78666,0.894667 -2.78666,2.126667 0,1.085333 0.66,1.804 2.332,2.244 1.496,0.396 1.87733,0.689333 1.87733,1.452 0,0.733333 -0.64533,1.173333 -1.65733,1.173333 -0.836,0 -1.55467,-0.278667 -2.17067,-0.748 l -0.71867,0.821333 c 0.67467,0.586667 1.61334,1.012 2.91867,1.012 1.56933,0 3.05067,-0.733333 3.05067,-2.346666 0,-1.349334 -0.93867,-1.994667 -2.56667,-2.405334 -1.24667,-0.322666 -1.65733,-0.616 -1.65733,-1.246666 0,-0.616 0.54266,-1.012 1.42266,-1.012 0.71867,0 1.32,0.22 2.00934,0.66 l 0.572,-0.850667 c -0.73334,-0.557333 -1.54,-0.88 -2.62534,-0.88 z" />
        <path
           id="path121"
           style="font-style:normal;font-variant:normal;font-weight:normal;font-stretch:normal;font-size:14.66666698px;font-family:'Fira Sans';-inkscape-font-specification:'Fira Sans'"
           d="m 336.72694,36.45077 c 0,-2.361333 -1.1,-3.813333 -3.18266,-3.813333 -1.99467,0 -3.212,1.716 -3.212,4.121333 0,2.449334 1.26133,3.96 3.41733,3.96 1.07067,0 1.936,-0.366666 2.69867,-0.968 l -0.58667,-0.806666 c -0.67467,0.469333 -1.24667,0.674666 -2.00933,0.674666 -1.11467,0 -1.95067,-0.689333 -2.08267,-2.478666 h 4.928 c 0.0147,-0.176 0.0293,-0.425334 0.0293,-0.689334 z m -1.33466,-0.308 h -3.62267 c 0.10267,-1.716 0.77733,-2.434666 1.804,-2.434666 1.21733,0 1.81867,0.836 1.81867,2.346666 z" />
      </g>
      <g
         id="text4559"
         style="font-style:normal;font-weight:normal;font-size:40px;line-height:1.25;font-family:sans-serif;letter-spacing:0px;word-spacing:0px;fill:#000000;fill-opacity:1;stroke:none"
         aria-label="Model">
        <path
           id="path124"
           style="font-style:normal;font-variant:normal;font-weight:normal;font-stretch:normal;font-size:14.66666698px;font-family:'Fira Sans';-inkscape-font-specification:'Fira Sans'"
           d="m 290.66018,117.36664 h -1.892 l -2.024,7.348 -2.12667,-7.348 h -1.87733 l -0.836,10.10534 h 1.32 l 0.33733,-4.45867 c 0.11733,-1.48133 0.19067,-3.05067 0.19067,-4.23867 l 2.30266,7.55334 h 1.30534 l 2.18533,-7.53867 c 0.0147,0.836 0.11733,2.53733 0.24933,4.12133 l 0.352,4.56134 h 1.34934 z" />
        <path
           id="path126"
           style="font-style:normal;font-variant:normal;font-weight:normal;font-stretch:normal;font-size:14.66666698px;font-family:'Fira Sans';-inkscape-font-specification:'Fira Sans'"
           d="m 296.69322,119.56664 c -2.2,0 -3.46134,1.65734 -3.46134,4.048 0,2.44934 1.24667,4.03334 3.44667,4.03334 2.18533,0 3.44667,-1.65734 3.44667,-4.048 0,-2.44934 -1.232,-4.03334 -3.432,-4.03334 z m 0,1.08534 c 1.276,0 1.98,0.93866 1.98,2.948 0,2.024 -0.704,2.96266 -1.99467,2.96266 -1.29067,0 -1.99467,-0.93866 -1.99467,-2.948 0,-2.024 0.71867,-2.96266 2.00934,-2.96266 z" />
        <path
           id="path128"
           style="font-style:normal;font-variant:normal;font-weight:normal;font-stretch:normal;font-size:14.66666698px;font-family:'Fira Sans';-inkscape-font-specification:'Fira Sans'"
           d="m 306.98899,116.47198 v 4.048 c -0.51333,-0.54267 -1.17333,-0.95334 -2.08267,-0.95334 -1.892,0 -3.036,1.716 -3.036,4.07734 0,2.40533 1.04134,4.004 2.91867,4.004 0.95333,0 1.73067,-0.46934 2.22933,-1.24667 l 0.132,1.07067 h 1.188 v -10.83867 z m -1.90667,10.10533 c -1.11466,0 -1.76,-0.924 -1.76,-2.96267 0,-2.00933 0.71867,-2.97733 1.87734,-2.97733 0.76266,0 1.30533,0.396 1.78933,1.012 v 3.784 c -0.51333,0.71867 -1.04133,1.144 -1.90667,1.144 z" />
        <path
           id="path130"
           style="font-style:normal;font-variant:normal;font-weight:normal;font-stretch:normal;font-size:14.66666698px;font-family:'Fira Sans';-inkscape-font-specification:'Fira Sans'"
           d="m 316.95728,123.37998 c 0,-2.36134 -1.1,-3.81334 -3.18267,-3.81334 -1.99466,0 -3.212,1.716 -3.212,4.12134 0,2.44933 1.26134,3.96 3.41734,3.96 1.07066,0 1.936,-0.36667 2.69866,-0.968 l -0.58666,-0.80667 c -0.67467,0.46933 -1.24667,0.67467 -2.00934,0.67467 -1.11466,0 -1.95066,-0.68934 -2.08266,-2.47867 h 4.928 c 0.0147,-0.176 0.0293,-0.42533 0.0293,-0.68933 z m -1.33467,-0.308 h -3.62266 c 0.10266,-1.716 0.77733,-2.43467 1.804,-2.43467 1.21733,0 1.81866,0.836 1.81866,2.34667 z" />
        <path
           id="path132"
           style="font-style:normal;font-variant:normal;font-weight:normal;font-stretch:normal;font-size:14.66666698px;font-family:'Fira Sans';-inkscape-font-specification:'Fira Sans'"
           d="m 320.65214,127.64798 c 0.396,0 0.77733,-0.10267 1.07066,-0.264 l -0.352,-0.93867 c -0.14666,0.0587 -0.308,0.088 -0.49866,0.088 -0.352,0 -0.484,-0.20533 -0.484,-0.616 v -9.44533 l -1.34934,0.16133 v 9.31333 c 0,1.1 0.63067,1.70134 1.61334,1.70134 z" />
      </g>
      <g
         id="text4563"
         style="font-style:normal;font-weight:normal;font-size:40px;line-height:1.25;font-family:sans-serif;letter-spacing:0px;word-spacing:0px;fill:#000000;fill-opacity:1;stroke:none"
         aria-label="Communicate">
        <path
           id="path135"
           style="font-style:normal;font-variant:normal;font-weight:normal;font-stretch:normal;font-size:14.66666698px;font-family:'Fira Sans';-inkscape-font-specification:'Fira Sans'"
           d="m 397.31554,75.251107 c -2.288,0 -4.19466,1.804 -4.19466,5.221333 0,3.402667 1.77466,5.236 4.224,5.236 1.364,0 2.332,-0.557333 2.88933,-1.129333 l -0.68933,-0.88 c -0.572,0.425333 -1.20267,0.836 -2.156,0.836 -1.56934,0 -2.78667,-1.144 -2.78667,-4.062667 0,-3.050667 1.276,-4.077333 2.80133,-4.077333 0.704,0 1.32,0.234666 1.95067,0.748 l 0.76267,-0.894667 c -0.80667,-0.645333 -1.52534,-0.997333 -2.80134,-0.997333 z" />
        <path
           id="path137"
           style="font-style:normal;font-variant:normal;font-weight:normal;font-stretch:normal;font-size:14.66666698px;font-family:'Fira Sans';-inkscape-font-specification:'Fira Sans'"
           d="m 404.54644,77.627107 c -2.2,0 -3.46134,1.657333 -3.46134,4.048 0,2.449333 1.24667,4.033333 3.44667,4.033333 2.18534,0 3.44667,-1.657333 3.44667,-4.048 0,-2.449333 -1.232,-4.033333 -3.432,-4.033333 z m 0,1.085333 c 1.276,0 1.98,0.938667 1.98,2.948 0,2.024 -0.704,2.962667 -1.99467,2.962667 -1.29066,0 -1.99466,-0.938667 -1.99466,-2.948 0,-2.024 0.71866,-2.962667 2.00933,-2.962667 z" />
        <path
           id="path139"
           style="font-style:normal;font-variant:normal;font-weight:normal;font-stretch:normal;font-size:14.66666698px;font-family:'Fira Sans';-inkscape-font-specification:'Fira Sans'"
           d="m 417.96621,77.627107 c -1.04133,0 -1.74533,0.557333 -2.30267,1.393333 -0.29333,-0.88 -0.99733,-1.393333 -1.95066,-1.393333 -1.012,0 -1.716,0.528 -2.22934,1.305333 l -0.11733,-1.129333 h -1.15867 v 7.729333 h 1.34934 v -5.485333 c 0.51333,-0.821334 0.98266,-1.364 1.81866,-1.364 0.58667,0 1.08534,0.337333 1.08534,1.496 v 5.353333 h 1.34933 v -5.485333 c 0.528,-0.821334 0.98267,-1.364 1.81867,-1.364 0.58666,0 1.08533,0.337333 1.08533,1.496 v 5.353333 h 1.34933 v -5.544 c 0,-1.452 -0.836,-2.361333 -2.09733,-2.361333 z" />
        <path
           id="path141"
           style="font-style:normal;font-variant:normal;font-weight:normal;font-stretch:normal;font-size:14.66666698px;font-family:'Fira Sans';-inkscape-font-specification:'Fira Sans'"
           d="m 430.54173,77.627107 c -1.04133,0 -1.74533,0.557333 -2.30267,1.393333 -0.29333,-0.88 -0.99733,-1.393333 -1.95066,-1.393333 -1.012,0 -1.716,0.528 -2.22934,1.305333 l -0.11733,-1.129333 h -1.15867 v 7.729333 h 1.34934 v -5.485333 c 0.51333,-0.821334 0.98266,-1.364 1.81866,-1.364 0.58667,0 1.08534,0.337333 1.08534,1.496 v 5.353333 h 1.34933 v -5.485333 c 0.528,-0.821334 0.98267,-1.364 1.81867,-1.364 0.58666,0 1.08533,0.337333 1.08533,1.496 v 5.353333 h 1.34933 v -5.544 c 0,-1.452 -0.836,-2.361333 -2.09733,-2.361333 z" />
        <path
           id="path143"
           style="font-style:normal;font-variant:normal;font-weight:normal;font-stretch:normal;font-size:14.66666698px;font-family:'Fira Sans';-inkscape-font-specification:'Fira Sans'"
           d="m 441.10792,77.803107 h -1.34933 v 5.514666 c -0.46934,0.777334 -1.1,1.334667 -1.936,1.334667 -0.836,0 -1.188,-0.396 -1.188,-1.452 v -5.397333 h -1.34934 v 5.544 c 0,1.510667 0.80667,2.361333 2.156,2.361333 1.1,0 1.81867,-0.44 2.40534,-1.378667 l 0.10266,1.202667 h 1.15867 z" />
        <path
           id="path145"
           style="font-style:normal;font-variant:normal;font-weight:normal;font-stretch:normal;font-size:14.66666698px;font-family:'Fira Sans';-inkscape-font-specification:'Fira Sans'"
           d="m 447.53238,77.627107 c -1.012,0 -1.83333,0.528 -2.36133,1.32 l -0.11734,-1.144 h -1.15866 v 7.729333 h 1.34933 v -5.485333 c 0.51333,-0.821334 1.1,-1.364 1.96533,-1.364 0.748,0 1.21734,0.337333 1.21734,1.496 v 5.353333 h 1.34933 v -5.544 c 0,-1.466667 -0.82133,-2.361333 -2.244,-2.361333 z" />
        <path
           id="path147"
           style="font-style:normal;font-variant:normal;font-weight:normal;font-stretch:normal;font-size:14.66666698px;font-family:'Fira Sans';-inkscape-font-specification:'Fira Sans'"
           d="m 453.1488,74.09244 c -0.55734,0 -0.93867,0.396 -0.93867,0.924 0,0.513333 0.38133,0.909333 0.93867,0.909333 0.572,0 0.95333,-0.396 0.95333,-0.909333 0,-0.528 -0.38133,-0.924 -0.95333,-0.924 z m 0.68933,3.710667 h -1.34933 v 7.729333 h 1.34933 z" />
        <path
           id="path149"
           style="font-style:normal;font-variant:normal;font-weight:normal;font-stretch:normal;font-size:14.66666698px;font-family:'Fira Sans';-inkscape-font-specification:'Fira Sans'"
           d="m 459.4298,77.627107 c -2.09734,0 -3.37334,1.642666 -3.37334,4.106666 0,2.493334 1.29067,3.974667 3.37334,3.974667 0.89466,0 1.672,-0.293333 2.36133,-0.850666 l -0.616,-0.880001 c -0.58667,0.381334 -1.04133,0.586667 -1.68667,0.586667 -1.21733,0 -1.98,-0.836 -1.98,-2.86 0,-2.009333 0.76267,-2.962667 1.98,-2.962667 0.64534,0 1.12934,0.190667 1.65734,0.572 l 0.64533,-0.850666 c -0.71867,-0.601334 -1.452,-0.836 -2.36133,-0.836 z" />
        <path
           id="path151"
           style="font-style:normal;font-variant:normal;font-weight:normal;font-stretch:normal;font-size:14.66666698px;font-family:'Fira Sans';-inkscape-font-specification:'Fira Sans'"
           d="m 468.69546,83.72844 v -3.534667 c 0,-1.613333 -0.85067,-2.566666 -2.71333,-2.566666 -0.86534,0 -1.716,0.176 -2.66934,0.528 l 0.33734,0.982666 c 0.792,-0.264 1.51066,-0.410666 2.08266,-0.410666 1.07067,0 1.61334,0.410666 1.61334,1.525333 v 0.572 h -1.188 c -2.156,0 -3.40267,0.894667 -3.40267,2.552 0,1.378667 0.924,2.332 2.464,2.332 0.93867,0 1.76,-0.352 2.30267,-1.158667 0.23466,0.762667 0.73333,1.070667 1.51066,1.158667 l 0.308,-0.938666 c -0.396,-0.146667 -0.64533,-0.366667 -0.64533,-1.041334 z m -3.168,0.968 c -0.88,0 -1.33467,-0.484 -1.33467,-1.393333 0,-1.056 0.71867,-1.584 2.14134,-1.584 h 1.012 v 1.774666 c -0.44,0.806667 -1.02667,1.202667 -1.81867,1.202667 z" />
        <path
           id="path153"
           style="font-style:normal;font-variant:normal;font-weight:normal;font-stretch:normal;font-size:14.66666698px;font-family:'Fira Sans';-inkscape-font-specification:'Fira Sans'"
           d="m 474.86898,84.285773 c -0.38133,0.205334 -0.68933,0.308 -1.02667,0.308 -0.67466,0 -0.924,-0.366666 -0.924,-1.144 V 78.84444 h 1.68667 l 0.14667,-1.041333 h -1.83334 V 75.89644 l -1.34933,0.161333 v 1.745334 h -1.34933 v 1.041333 h 1.34933 v 4.664 c 0,1.437334 0.77733,2.2 2.08267,2.2 0.66,0 1.21733,-0.176 1.73066,-0.528 z" />
        <path
           id="path155"
           style="font-style:normal;font-variant:normal;font-weight:normal;font-stretch:normal;font-size:14.66666698px;font-family:'Fira Sans';-inkscape-font-specification:'Fira Sans'"
           d="m 482.38863,81.44044 c 0,-2.361333 -1.1,-3.813333 -3.18267,-3.813333 -1.99467,0 -3.212,1.716 -3.212,4.121333 0,2.449333 1.26133,3.96 3.41733,3.96 1.07067,0 1.936,-0.366666 2.69867,-0.968 l -0.58667,-0.806667 c -0.67466,0.469334 -1.24666,0.674667 -2.00933,0.674667 -1.11467,0 -1.95067,-0.689333 -2.08267,-2.478667 h 4.928 c 0.0147,-0.176 0.0293,-0.425333 0.0293,-0.689333 z m -1.33467,-0.308 h -3.62267 c 0.10267,-1.716 0.77734,-2.434667 1.804,-2.434667 1.21734,0 1.81867,0.836 1.81867,2.346667 z" />
      </g>
      <g
         id="text4567"
         style="font-style:normal;font-weight:normal;font-size:40px;line-height:1.25;font-family:sans-serif;letter-spacing:0px;word-spacing:0px;fill:#4d4d4d;fill-opacity:1;stroke:none"
         aria-label="Understand">
        <path
           id="path158"
           style="font-style:normal;font-variant:normal;font-weight:bold;font-stretch:normal;font-size:12px;font-family:'Fira Sans';-inkscape-font-specification:'Fira Sans Bold';fill:#4d4d4d"
           d="m 167.28474,148.89491 h -1.968 v 5.472 c 0,1.068 -0.384,1.584 -1.284,1.584 -0.888,0 -1.272,-0.516 -1.272,-1.584 v -5.472 h -1.968 v 5.556 c 0,1.752 1.068,2.964 3.24,2.964 2.172,0 3.252,-1.284 3.252,-2.964 z" />
        <path
           id="path160"
           style="font-style:normal;font-variant:normal;font-weight:bold;font-stretch:normal;font-size:12px;font-family:'Fira Sans';-inkscape-font-specification:'Fira Sans Bold';fill:#4d4d4d"
           d="m 172.41342,150.63491 c -0.792,0 -1.404,0.324 -1.944,0.96 l -0.132,-0.756 h -1.656 v 6.372 h 1.896 v -4.356 c 0.336,-0.528 0.684,-0.828 1.104,-0.828 0.372,0 0.6,0.18 0.6,0.852 v 4.332 h 1.896 v -4.656 c 0,-1.212 -0.66,-1.92 -1.764,-1.92 z" />
        <path
           id="path162"
           style="font-style:normal;font-variant:normal;font-weight:bold;font-stretch:normal;font-size:12px;font-family:'Fira Sans';-inkscape-font-specification:'Fira Sans Bold';fill:#4d4d4d"
           d="m 179.41149,148.10291 v 3.132 c -0.372,-0.372 -0.888,-0.6 -1.512,-0.6 -1.572,0 -2.604,1.404 -2.604,3.372 0,2.064 0.804,3.408 2.424,3.408 0.864,0 1.44,-0.42 1.812,-0.948 l 0.096,0.744 h 1.68 v -8.904 z m -1.104,7.92 c -0.612,0 -1.044,-0.42 -1.044,-2.004 0,-1.428 0.48,-2.004 1.152,-2.004 0.42,0 0.708,0.204 0.996,0.54 v 2.748 c -0.3,0.48 -0.648,0.72 -1.104,0.72 z" />
        <path
           id="path164"
           style="font-style:normal;font-variant:normal;font-weight:bold;font-stretch:normal;font-size:12px;font-family:'Fira Sans';-inkscape-font-specification:'Fira Sans Bold';fill:#4d4d4d"
           d="m 188.3468,153.89891 c 0,-2.064 -1.116,-3.264 -2.94,-3.264 -1.932,0 -2.976,1.512 -2.976,3.42 0,1.992 1.08,3.36 3.204,3.36 1.032,0 1.848,-0.384 2.484,-0.888 l -0.78,-1.056 c -0.552,0.384 -1.008,0.564 -1.524,0.564 -0.78,0 -1.32,-0.312 -1.452,-1.452 h 3.948 c 0.024,-0.192 0.036,-0.48 0.036,-0.684 z m -1.86,-0.456 h -2.124 c 0.084,-1.14 0.456,-1.548 1.092,-1.548 0.756,0 1.02,0.6 1.032,1.464 z" />
        <path
           id="path166"
           style="font-style:normal;font-variant:normal;font-weight:bold;font-stretch:normal;font-size:12px;font-family:'Fira Sans';-inkscape-font-specification:'Fira Sans Bold';fill:#4d4d4d"
           d="m 192.87961,150.65891 c -0.732,0 -1.356,0.528 -1.644,1.416 l -0.156,-1.236 h -1.656 v 6.372 h 1.896 v -3.156 c 0.204,-0.972 0.528,-1.56 1.32,-1.56 0.216,0 0.372,0.036 0.576,0.084 l 0.3,-1.836 c -0.204,-0.06 -0.396,-0.084 -0.636,-0.084 z" />
        <path
           id="path168"
           style="font-style:normal;font-variant:normal;font-weight:bold;font-stretch:normal;font-size:12px;font-family:'Fira Sans';-inkscape-font-specification:'Fira Sans Bold';fill:#4d4d4d"
           d="m 196.33167,150.63491 c -1.608,0 -2.604,0.852 -2.604,1.944 0,0.984 0.624,1.632 1.884,1.992 1.152,0.324 1.344,0.456 1.344,0.888 0,0.384 -0.348,0.6 -0.924,0.6 -0.624,0 -1.212,-0.252 -1.692,-0.624 l -0.924,1.032 c 0.624,0.564 1.56,0.948 2.664,0.948 1.584,0 2.832,-0.78 2.832,-2.1 0,-1.14 -0.708,-1.668 -1.968,-2.028 -1.14,-0.336 -1.308,-0.48 -1.308,-0.816 0,-0.288 0.252,-0.48 0.768,-0.48 0.552,0 1.08,0.18 1.572,0.492 l 0.696,-1.068 c -0.588,-0.48 -1.416,-0.78 -2.34,-0.78 z" />
        <path
           id="path170"
           style="font-style:normal;font-variant:normal;font-weight:bold;font-stretch:normal;font-size:12px;font-family:'Fira Sans';-inkscape-font-specification:'Fira Sans Bold';fill:#4d4d4d"
           d="m 203.23674,155.71091 c -0.252,0.144 -0.468,0.204 -0.684,0.204 -0.396,0 -0.6,-0.216 -0.6,-0.828 v -2.928 h 1.26 l 0.204,-1.32 h -1.464 v -1.596 l -1.896,0.216 v 1.38 h -0.9 v 1.32 h 0.9 v 2.952 c 0,1.5 0.684,2.292 2.088,2.304 0.576,0 1.248,-0.168 1.728,-0.504 z" />
        <path
           id="path172"
           style="font-style:normal;font-variant:normal;font-weight:bold;font-stretch:normal;font-size:12px;font-family:'Fira Sans';-inkscape-font-specification:'Fira Sans Bold';fill:#4d4d4d"
           d="m 209.44074,155.36291 v -2.472 c 0,-1.476 -0.792,-2.256 -2.64,-2.256 -0.72,0 -1.596,0.168 -2.4,0.468 l 0.432,1.248 c 0.636,-0.216 1.26,-0.336 1.668,-0.336 0.78,0 1.08,0.228 1.08,0.984 v 0.276 h -0.648 c -1.932,0 -2.988,0.756 -2.988,2.148 0,1.164 0.804,1.992 2.076,1.992 0.756,0 1.464,-0.252 1.92,-0.96 0.288,0.636 0.78,0.864 1.536,0.924 l 0.396,-1.236 c -0.3,-0.108 -0.432,-0.288 -0.432,-0.78 z m -2.868,0.696 c -0.468,0 -0.744,-0.3 -0.744,-0.804 0,-0.636 0.42,-0.936 1.284,-0.936 h 0.468 v 1.128 c -0.228,0.384 -0.564,0.612 -1.008,0.612 z" />
        <path
           id="path174"
           style="font-style:normal;font-variant:normal;font-weight:bold;font-stretch:normal;font-size:12px;font-family:'Fira Sans';-inkscape-font-specification:'Fira Sans Bold';fill:#4d4d4d"
           d="m 214.69467,150.63491 c -0.792,0 -1.404,0.324 -1.944,0.96 l -0.132,-0.756 h -1.656 v 6.372 h 1.896 v -4.356 c 0.336,-0.528 0.684,-0.828 1.104,-0.828 0.372,0 0.6,0.18 0.6,0.852 v 4.332 h 1.896 v -4.656 c 0,-1.212 -0.66,-1.92 -1.764,-1.92 z" />
        <path
           id="path176"
           style="font-style:normal;font-variant:normal;font-weight:bold;font-stretch:normal;font-size:12px;font-family:'Fira Sans';-inkscape-font-specification:'Fira Sans Bold';fill:#4d4d4d"
           d="m 221.69274,148.10291 v 3.132 c -0.372,-0.372 -0.888,-0.6 -1.512,-0.6 -1.572,0 -2.604,1.404 -2.604,3.372 0,2.064 0.804,3.408 2.424,3.408 0.864,0 1.44,-0.42 1.812,-0.948 l 0.096,0.744 h 1.68 v -8.904 z m -1.104,7.92 c -0.612,0 -1.044,-0.42 -1.044,-2.004 0,-1.428 0.48,-2.004 1.152,-2.004 0.42,0 0.708,0.204 0.996,0.54 v 2.748 c -0.3,0.48 -0.648,0.72 -1.104,0.72 z" />
      </g>
      <path
         id="path4575"
         d="M 73.079144,79.43215 H 93.640209"
         style="fill:none;stroke:#000000;stroke-width:1.20000005;stroke-linecap:butt;stroke-linejoin:miter;stroke-miterlimit:4;stroke-dasharray:none;stroke-opacity:1;marker-end:url(#Arrow2Mend)" />
      <path
         style="fill:none;stroke:#000000;stroke-width:1.20000005;stroke-linecap:butt;stroke-linejoin:miter;stroke-miterlimit:4;stroke-dasharray:none;stroke-opacity:1;marker-end:url(#marker4863)"
         d="m 146.63522,79.43215 h 20.75759"
         id="path4859" />
      <path
         id="path5884"
         d="m 225.79809,64.625404 c 9.75098,-8.660838 18.49385,-17.211899 42.02725,-22.267332"
         style="fill:none;stroke:#000000;stroke-width:1.20000005;stroke-linecap:butt;stroke-linejoin:miter;stroke-miterlimit:4;stroke-dasharray:none;stroke-opacity:1;marker-end:url(#marker5888)" />
      <path
         id="path7060"
         d="m 270.65369,129.26428 c -31.2991,5.72311 -57.67444,3.74131 -55.45104,-30.077309"
         style="fill:none;stroke:#000000;stroke-width:1.20000005;stroke-linecap:butt;stroke-linejoin:miter;stroke-miterlimit:4;stroke-dasharray:none;stroke-opacity:1;marker-end:url(#marker7064)" />
      <path
         id="path8272"
         d="m 327.45227,50.498526 c 11.59167,13.040714 10.13511,32.526011 -8.06957,53.637634"
         style="fill:none;stroke:#000000;stroke-width:1.20000005;stroke-linecap:butt;stroke-linejoin:miter;stroke-miterlimit:4;stroke-dasharray:none;stroke-opacity:1;marker-end:url(#marker8276)" />
    </g>
  </g>
</svg>
