<?xml version="1.0" encoding="UTF-8" standalone="no"?>
<svg
   xmlns:dc="http://purl.org/dc/elements/1.1/"
   xmlns:cc="http://creativecommons.org/ns#"
   xmlns:rdf="http://www.w3.org/1999/02/22-rdf-syntax-ns#"
   xmlns:svg="http://www.w3.org/2000/svg"
   xmlns="http://www.w3.org/2000/svg"
   width="48.720116mm"
   height="38.123447mm"
   viewBox="0 0 172.63033 135.08308"
   id="svg2"
   version="1.1">
  <defs
     id="defs4" />
  <metadata
     id="metadata7">
    <rdf:RDF>
      <cc:Work
         rdf:about="">
        <dc:format>image/svg+xml</dc:format>
        <dc:type
           rdf:resource="http://purl.org/dc/dcmitype/StillImage" />
        <dc:title />
      </cc:Work>
    </rdf:RDF>
  </metadata>
  <g
     transform="translate(-252.58391,-233.64307)"
     id="layer1" />
  <g
     transform="translate(-194.8338,-114.89383)"
     id="g4643">
    <g
       transform="rotate(45,272.58732,193.07442)"
       id="g3377">
      <g
         transform="rotate(-90,270.07967,199.12842)"
         id="g3423">
        <g
           transform="rotate(45,281.14895,208.72877)"
           id="g3511">
          <g
             id="g3467"
             transform="translate(8.5616405,3.5463483)">
            <path
               id="path5039"
               d="m 254.36524,156.07871 58.51457,58.51457"
               style="fill:none;fill-rule:evenodd;stroke:#999999;stroke-width:1.06299222;stroke-linecap:butt;stroke-linejoin:miter;stroke-miterlimit:4;stroke-dasharray:none;stroke-opacity:1" />
            <path
               style="fill:none;fill-rule:evenodd;stroke:#999999;stroke-width:1.06299222;stroke-linecap:butt;stroke-linejoin:miter;stroke-miterlimit:4;stroke-dasharray:none;stroke-opacity:1"
               d="m 266.67832,143.74895 58.52287,58.52286"
               id="path5041" />
            <path
               style="fill:none;fill-rule:evenodd;stroke:#999999;stroke-width:1.06299222;stroke-linecap:butt;stroke-linejoin:miter;stroke-miterlimit:4;stroke-dasharray:none;stroke-opacity:1"
               d="m 242.00357,168.3599 58.55458,58.55458"
               id="path5043" />
            <path
               id="rect4769"
               d="m 343.13107,-95.636765 h 16.92522 v 17.425131 h -16.92522 z"
               style="fill:#8fd091;fill-opacity:1;stroke:#000000;stroke-width:1.0629921;stroke-miterlimit:4;stroke-dasharray:none"
               transform="rotate(45)" />
            <path
               id="rect4771"
               d="m 343.13107,-78.211639 h 16.92522 v 17.42513 h -16.92522 z"
               style="fill:#cabddc;fill-opacity:1;stroke:#000000;stroke-width:1.0629921;stroke-miterlimit:4;stroke-dasharray:none"
               transform="rotate(45)" />
            <path
               id="rect4773"
               d="m 343.13107,-60.786495 h 16.92522 v 17.425131 h -16.92522 z"
               style="fill:#fffda9;fill-opacity:1;stroke:#000000;stroke-width:1.0629921;stroke-miterlimit:4;stroke-dasharray:none"
               transform="rotate(45)" />
            <path
               id="rect4775"
               d="m 359.93277,-95.636765 h 25.87727 v 17.425131 h -25.87727 z"
               style="fill:#cccccc;fill-opacity:1;stroke:#000000;stroke-width:1.0629921;stroke-miterlimit:4;stroke-dasharray:none"
               transform="rotate(45)" />
            <path
               id="rect4777"
               d="m 359.93277,-60.786495 h 25.87727 v 17.425131 h -25.87727 z"
               style="fill:#cccccc;fill-opacity:1;stroke:#000000;stroke-width:1.0629921;stroke-miterlimit:4;stroke-dasharray:none"
               transform="rotate(45)" />
            <path
               id="rect4779"
               d="m 359.93277,-78.211639 h 25.87727 v 17.42513 h -25.87727 z"
               style="fill:#cccccc;fill-opacity:1;stroke:#000000;stroke-width:1.0629921;stroke-miterlimit:4;stroke-dasharray:none"
               transform="rotate(45)" />
            <g
               id="text4781"
               style="font-style:normal;font-weight:normal;line-height:0%;font-family:sans-serif;letter-spacing:0px;word-spacing:0px;fill:#000000;fill-opacity:1;stroke:none;stroke-width:1px;stroke-linecap:butt;stroke-linejoin:miter;stroke-opacity:1"
               transform="rotate(45)"
               aria-label="1">
              <path
                 id="path61"
                 style="font-style:normal;font-variant:normal;font-weight:normal;font-stretch:normal;font-size:12.5px;line-height:1.25;font-family:'Fira Sans';-inkscape-font-specification:'Fira Sans'"
                 d="m 352.88766,-90.82198 h -1.0125 l -2.5875,1.6 0.5,0.8125 1.95,-1.1875 v 7.1375 h 1.15 z" />
            </g>
            <g
               id="text4785"
               style="font-style:normal;font-weight:normal;line-height:0%;font-family:sans-serif;letter-spacing:0px;word-spacing:0px;fill:#000000;fill-opacity:1;stroke:none;stroke-width:1px;stroke-linecap:butt;stroke-linejoin:miter;stroke-opacity:1"
               transform="rotate(45)"
               aria-label="y1">
              <path
                 id="path64"
                 style="font-style:normal;font-variant:normal;font-weight:normal;font-stretch:normal;font-size:12.5px;line-height:1.25;font-family:'Fira Sans';-inkscape-font-specification:'Fira Sans'"
                 d="m 373.44596,-89.04698 h -1.1875 l -1.725,5.75 -1.7625,-5.75 h -1.225 l 2.2125,6.5875 h 0.3875 c -0.375,1.025 -0.75,1.5375 -2.0875,1.7625 l 0.125,0.9 c 1.825,-0.2 2.6,-1.225 3.0625,-2.625 z" />
              <path
                 id="path66"
                 style="font-style:normal;font-variant:normal;font-weight:normal;font-stretch:normal;font-size:12.5px;line-height:1.25;font-family:'Fira Sans';-inkscape-font-specification:'Fira Sans'"
                 d="m 377.6108,-90.82198 h -1.0125 l -2.5875,1.6 0.5,0.8125 1.95,-1.1875 v 7.1375 h 1.15 z" />
            </g>
            <g
               id="text4789"
               style="font-style:normal;font-weight:normal;line-height:0%;font-family:sans-serif;letter-spacing:0px;word-spacing:0px;fill:#000000;fill-opacity:1;stroke:none;stroke-width:1px;stroke-linecap:butt;stroke-linejoin:miter;stroke-opacity:1"
               transform="rotate(45)"
               aria-label="2">
              <path
                 id="path69"
                 style="font-style:normal;font-variant:normal;font-weight:normal;font-stretch:normal;font-size:12.5px;line-height:1.25;font-family:'Fira Sans';-inkscape-font-specification:'Fira Sans'"
                 d="m 350.87924,-73.482182 c -1.05,0 -1.8625,0.425 -2.5375,1.2625 l 0.75,0.6 c 0.5625,-0.6375 1.025,-0.9125 1.725,-0.9125 0.8125,0 1.375,0.5125 1.375,1.3875 0,1.3625 -0.725,2.1625 -3.675,5.2375 v 0.9125 h 4.9375 l 0.1375,-0.9625 h -3.7625 c 2.5625,-2.5625 3.5625,-3.675 3.5625,-5.2375 0,-1.3 -0.975,-2.2875 -2.5125,-2.2875 z" />
            </g>
            <g
               id="text4793"
               style="font-style:normal;font-weight:normal;line-height:0%;font-family:sans-serif;letter-spacing:0px;word-spacing:0px;fill:#000000;fill-opacity:1;stroke:none;stroke-width:1px;stroke-linecap:butt;stroke-linejoin:miter;stroke-opacity:1"
               transform="rotate(45)"
               aria-label="y2">
              <path
                 id="path72"
                 style="font-style:normal;font-variant:normal;font-weight:normal;font-stretch:normal;font-size:12.5px;line-height:1.25;font-family:'Fira Sans';-inkscape-font-specification:'Fira Sans'"
                 d="m 373.44596,-71.621855 h -1.1875 l -1.725,5.75 -1.7625,-5.75 h -1.225 l 2.2125,6.5875 h 0.3875 c -0.375,1.025 -0.75,1.5375 -2.0875,1.7625 l 0.125,0.9 c 1.825,-0.2 2.6,-1.225 3.0625,-2.625 z" />
              <path
                 id="path74"
                 style="font-style:normal;font-variant:normal;font-weight:normal;font-stretch:normal;font-size:12.5px;line-height:1.25;font-family:'Fira Sans';-inkscape-font-specification:'Fira Sans'"
                 d="m 376.30123,-73.521855 c -1.05,0 -1.8625,0.425 -2.5375,1.2625 l 0.75,0.6 c 0.5625,-0.6375 1.025,-0.9125 1.725,-0.9125 0.8125,0 1.375,0.5125 1.375,1.3875 0,1.3625 -0.725,2.1625 -3.675,5.2375 v 0.9125 h 4.9375 l 0.1375,-0.9625 h -3.7625 c 2.5625,-2.5625 3.5625,-3.675 3.5625,-5.2375 0,-1.3 -0.975,-2.2875 -2.5125,-2.2875 z" />
            </g>
            <g
               id="text4797"
               style="font-style:normal;font-weight:normal;line-height:0%;font-family:sans-serif;letter-spacing:0px;word-spacing:0px;fill:#000000;fill-opacity:1;stroke:none;stroke-width:1px;stroke-linecap:butt;stroke-linejoin:miter;stroke-opacity:1"
               transform="rotate(45)"
               aria-label="4">
              <path
                 id="path77"
                 style="font-style:normal;font-variant:normal;font-weight:normal;font-stretch:normal;font-size:12.5px;line-height:1.25;font-family:'Fira Sans';-inkscape-font-specification:'Fira Sans'"
                 d="m 354.33781,-50.605569 h -1.0875 v -2.25 h -1 l -0.1,2.25 h -2.375 l 2.2625,-5.1125 -0.9625,-0.4 -2.5125,5.6 v 0.825 h 3.575 v 2.0625 h 1.1125 v -2.0625 h 1.0875 z" />
            </g>
            <g
               id="text4801"
               style="font-style:normal;font-weight:normal;line-height:0%;font-family:sans-serif;letter-spacing:0px;word-spacing:0px;fill:#000000;fill-opacity:1;stroke:none;stroke-width:1px;stroke-linecap:butt;stroke-linejoin:miter;stroke-opacity:1"
               transform="rotate(45)"
               aria-label="y3">
              <path
                 id="path80"
                 style="font-style:normal;font-variant:normal;font-weight:normal;font-stretch:normal;font-size:12.5px;line-height:1.25;font-family:'Fira Sans';-inkscape-font-specification:'Fira Sans'"
                 d="m 373.44596,-54.196707 h -1.1875 l -1.725,5.75 -1.7625,-5.75 h -1.225 l 2.2125,6.5875 h 0.3875 c -0.375,1.025 -0.75,1.5375 -2.0875,1.7625 l 0.125,0.9 c 1.825,-0.2 2.6,-1.225 3.0625,-2.625 z" />
              <path
                 id="path82"
                 style="font-style:normal;font-variant:normal;font-weight:normal;font-stretch:normal;font-size:12.5px;line-height:1.25;font-family:'Fira Sans';-inkscape-font-specification:'Fira Sans'"
                 d="m 376.2149,-56.096707 c -0.9,0 -1.675,0.325 -2.3875,0.9875 l 0.6,0.6875 c 0.5625,-0.525 1.0625,-0.75 1.725,-0.75 0.8375,0 1.3875,0.4875 1.3875,1.275 0,0.975 -0.6875,1.475 -1.5125,1.475 h -0.425 l -0.1375,0.8875 h 0.625 c 1.0125,0 1.6625,0.35 1.6625,1.5 0,0.9875 -0.6375,1.6375 -1.6875,1.6375 -0.675,0 -1.2375,-0.25 -1.7875,-0.825 l -0.6875,0.6375 c 0.6375,0.7625 1.5125,1.125 2.5125,1.125 1.7375,0 2.85,-1.1 2.85,-2.5625 0,-1.2625 -0.8375,-1.925 -1.8875,-2.025 0.9375,-0.225 1.625,-0.8625 1.625,-1.925 0,-1.125 -0.875,-2.125 -2.475,-2.125 z" />
            </g>
            <path
               id="path5045"
               d="m 219.9696,202.27353 58.64828,-58.64829"
               style="fill:none;fill-rule:evenodd;stroke:#999999;stroke-width:1.0629921;stroke-linecap:butt;stroke-linejoin:miter;stroke-miterlimit:4;stroke-dasharray:none;stroke-opacity:1" />
            <path
               style="fill:none;fill-rule:evenodd;stroke:#999999;stroke-width:1.06299222;stroke-linecap:butt;stroke-linejoin:miter;stroke-miterlimit:4;stroke-dasharray:none;stroke-opacity:1"
               d="m 232.29165,214.59432 58.71607,-58.71607"
               id="path5047" />
            <path
               id="path5049"
               d="m 244.61271,226.91612 58.64777,-58.64776"
               style="fill:none;fill-rule:evenodd;stroke:#999999;stroke-width:1.06299222;stroke-linecap:butt;stroke-linejoin:miter;stroke-miterlimit:4;stroke-dasharray:none;stroke-opacity:1" />
            <path
               id="rect4934"
               d="M -42.367119,289.8584 H -25.4419 v 17.42513 h -16.925219 z"
               style="fill:#8fd091;fill-opacity:1;stroke:#000000;stroke-width:1.0629921;stroke-miterlimit:4;stroke-dasharray:none"
               transform="matrix(-0.70710678,0.70710678,0.70710678,0.70710678,0,0)" />
            <path
               id="rect4936"
               d="M -42.367119,307.28354 H -25.4419 v 17.42513 h -16.925219 z"
               style="fill:#cabddc;fill-opacity:1;stroke:#000000;stroke-width:1.0629921;stroke-miterlimit:4;stroke-dasharray:none"
               transform="matrix(-0.70710678,0.70710678,0.70710678,0.70710678,0,0)" />
            <path
               id="rect4938"
               d="M -42.367119,324.70868 H -25.4419 v 17.42513 h -16.925219 z"
               style="fill:#fecb98;fill-opacity:1;stroke:#000000;stroke-width:1.0629921;stroke-miterlimit:4;stroke-dasharray:none"
               transform="matrix(-0.70710678,0.70710678,0.70710678,0.70710678,0,0)" />
            <path
               id="rect4940"
               d="M -25.56542,289.8584 H 0.31184578 v 17.42513 H -25.56542 Z"
               style="fill:#cccccc;fill-opacity:1;stroke:#000000;stroke-width:1.0629921;stroke-miterlimit:4;stroke-dasharray:none"
               transform="matrix(-0.70710678,0.70710678,0.70710678,0.70710678,0,0)" />
            <path
               id="rect4942"
               d="M -25.56542,324.70868 H 0.31184578 v 17.42513 H -25.56542 Z"
               style="fill:#cccccc;fill-opacity:1;stroke:#000000;stroke-width:1.0629921;stroke-miterlimit:4;stroke-dasharray:none"
               transform="matrix(-0.70710678,0.70710678,0.70710678,0.70710678,0,0)" />
            <path
               id="rect4944"
               d="M -25.56542,307.28354 H 0.31184578 v 17.42513 H -25.56542 Z"
               style="fill:#cccccc;fill-opacity:1;stroke:#000000;stroke-width:1.0629921;stroke-miterlimit:4;stroke-dasharray:none"
               transform="matrix(-0.70710678,0.70710678,0.70710678,0.70710678,0,0)" />
            <g
               id="text4950"
               style="font-style:normal;font-weight:normal;line-height:0%;font-family:sans-serif;letter-spacing:0px;word-spacing:0px;fill:#000000;fill-opacity:1;stroke:none;stroke-width:1px;stroke-linecap:butt;stroke-linejoin:miter;stroke-opacity:1"
               transform="rotate(-45)"
               aria-label="x1">
              <path
                 id="path91"
                 style="font-style:normal;font-variant:normal;font-weight:normal;font-stretch:normal;font-size:12.5px;line-height:1.25;font-family:'Fira Sans';-inkscape-font-specification:'Fira Sans'"
                 d="m 10.888848,299.51068 2.025,-3.0625 h -1.3 l -1.3875,2.4125 -1.3750003,-2.4125 h -1.35 l 2.0375,3.1125 -2.3,3.475 h 1.3 l 1.6375003,-2.7875 1.6125,2.7875 h 1.3875 z" />
              <path
                 id="path93"
                 style="font-style:normal;font-variant:normal;font-weight:normal;font-stretch:normal;font-size:12.5px;line-height:1.25;font-family:'Fira Sans';-inkscape-font-specification:'Fira Sans'"
                 d="m 17.073223,294.67318 h -1.0125 l -2.5875,1.6 0.5,0.8125 1.95,-1.1875 v 7.1375 h 1.15 z" />
            </g>
            <g
               id="text4970"
               style="font-style:normal;font-weight:normal;line-height:0%;font-family:sans-serif;letter-spacing:0px;word-spacing:0px;fill:#000000;fill-opacity:1;stroke:none;stroke-width:1px;stroke-linecap:butt;stroke-linejoin:miter;stroke-opacity:1"
               transform="rotate(-45)"
               aria-label="x2">
              <path
                 id="path96"
                 style="font-style:normal;font-variant:normal;font-weight:normal;font-stretch:normal;font-size:12.5px;line-height:1.25;font-family:'Fira Sans';-inkscape-font-specification:'Fira Sans'"
                 d="m 10.888848,316.93582 2.025,-3.0625 h -1.3 l -1.3875,2.4125 -1.3750003,-2.4125 h -1.35 l 2.0375,3.1125 -2.3,3.475 h 1.3 l 1.6375003,-2.7875 1.6125,2.7875 h 1.3875 z" />
              <path
                 id="path98"
                 style="font-style:normal;font-variant:normal;font-weight:normal;font-stretch:normal;font-size:12.5px;line-height:1.25;font-family:'Fira Sans';-inkscape-font-specification:'Fira Sans'"
                 d="m 16.081035,311.97332 c -1.05,0 -1.8625,0.425 -2.5375,1.2625 l 0.75,0.6 c 0.5625,-0.6375 1.025,-0.9125 1.725,-0.9125 0.8125,0 1.375,0.5125 1.375,1.3875 0,1.3625 -0.725,2.1625 -3.675,5.2375 v 0.9125 h 4.9375 l 0.1375,-0.9625 h -3.7625 c 2.5625,-2.5625 3.5625,-3.675 3.5625,-5.2375 0,-1.3 -0.975,-2.2875 -2.5125,-2.2875 z" />
            </g>
            <g
               id="text4974"
               style="font-style:normal;font-weight:normal;line-height:0%;font-family:sans-serif;letter-spacing:0px;word-spacing:0px;fill:#000000;fill-opacity:1;stroke:none;stroke-width:1px;stroke-linecap:butt;stroke-linejoin:miter;stroke-opacity:1"
               transform="rotate(-45)"
               aria-label="x3">
              <path
                 id="path101"
                 style="font-style:normal;font-variant:normal;font-weight:normal;font-stretch:normal;font-size:12.5px;line-height:1.25;font-family:'Fira Sans';-inkscape-font-specification:'Fira Sans'"
                 d="m 10.888848,334.36096 2.025,-3.0625 h -1.3 l -1.3875,2.4125 -1.3750003,-2.4125 h -1.35 l 2.0375,3.1125 -2.3,3.475 h 1.3 l 1.6375003,-2.7875 1.6125,2.7875 h 1.3875 z" />
              <path
                 id="path103"
                 style="font-style:normal;font-variant:normal;font-weight:normal;font-stretch:normal;font-size:12.5px;line-height:1.25;font-family:'Fira Sans';-inkscape-font-specification:'Fira Sans'"
                 d="m 16.043535,329.39846 c -0.9,0 -1.675,0.325 -2.3875,0.9875 l 0.6,0.6875 c 0.5625,-0.525 1.0625,-0.75 1.725,-0.75 0.8375,0 1.3875,0.4875 1.3875,1.275 0,0.975 -0.6875,1.475 -1.5125,1.475 h -0.425 l -0.1375,0.8875 h 0.625 c 1.0125,0 1.6625,0.35 1.6625,1.5 0,0.9875 -0.6375,1.6375 -1.6875,1.6375 -0.675,0 -1.2375,-0.25 -1.7875,-0.825 l -0.6875,0.6375 c 0.6375,0.7625 1.5125,1.125 2.5125,1.125 1.7375,0 2.85,-1.1 2.85,-2.5625 0,-1.2625 -0.8375,-1.925 -1.8875,-2.025 0.9375,-0.225 1.625,-0.8625 1.625,-1.925 0,-1.125 -0.875,-2.125 -2.475,-2.125 z" />
            </g>
            <g
               id="text4978"
               style="font-style:normal;font-weight:normal;line-height:0%;font-family:sans-serif;letter-spacing:0px;word-spacing:0px;fill:#000000;fill-opacity:1;stroke:none;stroke-width:1px;stroke-linecap:butt;stroke-linejoin:miter;stroke-opacity:1"
               transform="rotate(-45)"
               aria-label="1">
              <path
                 id="path106"
                 style="font-style:normal;font-variant:normal;font-weight:normal;font-stretch:normal;font-size:12.5px;line-height:1.25;font-family:'Fira Sans';-inkscape-font-specification:'Fira Sans'"
                 d="m 35.198471,294.67321 h -1.0125 l -2.5875,1.6 0.5,0.8125 1.95,-1.1875 v 7.1375 h 1.15 z" />
            </g>
            <g
               id="text4982"
               style="font-style:normal;font-weight:normal;line-height:0%;font-family:sans-serif;letter-spacing:0px;word-spacing:0px;fill:#000000;fill-opacity:1;stroke:none;stroke-width:1px;stroke-linecap:butt;stroke-linejoin:miter;stroke-opacity:1"
               transform="rotate(-45)"
               aria-label="2">
              <path
                 id="path109"
                 style="font-style:normal;font-variant:normal;font-weight:normal;font-stretch:normal;font-size:12.5px;line-height:1.25;font-family:'Fira Sans';-inkscape-font-specification:'Fira Sans'"
                 d="m 33.190048,312.01299 c -1.05,0 -1.8625,0.425 -2.5375,1.2625 l 0.75,0.6 c 0.5625,-0.6375 1.025,-0.9125 1.725,-0.9125 0.8125,0 1.375,0.5125 1.375,1.3875 0,1.3625 -0.725,2.1625 -3.675,5.2375 v 0.9125 h 4.9375 l 0.1375,-0.9625 h -3.7625 c 2.5625,-2.5625 3.5625,-3.675 3.5625,-5.2375 0,-1.3 -0.975,-2.2875 -2.5125,-2.2875 z" />
            </g>
            <g
               id="text4986"
               style="font-style:normal;font-weight:normal;line-height:0%;font-family:sans-serif;letter-spacing:0px;word-spacing:0px;fill:#000000;fill-opacity:1;stroke:none;stroke-width:1px;stroke-linecap:butt;stroke-linejoin:miter;stroke-opacity:1"
               transform="rotate(-45)"
               aria-label="3">
              <path
                 id="path112"
                 style="font-style:normal;font-variant:normal;font-weight:normal;font-stretch:normal;font-size:12.5px;line-height:1.25;font-family:'Fira Sans';-inkscape-font-specification:'Fira Sans'"
                 d="m 33.326498,329.37709 c -0.9,0 -1.675,0.325 -2.3875,0.9875 l 0.6,0.6875 c 0.5625,-0.525 1.0625,-0.75 1.725,-0.75 0.8375,0 1.3875,0.4875 1.3875,1.275 0,0.975 -0.6875,1.475 -1.5125,1.475 h -0.425 l -0.1375,0.8875 h 0.625 c 1.0125,0 1.6625,0.35 1.6625,1.5 0,0.9875 -0.6375,1.6375 -1.6875,1.6375 -0.675,0 -1.2375,-0.25 -1.7875,-0.825 l -0.6875,0.6375 c 0.6375,0.7625 1.5125,1.125 2.5125,1.125 1.7375,0 2.85,-1.1 2.85,-2.5625 0,-1.2625 -0.8375,-1.925 -1.8875,-2.025 0.9375,-0.225 1.625,-0.8625 1.625,-1.925 0,-1.125 -0.875,-2.125 -2.475,-2.125 z" />
            </g>
          </g>
        </g>
      </g>
    </g>
  </g>
</svg>
