<?xml version="1.0" encoding="UTF-8" standalone="no"?>
<svg
   xmlns:dc="http://purl.org/dc/elements/1.1/"
   xmlns:cc="http://creativecommons.org/ns#"
   xmlns:rdf="http://www.w3.org/1999/02/22-rdf-syntax-ns#"
   xmlns:svg="http://www.w3.org/2000/svg"
   xmlns="http://www.w3.org/2000/svg"
   viewBox="0 0 766.63013 313.28058"
   height="82.888817mm"
   width="202.83755mm"
   id="svg2"
   version="1.1">
  <metadata
     id="metadata8">
    <rdf:RDF>
      <cc:Work
         rdf:about="">
        <dc:format>image/svg+xml</dc:format>
        <dc:type
           rdf:resource="http://purl.org/dc/dcmitype/StillImage" />
        <dc:title />
      </cc:Work>
    </rdf:RDF>
  </metadata>
  <defs
     id="defs6" />
  <g
     id="text887"
     style="font-style:normal;font-weight:normal;font-size:40px;line-height:1.25;font-family:sans-serif;letter-spacing:0px;word-spacing:0px;fill:#000000;fill-opacity:1;stroke:none;stroke-width:1.13385832;stroke-miterlimit:4;stroke-dasharray:none;paint-order:markers fill stroke"
     aria-label="params">
    <path
       id="path62"
       style="font-style:normal;font-variant:normal;font-weight:normal;font-stretch:normal;font-size:16px;font-family:'Fira Mono';-inkscape-font-specification:'Fira Mono';stroke-width:1.13385832;stroke-miterlimit:4;stroke-dasharray:none;paint-order:markers fill stroke"
       d="m 244.32307,23.125576 c -1.008,0 -1.904,0.496 -2.512,1.36 l -0.112,-1.184 h -1.152 v 11.824 l 1.344,-0.16 v -4.016 c 0.576,0.64 1.312,0.96 2.24,0.96 2.192,0 3.248,-1.84 3.248,-4.4 0,-2.64 -0.816,-4.384 -3.056,-4.384 z m -0.32,1.088 c 1.328,0 1.92,1.104 1.92,3.296 0,2.24 -0.704,3.28 -2.096,3.28 -0.8,0 -1.488,-0.4 -1.936,-1.056 v -4.176 c 0.464,-0.672 1.184,-1.344 2.112,-1.344 z" />
    <path
       id="path64"
       style="font-style:normal;font-variant:normal;font-weight:normal;font-stretch:normal;font-size:16px;font-family:'Fira Mono';-inkscape-font-specification:'Fira Mono';stroke-width:1.13385832;stroke-miterlimit:4;stroke-dasharray:none;paint-order:markers fill stroke"
       d="m 256.18882,29.893576 v -4.048 c 0,-1.664 -1.056,-2.72 -3.152,-2.72 -0.832,0 -1.728,0.16 -2.768,0.528 l 0.368,1.024 c 0.864,-0.304 1.632,-0.432 2.192,-0.432 1.248,0 2,0.448 2,1.68 v 0.688 h -1.248 c -2.544,0 -3.936,0.976 -3.936,2.704 0,1.568 1.024,2.592 2.72,2.592 1.088,0 2.032,-0.4 2.64,-1.184 0.224,0.768 0.816,1.104 1.536,1.2 l 0.336,-0.96 c -0.48,-0.144 -0.688,-0.4 -0.688,-1.072 z m -3.488,1.008 c -1.104,0 -1.616,-0.544 -1.616,-1.6 0,-1.088 0.672,-1.76 2.528,-1.76 h 1.216 v 2.16 c -0.496,0.752 -1.296,1.2 -2.128,1.2 z" />
    <path
       id="path66"
       style="font-style:normal;font-variant:normal;font-weight:normal;font-stretch:normal;font-size:16px;font-family:'Fira Mono';-inkscape-font-specification:'Fira Mono';stroke-width:1.13385832;stroke-miterlimit:4;stroke-dasharray:none;paint-order:markers fill stroke"
       d="m 265.43057,23.125576 c -1.52,0 -2.384,0.8 -3.024,2.176 l -0.256,-2 h -2.336 v 1.04 h 1.328 v 6.352 h -1.328 v 1.04 h 4.384 v -1.04 h -1.712 v -3.552 c 0.544,-1.856 1.472,-2.784 2.768,-2.784 h 0.08 v 1.808 h 1.088 l 0.192,-2.864 c -0.368,-0.096 -0.72,-0.176 -1.184,-0.176 z" />
    <path
       id="path68"
       style="font-style:normal;font-variant:normal;font-weight:normal;font-stretch:normal;font-size:16px;font-family:'Fira Mono';-inkscape-font-specification:'Fira Mono';stroke-width:1.13385832;stroke-miterlimit:4;stroke-dasharray:none;paint-order:markers fill stroke"
       d="m 275.37632,29.893576 v -4.048 c 0,-1.664 -1.056,-2.72 -3.152,-2.72 -0.832,0 -1.728,0.16 -2.768,0.528 l 0.368,1.024 c 0.864,-0.304 1.632,-0.432 2.192,-0.432 1.248,0 2,0.448 2,1.68 v 0.688 h -1.248 c -2.544,0 -3.936,0.976 -3.936,2.704 0,1.568 1.024,2.592 2.72,2.592 1.088,0 2.032,-0.4 2.64,-1.184 0.224,0.768 0.816,1.104 1.536,1.2 l 0.336,-0.96 c -0.48,-0.144 -0.688,-0.4 -0.688,-1.072 z m -3.488,1.008 c -1.104,0 -1.616,-0.544 -1.616,-1.6 0,-1.088 0.672,-1.76 2.528,-1.76 h 1.216 v 2.16 c -0.496,0.752 -1.296,1.2 -2.128,1.2 z" />
    <path
       id="path70"
       style="font-style:normal;font-variant:normal;font-weight:normal;font-stretch:normal;font-size:16px;font-family:'Fira Mono';-inkscape-font-specification:'Fira Mono';stroke-width:1.13385832;stroke-miterlimit:4;stroke-dasharray:none;paint-order:markers fill stroke"
       d="m 284.47407,23.125576 c -0.848,0 -1.392,0.448 -1.856,1.12 -0.256,-0.864 -0.88,-1.12 -1.52,-1.12 -0.848,0 -1.376,0.512 -1.824,1.168 l -0.096,-0.992 h -1.04 v 8.432 h 1.232 v -6.544 c 0.464,-0.72 0.944,-1.008 1.472,-1.008 0.608,0 0.656,0.432 0.656,1.504 v 6.048 h 1.248 v -6.544 c 0.464,-0.72 0.96,-1.008 1.472,-1.008 0.608,0 0.656,0.432 0.656,1.504 v 6.048 h 1.232 v -6.272 c 0,-1.936 -0.816,-2.336 -1.632,-2.336 z" />
    <path
       id="path72"
       style="font-style:normal;font-variant:normal;font-weight:normal;font-stretch:normal;font-size:16px;font-family:'Fira Mono';-inkscape-font-specification:'Fira Mono';stroke-width:1.13385832;stroke-miterlimit:4;stroke-dasharray:none;paint-order:markers fill stroke"
       d="m 291.39582,30.805576 c -0.992,0 -1.888,-0.368 -2.544,-0.912 l -0.752,0.88 c 0.72,0.624 1.76,1.136 3.296,1.136 1.792,0 3.536,-0.704 3.536,-2.512 0,-1.568 -1.088,-2.144 -2.736,-2.592 -1.696,-0.464 -2.224,-0.72 -2.224,-1.488 0,-0.64 0.48,-1.104 1.824,-1.104 1.088,0 1.808,0.336 2.432,0.768 l 0.608,-0.928 c -0.72,-0.512 -1.712,-0.928 -3.072,-0.928 -1.904,0 -3.2,0.896 -3.2,2.304 0,1.472 1.136,2 2.88,2.432 1.792,0.448 2.032,0.848 2.032,1.6 0,0.816 -0.784,1.344 -2.08,1.344 z" />
  </g>
  <rect
     style="fill:none;fill-opacity:1;stroke:#000000;stroke-width:1.13385832;stroke-miterlimit:4;stroke-dasharray:none;paint-order:markers fill stroke"
     id="rect928"
     width="146.77992"
     height="245.72899"
     x="194.34949"
     y="48.087006"
     rx="14.630197"
     ry="12.288251" />
  <rect
     ry="8.9611721"
     rx="8.0556726"
     y="214.25049"
     x="220.77599"
     height="60.652966"
     width="93.926926"
     id="rect1242"
     style="fill:#ebebeb;fill-opacity:1;stroke:#000000;stroke-width:1.13385832;stroke-miterlimit:4;stroke-dasharray:none;paint-order:markers fill stroke" />
  <rect
     ry="8.9611721"
     rx="8.0556726"
     y="66.733109"
     x="220.77599"
     height="60.652966"
     width="93.926926"
     id="rect930"
     style="fill:#ebebeb;fill-opacity:1;stroke:#000000;stroke-width:1.13385832;stroke-miterlimit:4;stroke-dasharray:none;paint-order:markers fill stroke" />
  <rect
     ry="0"
     rx="0"
     y="92.922852"
     x="238.6353"
     height="23.266291"
     width="21.327433"
     id="rect932"
     style="fill:#d6d6d6;fill-opacity:1;stroke:#000000;stroke-width:1.13385832;stroke-miterlimit:4;stroke-dasharray:none;paint-order:markers fill stroke" />
  <g
     id="text936"
     style="font-style:normal;font-weight:normal;font-size:40px;line-height:1.25;font-family:sans-serif;letter-spacing:0px;word-spacing:0px;fill:#000000;fill-opacity:1;stroke:none;stroke-width:1.13385832;stroke-miterlimit:4;stroke-dasharray:none;paint-order:markers fill stroke"
     aria-label="-1">
    <path
       id="path75"
       style="font-style:normal;font-variant:normal;font-weight:normal;font-stretch:normal;font-size:16px;font-family:'Fira Mono';-inkscape-font-specification:'Fira Mono';stroke-width:1.13385832;stroke-miterlimit:4;stroke-dasharray:none;paint-order:markers fill stroke"
       d="m 241.36613,105.83884 h 5.6 v -1.152 h -5.6 z" />
    <path
       id="path77"
       style="font-style:normal;font-variant:normal;font-weight:normal;font-stretch:normal;font-size:16px;font-family:'Fira Mono';-inkscape-font-specification:'Fira Mono';stroke-width:1.13385832;stroke-miterlimit:4;stroke-dasharray:none;paint-order:markers fill stroke"
       d="m 254.94388,109.18284 v -9.935996 h -1.184 l -3.28,2.047996 0.592,0.944 2.512,-1.52 v 8.464 h -2.704 v 1.088 h 6.352 v -1.088 z" />
  </g>
  <g
     id="text956"
     style="font-style:normal;font-weight:normal;font-size:40px;line-height:1.25;font-family:sans-serif;letter-spacing:0px;word-spacing:0px;fill:#000000;fill-opacity:1;stroke:none;stroke-width:1.13385832;stroke-miterlimit:4;stroke-dasharray:none;paint-order:markers fill stroke"
     aria-label="min">
    <path
       id="path80"
       style="font-style:normal;font-variant:normal;font-weight:normal;font-stretch:normal;font-size:16px;font-family:'Fira Mono';-inkscape-font-specification:'Fira Mono';stroke-width:1.13385832;stroke-miterlimit:4;stroke-dasharray:none;paint-order:markers fill stroke"
       d="m 241.8764,77.364488 c -0.848,0 -1.392,0.448 -1.856,1.12 -0.256,-0.864 -0.88,-1.12 -1.52,-1.12 -0.848,0 -1.376,0.512 -1.824,1.168 l -0.096,-0.992 h -1.04 v 8.432 h 1.232 v -6.544 c 0.464,-0.72 0.944,-1.008 1.472,-1.008 0.608,0 0.656,0.432 0.656,1.504 v 6.048 h 1.248 v -6.544 c 0.464,-0.72 0.96,-1.008 1.472,-1.008 0.608,0 0.656,0.432 0.656,1.504 v 6.048 h 1.232 v -6.272 c 0,-1.936 -0.816,-2.336 -1.632,-2.336 z" />
    <path
       id="path82"
       style="font-style:normal;font-variant:normal;font-weight:normal;font-stretch:normal;font-size:16px;font-family:'Fira Mono';-inkscape-font-specification:'Fira Mono';stroke-width:1.13385832;stroke-miterlimit:4;stroke-dasharray:none;paint-order:markers fill stroke"
       d="m 249.11815,73.604488 c -0.576,0 -0.96,0.4 -0.96,0.944 0,0.544 0.384,0.944 0.96,0.944 0.592,0 0.992,-0.4 0.992,-0.944 0,-0.544 -0.4,-0.944 -0.992,-0.944 z m 1.072,3.936 h -3.856 v 1.072 h 2.512 v 6.288 h -2.592 v 1.072 h 6.304 v -1.072 h -2.368 z" />
    <path
       id="path84"
       style="font-style:normal;font-variant:normal;font-weight:normal;font-stretch:normal;font-size:16px;font-family:'Fira Mono';-inkscape-font-specification:'Fira Mono';stroke-width:1.13385832;stroke-miterlimit:4;stroke-dasharray:none;paint-order:markers fill stroke"
       d="m 255.5119,85.972488 h 1.344 v -6.128 c 0.448,-0.672 1.296,-1.408 2.288,-1.408 1.264,0 1.44,0.688 1.44,2.416 v 5.12 h 1.344 v -6.112 c 0,-1.568 -0.72,-2.496 -2.368,-2.496 -0.992,0 -2.112,0.496 -2.784,1.36 l -0.112,-1.184 h -1.152 z" />
  </g>
  <rect
     ry="0"
     rx="0"
     y="93.000977"
     x="275.68842"
     height="23.266291"
     width="21.327433"
     id="rect938"
     style="fill:#d6d6d6;fill-opacity:1;stroke:#000000;stroke-width:1.13385832;stroke-miterlimit:4;stroke-dasharray:none;paint-order:markers fill stroke" />
  <g
     id="text942"
     style="font-style:normal;font-weight:normal;font-size:40px;line-height:1.25;font-family:sans-serif;letter-spacing:0px;word-spacing:0px;fill:#000000;fill-opacity:1;stroke:none;stroke-width:1.13385832;stroke-miterlimit:4;stroke-dasharray:none;paint-order:markers fill stroke"
     aria-label="1">
    <path
       id="path87"
       style="font-style:normal;font-variant:normal;font-weight:normal;font-stretch:normal;font-size:16px;font-family:'Fira Mono';-inkscape-font-specification:'Fira Mono';stroke-width:1.13385832;stroke-miterlimit:4;stroke-dasharray:none;paint-order:markers fill stroke"
       d="m 287.44015,109.26096 v -9.935999 h -1.184 l -3.28,2.047999 0.592,0.944 2.512,-1.52 v 8.464 h -2.704 v 1.088 h 6.352 v -1.088 z" />
  </g>
  <g
     id="text960"
     style="font-style:normal;font-weight:normal;font-size:40px;line-height:1.25;font-family:sans-serif;letter-spacing:0px;word-spacing:0px;fill:#000000;fill-opacity:1;stroke:none;stroke-width:1.13385832;stroke-miterlimit:4;stroke-dasharray:none;paint-order:markers fill stroke"
     aria-label="max">
    <path
       id="path90"
       style="font-style:normal;font-variant:normal;font-weight:normal;font-stretch:normal;font-size:16px;font-family:'Fira Mono';-inkscape-font-specification:'Fira Mono';stroke-width:1.13385832;stroke-miterlimit:4;stroke-dasharray:none;paint-order:markers fill stroke"
       d="m 279.1018,77.286363 c -0.848,0 -1.392,0.448 -1.856,1.12 -0.256,-0.864 -0.88,-1.12 -1.52,-1.12 -0.848,0 -1.376,0.512 -1.824,1.168 l -0.096,-0.992 h -1.04 v 8.432 h 1.232 v -6.544 c 0.464,-0.72 0.944,-1.008 1.472,-1.008 0.608,0 0.656,0.432 0.656,1.504 v 6.048 h 1.248 v -6.544 c 0.464,-0.72 0.96,-1.008 1.472,-1.008 0.608,0 0.656,0.432 0.656,1.504 v 6.048 h 1.232 v -6.272 c 0,-1.936 -0.816,-2.336 -1.632,-2.336 z" />
    <path
       id="path92"
       style="font-style:normal;font-variant:normal;font-weight:normal;font-stretch:normal;font-size:16px;font-family:'Fira Mono';-inkscape-font-specification:'Fira Mono';stroke-width:1.13385832;stroke-miterlimit:4;stroke-dasharray:none;paint-order:markers fill stroke"
       d="m 289.19155,84.054363 v -4.048 c 0,-1.664 -1.056,-2.72 -3.152,-2.72 -0.832,0 -1.728,0.16 -2.768,0.528 l 0.368,1.024 c 0.864,-0.304 1.632,-0.432 2.192,-0.432 1.248,0 2,0.448 2,1.68 v 0.688 h -1.248 c -2.544,0 -3.936,0.976 -3.936,2.704 0,1.568 1.024,2.592 2.72,2.592 1.088,0 2.032,-0.4 2.64,-1.184 0.224,0.768 0.816,1.104 1.536,1.2 l 0.336,-0.96 c -0.48,-0.144 -0.688,-0.4 -0.688,-1.072 z m -3.488,1.008 c -1.104,0 -1.616,-0.544 -1.616,-1.6 0,-1.088 0.672,-1.76 2.528,-1.76 h 1.216 v 2.16 c -0.496,0.752 -1.296,1.2 -2.128,1.2 z" />
    <path
       id="path94"
       style="font-style:normal;font-variant:normal;font-weight:normal;font-stretch:normal;font-size:16px;font-family:'Fira Mono';-inkscape-font-specification:'Fira Mono';stroke-width:1.13385832;stroke-miterlimit:4;stroke-dasharray:none;paint-order:markers fill stroke"
       d="m 293.5693,85.894363 2.32,-3.616 2.32,3.616 h 1.632 l -3.104,-4.512 2.736,-3.92 h -1.552 l -1.968,3.136 -1.952,-3.136 h -1.6 l 2.736,3.984 -3.104,4.448 z" />
  </g>
  <rect
     style="fill:#ebebeb;fill-opacity:1;stroke:#000000;stroke-width:1.13385832;stroke-miterlimit:4;stroke-dasharray:none;paint-order:markers fill stroke"
     id="rect1240"
     width="93.926926"
     height="60.652966"
     x="220.77599"
     y="141.31439"
     rx="8.0556726"
     ry="8.9611721" />
  <rect
     style="fill:#d6d6d6;fill-opacity:1;stroke:#000000;stroke-width:1.13385832;stroke-miterlimit:4;stroke-dasharray:none;paint-order:markers fill stroke"
     id="rect1030"
     width="21.327433"
     height="23.266291"
     x="257.02203"
     y="167.50414"
     rx="0"
     ry="0" />
  <g
     id="text1034"
     style="font-style:normal;font-weight:normal;font-size:40px;line-height:1.25;font-family:sans-serif;letter-spacing:0px;word-spacing:0px;fill:#000000;fill-opacity:1;stroke:none;stroke-width:1.13385832;stroke-miterlimit:4;stroke-dasharray:none;paint-order:markers fill stroke"
     aria-label="5">
    <path
       id="path97"
       style="font-style:normal;font-variant:normal;font-weight:normal;font-stretch:normal;font-size:16px;font-family:'Fira Mono';-inkscape-font-specification:'Fira Mono';stroke-width:1.13385832;stroke-miterlimit:4;stroke-dasharray:none;paint-order:markers fill stroke"
       d="m 270.78175,173.82813 h -5.84 v 5.504 h 1.088 c 0.64,-0.224 1.072,-0.368 1.712,-0.368 1.12,0 2,0.592 2,2.352 0,1.712 -0.864,2.608 -2.32,2.608 -0.944,0 -1.696,-0.336 -2.368,-1.024 l -0.832,0.816 c 0.848,0.816 1.872,1.312 3.2,1.312 2.272,0 3.728,-1.456 3.728,-3.664 0,-2.208 -1.216,-3.456 -3.024,-3.456 -0.656,0 -1.232,0.112 -1.888,0.48 v -3.472 h 4.352 z" />
  </g>
  <g
     id="text1040"
     style="font-style:normal;font-weight:normal;font-size:40px;line-height:1.25;font-family:sans-serif;letter-spacing:0px;word-spacing:0px;fill:#000000;fill-opacity:1;stroke:none;stroke-width:1.13385832;stroke-miterlimit:4;stroke-dasharray:none;paint-order:markers fill stroke"
     aria-label="sd">
    <path
       id="path100"
       style="font-style:normal;font-variant:normal;font-weight:normal;font-stretch:normal;font-size:16px;font-family:'Fira Mono';-inkscape-font-specification:'Fira Mono';stroke-width:1.13385832;stroke-miterlimit:4;stroke-dasharray:none;paint-order:markers fill stroke"
       d="m 262.57592,159.62577 c -0.992,0 -1.888,-0.368 -2.544,-0.912 l -0.752,0.88 c 0.72,0.624 1.76,1.136 3.296,1.136 1.792,0 3.536,-0.704 3.536,-2.512 0,-1.568 -1.088,-2.144 -2.736,-2.592 -1.696,-0.464 -2.224,-0.72 -2.224,-1.488 0,-0.64 0.48,-1.104 1.824,-1.104 1.088,0 1.808,0.336 2.432,0.768 l 0.608,-0.928 c -0.72,-0.512 -1.712,-0.928 -3.072,-0.928 -1.904,0 -3.2,0.896 -3.2,2.304 0,1.472 1.136,2 2.88,2.432 1.792,0.448 2.032,0.848 2.032,1.6 0,0.816 -0.784,1.344 -2.08,1.344 z" />
    <path
       id="path102"
       style="font-style:normal;font-variant:normal;font-weight:normal;font-stretch:normal;font-size:16px;font-family:'Fira Mono';-inkscape-font-specification:'Fira Mono';stroke-width:1.13385832;stroke-miterlimit:4;stroke-dasharray:none;paint-order:markers fill stroke"
       d="m 274.34567,148.56977 v 4.384 c -0.576,-0.656 -1.296,-1.008 -2.272,-1.008 -2.064,0 -3.296,1.872 -3.296,4.4 0,2.624 1.008,4.384 3.216,4.384 0.912,0 1.76,-0.4 2.384,-1.28 l 0.128,1.104 h 1.184 v -11.824 z m -1.92,4.464 c 0.784,0 1.456,0.4 1.92,1.088 v 4.192 c -0.464,0.704 -1.12,1.344 -2.08,1.344 -1.328,0 -2.032,-1.12 -2.032,-3.312 0,-2.224 0.8,-3.312 2.192,-3.312 z" />
  </g>
  <rect
     ry="0"
     rx="0"
     y="240.44023"
     x="256.76028"
     height="23.266291"
     width="21.327433"
     id="rect1091"
     style="fill:#d6d6d6;fill-opacity:1;stroke:#000000;stroke-width:1.13385832;stroke-miterlimit:4;stroke-dasharray:none;paint-order:markers fill stroke" />
  <g
     id="text1095"
     style="font-style:normal;font-weight:normal;font-size:40px;line-height:1.25;font-family:sans-serif;letter-spacing:0px;word-spacing:0px;fill:#000000;fill-opacity:1;stroke:none;stroke-width:1.13385832;stroke-miterlimit:4;stroke-dasharray:none;paint-order:markers fill stroke"
     aria-label="10">
    <path
       id="path105"
       style="font-style:normal;font-variant:normal;font-weight:normal;font-stretch:normal;font-size:16px;font-family:'Fira Mono';-inkscape-font-specification:'Fira Mono';stroke-width:1.13385832;stroke-miterlimit:4;stroke-dasharray:none;paint-order:markers fill stroke"
       d="m 263.65111,256.70024 v -9.936 h -1.184 l -3.28,2.048 0.592,0.944 2.512,-1.52 v 8.464 h -2.704 v 1.088 h 6.352 v -1.088 z" />
    <path
       id="path107"
       style="font-style:normal;font-variant:normal;font-weight:normal;font-stretch:normal;font-size:16px;font-family:'Fira Mono';-inkscape-font-specification:'Fira Mono';stroke-width:1.13385832;stroke-miterlimit:4;stroke-dasharray:none;paint-order:markers fill stroke"
       d="m 272.06086,246.58824 c -2.368,0 -3.6,2.032 -3.6,5.68 0,3.664 1.232,5.696 3.6,5.696 2.368,0 3.6,-2.032 3.6,-5.696 0,-3.648 -1.232,-5.68 -3.6,-5.68 z m 0,1.088 c 1.376,0 2.192,1.344 2.192,4.592 0,3.264 -0.816,4.608 -2.192,4.608 -1.36,0 -2.192,-1.344 -2.192,-4.608 0,-3.248 0.832,-4.592 2.192,-4.592 z m 0,3.552 c -0.592,0 -1.04,0.464 -1.04,1.04 0,0.592 0.448,1.056 1.04,1.056 0.608,0 1.056,-0.464 1.056,-1.056 0,-0.576 -0.448,-1.04 -1.056,-1.04 z" />
  </g>
  <g
     id="text1101"
     style="font-style:normal;font-weight:normal;font-size:40px;line-height:1.25;font-family:sans-serif;letter-spacing:0px;word-spacing:0px;fill:#000000;fill-opacity:1;stroke:none;stroke-width:1.13385832;stroke-miterlimit:4;stroke-dasharray:none;paint-order:markers fill stroke"
     aria-label="lambda">
    <path
       id="path110"
       style="font-style:normal;font-variant:normal;font-weight:normal;font-stretch:normal;font-size:16px;font-family:'Fira Mono';-inkscape-font-specification:'Fira Mono';stroke-width:1.13385832;stroke-miterlimit:4;stroke-dasharray:none;paint-order:markers fill stroke"
       d="m 243.3317,221.66587 h -3.936 v 1.072 h 2.592 v 8.608 c 0,1.456 1.008,2.32 2.496,2.32 0.864,0 1.552,-0.192 2,-0.432 l -0.352,-0.976 c -0.464,0.176 -0.912,0.288 -1.408,0.288 -0.816,0 -1.392,-0.304 -1.392,-1.136 z" />
    <path
       id="path112"
       style="font-style:normal;font-variant:normal;font-weight:normal;font-stretch:normal;font-size:16px;font-family:'Fira Mono';-inkscape-font-specification:'Fira Mono';stroke-width:1.13385832;stroke-miterlimit:4;stroke-dasharray:none;paint-order:markers fill stroke"
       d="m 255.67745,231.64987 v -4.048 c 0,-1.664 -1.056,-2.72 -3.152,-2.72 -0.832,0 -1.728,0.16 -2.768,0.528 l 0.368,1.024 c 0.864,-0.304 1.632,-0.432 2.192,-0.432 1.248,0 2,0.448 2,1.68 v 0.688 h -1.248 c -2.544,0 -3.936,0.976 -3.936,2.704 0,1.568 1.024,2.592 2.72,2.592 1.088,0 2.032,-0.4 2.64,-1.184 0.224,0.768 0.816,1.104 1.536,1.2 l 0.336,-0.96 c -0.48,-0.144 -0.688,-0.4 -0.688,-1.072 z m -3.488,1.008 c -1.104,0 -1.616,-0.544 -1.616,-1.6 0,-1.088 0.672,-1.76 2.528,-1.76 h 1.216 v 2.16 c -0.496,0.752 -1.296,1.2 -2.128,1.2 z" />
    <path
       id="path114"
       style="font-style:normal;font-variant:normal;font-weight:normal;font-stretch:normal;font-size:16px;font-family:'Fira Mono';-inkscape-font-specification:'Fira Mono';stroke-width:1.13385832;stroke-miterlimit:4;stroke-dasharray:none;paint-order:markers fill stroke"
       d="m 264.7752,224.88187 c -0.848,0 -1.392,0.448 -1.856,1.12 -0.256,-0.864 -0.88,-1.12 -1.52,-1.12 -0.848,0 -1.376,0.512 -1.824,1.168 l -0.096,-0.992 h -1.04 v 8.432 h 1.232 v -6.544 c 0.464,-0.72 0.944,-1.008 1.472,-1.008 0.608,0 0.656,0.432 0.656,1.504 v 6.048 h 1.248 v -6.544 c 0.464,-0.72 0.96,-1.008 1.472,-1.008 0.608,0 0.656,0.432 0.656,1.504 v 6.048 h 1.232 v -6.272 c 0,-1.936 -0.816,-2.336 -1.632,-2.336 z" />
    <path
       id="path116"
       style="font-style:normal;font-variant:normal;font-weight:normal;font-stretch:normal;font-size:16px;font-family:'Fira Mono';-inkscape-font-specification:'Fira Mono';stroke-width:1.13385832;stroke-miterlimit:4;stroke-dasharray:none;paint-order:markers fill stroke"
       d="m 270.16095,226.16187 v -4.656 l -1.344,0.16 v 11.824 h 1.184 l 0.096,-0.88 c 0.576,0.736 1.328,1.056 2.288,1.056 2.176,0 3.344,-1.84 3.344,-4.4 0,-2.64 -0.912,-4.384 -3.152,-4.384 -0.976,0 -1.792,0.464 -2.416,1.28 z m 1.92,6.416 c -0.784,0 -1.472,-0.4 -1.92,-1.088 v -4.176 c 0.464,-0.672 1.184,-1.344 2.112,-1.344 1.312,0 2,1.104 2,3.296 0,2.24 -0.8,3.312 -2.192,3.312 z" />
    <path
       id="path118"
       style="font-style:normal;font-variant:normal;font-weight:normal;font-stretch:normal;font-size:16px;font-family:'Fira Mono';-inkscape-font-specification:'Fira Mono';stroke-width:1.13385832;stroke-miterlimit:4;stroke-dasharray:none;paint-order:markers fill stroke"
       d="m 283.4667,221.50587 v 4.384 c -0.576,-0.656 -1.296,-1.008 -2.272,-1.008 -2.064,0 -3.296,1.872 -3.296,4.4 0,2.624 1.008,4.384 3.216,4.384 0.912,0 1.76,-0.4 2.384,-1.28 l 0.128,1.104 h 1.184 v -11.824 z m -1.92,4.464 c 0.784,0 1.456,0.4 1.92,1.088 v 4.192 c -0.464,0.704 -1.12,1.344 -2.08,1.344 -1.328,0 -2.032,-1.12 -2.032,-3.312 0,-2.224 0.8,-3.312 2.192,-3.312 z" />
    <path
       id="path120"
       style="font-style:normal;font-variant:normal;font-weight:normal;font-stretch:normal;font-size:16px;font-family:'Fira Mono';-inkscape-font-specification:'Fira Mono';stroke-width:1.13385832;stroke-miterlimit:4;stroke-dasharray:none;paint-order:markers fill stroke"
       d="m 294.05245,231.64987 v -4.048 c 0,-1.664 -1.056,-2.72 -3.152,-2.72 -0.832,0 -1.728,0.16 -2.768,0.528 l 0.368,1.024 c 0.864,-0.304 1.632,-0.432 2.192,-0.432 1.248,0 2,0.448 2,1.68 v 0.688 h -1.248 c -2.544,0 -3.936,0.976 -3.936,2.704 0,1.568 1.024,2.592 2.72,2.592 1.088,0 2.032,-0.4 2.64,-1.184 0.224,0.768 0.816,1.104 1.536,1.2 l 0.336,-0.96 c -0.48,-0.144 -0.688,-0.4 -0.688,-1.072 z m -3.488,1.008 c -1.104,0 -1.616,-0.544 -1.616,-1.6 0,-1.088 0.672,-1.76 2.528,-1.76 h 1.216 v 2.16 c -0.496,0.752 -1.296,1.2 -2.128,1.2 z" />
  </g>
  <rect
     ry="12.288251"
     rx="14.630197"
     y="48.087006"
     x="194.34949"
     height="245.72899"
     width="146.77992"
     id="rect1291"
     style="fill:none;fill-opacity:1;stroke:#000000;stroke-width:1.13385832;stroke-miterlimit:4;stroke-dasharray:none;paint-order:markers fill stroke" />
  <g
     id="text919"
     style="font-style:normal;font-weight:normal;font-size:40px;line-height:1.25;font-family:sans-serif;letter-spacing:0px;word-spacing:0px;fill:#000000;fill-opacity:1;stroke:none;stroke-width:1.13385832;stroke-miterlimit:4;stroke-dasharray:none;paint-order:markers fill stroke"
     aria-label="f">
    <path
       id="path123"
       style="font-style:normal;font-variant:normal;font-weight:normal;font-stretch:normal;font-size:16px;font-family:'Fira Mono';-inkscape-font-specification:'Fira Mono';stroke-width:1.13385832;stroke-miterlimit:4;stroke-dasharray:none;paint-order:markers fill stroke"
       d="m 94.418812,19.749576 c -1.744,0 -3.072,0.976 -3.072,2.528 v 1.68 h -2 v 1.072 h 2 v 6.704 h 1.36 v -6.704 h 2.704 l 0.144,-1.072 h -2.848 v -1.712 c 0,-0.928 0.592,-1.392 1.76,-1.392 0.64,0 1.264,0.112 1.808,0.352 l 0.432,-1.008 c -0.656,-0.272 -1.376,-0.448 -2.288,-0.448 z" />
  </g>
  <rect
     ry="12.288251"
     rx="14.630197"
     y="48.087006"
     x="19.464567"
     height="245.72899"
     width="146.77992"
     id="rect1336"
     style="fill:none;fill-opacity:1;stroke:#000000;stroke-width:1.13385832;stroke-miterlimit:4;stroke-dasharray:none;paint-order:markers fill stroke" />
  <rect
     style="fill:none;fill-opacity:1;stroke:#000000;stroke-width:1.13385832;stroke-miterlimit:4;stroke-dasharray:none;paint-order:markers fill stroke"
     id="rect1416"
     width="146.77992"
     height="245.72899"
     x="19.464567"
     y="48.087006"
     rx="14.630197"
     ry="12.288251" />
  <rect
     style="fill:#d6d6d6;fill-opacity:1;stroke:#000000;stroke-width:1.13385832;stroke-miterlimit:4;stroke-dasharray:none;paint-order:markers fill stroke"
     id="rect1781"
     width="107.22678"
     height="21.902538"
     x="39.241135"
     y="241.1221"
     rx="0"
     ry="0" />
  <g
     id="text1785"
     style="font-style:normal;font-weight:normal;font-size:40px;line-height:1.25;font-family:sans-serif;letter-spacing:0px;word-spacing:0px;fill:#000000;fill-opacity:1;stroke:none;stroke-width:1.13385832;stroke-miterlimit:4;stroke-dasharray:none;paint-order:markers fill stroke"
     aria-label="&quot;rpois&quot;">
    <path
       id="path126"
       style="font-style:normal;font-variant:normal;font-weight:normal;font-stretch:normal;font-size:16px;font-family:'Fira Mono';-inkscape-font-specification:'Fira Mono';stroke-width:1.13385832;stroke-miterlimit:4;stroke-dasharray:none;paint-order:markers fill stroke"
       d="m 62.18337,248.63593 h 1.184 l 0.256,-4.16 h -1.68 z m 2.688,0 h 1.184 l 0.24,-4.16 h -1.68 z" />
    <path
       id="path128"
       style="font-style:normal;font-variant:normal;font-weight:normal;font-stretch:normal;font-size:16px;font-family:'Fira Mono';-inkscape-font-specification:'Fira Mono';stroke-width:1.13385832;stroke-miterlimit:4;stroke-dasharray:none;paint-order:markers fill stroke"
       d="m 76.20912,247.69193 c -1.52,0 -2.384,0.8 -3.024,2.176 l -0.256,-2 h -2.336 v 1.04 h 1.328 v 6.352 h -1.328 v 1.04 h 4.384 v -1.04 h -1.712 v -3.552 c 0.544,-1.856 1.472,-2.784 2.768,-2.784 h 0.08 v 1.808 h 1.088 l 0.192,-2.864 c -0.368,-0.096 -0.72,-0.176 -1.184,-0.176 z" />
    <path
       id="path130"
       style="font-style:normal;font-variant:normal;font-weight:normal;font-stretch:normal;font-size:16px;font-family:'Fira Mono';-inkscape-font-specification:'Fira Mono';stroke-width:1.13385832;stroke-miterlimit:4;stroke-dasharray:none;paint-order:markers fill stroke"
       d="m 83.88287,247.69193 c -1.008,0 -1.904,0.496 -2.512,1.36 l -0.112,-1.184 h -1.152 v 11.824 l 1.344,-0.16 v -4.016 c 0.576,0.64 1.312,0.96 2.24,0.96 2.192,0 3.248,-1.84 3.248,-4.4 0,-2.64 -0.816,-4.384 -3.056,-4.384 z m -0.32,1.088 c 1.328,0 1.92,1.104 1.92,3.296 0,2.24 -0.704,3.28 -2.096,3.28 -0.8,0 -1.488,-0.4 -1.936,-1.056 v -4.176 c 0.464,-0.672 1.184,-1.344 2.112,-1.344 z" />
    <path
       id="path132"
       style="font-style:normal;font-variant:normal;font-weight:normal;font-stretch:normal;font-size:16px;font-family:'Fira Mono';-inkscape-font-specification:'Fira Mono';stroke-width:1.13385832;stroke-miterlimit:4;stroke-dasharray:none;paint-order:markers fill stroke"
       d="m 92.91662,247.69193 c -2.368,0 -3.648,1.808 -3.648,4.4 0,2.656 1.264,4.384 3.632,4.384 2.352,0 3.632,-1.808 3.632,-4.4 0,-2.656 -1.248,-4.384 -3.616,-4.384 z m 0,1.104 c 1.44,0 2.16,1.056 2.16,3.28 0,2.256 -0.72,3.296 -2.176,3.296 -1.456,0 -2.176,-1.04 -2.176,-3.28 0,-2.24 0.736,-3.296 2.192,-3.296 z" />
    <path
       id="path134"
       style="font-style:normal;font-variant:normal;font-weight:normal;font-stretch:normal;font-size:16px;font-family:'Fira Mono';-inkscape-font-specification:'Fira Mono';stroke-width:1.13385832;stroke-miterlimit:4;stroke-dasharray:none;paint-order:markers fill stroke"
       d="m 102.49437,243.93193 c -0.576,0 -0.96,0.4 -0.96,0.944 0,0.544 0.384,0.944 0.96,0.944 0.592,0 0.992,-0.4 0.992,-0.944 0,-0.544 -0.4,-0.944 -0.992,-0.944 z m 1.072,3.936 h -3.856 v 1.072 h 2.512 v 6.288 h -2.592 v 1.072 h 6.304 v -1.072 h -2.368 z" />
    <path
       id="path136"
       style="font-style:normal;font-variant:normal;font-weight:normal;font-stretch:normal;font-size:16px;font-family:'Fira Mono';-inkscape-font-specification:'Fira Mono';stroke-width:1.13385832;stroke-miterlimit:4;stroke-dasharray:none;paint-order:markers fill stroke"
       d="m 111.76812,255.37193 c -0.992,0 -1.888,-0.368 -2.544,-0.912 l -0.752,0.88 c 0.72,0.624 1.76,1.136 3.296,1.136 1.792,0 3.536,-0.704 3.536,-2.512 0,-1.568 -1.088,-2.144 -2.736,-2.592 -1.696,-0.464 -2.224,-0.72 -2.224,-1.488 0,-0.64 0.48,-1.104 1.824,-1.104 1.088,0 1.808,0.336 2.432,0.768 l 0.608,-0.928 c -0.72,-0.512 -1.712,-0.928 -3.072,-0.928 -1.904,0 -3.2,0.896 -3.2,2.304 0,1.472 1.136,2 2.88,2.432 1.792,0.448 2.032,0.848 2.032,1.6 0,0.816 -0.784,1.344 -2.08,1.344 z" />
    <path
       id="path138"
       style="font-style:normal;font-variant:normal;font-weight:normal;font-stretch:normal;font-size:16px;font-family:'Fira Mono';-inkscape-font-specification:'Fira Mono';stroke-width:1.13385832;stroke-miterlimit:4;stroke-dasharray:none;paint-order:markers fill stroke"
       d="m 119.74587,248.63593 h 1.184 l 0.256,-4.16 h -1.68 z m 2.688,0 h 1.184 l 0.24,-4.16 h -1.68 z" />
  </g>
  <rect
     ry="0"
     rx="0"
     y="168.17148"
     x="39.23386"
     height="21.931597"
     width="107.24133"
     id="rect1787"
     style="fill:#d6d6d6;fill-opacity:1;stroke:#000000;stroke-width:1.13385832;stroke-miterlimit:4;stroke-dasharray:none;paint-order:markers fill stroke" />
  <g
     id="text1791"
     style="font-style:normal;font-weight:normal;font-size:40px;line-height:1.25;font-family:sans-serif;letter-spacing:0px;word-spacing:0px;fill:#000000;fill-opacity:1;stroke:none;stroke-width:1.13385832;stroke-miterlimit:4;stroke-dasharray:none;paint-order:markers fill stroke"
     aria-label="&quot;rnorm&quot;">
    <path
       id="path141"
       style="font-style:normal;font-variant:normal;font-weight:normal;font-stretch:normal;font-size:16px;font-family:'Fira Mono';-inkscape-font-specification:'Fira Mono';stroke-width:1.13385832;stroke-miterlimit:4;stroke-dasharray:none;paint-order:markers fill stroke"
       d="m 62.183366,175.69985 h 1.184 l 0.256,-4.16 h -1.68 z m 2.688,0 h 1.184 l 0.24,-4.16 h -1.68 z" />
    <path
       id="path143"
       style="font-style:normal;font-variant:normal;font-weight:normal;font-stretch:normal;font-size:16px;font-family:'Fira Mono';-inkscape-font-specification:'Fira Mono';stroke-width:1.13385832;stroke-miterlimit:4;stroke-dasharray:none;paint-order:markers fill stroke"
       d="m 76.209116,174.75585 c -1.52,0 -2.384,0.8 -3.024,2.176 l -0.256,-2 h -2.336 v 1.04 h 1.328 v 6.352 h -1.328 v 1.04 h 4.384 v -1.04 h -1.712 v -3.552 c 0.544,-1.856 1.472,-2.784 2.768,-2.784 h 0.08 v 1.808 h 1.088 l 0.192,-2.864 c -0.368,-0.096 -0.72,-0.176 -1.184,-0.176 z" />
    <path
       id="path145"
       style="font-style:normal;font-variant:normal;font-weight:normal;font-stretch:normal;font-size:16px;font-family:'Fira Mono';-inkscape-font-specification:'Fira Mono';stroke-width:1.13385832;stroke-miterlimit:4;stroke-dasharray:none;paint-order:markers fill stroke"
       d="m 80.106866,183.36385 h 1.344 v -6.128 c 0.448,-0.672 1.296,-1.408 2.288,-1.408 1.264,0 1.44,0.688 1.44,2.416 v 5.12 h 1.344 v -6.112 c 0,-1.568 -0.72,-2.496 -2.368,-2.496 -0.992,0 -2.112,0.496 -2.784,1.36 l -0.112,-1.184 h -1.152 z" />
    <path
       id="path147"
       style="font-style:normal;font-variant:normal;font-weight:normal;font-stretch:normal;font-size:16px;font-family:'Fira Mono';-inkscape-font-specification:'Fira Mono';stroke-width:1.13385832;stroke-miterlimit:4;stroke-dasharray:none;paint-order:markers fill stroke"
       d="m 92.916616,174.75585 c -2.368,0 -3.648,1.808 -3.648,4.4 0,2.656 1.264,4.384 3.632,4.384 2.352,0 3.632,-1.808 3.632,-4.4 0,-2.656 -1.248,-4.384 -3.616,-4.384 z m 0,1.104 c 1.44,0 2.16,1.056 2.16,3.28 0,2.256 -0.72,3.296 -2.176,3.296 -1.456,0 -2.176,-1.04 -2.176,-3.28 0,-2.24 0.736,-3.296 2.192,-3.296 z" />
    <path
       id="path149"
       style="font-style:normal;font-variant:normal;font-weight:normal;font-stretch:normal;font-size:16px;font-family:'Fira Mono';-inkscape-font-specification:'Fira Mono';stroke-width:1.13385832;stroke-miterlimit:4;stroke-dasharray:none;paint-order:markers fill stroke"
       d="m 104.99037,174.75585 c -1.52,0 -2.384,0.8 -3.024,2.176 l -0.256,-2 h -2.336004 v 1.04 h 1.328004 v 6.352 h -1.328004 v 1.04 h 4.384004 v -1.04 h -1.712 v -3.552 c 0.544,-1.856 1.472,-2.784 2.768,-2.784 h 0.08 v 1.808 h 1.088 l 0.192,-2.864 c -0.368,-0.096 -0.72,-0.176 -1.184,-0.176 z" />
    <path
       id="path151"
       style="font-style:normal;font-variant:normal;font-weight:normal;font-stretch:normal;font-size:16px;font-family:'Fira Mono';-inkscape-font-specification:'Fira Mono';stroke-width:1.13385832;stroke-miterlimit:4;stroke-dasharray:none;paint-order:markers fill stroke"
       d="m 114.44012,174.75585 c -0.848,0 -1.392,0.448 -1.856,1.12 -0.256,-0.864 -0.88,-1.12 -1.52,-1.12 -0.848,0 -1.376,0.512 -1.824,1.168 l -0.096,-0.992 h -1.04 v 8.432 h 1.232 v -6.544 c 0.464,-0.72 0.944,-1.008 1.472,-1.008 0.608,0 0.656,0.432 0.656,1.504 v 6.048 h 1.248 v -6.544 c 0.464,-0.72 0.96,-1.008 1.472,-1.008 0.608,0 0.656,0.432 0.656,1.504 v 6.048 h 1.232 v -6.272 c 0,-1.936 -0.816,-2.336 -1.632,-2.336 z" />
    <path
       id="path153"
       style="font-style:normal;font-variant:normal;font-weight:normal;font-stretch:normal;font-size:16px;font-family:'Fira Mono';-inkscape-font-specification:'Fira Mono';stroke-width:1.13385832;stroke-miterlimit:4;stroke-dasharray:none;paint-order:markers fill stroke"
       d="m 119.74587,175.69985 h 1.184 l 0.256,-4.16 h -1.68 z m 2.688,0 h 1.184 l 0.24,-4.16 h -1.68 z" />
  </g>
  <rect
     style="fill:#d6d6d6;fill-opacity:1;stroke:#000000;stroke-width:1.134;stroke-miterlimit:4;stroke-dasharray:none;paint-order:markers fill stroke"
     id="rect1793"
     width="107.24133"
     height="21.931597"
     x="39.23386"
     y="93.590195"
     rx="0"
     ry="0" />
  <g
     id="text1797"
     style="font-style:normal;font-weight:normal;font-size:40px;line-height:1.25;font-family:sans-serif;letter-spacing:0px;word-spacing:0px;fill:#000000;fill-opacity:1;stroke:none;stroke-width:1.13385832;stroke-miterlimit:4;stroke-dasharray:none;paint-order:markers fill stroke"
     aria-label="&quot;runif&quot;">
    <path
       id="path156"
       style="font-style:normal;font-variant:normal;font-weight:normal;font-stretch:normal;font-size:16px;font-family:'Fira Mono';-inkscape-font-specification:'Fira Mono';stroke-width:1.13385832;stroke-miterlimit:4;stroke-dasharray:none;paint-order:markers fill stroke"
       d="m 62.167741,101.11855 h 1.184 l 0.256,-4.160003 h -1.68 z m 2.688,0 h 1.184 l 0.24,-4.160003 h -1.68 z" />
    <path
       id="path158"
       style="font-style:normal;font-variant:normal;font-weight:normal;font-stretch:normal;font-size:16px;font-family:'Fira Mono';-inkscape-font-specification:'Fira Mono';stroke-width:1.13385832;stroke-miterlimit:4;stroke-dasharray:none;paint-order:markers fill stroke"
       d="m 76.193491,100.17455 c -1.52,0 -2.384,0.8 -3.024,2.176 l -0.256,-2 h -2.336 v 1.04 h 1.328 v 6.352 h -1.328 v 1.04 h 4.384 v -1.04 h -1.712 v -3.552 c 0.544,-1.856 1.472,-2.784 2.768,-2.784 h 0.08 v 1.808 h 1.088 l 0.192,-2.864 c -0.368,-0.096 -0.72,-0.176 -1.184,-0.176 z" />
    <path
       id="path160"
       style="font-style:normal;font-variant:normal;font-weight:normal;font-stretch:normal;font-size:16px;font-family:'Fira Mono';-inkscape-font-specification:'Fira Mono';stroke-width:1.13385832;stroke-miterlimit:4;stroke-dasharray:none;paint-order:markers fill stroke"
       d="m 81.435241,100.35055 h -1.344 v 6.128 c 0,1.568 0.8,2.48 2.432,2.48 0.992,0 2.032,-0.464 2.704,-1.312 l 0.112,1.136 h 1.152 v -8.432 h -1.344 v 6.208 c -0.464,0.72 -1.36,1.344 -2.288,1.344 -0.976,0 -1.424,-0.48 -1.424,-1.568 z" />
    <path
       id="path162"
       style="font-style:normal;font-variant:normal;font-weight:normal;font-stretch:normal;font-size:16px;font-family:'Fira Mono';-inkscape-font-specification:'Fira Mono';stroke-width:1.13385832;stroke-miterlimit:4;stroke-dasharray:none;paint-order:markers fill stroke"
       d="m 89.684991,108.78255 h 1.344 v -6.128 c 0.448,-0.672 1.296,-1.408 2.288,-1.408 1.264,0 1.44,0.688 1.44,2.416 v 5.12 h 1.344 v -6.112 c 0,-1.568 -0.72,-2.496 -2.368,-2.496 -0.992,0 -2.112,0.496 -2.784,1.36 l -0.112,-1.184 h -1.152 z" />
    <path
       id="path164"
       style="font-style:normal;font-variant:normal;font-weight:normal;font-stretch:normal;font-size:16px;font-family:'Fira Mono';-inkscape-font-specification:'Fira Mono';stroke-width:1.13385832;stroke-miterlimit:4;stroke-dasharray:none;paint-order:markers fill stroke"
       d="m 102.47874,96.414547 c -0.576,0 -0.96,0.4 -0.96,0.944 0,0.544 0.384,0.944 0.96,0.944 0.592,0 0.992,-0.4 0.992,-0.944 0,-0.544 -0.4,-0.944 -0.992,-0.944 z m 1.072,3.936003 h -3.855999 v 1.072 h 2.511999 v 6.288 h -2.591999 v 1.072 h 6.303999 v -1.072 h -2.368 z" />
    <path
       id="path166"
       style="font-style:normal;font-variant:normal;font-weight:normal;font-stretch:normal;font-size:16px;font-family:'Fira Mono';-inkscape-font-specification:'Fira Mono';stroke-width:1.13385832;stroke-miterlimit:4;stroke-dasharray:none;paint-order:markers fill stroke"
       d="m 113.84849,96.798547 c -1.744,0 -3.072,0.976 -3.072,2.528 v 1.680003 h -2 v 1.072 h 2 v 6.704 h 1.36 v -6.704 h 2.704 l 0.144,-1.072 h -2.848 v -1.712003 c 0,-0.928 0.592,-1.392 1.76,-1.392 0.64,0 1.264,0.112 1.808,0.352 l 0.432,-1.008 c -0.656,-0.272 -1.376,-0.448 -2.288,-0.448 z" />
    <path
       id="path168"
       style="font-style:normal;font-variant:normal;font-weight:normal;font-stretch:normal;font-size:16px;font-family:'Fira Mono';-inkscape-font-specification:'Fira Mono';stroke-width:1.13385832;stroke-miterlimit:4;stroke-dasharray:none;paint-order:markers fill stroke"
       d="m 119.73024,101.11855 h 1.184 l 0.256,-4.160003 h -1.68 z m 2.688,0 h 1.184 l 0.24,-4.160003 h -1.68 z" />
  </g>
  <g
     id="text843"
     style="font-style:normal;font-weight:normal;font-size:40px;line-height:1.25;font-family:sans-serif;letter-spacing:0px;word-spacing:0px;fill:#000000;fill-opacity:1;stroke:none;stroke-width:1.13385832;stroke-miterlimit:4;stroke-dasharray:none;paint-order:markers fill stroke"
     aria-label="invoke_map(f, params, n = 5)">
    <path
       id="path171"
       style="font-style:normal;font-variant:normal;font-weight:normal;font-stretch:normal;font-size:16px;font-family:'Fira Mono';-inkscape-font-specification:'Fira Mono';stroke-width:1.13385832;stroke-miterlimit:4;stroke-dasharray:none;paint-order:markers fill stroke"
       d="m 429.08442,19.365576 c -0.576,0 -0.96,0.4 -0.96,0.944 0,0.544 0.384,0.944 0.96,0.944 0.592,0 0.992,-0.4 0.992,-0.944 0,-0.544 -0.4,-0.944 -0.992,-0.944 z m 1.072,3.936 h -3.856 v 1.072 h 2.512 v 6.288 h -2.592 v 1.072 h 6.304 v -1.072 h -2.368 z" />
    <path
       id="path173"
       style="font-style:normal;font-variant:normal;font-weight:normal;font-stretch:normal;font-size:16px;font-family:'Fira Mono';-inkscape-font-specification:'Fira Mono';stroke-width:1.13385832;stroke-miterlimit:4;stroke-dasharray:none;paint-order:markers fill stroke"
       d="m 435.47817,31.733576 h 1.344 v -6.128 c 0.448,-0.672 1.296,-1.408 2.288,-1.408 1.264,0 1.44,0.688 1.44,2.416 v 5.12 h 1.344 v -6.112 c 0,-1.568 -0.72,-2.496 -2.368,-2.496 -0.992,0 -2.112,0.496 -2.784,1.36 l -0.112,-1.184 h -1.152 z" />
    <path
       id="path175"
       style="font-style:normal;font-variant:normal;font-weight:normal;font-stretch:normal;font-size:16px;font-family:'Fira Mono';-inkscape-font-specification:'Fira Mono';stroke-width:1.13385832;stroke-miterlimit:4;stroke-dasharray:none;paint-order:markers fill stroke"
       d="m 452.11192,23.301576 h -1.408 l -2.4,7.216 -2.432,-7.216 h -1.44 l 3.056,8.432 h 1.552 z" />
    <path
       id="path177"
       style="font-style:normal;font-variant:normal;font-weight:normal;font-stretch:normal;font-size:16px;font-family:'Fira Mono';-inkscape-font-specification:'Fira Mono';stroke-width:1.13385832;stroke-miterlimit:4;stroke-dasharray:none;paint-order:markers fill stroke"
       d="m 457.88167,23.125576 c -2.368,0 -3.648,1.808 -3.648,4.4 0,2.656 1.264,4.384 3.632,4.384 2.352,0 3.632,-1.808 3.632,-4.4 0,-2.656 -1.248,-4.384 -3.616,-4.384 z m 0,1.104 c 1.44,0 2.16,1.056 2.16,3.28 0,2.256 -0.72,3.296 -2.176,3.296 -1.456,0 -2.176,-1.04 -2.176,-3.28 0,-2.24 0.736,-3.296 2.192,-3.296 z" />
    <path
       id="path179"
       style="font-style:normal;font-variant:normal;font-weight:normal;font-stretch:normal;font-size:16px;font-family:'Fira Mono';-inkscape-font-specification:'Fira Mono';stroke-width:1.13385832;stroke-miterlimit:4;stroke-dasharray:none;paint-order:markers fill stroke"
       d="m 465.69942,19.749576 -1.344,0.16 v 11.824 h 1.344 z m 5.616,3.552 h -1.728 l -3.744,3.824 4.144,4.608 h 1.776 l -4.224,-4.624 z" />
    <path
       id="path181"
       style="font-style:normal;font-variant:normal;font-weight:normal;font-stretch:normal;font-size:16px;font-family:'Fira Mono';-inkscape-font-specification:'Fira Mono';stroke-width:1.13385832;stroke-miterlimit:4;stroke-dasharray:none;paint-order:markers fill stroke"
       d="m 474.92517,27.989576 h 5.664 c 0.016,-0.176 0.032,-0.432 0.032,-0.72 0,-2.56 -1.312,-4.144 -3.44,-4.144 -2.24,0 -3.664,1.856 -3.664,4.4 0,2.624 1.392,4.384 3.856,4.384 1.04,0 2.096,-0.368 2.88,-0.976 l -0.624,-0.896 c -0.752,0.496 -1.392,0.752 -2.256,0.752 -1.296,0 -2.384,-0.848 -2.448,-2.8 z m 2.272,-3.76 c 1.28,0 2.08,0.928 2.112,2.736 h -4.384 c 0.112,-1.856 1.024,-2.736 2.272,-2.736 z" />
    <path
       id="path183"
       style="font-style:normal;font-variant:normal;font-weight:normal;font-stretch:normal;font-size:16px;font-family:'Fira Mono';-inkscape-font-specification:'Fira Mono';stroke-width:1.13385832;stroke-miterlimit:4;stroke-dasharray:none;paint-order:markers fill stroke"
       d="m 482.64692,34.645576 h 8 v -1.184 h -8 z" />
    <path
       id="path185"
       style="font-style:normal;font-variant:normal;font-weight:normal;font-stretch:normal;font-size:16px;font-family:'Fira Mono';-inkscape-font-specification:'Fira Mono';stroke-width:1.13385832;stroke-miterlimit:4;stroke-dasharray:none;paint-order:markers fill stroke"
       d="m 498.59267,23.125576 c -0.848,0 -1.392,0.448 -1.856,1.12 -0.256,-0.864 -0.88,-1.12 -1.52,-1.12 -0.848,0 -1.376,0.512 -1.824,1.168 l -0.096,-0.992 h -1.04 v 8.432 h 1.232 v -6.544 c 0.464,-0.72 0.944,-1.008 1.472,-1.008 0.608,0 0.656,0.432 0.656,1.504 v 6.048 h 1.248 v -6.544 c 0.464,-0.72 0.96,-1.008 1.472,-1.008 0.608,0 0.656,0.432 0.656,1.504 v 6.048 h 1.232 v -6.272 c 0,-1.936 -0.816,-2.336 -1.632,-2.336 z" />
    <path
       id="path187"
       style="font-style:normal;font-variant:normal;font-weight:normal;font-stretch:normal;font-size:16px;font-family:'Fira Mono';-inkscape-font-specification:'Fira Mono';stroke-width:1.13385832;stroke-miterlimit:4;stroke-dasharray:none;paint-order:markers fill stroke"
       d="m 508.68242,29.893576 v -4.048 c 0,-1.664 -1.056,-2.72 -3.152,-2.72 -0.832,0 -1.728,0.16 -2.768,0.528 l 0.368,1.024 c 0.864,-0.304 1.632,-0.432 2.192,-0.432 1.248,0 2,0.448 2,1.68 v 0.688 h -1.248 c -2.544,0 -3.936,0.976 -3.936,2.704 0,1.568 1.024,2.592 2.72,2.592 1.088,0 2.032,-0.4 2.64,-1.184 0.224,0.768 0.816,1.104 1.536,1.2 l 0.336,-0.96 c -0.48,-0.144 -0.688,-0.4 -0.688,-1.072 z m -3.488,1.008 c -1.104,0 -1.616,-0.544 -1.616,-1.6 0,-1.088 0.672,-1.76 2.528,-1.76 h 1.216 v 2.16 c -0.496,0.752 -1.296,1.2 -2.128,1.2 z" />
    <path
       id="path189"
       style="font-style:normal;font-variant:normal;font-weight:normal;font-stretch:normal;font-size:16px;font-family:'Fira Mono';-inkscape-font-specification:'Fira Mono';stroke-width:1.13385832;stroke-miterlimit:4;stroke-dasharray:none;paint-order:markers fill stroke"
       d="m 516.00417,23.125576 c -1.008,0 -1.904,0.496 -2.512,1.36 l -0.112,-1.184 h -1.152 v 11.824 l 1.344,-0.16 v -4.016 c 0.576,0.64 1.312,0.96 2.24,0.96 2.192,0 3.248,-1.84 3.248,-4.4 0,-2.64 -0.816,-4.384 -3.056,-4.384 z m -0.32,1.088 c 1.328,0 1.92,1.104 1.92,3.296 0,2.24 -0.704,3.28 -2.096,3.28 -0.8,0 -1.488,-0.4 -1.936,-1.056 v -4.176 c 0.464,-0.672 1.184,-1.344 2.112,-1.344 z" />
    <path
       id="path191"
       style="font-style:normal;font-variant:normal;font-weight:normal;font-stretch:normal;font-size:16px;font-family:'Fira Mono';-inkscape-font-specification:'Fira Mono';stroke-width:1.13385832;stroke-miterlimit:4;stroke-dasharray:none;paint-order:markers fill stroke"
       d="m 523.62992,26.133576 c 0,-3.36 1.104,-5.056 3.408,-7.104 l -0.688,-0.736 c -2.608,2.128 -4.128,4.192 -4.128,7.84 0,3.648 1.52,5.712 4.128,7.84 l 0.688,-0.736 c -2.272,-2.032 -3.408,-3.76 -3.408,-7.104 z" />
    <path
       id="path193"
       style="font-style:normal;font-variant:normal;font-weight:normal;font-stretch:normal;font-size:16px;font-family:'Fira Mono';-inkscape-font-specification:'Fira Mono';stroke-width:1.13385832;stroke-miterlimit:4;stroke-dasharray:none;paint-order:markers fill stroke"
       d="m 536.39167,19.749576 c -1.744,0 -3.072,0.976 -3.072,2.528 v 1.68 h -2 v 1.072 h 2 v 6.704 h 1.36 v -6.704 h 2.704 l 0.144,-1.072 h -2.848 v -1.712 c 0,-0.928 0.592,-1.392 1.76,-1.392 0.64,0 1.264,0.112 1.808,0.352 l 0.432,-1.008 c -0.656,-0.272 -1.376,-0.448 -2.288,-0.448 z" />
    <path
       id="path195"
       style="font-style:normal;font-variant:normal;font-weight:normal;font-stretch:normal;font-size:16px;font-family:'Fira Mono';-inkscape-font-specification:'Fira Mono';stroke-width:1.13385832;stroke-miterlimit:4;stroke-dasharray:none;paint-order:markers fill stroke"
       d="m 544.20942,29.093576 c -0.72,0 -1.28,0.576 -1.28,1.296 0,0.416 0.208,0.832 0.512,1.056 l -0.752,3.152 h 1.216 l 1.296,-2.96 c 0.224,-0.496 0.304,-0.864 0.304,-1.264 0,-0.704 -0.56,-1.28 -1.296,-1.28 z" />
    <path
       id="path197"
       style="font-style:normal;font-variant:normal;font-weight:normal;font-stretch:normal;font-size:16px;font-family:'Fira Mono';-inkscape-font-specification:'Fira Mono';stroke-width:1.13385832;stroke-miterlimit:4;stroke-dasharray:none;paint-order:markers fill stroke"
       d="m 563.97292,23.125576 c -1.008,0 -1.904,0.496 -2.512,1.36 l -0.112,-1.184 h -1.152 v 11.824 l 1.344,-0.16 v -4.016 c 0.576,0.64 1.312,0.96 2.24,0.96 2.192,0 3.248,-1.84 3.248,-4.4 0,-2.64 -0.816,-4.384 -3.056,-4.384 z m -0.32,1.088 c 1.328,0 1.92,1.104 1.92,3.296 0,2.24 -0.704,3.28 -2.096,3.28 -0.8,0 -1.488,-0.4 -1.936,-1.056 v -4.176 c 0.464,-0.672 1.184,-1.344 2.112,-1.344 z" />
    <path
       id="path199"
       style="font-style:normal;font-variant:normal;font-weight:normal;font-stretch:normal;font-size:16px;font-family:'Fira Mono';-inkscape-font-specification:'Fira Mono';stroke-width:1.13385832;stroke-miterlimit:4;stroke-dasharray:none;paint-order:markers fill stroke"
       d="m 575.83867,29.893576 v -4.048 c 0,-1.664 -1.056,-2.72 -3.152,-2.72 -0.832,0 -1.728,0.16 -2.768,0.528 l 0.368,1.024 c 0.864,-0.304 1.632,-0.432 2.192,-0.432 1.248,0 2,0.448 2,1.68 v 0.688 h -1.248 c -2.544,0 -3.936,0.976 -3.936,2.704 0,1.568 1.024,2.592 2.72,2.592 1.088,0 2.032,-0.4 2.64,-1.184 0.224,0.768 0.816,1.104 1.536,1.2 l 0.336,-0.96 c -0.48,-0.144 -0.688,-0.4 -0.688,-1.072 z m -3.488,1.008 c -1.104,0 -1.616,-0.544 -1.616,-1.6 0,-1.088 0.672,-1.76 2.528,-1.76 h 1.216 v 2.16 c -0.496,0.752 -1.296,1.2 -2.128,1.2 z" />
    <path
       id="path201"
       style="font-style:normal;font-variant:normal;font-weight:normal;font-stretch:normal;font-size:16px;font-family:'Fira Mono';-inkscape-font-specification:'Fira Mono';stroke-width:1.13385832;stroke-miterlimit:4;stroke-dasharray:none;paint-order:markers fill stroke"
       d="m 585.08042,23.125576 c -1.52,0 -2.384,0.8 -3.024,2.176 l -0.256,-2 h -2.336 v 1.04 h 1.328 v 6.352 h -1.328 v 1.04 h 4.384 v -1.04 h -1.712 v -3.552 c 0.544,-1.856 1.472,-2.784 2.768,-2.784 h 0.08 v 1.808 h 1.088 l 0.192,-2.864 c -0.368,-0.096 -0.72,-0.176 -1.184,-0.176 z" />
    <path
       id="path203"
       style="font-style:normal;font-variant:normal;font-weight:normal;font-stretch:normal;font-size:16px;font-family:'Fira Mono';-inkscape-font-specification:'Fira Mono';stroke-width:1.13385832;stroke-miterlimit:4;stroke-dasharray:none;paint-order:markers fill stroke"
       d="m 595.02617,29.893576 v -4.048 c 0,-1.664 -1.056,-2.72 -3.152,-2.72 -0.832,0 -1.728,0.16 -2.768,0.528 l 0.368,1.024 c 0.864,-0.304 1.632,-0.432 2.192,-0.432 1.248,0 2,0.448 2,1.68 v 0.688 h -1.248 c -2.544,0 -3.936,0.976 -3.936,2.704 0,1.568 1.024,2.592 2.72,2.592 1.088,0 2.032,-0.4 2.64,-1.184 0.224,0.768 0.816,1.104 1.536,1.2 l 0.336,-0.96 c -0.48,-0.144 -0.688,-0.4 -0.688,-1.072 z m -3.488,1.008 c -1.104,0 -1.616,-0.544 -1.616,-1.6 0,-1.088 0.672,-1.76 2.528,-1.76 h 1.216 v 2.16 c -0.496,0.752 -1.296,1.2 -2.128,1.2 z" />
    <path
       id="path205"
       style="font-style:normal;font-variant:normal;font-weight:normal;font-stretch:normal;font-size:16px;font-family:'Fira Mono';-inkscape-font-specification:'Fira Mono';stroke-width:1.13385832;stroke-miterlimit:4;stroke-dasharray:none;paint-order:markers fill stroke"
       d="m 604.12392,23.125576 c -0.848,0 -1.392,0.448 -1.856,1.12 -0.256,-0.864 -0.88,-1.12 -1.52,-1.12 -0.848,0 -1.376,0.512 -1.824,1.168 l -0.096,-0.992 h -1.04 v 8.432 h 1.232 v -6.544 c 0.464,-0.72 0.944,-1.008 1.472,-1.008 0.608,0 0.656,0.432 0.656,1.504 v 6.048 h 1.248 v -6.544 c 0.464,-0.72 0.96,-1.008 1.472,-1.008 0.608,0 0.656,0.432 0.656,1.504 v 6.048 h 1.232 v -6.272 c 0,-1.936 -0.816,-2.336 -1.632,-2.336 z" />
    <path
       id="path207"
       style="font-style:normal;font-variant:normal;font-weight:normal;font-stretch:normal;font-size:16px;font-family:'Fira Mono';-inkscape-font-specification:'Fira Mono';stroke-width:1.13385832;stroke-miterlimit:4;stroke-dasharray:none;paint-order:markers fill stroke"
       d="m 611.04567,30.805576 c -0.992,0 -1.888,-0.368 -2.544,-0.912 l -0.752,0.88 c 0.72,0.624 1.76,1.136 3.296,1.136 1.792,0 3.536,-0.704 3.536,-2.512 0,-1.568 -1.088,-2.144 -2.736,-2.592 -1.696,-0.464 -2.224,-0.72 -2.224,-1.488 0,-0.64 0.48,-1.104 1.824,-1.104 1.088,0 1.808,0.336 2.432,0.768 l 0.608,-0.928 c -0.72,-0.512 -1.712,-0.928 -3.072,-0.928 -1.904,0 -3.2,0.896 -3.2,2.304 0,1.472 1.136,2 2.88,2.432 1.792,0.448 2.032,0.848 2.032,1.6 0,0.816 -0.784,1.344 -2.08,1.344 z" />
    <path
       id="path209"
       style="font-style:normal;font-variant:normal;font-weight:normal;font-stretch:normal;font-size:16px;font-family:'Fira Mono';-inkscape-font-specification:'Fira Mono';stroke-width:1.13385832;stroke-miterlimit:4;stroke-dasharray:none;paint-order:markers fill stroke"
       d="m 620.95942,29.093576 c -0.72,0 -1.28,0.576 -1.28,1.296 0,0.416 0.208,0.832 0.512,1.056 l -0.752,3.152 h 1.216 l 1.296,-2.96 c 0.224,-0.496 0.304,-0.864 0.304,-1.264 0,-0.704 -0.56,-1.28 -1.296,-1.28 z" />
    <path
       id="path211"
       style="font-style:normal;font-variant:normal;font-weight:normal;font-stretch:normal;font-size:16px;font-family:'Fira Mono';-inkscape-font-specification:'Fira Mono';stroke-width:1.13385832;stroke-miterlimit:4;stroke-dasharray:none;paint-order:markers fill stroke"
       d="m 636.94692,31.733576 h 1.344 v -6.128 c 0.448,-0.672 1.296,-1.408 2.288,-1.408 1.264,0 1.44,0.688 1.44,2.416 v 5.12 h 1.344 v -6.112 c 0,-1.568 -0.72,-2.496 -2.368,-2.496 -0.992,0 -2.112,0.496 -2.784,1.36 l -0.112,-1.184 h -1.152 z" />
    <path
       id="path213"
       style="font-style:normal;font-variant:normal;font-weight:normal;font-stretch:normal;font-size:16px;font-family:'Fira Mono';-inkscape-font-specification:'Fira Mono';stroke-width:1.13385832;stroke-miterlimit:4;stroke-dasharray:none;paint-order:markers fill stroke"
       d="m 662.43842,24.661576 h -6.208 v 1.152 h 6.208 z m 0,3.04 h -6.208 v 1.152 h 6.208 z" />
    <path
       id="path215"
       style="font-style:normal;font-variant:normal;font-weight:normal;font-stretch:normal;font-size:16px;font-family:'Fira Mono';-inkscape-font-specification:'Fira Mono';stroke-width:1.13385832;stroke-miterlimit:4;stroke-dasharray:none;paint-order:markers fill stroke"
       d="m 681.51392,20.709576 h -5.84 v 5.504 h 1.088 c 0.64,-0.224 1.072,-0.368 1.712,-0.368 1.12,0 2,0.592 2,2.352 0,1.712 -0.864,2.608 -2.32,2.608 -0.944,0 -1.696,-0.336 -2.368,-1.024 l -0.832,0.816 c 0.848,0.816 1.872,1.312 3.2,1.312 2.272,0 3.728,-1.456 3.728,-3.664 0,-2.208 -1.216,-3.456 -3.024,-3.456 -0.656,0 -1.232,0.112 -1.888,0.48 v -3.472 h 4.352 z" />
    <path
       id="path217"
       style="font-style:normal;font-variant:normal;font-weight:normal;font-stretch:normal;font-size:16px;font-family:'Fira Mono';-inkscape-font-specification:'Fira Mono';stroke-width:1.13385832;stroke-miterlimit:4;stroke-dasharray:none;paint-order:markers fill stroke"
       d="m 689.50767,26.133576 c 0,3.344 -1.136,5.072 -3.408,7.104 l 0.688,0.736 c 2.608,-2.128 4.128,-4.192 4.128,-7.84 0,-3.648 -1.52,-5.712 -4.128,-7.84 l -0.688,0.736 c 2.304,2.048 3.408,3.744 3.408,7.104 z" />
  </g>
  <rect
     ry="12.763021"
     rx="12.763021"
     y="48.823112"
     x="369.97052"
     height="244.25677"
     width="377.19507"
     id="rect1823"
     style="fill:none;fill-opacity:1;stroke:#000000;stroke-width:1.13385832;stroke-miterlimit:4;stroke-dasharray:none;paint-order:markers fill stroke" />
  <rect
     ry="0"
     rx="0"
     y="240.20912"
     x="390.66782"
     height="21.931952"
     width="335.80048"
     id="rect1827"
     style="fill:#d6d6d6;fill-opacity:1;stroke:#000000;stroke-width:1.1340481;stroke-miterlimit:4;stroke-dasharray:none;paint-order:markers fill stroke" />
  <g
     id="text1831"
     style="font-style:normal;font-weight:normal;font-size:40px;line-height:1.25;font-family:sans-serif;letter-spacing:0px;word-spacing:0px;fill:#000000;fill-opacity:1;stroke:none;stroke-width:1.13385832;stroke-miterlimit:4;stroke-dasharray:none;paint-order:markers fill stroke"
     aria-label="rpois(lambda = 10, n = 5)">
    <path
       id="path220"
       style="font-style:normal;font-variant:normal;font-weight:normal;font-stretch:normal;font-size:16px;font-family:'Fira Mono';-inkscape-font-specification:'Fira Mono';stroke-width:1.13385832;stroke-miterlimit:4;stroke-dasharray:none;paint-order:markers fill stroke"
       d="m 446.13749,247.69193 c -1.52,0 -2.384,0.8 -3.024,2.176 l -0.256,-2 h -2.336 v 1.04 h 1.328 v 6.352 h -1.328 v 1.04 h 4.384 v -1.04 h -1.712 v -3.552 c 0.544,-1.856 1.472,-2.784 2.768,-2.784 h 0.08 v 1.808 h 1.088 l 0.192,-2.864 c -0.368,-0.096 -0.72,-0.176 -1.184,-0.176 z" />
    <path
       id="path222"
       style="font-style:normal;font-variant:normal;font-weight:normal;font-stretch:normal;font-size:16px;font-family:'Fira Mono';-inkscape-font-specification:'Fira Mono';stroke-width:1.13385832;stroke-miterlimit:4;stroke-dasharray:none;paint-order:markers fill stroke"
       d="m 453.81124,247.69193 c -1.008,0 -1.904,0.496 -2.512,1.36 l -0.112,-1.184 h -1.152 v 11.824 l 1.344,-0.16 v -4.016 c 0.576,0.64 1.312,0.96 2.24,0.96 2.192,0 3.248,-1.84 3.248,-4.4 0,-2.64 -0.816,-4.384 -3.056,-4.384 z m -0.32,1.088 c 1.328,0 1.92,1.104 1.92,3.296 0,2.24 -0.704,3.28 -2.096,3.28 -0.8,0 -1.488,-0.4 -1.936,-1.056 v -4.176 c 0.464,-0.672 1.184,-1.344 2.112,-1.344 z" />
    <path
       id="path224"
       style="font-style:normal;font-variant:normal;font-weight:normal;font-stretch:normal;font-size:16px;font-family:'Fira Mono';-inkscape-font-specification:'Fira Mono';stroke-width:1.13385832;stroke-miterlimit:4;stroke-dasharray:none;paint-order:markers fill stroke"
       d="m 462.84499,247.69193 c -2.368,0 -3.648,1.808 -3.648,4.4 0,2.656 1.264,4.384 3.632,4.384 2.352,0 3.632,-1.808 3.632,-4.4 0,-2.656 -1.248,-4.384 -3.616,-4.384 z m 0,1.104 c 1.44,0 2.16,1.056 2.16,3.28 0,2.256 -0.72,3.296 -2.176,3.296 -1.456,0 -2.176,-1.04 -2.176,-3.28 0,-2.24 0.736,-3.296 2.192,-3.296 z" />
    <path
       id="path226"
       style="font-style:normal;font-variant:normal;font-weight:normal;font-stretch:normal;font-size:16px;font-family:'Fira Mono';-inkscape-font-specification:'Fira Mono';stroke-width:1.13385832;stroke-miterlimit:4;stroke-dasharray:none;paint-order:markers fill stroke"
       d="m 472.42274,243.93193 c -0.576,0 -0.96,0.4 -0.96,0.944 0,0.544 0.384,0.944 0.96,0.944 0.592,0 0.992,-0.4 0.992,-0.944 0,-0.544 -0.4,-0.944 -0.992,-0.944 z m 1.072,3.936 h -3.856 v 1.072 h 2.512 v 6.288 h -2.592 v 1.072 h 6.304 v -1.072 h -2.368 z" />
    <path
       id="path228"
       style="font-style:normal;font-variant:normal;font-weight:normal;font-stretch:normal;font-size:16px;font-family:'Fira Mono';-inkscape-font-specification:'Fira Mono';stroke-width:1.13385832;stroke-miterlimit:4;stroke-dasharray:none;paint-order:markers fill stroke"
       d="m 481.69649,255.37193 c -0.992,0 -1.888,-0.368 -2.544,-0.912 l -0.752,0.88 c 0.72,0.624 1.76,1.136 3.296,1.136 1.792,0 3.536,-0.704 3.536,-2.512 0,-1.568 -1.088,-2.144 -2.736,-2.592 -1.696,-0.464 -2.224,-0.72 -2.224,-1.488 0,-0.64 0.48,-1.104 1.824,-1.104 1.088,0 1.808,0.336 2.432,0.768 l 0.608,-0.928 c -0.72,-0.512 -1.712,-0.928 -3.072,-0.928 -1.904,0 -3.2,0.896 -3.2,2.304 0,1.472 1.136,2 2.88,2.432 1.792,0.448 2.032,0.848 2.032,1.6 0,0.816 -0.784,1.344 -2.08,1.344 z" />
    <path
       id="path230"
       style="font-style:normal;font-variant:normal;font-weight:normal;font-stretch:normal;font-size:16px;font-family:'Fira Mono';-inkscape-font-specification:'Fira Mono';stroke-width:1.13385832;stroke-miterlimit:4;stroke-dasharray:none;paint-order:markers fill stroke"
       d="m 490.21824,250.69993 c 0,-3.36 1.104,-5.056 3.408,-7.104 l -0.688,-0.736 c -2.608,2.128 -4.128,4.192 -4.128,7.84 0,3.648 1.52,5.712 4.128,7.84 l 0.688,-0.736 c -2.272,-2.032 -3.408,-3.76 -3.408,-7.104 z" />
    <path
       id="path232"
       style="font-style:normal;font-variant:normal;font-weight:normal;font-stretch:normal;font-size:16px;font-family:'Fira Mono';-inkscape-font-specification:'Fira Mono';stroke-width:1.13385832;stroke-miterlimit:4;stroke-dasharray:none;paint-order:markers fill stroke"
       d="m 501.29999,244.47593 h -3.936 v 1.072 h 2.592 v 8.608 c 0,1.456 1.008,2.32 2.496,2.32 0.864,0 1.552,-0.192 2,-0.432 l -0.352,-0.976 c -0.464,0.176 -0.912,0.288 -1.408,0.288 -0.816,0 -1.392,-0.304 -1.392,-1.136 z" />
    <path
       id="path234"
       style="font-style:normal;font-variant:normal;font-weight:normal;font-stretch:normal;font-size:16px;font-family:'Fira Mono';-inkscape-font-specification:'Fira Mono';stroke-width:1.13385832;stroke-miterlimit:4;stroke-dasharray:none;paint-order:markers fill stroke"
       d="m 513.64574,254.45993 v -4.048 c 0,-1.664 -1.056,-2.72 -3.152,-2.72 -0.832,0 -1.728,0.16 -2.768,0.528 l 0.368,1.024 c 0.864,-0.304 1.632,-0.432 2.192,-0.432 1.248,0 2,0.448 2,1.68 v 0.688 h -1.248 c -2.544,0 -3.936,0.976 -3.936,2.704 0,1.568 1.024,2.592 2.72,2.592 1.088,0 2.032,-0.4 2.64,-1.184 0.224,0.768 0.816,1.104 1.536,1.2 l 0.336,-0.96 c -0.48,-0.144 -0.688,-0.4 -0.688,-1.072 z m -3.488,1.008 c -1.104,0 -1.616,-0.544 -1.616,-1.6 0,-1.088 0.672,-1.76 2.528,-1.76 h 1.216 v 2.16 c -0.496,0.752 -1.296,1.2 -2.128,1.2 z" />
    <path
       id="path236"
       style="font-style:normal;font-variant:normal;font-weight:normal;font-stretch:normal;font-size:16px;font-family:'Fira Mono';-inkscape-font-specification:'Fira Mono';stroke-width:1.13385832;stroke-miterlimit:4;stroke-dasharray:none;paint-order:markers fill stroke"
       d="m 522.74349,247.69193 c -0.848,0 -1.392,0.448 -1.856,1.12 -0.256,-0.864 -0.88,-1.12 -1.52,-1.12 -0.848,0 -1.376,0.512 -1.824,1.168 l -0.096,-0.992 h -1.04 v 8.432 h 1.232 v -6.544 c 0.464,-0.72 0.944,-1.008 1.472,-1.008 0.608,0 0.656,0.432 0.656,1.504 v 6.048 h 1.248 v -6.544 c 0.464,-0.72 0.96,-1.008 1.472,-1.008 0.608,0 0.656,0.432 0.656,1.504 v 6.048 h 1.232 v -6.272 c 0,-1.936 -0.816,-2.336 -1.632,-2.336 z" />
    <path
       id="path238"
       style="font-style:normal;font-variant:normal;font-weight:normal;font-stretch:normal;font-size:16px;font-family:'Fira Mono';-inkscape-font-specification:'Fira Mono';stroke-width:1.13385832;stroke-miterlimit:4;stroke-dasharray:none;paint-order:markers fill stroke"
       d="m 528.12924,248.97193 v -4.656 l -1.344,0.16 v 11.824 h 1.184 l 0.096,-0.88 c 0.576,0.736 1.328,1.056 2.288,1.056 2.176,0 3.344,-1.84 3.344,-4.4 0,-2.64 -0.912,-4.384 -3.152,-4.384 -0.976,0 -1.792,0.464 -2.416,1.28 z m 1.92,6.416 c -0.784,0 -1.472,-0.4 -1.92,-1.088 v -4.176 c 0.464,-0.672 1.184,-1.344 2.112,-1.344 1.312,0 2,1.104 2,3.296 0,2.24 -0.8,3.312 -2.192,3.312 z" />
    <path
       id="path240"
       style="font-style:normal;font-variant:normal;font-weight:normal;font-stretch:normal;font-size:16px;font-family:'Fira Mono';-inkscape-font-specification:'Fira Mono';stroke-width:1.13385832;stroke-miterlimit:4;stroke-dasharray:none;paint-order:markers fill stroke"
       d="m 541.43499,244.31593 v 4.384 c -0.576,-0.656 -1.296,-1.008 -2.272,-1.008 -2.064,0 -3.296,1.872 -3.296,4.4 0,2.624 1.008,4.384 3.216,4.384 0.912,0 1.76,-0.4 2.384,-1.28 l 0.128,1.104 h 1.184 v -11.824 z m -1.92,4.464 c 0.784,0 1.456,0.4 1.92,1.088 v 4.192 c -0.464,0.704 -1.12,1.344 -2.08,1.344 -1.328,0 -2.032,-1.12 -2.032,-3.312 0,-2.224 0.8,-3.312 2.192,-3.312 z" />
    <path
       id="path242"
       style="font-style:normal;font-variant:normal;font-weight:normal;font-stretch:normal;font-size:16px;font-family:'Fira Mono';-inkscape-font-specification:'Fira Mono';stroke-width:1.13385832;stroke-miterlimit:4;stroke-dasharray:none;paint-order:markers fill stroke"
       d="m 552.02074,254.45993 v -4.048 c 0,-1.664 -1.056,-2.72 -3.152,-2.72 -0.832,0 -1.728,0.16 -2.768,0.528 l 0.368,1.024 c 0.864,-0.304 1.632,-0.432 2.192,-0.432 1.248,0 2,0.448 2,1.68 v 0.688 h -1.248 c -2.544,0 -3.936,0.976 -3.936,2.704 0,1.568 1.024,2.592 2.72,2.592 1.088,0 2.032,-0.4 2.64,-1.184 0.224,0.768 0.816,1.104 1.536,1.2 l 0.336,-0.96 c -0.48,-0.144 -0.688,-0.4 -0.688,-1.072 z m -3.488,1.008 c -1.104,0 -1.616,-0.544 -1.616,-1.6 0,-1.088 0.672,-1.76 2.528,-1.76 h 1.216 v 2.16 c -0.496,0.752 -1.296,1.2 -2.128,1.2 z" />
    <path
       id="path244"
       style="font-style:normal;font-variant:normal;font-weight:normal;font-stretch:normal;font-size:16px;font-family:'Fira Mono';-inkscape-font-specification:'Fira Mono';stroke-width:1.13385832;stroke-miterlimit:4;stroke-dasharray:none;paint-order:markers fill stroke"
       d="m 571.46424,249.22793 h -6.208 v 1.152 h 6.208 z m 0,3.04 h -6.208 v 1.152 h 6.208 z" />
    <path
       id="path246"
       style="font-style:normal;font-variant:normal;font-weight:normal;font-stretch:normal;font-size:16px;font-family:'Fira Mono';-inkscape-font-specification:'Fira Mono';stroke-width:1.13385832;stroke-miterlimit:4;stroke-dasharray:none;paint-order:markers fill stroke"
       d="m 588.73174,255.21193 v -9.936 h -1.184 l -3.28,2.048 0.592,0.944 2.512,-1.52 v 8.464 h -2.704 v 1.088 h 6.352 v -1.088 z" />
    <path
       id="path248"
       style="font-style:normal;font-variant:normal;font-weight:normal;font-stretch:normal;font-size:16px;font-family:'Fira Mono';-inkscape-font-specification:'Fira Mono';stroke-width:1.13385832;stroke-miterlimit:4;stroke-dasharray:none;paint-order:markers fill stroke"
       d="m 597.14149,245.09993 c -2.368,0 -3.6,2.032 -3.6,5.68 0,3.664 1.232,5.696 3.6,5.696 2.368,0 3.6,-2.032 3.6,-5.696 0,-3.648 -1.232,-5.68 -3.6,-5.68 z m 0,1.088 c 1.376,0 2.192,1.344 2.192,4.592 0,3.264 -0.816,4.608 -2.192,4.608 -1.36,0 -2.192,-1.344 -2.192,-4.608 0,-3.248 0.832,-4.592 2.192,-4.592 z m 0,3.552 c -0.592,0 -1.04,0.464 -1.04,1.04 0,0.592 0.448,1.056 1.04,1.056 0.608,0 1.056,-0.464 1.056,-1.056 0,-0.576 -0.448,-1.04 -1.056,-1.04 z" />
    <path
       id="path250"
       style="font-style:normal;font-variant:normal;font-weight:normal;font-stretch:normal;font-size:16px;font-family:'Fira Mono';-inkscape-font-specification:'Fira Mono';stroke-width:1.13385832;stroke-miterlimit:4;stroke-dasharray:none;paint-order:markers fill stroke"
       d="m 606.73524,253.65993 c -0.72,0 -1.28,0.576 -1.28,1.296 0,0.416 0.208,0.832 0.512,1.056 l -0.752,3.152 h 1.216 l 1.296,-2.96 c 0.224,-0.496 0.304,-0.864 0.304,-1.264 0,-0.704 -0.56,-1.28 -1.296,-1.28 z" />
    <path
       id="path252"
       style="font-style:normal;font-variant:normal;font-weight:normal;font-stretch:normal;font-size:16px;font-family:'Fira Mono';-inkscape-font-specification:'Fira Mono';stroke-width:1.13385832;stroke-miterlimit:4;stroke-dasharray:none;paint-order:markers fill stroke"
       d="m 622.72274,256.29993 h 1.344 v -6.128 c 0.448,-0.672 1.296,-1.408 2.288,-1.408 1.264,0 1.44,0.688 1.44,2.416 v 5.12 h 1.344 v -6.112 c 0,-1.568 -0.72,-2.496 -2.368,-2.496 -0.992,0 -2.112,0.496 -2.784,1.36 l -0.112,-1.184 h -1.152 z" />
    <path
       id="path254"
       style="font-style:normal;font-variant:normal;font-weight:normal;font-stretch:normal;font-size:16px;font-family:'Fira Mono';-inkscape-font-specification:'Fira Mono';stroke-width:1.13385832;stroke-miterlimit:4;stroke-dasharray:none;paint-order:markers fill stroke"
       d="m 648.21424,249.22793 h -6.208 v 1.152 h 6.208 z m 0,3.04 h -6.208 v 1.152 h 6.208 z" />
    <path
       id="path256"
       style="font-style:normal;font-variant:normal;font-weight:normal;font-stretch:normal;font-size:16px;font-family:'Fira Mono';-inkscape-font-specification:'Fira Mono';stroke-width:1.13385832;stroke-miterlimit:4;stroke-dasharray:none;paint-order:markers fill stroke"
       d="m 667.28974,245.27593 h -5.84 v 5.504 h 1.088 c 0.64,-0.224 1.072,-0.368 1.712,-0.368 1.12,0 2,0.592 2,2.352 0,1.712 -0.864,2.608 -2.32,2.608 -0.944,0 -1.696,-0.336 -2.368,-1.024 l -0.832,0.816 c 0.848,0.816 1.872,1.312 3.2,1.312 2.272,0 3.728,-1.456 3.728,-3.664 0,-2.208 -1.216,-3.456 -3.024,-3.456 -0.656,0 -1.232,0.112 -1.888,0.48 v -3.472 h 4.352 z" />
    <path
       id="path258"
       style="font-style:normal;font-variant:normal;font-weight:normal;font-stretch:normal;font-size:16px;font-family:'Fira Mono';-inkscape-font-specification:'Fira Mono';stroke-width:1.13385832;stroke-miterlimit:4;stroke-dasharray:none;paint-order:markers fill stroke"
       d="m 675.28349,250.69993 c 0,3.344 -1.136,5.072 -3.408,7.104 l 0.688,0.736 c 2.608,-2.128 4.128,-4.192 4.128,-7.84 0,-3.648 -1.52,-5.712 -4.128,-7.84 l -0.688,0.736 c 2.304,2.048 3.408,3.744 3.408,7.104 z" />
  </g>
  <rect
     style="fill:#d6d6d6;fill-opacity:1;stroke:#000000;stroke-width:1.13590205;stroke-miterlimit:4;stroke-dasharray:none;paint-order:markers fill stroke"
     id="rect1835"
     width="335.80109"
     height="21.930098"
     x="390.66748"
     y="167.28253"
     rx="0"
     ry="0" />
  <g
     id="text1839"
     style="font-style:normal;font-weight:normal;font-size:40px;line-height:1.25;font-family:sans-serif;letter-spacing:0px;word-spacing:0px;fill:#000000;fill-opacity:1;stroke:none;stroke-width:1.13385832;stroke-miterlimit:4;stroke-dasharray:none;paint-order:markers fill stroke"
     aria-label="rnorm(sd = 5, n = 5)">
    <path
       id="path261"
       style="font-style:normal;font-variant:normal;font-weight:normal;font-stretch:normal;font-size:16px;font-family:'Fira Mono';-inkscape-font-specification:'Fira Mono';stroke-width:1.13385832;stroke-miterlimit:4;stroke-dasharray:none;paint-order:markers fill stroke"
       d="m 470.12184,174.75585 c -1.52,0 -2.384,0.8 -3.024,2.176 l -0.256,-2 h -2.336 v 1.04 h 1.328 v 6.352 h -1.328 v 1.04 h 4.384 v -1.04 h -1.712 v -3.552 c 0.544,-1.856 1.472,-2.784 2.768,-2.784 h 0.08 v 1.808 h 1.088 l 0.192,-2.864 c -0.368,-0.096 -0.72,-0.176 -1.184,-0.176 z" />
    <path
       id="path263"
       style="font-style:normal;font-variant:normal;font-weight:normal;font-stretch:normal;font-size:16px;font-family:'Fira Mono';-inkscape-font-specification:'Fira Mono';stroke-width:1.13385832;stroke-miterlimit:4;stroke-dasharray:none;paint-order:markers fill stroke"
       d="m 474.01959,183.36385 h 1.344 v -6.128 c 0.448,-0.672 1.296,-1.408 2.288,-1.408 1.264,0 1.44,0.688 1.44,2.416 v 5.12 h 1.344 v -6.112 c 0,-1.568 -0.72,-2.496 -2.368,-2.496 -0.992,0 -2.112,0.496 -2.784,1.36 l -0.112,-1.184 h -1.152 z" />
    <path
       id="path265"
       style="font-style:normal;font-variant:normal;font-weight:normal;font-stretch:normal;font-size:16px;font-family:'Fira Mono';-inkscape-font-specification:'Fira Mono';stroke-width:1.13385832;stroke-miterlimit:4;stroke-dasharray:none;paint-order:markers fill stroke"
       d="m 486.82934,174.75585 c -2.368,0 -3.648,1.808 -3.648,4.4 0,2.656 1.264,4.384 3.632,4.384 2.352,0 3.632,-1.808 3.632,-4.4 0,-2.656 -1.248,-4.384 -3.616,-4.384 z m 0,1.104 c 1.44,0 2.16,1.056 2.16,3.28 0,2.256 -0.72,3.296 -2.176,3.296 -1.456,0 -2.176,-1.04 -2.176,-3.28 0,-2.24 0.736,-3.296 2.192,-3.296 z" />
    <path
       id="path267"
       style="font-style:normal;font-variant:normal;font-weight:normal;font-stretch:normal;font-size:16px;font-family:'Fira Mono';-inkscape-font-specification:'Fira Mono';stroke-width:1.13385832;stroke-miterlimit:4;stroke-dasharray:none;paint-order:markers fill stroke"
       d="m 498.90309,174.75585 c -1.52,0 -2.384,0.8 -3.024,2.176 l -0.256,-2 h -2.336 v 1.04 h 1.328 v 6.352 h -1.328 v 1.04 h 4.384 v -1.04 h -1.712 v -3.552 c 0.544,-1.856 1.472,-2.784 2.768,-2.784 h 0.08 v 1.808 h 1.088 l 0.192,-2.864 c -0.368,-0.096 -0.72,-0.176 -1.184,-0.176 z" />
    <path
       id="path269"
       style="font-style:normal;font-variant:normal;font-weight:normal;font-stretch:normal;font-size:16px;font-family:'Fira Mono';-inkscape-font-specification:'Fira Mono';stroke-width:1.13385832;stroke-miterlimit:4;stroke-dasharray:none;paint-order:markers fill stroke"
       d="m 508.35284,174.75585 c -0.848,0 -1.392,0.448 -1.856,1.12 -0.256,-0.864 -0.88,-1.12 -1.52,-1.12 -0.848,0 -1.376,0.512 -1.824,1.168 l -0.096,-0.992 h -1.04 v 8.432 h 1.232 v -6.544 c 0.464,-0.72 0.944,-1.008 1.472,-1.008 0.608,0 0.656,0.432 0.656,1.504 v 6.048 h 1.248 v -6.544 c 0.464,-0.72 0.96,-1.008 1.472,-1.008 0.608,0 0.656,0.432 0.656,1.504 v 6.048 h 1.232 v -6.272 c 0,-1.936 -0.816,-2.336 -1.632,-2.336 z" />
    <path
       id="path271"
       style="font-style:normal;font-variant:normal;font-weight:normal;font-stretch:normal;font-size:16px;font-family:'Fira Mono';-inkscape-font-specification:'Fira Mono';stroke-width:1.13385832;stroke-miterlimit:4;stroke-dasharray:none;paint-order:markers fill stroke"
       d="m 514.20259,177.76385 c 0,-3.36 1.104,-5.056 3.408,-7.104 l -0.688,-0.736 c -2.608,2.128 -4.128,4.192 -4.128,7.84 0,3.648 1.52,5.712 4.128,7.84 l 0.688,-0.736 c -2.272,-2.032 -3.408,-3.76 -3.408,-7.104 z" />
    <path
       id="path273"
       style="font-style:normal;font-variant:normal;font-weight:normal;font-stretch:normal;font-size:16px;font-family:'Fira Mono';-inkscape-font-specification:'Fira Mono';stroke-width:1.13385832;stroke-miterlimit:4;stroke-dasharray:none;paint-order:markers fill stroke"
       d="m 524.86834,182.43585 c -0.992,0 -1.888,-0.368 -2.544,-0.912 l -0.752,0.88 c 0.72,0.624 1.76,1.136 3.296,1.136 1.792,0 3.536,-0.704 3.536,-2.512 0,-1.568 -1.088,-2.144 -2.736,-2.592 -1.696,-0.464 -2.224,-0.72 -2.224,-1.488 0,-0.64 0.48,-1.104 1.824,-1.104 1.088,0 1.808,0.336 2.432,0.768 l 0.608,-0.928 c -0.72,-0.512 -1.712,-0.928 -3.072,-0.928 -1.904,0 -3.2,0.896 -3.2,2.304 0,1.472 1.136,2 2.88,2.432 1.792,0.448 2.032,0.848 2.032,1.6 0,0.816 -0.784,1.344 -2.08,1.344 z" />
    <path
       id="path275"
       style="font-style:normal;font-variant:normal;font-weight:normal;font-stretch:normal;font-size:16px;font-family:'Fira Mono';-inkscape-font-specification:'Fira Mono';stroke-width:1.13385832;stroke-miterlimit:4;stroke-dasharray:none;paint-order:markers fill stroke"
       d="m 536.63809,171.37985 v 4.384 c -0.576,-0.656 -1.296,-1.008 -2.272,-1.008 -2.064,0 -3.296,1.872 -3.296,4.4 0,2.624 1.008,4.384 3.216,4.384 0.912,0 1.76,-0.4 2.384,-1.28 l 0.128,1.104 h 1.184 v -11.824 z m -1.92,4.464 c 0.784,0 1.456,0.4 1.92,1.088 v 4.192 c -0.464,0.704 -1.12,1.344 -2.08,1.344 -1.328,0 -2.032,-1.12 -2.032,-3.312 0,-2.224 0.8,-3.312 2.192,-3.312 z" />
    <path
       id="path277"
       style="font-style:normal;font-variant:normal;font-weight:normal;font-stretch:normal;font-size:16px;font-family:'Fira Mono';-inkscape-font-specification:'Fira Mono';stroke-width:1.13385832;stroke-miterlimit:4;stroke-dasharray:none;paint-order:markers fill stroke"
       d="m 557.07359,176.29185 h -6.208 v 1.152 h 6.208 z m 0,3.04 h -6.208 v 1.152 h 6.208 z" />
    <path
       id="path279"
       style="font-style:normal;font-variant:normal;font-weight:normal;font-stretch:normal;font-size:16px;font-family:'Fira Mono';-inkscape-font-specification:'Fira Mono';stroke-width:1.13385832;stroke-miterlimit:4;stroke-dasharray:none;paint-order:markers fill stroke"
       d="m 576.14909,172.33985 h -5.84 v 5.504 h 1.088 c 0.64,-0.224 1.072,-0.368 1.712,-0.368 1.12,0 2,0.592 2,2.352 0,1.712 -0.864,2.608 -2.32,2.608 -0.944,0 -1.696,-0.336 -2.368,-1.024 l -0.832,0.816 c 0.848,0.816 1.872,1.312 3.2,1.312 2.272,0 3.728,-1.456 3.728,-3.664 0,-2.208 -1.216,-3.456 -3.024,-3.456 -0.656,0 -1.232,0.112 -1.888,0.48 v -3.472 h 4.352 z" />
    <path
       id="path281"
       style="font-style:normal;font-variant:normal;font-weight:normal;font-stretch:normal;font-size:16px;font-family:'Fira Mono';-inkscape-font-specification:'Fira Mono';stroke-width:1.13385832;stroke-miterlimit:4;stroke-dasharray:none;paint-order:markers fill stroke"
       d="m 582.75084,180.72385 c -0.72,0 -1.28,0.576 -1.28,1.296 0,0.416 0.208,0.832 0.512,1.056 l -0.752,3.152 h 1.216 l 1.296,-2.96 c 0.224,-0.496 0.304,-0.864 0.304,-1.264 0,-0.704 -0.56,-1.28 -1.296,-1.28 z" />
    <path
       id="path283"
       style="font-style:normal;font-variant:normal;font-weight:normal;font-stretch:normal;font-size:16px;font-family:'Fira Mono';-inkscape-font-specification:'Fira Mono';stroke-width:1.13385832;stroke-miterlimit:4;stroke-dasharray:none;paint-order:markers fill stroke"
       d="m 598.73834,183.36385 h 1.344 v -6.128 c 0.448,-0.672 1.296,-1.408 2.288,-1.408 1.264,0 1.44,0.688 1.44,2.416 v 5.12 h 1.344 v -6.112 c 0,-1.568 -0.72,-2.496 -2.368,-2.496 -0.992,0 -2.112,0.496 -2.784,1.36 l -0.112,-1.184 h -1.152 z" />
    <path
       id="path285"
       style="font-style:normal;font-variant:normal;font-weight:normal;font-stretch:normal;font-size:16px;font-family:'Fira Mono';-inkscape-font-specification:'Fira Mono';stroke-width:1.13385832;stroke-miterlimit:4;stroke-dasharray:none;paint-order:markers fill stroke"
       d="m 624.22984,176.29185 h -6.208 v 1.152 h 6.208 z m 0,3.04 h -6.208 v 1.152 h 6.208 z" />
    <path
       id="path287"
       style="font-style:normal;font-variant:normal;font-weight:normal;font-stretch:normal;font-size:16px;font-family:'Fira Mono';-inkscape-font-specification:'Fira Mono';stroke-width:1.13385832;stroke-miterlimit:4;stroke-dasharray:none;paint-order:markers fill stroke"
       d="m 643.30534,172.33985 h -5.84 v 5.504 h 1.088 c 0.64,-0.224 1.072,-0.368 1.712,-0.368 1.12,0 2,0.592 2,2.352 0,1.712 -0.864,2.608 -2.32,2.608 -0.944,0 -1.696,-0.336 -2.368,-1.024 l -0.832,0.816 c 0.848,0.816 1.872,1.312 3.2,1.312 2.272,0 3.728,-1.456 3.728,-3.664 0,-2.208 -1.216,-3.456 -3.024,-3.456 -0.656,0 -1.232,0.112 -1.888,0.48 v -3.472 h 4.352 z" />
    <path
       id="path289"
       style="font-style:normal;font-variant:normal;font-weight:normal;font-stretch:normal;font-size:16px;font-family:'Fira Mono';-inkscape-font-specification:'Fira Mono';stroke-width:1.13385832;stroke-miterlimit:4;stroke-dasharray:none;paint-order:markers fill stroke"
       d="m 651.29909,177.76385 c 0,3.344 -1.136,5.072 -3.408,7.104 l 0.688,0.736 c 2.608,-2.128 4.128,-4.192 4.128,-7.84 0,-3.648 -1.52,-5.712 -4.128,-7.84 l -0.688,0.736 c 2.304,2.048 3.408,3.744 3.408,7.104 z" />
  </g>
  <rect
     ry="0"
     rx="0"
     y="92.703865"
     x="390.66522"
     height="21.931952"
     width="335.80566"
     id="rect1843"
     style="fill:#d6d6d6;fill-opacity:1;stroke:#000000;stroke-width:1.13404763;stroke-miterlimit:4;stroke-dasharray:none;paint-order:markers fill stroke" />
  <g
     id="text1847"
     style="font-style:normal;font-weight:normal;font-size:40px;line-height:1.25;font-family:sans-serif;letter-spacing:0px;word-spacing:0px;fill:#000000;fill-opacity:1;stroke:none;stroke-width:1.13385832;stroke-miterlimit:4;stroke-dasharray:none;paint-order:markers fill stroke"
     aria-label="runif(min = -1, max = 1, n = 5)">
    <path
       id="path292"
       style="font-style:normal;font-variant:normal;font-weight:normal;font-stretch:normal;font-size:16px;font-family:'Fira Mono';-inkscape-font-specification:'Fira Mono';stroke-width:1.13385832;stroke-miterlimit:4;stroke-dasharray:none;paint-order:markers fill stroke"
       d="m 417.32499,100.17455 c -1.52,0 -2.384,0.8 -3.024,2.176 l -0.256,-2 h -2.336 v 1.04 h 1.328 v 6.352 h -1.328 v 1.04 h 4.384 v -1.04 h -1.712 v -3.552 c 0.544,-1.856 1.472,-2.784 2.768,-2.784 h 0.08 v 1.808 h 1.088 l 0.192,-2.864 c -0.368,-0.096 -0.72,-0.176 -1.184,-0.176 z" />
    <path
       id="path294"
       style="font-style:normal;font-variant:normal;font-weight:normal;font-stretch:normal;font-size:16px;font-family:'Fira Mono';-inkscape-font-specification:'Fira Mono';stroke-width:1.13385832;stroke-miterlimit:4;stroke-dasharray:none;paint-order:markers fill stroke"
       d="m 422.56674,100.35055 h -1.344 v 6.128 c 0,1.568 0.8,2.48 2.432,2.48 0.992,0 2.032,-0.464 2.704,-1.312 l 0.112,1.136 h 1.152 v -8.432 h -1.344 v 6.208 c -0.464,0.72 -1.36,1.344 -2.288,1.344 -0.976,0 -1.424,-0.48 -1.424,-1.568 z" />
    <path
       id="path296"
       style="font-style:normal;font-variant:normal;font-weight:normal;font-stretch:normal;font-size:16px;font-family:'Fira Mono';-inkscape-font-specification:'Fira Mono';stroke-width:1.13385832;stroke-miterlimit:4;stroke-dasharray:none;paint-order:markers fill stroke"
       d="m 430.81649,108.78255 h 1.344 v -6.128 c 0.448,-0.672 1.296,-1.408 2.288,-1.408 1.264,0 1.44,0.688 1.44,2.416 v 5.12 h 1.344 v -6.112 c 0,-1.568 -0.72,-2.496 -2.368,-2.496 -0.992,0 -2.112,0.496 -2.784,1.36 l -0.112,-1.184 h -1.152 z" />
    <path
       id="path298"
       style="font-style:normal;font-variant:normal;font-weight:normal;font-stretch:normal;font-size:16px;font-family:'Fira Mono';-inkscape-font-specification:'Fira Mono';stroke-width:1.13385832;stroke-miterlimit:4;stroke-dasharray:none;paint-order:markers fill stroke"
       d="m 443.61024,96.414547 c -0.576,0 -0.96,0.4 -0.96,0.944 0,0.544 0.384,0.944 0.96,0.944 0.592,0 0.992,-0.4 0.992,-0.944 0,-0.544 -0.4,-0.944 -0.992,-0.944 z m 1.072,3.936003 h -3.856 v 1.072 h 2.512 v 6.288 h -2.592 v 1.072 h 6.304 v -1.072 h -2.368 z" />
    <path
       id="path300"
       style="font-style:normal;font-variant:normal;font-weight:normal;font-stretch:normal;font-size:16px;font-family:'Fira Mono';-inkscape-font-specification:'Fira Mono';stroke-width:1.13385832;stroke-miterlimit:4;stroke-dasharray:none;paint-order:markers fill stroke"
       d="m 454.97999,96.798547 c -1.744,0 -3.072,0.976 -3.072,2.528 v 1.680003 h -2 v 1.072 h 2 v 6.704 h 1.36 v -6.704 h 2.704 l 0.144,-1.072 h -2.848 v -1.712003 c 0,-0.928 0.592,-1.392 1.76,-1.392 0.64,0 1.264,0.112 1.808,0.352 l 0.432,-1.008 c -0.656,-0.272 -1.376,-0.448 -2.288,-0.448 z" />
    <path
       id="path302"
       style="font-style:normal;font-variant:normal;font-weight:normal;font-stretch:normal;font-size:16px;font-family:'Fira Mono';-inkscape-font-specification:'Fira Mono';stroke-width:1.13385832;stroke-miterlimit:4;stroke-dasharray:none;paint-order:markers fill stroke"
       d="m 461.40574,103.18255 c 0,-3.360003 1.104,-5.056003 3.408,-7.104003 l -0.688,-0.736 c -2.608,2.128 -4.128,4.192 -4.128,7.840003 0,3.648 1.52,5.712 4.128,7.84 l 0.688,-0.736 c -2.272,-2.032 -3.408,-3.76 -3.408,-7.104 z" />
    <path
       id="path304"
       style="font-style:normal;font-variant:normal;font-weight:normal;font-stretch:normal;font-size:16px;font-family:'Fira Mono';-inkscape-font-specification:'Fira Mono';stroke-width:1.13385832;stroke-miterlimit:4;stroke-dasharray:none;paint-order:markers fill stroke"
       d="m 474.74349,100.17455 c -0.848,0 -1.392,0.448 -1.856,1.12 -0.256,-0.864 -0.88,-1.12 -1.52,-1.12 -0.848,0 -1.376,0.512 -1.824,1.168 l -0.096,-0.992 h -1.04 v 8.432 h 1.232 v -6.544 c 0.464,-0.72 0.944,-1.008 1.472,-1.008 0.608,0 0.656,0.432 0.656,1.504 v 6.048 h 1.248 v -6.544 c 0.464,-0.72 0.96,-1.008 1.472,-1.008 0.608,0 0.656,0.432 0.656,1.504 v 6.048 h 1.232 v -6.272 c 0,-1.936 -0.816,-2.336 -1.632,-2.336 z" />
    <path
       id="path306"
       style="font-style:normal;font-variant:normal;font-weight:normal;font-stretch:normal;font-size:16px;font-family:'Fira Mono';-inkscape-font-specification:'Fira Mono';stroke-width:1.13385832;stroke-miterlimit:4;stroke-dasharray:none;paint-order:markers fill stroke"
       d="m 481.98524,96.414547 c -0.576,0 -0.96,0.4 -0.96,0.944 0,0.544 0.384,0.944 0.96,0.944 0.592,0 0.992,-0.4 0.992,-0.944 0,-0.544 -0.4,-0.944 -0.992,-0.944 z m 1.072,3.936003 h -3.856 v 1.072 h 2.512 v 6.288 h -2.592 v 1.072 h 6.304 v -1.072 h -2.368 z" />
    <path
       id="path308"
       style="font-style:normal;font-variant:normal;font-weight:normal;font-stretch:normal;font-size:16px;font-family:'Fira Mono';-inkscape-font-specification:'Fira Mono';stroke-width:1.13385832;stroke-miterlimit:4;stroke-dasharray:none;paint-order:markers fill stroke"
       d="m 488.37899,108.78255 h 1.344 v -6.128 c 0.448,-0.672 1.296,-1.408 2.288,-1.408 1.264,0 1.44,0.688 1.44,2.416 v 5.12 h 1.344 v -6.112 c 0,-1.568 -0.72,-2.496 -2.368,-2.496 -0.992,0 -2.112,0.496 -2.784,1.36 l -0.112,-1.184 h -1.152 z" />
    <path
       id="path310"
       style="font-style:normal;font-variant:normal;font-weight:normal;font-stretch:normal;font-size:16px;font-family:'Fira Mono';-inkscape-font-specification:'Fira Mono';stroke-width:1.13385832;stroke-miterlimit:4;stroke-dasharray:none;paint-order:markers fill stroke"
       d="m 513.87049,101.71055 h -6.208 v 1.152 h 6.208 z m 0,3.04 h -6.208 v 1.152 h 6.208 z" />
    <path
       id="path312"
       style="font-style:normal;font-variant:normal;font-weight:normal;font-stretch:normal;font-size:16px;font-family:'Fira Mono';-inkscape-font-specification:'Fira Mono';stroke-width:1.13385832;stroke-miterlimit:4;stroke-dasharray:none;paint-order:markers fill stroke"
       d="m 527.15399,104.35055 h 5.6 v -1.152 h -5.6 z" />
    <path
       id="path314"
       style="font-style:normal;font-variant:normal;font-weight:normal;font-stretch:normal;font-size:16px;font-family:'Fira Mono';-inkscape-font-specification:'Fira Mono';stroke-width:1.13385832;stroke-miterlimit:4;stroke-dasharray:none;paint-order:markers fill stroke"
       d="m 540.73174,107.69455 v -9.936003 h -1.184 l -3.28,2.048 0.592,0.944003 2.512,-1.520003 v 8.464003 h -2.704 v 1.088 h 6.352 v -1.088 z" />
    <path
       id="path316"
       style="font-style:normal;font-variant:normal;font-weight:normal;font-stretch:normal;font-size:16px;font-family:'Fira Mono';-inkscape-font-specification:'Fira Mono';stroke-width:1.13385832;stroke-miterlimit:4;stroke-dasharray:none;paint-order:markers fill stroke"
       d="m 549.14149,106.14255 c -0.72,0 -1.28,0.576 -1.28,1.296 0,0.416 0.208,0.832 0.512,1.056 l -0.752,3.152 h 1.216 l 1.296,-2.96 c 0.224,-0.496 0.304,-0.864 0.304,-1.264 0,-0.704 -0.56,-1.28 -1.296,-1.28 z" />
    <path
       id="path318"
       style="font-style:normal;font-variant:normal;font-weight:normal;font-stretch:normal;font-size:16px;font-family:'Fira Mono';-inkscape-font-specification:'Fira Mono';stroke-width:1.13385832;stroke-miterlimit:4;stroke-dasharray:none;paint-order:markers fill stroke"
       d="m 570.68099,100.17455 c -0.848,0 -1.392,0.448 -1.856,1.12 -0.256,-0.864 -0.88,-1.12 -1.52,-1.12 -0.848,0 -1.376,0.512 -1.824,1.168 l -0.096,-0.992 h -1.04 v 8.432 h 1.232 v -6.544 c 0.464,-0.72 0.944,-1.008 1.472,-1.008 0.608,0 0.656,0.432 0.656,1.504 v 6.048 h 1.248 v -6.544 c 0.464,-0.72 0.96,-1.008 1.472,-1.008 0.608,0 0.656,0.432 0.656,1.504 v 6.048 h 1.232 v -6.272 c 0,-1.936 -0.816,-2.336 -1.632,-2.336 z" />
    <path
       id="path320"
       style="font-style:normal;font-variant:normal;font-weight:normal;font-stretch:normal;font-size:16px;font-family:'Fira Mono';-inkscape-font-specification:'Fira Mono';stroke-width:1.13385832;stroke-miterlimit:4;stroke-dasharray:none;paint-order:markers fill stroke"
       d="m 580.77074,106.94255 v -4.048 c 0,-1.664 -1.056,-2.72 -3.152,-2.72 -0.832,0 -1.728,0.16 -2.768,0.528 l 0.368,1.024 c 0.864,-0.304 1.632,-0.432 2.192,-0.432 1.248,0 2,0.448 2,1.68 v 0.688 h -1.248 c -2.544,0 -3.936,0.976 -3.936,2.704 0,1.568 1.024,2.592 2.72,2.592 1.088,0 2.032,-0.4 2.64,-1.184 0.224,0.768 0.816,1.104 1.536,1.2 l 0.336,-0.96 c -0.48,-0.144 -0.688,-0.4 -0.688,-1.072 z m -3.488,1.008 c -1.104,0 -1.616,-0.544 -1.616,-1.6 0,-1.088 0.672,-1.76 2.528,-1.76 h 1.216 v 2.16 c -0.496,0.752 -1.296,1.2 -2.128,1.2 z" />
    <path
       id="path322"
       style="font-style:normal;font-variant:normal;font-weight:normal;font-stretch:normal;font-size:16px;font-family:'Fira Mono';-inkscape-font-specification:'Fira Mono';stroke-width:1.13385832;stroke-miterlimit:4;stroke-dasharray:none;paint-order:markers fill stroke"
       d="m 585.14849,108.78255 2.32,-3.616 2.32,3.616 h 1.632 l -3.104,-4.512 2.736,-3.92 h -1.552 l -1.968,3.136 -1.952,-3.136 h -1.6 l 2.736,3.984 -3.104,4.448 z" />
    <path
       id="path324"
       style="font-style:normal;font-variant:normal;font-weight:normal;font-stretch:normal;font-size:16px;font-family:'Fira Mono';-inkscape-font-specification:'Fira Mono';stroke-width:1.13385832;stroke-miterlimit:4;stroke-dasharray:none;paint-order:markers fill stroke"
       d="m 609.80799,101.71055 h -6.208 v 1.152 h 6.208 z m 0,3.04 h -6.208 v 1.152 h 6.208 z" />
    <path
       id="path326"
       style="font-style:normal;font-variant:normal;font-weight:normal;font-stretch:normal;font-size:16px;font-family:'Fira Mono';-inkscape-font-specification:'Fira Mono';stroke-width:1.13385832;stroke-miterlimit:4;stroke-dasharray:none;paint-order:markers fill stroke"
       d="m 627.07549,107.69455 v -9.936003 h -1.184 l -3.28,2.048 0.592,0.944003 2.512,-1.520003 v 8.464003 h -2.704 v 1.088 h 6.352 v -1.088 z" />
    <path
       id="path328"
       style="font-style:normal;font-variant:normal;font-weight:normal;font-stretch:normal;font-size:16px;font-family:'Fira Mono';-inkscape-font-specification:'Fira Mono';stroke-width:1.13385832;stroke-miterlimit:4;stroke-dasharray:none;paint-order:markers fill stroke"
       d="m 635.48524,106.14255 c -0.72,0 -1.28,0.576 -1.28,1.296 0,0.416 0.208,0.832 0.512,1.056 l -0.752,3.152 h 1.216 l 1.296,-2.96 c 0.224,-0.496 0.304,-0.864 0.304,-1.264 0,-0.704 -0.56,-1.28 -1.296,-1.28 z" />
    <path
       id="path330"
       style="font-style:normal;font-variant:normal;font-weight:normal;font-stretch:normal;font-size:16px;font-family:'Fira Mono';-inkscape-font-specification:'Fira Mono';stroke-width:1.13385832;stroke-miterlimit:4;stroke-dasharray:none;paint-order:markers fill stroke"
       d="m 651.47274,108.78255 h 1.344 v -6.128 c 0.448,-0.672 1.296,-1.408 2.288,-1.408 1.264,0 1.44,0.688 1.44,2.416 v 5.12 h 1.344 v -6.112 c 0,-1.568 -0.72,-2.496 -2.368,-2.496 -0.992,0 -2.112,0.496 -2.784,1.36 l -0.112,-1.184 h -1.152 z" />
    <path
       id="path332"
       style="font-style:normal;font-variant:normal;font-weight:normal;font-stretch:normal;font-size:16px;font-family:'Fira Mono';-inkscape-font-specification:'Fira Mono';stroke-width:1.13385832;stroke-miterlimit:4;stroke-dasharray:none;paint-order:markers fill stroke"
       d="m 676.96424,101.71055 h -6.208 v 1.152 h 6.208 z m 0,3.04 h -6.208 v 1.152 h 6.208 z" />
    <path
       id="path334"
       style="font-style:normal;font-variant:normal;font-weight:normal;font-stretch:normal;font-size:16px;font-family:'Fira Mono';-inkscape-font-specification:'Fira Mono';stroke-width:1.13385832;stroke-miterlimit:4;stroke-dasharray:none;paint-order:markers fill stroke"
       d="m 696.03974,97.758547 h -5.84 v 5.504003 h 1.088 c 0.64,-0.224 1.072,-0.368 1.712,-0.368 1.12,0 2,0.592 2,2.352 0,1.712 -0.864,2.608 -2.32,2.608 -0.944,0 -1.696,-0.336 -2.368,-1.024 l -0.832,0.816 c 0.848,0.816 1.872,1.312 3.2,1.312 2.272,0 3.728,-1.456 3.728,-3.664 0,-2.208 -1.216,-3.456 -3.024,-3.456 -0.656,0 -1.232,0.112 -1.888,0.48 v -3.472003 h 4.352 z" />
    <path
       id="path336"
       style="font-style:normal;font-variant:normal;font-weight:normal;font-stretch:normal;font-size:16px;font-family:'Fira Mono';-inkscape-font-specification:'Fira Mono';stroke-width:1.13385832;stroke-miterlimit:4;stroke-dasharray:none;paint-order:markers fill stroke"
       d="m 704.03349,103.18255 c 0,3.344 -1.136,5.072 -3.408,7.104 l 0.688,0.736 c 2.608,-2.128 4.128,-4.192 4.128,-7.84 0,-3.648003 -1.52,-5.712003 -4.128,-7.840003 l -0.688,0.736 c 2.304,2.048 3.408,3.744 3.408,7.104003 z" />
  </g>
</svg>
