<?xml version="1.0" encoding="UTF-8" standalone="no"?>
<svg
   xmlns:dc="http://purl.org/dc/elements/1.1/"
   xmlns:cc="http://creativecommons.org/ns#"
   xmlns:rdf="http://www.w3.org/1999/02/22-rdf-syntax-ns#"
   xmlns:svg="http://www.w3.org/2000/svg"
   xmlns="http://www.w3.org/2000/svg"
   width="81.331429mm"
   height="45.027538mm"
   viewBox="0 0 288.18223 159.54639"
   id="svg2"
   version="1.1">
  <defs
     id="defs4" />
  <metadata
     id="metadata7">
    <rdf:RDF>
      <cc:Work
         rdf:about="">
        <dc:format>image/svg+xml</dc:format>
        <dc:type
           rdf:resource="http://purl.org/dc/dcmitype/StillImage" />
        <dc:title />
      </cc:Work>
    </rdf:RDF>
  </metadata>
  <g
     transform="translate(-295.26381,-241.05395)"
     id="layer1" />
  <g
     transform="translate(-237.5137,-122.30471)"
     id="g4643">
    <g
       transform="translate(-9.3454988e-6)"
       id="g141">
      <path
         id="rect4786"
         d="m 464.76895,151.02718 h 16.92522 v 43.11299 h -16.92522 z"
         style="fill:none;fill-opacity:1;stroke:#666666;stroke-width:1.0629921;stroke-miterlimit:4;stroke-dasharray:none" />
      <path
         id="rect4788"
         d="m 481.57065,151.02718 h 25.87726 v 43.11299 h -25.87726 z"
         style="fill:none;fill-opacity:1;stroke:#666666;stroke-width:1.0629921;stroke-miterlimit:4;stroke-dasharray:none" />
      <path
         id="rect4646"
         d="m 464.76895,193.90254 h 16.92522 v 17.42513 h -16.92522 z"
         style="fill:#8fd091;fill-opacity:1;stroke:#000000;stroke-width:1.0629921;stroke-miterlimit:4;stroke-dasharray:none" />
      <path
         id="rect4648"
         d="m 481.57065,193.90254 h 25.87726 v 17.42513 h -25.87726 z"
         style="fill:#cccccc;fill-opacity:1;stroke:#000000;stroke-width:1.0629921;stroke-miterlimit:4;stroke-dasharray:none" />
      <path
         id="rect4650"
         d="m 464.76895,211.32767 h 16.92522 v 17.42513 h -16.92522 z"
         style="fill:#cabddc;fill-opacity:1;stroke:#000000;stroke-width:1.0629921;stroke-miterlimit:4;stroke-dasharray:none" />
      <path
         id="rect4652"
         d="m 464.76895,228.75281 h 16.92522 v 17.42513 h -16.92522 z"
         style="fill:#cabddc;fill-opacity:1;stroke:#000000;stroke-width:1.0629921;stroke-miterlimit:4;stroke-dasharray:none" />
      <path
         id="rect4654"
         d="m 464.76895,246.17793 h 16.92522 v 17.42513 h -16.92522 z"
         style="fill:#fecb98;fill-opacity:1;stroke:#000000;stroke-width:1.0629921;stroke-miterlimit:4;stroke-dasharray:none" />
      <path
         id="rect4656"
         d="m 481.57065,211.32767 h 25.87726 v 17.42513 h -25.87726 z"
         style="fill:#cccccc;fill-opacity:1;stroke:#000000;stroke-width:1.0629921;stroke-miterlimit:4;stroke-dasharray:none" />
      <path
         id="rect4658"
         d="m 481.57065,228.75281 h 25.87726 v 17.42513 h -25.87726 z"
         style="fill:#cccccc;fill-opacity:1;stroke:#000000;stroke-width:1.0629921;stroke-miterlimit:4;stroke-dasharray:none" />
      <path
         id="rect4660"
         d="m 481.57065,246.17793 h 25.87726 v 17.42513 h -25.87726 z"
         style="fill:#cccccc;fill-opacity:1;stroke:#000000;stroke-width:1.0629921;stroke-miterlimit:4;stroke-dasharray:none" />
      <g
         id="text4662"
         style="font-style:normal;font-weight:normal;line-height:0%;font-family:sans-serif;letter-spacing:0px;word-spacing:0px;fill:#000000;fill-opacity:1;stroke:none;stroke-width:1px;stroke-linecap:butt;stroke-linejoin:miter;stroke-opacity:1"
         aria-label="x1">
        <path
           id="path119"
           style="font-style:normal;font-variant:normal;font-weight:normal;font-stretch:normal;font-size:12.5px;line-height:1.25;font-family:'Fira Sans';-inkscape-font-specification:'Fira Sans'"
           d="m 492.77134,203.55483 2.025,-3.0625 h -1.3 l -1.3875,2.4125 -1.375,-2.4125 h -1.35 l 2.0375,3.1125 -2.3,3.475 h 1.3 l 1.6375,-2.7875 1.6125,2.7875 h 1.3875 z" />
        <path
           id="path121"
           style="font-style:normal;font-variant:normal;font-weight:normal;font-stretch:normal;font-size:12.5px;line-height:1.25;font-family:'Fira Sans';-inkscape-font-specification:'Fira Sans'"
           d="m 498.95571,198.71733 h -1.0125 l -2.5875,1.6 0.5,0.8125 1.95,-1.1875 v 7.1375 h 1.15 z" />
      </g>
      <g
         id="text4666"
         style="font-style:normal;font-weight:normal;line-height:0%;font-family:sans-serif;letter-spacing:0px;word-spacing:0px;fill:#000000;fill-opacity:1;stroke:none;stroke-width:1px;stroke-linecap:butt;stroke-linejoin:miter;stroke-opacity:1"
         aria-label="1">
        <path
           id="path124"
           style="font-style:normal;font-variant:normal;font-weight:normal;font-stretch:normal;font-size:12.5px;line-height:1.25;font-family:'Fira Sans';-inkscape-font-specification:'Fira Sans'"
           d="m 474.52554,198.71733 h -1.0125 l -2.5875,1.6 0.5,0.8125 1.95,-1.1875 v 7.1375 h 1.15 z" />
      </g>
      <g
         id="text4670"
         style="font-style:normal;font-weight:normal;line-height:0%;font-family:sans-serif;letter-spacing:0px;word-spacing:0px;fill:#000000;fill-opacity:1;stroke:none;stroke-width:1px;stroke-linecap:butt;stroke-linejoin:miter;stroke-opacity:1"
         aria-label="x2">
        <path
           id="path127"
           style="font-style:normal;font-variant:normal;font-weight:normal;font-stretch:normal;font-size:12.5px;line-height:1.25;font-family:'Fira Sans';-inkscape-font-specification:'Fira Sans'"
           d="m 492.77134,220.97996 2.025,-3.0625 h -1.3 l -1.3875,2.4125 -1.375,-2.4125 h -1.35 l 2.0375,3.1125 -2.3,3.475 h 1.3 l 1.6375,-2.7875 1.6125,2.7875 h 1.3875 z" />
        <path
           id="path129"
           style="font-style:normal;font-variant:normal;font-weight:normal;font-stretch:normal;font-size:12.5px;line-height:1.25;font-family:'Fira Sans';-inkscape-font-specification:'Fira Sans'"
           d="m 497.96353,216.01746 c -1.05,0 -1.8625,0.425 -2.5375,1.2625 l 0.75,0.6 c 0.5625,-0.6375 1.025,-0.9125 1.725,-0.9125 0.8125,0 1.375,0.5125 1.375,1.3875 0,1.3625 -0.725,2.1625 -3.675,5.2375 v 0.9125 h 4.9375 l 0.1375,-0.9625 h -3.7625 c 2.5625,-2.5625 3.5625,-3.675 3.5625,-5.2375 0,-1.3 -0.975,-2.2875 -2.5125,-2.2875 z" />
      </g>
      <g
         id="text4674"
         style="font-style:normal;font-weight:normal;line-height:0%;font-family:sans-serif;letter-spacing:0px;word-spacing:0px;fill:#000000;fill-opacity:1;stroke:none;stroke-width:1px;stroke-linecap:butt;stroke-linejoin:miter;stroke-opacity:1"
         aria-label="2">
        <path
           id="path132"
           style="font-style:normal;font-variant:normal;font-weight:normal;font-stretch:normal;font-size:12.5px;line-height:1.25;font-family:'Fira Sans';-inkscape-font-specification:'Fira Sans'"
           d="m 472.51711,216.05713 c -1.05,0 -1.8625,0.425 -2.5375,1.2625 l 0.75,0.6 c 0.5625,-0.6375 1.025,-0.9125 1.725,-0.9125 0.8125,0 1.375,0.5125 1.375,1.3875 0,1.3625 -0.725,2.1625 -3.675,5.2375 v 0.9125 h 4.9375 l 0.1375,-0.9625 h -3.7625 c 2.5625,-2.5625 3.5625,-3.675 3.5625,-5.2375 0,-1.3 -0.975,-2.2875 -2.5125,-2.2875 z" />
      </g>
      <g
         id="text4678"
         style="font-style:normal;font-weight:normal;line-height:0%;font-family:sans-serif;letter-spacing:0px;word-spacing:0px;fill:#000000;fill-opacity:1;stroke:none;stroke-width:1px;stroke-linecap:butt;stroke-linejoin:miter;stroke-opacity:1"
         aria-label="x3">
        <path
           id="path135"
           style="font-style:normal;font-variant:normal;font-weight:normal;font-stretch:normal;font-size:12.5px;line-height:1.25;font-family:'Fira Sans';-inkscape-font-specification:'Fira Sans'"
           d="m 492.77134,238.4051 2.025,-3.0625 h -1.3 l -1.3875,2.4125 -1.375,-2.4125 h -1.35 l 2.0375,3.1125 -2.3,3.475 h 1.3 l 1.6375,-2.7875 1.6125,2.7875 h 1.3875 z" />
        <path
           id="path137"
           style="font-style:normal;font-variant:normal;font-weight:normal;font-stretch:normal;font-size:12.5px;line-height:1.25;font-family:'Fira Sans';-inkscape-font-specification:'Fira Sans'"
           d="m 497.92603,233.4426 c -0.9,0 -1.675,0.325 -2.3875,0.9875 l 0.6,0.6875 c 0.5625,-0.525 1.0625,-0.75 1.725,-0.75 0.8375,0 1.3875,0.4875 1.3875,1.275 0,0.975 -0.6875,1.475 -1.5125,1.475 h -0.425 l -0.1375,0.8875 h 0.625 c 1.0125,0 1.6625,0.35 1.6625,1.5 0,0.9875 -0.6375,1.6375 -1.6875,1.6375 -0.675,0 -1.2375,-0.25 -1.7875,-0.825 l -0.6875,0.6375 c 0.6375,0.7625 1.5125,1.125 2.5125,1.125 1.7375,0 2.85,-1.1 2.85,-2.5625 0,-1.2625 -0.8375,-1.925 -1.8875,-2.025 0.9375,-0.225 1.625,-0.8625 1.625,-1.925 0,-1.125 -0.875,-2.125 -2.475,-2.125 z" />
      </g>
      <g
         id="text4682"
         style="font-style:normal;font-weight:normal;line-height:0%;font-family:sans-serif;letter-spacing:0px;word-spacing:0px;fill:#000000;fill-opacity:1;stroke:none;stroke-width:1px;stroke-linecap:butt;stroke-linejoin:miter;stroke-opacity:1"
         aria-label="2">
        <path
           id="path140"
           style="font-style:normal;font-variant:normal;font-weight:normal;font-stretch:normal;font-size:12.5px;line-height:1.25;font-family:'Fira Sans';-inkscape-font-specification:'Fira Sans'"
           d="m 472.51711,233.48227 c -1.05,0 -1.8625,0.425 -2.5375,1.2625 l 0.75,0.6 c 0.5625,-0.6375 1.025,-0.9125 1.725,-0.9125 0.8125,0 1.375,0.5125 1.375,1.3875 0,1.3625 -0.725,2.1625 -3.675,5.2375 v 0.9125 h 4.9375 l 0.1375,-0.9625 h -3.7625 c 2.5625,-2.5625 3.5625,-3.675 3.5625,-5.2375 0,-1.3 -0.975,-2.2875 -2.5125,-2.2875 z" />
      </g>
      <g
         id="text4686"
         style="font-style:normal;font-weight:normal;line-height:0%;font-family:sans-serif;letter-spacing:0px;word-spacing:0px;fill:#000000;fill-opacity:1;stroke:none;stroke-width:1px;stroke-linecap:butt;stroke-linejoin:miter;stroke-opacity:1"
         aria-label="x4">
        <path
           id="path143"
           style="font-style:normal;font-variant:normal;font-weight:normal;font-stretch:normal;font-size:12.5px;line-height:1.25;font-family:'Fira Sans';-inkscape-font-specification:'Fira Sans'"
           d="m 492.77134,255.83022 2.025,-3.0625 h -1.3 l -1.3875,2.4125 -1.375,-2.4125 h -1.35 l 2.0375,3.1125 -2.3,3.475 h 1.3 l 1.6375,-2.7875 1.6125,2.7875 h 1.3875 z" />
        <path
           id="path145"
           style="font-style:normal;font-variant:normal;font-weight:normal;font-stretch:normal;font-size:12.5px;line-height:1.25;font-family:'Fira Sans';-inkscape-font-specification:'Fira Sans'"
           d="m 501.19321,256.38022 h -1.0875 v -2.25 h -1 l -0.1,2.25 h -2.375 l 2.2625,-5.1125 -0.9625,-0.4 -2.5125,5.6 v 0.825 h 3.575 v 2.0625 h 1.1125 v -2.0625 h 1.0875 z" />
      </g>
      <g
         id="text4690"
         style="font-style:normal;font-weight:normal;line-height:0%;font-family:sans-serif;letter-spacing:0px;word-spacing:0px;fill:#000000;fill-opacity:1;stroke:none;stroke-width:1px;stroke-linecap:butt;stroke-linejoin:miter;stroke-opacity:1"
         aria-label="3">
        <path
           id="path148"
           style="font-style:normal;font-variant:normal;font-weight:normal;font-stretch:normal;font-size:12.5px;line-height:1.25;font-family:'Fira Sans';-inkscape-font-specification:'Fira Sans'"
           d="m 472.65356,250.84636 c -0.9,0 -1.675,0.325 -2.3875,0.9875 l 0.6,0.6875 c 0.5625,-0.525 1.0625,-0.75 1.725,-0.75 0.8375,0 1.3875,0.4875 1.3875,1.275 0,0.975 -0.6875,1.475 -1.5125,1.475 h -0.425 l -0.1375,0.8875 h 0.625 c 1.0125,0 1.6625,0.35 1.6625,1.5 0,0.9875 -0.6375,1.6375 -1.6875,1.6375 -0.675,0 -1.2375,-0.25 -1.7875,-0.825 l -0.6875,0.6375 c 0.6375,0.7625 1.5125,1.125 2.5125,1.125 1.7375,0 2.85,-1.1 2.85,-2.5625 0,-1.2625 -0.8375,-1.925 -1.8875,-2.025 0.9375,-0.225 1.625,-0.8625 1.625,-1.925 0,-1.125 -0.875,-2.125 -2.475,-2.125 z" />
      </g>
      <g
         id="text4790"
         style="font-style:normal;font-weight:normal;line-height:0%;font-family:sans-serif;letter-spacing:0px;word-spacing:0px;fill:#000000;fill-opacity:1;stroke:none;stroke-width:1px;stroke-linecap:butt;stroke-linejoin:miter;stroke-opacity:1"
         transform="rotate(-90)"
         aria-label="llave">
        <path
           id="path151"
           style="font-style:normal;font-variant:normal;font-weight:normal;font-stretch:normal;font-size:12.5px;line-height:1.25;font-family:'Fira Sans';-inkscape-font-specification:'Fira Sans'"
           d="m -183.8624,476.68351 c 0.3375,0 0.6625,-0.0875 0.9125,-0.225 l -0.3,-0.8 c -0.125,0.05 -0.2625,0.075 -0.425,0.075 -0.3,0 -0.4125,-0.175 -0.4125,-0.525 v -8.05 l -1.15,0.1375 v 7.9375 c 0,0.9375 0.5375,1.45 1.375,1.45 z" />
        <path
           id="path153"
           style="font-style:normal;font-variant:normal;font-weight:normal;font-stretch:normal;font-size:12.5px;line-height:1.25;font-family:'Fira Sans';-inkscape-font-specification:'Fira Sans'"
           d="m -180.20029,476.68351 c 0.3375,0 0.6625,-0.0875 0.9125,-0.225 l -0.3,-0.8 c -0.125,0.05 -0.2625,0.075 -0.425,0.075 -0.3,0 -0.4125,-0.175 -0.4125,-0.525 v -8.05 l -1.15,0.1375 v 7.9375 c 0,0.9375 0.5375,1.45 1.375,1.45 z" />
        <path
           id="path155"
           style="font-style:normal;font-variant:normal;font-weight:normal;font-stretch:normal;font-size:12.5px;line-height:1.25;font-family:'Fira Sans';-inkscape-font-specification:'Fira Sans'"
           d="m -173.48642,474.99601 v -3.0125 c 0,-1.375 -0.725,-2.1875 -2.3125,-2.1875 -0.7375,0 -1.4625,0.15 -2.275,0.45 l 0.2875,0.8375 c 0.675,-0.225 1.2875,-0.35 1.775,-0.35 0.9125,0 1.375,0.35 1.375,1.3 v 0.4875 h -1.0125 c -1.8375,0 -2.9,0.7625 -2.9,2.175 0,1.175 0.7875,1.9875 2.1,1.9875 0.8,0 1.5,-0.3 1.9625,-0.9875 0.2,0.65 0.625,0.9125 1.2875,0.9875 l 0.2625,-0.8 c -0.3375,-0.125 -0.55,-0.3125 -0.55,-0.8875 z m -2.7,0.825 c -0.75,0 -1.1375,-0.4125 -1.1375,-1.1875 0,-0.9 0.6125,-1.35 1.825,-1.35 h 0.8625 v 1.5125 c -0.375,0.6875 -0.875,1.025 -1.55,1.025 z" />
        <path
           id="path157"
           style="font-style:normal;font-variant:normal;font-weight:normal;font-stretch:normal;font-size:12.5px;line-height:1.25;font-family:'Fira Sans';-inkscape-font-specification:'Fira Sans'"
           d="m -166.47021,469.94601 h -1.2125 l -1.7125,5.5625 -1.725,-5.5625 h -1.25 l 2.275,6.5875 h 1.3875 z" />
        <path
           id="path159"
           style="font-style:normal;font-variant:normal;font-weight:normal;font-stretch:normal;font-size:12.5px;line-height:1.25;font-family:'Fira Sans';-inkscape-font-specification:'Fira Sans'"
           d="m -160.22919,473.04601 c 0,-2.0125 -0.9375,-3.25 -2.7125,-3.25 -1.7,0 -2.7375,1.4625 -2.7375,3.5125 0,2.0875 1.075,3.375 2.9125,3.375 0.9125,0 1.65,-0.3125 2.3,-0.825 l -0.5,-0.6875 c -0.575,0.4 -1.0625,0.575 -1.7125,0.575 -0.95,0 -1.6625,-0.5875 -1.775,-2.1125 h 4.2 c 0.0125,-0.15 0.025,-0.3625 0.025,-0.5875 z m -1.1375,-0.2625 h -3.0875 c 0.0875,-1.4625 0.6625,-2.075 1.5375,-2.075 1.0375,0 1.55,0.7125 1.55,2 z" />
      </g>
      <g
         id="text4794"
         style="font-style:normal;font-weight:normal;line-height:0%;font-family:sans-serif;letter-spacing:0px;word-spacing:0px;fill:#000000;fill-opacity:1;stroke:none;stroke-width:1px;stroke-linecap:butt;stroke-linejoin:miter;stroke-opacity:1"
         transform="rotate(-90)"
         aria-label="val_x">
        <path
           id="path162"
           style="font-style:normal;font-variant:normal;font-weight:normal;font-stretch:normal;font-size:12.5px;line-height:1.25;font-family:'Fira Sans';-inkscape-font-specification:'Fira Sans'"
           d="m -180.3374,490.82397 h -1.2125 l -1.7125,5.5625 -1.725,-5.5625 h -1.25 l 2.275,6.5875 h 1.3875 z" />
        <path
           id="path164"
           style="font-style:normal;font-variant:normal;font-weight:normal;font-stretch:normal;font-size:12.5px;line-height:1.25;font-family:'Fira Sans';-inkscape-font-specification:'Fira Sans'"
           d="m -174.78036,495.87397 v -3.0125 c 0,-1.375 -0.725,-2.1875 -2.3125,-2.1875 -0.7375,0 -1.4625,0.15 -2.275,0.45 l 0.2875,0.8375 c 0.675,-0.225 1.2875,-0.35 1.775,-0.35 0.9125,0 1.375,0.35 1.375,1.3 v 0.4875 h -1.0125 c -1.8375,0 -2.9,0.7625 -2.9,2.175 0,1.175 0.7875,1.9875 2.1,1.9875 0.8,0 1.5,-0.3 1.9625,-0.9875 0.2,0.65 0.625,0.9125 1.2875,0.9875 l 0.2625,-0.8 c -0.3375,-0.125 -0.55,-0.3125 -0.55,-0.8875 z m -2.7,0.825 c -0.75,0 -1.1375,-0.4125 -1.1375,-1.1875 0,-0.9 0.6125,-1.35 1.825,-1.35 h 0.8625 v 1.5125 c -0.375,0.6875 -0.875,1.025 -1.55,1.025 z" />
        <path
           id="path166"
           style="font-style:normal;font-variant:normal;font-weight:normal;font-stretch:normal;font-size:12.5px;line-height:1.25;font-family:'Fira Sans';-inkscape-font-specification:'Fira Sans'"
           d="m -171.21591,497.56147 c 0.3375,0 0.6625,-0.0875 0.9125,-0.225 l -0.3,-0.8 c -0.125,0.05 -0.2625,0.075 -0.425,0.075 -0.3,0 -0.4125,-0.175 -0.4125,-0.525 v -8.05 l -1.15,0.1375 v 7.9375 c 0,0.9375 0.5375,1.45 1.375,1.45 z" />
        <path
           id="path168"
           style="font-style:normal;font-variant:normal;font-weight:normal;font-stretch:normal;font-size:12.5px;line-height:1.25;font-family:'Fira Sans';-inkscape-font-specification:'Fira Sans'"
           d="m -169.8413,499.18647 h 6.075 v -0.9875 h -6.075 z" />
        <path
           id="path170"
           style="font-style:normal;font-variant:normal;font-weight:normal;font-stretch:normal;font-size:12.5px;line-height:1.25;font-family:'Fira Sans';-inkscape-font-specification:'Fira Sans'"
           d="m -159.84716,493.88647 2.025,-3.0625 h -1.3 l -1.3875,2.4125 -1.375,-2.4125 h -1.35 l 2.0375,3.1125 -2.3,3.475 h 1.3 l 1.6375,-2.7875 1.6125,2.7875 h 1.3875 z" />
      </g>
    </g>
    <g
       transform="translate(0,7.0407412)"
       id="g209">
      <g
         id="g109"
         transform="translate(-0.58594848)">
        <path
           id="path5134"
           d="m 422.91498,169.97858 -9.04282,0 -9.04282,0 4.52141,-7.83131 4.52141,-7.83131 4.52141,7.83131 z"
           style="fill:#808080;fill-opacity:1;stroke:none;stroke-width:2.15971947;stroke-miterlimit:4;stroke-dasharray:none"
           transform="matrix(0,0.78478646,-0.4827799,0,528.63824,-117.74479)" />
        <path
           id="rect5136"
           d="m 428.09656,203.6385 h 19.95028 v 6.83594 h -19.95028 z"
           style="fill:#808080;fill-opacity:1;stroke:none;stroke-width:3.54330707;stroke-miterlimit:4;stroke-dasharray:none" />
      </g>
      <g
         id="g3510"
         transform="rotate(-45,327.5286,198.55754)">
        <path
           id="path4859"
           d="m 323.14145,154.22764 10e-6,100.00001"
           style="fill:#b3b3b3;fill-rule:evenodd;stroke:#cccccc;stroke-width:1.04359901px;stroke-linecap:butt;stroke-linejoin:miter;stroke-opacity:1" />
        <path
           style="fill:#b3b3b3;fill-rule:evenodd;stroke:#cccccc;stroke-width:1.04359901px;stroke-linecap:butt;stroke-linejoin:miter;stroke-opacity:1"
           d="m 375.41684,154.22764 2e-5,100.00001"
           id="path4853" />
        <path
           id="path4855"
           d="m 357.99171,154.22764 10e-6,100.00001"
           style="fill:#b3b3b3;fill-rule:evenodd;stroke:#cccccc;stroke-width:1.04359901px;stroke-linecap:butt;stroke-linejoin:miter;stroke-opacity:1" />
        <path
           style="fill:#b3b3b3;fill-rule:evenodd;stroke:#cccccc;stroke-width:1.04359901px;stroke-linecap:butt;stroke-linejoin:miter;stroke-opacity:1"
           d="m 340.56657,154.22764 10e-6,100.00001"
           id="path4857" />
        <path
           id="rect4769"
           d="m 224.49869,-384.12939 h 16.92522 v 17.42513 h -16.92522 z"
           style="fill:#8fd091;fill-opacity:1;stroke:#000000;stroke-width:1.0629921;stroke-miterlimit:4;stroke-dasharray:none"
           transform="rotate(89.999998)" />
        <path
           id="rect4775"
           d="m 241.30038,-384.12939 h 25.87727 v 17.42513 h -25.87727 z"
           style="fill:#cccccc;fill-opacity:1;stroke:#000000;stroke-width:1.0629921;stroke-miterlimit:4;stroke-dasharray:none"
           transform="rotate(89.999998)" />
        <path
           id="use5269"
           d="m 224.49869,-366.70428 h 16.92522 v 17.42513 h -16.92522 z"
           style="fill:#cabddc;fill-opacity:1;stroke:#000000;stroke-width:1.0629921;stroke-miterlimit:4;stroke-dasharray:none"
           transform="rotate(89.999998)" />
        <path
           id="use5271"
           d="m 224.49869,-349.27914 h 16.92522 v 17.42513 h -16.92522 z"
           style="fill:#cabddc;fill-opacity:1;stroke:#000000;stroke-width:1.0629921;stroke-miterlimit:4;stroke-dasharray:none"
           transform="rotate(89.999998)" />
        <path
           id="use5273"
           d="m 224.49869,-331.85403 h 16.92522 v 17.42513 h -16.92522 z"
           style="fill:#fecb98;fill-opacity:1;stroke:#000000;stroke-width:1.0629921;stroke-miterlimit:4;stroke-dasharray:none"
           transform="rotate(89.999998)" />
        <path
           id="use5277"
           d="m 241.30038,-366.70428 h 25.87727 v 17.42513 h -25.87727 z"
           style="fill:#cccccc;fill-opacity:1;stroke:#000000;stroke-width:1.0629921;stroke-miterlimit:4;stroke-dasharray:none"
           transform="rotate(89.999998)" />
        <path
           id="use5279"
           d="m 241.30038,-349.27914 h 25.87727 v 17.42513 h -25.87727 z"
           style="fill:#cccccc;fill-opacity:1;stroke:#000000;stroke-width:1.0629921;stroke-miterlimit:4;stroke-dasharray:none"
           transform="rotate(89.999998)" />
        <path
           id="use5281"
           d="m 241.30038,-331.85403 h 25.87727 v 17.42513 h -25.87727 z"
           style="fill:#cccccc;fill-opacity:1;stroke:#000000;stroke-width:1.0629921;stroke-miterlimit:4;stroke-dasharray:none"
           transform="rotate(89.999998)" />
        <g
           id="text4614"
           style="font-style:normal;font-weight:normal;line-height:0%;font-family:sans-serif;letter-spacing:0px;word-spacing:0px;fill:#000000;fill-opacity:1;stroke:none;stroke-width:1px;stroke-linecap:butt;stroke-linejoin:miter;stroke-opacity:1"
           transform="rotate(89.999998)"
           aria-label="y1">
          <path
             id="path183"
             style="font-style:normal;font-variant:normal;font-weight:normal;font-stretch:normal;font-size:12.5px;line-height:1.25;font-family:'Fira Sans';-inkscape-font-specification:'Fira Sans'"
             d="m 254.81357,-377.53962 h -1.1875 l -1.725,5.75 -1.7625,-5.75 h -1.225 l 2.2125,6.5875 h 0.3875 c -0.375,1.025 -0.75,1.5375 -2.0875,1.7625 l 0.125,0.9 c 1.825,-0.2 2.6,-1.225 3.0625,-2.625 z" />
          <path
             id="path185"
             style="font-style:normal;font-variant:normal;font-weight:normal;font-stretch:normal;font-size:12.5px;line-height:1.25;font-family:'Fira Sans';-inkscape-font-specification:'Fira Sans'"
             d="m 258.97842,-379.31462 h -1.0125 l -2.5875,1.6 0.5,0.8125 1.95,-1.1875 v 7.1375 h 1.15 z" />
        </g>
        <g
           id="text4618"
           style="font-style:normal;font-weight:normal;line-height:0%;font-family:sans-serif;letter-spacing:0px;word-spacing:0px;fill:#000000;fill-opacity:1;stroke:none;stroke-width:1px;stroke-linecap:butt;stroke-linejoin:miter;stroke-opacity:1"
           transform="rotate(89.999998)"
           aria-label="1">
          <path
             id="path188"
             style="font-style:normal;font-variant:normal;font-weight:normal;font-stretch:normal;font-size:12.5px;line-height:1.25;font-family:'Fira Sans';-inkscape-font-specification:'Fira Sans'"
             d="m 234.25527,-379.31462 h -1.0125 l -2.5875,1.6 0.5,0.8125 1.95,-1.1875 v 7.1375 h 1.15 z" />
        </g>
        <g
           id="text4622"
           style="font-style:normal;font-weight:normal;line-height:0%;font-family:sans-serif;letter-spacing:0px;word-spacing:0px;fill:#000000;fill-opacity:1;stroke:none;stroke-width:1px;stroke-linecap:butt;stroke-linejoin:miter;stroke-opacity:1"
           transform="rotate(89.999998)"
           aria-label="y2">
          <path
             id="path191"
             style="font-style:normal;font-variant:normal;font-weight:normal;font-stretch:normal;font-size:12.5px;line-height:1.25;font-family:'Fira Sans';-inkscape-font-specification:'Fira Sans'"
             d="m 254.81357,-360.11448 h -1.1875 l -1.725,5.75 -1.7625,-5.75 h -1.225 l 2.2125,6.5875 h 0.3875 c -0.375,1.025 -0.75,1.5375 -2.0875,1.7625 l 0.125,0.9 c 1.825,-0.2 2.6,-1.225 3.0625,-2.625 z" />
          <path
             id="path193"
             style="font-style:normal;font-variant:normal;font-weight:normal;font-stretch:normal;font-size:12.5px;line-height:1.25;font-family:'Fira Sans';-inkscape-font-specification:'Fira Sans'"
             d="m 257.66885,-362.01448 c -1.05,0 -1.8625,0.425 -2.5375,1.2625 l 0.75,0.6 c 0.5625,-0.6375 1.025,-0.9125 1.725,-0.9125 0.8125,0 1.375,0.5125 1.375,1.3875 0,1.3625 -0.725,2.1625 -3.675,5.2375 v 0.9125 h 4.9375 l 0.1375,-0.9625 h -3.7625 c 2.5625,-2.5625 3.5625,-3.675 3.5625,-5.2375 0,-1.3 -0.975,-2.2875 -2.5125,-2.2875 z" />
        </g>
        <g
           id="text4626"
           style="font-style:normal;font-weight:normal;line-height:0%;font-family:sans-serif;letter-spacing:0px;word-spacing:0px;fill:#000000;fill-opacity:1;stroke:none;stroke-width:1px;stroke-linecap:butt;stroke-linejoin:miter;stroke-opacity:1"
           transform="rotate(89.999998)"
           aria-label="2">
          <path
             id="path196"
             style="font-style:normal;font-variant:normal;font-weight:normal;font-stretch:normal;font-size:12.5px;line-height:1.25;font-family:'Fira Sans';-inkscape-font-specification:'Fira Sans'"
             d="m 232.24685,-361.9748 c -1.05,0 -1.8625,0.425 -2.5375,1.2625 l 0.75,0.6 c 0.5625,-0.6375 1.025,-0.9125 1.725,-0.9125 0.8125,0 1.375,0.5125 1.375,1.3875 0,1.3625 -0.725,2.1625 -3.675,5.2375 v 0.9125 h 4.9375 l 0.1375,-0.9625 h -3.7625 c 2.5625,-2.5625 3.5625,-3.675 3.5625,-5.2375 0,-1.3 -0.975,-2.2875 -2.5125,-2.2875 z" />
        </g>
        <g
           id="text4630"
           style="font-style:normal;font-weight:normal;line-height:0%;font-family:sans-serif;letter-spacing:0px;word-spacing:0px;fill:#000000;fill-opacity:1;stroke:none;stroke-width:1px;stroke-linecap:butt;stroke-linejoin:miter;stroke-opacity:1"
           transform="rotate(89.999998)"
           aria-label="y3">
          <path
             id="path199"
             style="font-style:normal;font-variant:normal;font-weight:normal;font-stretch:normal;font-size:12.5px;line-height:1.25;font-family:'Fira Sans';-inkscape-font-specification:'Fira Sans'"
             d="m 254.81357,-342.68934 h -1.1875 l -1.725,5.75 -1.7625,-5.75 h -1.225 l 2.2125,6.5875 h 0.3875 c -0.375,1.025 -0.75,1.5375 -2.0875,1.7625 l 0.125,0.9 c 1.825,-0.2 2.6,-1.225 3.0625,-2.625 z" />
          <path
             id="path201"
             style="font-style:normal;font-variant:normal;font-weight:normal;font-stretch:normal;font-size:12.5px;line-height:1.25;font-family:'Fira Sans';-inkscape-font-specification:'Fira Sans'"
             d="m 257.58252,-344.58934 c -0.9,0 -1.675,0.325 -2.3875,0.9875 l 0.6,0.6875 c 0.5625,-0.525 1.0625,-0.75 1.725,-0.75 0.8375,0 1.3875,0.4875 1.3875,1.275 0,0.975 -0.6875,1.475 -1.5125,1.475 h -0.425 l -0.1375,0.8875 h 0.625 c 1.0125,0 1.6625,0.35 1.6625,1.5 0,0.9875 -0.6375,1.6375 -1.6875,1.6375 -0.675,0 -1.2375,-0.25 -1.7875,-0.825 l -0.6875,0.6375 c 0.6375,0.7625 1.5125,1.125 2.5125,1.125 1.7375,0 2.85,-1.1 2.85,-2.5625 0,-1.2625 -0.8375,-1.925 -1.8875,-2.025 0.9375,-0.225 1.625,-0.8625 1.625,-1.925 0,-1.125 -0.875,-2.125 -2.475,-2.125 z" />
        </g>
        <g
           id="text4634"
           style="font-style:normal;font-weight:normal;line-height:0%;font-family:sans-serif;letter-spacing:0px;word-spacing:0px;fill:#000000;fill-opacity:1;stroke:none;stroke-width:1px;stroke-linecap:butt;stroke-linejoin:miter;stroke-opacity:1"
           transform="rotate(89.999998)"
           aria-label="2">
          <path
             id="path204"
             style="font-style:normal;font-variant:normal;font-weight:normal;font-stretch:normal;font-size:12.5px;line-height:1.25;font-family:'Fira Sans';-inkscape-font-specification:'Fira Sans'"
             d="m 232.24685,-344.54966 c -1.05,0 -1.8625,0.425 -2.5375,1.2625 l 0.75,0.6 c 0.5625,-0.6375 1.025,-0.9125 1.725,-0.9125 0.8125,0 1.375,0.5125 1.375,1.3875 0,1.3625 -0.725,2.1625 -3.675,5.2375 v 0.9125 h 4.9375 l 0.1375,-0.9625 h -3.7625 c 2.5625,-2.5625 3.5625,-3.675 3.5625,-5.2375 0,-1.3 -0.975,-2.2875 -2.5125,-2.2875 z" />
        </g>
        <g
           id="text4638"
           style="font-style:normal;font-weight:normal;line-height:0%;font-family:sans-serif;letter-spacing:0px;word-spacing:0px;fill:#000000;fill-opacity:1;stroke:none;stroke-width:1px;stroke-linecap:butt;stroke-linejoin:miter;stroke-opacity:1"
           transform="rotate(89.999998)"
           aria-label="y4">
          <path
             id="path207"
             style="font-style:normal;font-variant:normal;font-weight:normal;font-stretch:normal;font-size:12.5px;line-height:1.25;font-family:'Fira Sans';-inkscape-font-specification:'Fira Sans'"
             d="m 254.81357,-325.26423 h -1.1875 l -1.725,5.75 -1.7625,-5.75 h -1.225 l 2.2125,6.5875 h 0.3875 c -0.375,1.025 -0.75,1.5375 -2.0875,1.7625 l 0.125,0.9 c 1.825,-0.2 2.6,-1.225 3.0625,-2.625 z" />
          <path
             id="path209"
             style="font-style:normal;font-variant:normal;font-weight:normal;font-stretch:normal;font-size:12.5px;line-height:1.25;font-family:'Fira Sans';-inkscape-font-specification:'Fira Sans'"
             d="m 261.09385,-321.65173 h -1.0875 v -2.25 h -1 l -0.1,2.25 h -2.375 l 2.2625,-5.1125 -0.9625,-0.4 -2.5125,5.6 v 0.825 h 3.575 v 2.0625 h 1.1125 v -2.0625 h 1.0875 z" />
        </g>
        <g
           id="text4642"
           style="font-style:normal;font-weight:normal;line-height:0%;font-family:sans-serif;letter-spacing:0px;word-spacing:0px;fill:#000000;fill-opacity:1;stroke:none;stroke-width:1px;stroke-linecap:butt;stroke-linejoin:miter;stroke-opacity:1"
           transform="rotate(89.999998)"
           aria-label="3">
          <path
             id="path212"
             style="font-style:normal;font-variant:normal;font-weight:normal;font-stretch:normal;font-size:12.5px;line-height:1.25;font-family:'Fira Sans';-inkscape-font-specification:'Fira Sans'"
             d="m 232.3833,-327.18559 c -0.9,0 -1.675,0.325 -2.3875,0.9875 l 0.6,0.6875 c 0.5625,-0.525 1.0625,-0.75 1.725,-0.75 0.8375,0 1.3875,0.4875 1.3875,1.275 0,0.975 -0.6875,1.475 -1.5125,1.475 h -0.425 l -0.1375,0.8875 h 0.625 c 1.0125,0 1.6625,0.35 1.6625,1.5 0,0.9875 -0.6375,1.6375 -1.6875,1.6375 -0.675,0 -1.2375,-0.25 -1.7875,-0.825 l -0.6875,0.6375 c 0.6375,0.7625 1.5125,1.125 2.5125,1.125 1.7375,0 2.85,-1.1 2.85,-2.5625 0,-1.2625 -0.8375,-1.925 -1.8875,-2.025 0.9375,-0.225 1.625,-0.8625 1.625,-1.925 0,-1.125 -0.875,-2.125 -2.475,-2.125 z" />
        </g>
        <path
           style="fill:none;fill-rule:evenodd;stroke:#999999;stroke-width:1.04359901px;stroke-linecap:butt;stroke-linejoin:miter;stroke-opacity:1"
           d="m 283.7781,162.68859 100.00001,-1e-5"
           id="path5045" />
        <path
           id="path4700"
           d="m 283.77811,214.96398 100.00001,-1e-5"
           style="fill:none;fill-rule:evenodd;stroke:#999999;stroke-width:1.04359901px;stroke-linecap:butt;stroke-linejoin:miter;stroke-opacity:1" />
        <path
           style="fill:none;fill-rule:evenodd;stroke:#999999;stroke-width:1.04359901px;stroke-linecap:butt;stroke-linejoin:miter;stroke-opacity:1"
           d="m 283.77811,197.53886 100,-1e-5"
           id="path4698" />
        <path
           id="path4696"
           d="m 283.7781,180.11372 100.00001,-1e-5"
           style="fill:none;fill-rule:evenodd;stroke:#999999;stroke-width:1.04359901px;stroke-linecap:butt;stroke-linejoin:miter;stroke-opacity:1" />
        <path
           id="use4459"
           d="m -296.80505,171.40112 h 25.87726 v 17.42513 h -25.87726 z"
           style="fill:#cccccc;fill-opacity:1;stroke:#000000;stroke-width:1.0629921;stroke-miterlimit:4;stroke-dasharray:none"
           transform="scale(-1,1)" />
        <path
           id="use4461"
           d="m -296.80505,188.82626 h 25.87726 v 17.42513 h -25.87726 z"
           style="fill:#cccccc;fill-opacity:1;stroke:#000000;stroke-width:1.0629921;stroke-miterlimit:4;stroke-dasharray:none"
           transform="scale(-1,1)" />
        <path
           id="use4463"
           d="m -296.80505,206.2514 h 25.87726 v 17.42513 h -25.87726 z"
           style="fill:#cccccc;fill-opacity:1;stroke:#000000;stroke-width:1.0629921;stroke-miterlimit:4;stroke-dasharray:none"
           transform="scale(-1,1)" />
        <path
           id="use4467"
           d="m -313.60675,171.40112 h 16.92522 v 17.42513 h -16.92522 z"
           style="fill:#cabddc;fill-opacity:1;stroke:#000000;stroke-width:1.0629921;stroke-miterlimit:4;stroke-dasharray:none"
           transform="scale(-1,1)" />
        <path
           id="use4469"
           d="m -313.60675,188.82626 h 16.92522 v 17.42513 h -16.92522 z"
           style="fill:#cabddc;fill-opacity:1;stroke:#000000;stroke-width:1.0629921;stroke-miterlimit:4;stroke-dasharray:none"
           transform="scale(-1,1)" />
        <path
           id="use4471"
           d="m -313.60675,206.2514 h 16.92522 v 17.42513 h -16.92522 z"
           style="fill:#fecb98;fill-opacity:1;stroke:#000000;stroke-width:1.0629921;stroke-miterlimit:4;stroke-dasharray:none"
           transform="scale(-1,1)" />
        <path
           id="rect4940"
           d="m -296.80505,153.97601 h 25.87726 v 17.42513 h -25.87726 z"
           style="fill:#cccccc;fill-opacity:1;stroke:#000000;stroke-width:1.0629921;stroke-miterlimit:4;stroke-dasharray:none"
           transform="scale(-1,1)" />
        <path
           id="rect4934"
           d="m -313.60675,153.97601 h 16.92522 v 17.42513 h -16.92522 z"
           style="fill:#8fd091;fill-opacity:1;stroke:#000000;stroke-width:1.0629921;stroke-miterlimit:4;stroke-dasharray:none"
           transform="scale(-1,1)" />
        <g
           id="text4950"
           style="font-style:normal;font-weight:normal;line-height:0%;font-family:sans-serif;letter-spacing:0px;word-spacing:0px;fill:#000000;fill-opacity:1;stroke:none;stroke-width:1px;stroke-linecap:butt;stroke-linejoin:miter;stroke-opacity:1"
           aria-label="x1">
          <path
             id="path223"
             style="font-style:normal;font-variant:normal;font-weight:normal;font-stretch:normal;font-size:12.5px;line-height:1.25;font-family:'Fira Sans';-inkscape-font-specification:'Fira Sans'"
             d="m 282.12849,163.62831 2.025,-3.0625 h -1.3 l -1.3875,2.4125 -1.375,-2.4125 h -1.35 l 2.0375,3.1125 -2.3,3.475 h 1.3 l 1.6375,-2.7875 1.6125,2.7875 h 1.3875 z" />
          <path
             id="path225"
             style="font-style:normal;font-variant:normal;font-weight:normal;font-stretch:normal;font-size:12.5px;line-height:1.25;font-family:'Fira Sans';-inkscape-font-specification:'Fira Sans'"
             d="m 288.31286,158.79081 h -1.0125 l -2.5875,1.6 0.5,0.8125 1.95,-1.1875 v 7.1375 h 1.15 z" />
        </g>
        <g
           id="text4978"
           style="font-style:normal;font-weight:normal;line-height:0%;font-family:sans-serif;letter-spacing:0px;word-spacing:0px;fill:#000000;fill-opacity:1;stroke:none;stroke-width:1px;stroke-linecap:butt;stroke-linejoin:miter;stroke-opacity:1"
           aria-label="1">
          <path
             id="path228"
             style="font-style:normal;font-variant:normal;font-weight:normal;font-stretch:normal;font-size:12.5px;line-height:1.25;font-family:'Fira Sans';-inkscape-font-specification:'Fira Sans'"
             d="m 306.4381,158.79079 h -1.0125 l -2.5875,1.6 0.5,0.8125 1.95,-1.1875 v 7.1375 h 1.15 z" />
        </g>
        <g
           id="text4582"
           style="font-style:normal;font-weight:normal;line-height:0%;font-family:sans-serif;letter-spacing:0px;word-spacing:0px;fill:#000000;fill-opacity:1;stroke:none;stroke-width:1px;stroke-linecap:butt;stroke-linejoin:miter;stroke-opacity:1"
           aria-label="2">
          <path
             id="path231"
             style="font-style:normal;font-variant:normal;font-weight:normal;font-stretch:normal;font-size:12.5px;line-height:1.25;font-family:'Fira Sans';-inkscape-font-specification:'Fira Sans'"
             d="m 304.42968,176.1306 c -1.05,0 -1.8625,0.425 -2.5375,1.2625 l 0.75,0.6 c 0.5625,-0.6375 1.025,-0.9125 1.725,-0.9125 0.8125,0 1.375,0.5125 1.375,1.3875 0,1.3625 -0.725,2.1625 -3.675,5.2375 v 0.9125 h 4.9375 l 0.1375,-0.9625 h -3.7625 c 2.5625,-2.5625 3.5625,-3.675 3.5625,-5.2375 0,-1.3 -0.975,-2.2875 -2.5125,-2.2875 z" />
        </g>
        <g
           id="text4590"
           style="font-style:normal;font-weight:normal;line-height:0%;font-family:sans-serif;letter-spacing:0px;word-spacing:0px;fill:#000000;fill-opacity:1;stroke:none;stroke-width:1px;stroke-linecap:butt;stroke-linejoin:miter;stroke-opacity:1"
           aria-label="2">
          <path
             id="path234"
             style="font-style:normal;font-variant:normal;font-weight:normal;font-stretch:normal;font-size:12.5px;line-height:1.25;font-family:'Fira Sans';-inkscape-font-specification:'Fira Sans'"
             d="m 304.42968,193.55574 c -1.05,0 -1.8625,0.425 -2.5375,1.2625 l 0.75,0.6 c 0.5625,-0.6375 1.025,-0.9125 1.725,-0.9125 0.8125,0 1.375,0.5125 1.375,1.3875 0,1.3625 -0.725,2.1625 -3.675,5.2375 v 0.9125 h 4.9375 l 0.1375,-0.9625 h -3.7625 c 2.5625,-2.5625 3.5625,-3.675 3.5625,-5.2375 0,-1.3 -0.975,-2.2875 -2.5125,-2.2875 z" />
        </g>
        <g
           id="text4598"
           style="font-style:normal;font-weight:normal;line-height:0%;font-family:sans-serif;letter-spacing:0px;word-spacing:0px;fill:#000000;fill-opacity:1;stroke:none;stroke-width:1px;stroke-linecap:butt;stroke-linejoin:miter;stroke-opacity:1"
           aria-label="3">
          <path
             id="path237"
             style="font-style:normal;font-variant:normal;font-weight:normal;font-stretch:normal;font-size:12.5px;line-height:1.25;font-family:'Fira Sans';-inkscape-font-specification:'Fira Sans'"
             d="m 304.56613,210.91982 c -0.9,0 -1.675,0.325 -2.3875,0.9875 l 0.6,0.6875 c 0.5625,-0.525 1.0625,-0.75 1.725,-0.75 0.8375,0 1.3875,0.4875 1.3875,1.275 0,0.975 -0.6875,1.475 -1.5125,1.475 h -0.425 l -0.1375,0.8875 h 0.625 c 1.0125,0 1.6625,0.35 1.6625,1.5 0,0.9875 -0.6375,1.6375 -1.6875,1.6375 -0.675,0 -1.2375,-0.25 -1.7875,-0.825 l -0.6875,0.6375 c 0.6375,0.7625 1.5125,1.125 2.5125,1.125 1.7375,0 2.85,-1.1 2.85,-2.5625 0,-1.2625 -0.8375,-1.925 -1.8875,-2.025 0.9375,-0.225 1.625,-0.8625 1.625,-1.925 0,-1.125 -0.875,-2.125 -2.475,-2.125 z" />
        </g>
        <path
           id="circle3533"
           d="m 383.9971,-150.42207 a 3.5,3.5 0 0 1 -3.5,3.5 3.5,3.5 0 0 1 -3.5,-3.5 3.5,3.5 0 0 1 3.5,-3.5 3.5,3.5 0 0 1 3.5,3.5 z"
           style="fill:#8fd091;fill-opacity:1;stroke:none;stroke-width:3.62375951;stroke-miterlimit:4;stroke-dasharray:none"
           transform="rotate(45)" />
        <path
           id="circle3535"
           d="m 383.9971,-125.77753 a 3.5,3.5 0 0 1 -3.5,3.5 3.5,3.5 0 0 1 -3.5,-3.5 3.5,3.5 0 0 1 3.5,-3.5 3.5,3.5 0 0 1 3.5,3.5 z"
           style="fill:#cabddc;fill-opacity:1;stroke:none;stroke-width:3.62375951;stroke-miterlimit:4;stroke-dasharray:none"
           transform="rotate(45)" />
        <path
           id="circle3537"
           d="m 383.9971,-101.13975 a 3.5,3.5 0 0 1 -3.5,3.500002 3.5,3.5 0 0 1 -3.5,-3.500002 3.5,3.5 0 0 1 3.5,-3.5 3.5,3.5 0 0 1 3.5,3.5 z"
           style="fill:#cabddc;fill-opacity:1;stroke:none;stroke-width:3.62375951;stroke-miterlimit:4;stroke-dasharray:none"
           transform="rotate(45)" />
        <path
           id="circle3547"
           d="m 371.6702,-113.45873 a 3.5,3.5 0 0 1 -3.5,3.5 3.5,3.5 0 0 1 -3.5,-3.5 3.5,3.5 0 0 1 3.5,-3.5 3.5,3.5 0 0 1 3.5,3.5 z"
           style="fill:#cabddc;fill-opacity:1;stroke:none;stroke-width:3.62375951;stroke-miterlimit:4;stroke-dasharray:none"
           transform="rotate(45)" />
        <path
           id="circle3549"
           d="m 396.31561,-113.45873 a 3.5,3.5 0 0 1 -3.5,3.5 3.5,3.5 0 0 1 -3.5,-3.5 3.5,3.5 0 0 1 3.5,-3.5 3.5,3.5 0 0 1 3.5,3.5 z"
           style="fill:#cabddc;fill-opacity:1;stroke:none;stroke-width:3.62375951;stroke-miterlimit:4;stroke-dasharray:none"
           transform="rotate(45)" />
        <path
           id="circle3551"
           d="m 383.9971,-76.493782 a 3.5,3.5 0 0 1 -3.5,3.5 3.5,3.5 0 0 1 -3.5,-3.5 3.5,3.5 0 0 1 3.5,-3.5 3.5,3.5 0 0 1 3.5,3.5 z"
           style="fill:#fecb98;fill-opacity:1;stroke:none;stroke-width:3.62375951;stroke-miterlimit:4;stroke-dasharray:none"
           transform="rotate(45)" />
        <g
           id="text3498"
           style="font-style:normal;font-weight:normal;line-height:0%;font-family:sans-serif;letter-spacing:0px;word-spacing:0px;fill:#000000;fill-opacity:1;stroke:none;stroke-width:1px;stroke-linecap:butt;stroke-linejoin:miter;stroke-opacity:1"
           aria-label="x2">
          <path
             id="path246"
             style="font-style:normal;font-variant:normal;font-weight:normal;font-stretch:normal;font-size:12.5px;line-height:1.25;font-family:'Fira Sans';-inkscape-font-specification:'Fira Sans'"
             d="m 282.12849,181.09309 2.025,-3.0625 h -1.3 l -1.3875,2.4125 -1.375,-2.4125 h -1.35 l 2.0375,3.1125 -2.3,3.475 h 1.3 l 1.6375,-2.7875 1.6125,2.7875 h 1.3875 z" />
          <path
             id="path248"
             style="font-style:normal;font-variant:normal;font-weight:normal;font-stretch:normal;font-size:12.5px;line-height:1.25;font-family:'Fira Sans';-inkscape-font-specification:'Fira Sans'"
             d="m 287.32067,176.13059 c -1.05,0 -1.8625,0.425 -2.5375,1.2625 l 0.75,0.6 c 0.5625,-0.6375 1.025,-0.9125 1.725,-0.9125 0.8125,0 1.375,0.5125 1.375,1.3875 0,1.3625 -0.725,2.1625 -3.675,5.2375 v 0.9125 h 4.9375 l 0.1375,-0.9625 h -3.7625 c 2.5625,-2.5625 3.5625,-3.675 3.5625,-5.2375 0,-1.3 -0.975,-2.2875 -2.5125,-2.2875 z" />
        </g>
        <g
           id="text3502"
           style="font-style:normal;font-weight:normal;line-height:0%;font-family:sans-serif;letter-spacing:0px;word-spacing:0px;fill:#000000;fill-opacity:1;stroke:none;stroke-width:1px;stroke-linecap:butt;stroke-linejoin:miter;stroke-opacity:1"
           aria-label="x3">
          <path
             id="path251"
             style="font-style:normal;font-variant:normal;font-weight:normal;font-stretch:normal;font-size:12.5px;line-height:1.25;font-family:'Fira Sans';-inkscape-font-specification:'Fira Sans'"
             d="m 282.12849,198.45719 2.025,-3.0625 h -1.3 l -1.3875,2.4125 -1.375,-2.4125 h -1.35 l 2.0375,3.1125 -2.3,3.475 h 1.3 l 1.6375,-2.7875 1.6125,2.7875 h 1.3875 z" />
          <path
             id="path253"
             style="font-style:normal;font-variant:normal;font-weight:normal;font-stretch:normal;font-size:12.5px;line-height:1.25;font-family:'Fira Sans';-inkscape-font-specification:'Fira Sans'"
             d="m 287.28317,193.49469 c -0.9,0 -1.675,0.325 -2.3875,0.9875 l 0.6,0.6875 c 0.5625,-0.525 1.0625,-0.75 1.725,-0.75 0.8375,0 1.3875,0.4875 1.3875,1.275 0,0.975 -0.6875,1.475 -1.5125,1.475 h -0.425 l -0.1375,0.8875 h 0.625 c 1.0125,0 1.6625,0.35 1.6625,1.5 0,0.9875 -0.6375,1.6375 -1.6875,1.6375 -0.675,0 -1.2375,-0.25 -1.7875,-0.825 l -0.6875,0.6375 c 0.6375,0.7625 1.5125,1.125 2.5125,1.125 1.7375,0 2.85,-1.1 2.85,-2.5625 0,-1.2625 -0.8375,-1.925 -1.8875,-2.025 0.9375,-0.225 1.625,-0.8625 1.625,-1.925 0,-1.125 -0.875,-2.125 -2.475,-2.125 z" />
        </g>
        <g
           id="text3506"
           style="font-style:normal;font-weight:normal;line-height:0%;font-family:sans-serif;letter-spacing:0px;word-spacing:0px;fill:#000000;fill-opacity:1;stroke:none;stroke-width:1px;stroke-linecap:butt;stroke-linejoin:miter;stroke-opacity:1"
           aria-label="x4">
          <path
             id="path256"
             style="font-style:normal;font-variant:normal;font-weight:normal;font-stretch:normal;font-size:12.5px;line-height:1.25;font-family:'Fira Sans';-inkscape-font-specification:'Fira Sans'"
             d="m 282.12849,215.88233 2.025,-3.0625 h -1.3 l -1.3875,2.4125 -1.375,-2.4125 h -1.35 l 2.0375,3.1125 -2.3,3.475 h 1.3 l 1.6375,-2.7875 1.6125,2.7875 h 1.3875 z" />
          <path
             id="path258"
             style="font-style:normal;font-variant:normal;font-weight:normal;font-stretch:normal;font-size:12.5px;line-height:1.25;font-family:'Fira Sans';-inkscape-font-specification:'Fira Sans'"
             d="m 290.55036,216.43233 h -1.0875 v -2.25 h -1 l -0.1,2.25 h -2.375 l 2.2625,-5.1125 -0.9625,-0.4 -2.5125,5.6 v 0.825 h 3.575 v 2.0625 h 1.1125 v -2.0625 h 1.0875 z" />
        </g>
      </g>
    </g>
  </g>
</svg>
