<?xml version="1.0" encoding="UTF-8" standalone="no"?>
<svg
   xmlns:dc="http://purl.org/dc/elements/1.1/"
   xmlns:cc="http://creativecommons.org/ns#"
   xmlns:rdf="http://www.w3.org/1999/02/22-rdf-syntax-ns#"
   xmlns:svg="http://www.w3.org/2000/svg"
   xmlns="http://www.w3.org/2000/svg"
   version="1.1"
   id="svg2"
   viewBox="0 0 546.83682 175.225"
   height="49.452389mm"
   width="154.3295mm">
  <defs
     id="defs4" />
  <metadata
     id="metadata7">
    <rdf:RDF>
      <cc:Work
         rdf:about="">
        <dc:format>image/svg+xml</dc:format>
        <dc:type
           rdf:resource="http://purl.org/dc/dcmitype/StillImage" />
        <dc:title />
      </cc:Work>
    </rdf:RDF>
  </metadata>
  <g
     transform="translate(-19.664179,-109.96016)"
     id="layer1">
    <g
       id="g4413">
      <g
         id="g4242">
        <g
           id="g4310">
          <path
             id="path3401"
             d="m 97.880714,158.1767 a 30,30 0 0 1 -30,30 30,30 0 0 1 -30,-30 30,30 0 0 1 30,-30 30,30 0 0 1 30,30 z"
             style="fill:#ffffff;fill-opacity:1;stroke:#000000;stroke-width:1;stroke-miterlimit:4;stroke-dasharray:none" />
          <path
             id="circle4203"
             d="m 133.74113,158.1767 a 30,30 0 0 1 -30,30 30,30 0 0 1 -30.000003,-30 30,30 0 0 1 30.000003,-30 30,30 0 0 1 30,30 z"
             style="fill:#ffffff;fill-opacity:1;stroke:#000000;stroke-width:1;stroke-miterlimit:4;stroke-dasharray:none" />
          <g
             id="text4228"
             style="font-style:normal;font-weight:normal;line-height:0%;font-family:sans-serif;letter-spacing:0px;word-spacing:0px;fill:#000000;fill-opacity:1;stroke:none;stroke-width:1px;stroke-linecap:butt;stroke-linejoin:miter;stroke-opacity:1"
             aria-label="Unión interior
inner_join(x,y)">
            <path
               id="path43"
               style="font-style:normal;font-variant:normal;font-weight:bold;font-stretch:normal;font-size:13.75px;line-height:1.25;font-family:'Fira Sans';-inkscape-font-specification:'Fira Sans Bold'"
               d="m 159.71789,152.1358 h -2.255 v 6.27 c 0,1.22375 -0.44,1.815 -1.47125,1.815 -1.0175,0 -1.4575,-0.59125 -1.4575,-1.815 v -6.27 h -2.255 v 6.36625 c 0,2.0075 1.22375,3.39625 3.7125,3.39625 2.48875,0 3.72625,-1.47125 3.72625,-3.39625 z" />
            <path
               id="path45"
               style="font-style:normal;font-variant:normal;font-weight:bold;font-stretch:normal;font-size:13.75px;line-height:1.25;font-family:'Fira Sans';-inkscape-font-specification:'Fira Sans Bold'"
               d="m 165.59451,154.12955 c -0.9075,0 -1.60875,0.37125 -2.2275,1.1 l -0.15125,-0.86625 h -1.8975 v 7.30125 h 2.1725 v -4.99125 c 0.385,-0.605 0.78375,-0.94875 1.265,-0.94875 0.42625,0 0.6875,0.20625 0.6875,0.97625 v 4.96375 h 2.1725 v -5.335 c 0,-1.38875 -0.75625,-2.2 -2.02125,-2.2 z" />
            <path
               id="path47"
               style="font-style:normal;font-variant:normal;font-weight:bold;font-stretch:normal;font-size:13.75px;line-height:1.25;font-family:'Fira Sans';-inkscape-font-specification:'Fira Sans Bold'"
               d="m 170.31312,150.5133 c -0.75625,0 -1.27875,0.53625 -1.27875,1.2375 0,0.70125 0.5225,1.2375 1.27875,1.2375 0.75625,0 1.2925,-0.53625 1.2925,-1.2375 0,-0.70125 -0.53625,-1.2375 -1.2925,-1.2375 z m 1.1,3.85 h -2.1725 v 7.30125 h 2.1725 z" />
            <path
               id="path49"
               style="font-style:normal;font-variant:normal;font-weight:bold;font-stretch:normal;font-size:13.75px;line-height:1.25;font-family:'Fira Sans';-inkscape-font-specification:'Fira Sans Bold'"
               d="m 177.26031,150.1833 -2.9975,1.815 0.605,1.11375 3.245,-1.30625 z m -0.99,3.94625 c -2.2275,0 -3.575,1.54 -3.575,3.8775 0,2.46125 1.36125,3.89125 3.575,3.89125 2.2275,0 3.575,-1.54 3.575,-3.8775 0,-2.46125 -1.3475,-3.89125 -3.575,-3.89125 z m 0,1.595 c 0.88,0 1.32,0.67375 1.32,2.29625 0,1.58125 -0.44,2.2825 -1.32,2.2825 -0.88,0 -1.32,-0.67375 -1.32,-2.29625 0,-1.58125 0.44,-2.2825 1.32,-2.2825 z" />
            <path
               id="path51"
               style="font-style:normal;font-variant:normal;font-weight:bold;font-stretch:normal;font-size:13.75px;line-height:1.25;font-family:'Fira Sans';-inkscape-font-specification:'Fira Sans Bold'"
               d="m 185.41385,154.12955 c -0.9075,0 -1.60875,0.37125 -2.2275,1.1 l -0.15125,-0.86625 h -1.8975 v 7.30125 h 2.1725 v -4.99125 c 0.385,-0.605 0.78375,-0.94875 1.265,-0.94875 0.42625,0 0.6875,0.20625 0.6875,0.97625 v 4.96375 h 2.1725 v -5.335 c 0,-1.38875 -0.75625,-2.2 -2.02125,-2.2 z" />
            <path
               id="path53"
               style="font-style:normal;font-variant:normal;font-weight:bold;font-stretch:normal;font-size:13.75px;line-height:1.25;font-family:'Fira Sans';-inkscape-font-specification:'Fira Sans Bold'"
               d="m 193.38197,150.5133 c -0.75625,0 -1.27875,0.53625 -1.27875,1.2375 0,0.70125 0.5225,1.2375 1.27875,1.2375 0.75625,0 1.2925,-0.53625 1.2925,-1.2375 0,-0.70125 -0.53625,-1.2375 -1.2925,-1.2375 z m 1.1,3.85 h -2.1725 v 7.30125 h 2.1725 z" />
            <path
               id="path55"
               style="font-style:normal;font-variant:normal;font-weight:bold;font-stretch:normal;font-size:13.75px;line-height:1.25;font-family:'Fira Sans';-inkscape-font-specification:'Fira Sans Bold'"
               d="m 200.45291,154.12955 c -0.9075,0 -1.60875,0.37125 -2.2275,1.1 l -0.15125,-0.86625 h -1.8975 v 7.30125 h 2.1725 v -4.99125 c 0.385,-0.605 0.78375,-0.94875 1.265,-0.94875 0.42625,0 0.6875,0.20625 0.6875,0.97625 v 4.96375 h 2.1725 v -5.335 c 0,-1.38875 -0.75625,-2.2 -2.02125,-2.2 z" />
            <path
               id="path57"
               style="font-style:normal;font-variant:normal;font-weight:bold;font-stretch:normal;font-size:13.75px;line-height:1.25;font-family:'Fira Sans';-inkscape-font-specification:'Fira Sans Bold'"
               d="m 207.94902,159.9458 c -0.28875,0.165 -0.53625,0.23375 -0.78375,0.23375 -0.45375,0 -0.6875,-0.2475 -0.6875,-0.94875 v -3.355 h 1.44375 l 0.23375,-1.5125 h -1.6775 v -1.82875 l -2.1725,0.2475 v 1.58125 h -1.03125 v 1.5125 h 1.03125 v 3.3825 c 0,1.71875 0.78375,2.62625 2.3925,2.64 0.66,0 1.43,-0.1925 1.98,-0.5775 z" />
            <path
               id="path59"
               style="font-style:normal;font-variant:normal;font-weight:bold;font-stretch:normal;font-size:13.75px;line-height:1.25;font-family:'Fira Sans';-inkscape-font-specification:'Fira Sans Bold'"
               d="m 215.54095,157.86955 c 0,-2.365 -1.27875,-3.74 -3.36875,-3.74 -2.21375,0 -3.41,1.7325 -3.41,3.91875 0,2.2825 1.2375,3.85 3.67125,3.85 1.1825,0 2.1175,-0.44 2.84625,-1.0175 l -0.89375,-1.21 c -0.6325,0.44 -1.155,0.64625 -1.74625,0.64625 -0.89375,0 -1.5125,-0.3575 -1.66375,-1.66375 h 4.52375 c 0.0275,-0.22 0.0413,-0.55 0.0413,-0.78375 z m -2.13125,-0.5225 h -2.43375 c 0.0962,-1.30625 0.5225,-1.77375 1.25125,-1.77375 0.86625,0 1.16875,0.6875 1.1825,1.6775 z" />
            <path
               id="path61"
               style="font-style:normal;font-variant:normal;font-weight:bold;font-stretch:normal;font-size:13.75px;line-height:1.25;font-family:'Fira Sans';-inkscape-font-specification:'Fira Sans Bold'"
               d="m 220.7348,154.15705 c -0.83875,0 -1.55375,0.605 -1.88375,1.6225 l -0.17875,-1.41625 h -1.8975 v 7.30125 h 2.1725 v -3.61625 c 0.23375,-1.11375 0.605,-1.7875 1.5125,-1.7875 0.2475,0 0.42625,0.0413 0.66,0.0962 l 0.34375,-2.10375 c -0.23375,-0.0687 -0.45375,-0.0962 -0.72875,-0.0962 z" />
            <path
               id="path63"
               style="font-style:normal;font-variant:normal;font-weight:bold;font-stretch:normal;font-size:13.75px;line-height:1.25;font-family:'Fira Sans';-inkscape-font-specification:'Fira Sans Bold'"
               d="m 223.35267,150.5133 c -0.75625,0 -1.27875,0.53625 -1.27875,1.2375 0,0.70125 0.5225,1.2375 1.27875,1.2375 0.75625,0 1.2925,-0.53625 1.2925,-1.2375 0,-0.70125 -0.53625,-1.2375 -1.2925,-1.2375 z m 1.1,3.85 h -2.1725 v 7.30125 h 2.1725 z" />
            <path
               id="path65"
               style="font-style:normal;font-variant:normal;font-weight:bold;font-stretch:normal;font-size:13.75px;line-height:1.25;font-family:'Fira Sans';-inkscape-font-specification:'Fira Sans Bold'"
               d="m 229.30986,154.12955 c -2.2275,0 -3.575,1.54 -3.575,3.8775 0,2.46125 1.36125,3.89125 3.575,3.89125 2.2275,0 3.575,-1.54 3.575,-3.8775 0,-2.46125 -1.3475,-3.89125 -3.575,-3.89125 z m 0,1.595 c 0.88,0 1.32,0.67375 1.32,2.29625 0,1.58125 -0.44,2.2825 -1.32,2.2825 -0.88,0 -1.32,-0.67375 -1.32,-2.29625 0,-1.58125 0.44,-2.2825 1.32,-2.2825 z" />
            <path
               id="path67"
               style="font-style:normal;font-variant:normal;font-weight:bold;font-stretch:normal;font-size:13.75px;line-height:1.25;font-family:'Fira Sans';-inkscape-font-specification:'Fira Sans Bold'"
               d="m 238.13715,154.15705 c -0.83875,0 -1.55375,0.605 -1.88375,1.6225 l -0.17875,-1.41625 h -1.8975 v 7.30125 h 2.1725 v -3.61625 c 0.23375,-1.11375 0.605,-1.7875 1.5125,-1.7875 0.2475,0 0.42625,0.0413 0.66,0.0962 l 0.34375,-2.10375 c -0.23375,-0.0687 -0.45375,-0.0962 -0.72875,-0.0962 z" />
            <path
               id="path69"
               style="font-style:normal;font-variant:normal;font-weight:normal;font-stretch:normal;font-size:13.75px;line-height:1.25;font-family:'Fira Mono';-inkscape-font-specification:'Fira Mono'"
               d="m 155.64789,168.2233 c -0.495,0 -0.825,0.34375 -0.825,0.81125 0,0.4675 0.33,0.81125 0.825,0.81125 0.50875,0 0.8525,-0.34375 0.8525,-0.81125 0,-0.4675 -0.34375,-0.81125 -0.8525,-0.81125 z m 0.92125,3.3825 h -3.31375 v 0.92125 h 2.15875 v 5.40375 h -2.2275 v 0.92125 h 5.4175 v -0.92125 h -2.035 z" />
            <path
               id="path71"
               style="font-style:normal;font-variant:normal;font-weight:normal;font-stretch:normal;font-size:13.75px;line-height:1.25;font-family:'Fira Mono';-inkscape-font-specification:'Fira Mono'"
               d="m 161.14252,178.85205 h 1.155 v -5.26625 c 0.385,-0.5775 1.11375,-1.21 1.96625,-1.21 1.08625,0 1.2375,0.59125 1.2375,2.07625 v 4.4 h 1.155 v -5.2525 c 0,-1.3475 -0.61875,-2.145 -2.035,-2.145 -0.8525,0 -1.815,0.42625 -2.3925,1.16875 l -0.0962,-1.0175 h -0.99 z" />
            <path
               id="path73"
               style="font-style:normal;font-variant:normal;font-weight:normal;font-stretch:normal;font-size:13.75px;line-height:1.25;font-family:'Fira Mono';-inkscape-font-specification:'Fira Mono'"
               d="m 169.38715,178.85205 h 1.155 v -5.26625 c 0.385,-0.5775 1.11375,-1.21 1.96625,-1.21 1.08625,0 1.2375,0.59125 1.2375,2.07625 v 4.4 h 1.155 v -5.2525 c 0,-1.3475 -0.61875,-2.145 -2.035,-2.145 -0.8525,0 -1.815,0.42625 -2.3925,1.16875 l -0.0962,-1.0175 h -0.99 z" />
            <path
               id="path75"
               style="font-style:normal;font-variant:normal;font-weight:normal;font-stretch:normal;font-size:13.75px;line-height:1.25;font-family:'Fira Mono';-inkscape-font-specification:'Fira Mono'"
               d="m 178.55302,175.63455 h 4.8675 c 0.0137,-0.15125 0.0275,-0.37125 0.0275,-0.61875 0,-2.2 -1.1275,-3.56125 -2.95625,-3.56125 -1.925,0 -3.14875,1.595 -3.14875,3.78125 0,2.255 1.19625,3.7675 3.31375,3.7675 0.89375,0 1.80125,-0.31625 2.475,-0.83875 l -0.53625,-0.77 c -0.64625,0.42625 -1.19625,0.64625 -1.93875,0.64625 -1.11375,0 -2.04875,-0.72875 -2.10375,-2.40625 z m 1.9525,-3.23125 c 1.1,0 1.7875,0.7975 1.815,2.35125 h -3.7675 c 0.0962,-1.595 0.88,-2.35125 1.9525,-2.35125 z" />
            <path
               id="path77"
               style="font-style:normal;font-variant:normal;font-weight:normal;font-stretch:normal;font-size:13.75px;line-height:1.25;font-family:'Fira Mono';-inkscape-font-specification:'Fira Mono'"
               d="m 190.7714,171.45455 c -1.30625,0 -2.04875,0.6875 -2.59875,1.87 l -0.22,-1.71875 h -2.0075 v 0.89375 h 1.14125 v 5.45875 h -1.14125 v 0.89375 h 3.7675 v -0.89375 h -1.47125 v -3.0525 c 0.4675,-1.595 1.265,-2.3925 2.37875,-2.3925 h 0.0687 v 1.55375 h 0.935 l 0.165,-2.46125 c -0.31625,-0.0825 -0.61875,-0.15125 -1.0175,-0.15125 z" />
            <path
               id="path79"
               style="font-style:normal;font-variant:normal;font-weight:normal;font-stretch:normal;font-size:13.75px;line-height:1.25;font-family:'Fira Mono';-inkscape-font-specification:'Fira Mono'"
               d="m 193.43353,181.35455 h 6.875 v -1.0175 h -6.875 z" />
            <path
               id="path81"
               style="font-style:normal;font-variant:normal;font-weight:normal;font-stretch:normal;font-size:13.75px;line-height:1.25;font-family:'Fira Mono';-inkscape-font-specification:'Fira Mono'"
               d="m 206.03691,168.2233 c -0.495,0 -0.83875,0.34375 -0.83875,0.81125 0,0.4675 0.34375,0.81125 0.83875,0.81125 0.50875,0 0.83875,-0.34375 0.83875,-0.81125 0,-0.4675 -0.33,-0.81125 -0.83875,-0.81125 z m 1.0725,3.3825 h -4.16625 v 0.92125 h 3.01125 v 5.23875 c 0,1.9525 -1.5125,2.75 -3.64375,3.1075 l 0.1925,0.89375 c 2.915,-0.495 4.60625,-1.65 4.60625,-4.07 z" />
            <path
               id="path83"
               style="font-style:normal;font-variant:normal;font-weight:normal;font-stretch:normal;font-size:13.75px;line-height:1.25;font-family:'Fira Mono';-inkscape-font-specification:'Fira Mono'"
               d="m 213.37404,171.45455 c -2.035,0 -3.135,1.55375 -3.135,3.78125 0,2.2825 1.08625,3.7675 3.12125,3.7675 2.02125,0 3.12125,-1.55375 3.12125,-3.78125 0,-2.2825 -1.0725,-3.7675 -3.1075,-3.7675 z m 0,0.94875 c 1.2375,0 1.85625,0.9075 1.85625,2.81875 0,1.93875 -0.61875,2.8325 -1.87,2.8325 -1.25125,0 -1.87,-0.89375 -1.87,-2.81875 0,-1.925 0.6325,-2.8325 1.88375,-2.8325 z" />
            <path
               id="path85"
               style="font-style:normal;font-variant:normal;font-weight:normal;font-stretch:normal;font-size:13.75px;line-height:1.25;font-family:'Fira Mono';-inkscape-font-specification:'Fira Mono'"
               d="m 221.60492,168.2233 c -0.495,0 -0.825,0.34375 -0.825,0.81125 0,0.4675 0.33,0.81125 0.825,0.81125 0.50875,0 0.8525,-0.34375 0.8525,-0.81125 0,-0.4675 -0.34375,-0.81125 -0.8525,-0.81125 z m 0.92125,3.3825 h -3.31375 v 0.92125 h 2.15875 v 5.40375 h -2.2275 v 0.92125 h 5.4175 v -0.92125 h -2.035 z" />
            <path
               id="path87"
               style="font-style:normal;font-variant:normal;font-weight:normal;font-stretch:normal;font-size:13.75px;line-height:1.25;font-family:'Fira Mono';-inkscape-font-specification:'Fira Mono'"
               d="m 227.09955,178.85205 h 1.155 v -5.26625 c 0.385,-0.5775 1.11375,-1.21 1.96625,-1.21 1.08625,0 1.2375,0.59125 1.2375,2.07625 v 4.4 h 1.155 v -5.2525 c 0,-1.3475 -0.61875,-2.145 -2.035,-2.145 -0.8525,0 -1.815,0.42625 -2.3925,1.16875 l -0.0962,-1.0175 h -0.99 z" />
            <path
               id="path89"
               style="font-style:normal;font-variant:normal;font-weight:normal;font-stretch:normal;font-size:13.75px;line-height:1.25;font-family:'Fira Mono';-inkscape-font-specification:'Fira Mono'"
               d="m 236.89793,174.03955 c 0,-2.8875 0.94875,-4.345 2.92875,-6.105 l -0.59125,-0.6325 c -2.24125,1.82875 -3.5475,3.6025 -3.5475,6.7375 0,3.135 1.30625,4.90875 3.5475,6.7375 l 0.59125,-0.6325 c -1.9525,-1.74625 -2.92875,-3.23125 -2.92875,-6.105 z" />
            <path
               id="path91"
               style="font-style:normal;font-variant:normal;font-weight:normal;font-stretch:normal;font-size:13.75px;line-height:1.25;font-family:'Fira Mono';-inkscape-font-specification:'Fira Mono'"
               d="m 244.30381,178.85205 1.99375,-3.1075 1.99375,3.1075 h 1.4025 l -2.6675,-3.8775 2.35125,-3.36875 h -1.33375 l -1.69125,2.695 -1.6775,-2.695 h -1.375 l 2.35125,3.42375 -2.6675,3.8225 z" />
            <path
               id="path93"
               style="font-style:normal;font-variant:normal;font-weight:normal;font-stretch:normal;font-size:13.75px;line-height:1.25;font-family:'Fira Mono';-inkscape-font-specification:'Fira Mono'"
               d="m 254.58344,176.5833 c -0.61875,0 -1.1,0.495 -1.1,1.11375 0,0.3575 0.17875,0.715 0.44,0.9075 l -0.64625,2.70875 h 1.045 l 1.11375,-2.54375 c 0.1925,-0.42625 0.26125,-0.7425 0.26125,-1.08625 0,-0.605 -0.48125,-1.1 -1.11375,-1.1 z" />
            <path
               id="path95"
               style="font-style:normal;font-variant:normal;font-weight:normal;font-stretch:normal;font-size:13.75px;line-height:1.25;font-family:'Fira Mono';-inkscape-font-specification:'Fira Mono'"
               d="m 266.10056,171.6058 h -1.19625 l -2.04875,6.36625 -2.07625,-6.36625 h -1.22375 l 2.51625,7.24625 h 0.385 c -0.37125,1.11375 -0.81125,1.7325 -2.29625,1.99375 l 0.165,0.92125 c 1.925,-0.20625 2.73625,-1.38875 3.245,-2.87375 z" />
            <path
               id="path97"
               style="font-style:normal;font-variant:normal;font-weight:normal;font-stretch:normal;font-size:13.75px;line-height:1.25;font-family:'Fira Mono';-inkscape-font-specification:'Fira Mono'"
               d="m 272.26894,174.03955 c 0,2.87375 -0.97625,4.35875 -2.92875,6.105 l 0.59125,0.6325 c 2.24125,-1.82875 3.5475,-3.6025 3.5475,-6.7375 0,-3.135 -1.30625,-4.90875 -3.5475,-6.7375 l -0.59125,0.6325 c 1.98,1.76 2.92875,3.2175 2.92875,6.105 z" />
          </g>
          <path
             id="circle4531"
             d="M 85.806641,134.16602 A 30,30 0 0 0 73.740234,158.17578 30,30 0 0 0 85.814453,182.18555 30,30 0 0 0 97.880859,158.17578 30,30 0 0 0 85.806641,134.16602 Z"
             style="fill:#cccccc;fill-opacity:1;stroke:#000000;stroke-width:1;stroke-miterlimit:4;stroke-dasharray:none" />
        </g>
      </g>
      <g
         id="g4318">
        <path
           id="path4278"
           d="M 82.785495,257.2365 C 71.98671,245.88809 71.843204,228.40744 82.456991,217.22103 l 3.177869,-3.34932 1.432926,1.04612 c 0.788109,0.57536 2.570336,2.54671 3.960505,4.38076 8.926914,11.77732 7.809727,28.05332 -2.633503,38.36682 l -2.681356,2.64805 z"
           style="fill:#e6e6e6;fill-opacity:1;stroke:none;stroke-width:1;stroke-miterlimit:4;stroke-dasharray:none" />
        <path
           id="circle4211"
           d="m 97.880714,236.96863 a 30,30 0 0 1 -30,30 30,30 0 0 1 -30,-30 30,30 0 0 1 30,-30 30,30 0 0 1 30,30 z"
           style="fill:#cccccc;fill-opacity:1;stroke:#000000;stroke-width:1;stroke-miterlimit:4;stroke-dasharray:none" />
        <path
           id="circle4213"
           d="m 133.74113,236.96863 a 30,30 0 0 1 -30,30 30,30 0 0 1 -30.000003,-30 30,30 0 0 1 30.000003,-30 30,30 0 0 1 30,30 z"
           style="fill:#cccccc;fill-opacity:1;stroke:#000000;stroke-width:1;stroke-miterlimit:4;stroke-dasharray:none" />
        <g
           id="text4232"
           style="font-style:normal;font-weight:normal;line-height:0%;font-family:sans-serif;letter-spacing:0px;word-spacing:0px;fill:#000000;fill-opacity:1;stroke:none;stroke-width:1px;stroke-linecap:butt;stroke-linejoin:miter;stroke-opacity:1"
           aria-label="Unión total
full_join(x,y)">
          <path
             id="path102"
             style="font-style:normal;font-variant:normal;font-weight:bold;font-stretch:normal;font-size:13.75px;line-height:1.25;font-family:'Fira Sans';-inkscape-font-specification:'Fira Sans Bold'"
             d="m 159.71789,230.92773 h -2.255 v 6.27 c 0,1.22375 -0.44,1.815 -1.47125,1.815 -1.0175,0 -1.4575,-0.59125 -1.4575,-1.815 v -6.27 h -2.255 v 6.36625 c 0,2.0075 1.22375,3.39625 3.7125,3.39625 2.48875,0 3.72625,-1.47125 3.72625,-3.39625 z" />
          <path
             id="path104"
             style="font-style:normal;font-variant:normal;font-weight:bold;font-stretch:normal;font-size:13.75px;line-height:1.25;font-family:'Fira Sans';-inkscape-font-specification:'Fira Sans Bold'"
             d="m 165.59451,232.92148 c -0.9075,0 -1.60875,0.37125 -2.2275,1.1 l -0.15125,-0.86625 h -1.8975 v 7.30125 h 2.1725 v -4.99125 c 0.385,-0.605 0.78375,-0.94875 1.265,-0.94875 0.42625,0 0.6875,0.20625 0.6875,0.97625 v 4.96375 h 2.1725 v -5.335 c 0,-1.38875 -0.75625,-2.2 -2.02125,-2.2 z" />
          <path
             id="path106"
             style="font-style:normal;font-variant:normal;font-weight:bold;font-stretch:normal;font-size:13.75px;line-height:1.25;font-family:'Fira Sans';-inkscape-font-specification:'Fira Sans Bold'"
             d="m 170.31312,229.30523 c -0.75625,0 -1.27875,0.53625 -1.27875,1.2375 0,0.70125 0.5225,1.2375 1.27875,1.2375 0.75625,0 1.2925,-0.53625 1.2925,-1.2375 0,-0.70125 -0.53625,-1.2375 -1.2925,-1.2375 z m 1.1,3.85 h -2.1725 v 7.30125 h 2.1725 z" />
          <path
             id="path108"
             style="font-style:normal;font-variant:normal;font-weight:bold;font-stretch:normal;font-size:13.75px;line-height:1.25;font-family:'Fira Sans';-inkscape-font-specification:'Fira Sans Bold'"
             d="m 177.26031,228.97523 -2.9975,1.815 0.605,1.11375 3.245,-1.30625 z m -0.99,3.94625 c -2.2275,0 -3.575,1.54 -3.575,3.8775 0,2.46125 1.36125,3.89125 3.575,3.89125 2.2275,0 3.575,-1.54 3.575,-3.8775 0,-2.46125 -1.3475,-3.89125 -3.575,-3.89125 z m 0,1.595 c 0.88,0 1.32,0.67375 1.32,2.29625 0,1.58125 -0.44,2.2825 -1.32,2.2825 -0.88,0 -1.32,-0.67375 -1.32,-2.29625 0,-1.58125 0.44,-2.2825 1.32,-2.2825 z" />
          <path
             id="path110"
             style="font-style:normal;font-variant:normal;font-weight:bold;font-stretch:normal;font-size:13.75px;line-height:1.25;font-family:'Fira Sans';-inkscape-font-specification:'Fira Sans Bold'"
             d="m 185.41385,232.92148 c -0.9075,0 -1.60875,0.37125 -2.2275,1.1 l -0.15125,-0.86625 h -1.8975 v 7.30125 h 2.1725 v -4.99125 c 0.385,-0.605 0.78375,-0.94875 1.265,-0.94875 0.42625,0 0.6875,0.20625 0.6875,0.97625 v 4.96375 h 2.1725 v -5.335 c 0,-1.38875 -0.75625,-2.2 -2.02125,-2.2 z" />
          <path
             id="path112"
             style="font-style:normal;font-variant:normal;font-weight:bold;font-stretch:normal;font-size:13.75px;line-height:1.25;font-family:'Fira Sans';-inkscape-font-specification:'Fira Sans Bold'"
             d="m 196.15947,238.73773 c -0.28875,0.165 -0.53625,0.23375 -0.78375,0.23375 -0.45375,0 -0.6875,-0.2475 -0.6875,-0.94875 v -3.355 h 1.44375 l 0.23375,-1.5125 h -1.6775 v -1.82875 l -2.1725,0.2475 v 1.58125 h -1.03125 v 1.5125 h 1.03125 v 3.3825 c 0,1.71875 0.78375,2.62625 2.3925,2.64 0.66,0 1.43,-0.1925 1.98,-0.5775 z" />
          <path
             id="path114"
             style="font-style:normal;font-variant:normal;font-weight:bold;font-stretch:normal;font-size:13.75px;line-height:1.25;font-family:'Fira Sans';-inkscape-font-specification:'Fira Sans Bold'"
             d="m 200.54765,232.92148 c -2.2275,0 -3.575,1.54 -3.575,3.8775 0,2.46125 1.36125,3.89125 3.575,3.89125 2.2275,0 3.575,-1.54 3.575,-3.8775 0,-2.46125 -1.3475,-3.89125 -3.575,-3.89125 z m 0,1.595 c 0.88,0 1.32,0.67375 1.32,2.29625 0,1.58125 -0.44,2.2825 -1.32,2.2825 -0.88,0 -1.32,-0.67375 -1.32,-2.29625 0,-1.58125 0.44,-2.2825 1.32,-2.2825 z" />
          <path
             id="path116"
             style="font-style:normal;font-variant:normal;font-weight:bold;font-stretch:normal;font-size:13.75px;line-height:1.25;font-family:'Fira Sans';-inkscape-font-specification:'Fira Sans Bold'"
             d="m 209.26494,238.73773 c -0.28875,0.165 -0.53625,0.23375 -0.78375,0.23375 -0.45375,0 -0.6875,-0.2475 -0.6875,-0.94875 v -3.355 h 1.44375 l 0.23375,-1.5125 h -1.6775 v -1.82875 l -2.1725,0.2475 v 1.58125 h -1.03125 v 1.5125 h 1.03125 v 3.3825 c 0,1.71875 0.78375,2.62625 2.3925,2.64 0.66,0 1.43,-0.1925 1.98,-0.5775 z" />
          <path
             id="path118"
             style="font-style:normal;font-variant:normal;font-weight:bold;font-stretch:normal;font-size:13.75px;line-height:1.25;font-family:'Fira Sans';-inkscape-font-specification:'Fira Sans Bold'"
             d="m 216.37369,238.33898 v -2.8325 c 0,-1.69125 -0.9075,-2.585 -3.025,-2.585 -0.825,0 -1.82875,0.1925 -2.75,0.53625 l 0.495,1.43 c 0.72875,-0.2475 1.44375,-0.385 1.91125,-0.385 0.89375,0 1.2375,0.26125 1.2375,1.1275 v 0.31625 h -0.7425 c -2.21375,0 -3.42375,0.86625 -3.42375,2.46125 0,1.33375 0.92125,2.2825 2.37875,2.2825 0.86625,0 1.6775,-0.28875 2.2,-1.1 0.33,0.72875 0.89375,0.99 1.76,1.05875 l 0.45375,-1.41625 c -0.34375,-0.12375 -0.495,-0.33 -0.495,-0.89375 z m -3.28625,0.7975 c -0.53625,0 -0.8525,-0.34375 -0.8525,-0.92125 0,-0.72875 0.48125,-1.0725 1.47125,-1.0725 h 0.53625 v 1.2925 c -0.26125,0.44 -0.64625,0.70125 -1.155,0.70125 z" />
          <path
             id="path120"
             style="font-style:normal;font-variant:normal;font-weight:bold;font-stretch:normal;font-size:13.75px;line-height:1.25;font-family:'Fira Sans';-inkscape-font-specification:'Fira Sans Bold'"
             d="m 219.92205,240.69023 c 0.5225,0 0.99,-0.11 1.32,-0.2475 l -0.42625,-1.54 c -0.0962,0.0413 -0.20625,0.0688 -0.3575,0.0688 -0.26125,0 -0.37125,-0.15125 -0.37125,-0.45375 v -8.4975 l -2.1725,0.23375 v 8.34625 c 0,1.33375 0.7425,2.09 2.0075,2.09 z" />
          <path
             id="path122"
             style="font-style:normal;font-variant:normal;font-weight:normal;font-stretch:normal;font-size:13.75px;line-height:1.25;font-family:'Fira Mono';-inkscape-font-specification:'Fira Mono'"
             d="m 157.17414,247.34523 c -1.49875,0 -2.64,0.83875 -2.64,2.1725 v 1.44375 h -1.71875 v 0.92125 h 1.71875 v 5.76125 h 1.16875 v -5.76125 h 2.32375 l 0.12375,-0.92125 h -2.4475 v -1.47125 c 0,-0.7975 0.50875,-1.19625 1.5125,-1.19625 0.55,0 1.08625,0.0962 1.55375,0.3025 l 0.37125,-0.86625 c -0.56375,-0.23375 -1.1825,-0.385 -1.96625,-0.385 z" />
          <path
             id="path124"
             style="font-style:normal;font-variant:normal;font-weight:normal;font-stretch:normal;font-size:13.75px;line-height:1.25;font-family:'Fira Mono';-inkscape-font-specification:'Fira Mono'"
             d="m 162.29752,250.39773 h -1.155 v 5.26625 c 0,1.3475 0.6875,2.13125 2.09,2.13125 0.8525,0 1.74625,-0.39875 2.32375,-1.1275 l 0.0962,0.97625 h 0.99 v -7.24625 h -1.155 v 5.335 c -0.39875,0.61875 -1.16875,1.155 -1.96625,1.155 -0.83875,0 -1.22375,-0.4125 -1.22375,-1.3475 z" />
          <path
             id="path126"
             style="font-style:normal;font-variant:normal;font-weight:normal;font-stretch:normal;font-size:13.75px;line-height:1.25;font-family:'Fira Mono';-inkscape-font-specification:'Fira Mono'"
             d="m 172.21965,247.48273 h -3.3825 v 0.92125 h 2.2275 v 7.3975 c 0,1.25125 0.86625,1.99375 2.145,1.99375 0.7425,0 1.33375,-0.165 1.71875,-0.37125 l -0.3025,-0.83875 c -0.39875,0.15125 -0.78375,0.2475 -1.21,0.2475 -0.70125,0 -1.19625,-0.26125 -1.19625,-0.97625 z" />
          <path
             id="path128"
             style="font-style:normal;font-variant:normal;font-weight:normal;font-stretch:normal;font-size:13.75px;line-height:1.25;font-family:'Fira Mono';-inkscape-font-specification:'Fira Mono'"
             d="m 180.46427,247.48273 h -3.3825 v 0.92125 h 2.2275 v 7.3975 c 0,1.25125 0.86625,1.99375 2.145,1.99375 0.7425,0 1.33375,-0.165 1.71875,-0.37125 l -0.3025,-0.83875 c -0.39875,0.15125 -0.78375,0.2475 -1.21,0.2475 -0.70125,0 -1.19625,-0.26125 -1.19625,-0.97625 z" />
          <path
             id="path130"
             style="font-style:normal;font-variant:normal;font-weight:normal;font-stretch:normal;font-size:13.75px;line-height:1.25;font-family:'Fira Mono';-inkscape-font-specification:'Fira Mono'"
             d="m 185.1889,260.14648 h 6.875 v -1.0175 h -6.875 z" />
          <path
             id="path132"
             style="font-style:normal;font-variant:normal;font-weight:normal;font-stretch:normal;font-size:13.75px;line-height:1.25;font-family:'Fira Mono';-inkscape-font-specification:'Fira Mono'"
             d="m 197.79228,247.01523 c -0.495,0 -0.83875,0.34375 -0.83875,0.81125 0,0.4675 0.34375,0.81125 0.83875,0.81125 0.50875,0 0.83875,-0.34375 0.83875,-0.81125 0,-0.4675 -0.33,-0.81125 -0.83875,-0.81125 z m 1.0725,3.3825 h -4.16625 v 0.92125 h 3.01125 v 5.23875 c 0,1.9525 -1.5125,2.75 -3.64375,3.1075 l 0.1925,0.89375 c 2.915,-0.495 4.60625,-1.65 4.60625,-4.07 z" />
          <path
             id="path134"
             style="font-style:normal;font-variant:normal;font-weight:normal;font-stretch:normal;font-size:13.75px;line-height:1.25;font-family:'Fira Mono';-inkscape-font-specification:'Fira Mono'"
             d="m 205.12941,250.24648 c -2.035,0 -3.135,1.55375 -3.135,3.78125 0,2.2825 1.08625,3.7675 3.12125,3.7675 2.02125,0 3.12125,-1.55375 3.12125,-3.78125 0,-2.2825 -1.0725,-3.7675 -3.1075,-3.7675 z m 0,0.94875 c 1.2375,0 1.85625,0.9075 1.85625,2.81875 0,1.93875 -0.61875,2.8325 -1.87,2.8325 -1.25125,0 -1.87,-0.89375 -1.87,-2.81875 0,-1.925 0.6325,-2.8325 1.88375,-2.8325 z" />
          <path
             id="path136"
             style="font-style:normal;font-variant:normal;font-weight:normal;font-stretch:normal;font-size:13.75px;line-height:1.25;font-family:'Fira Mono';-inkscape-font-specification:'Fira Mono'"
             d="m 213.36029,247.01523 c -0.495,0 -0.825,0.34375 -0.825,0.81125 0,0.4675 0.33,0.81125 0.825,0.81125 0.50875,0 0.8525,-0.34375 0.8525,-0.81125 0,-0.4675 -0.34375,-0.81125 -0.8525,-0.81125 z m 0.92125,3.3825 h -3.31375 v 0.92125 h 2.15875 v 5.40375 h -2.2275 v 0.92125 h 5.4175 v -0.92125 h -2.035 z" />
          <path
             id="path138"
             style="font-style:normal;font-variant:normal;font-weight:normal;font-stretch:normal;font-size:13.75px;line-height:1.25;font-family:'Fira Mono';-inkscape-font-specification:'Fira Mono'"
             d="m 218.85492,257.64398 h 1.155 v -5.26625 c 0.385,-0.5775 1.11375,-1.21 1.96625,-1.21 1.08625,0 1.2375,0.59125 1.2375,2.07625 v 4.4 h 1.155 v -5.2525 c 0,-1.3475 -0.61875,-2.145 -2.035,-2.145 -0.8525,0 -1.815,0.42625 -2.3925,1.16875 l -0.0962,-1.0175 h -0.99 z" />
          <path
             id="path140"
             style="font-style:normal;font-variant:normal;font-weight:normal;font-stretch:normal;font-size:13.75px;line-height:1.25;font-family:'Fira Mono';-inkscape-font-specification:'Fira Mono'"
             d="m 228.6533,252.83148 c 0,-2.8875 0.94875,-4.345 2.92875,-6.105 l -0.59125,-0.6325 c -2.24125,1.82875 -3.5475,3.6025 -3.5475,6.7375 0,3.135 1.30625,4.90875 3.5475,6.7375 l 0.59125,-0.6325 c -1.9525,-1.74625 -2.92875,-3.23125 -2.92875,-6.105 z" />
          <path
             id="path142"
             style="font-style:normal;font-variant:normal;font-weight:normal;font-stretch:normal;font-size:13.75px;line-height:1.25;font-family:'Fira Mono';-inkscape-font-specification:'Fira Mono'"
             d="m 236.05918,257.64398 1.99375,-3.1075 1.99375,3.1075 h 1.4025 l -2.6675,-3.8775 2.35125,-3.36875 h -1.33375 l -1.69125,2.695 -1.6775,-2.695 h -1.375 l 2.35125,3.42375 -2.6675,3.8225 z" />
          <path
             id="path144"
             style="font-style:normal;font-variant:normal;font-weight:normal;font-stretch:normal;font-size:13.75px;line-height:1.25;font-family:'Fira Mono';-inkscape-font-specification:'Fira Mono'"
             d="m 246.33881,255.37523 c -0.61875,0 -1.1,0.495 -1.1,1.11375 0,0.3575 0.17875,0.715 0.44,0.9075 l -0.64625,2.70875 h 1.045 l 1.11375,-2.54375 c 0.1925,-0.42625 0.26125,-0.7425 0.26125,-1.08625 0,-0.605 -0.48125,-1.1 -1.11375,-1.1 z" />
          <path
             id="path146"
             style="font-style:normal;font-variant:normal;font-weight:normal;font-stretch:normal;font-size:13.75px;line-height:1.25;font-family:'Fira Mono';-inkscape-font-specification:'Fira Mono'"
             d="m 257.85594,250.39773 h -1.19625 l -2.04875,6.36625 -2.07625,-6.36625 h -1.22375 l 2.51625,7.24625 h 0.385 c -0.37125,1.11375 -0.81125,1.7325 -2.29625,1.99375 l 0.165,0.92125 c 1.925,-0.20625 2.73625,-1.38875 3.245,-2.87375 z" />
          <path
             id="path148"
             style="font-style:normal;font-variant:normal;font-weight:normal;font-stretch:normal;font-size:13.75px;line-height:1.25;font-family:'Fira Mono';-inkscape-font-specification:'Fira Mono'"
             d="m 264.02431,252.83148 c 0,2.87375 -0.97625,4.35875 -2.92875,6.105 l 0.59125,0.6325 c 2.24125,-1.82875 3.5475,-3.6025 3.5475,-6.7375 0,-3.135 -1.30625,-4.90875 -3.5475,-6.7375 l -0.59125,0.6325 c 1.98,1.76 2.92875,3.2175 2.92875,6.105 z" />
        </g>
        <path
           id="circle4521"
           d="M 85.806641,212.95898 A 30,30 0 0 0 73.740234,236.96875 30,30 0 0 0 85.816406,260.97852 30,30 0 0 0 97.880859,236.96875 30,30 0 0 0 85.806641,212.95898 Z"
           style="fill:#cccccc;fill-opacity:1;stroke:#000000;stroke-width:1;stroke-miterlimit:4;stroke-dasharray:none" />
      </g>
    </g>
    <g
       transform="translate(2.448447)"
       id="g4435">
      <g
         id="g4333"
         transform="translate(256.95756)">
        <g
           id="g4335">
          <path
             id="circle4337"
             d="m 97.880714,158.1767 a 30,30 0 0 1 -30,30 30,30 0 0 1 -30,-30 30,30 0 0 1 30,-30 30,30 0 0 1 30,30 z"
             style="fill:#cccccc;fill-opacity:1;stroke:#000000;stroke-width:1;stroke-miterlimit:4;stroke-dasharray:none" />
          <path
             id="circle4339"
             d="m 133.74113,158.1767 a 30,30 0 0 1 -30,30 30,30 0 0 1 -30.000003,-30 30,30 0 0 1 30.000003,-30 30,30 0 0 1 30,30 z"
             style="fill:none;fill-opacity:1;stroke:#000000;stroke-width:1;stroke-miterlimit:4;stroke-dasharray:none" />
          <g
             id="text4341"
             style="font-style:normal;font-weight:normal;line-height:0%;font-family:sans-serif;letter-spacing:0px;word-spacing:0px;fill:#000000;fill-opacity:1;stroke:none;stroke-width:1px;stroke-linecap:butt;stroke-linejoin:miter;stroke-opacity:1"
             aria-label="Unión por la izquierda
left_join(x,y)">
            <path
               id="path153"
               style="font-style:normal;font-variant:normal;font-weight:bold;font-stretch:normal;font-size:13.75px;line-height:1.25;font-family:'Fira Sans';-inkscape-font-specification:'Fira Sans Bold'"
               d="m 159.71789,152.1358 h -2.255 v 6.27 c 0,1.22375 -0.44,1.815 -1.47125,1.815 -1.0175,0 -1.4575,-0.59125 -1.4575,-1.815 v -6.27 h -2.255 v 6.36625 c 0,2.0075 1.22375,3.39625 3.7125,3.39625 2.48875,0 3.72625,-1.47125 3.72625,-3.39625 z" />
            <path
               id="path155"
               style="font-style:normal;font-variant:normal;font-weight:bold;font-stretch:normal;font-size:13.75px;line-height:1.25;font-family:'Fira Sans';-inkscape-font-specification:'Fira Sans Bold'"
               d="m 165.59451,154.12955 c -0.9075,0 -1.60875,0.37125 -2.2275,1.1 l -0.15125,-0.86625 h -1.8975 v 7.30125 h 2.1725 v -4.99125 c 0.385,-0.605 0.78375,-0.94875 1.265,-0.94875 0.42625,0 0.6875,0.20625 0.6875,0.97625 v 4.96375 h 2.1725 v -5.335 c 0,-1.38875 -0.75625,-2.2 -2.02125,-2.2 z" />
            <path
               id="path157"
               style="font-style:normal;font-variant:normal;font-weight:bold;font-stretch:normal;font-size:13.75px;line-height:1.25;font-family:'Fira Sans';-inkscape-font-specification:'Fira Sans Bold'"
               d="m 170.31312,150.5133 c -0.75625,0 -1.27875,0.53625 -1.27875,1.2375 0,0.70125 0.5225,1.2375 1.27875,1.2375 0.75625,0 1.2925,-0.53625 1.2925,-1.2375 0,-0.70125 -0.53625,-1.2375 -1.2925,-1.2375 z m 1.1,3.85 h -2.1725 v 7.30125 h 2.1725 z" />
            <path
               id="path159"
               style="font-style:normal;font-variant:normal;font-weight:bold;font-stretch:normal;font-size:13.75px;line-height:1.25;font-family:'Fira Sans';-inkscape-font-specification:'Fira Sans Bold'"
               d="m 177.26031,150.1833 -2.9975,1.815 0.605,1.11375 3.245,-1.30625 z m -0.99,3.94625 c -2.2275,0 -3.575,1.54 -3.575,3.8775 0,2.46125 1.36125,3.89125 3.575,3.89125 2.2275,0 3.575,-1.54 3.575,-3.8775 0,-2.46125 -1.3475,-3.89125 -3.575,-3.89125 z m 0,1.595 c 0.88,0 1.32,0.67375 1.32,2.29625 0,1.58125 -0.44,2.2825 -1.32,2.2825 -0.88,0 -1.32,-0.67375 -1.32,-2.29625 0,-1.58125 0.44,-2.2825 1.32,-2.2825 z" />
            <path
               id="path161"
               style="font-style:normal;font-variant:normal;font-weight:bold;font-stretch:normal;font-size:13.75px;line-height:1.25;font-family:'Fira Sans';-inkscape-font-specification:'Fira Sans Bold'"
               d="m 185.41385,154.12955 c -0.9075,0 -1.60875,0.37125 -2.2275,1.1 l -0.15125,-0.86625 h -1.8975 v 7.30125 h 2.1725 v -4.99125 c 0.385,-0.605 0.78375,-0.94875 1.265,-0.94875 0.42625,0 0.6875,0.20625 0.6875,0.97625 v 4.96375 h 2.1725 v -5.335 c 0,-1.38875 -0.75625,-2.2 -2.02125,-2.2 z" />
            <path
               id="path163"
               style="font-style:normal;font-variant:normal;font-weight:bold;font-stretch:normal;font-size:13.75px;line-height:1.25;font-family:'Fira Sans';-inkscape-font-specification:'Fira Sans Bold'"
               d="m 196.43447,154.12955 c -0.715,0 -1.49875,0.28875 -2.10375,1.045 l -0.11,-0.81125 h -1.91125 v 10.35375 l 2.1725,-0.23375 v -3.34125 c 0.45375,0.50875 1.05875,0.75625 1.77375,0.75625 1.80125,0 2.90125,-1.65 2.90125,-3.905 0,-2.365 -0.83875,-3.86375 -2.7225,-3.86375 z m -0.83875,6.17375 c -0.45375,0 -0.81125,-0.20625 -1.11375,-0.64625 v -3.08 c 0.31625,-0.53625 0.75625,-0.8525 1.265,-0.8525 0.715,0 1.155,0.48125 1.155,2.29625 0,1.63625 -0.495,2.2825 -1.30625,2.2825 z" />
            <path
               id="path165"
               style="font-style:normal;font-variant:normal;font-weight:bold;font-stretch:normal;font-size:13.75px;line-height:1.25;font-family:'Fira Sans';-inkscape-font-specification:'Fira Sans Bold'"
               d="m 203.68974,154.12955 c -2.2275,0 -3.575,1.54 -3.575,3.8775 0,2.46125 1.36125,3.89125 3.575,3.89125 2.2275,0 3.575,-1.54 3.575,-3.8775 0,-2.46125 -1.3475,-3.89125 -3.575,-3.89125 z m 0,1.595 c 0.88,0 1.32,0.67375 1.32,2.29625 0,1.58125 -0.44,2.2825 -1.32,2.2825 -0.88,0 -1.32,-0.67375 -1.32,-2.29625 0,-1.58125 0.44,-2.2825 1.32,-2.2825 z" />
            <path
               id="path167"
               style="font-style:normal;font-variant:normal;font-weight:bold;font-stretch:normal;font-size:13.75px;line-height:1.25;font-family:'Fira Sans';-inkscape-font-specification:'Fira Sans Bold'"
               d="m 212.51703,154.15705 c -0.83875,0 -1.55375,0.605 -1.88375,1.6225 l -0.17875,-1.41625 h -1.8975 v 7.30125 h 2.1725 v -3.61625 c 0.23375,-1.11375 0.605,-1.7875 1.5125,-1.7875 0.2475,0 0.42625,0.0413 0.66,0.0962 l 0.34375,-2.10375 c -0.23375,-0.0687 -0.45375,-0.0962 -0.72875,-0.0962 z" />
            <path
               id="path169"
               style="font-style:normal;font-variant:normal;font-weight:bold;font-stretch:normal;font-size:13.75px;line-height:1.25;font-family:'Fira Sans';-inkscape-font-specification:'Fira Sans Bold'"
               d="m 219.25066,161.8983 c 0.5225,0 0.99,-0.11 1.32,-0.2475 l -0.42625,-1.54 c -0.0962,0.0412 -0.20625,0.0687 -0.3575,0.0687 -0.26125,0 -0.37125,-0.15125 -0.37125,-0.45375 v -8.4975 l -2.1725,0.23375 v 8.34625 c 0,1.33375 0.7425,2.09 2.0075,2.09 z" />
            <path
               id="path171"
               style="font-style:normal;font-variant:normal;font-weight:bold;font-stretch:normal;font-size:13.75px;line-height:1.25;font-family:'Fira Sans';-inkscape-font-specification:'Fira Sans Bold'"
               d="m 227.11588,159.54705 v -2.8325 c 0,-1.69125 -0.9075,-2.585 -3.025,-2.585 -0.825,0 -1.82875,0.1925 -2.75,0.53625 l 0.495,1.43 c 0.72875,-0.2475 1.44375,-0.385 1.91125,-0.385 0.89375,0 1.2375,0.26125 1.2375,1.1275 v 0.31625 h -0.7425 c -2.21375,0 -3.42375,0.86625 -3.42375,2.46125 0,1.33375 0.92125,2.2825 2.37875,2.2825 0.86625,0 1.6775,-0.28875 2.2,-1.1 0.33,0.72875 0.89375,0.99 1.76,1.05875 l 0.45375,-1.41625 c -0.34375,-0.12375 -0.495,-0.33 -0.495,-0.89375 z m -3.28625,0.7975 c -0.53625,0 -0.8525,-0.34375 -0.8525,-0.92125 0,-0.72875 0.48125,-1.0725 1.47125,-1.0725 h 0.53625 v 1.2925 c -0.26125,0.44 -0.64625,0.70125 -1.155,0.70125 z" />
            <path
               id="path173"
               style="font-style:normal;font-variant:normal;font-weight:bold;font-stretch:normal;font-size:13.75px;line-height:1.25;font-family:'Fira Sans';-inkscape-font-specification:'Fira Sans Bold'"
               d="m 233.18177,150.5133 c -0.75625,0 -1.27875,0.53625 -1.27875,1.2375 0,0.70125 0.5225,1.2375 1.27875,1.2375 0.75625,0 1.2925,-0.53625 1.2925,-1.2375 0,-0.70125 -0.53625,-1.2375 -1.2925,-1.2375 z m 1.1,3.85 h -2.1725 v 7.30125 h 2.1725 z" />
            <path
               id="path175"
               style="font-style:normal;font-variant:normal;font-weight:bold;font-stretch:normal;font-size:13.75px;line-height:1.25;font-family:'Fira Sans';-inkscape-font-specification:'Fira Sans Bold'"
               d="m 241.11896,154.3633 h -5.5275 v 1.63625 h 3.025 l -3.31375,4.125 v 1.54 h 5.6925 l 0.1925,-1.65 h -3.36875 l 3.3,-4.125 z" />
            <path
               id="path177"
               style="font-style:normal;font-variant:normal;font-weight:bold;font-stretch:normal;font-size:13.75px;line-height:1.25;font-family:'Fira Sans';-inkscape-font-specification:'Fira Sans Bold'"
               d="m 246.80072,154.3633 -0.11,0.6325 c -0.50875,-0.5775 -1.1275,-0.86625 -1.88375,-0.86625 -1.82875,0 -2.9975,1.60875 -2.9975,3.86375 0,2.365 0.92125,3.905 2.7775,3.905 0.89375,0 1.5125,-0.385 1.93875,-0.935 v 3.52 l 2.1725,0.23375 V 154.3633 Z m -1.54,5.94 c -0.70125,0 -1.19625,-0.48125 -1.19625,-2.29625 0,-1.63625 0.55,-2.29625 1.33375,-2.29625 0.48125,0 0.7975,0.23375 1.1275,0.61875 v 3.14875 c -0.34375,0.55 -0.7425,0.825 -1.265,0.825 z" />
            <path
               id="path179"
               style="font-style:normal;font-variant:normal;font-weight:bold;font-stretch:normal;font-size:13.75px;line-height:1.25;font-family:'Fira Sans';-inkscape-font-specification:'Fira Sans Bold'"
               d="m 256.55785,154.3633 h -2.1725 v 5.07375 c -0.31625,0.55 -0.72875,0.8525 -1.1825,0.8525 -0.45375,0 -0.70125,-0.22 -0.70125,-0.9625 v -4.96375 h -2.1725 v 5.23875 c 0,1.41625 0.67375,2.29625 2.035,2.29625 0.9625,0 1.6775,-0.385 2.21375,-1.155 l 0.0962,0.92125 h 1.88375 z" />
            <path
               id="path181"
               style="font-style:normal;font-variant:normal;font-weight:bold;font-stretch:normal;font-size:13.75px;line-height:1.25;font-family:'Fira Sans';-inkscape-font-specification:'Fira Sans Bold'"
               d="m 259.339,150.5133 c -0.75625,0 -1.27875,0.53625 -1.27875,1.2375 0,0.70125 0.5225,1.2375 1.27875,1.2375 0.75625,0 1.2925,-0.53625 1.2925,-1.2375 0,-0.70125 -0.53625,-1.2375 -1.2925,-1.2375 z m 1.1,3.85 h -2.1725 v 7.30125 h 2.1725 z" />
            <path
               id="path183"
               style="font-style:normal;font-variant:normal;font-weight:bold;font-stretch:normal;font-size:13.75px;line-height:1.25;font-family:'Fira Sans';-inkscape-font-specification:'Fira Sans Bold'"
               d="m 268.49994,157.86955 c 0,-2.365 -1.27875,-3.74 -3.36875,-3.74 -2.21375,0 -3.41,1.7325 -3.41,3.91875 0,2.2825 1.2375,3.85 3.67125,3.85 1.1825,0 2.1175,-0.44 2.84625,-1.0175 l -0.89375,-1.21 c -0.6325,0.44 -1.155,0.64625 -1.74625,0.64625 -0.89375,0 -1.5125,-0.3575 -1.66375,-1.66375 h 4.52375 c 0.0275,-0.22 0.0412,-0.55 0.0412,-0.78375 z m -2.13125,-0.5225 h -2.43375 c 0.0962,-1.30625 0.5225,-1.77375 1.25125,-1.77375 0.86625,0 1.16875,0.6875 1.1825,1.6775 z" />
            <path
               id="path185"
               style="font-style:normal;font-variant:normal;font-weight:bold;font-stretch:normal;font-size:13.75px;line-height:1.25;font-family:'Fira Sans';-inkscape-font-specification:'Fira Sans Bold'"
               d="m 273.69379,154.15705 c -0.83875,0 -1.55375,0.605 -1.88375,1.6225 l -0.17875,-1.41625 h -1.8975 v 7.30125 h 2.1725 v -3.61625 c 0.23375,-1.11375 0.605,-1.7875 1.5125,-1.7875 0.2475,0 0.42625,0.0413 0.66,0.0962 l 0.34375,-2.10375 c -0.23375,-0.0687 -0.45375,-0.0962 -0.72875,-0.0962 z" />
            <path
               id="path187"
               style="font-style:normal;font-variant:normal;font-weight:bold;font-stretch:normal;font-size:13.75px;line-height:1.25;font-family:'Fira Sans';-inkscape-font-specification:'Fira Sans Bold'"
               d="m 279.20883,151.2283 v 3.58875 c -0.42625,-0.42625 -1.0175,-0.6875 -1.7325,-0.6875 -1.80125,0 -2.98375,1.60875 -2.98375,3.86375 0,2.365 0.92125,3.905 2.7775,3.905 0.99,0 1.65,-0.48125 2.07625,-1.08625 l 0.11,0.8525 h 1.925 v -10.2025 z m -1.265,9.075 c -0.70125,0 -1.19625,-0.48125 -1.19625,-2.29625 0,-1.63625 0.55,-2.29625 1.32,-2.29625 0.48125,0 0.81125,0.23375 1.14125,0.61875 v 3.14875 c -0.34375,0.55 -0.7425,0.825 -1.265,0.825 z" />
            <path
               id="path189"
               style="font-style:normal;font-variant:normal;font-weight:bold;font-stretch:normal;font-size:13.75px;line-height:1.25;font-family:'Fira Sans';-inkscape-font-specification:'Fira Sans Bold'"
               d="m 288.88345,159.54705 v -2.8325 c 0,-1.69125 -0.9075,-2.585 -3.025,-2.585 -0.825,0 -1.82875,0.1925 -2.75,0.53625 l 0.495,1.43 c 0.72875,-0.2475 1.44375,-0.385 1.91125,-0.385 0.89375,0 1.2375,0.26125 1.2375,1.1275 v 0.31625 h -0.7425 c -2.21375,0 -3.42375,0.86625 -3.42375,2.46125 0,1.33375 0.92125,2.2825 2.37875,2.2825 0.86625,0 1.6775,-0.28875 2.2,-1.1 0.33,0.72875 0.89375,0.99 1.76,1.05875 l 0.45375,-1.41625 c -0.34375,-0.12375 -0.495,-0.33 -0.495,-0.89375 z m -3.28625,0.7975 c -0.53625,0 -0.8525,-0.34375 -0.8525,-0.92125 0,-0.72875 0.48125,-1.0725 1.47125,-1.0725 h 0.53625 v 1.2925 c -0.26125,0.44 -0.64625,0.70125 -1.155,0.70125 z" />
            <path
               id="path191"
               style="font-style:normal;font-variant:normal;font-weight:normal;font-stretch:normal;font-size:13.75px;line-height:1.25;font-family:'Fira Mono';-inkscape-font-specification:'Fira Mono'"
               d="m 155.73039,168.6908 h -3.3825 v 0.92125 h 2.2275 v 7.3975 c 0,1.25125 0.86625,1.99375 2.145,1.99375 0.7425,0 1.33375,-0.165 1.71875,-0.37125 l -0.3025,-0.83875 c -0.39875,0.15125 -0.78375,0.2475 -1.21,0.2475 -0.70125,0 -1.19625,-0.26125 -1.19625,-0.97625 z" />
            <path
               id="path193"
               style="font-style:normal;font-variant:normal;font-weight:normal;font-stretch:normal;font-size:13.75px;line-height:1.25;font-family:'Fira Mono';-inkscape-font-specification:'Fira Mono'"
               d="m 162.06377,175.63455 h 4.8675 c 0.0137,-0.15125 0.0275,-0.37125 0.0275,-0.61875 0,-2.2 -1.1275,-3.56125 -2.95625,-3.56125 -1.925,0 -3.14875,1.595 -3.14875,3.78125 0,2.255 1.19625,3.7675 3.31375,3.7675 0.89375,0 1.80125,-0.31625 2.475,-0.83875 l -0.53625,-0.77 c -0.64625,0.42625 -1.19625,0.64625 -1.93875,0.64625 -1.11375,0 -2.04875,-0.72875 -2.10375,-2.40625 z m 1.9525,-3.23125 c 1.1,0 1.7875,0.7975 1.815,2.35125 h -3.7675 c 0.0962,-1.595 0.88,-2.35125 1.9525,-2.35125 z" />
            <path
               id="path195"
               style="font-style:normal;font-variant:normal;font-weight:normal;font-stretch:normal;font-size:13.75px;line-height:1.25;font-family:'Fira Mono';-inkscape-font-specification:'Fira Mono'"
               d="m 173.6634,168.5533 c -1.49875,0 -2.64,0.83875 -2.64,2.1725 v 1.44375 h -1.71875 v 0.92125 h 1.71875 v 5.76125 h 1.16875 v -5.76125 h 2.32375 l 0.12375,-0.92125 h -2.4475 v -1.47125 c 0,-0.7975 0.50875,-1.19625 1.5125,-1.19625 0.55,0 1.08625,0.0962 1.55375,0.3025 l 0.37125,-0.86625 c -0.56375,-0.23375 -1.1825,-0.385 -1.96625,-0.385 z" />
            <path
               id="path197"
               style="font-style:normal;font-variant:normal;font-weight:normal;font-stretch:normal;font-size:13.75px;line-height:1.25;font-family:'Fira Mono';-inkscape-font-specification:'Fira Mono'"
               d="m 183.39302,178.4808 -0.45375,-0.78375 c -0.385,0.20625 -0.8525,0.34375 -1.38875,0.34375 -0.99,0 -1.38875,-0.42625 -1.38875,-1.22375 v -4.30375 h 2.365 l 0.15125,-0.9075 h -2.51625 v -1.77375 l -1.155,0.1375 v 1.63625 h -1.66375 v 0.9075 h 1.66375 v 4.3175 c 0,1.265 0.88,2.1725 2.43375,2.1725 0.6875,0 1.44375,-0.1925 1.9525,-0.5225 z" />
            <path
               id="path199"
               style="font-style:normal;font-variant:normal;font-weight:normal;font-stretch:normal;font-size:13.75px;line-height:1.25;font-family:'Fira Mono';-inkscape-font-specification:'Fira Mono'"
               d="m 185.1889,181.35455 h 6.875 v -1.0175 h -6.875 z" />
            <path
               id="path201"
               style="font-style:normal;font-variant:normal;font-weight:normal;font-stretch:normal;font-size:13.75px;line-height:1.25;font-family:'Fira Mono';-inkscape-font-specification:'Fira Mono'"
               d="m 197.79228,168.2233 c -0.495,0 -0.83875,0.34375 -0.83875,0.81125 0,0.4675 0.34375,0.81125 0.83875,0.81125 0.50875,0 0.83875,-0.34375 0.83875,-0.81125 0,-0.4675 -0.33,-0.81125 -0.83875,-0.81125 z m 1.0725,3.3825 h -4.16625 v 0.92125 h 3.01125 v 5.23875 c 0,1.9525 -1.5125,2.75 -3.64375,3.1075 l 0.1925,0.89375 c 2.915,-0.495 4.60625,-1.65 4.60625,-4.07 z" />
            <path
               id="path203"
               style="font-style:normal;font-variant:normal;font-weight:normal;font-stretch:normal;font-size:13.75px;line-height:1.25;font-family:'Fira Mono';-inkscape-font-specification:'Fira Mono'"
               d="m 205.12941,171.45455 c -2.035,0 -3.135,1.55375 -3.135,3.78125 0,2.2825 1.08625,3.7675 3.12125,3.7675 2.02125,0 3.12125,-1.55375 3.12125,-3.78125 0,-2.2825 -1.0725,-3.7675 -3.1075,-3.7675 z m 0,0.94875 c 1.2375,0 1.85625,0.9075 1.85625,2.81875 0,1.93875 -0.61875,2.8325 -1.87,2.8325 -1.25125,0 -1.87,-0.89375 -1.87,-2.81875 0,-1.925 0.6325,-2.8325 1.88375,-2.8325 z" />
            <path
               id="path205"
               style="font-style:normal;font-variant:normal;font-weight:normal;font-stretch:normal;font-size:13.75px;line-height:1.25;font-family:'Fira Mono';-inkscape-font-specification:'Fira Mono'"
               d="m 213.36029,168.2233 c -0.495,0 -0.825,0.34375 -0.825,0.81125 0,0.4675 0.33,0.81125 0.825,0.81125 0.50875,0 0.8525,-0.34375 0.8525,-0.81125 0,-0.4675 -0.34375,-0.81125 -0.8525,-0.81125 z m 0.92125,3.3825 h -3.31375 v 0.92125 h 2.15875 v 5.40375 h -2.2275 v 0.92125 h 5.4175 v -0.92125 h -2.035 z" />
            <path
               id="path207"
               style="font-style:normal;font-variant:normal;font-weight:normal;font-stretch:normal;font-size:13.75px;line-height:1.25;font-family:'Fira Mono';-inkscape-font-specification:'Fira Mono'"
               d="m 218.85492,178.85205 h 1.155 v -5.26625 c 0.385,-0.5775 1.11375,-1.21 1.96625,-1.21 1.08625,0 1.2375,0.59125 1.2375,2.07625 v 4.4 h 1.155 v -5.2525 c 0,-1.3475 -0.61875,-2.145 -2.035,-2.145 -0.8525,0 -1.815,0.42625 -2.3925,1.16875 l -0.0962,-1.0175 h -0.99 z" />
            <path
               id="path209"
               style="font-style:normal;font-variant:normal;font-weight:normal;font-stretch:normal;font-size:13.75px;line-height:1.25;font-family:'Fira Mono';-inkscape-font-specification:'Fira Mono'"
               d="m 228.6533,174.03955 c 0,-2.8875 0.94875,-4.345 2.92875,-6.105 l -0.59125,-0.6325 c -2.24125,1.82875 -3.5475,3.6025 -3.5475,6.7375 0,3.135 1.30625,4.90875 3.5475,6.7375 l 0.59125,-0.6325 c -1.9525,-1.74625 -2.92875,-3.23125 -2.92875,-6.105 z" />
            <path
               id="path211"
               style="font-style:normal;font-variant:normal;font-weight:normal;font-stretch:normal;font-size:13.75px;line-height:1.25;font-family:'Fira Mono';-inkscape-font-specification:'Fira Mono'"
               d="m 236.05918,178.85205 1.99375,-3.1075 1.99375,3.1075 h 1.4025 l -2.6675,-3.8775 2.35125,-3.36875 h -1.33375 l -1.69125,2.695 -1.6775,-2.695 h -1.375 l 2.35125,3.42375 -2.6675,3.8225 z" />
            <path
               id="path213"
               style="font-style:normal;font-variant:normal;font-weight:normal;font-stretch:normal;font-size:13.75px;line-height:1.25;font-family:'Fira Mono';-inkscape-font-specification:'Fira Mono'"
               d="m 246.33881,176.5833 c -0.61875,0 -1.1,0.495 -1.1,1.11375 0,0.3575 0.17875,0.715 0.44,0.9075 l -0.64625,2.70875 h 1.045 l 1.11375,-2.54375 c 0.1925,-0.42625 0.26125,-0.7425 0.26125,-1.08625 0,-0.605 -0.48125,-1.1 -1.11375,-1.1 z" />
            <path
               id="path215"
               style="font-style:normal;font-variant:normal;font-weight:normal;font-stretch:normal;font-size:13.75px;line-height:1.25;font-family:'Fira Mono';-inkscape-font-specification:'Fira Mono'"
               d="m 257.85594,171.6058 h -1.19625 l -2.04875,6.36625 -2.07625,-6.36625 h -1.22375 l 2.51625,7.24625 h 0.385 c -0.37125,1.11375 -0.81125,1.7325 -2.29625,1.99375 l 0.165,0.92125 c 1.925,-0.20625 2.73625,-1.38875 3.245,-2.87375 z" />
            <path
               id="path217"
               style="font-style:normal;font-variant:normal;font-weight:normal;font-stretch:normal;font-size:13.75px;line-height:1.25;font-family:'Fira Mono';-inkscape-font-specification:'Fira Mono'"
               d="m 264.02431,174.03955 c 0,2.87375 -0.97625,4.35875 -2.92875,6.105 l 0.59125,0.6325 c 2.24125,-1.82875 3.5475,-3.6025 3.5475,-6.7375 0,-3.135 -1.30625,-4.90875 -3.5475,-6.7375 l -0.59125,0.6325 c 1.98,1.76 2.92875,3.2175 2.92875,6.105 z" />
          </g>
          <path
             id="circle4536"
             transform="translate(-201.51293)"
             d="m 287.32031,134.16602 a 30,30 0 0 0 -12.0664,24.00976 30,30 0 0 0 12.07421,24.00977 30,30 0 0 0 12.06641,-24.00977 30,30 0 0 0 -12.07422,-24.00976 z"
             style="fill:#cccccc;fill-opacity:1;stroke:#000000;stroke-width:1;stroke-miterlimit:4;stroke-dasharray:none" />
        </g>
      </g>
      <g
         id="g4347"
         transform="translate(256.95756)">
        <path
           style="fill:#e6e6e6;fill-opacity:1;stroke:none;stroke-width:1;stroke-miterlimit:4;stroke-dasharray:none"
           d="M 82.785495,257.2365 C 71.98671,245.88809 71.843204,228.40744 82.456991,217.22103 l 3.177869,-3.34932 1.432926,1.04612 c 0.788109,0.57536 2.570336,2.54671 3.960505,4.38076 8.926914,11.77732 7.809727,28.05332 -2.633503,38.36682 l -2.681356,2.64805 z"
           id="path4349" />
        <path
           id="circle4351"
           d="m 97.880714,236.96863 a 30,30 0 0 1 -30,30 30,30 0 0 1 -30,-30 30,30 0 0 1 30,-30 30,30 0 0 1 30,30 z"
           style="fill:#ffffff;fill-opacity:1;stroke:#000000;stroke-width:1;stroke-miterlimit:4;stroke-dasharray:none" />
        <path
           id="circle4353"
           d="m 133.74113,236.96863 a 30,30 0 0 1 -30,30 30,30 0 0 1 -30.000003,-30 30,30 0 0 1 30.000003,-30 30,30 0 0 1 30,30 z"
           style="fill:#cccccc;fill-opacity:1;stroke:#000000;stroke-width:1;stroke-miterlimit:4;stroke-dasharray:none" />
        <g
           id="text4355"
           style="font-style:normal;font-weight:normal;line-height:0%;font-family:sans-serif;letter-spacing:0px;word-spacing:0px;fill:#000000;fill-opacity:1;stroke:none;stroke-width:1px;stroke-linecap:butt;stroke-linejoin:miter;stroke-opacity:1"
           aria-label="Unión por la derecha
right_join(x,y)">
          <path
             id="path222"
             style="font-style:normal;font-variant:normal;font-weight:bold;font-stretch:normal;font-size:13.75px;line-height:1.25;font-family:'Fira Sans';-inkscape-font-specification:'Fira Sans Bold'"
             d="m 159.71789,230.92773 h -2.255 v 6.27 c 0,1.22375 -0.44,1.815 -1.47125,1.815 -1.0175,0 -1.4575,-0.59125 -1.4575,-1.815 v -6.27 h -2.255 v 6.36625 c 0,2.0075 1.22375,3.39625 3.7125,3.39625 2.48875,0 3.72625,-1.47125 3.72625,-3.39625 z" />
          <path
             id="path224"
             style="font-style:normal;font-variant:normal;font-weight:bold;font-stretch:normal;font-size:13.75px;line-height:1.25;font-family:'Fira Sans';-inkscape-font-specification:'Fira Sans Bold'"
             d="m 165.59451,232.92148 c -0.9075,0 -1.60875,0.37125 -2.2275,1.1 l -0.15125,-0.86625 h -1.8975 v 7.30125 h 2.1725 v -4.99125 c 0.385,-0.605 0.78375,-0.94875 1.265,-0.94875 0.42625,0 0.6875,0.20625 0.6875,0.97625 v 4.96375 h 2.1725 v -5.335 c 0,-1.38875 -0.75625,-2.2 -2.02125,-2.2 z" />
          <path
             id="path226"
             style="font-style:normal;font-variant:normal;font-weight:bold;font-stretch:normal;font-size:13.75px;line-height:1.25;font-family:'Fira Sans';-inkscape-font-specification:'Fira Sans Bold'"
             d="m 170.31312,229.30523 c -0.75625,0 -1.27875,0.53625 -1.27875,1.2375 0,0.70125 0.5225,1.2375 1.27875,1.2375 0.75625,0 1.2925,-0.53625 1.2925,-1.2375 0,-0.70125 -0.53625,-1.2375 -1.2925,-1.2375 z m 1.1,3.85 h -2.1725 v 7.30125 h 2.1725 z" />
          <path
             id="path228"
             style="font-style:normal;font-variant:normal;font-weight:bold;font-stretch:normal;font-size:13.75px;line-height:1.25;font-family:'Fira Sans';-inkscape-font-specification:'Fira Sans Bold'"
             d="m 177.26031,228.97523 -2.9975,1.815 0.605,1.11375 3.245,-1.30625 z m -0.99,3.94625 c -2.2275,0 -3.575,1.54 -3.575,3.8775 0,2.46125 1.36125,3.89125 3.575,3.89125 2.2275,0 3.575,-1.54 3.575,-3.8775 0,-2.46125 -1.3475,-3.89125 -3.575,-3.89125 z m 0,1.595 c 0.88,0 1.32,0.67375 1.32,2.29625 0,1.58125 -0.44,2.2825 -1.32,2.2825 -0.88,0 -1.32,-0.67375 -1.32,-2.29625 0,-1.58125 0.44,-2.2825 1.32,-2.2825 z" />
          <path
             id="path230"
             style="font-style:normal;font-variant:normal;font-weight:bold;font-stretch:normal;font-size:13.75px;line-height:1.25;font-family:'Fira Sans';-inkscape-font-specification:'Fira Sans Bold'"
             d="m 185.41385,232.92148 c -0.9075,0 -1.60875,0.37125 -2.2275,1.1 l -0.15125,-0.86625 h -1.8975 v 7.30125 h 2.1725 v -4.99125 c 0.385,-0.605 0.78375,-0.94875 1.265,-0.94875 0.42625,0 0.6875,0.20625 0.6875,0.97625 v 4.96375 h 2.1725 v -5.335 c 0,-1.38875 -0.75625,-2.2 -2.02125,-2.2 z" />
          <path
             id="path232"
             style="font-style:normal;font-variant:normal;font-weight:bold;font-stretch:normal;font-size:13.75px;line-height:1.25;font-family:'Fira Sans';-inkscape-font-specification:'Fira Sans Bold'"
             d="m 196.43447,232.92148 c -0.715,0 -1.49875,0.28875 -2.10375,1.045 l -0.11,-0.81125 h -1.91125 v 10.35375 l 2.1725,-0.23375 v -3.34125 c 0.45375,0.50875 1.05875,0.75625 1.77375,0.75625 1.80125,0 2.90125,-1.65 2.90125,-3.905 0,-2.365 -0.83875,-3.86375 -2.7225,-3.86375 z m -0.83875,6.17375 c -0.45375,0 -0.81125,-0.20625 -1.11375,-0.64625 v -3.08 c 0.31625,-0.53625 0.75625,-0.8525 1.265,-0.8525 0.715,0 1.155,0.48125 1.155,2.29625 0,1.63625 -0.495,2.2825 -1.30625,2.2825 z" />
          <path
             id="path234"
             style="font-style:normal;font-variant:normal;font-weight:bold;font-stretch:normal;font-size:13.75px;line-height:1.25;font-family:'Fira Sans';-inkscape-font-specification:'Fira Sans Bold'"
             d="m 203.68974,232.92148 c -2.2275,0 -3.575,1.54 -3.575,3.8775 0,2.46125 1.36125,3.89125 3.575,3.89125 2.2275,0 3.575,-1.54 3.575,-3.8775 0,-2.46125 -1.3475,-3.89125 -3.575,-3.89125 z m 0,1.595 c 0.88,0 1.32,0.67375 1.32,2.29625 0,1.58125 -0.44,2.2825 -1.32,2.2825 -0.88,0 -1.32,-0.67375 -1.32,-2.29625 0,-1.58125 0.44,-2.2825 1.32,-2.2825 z" />
          <path
             id="path236"
             style="font-style:normal;font-variant:normal;font-weight:bold;font-stretch:normal;font-size:13.75px;line-height:1.25;font-family:'Fira Sans';-inkscape-font-specification:'Fira Sans Bold'"
             d="m 212.51703,232.94898 c -0.83875,0 -1.55375,0.605 -1.88375,1.6225 l -0.17875,-1.41625 h -1.8975 v 7.30125 h 2.1725 v -3.61625 c 0.23375,-1.11375 0.605,-1.7875 1.5125,-1.7875 0.2475,0 0.42625,0.0412 0.66,0.0962 l 0.34375,-2.10375 c -0.23375,-0.0687 -0.45375,-0.0962 -0.72875,-0.0962 z" />
          <path
             id="path238"
             style="font-style:normal;font-variant:normal;font-weight:bold;font-stretch:normal;font-size:13.75px;line-height:1.25;font-family:'Fira Sans';-inkscape-font-specification:'Fira Sans Bold'"
             d="m 219.25066,240.69023 c 0.5225,0 0.99,-0.11 1.32,-0.2475 l -0.42625,-1.54 c -0.0962,0.0413 -0.20625,0.0688 -0.3575,0.0688 -0.26125,0 -0.37125,-0.15125 -0.37125,-0.45375 v -8.4975 l -2.1725,0.23375 v 8.34625 c 0,1.33375 0.7425,2.09 2.0075,2.09 z" />
          <path
             id="path240"
             style="font-style:normal;font-variant:normal;font-weight:bold;font-stretch:normal;font-size:13.75px;line-height:1.25;font-family:'Fira Sans';-inkscape-font-specification:'Fira Sans Bold'"
             d="m 227.11588,238.33898 v -2.8325 c 0,-1.69125 -0.9075,-2.585 -3.025,-2.585 -0.825,0 -1.82875,0.1925 -2.75,0.53625 l 0.495,1.43 c 0.72875,-0.2475 1.44375,-0.385 1.91125,-0.385 0.89375,0 1.2375,0.26125 1.2375,1.1275 v 0.31625 h -0.7425 c -2.21375,0 -3.42375,0.86625 -3.42375,2.46125 0,1.33375 0.92125,2.2825 2.37875,2.2825 0.86625,0 1.6775,-0.28875 2.2,-1.1 0.33,0.72875 0.89375,0.99 1.76,1.05875 l 0.45375,-1.41625 c -0.34375,-0.12375 -0.495,-0.33 -0.495,-0.89375 z m -3.28625,0.7975 c -0.53625,0 -0.8525,-0.34375 -0.8525,-0.92125 0,-0.72875 0.48125,-1.0725 1.47125,-1.0725 h 0.53625 v 1.2925 c -0.26125,0.44 -0.64625,0.70125 -1.155,0.70125 z" />
          <path
             id="path242"
             style="font-style:normal;font-variant:normal;font-weight:bold;font-stretch:normal;font-size:13.75px;line-height:1.25;font-family:'Fira Sans';-inkscape-font-specification:'Fira Sans Bold'"
             d="m 236.48177,230.02023 v 3.58875 c -0.42625,-0.42625 -1.0175,-0.6875 -1.7325,-0.6875 -1.80125,0 -2.98375,1.60875 -2.98375,3.86375 0,2.365 0.92125,3.905 2.7775,3.905 0.99,0 1.65,-0.48125 2.07625,-1.08625 l 0.11,0.8525 h 1.925 v -10.2025 z m -1.265,9.075 c -0.70125,0 -1.19625,-0.48125 -1.19625,-2.29625 0,-1.63625 0.55,-2.29625 1.32,-2.29625 0.48125,0 0.81125,0.23375 1.14125,0.61875 v 3.14875 c -0.34375,0.55 -0.7425,0.825 -1.265,0.825 z" />
          <path
             id="path244"
             style="font-style:normal;font-variant:normal;font-weight:bold;font-stretch:normal;font-size:13.75px;line-height:1.25;font-family:'Fira Sans';-inkscape-font-specification:'Fira Sans Bold'"
             d="m 246.72015,236.66148 c 0,-2.365 -1.27875,-3.74 -3.36875,-3.74 -2.21375,0 -3.41,1.7325 -3.41,3.91875 0,2.2825 1.2375,3.85 3.67125,3.85 1.1825,0 2.1175,-0.44 2.84625,-1.0175 l -0.89375,-1.21 c -0.6325,0.44 -1.155,0.64625 -1.74625,0.64625 -0.89375,0 -1.5125,-0.3575 -1.66375,-1.66375 h 4.52375 c 0.0275,-0.22 0.0412,-0.55 0.0412,-0.78375 z m -2.13125,-0.5225 h -2.43375 c 0.0962,-1.30625 0.5225,-1.77375 1.25125,-1.77375 0.86625,0 1.16875,0.6875 1.1825,1.6775 z" />
          <path
             id="path246"
             style="font-style:normal;font-variant:normal;font-weight:bold;font-stretch:normal;font-size:13.75px;line-height:1.25;font-family:'Fira Sans';-inkscape-font-specification:'Fira Sans Bold'"
             d="m 251.914,232.94898 c -0.83875,0 -1.55375,0.605 -1.88375,1.6225 l -0.17875,-1.41625 h -1.8975 v 7.30125 h 2.1725 v -3.61625 c 0.23375,-1.11375 0.605,-1.7875 1.5125,-1.7875 0.2475,0 0.42625,0.0412 0.66,0.0962 l 0.34375,-2.10375 c -0.23375,-0.0687 -0.45375,-0.0962 -0.72875,-0.0962 z" />
          <path
             id="path248"
             style="font-style:normal;font-variant:normal;font-weight:bold;font-stretch:normal;font-size:13.75px;line-height:1.25;font-family:'Fira Sans';-inkscape-font-specification:'Fira Sans Bold'"
             d="m 259.42279,236.66148 c 0,-2.365 -1.27875,-3.74 -3.36875,-3.74 -2.21375,0 -3.41,1.7325 -3.41,3.91875 0,2.2825 1.2375,3.85 3.67125,3.85 1.1825,0 2.1175,-0.44 2.84625,-1.0175 l -0.89375,-1.21 c -0.6325,0.44 -1.155,0.64625 -1.74625,0.64625 -0.89375,0 -1.5125,-0.3575 -1.66375,-1.66375 h 4.52375 c 0.0275,-0.22 0.0413,-0.55 0.0413,-0.78375 z m -2.13125,-0.5225 h -2.43375 c 0.0962,-1.30625 0.5225,-1.77375 1.25125,-1.77375 0.86625,0 1.16875,0.6875 1.1825,1.6775 z" />
          <path
             id="path250"
             style="font-style:normal;font-variant:normal;font-weight:bold;font-stretch:normal;font-size:13.75px;line-height:1.25;font-family:'Fira Sans';-inkscape-font-specification:'Fira Sans Bold'"
             d="m 263.81914,232.92148 c -2.18625,0 -3.575,1.6225 -3.575,3.94625 0,2.31 1.375,3.8225 3.61625,3.8225 1.00375,0 1.7875,-0.33 2.46125,-0.86625 l -0.94875,-1.3475 c -0.5225,0.33 -0.88,0.495 -1.4025,0.495 -0.86625,0 -1.44375,-0.495 -1.44375,-2.1175 0,-1.63625 0.53625,-2.26875 1.47125,-2.26875 0.495,0 0.92125,0.165 1.38875,0.5225 l 0.935,-1.2925 c -0.70125,-0.59125 -1.485,-0.89375 -2.5025,-0.89375 z" />
          <path
             id="path252"
             style="font-style:normal;font-variant:normal;font-weight:bold;font-stretch:normal;font-size:13.75px;line-height:1.25;font-family:'Fira Sans';-inkscape-font-specification:'Fira Sans Bold'"
             d="m 271.51248,232.92148 c -0.8525,0 -1.5125,0.34375 -2.10375,1.0175 v -3.905 l -2.1725,0.22 v 10.2025 h 2.1725 v -5.005 c 0.385,-0.59125 0.78375,-0.935 1.265,-0.935 0.4125,0 0.6875,0.20625 0.6875,0.97625 v 4.96375 h 2.1725 v -5.335 c 0,-1.38875 -0.75625,-2.2 -2.02125,-2.2 z" />
          <path
             id="path254"
             style="font-style:normal;font-variant:normal;font-weight:bold;font-stretch:normal;font-size:13.75px;line-height:1.25;font-family:'Fira Sans';-inkscape-font-specification:'Fira Sans Bold'"
             d="m 280.96109,238.33898 v -2.8325 c 0,-1.69125 -0.9075,-2.585 -3.025,-2.585 -0.825,0 -1.82875,0.1925 -2.75,0.53625 l 0.495,1.43 c 0.72875,-0.2475 1.44375,-0.385 1.91125,-0.385 0.89375,0 1.2375,0.26125 1.2375,1.1275 v 0.31625 h -0.7425 c -2.21375,0 -3.42375,0.86625 -3.42375,2.46125 0,1.33375 0.92125,2.2825 2.37875,2.2825 0.86625,0 1.6775,-0.28875 2.2,-1.1 0.33,0.72875 0.89375,0.99 1.76,1.05875 l 0.45375,-1.41625 c -0.34375,-0.12375 -0.495,-0.33 -0.495,-0.89375 z m -3.28625,0.7975 c -0.53625,0 -0.8525,-0.34375 -0.8525,-0.92125 0,-0.72875 0.48125,-1.0725 1.47125,-1.0725 h 0.53625 v 1.2925 c -0.26125,0.44 -0.64625,0.70125 -1.155,0.70125 z" />
          <path
             id="path256"
             style="font-style:normal;font-variant:normal;font-weight:normal;font-stretch:normal;font-size:13.75px;line-height:1.25;font-family:'Fira Mono';-inkscape-font-specification:'Fira Mono'"
             d="m 157.79289,250.24648 c -1.30625,0 -2.04875,0.6875 -2.59875,1.87 l -0.22,-1.71875 h -2.0075 v 0.89375 h 1.14125 v 5.45875 h -1.14125 v 0.89375 h 3.7675 v -0.89375 h -1.47125 v -3.0525 c 0.4675,-1.595 1.265,-2.3925 2.37875,-2.3925 h 0.0687 v 1.55375 h 0.935 l 0.165,-2.46125 c -0.31625,-0.0825 -0.61875,-0.15125 -1.0175,-0.15125 z" />
          <path
             id="path258"
             style="font-style:normal;font-variant:normal;font-weight:normal;font-stretch:normal;font-size:13.75px;line-height:1.25;font-family:'Fira Mono';-inkscape-font-specification:'Fira Mono'"
             d="m 163.89252,247.01523 c -0.495,0 -0.825,0.34375 -0.825,0.81125 0,0.4675 0.33,0.81125 0.825,0.81125 0.50875,0 0.8525,-0.34375 0.8525,-0.81125 0,-0.4675 -0.34375,-0.81125 -0.8525,-0.81125 z m 0.92125,3.3825 h -3.31375 v 0.92125 h 2.15875 v 5.40375 h -2.2275 v 0.92125 h 5.4175 v -0.92125 h -2.035 z" />
          <path
             id="path260"
             style="font-style:normal;font-variant:normal;font-weight:normal;font-stretch:normal;font-size:13.75px;line-height:1.25;font-family:'Fira Mono';-inkscape-font-specification:'Fira Mono'"
             d="m 175.2859,249.64148 c -0.8525,0.3575 -1.485,0.605 -3.3,0.605 -1.71875,0 -2.8875,1.045 -2.8875,2.51625 0,0.935 0.385,1.5675 1.21,1.99375 -0.5225,0.34375 -0.7975,0.81125 -0.7975,1.265 0,0.72875 0.56375,1.375 1.82875,1.375 h 1.2925 c 0.92125,0 1.6225,0.34375 1.6225,1.03125 0,0.78375 -0.70125,1.19625 -2.2825,1.19625 -1.6225,0 -2.0075,-0.39875 -2.0075,-1.25125 h -1.045 c 0,1.47125 0.7425,2.18625 3.0525,2.18625 2.2,0 3.45125,-0.78375 3.45125,-2.2 0,-1.1275 -1.1,-1.96625 -2.5575,-1.96625 h -1.30625 c -0.7425,0 -0.9625,-0.275 -0.9625,-0.61875 0,-0.26125 0.165,-0.53625 0.37125,-0.70125 0.31625,0.11 0.605,0.15125 1.08625,0.15125 1.71875,0 2.7225,-1.03125 2.7225,-2.46125 0,-0.825 -0.4125,-1.44375 -1.265,-1.82875 0.81125,0 1.5125,-0.0137 2.1175,-0.20625 z m -3.31375,1.4575 c 1.0725,0 1.60875,0.56375 1.60875,1.65 0,1.0725 -0.55,1.705 -1.58125,1.705 -1.1825,0 -1.71875,-0.70125 -1.71875,-1.69125 0,-0.97625 0.5225,-1.66375 1.69125,-1.66375 z" />
          <path
             id="path262"
             style="font-style:normal;font-variant:normal;font-weight:normal;font-stretch:normal;font-size:13.75px;line-height:1.25;font-family:'Fira Mono';-inkscape-font-specification:'Fira Mono'"
             d="m 178.78677,247.37273 -1.155,0.12375 v 10.1475 h 1.155 v -5.28 c 0.385,-0.56375 1.1275,-1.19625 1.93875,-1.19625 0.86625,0 1.265,0.37125 1.265,1.2375 v 5.23875 h 1.155 v -5.2525 c 0,-1.3475 -0.61875,-2.145 -2.035,-2.145 -0.86625,0 -1.74625,0.39875 -2.32375,1.155 z" />
          <path
             id="path264"
             style="font-style:normal;font-variant:normal;font-weight:normal;font-stretch:normal;font-size:13.75px;line-height:1.25;font-family:'Fira Mono';-inkscape-font-specification:'Fira Mono'"
             d="m 191.63765,257.27273 -0.45375,-0.78375 c -0.385,0.20625 -0.8525,0.34375 -1.38875,0.34375 -0.99,0 -1.38875,-0.42625 -1.38875,-1.22375 v -4.30375 h 2.365 l 0.15125,-0.9075 h -2.51625 v -1.77375 l -1.155,0.1375 v 1.63625 h -1.66375 v 0.9075 h 1.66375 v 4.3175 c 0,1.265 0.88,2.1725 2.43375,2.1725 0.6875,0 1.44375,-0.1925 1.9525,-0.5225 z" />
          <path
             id="path266"
             style="font-style:normal;font-variant:normal;font-weight:normal;font-stretch:normal;font-size:13.75px;line-height:1.25;font-family:'Fira Mono';-inkscape-font-specification:'Fira Mono'"
             d="m 193.43353,260.14648 h 6.875 v -1.0175 h -6.875 z" />
          <path
             id="path268"
             style="font-style:normal;font-variant:normal;font-weight:normal;font-stretch:normal;font-size:13.75px;line-height:1.25;font-family:'Fira Mono';-inkscape-font-specification:'Fira Mono'"
             d="m 206.03691,247.01523 c -0.495,0 -0.83875,0.34375 -0.83875,0.81125 0,0.4675 0.34375,0.81125 0.83875,0.81125 0.50875,0 0.83875,-0.34375 0.83875,-0.81125 0,-0.4675 -0.33,-0.81125 -0.83875,-0.81125 z m 1.0725,3.3825 h -4.16625 v 0.92125 h 3.01125 v 5.23875 c 0,1.9525 -1.5125,2.75 -3.64375,3.1075 l 0.1925,0.89375 c 2.915,-0.495 4.60625,-1.65 4.60625,-4.07 z" />
          <path
             id="path270"
             style="font-style:normal;font-variant:normal;font-weight:normal;font-stretch:normal;font-size:13.75px;line-height:1.25;font-family:'Fira Mono';-inkscape-font-specification:'Fira Mono'"
             d="m 213.37404,250.24648 c -2.035,0 -3.135,1.55375 -3.135,3.78125 0,2.2825 1.08625,3.7675 3.12125,3.7675 2.02125,0 3.12125,-1.55375 3.12125,-3.78125 0,-2.2825 -1.0725,-3.7675 -3.1075,-3.7675 z m 0,0.94875 c 1.2375,0 1.85625,0.9075 1.85625,2.81875 0,1.93875 -0.61875,2.8325 -1.87,2.8325 -1.25125,0 -1.87,-0.89375 -1.87,-2.81875 0,-1.925 0.6325,-2.8325 1.88375,-2.8325 z" />
          <path
             id="path272"
             style="font-style:normal;font-variant:normal;font-weight:normal;font-stretch:normal;font-size:13.75px;line-height:1.25;font-family:'Fira Mono';-inkscape-font-specification:'Fira Mono'"
             d="m 221.60492,247.01523 c -0.495,0 -0.825,0.34375 -0.825,0.81125 0,0.4675 0.33,0.81125 0.825,0.81125 0.50875,0 0.8525,-0.34375 0.8525,-0.81125 0,-0.4675 -0.34375,-0.81125 -0.8525,-0.81125 z m 0.92125,3.3825 h -3.31375 v 0.92125 h 2.15875 v 5.40375 h -2.2275 v 0.92125 h 5.4175 v -0.92125 h -2.035 z" />
          <path
             id="path274"
             style="font-style:normal;font-variant:normal;font-weight:normal;font-stretch:normal;font-size:13.75px;line-height:1.25;font-family:'Fira Mono';-inkscape-font-specification:'Fira Mono'"
             d="m 227.09955,257.64398 h 1.155 v -5.26625 c 0.385,-0.5775 1.11375,-1.21 1.96625,-1.21 1.08625,0 1.2375,0.59125 1.2375,2.07625 v 4.4 h 1.155 v -5.2525 c 0,-1.3475 -0.61875,-2.145 -2.035,-2.145 -0.8525,0 -1.815,0.42625 -2.3925,1.16875 l -0.0962,-1.0175 h -0.99 z" />
          <path
             id="path276"
             style="font-style:normal;font-variant:normal;font-weight:normal;font-stretch:normal;font-size:13.75px;line-height:1.25;font-family:'Fira Mono';-inkscape-font-specification:'Fira Mono'"
             d="m 236.89793,252.83148 c 0,-2.8875 0.94875,-4.345 2.92875,-6.105 l -0.59125,-0.6325 c -2.24125,1.82875 -3.5475,3.6025 -3.5475,6.7375 0,3.135 1.30625,4.90875 3.5475,6.7375 l 0.59125,-0.6325 c -1.9525,-1.74625 -2.92875,-3.23125 -2.92875,-6.105 z" />
          <path
             id="path278"
             style="font-style:normal;font-variant:normal;font-weight:normal;font-stretch:normal;font-size:13.75px;line-height:1.25;font-family:'Fira Mono';-inkscape-font-specification:'Fira Mono'"
             d="m 244.30381,257.64398 1.99375,-3.1075 1.99375,3.1075 h 1.4025 l -2.6675,-3.8775 2.35125,-3.36875 h -1.33375 l -1.69125,2.695 -1.6775,-2.695 h -1.375 l 2.35125,3.42375 -2.6675,3.8225 z" />
          <path
             id="path280"
             style="font-style:normal;font-variant:normal;font-weight:normal;font-stretch:normal;font-size:13.75px;line-height:1.25;font-family:'Fira Mono';-inkscape-font-specification:'Fira Mono'"
             d="m 254.58344,255.37523 c -0.61875,0 -1.1,0.495 -1.1,1.11375 0,0.3575 0.17875,0.715 0.44,0.9075 l -0.64625,2.70875 h 1.045 l 1.11375,-2.54375 c 0.1925,-0.42625 0.26125,-0.7425 0.26125,-1.08625 0,-0.605 -0.48125,-1.1 -1.11375,-1.1 z" />
          <path
             id="path282"
             style="font-style:normal;font-variant:normal;font-weight:normal;font-stretch:normal;font-size:13.75px;line-height:1.25;font-family:'Fira Mono';-inkscape-font-specification:'Fira Mono'"
             d="m 266.10056,250.39773 h -1.19625 l -2.04875,6.36625 -2.07625,-6.36625 h -1.22375 l 2.51625,7.24625 h 0.385 c -0.37125,1.11375 -0.81125,1.7325 -2.29625,1.99375 l 0.165,0.92125 c 1.925,-0.20625 2.73625,-1.38875 3.245,-2.87375 z" />
          <path
             id="path284"
             style="font-style:normal;font-variant:normal;font-weight:normal;font-stretch:normal;font-size:13.75px;line-height:1.25;font-family:'Fira Mono';-inkscape-font-specification:'Fira Mono'"
             d="m 272.26894,252.83148 c 0,2.87375 -0.97625,4.35875 -2.92875,6.105 l 0.59125,0.6325 c 2.24125,-1.82875 3.5475,-3.6025 3.5475,-6.7375 0,-3.135 -1.30625,-4.90875 -3.5475,-6.7375 l -0.59125,0.6325 c 1.98,1.76 2.92875,3.2175 2.92875,6.105 z" />
        </g>
        <path
           id="circle4526"
           transform="translate(-201.51293)"
           d="m 287.31836,212.95898 a 30,30 0 0 0 -12.06445,24.00977 30,30 0 0 0 12.07421,24.00977 30,30 0 0 0 12.06641,-24.00977 30,30 0 0 0 -12.07617,-24.00977 z"
           style="fill:#cccccc;fill-opacity:1;stroke:#000000;stroke-width:1;stroke-miterlimit:4;stroke-dasharray:none" />
      </g>
    </g>
  </g>
</svg>
