<?xml version="1.0" encoding="UTF-8" standalone="no"?>
<svg
   xmlns:dc="http://purl.org/dc/elements/1.1/"
   xmlns:cc="http://creativecommons.org/ns#"
   xmlns:rdf="http://www.w3.org/1999/02/22-rdf-syntax-ns#"
   xmlns:svg="http://www.w3.org/2000/svg"
   xmlns="http://www.w3.org/2000/svg"
   viewBox="0 0 635.3311 209.15787"
   height="55.339684mm"
   width="168.09802mm"
   id="svg2"
   version="1.1">
  <metadata
     id="metadata8">
    <rdf:RDF>
      <cc:Work
         rdf:about="">
        <dc:format>image/svg+xml</dc:format>
        <dc:type
           rdf:resource="http://purl.org/dc/dcmitype/StillImage" />
        <dc:title />
      </cc:Work>
    </rdf:RDF>
  </metadata>
  <defs
     id="defs6" />
  <rect
     transform="rotate(90)"
     ry="6.7964511"
     rx="6.8833065"
     y="-76.550316"
     x="71.634743"
     height="39.484203"
     width="108.02529"
     id="rect889"
     style="fill:#ebebeb;fill-opacity:1;stroke:#000000;stroke-width:1.13385832;stroke-miterlimit:4;stroke-dasharray:none;paint-order:markers fill stroke" />
  <g
     id="text887-0"
     style="font-style:normal;font-weight:normal;font-size:40px;line-height:1.25;font-family:Mono-serif;letter-spacing:0px;word-spacing:0px;fill:#000000;fill-opacity:1;stroke:none;stroke-width:1.13385832;stroke-miterlimit:4;stroke-dasharray:none;paint-order:markers fill stroke"
     aria-label="mu">
    <path
       id="path58"
       style="font-style:normal;font-variant:normal;font-weight:normal;font-stretch:normal;font-size:16px;font-family:'Fira Mono';-inkscape-font-specification:'Fira Mono';stroke-width:1.13385832;stroke-miterlimit:4;stroke-dasharray:none;paint-order:markers fill stroke"
       d="m 54.755336,50.828596 c -0.848,0 -1.392,0.448 -1.856,1.12 -0.256,-0.864 -0.88,-1.12 -1.52,-1.12 -0.848,0 -1.376,0.512 -1.824,1.168 l -0.096,-0.992 h -1.04 v 8.432 h 1.232 v -6.544 c 0.464,-0.72 0.944,-1.008 1.472,-1.008 0.608,0 0.656,0.432 0.656,1.504 v 6.048 h 1.248 v -6.544 c 0.464,-0.72 0.96,-1.008 1.472,-1.008 0.608,0 0.656,0.432 0.656,1.504 v 6.048 h 1.232 v -6.272 c 0,-1.936 -0.816,-2.336 -1.632,-2.336 z" />
    <path
       id="path60"
       style="font-style:normal;font-variant:normal;font-weight:normal;font-stretch:normal;font-size:16px;font-family:'Fira Mono';-inkscape-font-specification:'Fira Mono';stroke-width:1.13385832;stroke-miterlimit:4;stroke-dasharray:none;paint-order:markers fill stroke"
       d="m 60.141086,51.004596 h -1.344 v 6.128 c 0,1.568 0.8,2.48 2.432,2.48 0.992,0 2.032,-0.464 2.704,-1.312 l 0.112,1.136 h 1.152 v -8.432 h -1.344 v 6.208 c -0.464,0.72 -1.36,1.344 -2.288,1.344 -0.976,0 -1.424,-0.48 -1.424,-1.568 z" />
  </g>
  <rect
     transform="rotate(90)"
     style="fill:#d6d6d6;fill-opacity:1;stroke:#000000;stroke-width:1.13385832;stroke-miterlimit:4;stroke-dasharray:none;paint-order:markers fill stroke"
     id="rect859"
     width="21.327433"
     height="23.266291"
     x="82.992531"
     y="-68.44136"
     rx="0"
     ry="0" />
  <g
     id="text863"
     style="font-style:normal;font-weight:normal;font-size:40px;line-height:1.25;font-family:Mono-serif;letter-spacing:0px;word-spacing:0px;fill:#000000;fill-opacity:1;stroke:none;stroke-width:1.13385832;stroke-miterlimit:4;stroke-dasharray:none;paint-order:markers fill stroke"
     aria-label="5">
    <path
       id="path63"
       style="font-style:normal;font-variant:normal;font-weight:normal;font-stretch:normal;font-size:16px;font-family:'Fira Mono';-inkscape-font-specification:'Fira Mono';stroke-width:1.13385832;stroke-miterlimit:4;stroke-dasharray:none;paint-order:markers fill stroke"
       d="m 59.904209,88.241602 h -5.84 v 5.504 h 1.088 c 0.64,-0.224 1.072,-0.368 1.712,-0.368 1.12,0 2,0.592 2,2.352 0,1.712 -0.864,2.608 -2.32,2.608 -0.944,0 -1.696,-0.336 -2.368,-1.024 l -0.832,0.816 c 0.848,0.816 1.872,1.312 3.2,1.312 2.272,0 3.728,-1.456 3.728,-3.664 0,-2.208 -1.216,-3.456 -3.024,-3.456 -0.656,0 -1.232,0.112 -1.888,0.48 v -3.472 h 4.352 z" />
  </g>
  <rect
     transform="rotate(90)"
     style="fill:#d6d6d6;fill-opacity:1;stroke:#000000;stroke-width:1.13385832;stroke-miterlimit:4;stroke-dasharray:none;paint-order:markers fill stroke"
     id="rect871"
     width="21.327433"
     height="23.266291"
     x="114.98368"
     y="-68.44136"
     rx="0"
     ry="0" />
  <g
     id="text875"
     style="font-style:normal;font-weight:normal;font-size:40px;line-height:1.25;font-family:Mono-serif;letter-spacing:0px;word-spacing:0px;fill:#000000;fill-opacity:1;stroke:none;stroke-width:1.13385832;stroke-miterlimit:4;stroke-dasharray:none;paint-order:markers fill stroke"
     aria-label="10">
    <path
       id="path66"
       style="font-style:normal;font-variant:normal;font-weight:normal;font-stretch:normal;font-size:16px;font-family:'Fira Mono';-inkscape-font-specification:'Fira Mono';stroke-width:1.13385832;stroke-miterlimit:4;stroke-dasharray:none;paint-order:markers fill stroke"
       d="m 53.035334,130.24687 v -9.936 h -1.184 l -3.28,2.048 0.592,0.944 2.512,-1.52 v 8.464 h -2.704 v 1.088 h 6.352 v -1.088 z" />
    <path
       id="path68"
       style="font-style:normal;font-variant:normal;font-weight:normal;font-stretch:normal;font-size:16px;font-family:'Fira Mono';-inkscape-font-specification:'Fira Mono';stroke-width:1.13385832;stroke-miterlimit:4;stroke-dasharray:none;paint-order:markers fill stroke"
       d="m 61.445084,120.13487 c -2.368,0 -3.6,2.032 -3.6,5.68 0,3.664 1.232,5.696 3.6,5.696 2.368,0 3.6,-2.032 3.6,-5.696 0,-3.648 -1.232,-5.68 -3.6,-5.68 z m 0,1.088 c 1.376,0 2.192,1.344 2.192,4.592 0,3.264 -0.816,4.608 -2.192,4.608 -1.36,0 -2.192,-1.344 -2.192,-4.608 0,-3.248 0.832,-4.592 2.192,-4.592 z m 0,3.552 c -0.592,0 -1.04,0.464 -1.04,1.04 0,0.592 0.448,1.056 1.04,1.056 0.608,0 1.056,-0.464 1.056,-1.056 0,-0.576 -0.448,-1.04 -1.056,-1.04 z" />
  </g>
  <rect
     transform="rotate(90)"
     ry="0"
     rx="0"
     y="-68.44136"
     x="146.97482"
     height="23.266291"
     width="21.327433"
     id="rect877"
     style="fill:#d6d6d6;fill-opacity:1;stroke:#000000;stroke-width:1.13385832;stroke-miterlimit:4;stroke-dasharray:none;paint-order:markers fill stroke" />
  <g
     id="text881"
     style="font-style:normal;font-weight:normal;font-size:40px;line-height:1.25;font-family:Mono-serif;letter-spacing:0px;word-spacing:0px;fill:#000000;fill-opacity:1;stroke:none;stroke-width:1.13385832;stroke-miterlimit:4;stroke-dasharray:none;paint-order:markers fill stroke"
     aria-label="-3">
    <path
       id="path71"
       style="font-style:normal;font-variant:normal;font-weight:normal;font-stretch:normal;font-size:16px;font-family:'Fira Mono';-inkscape-font-specification:'Fira Mono';stroke-width:1.13385832;stroke-miterlimit:4;stroke-dasharray:none;paint-order:markers fill stroke"
       d="m 48.995335,158.89407 h 5.6 v -1.152 h -5.6 z" />
    <path
       id="path73"
       style="font-style:normal;font-variant:normal;font-weight:normal;font-stretch:normal;font-size:16px;font-family:'Fira Mono';-inkscape-font-specification:'Fira Mono';stroke-width:1.13385832;stroke-miterlimit:4;stroke-dasharray:none;paint-order:markers fill stroke"
       d="m 60.893085,152.12607 c -1.136,0 -2.192,0.384 -3.136,1.28 l 0.736,0.816 c 0.736,-0.672 1.392,-1.008 2.336,-1.008 1.168,0 2.08,0.656 2.08,1.856 0,1.328 -1.024,1.92 -2.08,1.92 h -0.656 l -0.16,1.072 h 0.912 c 1.312,0 2.288,0.512 2.288,2.096 0,1.376 -0.912,2.24 -2.448,2.24 -0.896,0 -1.824,-0.352 -2.448,-1.088 l -0.896,0.736 c 0.832,1.008 2.144,1.456 3.376,1.456 2.288,0 3.824,-1.44 3.824,-3.344 0,-1.712 -1.216,-2.608 -2.496,-2.704 1.152,-0.224 2.144,-1.232 2.144,-2.56 0,-1.504 -1.296,-2.768 -3.376,-2.768 z" />
  </g>
  <rect
     style="fill:#ebebeb;fill-opacity:1;stroke:#000000;stroke-width:1.13385832;stroke-miterlimit:4;stroke-dasharray:none;paint-order:markers fill stroke"
     id="rect2437"
     width="108.02529"
     height="39.484203"
     x="71.634743"
     y="-135.17346"
     rx="6.8833065"
     ry="6.7964511"
     transform="rotate(90)" />
  <g
     id="text2409"
     style="font-style:normal;font-weight:normal;font-size:40px;line-height:1.25;font-family:Mono-serif;letter-spacing:0px;word-spacing:0px;fill:#000000;fill-opacity:1;stroke:none;stroke-width:1.13385832;stroke-miterlimit:4;stroke-dasharray:none;paint-order:markers fill stroke"
     aria-label="sigma">
    <path
       id="path76"
       style="font-style:normal;font-variant:normal;font-weight:normal;font-stretch:normal;font-size:16px;font-family:'Fira Mono';-inkscape-font-specification:'Fira Mono';stroke-width:1.13385832;stroke-miterlimit:4;stroke-dasharray:none;paint-order:markers fill stroke"
       d="m 95.963864,58.508596 c -0.992,0 -1.888,-0.368 -2.544,-0.912 l -0.752,0.88 c 0.72,0.624 1.76,1.136 3.296,1.136 1.792,0 3.536,-0.704 3.536,-2.512 0,-1.568 -1.088,-2.144 -2.736,-2.592 -1.696,-0.464 -2.224,-0.72 -2.224,-1.488 0,-0.64 0.48,-1.104 1.824,-1.104 1.088,0 1.808,0.336 2.432,0.768 l 0.608,-0.928 c -0.72,-0.512 -1.712,-0.928 -3.072,-0.928 -1.904,0 -3.2,0.896 -3.2,2.304 0,1.472 1.136,2 2.88,2.432 1.792,0.448 2.032,0.848 2.032,1.6 0,0.816 -0.784,1.344 -2.08,1.344 z" />
    <path
       id="path78"
       style="font-style:normal;font-variant:normal;font-weight:normal;font-stretch:normal;font-size:16px;font-family:'Fira Mono';-inkscape-font-specification:'Fira Mono';stroke-width:1.13385832;stroke-miterlimit:4;stroke-dasharray:none;paint-order:markers fill stroke"
       d="m 105.87761,47.068596 c -0.576,0 -0.96,0.4 -0.96,0.944 0,0.544 0.384,0.944 0.96,0.944 0.592,0 0.992,-0.4 0.992,-0.944 0,-0.544 -0.4,-0.944 -0.992,-0.944 z m 1.072,3.936 h -3.856 v 1.072 h 2.512 v 6.288 h -2.592 v 1.072 h 6.304 v -1.072 h -2.368 z" />
    <path
       id="path80"
       style="font-style:normal;font-variant:normal;font-weight:normal;font-stretch:normal;font-size:16px;font-family:'Fira Mono';-inkscape-font-specification:'Fira Mono';stroke-width:1.13385832;stroke-miterlimit:4;stroke-dasharray:none;paint-order:markers fill stroke"
       d="m 119.13536,50.124596 c -0.992,0.416 -1.728,0.704 -3.84,0.704 -2,0 -3.36,1.216 -3.36,2.928 0,1.088 0.448,1.824 1.408,2.32 -0.608,0.4 -0.928,0.944 -0.928,1.472 0,0.848 0.656,1.6 2.128,1.6 h 1.504 c 1.072,0 1.888,0.4 1.888,1.2 0,0.912 -0.816,1.392 -2.656,1.392 -1.888,0 -2.336,-0.464 -2.336,-1.456 h -1.216 c 0,1.712 0.864,2.544 3.552,2.544 2.56,0 4.016,-0.912 4.016,-2.56 0,-1.312 -1.28,-2.288 -2.976,-2.288 h -1.52 c -0.864,0 -1.12,-0.32 -1.12,-0.72 0,-0.304 0.192,-0.624 0.432,-0.816 0.368,0.128 0.704,0.176 1.264,0.176 2,0 3.168,-1.2 3.168,-2.864 0,-0.96 -0.48,-1.68 -1.472,-2.128 0.944,0 1.76,-0.016 2.464,-0.24 z m -3.856,1.696 c 1.248,0 1.872,0.656 1.872,1.92 0,1.248 -0.64,1.984 -1.84,1.984 -1.376,0 -2,-0.816 -2,-1.968 0,-1.136 0.608,-1.936 1.968,-1.936 z" />
    <path
       id="path82"
       style="font-style:normal;font-variant:normal;font-weight:normal;font-stretch:normal;font-size:16px;font-family:'Fira Mono';-inkscape-font-specification:'Fira Mono';stroke-width:1.13385832;stroke-miterlimit:4;stroke-dasharray:none;paint-order:markers fill stroke"
       d="m 127.41711,50.828596 c -0.848,0 -1.392,0.448 -1.856,1.12 -0.256,-0.864 -0.88,-1.12 -1.52,-1.12 -0.848,0 -1.376,0.512 -1.824,1.168 l -0.096,-0.992 h -1.04 v 8.432 h 1.232 v -6.544 c 0.464,-0.72 0.944,-1.008 1.472,-1.008 0.608,0 0.656,0.432 0.656,1.504 v 6.048 h 1.248 v -6.544 c 0.464,-0.72 0.96,-1.008 1.472,-1.008 0.608,0 0.656,0.432 0.656,1.504 v 6.048 h 1.232 v -6.272 c 0,-1.936 -0.816,-2.336 -1.632,-2.336 z" />
    <path
       id="path84"
       style="font-style:normal;font-variant:normal;font-weight:normal;font-stretch:normal;font-size:16px;font-family:'Fira Mono';-inkscape-font-specification:'Fira Mono';stroke-width:1.13385832;stroke-miterlimit:4;stroke-dasharray:none;paint-order:markers fill stroke"
       d="m 137.50686,57.596596 v -4.048 c 0,-1.664 -1.056,-2.72 -3.152,-2.72 -0.832,0 -1.728,0.16 -2.768,0.528 l 0.368,1.024 c 0.864,-0.304 1.632,-0.432 2.192,-0.432 1.248,0 2,0.448 2,1.68 v 0.688 h -1.248 c -2.544,0 -3.936,0.976 -3.936,2.704 0,1.568 1.024,2.592 2.72,2.592 1.088,0 2.032,-0.4 2.64,-1.184 0.224,0.768 0.816,1.104 1.536,1.2 l 0.336,-0.96 c -0.48,-0.144 -0.688,-0.4 -0.688,-1.072 z m -3.488,1.008 c -1.104,0 -1.616,-0.544 -1.616,-1.6 0,-1.088 0.672,-1.76 2.528,-1.76 h 1.216 v 2.16 c -0.496,0.752 -1.296,1.2 -2.128,1.2 z" />
  </g>
  <rect
     ry="0"
     rx="0"
     y="-127.06451"
     x="82.992531"
     height="23.266291"
     width="21.327433"
     id="rect2411"
     style="fill:#d6d6d6;fill-opacity:1;stroke:#000000;stroke-width:1.13385832;stroke-miterlimit:4;stroke-dasharray:none;paint-order:markers fill stroke"
     transform="rotate(90)" />
  <g
     id="text2415"
     style="font-style:normal;font-weight:normal;font-size:40px;line-height:1.25;font-family:Mono-serif;letter-spacing:0px;word-spacing:0px;fill:#000000;fill-opacity:1;stroke:none;stroke-width:1.13385832;stroke-miterlimit:4;stroke-dasharray:none;paint-order:markers fill stroke"
     aria-label="1">
    <path
       id="path87"
       style="font-style:normal;font-variant:normal;font-weight:normal;font-stretch:normal;font-size:16px;font-family:'Fira Mono';-inkscape-font-specification:'Fira Mono';stroke-width:1.13385832;stroke-miterlimit:4;stroke-dasharray:none;paint-order:markers fill stroke"
       d="m 116.51936,98.177602 v -9.936 h -1.184 l -3.28,2.048 0.592,0.944 2.512,-1.52 v 8.464 h -2.704 v 1.088 h 6.352 v -1.088 z" />
  </g>
  <rect
     ry="0"
     rx="0"
     y="-127.06451"
     x="114.98368"
     height="23.266291"
     width="21.327433"
     id="rect2421"
     style="fill:#d6d6d6;fill-opacity:1;stroke:#000000;stroke-width:1.13385832;stroke-miterlimit:4;stroke-dasharray:none;paint-order:markers fill stroke"
     transform="rotate(90)" />
  <g
     id="text2425"
     style="font-style:normal;font-weight:normal;font-size:40px;line-height:1.25;font-family:Mono-serif;letter-spacing:0px;word-spacing:0px;fill:#000000;fill-opacity:1;stroke:none;stroke-width:1.13385832;stroke-miterlimit:4;stroke-dasharray:none;paint-order:markers fill stroke"
     aria-label="5">
    <path
       id="path90"
       style="font-style:normal;font-variant:normal;font-weight:normal;font-stretch:normal;font-size:16px;font-family:'Fira Mono';-inkscape-font-specification:'Fira Mono';stroke-width:1.13385832;stroke-miterlimit:4;stroke-dasharray:none;paint-order:markers fill stroke"
       d="m 118.52737,120.31087 h -5.84 v 5.504 h 1.088 c 0.64,-0.224 1.072,-0.368 1.712,-0.368 1.12,0 2,0.592 2,2.352 0,1.712 -0.864,2.608 -2.32,2.608 -0.944,0 -1.696,-0.336 -2.368,-1.024 l -0.832,0.816 c 0.848,0.816 1.872,1.312 3.2,1.312 2.272,0 3.728,-1.456 3.728,-3.664 0,-2.208 -1.216,-3.456 -3.024,-3.456 -0.656,0 -1.232,0.112 -1.888,0.48 v -3.472 h 4.352 z" />
  </g>
  <rect
     style="fill:#d6d6d6;fill-opacity:1;stroke:#000000;stroke-width:1.13385832;stroke-miterlimit:4;stroke-dasharray:none;paint-order:markers fill stroke"
     id="rect2429"
     width="21.327433"
     height="23.266291"
     x="146.97485"
     y="-127.06451"
     rx="0"
     ry="0"
     transform="rotate(90)" />
  <g
     id="text2433"
     style="font-style:normal;font-weight:normal;font-size:40px;line-height:1.25;font-family:Mono-serif;letter-spacing:0px;word-spacing:0px;fill:#000000;fill-opacity:1;stroke:none;stroke-width:1.13385832;stroke-miterlimit:4;stroke-dasharray:none;paint-order:markers fill stroke"
     aria-label="10">
    <path
       id="path93"
       style="font-style:normal;font-variant:normal;font-weight:normal;font-stretch:normal;font-size:16px;font-family:'Fira Mono';-inkscape-font-specification:'Fira Mono';stroke-width:1.13385832;stroke-miterlimit:4;stroke-dasharray:none;paint-order:markers fill stroke"
       d="m 111.65849,162.23807 v -9.936 h -1.184 l -3.28,2.048 0.592,0.944 2.512,-1.52 v 8.464 h -2.704 v 1.088 h 6.352 v -1.088 z" />
    <path
       id="path95"
       style="font-style:normal;font-variant:normal;font-weight:normal;font-stretch:normal;font-size:16px;font-family:'Fira Mono';-inkscape-font-specification:'Fira Mono';stroke-width:1.13385832;stroke-miterlimit:4;stroke-dasharray:none;paint-order:markers fill stroke"
       d="m 120.06824,152.12607 c -2.368,0 -3.6,2.032 -3.6,5.68 0,3.664 1.232,5.696 3.6,5.696 2.368,0 3.6,-2.032 3.6,-5.696 0,-3.648 -1.232,-5.68 -3.6,-5.68 z m 0,1.088 c 1.376,0 2.192,1.344 2.192,4.592 0,3.264 -0.816,4.608 -2.192,4.608 -1.36,0 -2.192,-1.344 -2.192,-4.608 0,-3.248 0.832,-4.592 2.192,-4.592 z m 0,3.552 c -0.592,0 -1.04,0.464 -1.04,1.04 0,0.592 0.448,1.056 1.04,1.056 0.608,0 1.056,-0.464 1.056,-1.056 0,-0.576 -0.448,-1.04 -1.056,-1.04 z" />
  </g>
  <rect
     transform="rotate(90)"
     ry="6.7964511"
     rx="6.8833065"
     y="-194.06567"
     x="71.634743"
     height="39.484203"
     width="108.02529"
     id="rect311"
     style="fill:#ebebeb;fill-opacity:1;stroke:#000000;stroke-width:1.13385832;stroke-miterlimit:4;stroke-dasharray:none;paint-order:markers fill stroke" />
  <g
     id="text315"
     style="font-style:normal;font-weight:normal;font-size:40px;line-height:1.25;font-family:Mono-serif;letter-spacing:0px;word-spacing:0px;fill:#000000;fill-opacity:1;stroke:none;stroke-width:1.13385832;stroke-miterlimit:4;stroke-dasharray:none;paint-order:markers fill stroke"
     aria-label="n">
    <path
       id="path98"
       style="font-style:normal;font-variant:normal;font-weight:normal;font-stretch:normal;font-size:16px;font-family:'Fira Mono';-inkscape-font-specification:'Fira Mono';stroke-width:1.13385832;stroke-miterlimit:4;stroke-dasharray:none;paint-order:markers fill stroke"
       d="m 171.11558,59.436596 h 1.344 v -6.128 c 0.448,-0.672 1.296,-1.408 2.288,-1.408 1.264,0 1.44,0.688 1.44,2.416 v 5.12 h 1.344 v -6.112 c 0,-1.568 -0.72,-2.496 -2.368,-2.496 -0.992,0 -2.112,0.496 -2.784,1.36 l -0.112,-1.184 h -1.152 z" />
  </g>
  <rect
     transform="rotate(90)"
     style="fill:#d6d6d6;fill-opacity:1;stroke:#000000;stroke-width:1.13385832;stroke-miterlimit:4;stroke-dasharray:none;paint-order:markers fill stroke"
     id="rect317"
     width="21.327433"
     height="23.266291"
     x="82.992531"
     y="-185.95671"
     rx="0"
     ry="0" />
  <g
     id="text321"
     style="font-style:normal;font-weight:normal;font-size:40px;line-height:1.25;font-family:Mono-serif;letter-spacing:0px;word-spacing:0px;fill:#000000;fill-opacity:1;stroke:none;stroke-width:1.13385832;stroke-miterlimit:4;stroke-dasharray:none;paint-order:markers fill stroke"
     aria-label="1">
    <path
       id="path101"
       style="font-style:normal;font-variant:normal;font-weight:normal;font-stretch:normal;font-size:16px;font-family:'Fira Mono';-inkscape-font-specification:'Fira Mono';stroke-width:1.13385832;stroke-miterlimit:4;stroke-dasharray:none;paint-order:markers fill stroke"
       d="m 175.41157,98.177602 v -9.936 h -1.184 l -3.28,2.048 0.592,0.944 2.512,-1.52 v 8.464 h -2.704 v 1.088 h 6.352 v -1.088 z" />
  </g>
  <rect
     transform="rotate(90)"
     style="fill:#d6d6d6;fill-opacity:1;stroke:#000000;stroke-width:1.13385832;stroke-miterlimit:4;stroke-dasharray:none;paint-order:markers fill stroke"
     id="rect323"
     width="21.327433"
     height="23.266291"
     x="114.98368"
     y="-185.95671"
     rx="0"
     ry="0" />
  <g
     id="text327"
     style="font-style:normal;font-weight:normal;font-size:40px;line-height:1.25;font-family:Mono-serif;letter-spacing:0px;word-spacing:0px;fill:#000000;fill-opacity:1;stroke:none;stroke-width:1.13385832;stroke-miterlimit:4;stroke-dasharray:none;paint-order:markers fill stroke"
     aria-label="3">
    <path
       id="path104"
       style="font-style:normal;font-variant:normal;font-weight:normal;font-stretch:normal;font-size:16px;font-family:'Fira Mono';-inkscape-font-specification:'Fira Mono';stroke-width:1.13385832;stroke-miterlimit:4;stroke-dasharray:none;paint-order:markers fill stroke"
       d="m 174.19557,120.13487 c -1.136,0 -2.192,0.384 -3.136,1.28 l 0.736,0.816 c 0.736,-0.672 1.392,-1.008 2.336,-1.008 1.168,0 2.08,0.656 2.08,1.856 0,1.328 -1.024,1.92 -2.08,1.92 h -0.656 l -0.16,1.072 h 0.912 c 1.312,0 2.288,0.512 2.288,2.096 0,1.376 -0.912,2.24 -2.448,2.24 -0.896,0 -1.824,-0.352 -2.448,-1.088 l -0.896,0.736 c 0.832,1.008 2.144,1.456 3.376,1.456 2.288,0 3.824,-1.44 3.824,-3.344 0,-1.712 -1.216,-2.608 -2.496,-2.704 1.152,-0.224 2.144,-1.232 2.144,-2.56 0,-1.504 -1.296,-2.768 -3.376,-2.768 z" />
  </g>
  <rect
     transform="rotate(90)"
     ry="0"
     rx="0"
     y="-185.95671"
     x="146.97485"
     height="23.266291"
     width="21.327433"
     id="rect329"
     style="fill:#d6d6d6;fill-opacity:1;stroke:#000000;stroke-width:1.13385832;stroke-miterlimit:4;stroke-dasharray:none;paint-order:markers fill stroke" />
  <g
     id="text333"
     style="font-style:normal;font-weight:normal;font-size:40px;line-height:1.25;font-family:Mono-serif;letter-spacing:0px;word-spacing:0px;fill:#000000;fill-opacity:1;stroke:none;stroke-width:1.13385832;stroke-miterlimit:4;stroke-dasharray:none;paint-order:markers fill stroke"
     aria-label="5">
    <path
       id="path107"
       style="font-style:normal;font-variant:normal;font-weight:normal;font-stretch:normal;font-size:16px;font-family:'Fira Mono';-inkscape-font-specification:'Fira Mono';stroke-width:1.13385832;stroke-miterlimit:4;stroke-dasharray:none;paint-order:markers fill stroke"
       d="m 177.41958,152.30207 h -5.84 v 5.504 h 1.088 c 0.64,-0.224 1.072,-0.368 1.712,-0.368 1.12,0 2,0.592 2,2.352 0,1.712 -0.864,2.608 -2.32,2.608 -0.944,0 -1.696,-0.336 -2.368,-1.024 l -0.832,0.816 c 0.848,0.816 1.872,1.312 3.2,1.312 2.272,0 3.728,-1.456 3.728,-3.664 0,-2.208 -1.216,-3.456 -3.024,-3.456 -0.656,0 -1.232,0.112 -1.888,0.48 v -3.472 h 4.352 z" />
  </g>
  <rect
     style="fill:none;fill-opacity:1;stroke:#000000;stroke-width:1.13385832;stroke-miterlimit:4;stroke-dasharray:none;paint-order:markers fill stroke"
     id="rect456"
     width="151.24644"
     height="192.20265"
     x="38.446842"
     y="-211.66722"
     rx="9.7926645"
     ry="9.7926645"
     transform="rotate(90)" />
  <g
     id="text2470"
     style="font-style:normal;font-weight:normal;font-size:40px;line-height:1.25;font-family:Mono-serif;letter-spacing:0px;word-spacing:0px;fill:#000000;fill-opacity:1;stroke:none;stroke-width:1.13385832;stroke-miterlimit:4;stroke-dasharray:none;paint-order:markers fill stroke"
     aria-label="pmap(args2)">
    <path
       id="path110"
       style="font-style:normal;font-variant:normal;font-weight:normal;font-stretch:normal;font-size:16px;font-family:'Fira Mono';-inkscape-font-specification:'Fira Mono';stroke-width:1.13385832;stroke-miterlimit:4;stroke-dasharray:none;paint-order:markers fill stroke"
       d="m 375.4432,21.489637 c -1.008,0 -1.904,0.496 -2.512,1.36 l -0.112,-1.184 h -1.152 v 11.824 l 1.344,-0.16 v -4.016 c 0.576,0.64 1.312,0.96 2.24,0.96 2.192,0 3.248,-1.84 3.248,-4.4 0,-2.64 -0.816,-4.384 -3.056,-4.384 z m -0.32,1.088 c 1.328,0 1.92,1.104 1.92,3.296 0,2.24 -0.704,3.28 -2.096,3.28 -0.8,0 -1.488,-0.4 -1.936,-1.056 v -4.176 c 0.464,-0.672 1.184,-1.344 2.112,-1.344 z" />
    <path
       id="path112"
       style="font-style:normal;font-variant:normal;font-weight:normal;font-stretch:normal;font-size:16px;font-family:'Fira Mono';-inkscape-font-specification:'Fira Mono';stroke-width:1.13385832;stroke-miterlimit:4;stroke-dasharray:none;paint-order:markers fill stroke"
       d="m 386.81295,21.489637 c -0.848,0 -1.392,0.448 -1.856,1.12 -0.256,-0.864 -0.88,-1.12 -1.52,-1.12 -0.848,0 -1.376,0.512 -1.824,1.168 l -0.096,-0.992 h -1.04 v 8.432 h 1.232 v -6.544 c 0.464,-0.72 0.944,-1.008 1.472,-1.008 0.608,0 0.656,0.432 0.656,1.504 v 6.048 h 1.248 v -6.544 c 0.464,-0.72 0.96,-1.008 1.472,-1.008 0.608,0 0.656,0.432 0.656,1.504 v 6.048 h 1.232 v -6.272 c 0,-1.936 -0.816,-2.336 -1.632,-2.336 z" />
    <path
       id="path114"
       style="font-style:normal;font-variant:normal;font-weight:normal;font-stretch:normal;font-size:16px;font-family:'Fira Mono';-inkscape-font-specification:'Fira Mono';stroke-width:1.13385832;stroke-miterlimit:4;stroke-dasharray:none;paint-order:markers fill stroke"
       d="m 396.9027,28.257637 v -4.048 c 0,-1.664 -1.056,-2.72 -3.152,-2.72 -0.832,0 -1.728,0.16 -2.768,0.528 l 0.368,1.024 c 0.864,-0.304 1.632,-0.432 2.192,-0.432 1.248,0 2,0.448 2,1.68 v 0.688 h -1.248 c -2.544,0 -3.936,0.976 -3.936,2.704 0,1.568 1.024,2.592 2.72,2.592 1.088,0 2.032,-0.4 2.64,-1.184 0.224,0.768 0.816,1.104 1.536,1.2 l 0.336,-0.96 c -0.48,-0.144 -0.688,-0.4 -0.688,-1.072 z m -3.488,1.008 c -1.104,0 -1.616,-0.544 -1.616,-1.6 0,-1.088 0.672,-1.76 2.528,-1.76 h 1.216 v 2.16 c -0.496,0.752 -1.296,1.2 -2.128,1.2 z" />
    <path
       id="path116"
       style="font-style:normal;font-variant:normal;font-weight:normal;font-stretch:normal;font-size:16px;font-family:'Fira Mono';-inkscape-font-specification:'Fira Mono';stroke-width:1.13385832;stroke-miterlimit:4;stroke-dasharray:none;paint-order:markers fill stroke"
       d="m 404.22445,21.489637 c -1.008,0 -1.904,0.496 -2.512,1.36 l -0.112,-1.184 h -1.152 v 11.824 l 1.344,-0.16 v -4.016 c 0.576,0.64 1.312,0.96 2.24,0.96 2.192,0 3.248,-1.84 3.248,-4.4 0,-2.64 -0.816,-4.384 -3.056,-4.384 z m -0.32,1.088 c 1.328,0 1.92,1.104 1.92,3.296 0,2.24 -0.704,3.28 -2.096,3.28 -0.8,0 -1.488,-0.4 -1.936,-1.056 v -4.176 c 0.464,-0.672 1.184,-1.344 2.112,-1.344 z" />
    <path
       id="path118"
       style="font-style:normal;font-variant:normal;font-weight:normal;font-stretch:normal;font-size:16px;font-family:'Fira Mono';-inkscape-font-specification:'Fira Mono';stroke-width:1.13385832;stroke-miterlimit:4;stroke-dasharray:none;paint-order:markers fill stroke"
       d="m 411.8502,24.497637 c 0,-3.36 1.104,-5.056 3.408,-7.104 l -0.688,-0.736 c -2.608,2.128 -4.128,4.192 -4.128,7.84 0,3.648 1.52,5.712 4.128,7.84 l 0.688,-0.736 c -2.272,-2.032 -3.408,-3.76 -3.408,-7.104 z" />
    <path
       id="path120"
       style="font-style:normal;font-variant:normal;font-weight:normal;font-stretch:normal;font-size:16px;font-family:'Fira Mono';-inkscape-font-specification:'Fira Mono';stroke-width:1.13385832;stroke-miterlimit:4;stroke-dasharray:none;paint-order:markers fill stroke"
       d="m 425.68395,28.257637 v -4.048 c 0,-1.664 -1.056,-2.72 -3.152,-2.72 -0.832,0 -1.728,0.16 -2.768,0.528 l 0.368,1.024 c 0.864,-0.304 1.632,-0.432 2.192,-0.432 1.248,0 2,0.448 2,1.68 v 0.688 h -1.248 c -2.544,0 -3.936,0.976 -3.936,2.704 0,1.568 1.024,2.592 2.72,2.592 1.088,0 2.032,-0.4 2.64,-1.184 0.224,0.768 0.816,1.104 1.536,1.2 l 0.336,-0.96 c -0.48,-0.144 -0.688,-0.4 -0.688,-1.072 z m -3.488,1.008 c -1.104,0 -1.616,-0.544 -1.616,-1.6 0,-1.088 0.672,-1.76 2.528,-1.76 h 1.216 v 2.16 c -0.496,0.752 -1.296,1.2 -2.128,1.2 z" />
    <path
       id="path122"
       style="font-style:normal;font-variant:normal;font-weight:normal;font-stretch:normal;font-size:16px;font-family:'Fira Mono';-inkscape-font-specification:'Fira Mono';stroke-width:1.13385832;stroke-miterlimit:4;stroke-dasharray:none;paint-order:markers fill stroke"
       d="m 434.9257,21.489637 c -1.52,0 -2.384,0.8 -3.024,2.176 l -0.256,-2 h -2.336 v 1.04 h 1.328 v 6.352 h -1.328 v 1.04 h 4.384 v -1.04 h -1.712 v -3.552 c 0.544,-1.856 1.472,-2.784 2.768,-2.784 h 0.08 v 1.808 h 1.088 l 0.192,-2.864 c -0.368,-0.096 -0.72,-0.176 -1.184,-0.176 z" />
    <path
       id="path124"
       style="font-style:normal;font-variant:normal;font-weight:normal;font-stretch:normal;font-size:16px;font-family:'Fira Mono';-inkscape-font-specification:'Fira Mono';stroke-width:1.13385832;stroke-miterlimit:4;stroke-dasharray:none;paint-order:markers fill stroke"
       d="m 445.68745,20.785637 c -0.992,0.416 -1.728,0.704 -3.84,0.704 -2,0 -3.36,1.216 -3.36,2.928 0,1.088 0.448,1.824 1.408,2.32 -0.608,0.4 -0.928,0.944 -0.928,1.472 0,0.848 0.656,1.6 2.128,1.6 h 1.504 c 1.072,0 1.888,0.4 1.888,1.2 0,0.912 -0.816,1.392 -2.656,1.392 -1.888,0 -2.336,-0.464 -2.336,-1.456 h -1.216 c 0,1.712 0.864,2.544 3.552,2.544 2.56,0 4.016,-0.912 4.016,-2.56 0,-1.312 -1.28,-2.288 -2.976,-2.288 h -1.52 c -0.864,0 -1.12,-0.32 -1.12,-0.72 0,-0.304 0.192,-0.624 0.432,-0.816 0.368,0.128 0.704,0.176 1.264,0.176 2,0 3.168,-1.2 3.168,-2.864 0,-0.96 -0.48,-1.68 -1.472,-2.128 0.944,0 1.76,-0.016 2.464,-0.24 z m -3.856,1.696 c 1.248,0 1.872,0.656 1.872,1.92 0,1.248 -0.64,1.984 -1.84,1.984 -1.376,0 -2,-0.816 -2,-1.968 0,-1.136 0.608,-1.936 1.968,-1.936 z" />
    <path
       id="path126"
       style="font-style:normal;font-variant:normal;font-weight:normal;font-stretch:normal;font-size:16px;font-family:'Fira Mono';-inkscape-font-specification:'Fira Mono';stroke-width:1.13385832;stroke-miterlimit:4;stroke-dasharray:none;paint-order:markers fill stroke"
       d="m 451.2972,29.169637 c -0.992,0 -1.888,-0.368 -2.544,-0.912 l -0.752,0.88 c 0.72,0.624 1.76,1.136 3.296,1.136 1.792,0 3.536,-0.704 3.536,-2.512 0,-1.568 -1.088,-2.144 -2.736,-2.592 -1.696,-0.464 -2.224,-0.72 -2.224,-1.488 0,-0.64 0.48,-1.104 1.824,-1.104 1.088,0 1.808,0.336 2.432,0.768 l 0.608,-0.928 c -0.72,-0.512 -1.712,-0.928 -3.072,-0.928 -1.904,0 -3.2,0.896 -3.2,2.304 0,1.472 1.136,2 2.88,2.432 1.792,0.448 2.032,0.848 2.032,1.6 0,0.816 -0.784,1.344 -2.08,1.344 z" />
    <path
       id="path128"
       style="font-style:normal;font-variant:normal;font-weight:normal;font-stretch:normal;font-size:16px;font-family:'Fira Mono';-inkscape-font-specification:'Fira Mono';stroke-width:1.13385832;stroke-miterlimit:4;stroke-dasharray:none;paint-order:markers fill stroke"
       d="m 460.71495,18.897637 c -1.488,0 -2.496,0.528 -3.36,1.584 l 0.928,0.72 c 0.704,-0.816 1.296,-1.168 2.368,-1.168 1.232,0 1.984,0.752 1.984,1.984 0,1.792 -0.896,3.008 -5.056,6.992 v 1.088 h 6.56 l 0.16,-1.152 h -5.184 c 3.632,-3.312 4.928,-4.944 4.928,-6.976 0,-1.744 -1.248,-3.072 -3.328,-3.072 z" />
    <path
       id="path130"
       style="font-style:normal;font-variant:normal;font-weight:normal;font-stretch:normal;font-size:16px;font-family:'Fira Mono';-inkscape-font-specification:'Fira Mono';stroke-width:1.13385832;stroke-miterlimit:4;stroke-dasharray:none;paint-order:markers fill stroke"
       d="m 472.1967,24.497637 c 0,3.344 -1.136,5.072 -3.408,7.104 l 0.688,0.736 c 2.608,-2.128 4.128,-4.192 4.128,-7.84 0,-3.648 -1.52,-5.712 -4.128,-7.84 l -0.688,0.736 c 2.304,2.048 3.408,3.744 3.408,7.104 z" />
  </g>
  <rect
     transform="rotate(90)"
     style="fill:#ebebeb;fill-opacity:1;stroke:#000000;stroke-width:1.13399994;stroke-miterlimit:4;stroke-dasharray:none;paint-order:markers fill stroke"
     id="rect2472"
     width="21.327433"
     height="349.94937"
     x="82.992531"
     y="-597.61066"
     rx="0"
     ry="0" />
  <g
     id="text2476"
     style="font-style:normal;font-weight:normal;font-size:40px;line-height:1.25;font-family:Mono-serif;letter-spacing:0px;word-spacing:0px;fill:#000000;fill-opacity:1;stroke:none;stroke-width:1.13385832;stroke-miterlimit:4;stroke-dasharray:none;paint-order:markers fill stroke"
     aria-label="rnorm(mean = 5, sigma = 1, n = 1)">
    <path
       id="path133"
       style="font-style:normal;font-variant:normal;font-weight:normal;font-stretch:normal;font-size:16px;font-family:'Fira Mono';-inkscape-font-specification:'Fira Mono';stroke-width:1.13385832;stroke-miterlimit:4;stroke-dasharray:none;paint-order:markers fill stroke"
       d="m 271.79194,90.657602 c -1.52,0 -2.384,0.8 -3.024,2.176 l -0.256,-2 h -2.336 v 1.04 h 1.328 v 6.352 h -1.328 v 1.04 h 4.384 v -1.04 h -1.712 v -3.552 c 0.544,-1.856 1.472,-2.784 2.768,-2.784 h 0.08 v 1.808 h 1.088 l 0.192,-2.864 c -0.368,-0.096 -0.72,-0.176 -1.184,-0.176 z" />
    <path
       id="path135"
       style="font-style:normal;font-variant:normal;font-weight:normal;font-stretch:normal;font-size:16px;font-family:'Fira Mono';-inkscape-font-specification:'Fira Mono';stroke-width:1.13385832;stroke-miterlimit:4;stroke-dasharray:none;paint-order:markers fill stroke"
       d="m 275.68969,99.265602 h 1.344 v -6.128 c 0.448,-0.672 1.296,-1.408 2.288,-1.408 1.264,0 1.44,0.688 1.44,2.416 v 5.12 h 1.344 v -6.112 c 0,-1.568 -0.72,-2.496 -2.368,-2.496 -0.992,0 -2.112,0.496 -2.784,1.36 l -0.112,-1.184 h -1.152 z" />
    <path
       id="path137"
       style="font-style:normal;font-variant:normal;font-weight:normal;font-stretch:normal;font-size:16px;font-family:'Fira Mono';-inkscape-font-specification:'Fira Mono';stroke-width:1.13385832;stroke-miterlimit:4;stroke-dasharray:none;paint-order:markers fill stroke"
       d="m 288.49944,90.657602 c -2.368,0 -3.648,1.808 -3.648,4.4 0,2.656 1.264,4.384 3.632,4.384 2.352,0 3.632,-1.808 3.632,-4.4 0,-2.656 -1.248,-4.384 -3.616,-4.384 z m 0,1.104 c 1.44,0 2.16,1.056 2.16,3.28 0,2.256 -0.72,3.296 -2.176,3.296 -1.456,0 -2.176,-1.04 -2.176,-3.28 0,-2.24 0.736,-3.296 2.192,-3.296 z" />
    <path
       id="path139"
       style="font-style:normal;font-variant:normal;font-weight:normal;font-stretch:normal;font-size:16px;font-family:'Fira Mono';-inkscape-font-specification:'Fira Mono';stroke-width:1.13385832;stroke-miterlimit:4;stroke-dasharray:none;paint-order:markers fill stroke"
       d="m 300.57319,90.657602 c -1.52,0 -2.384,0.8 -3.024,2.176 l -0.256,-2 h -2.336 v 1.04 h 1.328 v 6.352 h -1.328 v 1.04 h 4.384 v -1.04 h -1.712 v -3.552 c 0.544,-1.856 1.472,-2.784 2.768,-2.784 h 0.08 v 1.808 h 1.088 l 0.192,-2.864 c -0.368,-0.096 -0.72,-0.176 -1.184,-0.176 z" />
    <path
       id="path141"
       style="font-style:normal;font-variant:normal;font-weight:normal;font-stretch:normal;font-size:16px;font-family:'Fira Mono';-inkscape-font-specification:'Fira Mono';stroke-width:1.13385832;stroke-miterlimit:4;stroke-dasharray:none;paint-order:markers fill stroke"
       d="m 310.02294,90.657602 c -0.848,0 -1.392,0.448 -1.856,1.12 -0.256,-0.864 -0.88,-1.12 -1.52,-1.12 -0.848,0 -1.376,0.512 -1.824,1.168 l -0.096,-0.992 h -1.04 v 8.432 h 1.232 v -6.544 c 0.464,-0.72 0.944,-1.008 1.472,-1.008 0.608,0 0.656,0.432 0.656,1.504 v 6.048 h 1.248 v -6.544 c 0.464,-0.72 0.96,-1.008 1.472,-1.008 0.608,0 0.656,0.432 0.656,1.504 v 6.048 h 1.232 v -6.272 c 0,-1.936 -0.816,-2.336 -1.632,-2.336 z" />
    <path
       id="path143"
       style="font-style:normal;font-variant:normal;font-weight:normal;font-stretch:normal;font-size:16px;font-family:'Fira Mono';-inkscape-font-specification:'Fira Mono';stroke-width:1.13385832;stroke-miterlimit:4;stroke-dasharray:none;paint-order:markers fill stroke"
       d="m 315.87269,93.665602 c 0,-3.36 1.104,-5.056 3.408,-7.104 l -0.688,-0.736 c -2.608,2.128 -4.128,4.192 -4.128,7.84 0,3.648 1.52,5.712 4.128,7.839998 l 0.688,-0.736 c -2.272,-2.031998 -3.408,-3.759998 -3.408,-7.103998 z" />
    <path
       id="path145"
       style="font-style:normal;font-variant:normal;font-weight:normal;font-stretch:normal;font-size:16px;font-family:'Fira Mono';-inkscape-font-specification:'Fira Mono';stroke-width:1.13385832;stroke-miterlimit:4;stroke-dasharray:none;paint-order:markers fill stroke"
       d="m 329.21044,90.657602 c -0.848,0 -1.392,0.448 -1.856,1.12 -0.256,-0.864 -0.88,-1.12 -1.52,-1.12 -0.848,0 -1.376,0.512 -1.824,1.168 l -0.096,-0.992 h -1.04 v 8.432 h 1.232 v -6.544 c 0.464,-0.72 0.944,-1.008 1.472,-1.008 0.608,0 0.656,0.432 0.656,1.504 v 6.048 h 1.248 v -6.544 c 0.464,-0.72 0.96,-1.008 1.472,-1.008 0.608,0 0.656,0.432 0.656,1.504 v 6.048 h 1.232 v -6.272 c 0,-1.936 -0.816,-2.336 -1.632,-2.336 z" />
    <path
       id="path147"
       style="font-style:normal;font-variant:normal;font-weight:normal;font-stretch:normal;font-size:16px;font-family:'Fira Mono';-inkscape-font-specification:'Fira Mono';stroke-width:1.13385832;stroke-miterlimit:4;stroke-dasharray:none;paint-order:markers fill stroke"
       d="m 334.32419,95.521602 h 5.664 c 0.016,-0.176 0.032,-0.432 0.032,-0.72 0,-2.56 -1.312,-4.144 -3.44,-4.144 -2.24,0 -3.664,1.856 -3.664,4.4 0,2.624 1.392,4.384 3.856,4.384 1.04,0 2.096,-0.368 2.88,-0.976 l -0.624,-0.896 c -0.752,0.496 -1.392,0.752 -2.256,0.752 -1.296,0 -2.384,-0.848 -2.448,-2.8 z m 2.272,-3.76 c 1.28,0 2.08,0.928 2.112,2.736 h -4.384 c 0.112,-1.856 1.024,-2.736 2.272,-2.736 z" />
    <path
       id="path149"
       style="font-style:normal;font-variant:normal;font-weight:normal;font-stretch:normal;font-size:16px;font-family:'Fira Mono';-inkscape-font-specification:'Fira Mono';stroke-width:1.13385832;stroke-miterlimit:4;stroke-dasharray:none;paint-order:markers fill stroke"
       d="m 348.89394,97.425602 v -4.048 c 0,-1.664 -1.056,-2.72 -3.152,-2.72 -0.832,0 -1.728,0.16 -2.768,0.528 l 0.368,1.024 c 0.864,-0.304 1.632,-0.432 2.192,-0.432 1.248,0 2,0.448 2,1.68 v 0.688 h -1.248 c -2.544,0 -3.936,0.976 -3.936,2.704 0,1.568 1.024,2.592 2.72,2.592 1.088,0 2.032,-0.4 2.64,-1.184 0.224,0.768 0.816,1.104 1.536,1.2 l 0.336,-0.96 c -0.48,-0.144 -0.688,-0.4 -0.688,-1.072 z m -3.488,1.008 c -1.104,0 -1.616,-0.544 -1.616,-1.6 0,-1.088 0.672,-1.76 2.528,-1.76 h 1.216 v 2.16 c -0.496,0.752 -1.296,1.2 -2.128,1.2 z" />
    <path
       id="path151"
       style="font-style:normal;font-variant:normal;font-weight:normal;font-stretch:normal;font-size:16px;font-family:'Fira Mono';-inkscape-font-specification:'Fira Mono';stroke-width:1.13385832;stroke-miterlimit:4;stroke-dasharray:none;paint-order:markers fill stroke"
       d="m 352.43969,99.265602 h 1.344 v -6.128 c 0.448,-0.672 1.296,-1.408 2.288,-1.408 1.264,0 1.44,0.688 1.44,2.416 v 5.12 h 1.344 v -6.112 c 0,-1.568 -0.72,-2.496 -2.368,-2.496 -0.992,0 -2.112,0.496 -2.784,1.36 l -0.112,-1.184 h -1.152 z" />
    <path
       id="path153"
       style="font-style:normal;font-variant:normal;font-weight:normal;font-stretch:normal;font-size:16px;font-family:'Fira Mono';-inkscape-font-specification:'Fira Mono';stroke-width:1.13385832;stroke-miterlimit:4;stroke-dasharray:none;paint-order:markers fill stroke"
       d="m 377.93119,92.193602 h -6.208 v 1.152 h 6.208 z m 0,3.04 h -6.208 v 1.152 h 6.208 z" />
    <path
       id="path155"
       style="font-style:normal;font-variant:normal;font-weight:normal;font-stretch:normal;font-size:16px;font-family:'Fira Mono';-inkscape-font-specification:'Fira Mono';stroke-width:1.13385832;stroke-miterlimit:4;stroke-dasharray:none;paint-order:markers fill stroke"
       d="m 397.00669,88.241602 h -5.84 v 5.504 h 1.088 c 0.64,-0.224 1.072,-0.368 1.712,-0.368 1.12,0 2,0.592 2,2.352 0,1.712 -0.864,2.608 -2.32,2.608 -0.944,0 -1.696,-0.336 -2.368,-1.024 l -0.832,0.816 c 0.848,0.816 1.872,1.312 3.2,1.312 2.272,0 3.728,-1.456 3.728,-3.664 0,-2.208 -1.216,-3.456 -3.024,-3.456 -0.656,0 -1.232,0.112 -1.888,0.48 v -3.472 h 4.352 z" />
    <path
       id="path157"
       style="font-style:normal;font-variant:normal;font-weight:normal;font-stretch:normal;font-size:16px;font-family:'Fira Mono';-inkscape-font-specification:'Fira Mono';stroke-width:1.13385832;stroke-miterlimit:4;stroke-dasharray:none;paint-order:markers fill stroke"
       d="m 403.60844,96.625602 c -0.72,0 -1.28,0.576 -1.28,1.296 0,0.416 0.208,0.832 0.512,1.056 l -0.752,3.151998 h 1.216 l 1.296,-2.959998 c 0.224,-0.496 0.304,-0.864 0.304,-1.264 0,-0.704 -0.56,-1.28 -1.296,-1.28 z" />
    <path
       id="path159"
       style="font-style:normal;font-variant:normal;font-weight:normal;font-stretch:normal;font-size:16px;font-family:'Fira Mono';-inkscape-font-specification:'Fira Mono';stroke-width:1.13385832;stroke-miterlimit:4;stroke-dasharray:none;paint-order:markers fill stroke"
       d="m 422.47594,98.337602 c -0.992,0 -1.888,-0.368 -2.544,-0.912 l -0.752,0.88 c 0.72,0.624 1.76,1.136 3.296,1.136 1.792,0 3.536,-0.704 3.536,-2.512 0,-1.568 -1.088,-2.144 -2.736,-2.592 -1.696,-0.464 -2.224,-0.72 -2.224,-1.488 0,-0.64 0.48,-1.104 1.824,-1.104 1.088,0 1.808,0.336 2.432,0.768 l 0.608,-0.928 c -0.72,-0.512 -1.712,-0.928 -3.072,-0.928 -1.904,0 -3.2,0.896 -3.2,2.304 0,1.472 1.136,2 2.88,2.432 1.792,0.448 2.032,0.848 2.032,1.6 0,0.816 -0.784,1.344 -2.08,1.344 z" />
    <path
       id="path161"
       style="font-style:normal;font-variant:normal;font-weight:normal;font-stretch:normal;font-size:16px;font-family:'Fira Mono';-inkscape-font-specification:'Fira Mono';stroke-width:1.13385832;stroke-miterlimit:4;stroke-dasharray:none;paint-order:markers fill stroke"
       d="m 432.38969,86.897602 c -0.576,0 -0.96,0.4 -0.96,0.944 0,0.544 0.384,0.944 0.96,0.944 0.592,0 0.992,-0.4 0.992,-0.944 0,-0.544 -0.4,-0.944 -0.992,-0.944 z m 1.072,3.936 h -3.856 v 1.072 h 2.512 v 6.288 h -2.592 v 1.072 h 6.304 v -1.072 h -2.368 z" />
    <path
       id="path163"
       style="font-style:normal;font-variant:normal;font-weight:normal;font-stretch:normal;font-size:16px;font-family:'Fira Mono';-inkscape-font-specification:'Fira Mono';stroke-width:1.13385832;stroke-miterlimit:4;stroke-dasharray:none;paint-order:markers fill stroke"
       d="m 445.64744,89.953602 c -0.992,0.416 -1.728,0.704 -3.84,0.704 -2,0 -3.36,1.216 -3.36,2.928 0,1.088 0.448,1.824 1.408,2.32 -0.608,0.4 -0.928,0.944 -0.928,1.472 0,0.848 0.656,1.6 2.128,1.6 h 1.504 c 1.072,0 1.888,0.4 1.888,1.199998 0,0.912 -0.816,1.392 -2.656,1.392 -1.888,0 -2.336,-0.464 -2.336,-1.456 h -1.216 c 0,1.712 0.864,2.544 3.552,2.544 2.56,0 4.016,-0.912 4.016,-2.56 0,-1.311998 -1.28,-2.287998 -2.976,-2.287998 h -1.52 c -0.864,0 -1.12,-0.32 -1.12,-0.72 0,-0.304 0.192,-0.624 0.432,-0.816 0.368,0.128 0.704,0.176 1.264,0.176 2,0 3.168,-1.2 3.168,-2.864 0,-0.96 -0.48,-1.68 -1.472,-2.128 0.944,0 1.76,-0.016 2.464,-0.24 z m -3.856,1.696 c 1.248,0 1.872,0.656 1.872,1.92 0,1.248 -0.64,1.984 -1.84,1.984 -1.376,0 -2,-0.816 -2,-1.968 0,-1.136 0.608,-1.936 1.968,-1.936 z" />
    <path
       id="path165"
       style="font-style:normal;font-variant:normal;font-weight:normal;font-stretch:normal;font-size:16px;font-family:'Fira Mono';-inkscape-font-specification:'Fira Mono';stroke-width:1.13385832;stroke-miterlimit:4;stroke-dasharray:none;paint-order:markers fill stroke"
       d="m 453.92919,90.657602 c -0.848,0 -1.392,0.448 -1.856,1.12 -0.256,-0.864 -0.88,-1.12 -1.52,-1.12 -0.848,0 -1.376,0.512 -1.824,1.168 l -0.096,-0.992 h -1.04 v 8.432 h 1.232 v -6.544 c 0.464,-0.72 0.944,-1.008 1.472,-1.008 0.608,0 0.656,0.432 0.656,1.504 v 6.048 h 1.248 v -6.544 c 0.464,-0.72 0.96,-1.008 1.472,-1.008 0.608,0 0.656,0.432 0.656,1.504 v 6.048 h 1.232 v -6.272 c 0,-1.936 -0.816,-2.336 -1.632,-2.336 z" />
    <path
       id="path167"
       style="font-style:normal;font-variant:normal;font-weight:normal;font-stretch:normal;font-size:16px;font-family:'Fira Mono';-inkscape-font-specification:'Fira Mono';stroke-width:1.13385832;stroke-miterlimit:4;stroke-dasharray:none;paint-order:markers fill stroke"
       d="m 464.01894,97.425602 v -4.048 c 0,-1.664 -1.056,-2.72 -3.152,-2.72 -0.832,0 -1.728,0.16 -2.768,0.528 l 0.368,1.024 c 0.864,-0.304 1.632,-0.432 2.192,-0.432 1.248,0 2,0.448 2,1.68 v 0.688 h -1.248 c -2.544,0 -3.936,0.976 -3.936,2.704 0,1.568 1.024,2.592 2.72,2.592 1.088,0 2.032,-0.4 2.64,-1.184 0.224,0.768 0.816,1.104 1.536,1.2 l 0.336,-0.96 c -0.48,-0.144 -0.688,-0.4 -0.688,-1.072 z m -3.488,1.008 c -1.104,0 -1.616,-0.544 -1.616,-1.6 0,-1.088 0.672,-1.76 2.528,-1.76 h 1.216 v 2.16 c -0.496,0.752 -1.296,1.2 -2.128,1.2 z" />
    <path
       id="path169"
       style="font-style:normal;font-variant:normal;font-weight:normal;font-stretch:normal;font-size:16px;font-family:'Fira Mono';-inkscape-font-specification:'Fira Mono';stroke-width:1.13385832;stroke-miterlimit:4;stroke-dasharray:none;paint-order:markers fill stroke"
       d="m 483.46244,92.193602 h -6.208 v 1.152 h 6.208 z m 0,3.04 h -6.208 v 1.152 h 6.208 z" />
    <path
       id="path171"
       style="font-style:normal;font-variant:normal;font-weight:normal;font-stretch:normal;font-size:16px;font-family:'Fira Mono';-inkscape-font-specification:'Fira Mono';stroke-width:1.13385832;stroke-miterlimit:4;stroke-dasharray:none;paint-order:markers fill stroke"
       d="m 500.72994,98.177602 v -9.936 h -1.184 l -3.28,2.048 0.592,0.944 2.512,-1.52 v 8.464 h -2.704 v 1.088 h 6.352 v -1.088 z" />
    <path
       id="path173"
       style="font-style:normal;font-variant:normal;font-weight:normal;font-stretch:normal;font-size:16px;font-family:'Fira Mono';-inkscape-font-specification:'Fira Mono';stroke-width:1.13385832;stroke-miterlimit:4;stroke-dasharray:none;paint-order:markers fill stroke"
       d="m 509.13969,96.625602 c -0.72,0 -1.28,0.576 -1.28,1.296 0,0.416 0.208,0.832 0.512,1.056 l -0.752,3.151998 h 1.216 l 1.296,-2.959998 c 0.224,-0.496 0.304,-0.864 0.304,-1.264 0,-0.704 -0.56,-1.28 -1.296,-1.28 z" />
    <path
       id="path175"
       style="font-style:normal;font-variant:normal;font-weight:normal;font-stretch:normal;font-size:16px;font-family:'Fira Mono';-inkscape-font-specification:'Fira Mono';stroke-width:1.13385832;stroke-miterlimit:4;stroke-dasharray:none;paint-order:markers fill stroke"
       d="m 525.12719,99.265602 h 1.344 v -6.128 c 0.448,-0.672 1.296,-1.408 2.288,-1.408 1.264,0 1.44,0.688 1.44,2.416 v 5.12 h 1.344 v -6.112 c 0,-1.568 -0.72,-2.496 -2.368,-2.496 -0.992,0 -2.112,0.496 -2.784,1.36 l -0.112,-1.184 h -1.152 z" />
    <path
       id="path177"
       style="font-style:normal;font-variant:normal;font-weight:normal;font-stretch:normal;font-size:16px;font-family:'Fira Mono';-inkscape-font-specification:'Fira Mono';stroke-width:1.13385832;stroke-miterlimit:4;stroke-dasharray:none;paint-order:markers fill stroke"
       d="m 550.61869,92.193602 h -6.208 v 1.152 h 6.208 z m 0,3.04 h -6.208 v 1.152 h 6.208 z" />
    <path
       id="path179"
       style="font-style:normal;font-variant:normal;font-weight:normal;font-stretch:normal;font-size:16px;font-family:'Fira Mono';-inkscape-font-specification:'Fira Mono';stroke-width:1.13385832;stroke-miterlimit:4;stroke-dasharray:none;paint-order:markers fill stroke"
       d="m 567.88619,98.177602 v -9.936 h -1.184 l -3.28,2.048 0.592,0.944 2.512,-1.52 v 8.464 h -2.704 v 1.088 h 6.352 v -1.088 z" />
    <path
       id="path181"
       style="font-style:normal;font-variant:normal;font-weight:normal;font-stretch:normal;font-size:16px;font-family:'Fira Mono';-inkscape-font-specification:'Fira Mono';stroke-width:1.13385832;stroke-miterlimit:4;stroke-dasharray:none;paint-order:markers fill stroke"
       d="m 577.68794,93.665602 c 0,3.344 -1.136,5.072 -3.408,7.103998 l 0.688,0.736 c 2.608,-2.127998 4.128,-4.191998 4.128,-7.839998 0,-3.648 -1.52,-5.712 -4.128,-7.84 l -0.688,0.736 c 2.304,2.048 3.408,3.744 3.408,7.104 z" />
  </g>
  <rect
     transform="rotate(90)"
     style="fill:#ebebeb;fill-opacity:1;stroke:#000000;stroke-width:1.13399994;stroke-miterlimit:4;stroke-dasharray:none;paint-order:markers fill stroke"
     id="rect2478"
     width="21.327433"
     height="349.94931"
     x="114.98368"
     y="-597.6106"
     rx="0"
     ry="0" />
  <g
     id="text2482"
     style="font-style:normal;font-weight:normal;font-size:40px;line-height:1.25;font-family:Mono-serif;letter-spacing:0px;word-spacing:0px;fill:#000000;fill-opacity:1;stroke:none;stroke-width:1.13385832;stroke-miterlimit:4;stroke-dasharray:none;paint-order:markers fill stroke"
     aria-label="rnorm(mean = 10, sigma = 5, n = 3)">
    <path
       id="path184"
       style="font-style:normal;font-variant:normal;font-weight:normal;font-stretch:normal;font-size:16px;font-family:'Fira Mono';-inkscape-font-specification:'Fira Mono';stroke-width:1.13385832;stroke-miterlimit:4;stroke-dasharray:none;paint-order:markers fill stroke"
       d="m 266.99507,122.72687 c -1.52,0 -2.384,0.8 -3.024,2.176 l -0.256,-2 h -2.336 v 1.04 h 1.328 v 6.352 h -1.328 v 1.04 h 4.384 v -1.04 h -1.712 v -3.552 c 0.544,-1.856 1.472,-2.784 2.768,-2.784 h 0.08 v 1.808 h 1.088 l 0.192,-2.864 c -0.368,-0.096 -0.72,-0.176 -1.184,-0.176 z" />
    <path
       id="path186"
       style="font-style:normal;font-variant:normal;font-weight:normal;font-stretch:normal;font-size:16px;font-family:'Fira Mono';-inkscape-font-specification:'Fira Mono';stroke-width:1.13385832;stroke-miterlimit:4;stroke-dasharray:none;paint-order:markers fill stroke"
       d="m 270.89282,131.33487 h 1.344 v -6.128 c 0.448,-0.672 1.296,-1.408 2.288,-1.408 1.264,0 1.44,0.688 1.44,2.416 v 5.12 h 1.344 v -6.112 c 0,-1.568 -0.72,-2.496 -2.368,-2.496 -0.992,0 -2.112,0.496 -2.784,1.36 l -0.112,-1.184 h -1.152 z" />
    <path
       id="path188"
       style="font-style:normal;font-variant:normal;font-weight:normal;font-stretch:normal;font-size:16px;font-family:'Fira Mono';-inkscape-font-specification:'Fira Mono';stroke-width:1.13385832;stroke-miterlimit:4;stroke-dasharray:none;paint-order:markers fill stroke"
       d="m 283.70257,122.72687 c -2.368,0 -3.648,1.808 -3.648,4.4 0,2.656 1.264,4.384 3.632,4.384 2.352,0 3.632,-1.808 3.632,-4.4 0,-2.656 -1.248,-4.384 -3.616,-4.384 z m 0,1.104 c 1.44,0 2.16,1.056 2.16,3.28 0,2.256 -0.72,3.296 -2.176,3.296 -1.456,0 -2.176,-1.04 -2.176,-3.28 0,-2.24 0.736,-3.296 2.192,-3.296 z" />
    <path
       id="path190"
       style="font-style:normal;font-variant:normal;font-weight:normal;font-stretch:normal;font-size:16px;font-family:'Fira Mono';-inkscape-font-specification:'Fira Mono';stroke-width:1.13385832;stroke-miterlimit:4;stroke-dasharray:none;paint-order:markers fill stroke"
       d="m 295.77632,122.72687 c -1.52,0 -2.384,0.8 -3.024,2.176 l -0.256,-2 h -2.336 v 1.04 h 1.328 v 6.352 h -1.328 v 1.04 h 4.384 v -1.04 h -1.712 v -3.552 c 0.544,-1.856 1.472,-2.784 2.768,-2.784 h 0.08 v 1.808 h 1.088 l 0.192,-2.864 c -0.368,-0.096 -0.72,-0.176 -1.184,-0.176 z" />
    <path
       id="path192"
       style="font-style:normal;font-variant:normal;font-weight:normal;font-stretch:normal;font-size:16px;font-family:'Fira Mono';-inkscape-font-specification:'Fira Mono';stroke-width:1.13385832;stroke-miterlimit:4;stroke-dasharray:none;paint-order:markers fill stroke"
       d="m 305.22607,122.72687 c -0.848,0 -1.392,0.448 -1.856,1.12 -0.256,-0.864 -0.88,-1.12 -1.52,-1.12 -0.848,0 -1.376,0.512 -1.824,1.168 l -0.096,-0.992 h -1.04 v 8.432 h 1.232 v -6.544 c 0.464,-0.72 0.944,-1.008 1.472,-1.008 0.608,0 0.656,0.432 0.656,1.504 v 6.048 h 1.248 v -6.544 c 0.464,-0.72 0.96,-1.008 1.472,-1.008 0.608,0 0.656,0.432 0.656,1.504 v 6.048 h 1.232 v -6.272 c 0,-1.936 -0.816,-2.336 -1.632,-2.336 z" />
    <path
       id="path194"
       style="font-style:normal;font-variant:normal;font-weight:normal;font-stretch:normal;font-size:16px;font-family:'Fira Mono';-inkscape-font-specification:'Fira Mono';stroke-width:1.13385832;stroke-miterlimit:4;stroke-dasharray:none;paint-order:markers fill stroke"
       d="m 311.07582,125.73487 c 0,-3.36 1.104,-5.056 3.408,-7.104 l -0.688,-0.736 c -2.608,2.128 -4.128,4.192 -4.128,7.84 0,3.648 1.52,5.712 4.128,7.84 l 0.688,-0.736 c -2.272,-2.032 -3.408,-3.76 -3.408,-7.104 z" />
    <path
       id="path196"
       style="font-style:normal;font-variant:normal;font-weight:normal;font-stretch:normal;font-size:16px;font-family:'Fira Mono';-inkscape-font-specification:'Fira Mono';stroke-width:1.13385832;stroke-miterlimit:4;stroke-dasharray:none;paint-order:markers fill stroke"
       d="m 324.41357,122.72687 c -0.848,0 -1.392,0.448 -1.856,1.12 -0.256,-0.864 -0.88,-1.12 -1.52,-1.12 -0.848,0 -1.376,0.512 -1.824,1.168 l -0.096,-0.992 h -1.04 v 8.432 h 1.232 v -6.544 c 0.464,-0.72 0.944,-1.008 1.472,-1.008 0.608,0 0.656,0.432 0.656,1.504 v 6.048 h 1.248 v -6.544 c 0.464,-0.72 0.96,-1.008 1.472,-1.008 0.608,0 0.656,0.432 0.656,1.504 v 6.048 h 1.232 v -6.272 c 0,-1.936 -0.816,-2.336 -1.632,-2.336 z" />
    <path
       id="path198"
       style="font-style:normal;font-variant:normal;font-weight:normal;font-stretch:normal;font-size:16px;font-family:'Fira Mono';-inkscape-font-specification:'Fira Mono';stroke-width:1.13385832;stroke-miterlimit:4;stroke-dasharray:none;paint-order:markers fill stroke"
       d="m 329.52732,127.59087 h 5.664 c 0.016,-0.176 0.032,-0.432 0.032,-0.72 0,-2.56 -1.312,-4.144 -3.44,-4.144 -2.24,0 -3.664,1.856 -3.664,4.4 0,2.624 1.392,4.384 3.856,4.384 1.04,0 2.096,-0.368 2.88,-0.976 l -0.624,-0.896 c -0.752,0.496 -1.392,0.752 -2.256,0.752 -1.296,0 -2.384,-0.848 -2.448,-2.8 z m 2.272,-3.76 c 1.28,0 2.08,0.928 2.112,2.736 h -4.384 c 0.112,-1.856 1.024,-2.736 2.272,-2.736 z" />
    <path
       id="path200"
       style="font-style:normal;font-variant:normal;font-weight:normal;font-stretch:normal;font-size:16px;font-family:'Fira Mono';-inkscape-font-specification:'Fira Mono';stroke-width:1.13385832;stroke-miterlimit:4;stroke-dasharray:none;paint-order:markers fill stroke"
       d="m 344.09707,129.49487 v -4.048 c 0,-1.664 -1.056,-2.72 -3.152,-2.72 -0.832,0 -1.728,0.16 -2.768,0.528 l 0.368,1.024 c 0.864,-0.304 1.632,-0.432 2.192,-0.432 1.248,0 2,0.448 2,1.68 v 0.688 h -1.248 c -2.544,0 -3.936,0.976 -3.936,2.704 0,1.568 1.024,2.592 2.72,2.592 1.088,0 2.032,-0.4 2.64,-1.184 0.224,0.768 0.816,1.104 1.536,1.2 l 0.336,-0.96 c -0.48,-0.144 -0.688,-0.4 -0.688,-1.072 z m -3.488,1.008 c -1.104,0 -1.616,-0.544 -1.616,-1.6 0,-1.088 0.672,-1.76 2.528,-1.76 h 1.216 v 2.16 c -0.496,0.752 -1.296,1.2 -2.128,1.2 z" />
    <path
       id="path202"
       style="font-style:normal;font-variant:normal;font-weight:normal;font-stretch:normal;font-size:16px;font-family:'Fira Mono';-inkscape-font-specification:'Fira Mono';stroke-width:1.13385832;stroke-miterlimit:4;stroke-dasharray:none;paint-order:markers fill stroke"
       d="m 347.64282,131.33487 h 1.344 v -6.128 c 0.448,-0.672 1.296,-1.408 2.288,-1.408 1.264,0 1.44,0.688 1.44,2.416 v 5.12 h 1.344 v -6.112 c 0,-1.568 -0.72,-2.496 -2.368,-2.496 -0.992,0 -2.112,0.496 -2.784,1.36 l -0.112,-1.184 h -1.152 z" />
    <path
       id="path204"
       style="font-style:normal;font-variant:normal;font-weight:normal;font-stretch:normal;font-size:16px;font-family:'Fira Mono';-inkscape-font-specification:'Fira Mono';stroke-width:1.13385832;stroke-miterlimit:4;stroke-dasharray:none;paint-order:markers fill stroke"
       d="m 373.13432,124.26287 h -6.208 v 1.152 h 6.208 z m 0,3.04 h -6.208 v 1.152 h 6.208 z" />
    <path
       id="path206"
       style="font-style:normal;font-variant:normal;font-weight:normal;font-stretch:normal;font-size:16px;font-family:'Fira Mono';-inkscape-font-specification:'Fira Mono';stroke-width:1.13385832;stroke-miterlimit:4;stroke-dasharray:none;paint-order:markers fill stroke"
       d="m 390.40182,130.24687 v -9.936 h -1.184 l -3.28,2.048 0.592,0.944 2.512,-1.52 v 8.464 h -2.704 v 1.088 h 6.352 v -1.088 z" />
    <path
       id="path208"
       style="font-style:normal;font-variant:normal;font-weight:normal;font-stretch:normal;font-size:16px;font-family:'Fira Mono';-inkscape-font-specification:'Fira Mono';stroke-width:1.13385832;stroke-miterlimit:4;stroke-dasharray:none;paint-order:markers fill stroke"
       d="m 398.81157,120.13487 c -2.368,0 -3.6,2.032 -3.6,5.68 0,3.664 1.232,5.696 3.6,5.696 2.368,0 3.6,-2.032 3.6,-5.696 0,-3.648 -1.232,-5.68 -3.6,-5.68 z m 0,1.088 c 1.376,0 2.192,1.344 2.192,4.592 0,3.264 -0.816,4.608 -2.192,4.608 -1.36,0 -2.192,-1.344 -2.192,-4.608 0,-3.248 0.832,-4.592 2.192,-4.592 z m 0,3.552 c -0.592,0 -1.04,0.464 -1.04,1.04 0,0.592 0.448,1.056 1.04,1.056 0.608,0 1.056,-0.464 1.056,-1.056 0,-0.576 -0.448,-1.04 -1.056,-1.04 z" />
    <path
       id="path210"
       style="font-style:normal;font-variant:normal;font-weight:normal;font-stretch:normal;font-size:16px;font-family:'Fira Mono';-inkscape-font-specification:'Fira Mono';stroke-width:1.13385832;stroke-miterlimit:4;stroke-dasharray:none;paint-order:markers fill stroke"
       d="m 408.40532,128.69487 c -0.72,0 -1.28,0.576 -1.28,1.296 0,0.416 0.208,0.832 0.512,1.056 l -0.752,3.152 h 1.216 l 1.296,-2.96 c 0.224,-0.496 0.304,-0.864 0.304,-1.264 0,-0.704 -0.56,-1.28 -1.296,-1.28 z" />
    <path
       id="path212"
       style="font-style:normal;font-variant:normal;font-weight:normal;font-stretch:normal;font-size:16px;font-family:'Fira Mono';-inkscape-font-specification:'Fira Mono';stroke-width:1.13385832;stroke-miterlimit:4;stroke-dasharray:none;paint-order:markers fill stroke"
       d="m 427.27282,130.40687 c -0.992,0 -1.888,-0.368 -2.544,-0.912 l -0.752,0.88 c 0.72,0.624 1.76,1.136 3.296,1.136 1.792,0 3.536,-0.704 3.536,-2.512 0,-1.568 -1.088,-2.144 -2.736,-2.592 -1.696,-0.464 -2.224,-0.72 -2.224,-1.488 0,-0.64 0.48,-1.104 1.824,-1.104 1.088,0 1.808,0.336 2.432,0.768 l 0.608,-0.928 c -0.72,-0.512 -1.712,-0.928 -3.072,-0.928 -1.904,0 -3.2,0.896 -3.2,2.304 0,1.472 1.136,2 2.88,2.432 1.792,0.448 2.032,0.848 2.032,1.6 0,0.816 -0.784,1.344 -2.08,1.344 z" />
    <path
       id="path214"
       style="font-style:normal;font-variant:normal;font-weight:normal;font-stretch:normal;font-size:16px;font-family:'Fira Mono';-inkscape-font-specification:'Fira Mono';stroke-width:1.13385832;stroke-miterlimit:4;stroke-dasharray:none;paint-order:markers fill stroke"
       d="m 437.18657,118.96687 c -0.576,0 -0.96,0.4 -0.96,0.944 0,0.544 0.384,0.944 0.96,0.944 0.592,0 0.992,-0.4 0.992,-0.944 0,-0.544 -0.4,-0.944 -0.992,-0.944 z m 1.072,3.936 h -3.856 v 1.072 h 2.512 v 6.288 h -2.592 v 1.072 h 6.304 v -1.072 h -2.368 z" />
    <path
       id="path216"
       style="font-style:normal;font-variant:normal;font-weight:normal;font-stretch:normal;font-size:16px;font-family:'Fira Mono';-inkscape-font-specification:'Fira Mono';stroke-width:1.13385832;stroke-miterlimit:4;stroke-dasharray:none;paint-order:markers fill stroke"
       d="m 450.44432,122.02287 c -0.992,0.416 -1.728,0.704 -3.84,0.704 -2,0 -3.36,1.216 -3.36,2.928 0,1.088 0.448,1.824 1.408,2.32 -0.608,0.4 -0.928,0.944 -0.928,1.472 0,0.848 0.656,1.6 2.128,1.6 h 1.504 c 1.072,0 1.888,0.4 1.888,1.2 0,0.912 -0.816,1.392 -2.656,1.392 -1.888,0 -2.336,-0.464 -2.336,-1.456 h -1.216 c 0,1.712 0.864,2.544 3.552,2.544 2.56,0 4.016,-0.912 4.016,-2.56 0,-1.312 -1.28,-2.288 -2.976,-2.288 h -1.52 c -0.864,0 -1.12,-0.32 -1.12,-0.72 0,-0.304 0.192,-0.624 0.432,-0.816 0.368,0.128 0.704,0.176 1.264,0.176 2,0 3.168,-1.2 3.168,-2.864 0,-0.96 -0.48,-1.68 -1.472,-2.128 0.944,0 1.76,-0.016 2.464,-0.24 z m -3.856,1.696 c 1.248,0 1.872,0.656 1.872,1.92 0,1.248 -0.64,1.984 -1.84,1.984 -1.376,0 -2,-0.816 -2,-1.968 0,-1.136 0.608,-1.936 1.968,-1.936 z" />
    <path
       id="path218"
       style="font-style:normal;font-variant:normal;font-weight:normal;font-stretch:normal;font-size:16px;font-family:'Fira Mono';-inkscape-font-specification:'Fira Mono';stroke-width:1.13385832;stroke-miterlimit:4;stroke-dasharray:none;paint-order:markers fill stroke"
       d="m 458.72607,122.72687 c -0.848,0 -1.392,0.448 -1.856,1.12 -0.256,-0.864 -0.88,-1.12 -1.52,-1.12 -0.848,0 -1.376,0.512 -1.824,1.168 l -0.096,-0.992 h -1.04 v 8.432 h 1.232 v -6.544 c 0.464,-0.72 0.944,-1.008 1.472,-1.008 0.608,0 0.656,0.432 0.656,1.504 v 6.048 h 1.248 v -6.544 c 0.464,-0.72 0.96,-1.008 1.472,-1.008 0.608,0 0.656,0.432 0.656,1.504 v 6.048 h 1.232 v -6.272 c 0,-1.936 -0.816,-2.336 -1.632,-2.336 z" />
    <path
       id="path220"
       style="font-style:normal;font-variant:normal;font-weight:normal;font-stretch:normal;font-size:16px;font-family:'Fira Mono';-inkscape-font-specification:'Fira Mono';stroke-width:1.13385832;stroke-miterlimit:4;stroke-dasharray:none;paint-order:markers fill stroke"
       d="m 468.81582,129.49487 v -4.048 c 0,-1.664 -1.056,-2.72 -3.152,-2.72 -0.832,0 -1.728,0.16 -2.768,0.528 l 0.368,1.024 c 0.864,-0.304 1.632,-0.432 2.192,-0.432 1.248,0 2,0.448 2,1.68 v 0.688 h -1.248 c -2.544,0 -3.936,0.976 -3.936,2.704 0,1.568 1.024,2.592 2.72,2.592 1.088,0 2.032,-0.4 2.64,-1.184 0.224,0.768 0.816,1.104 1.536,1.2 l 0.336,-0.96 c -0.48,-0.144 -0.688,-0.4 -0.688,-1.072 z m -3.488,1.008 c -1.104,0 -1.616,-0.544 -1.616,-1.6 0,-1.088 0.672,-1.76 2.528,-1.76 h 1.216 v 2.16 c -0.496,0.752 -1.296,1.2 -2.128,1.2 z" />
    <path
       id="path222"
       style="font-style:normal;font-variant:normal;font-weight:normal;font-stretch:normal;font-size:16px;font-family:'Fira Mono';-inkscape-font-specification:'Fira Mono';stroke-width:1.13385832;stroke-miterlimit:4;stroke-dasharray:none;paint-order:markers fill stroke"
       d="m 488.25932,124.26287 h -6.208 v 1.152 h 6.208 z m 0,3.04 h -6.208 v 1.152 h 6.208 z" />
    <path
       id="path224"
       style="font-style:normal;font-variant:normal;font-weight:normal;font-stretch:normal;font-size:16px;font-family:'Fira Mono';-inkscape-font-specification:'Fira Mono';stroke-width:1.13385832;stroke-miterlimit:4;stroke-dasharray:none;paint-order:markers fill stroke"
       d="m 507.33482,120.31087 h -5.84 v 5.504 h 1.088 c 0.64,-0.224 1.072,-0.368 1.712,-0.368 1.12,0 2,0.592 2,2.352 0,1.712 -0.864,2.608 -2.32,2.608 -0.944,0 -1.696,-0.336 -2.368,-1.024 l -0.832,0.816 c 0.848,0.816 1.872,1.312 3.2,1.312 2.272,0 3.728,-1.456 3.728,-3.664 0,-2.208 -1.216,-3.456 -3.024,-3.456 -0.656,0 -1.232,0.112 -1.888,0.48 v -3.472 h 4.352 z" />
    <path
       id="path226"
       style="font-style:normal;font-variant:normal;font-weight:normal;font-stretch:normal;font-size:16px;font-family:'Fira Mono';-inkscape-font-specification:'Fira Mono';stroke-width:1.13385832;stroke-miterlimit:4;stroke-dasharray:none;paint-order:markers fill stroke"
       d="m 513.93657,128.69487 c -0.72,0 -1.28,0.576 -1.28,1.296 0,0.416 0.208,0.832 0.512,1.056 l -0.752,3.152 h 1.216 l 1.296,-2.96 c 0.224,-0.496 0.304,-0.864 0.304,-1.264 0,-0.704 -0.56,-1.28 -1.296,-1.28 z" />
    <path
       id="path228"
       style="font-style:normal;font-variant:normal;font-weight:normal;font-stretch:normal;font-size:16px;font-family:'Fira Mono';-inkscape-font-specification:'Fira Mono';stroke-width:1.13385832;stroke-miterlimit:4;stroke-dasharray:none;paint-order:markers fill stroke"
       d="m 529.92407,131.33487 h 1.344 v -6.128 c 0.448,-0.672 1.296,-1.408 2.288,-1.408 1.264,0 1.44,0.688 1.44,2.416 v 5.12 h 1.344 v -6.112 c 0,-1.568 -0.72,-2.496 -2.368,-2.496 -0.992,0 -2.112,0.496 -2.784,1.36 l -0.112,-1.184 h -1.152 z" />
    <path
       id="path230"
       style="font-style:normal;font-variant:normal;font-weight:normal;font-stretch:normal;font-size:16px;font-family:'Fira Mono';-inkscape-font-specification:'Fira Mono';stroke-width:1.13385832;stroke-miterlimit:4;stroke-dasharray:none;paint-order:markers fill stroke"
       d="m 555.41557,124.26287 h -6.208 v 1.152 h 6.208 z m 0,3.04 h -6.208 v 1.152 h 6.208 z" />
    <path
       id="path232"
       style="font-style:normal;font-variant:normal;font-weight:normal;font-stretch:normal;font-size:16px;font-family:'Fira Mono';-inkscape-font-specification:'Fira Mono';stroke-width:1.13385832;stroke-miterlimit:4;stroke-dasharray:none;paint-order:markers fill stroke"
       d="m 571.00307,120.13487 c -1.136,0 -2.192,0.384 -3.136,1.28 l 0.736,0.816 c 0.736,-0.672 1.392,-1.008 2.336,-1.008 1.168,0 2.08,0.656 2.08,1.856 0,1.328 -1.024,1.92 -2.08,1.92 h -0.656 l -0.16,1.072 h 0.912 c 1.312,0 2.288,0.512 2.288,2.096 0,1.376 -0.912,2.24 -2.448,2.24 -0.896,0 -1.824,-0.352 -2.448,-1.088 l -0.896,0.736 c 0.832,1.008 2.144,1.456 3.376,1.456 2.288,0 3.824,-1.44 3.824,-3.344 0,-1.712 -1.216,-2.608 -2.496,-2.704 1.152,-0.224 2.144,-1.232 2.144,-2.56 0,-1.504 -1.296,-2.768 -3.376,-2.768 z" />
    <path
       id="path234"
       style="font-style:normal;font-variant:normal;font-weight:normal;font-stretch:normal;font-size:16px;font-family:'Fira Mono';-inkscape-font-specification:'Fira Mono';stroke-width:1.13385832;stroke-miterlimit:4;stroke-dasharray:none;paint-order:markers fill stroke"
       d="m 582.48482,125.73487 c 0,3.344 -1.136,5.072 -3.408,7.104 l 0.688,0.736 c 2.608,-2.128 4.128,-4.192 4.128,-7.84 0,-3.648 -1.52,-5.712 -4.128,-7.84 l -0.688,0.736 c 2.304,2.048 3.408,3.744 3.408,7.104 z" />
  </g>
  <rect
     transform="rotate(90)"
     ry="0"
     rx="0"
     y="-597.6106"
     x="146.97485"
     height="349.94931"
     width="21.327433"
     id="rect2484"
     style="fill:#ebebeb;fill-opacity:1;stroke:#000000;stroke-width:1.13399994;stroke-miterlimit:4;stroke-dasharray:none;paint-order:markers fill stroke" />
  <g
     id="text2488"
     style="font-style:normal;font-weight:normal;font-size:40px;line-height:1.25;font-family:Mono-serif;letter-spacing:0px;word-spacing:0px;fill:#000000;fill-opacity:1;stroke:none;stroke-width:1.13385832;stroke-miterlimit:4;stroke-dasharray:none;paint-order:markers fill stroke"
     aria-label="rnorm(mean = -3, sigma = 10, n = 5)">
    <path
       id="path237"
       style="font-style:normal;font-variant:normal;font-weight:normal;font-stretch:normal;font-size:16px;font-family:'Fira Mono';-inkscape-font-specification:'Fira Mono';stroke-width:1.13385832;stroke-miterlimit:4;stroke-dasharray:none;paint-order:markers fill stroke"
       d="m 262.19821,154.71807 c -1.52,0 -2.384,0.8 -3.024,2.176 l -0.256,-2 h -2.336 v 1.04 h 1.328 v 6.352 h -1.328 v 1.04 h 4.384 v -1.04 h -1.712 v -3.552 c 0.544,-1.856 1.472,-2.784 2.768,-2.784 h 0.08 v 1.808 h 1.088 l 0.192,-2.864 c -0.368,-0.096 -0.72,-0.176 -1.184,-0.176 z" />
    <path
       id="path239"
       style="font-style:normal;font-variant:normal;font-weight:normal;font-stretch:normal;font-size:16px;font-family:'Fira Mono';-inkscape-font-specification:'Fira Mono';stroke-width:1.13385832;stroke-miterlimit:4;stroke-dasharray:none;paint-order:markers fill stroke"
       d="m 266.09596,163.32607 h 1.344 v -6.128 c 0.448,-0.672 1.296,-1.408 2.288,-1.408 1.264,0 1.44,0.688 1.44,2.416 v 5.12 h 1.344 v -6.112 c 0,-1.568 -0.72,-2.496 -2.368,-2.496 -0.992,0 -2.112,0.496 -2.784,1.36 l -0.112,-1.184 h -1.152 z" />
    <path
       id="path241"
       style="font-style:normal;font-variant:normal;font-weight:normal;font-stretch:normal;font-size:16px;font-family:'Fira Mono';-inkscape-font-specification:'Fira Mono';stroke-width:1.13385832;stroke-miterlimit:4;stroke-dasharray:none;paint-order:markers fill stroke"
       d="m 278.90571,154.71807 c -2.368,0 -3.648,1.808 -3.648,4.4 0,2.656 1.264,4.384 3.632,4.384 2.352,0 3.632,-1.808 3.632,-4.4 0,-2.656 -1.248,-4.384 -3.616,-4.384 z m 0,1.104 c 1.44,0 2.16,1.056 2.16,3.28 0,2.256 -0.72,3.296 -2.176,3.296 -1.456,0 -2.176,-1.04 -2.176,-3.28 0,-2.24 0.736,-3.296 2.192,-3.296 z" />
    <path
       id="path243"
       style="font-style:normal;font-variant:normal;font-weight:normal;font-stretch:normal;font-size:16px;font-family:'Fira Mono';-inkscape-font-specification:'Fira Mono';stroke-width:1.13385832;stroke-miterlimit:4;stroke-dasharray:none;paint-order:markers fill stroke"
       d="m 290.97946,154.71807 c -1.52,0 -2.384,0.8 -3.024,2.176 l -0.256,-2 h -2.336 v 1.04 h 1.328 v 6.352 h -1.328 v 1.04 h 4.384 v -1.04 h -1.712 v -3.552 c 0.544,-1.856 1.472,-2.784 2.768,-2.784 h 0.08 v 1.808 h 1.088 l 0.192,-2.864 c -0.368,-0.096 -0.72,-0.176 -1.184,-0.176 z" />
    <path
       id="path245"
       style="font-style:normal;font-variant:normal;font-weight:normal;font-stretch:normal;font-size:16px;font-family:'Fira Mono';-inkscape-font-specification:'Fira Mono';stroke-width:1.13385832;stroke-miterlimit:4;stroke-dasharray:none;paint-order:markers fill stroke"
       d="m 300.42921,154.71807 c -0.848,0 -1.392,0.448 -1.856,1.12 -0.256,-0.864 -0.88,-1.12 -1.52,-1.12 -0.848,0 -1.376,0.512 -1.824,1.168 l -0.096,-0.992 h -1.04 v 8.432 h 1.232 v -6.544 c 0.464,-0.72 0.944,-1.008 1.472,-1.008 0.608,0 0.656,0.432 0.656,1.504 v 6.048 h 1.248 v -6.544 c 0.464,-0.72 0.96,-1.008 1.472,-1.008 0.608,0 0.656,0.432 0.656,1.504 v 6.048 h 1.232 v -6.272 c 0,-1.936 -0.816,-2.336 -1.632,-2.336 z" />
    <path
       id="path247"
       style="font-style:normal;font-variant:normal;font-weight:normal;font-stretch:normal;font-size:16px;font-family:'Fira Mono';-inkscape-font-specification:'Fira Mono';stroke-width:1.13385832;stroke-miterlimit:4;stroke-dasharray:none;paint-order:markers fill stroke"
       d="m 306.27896,157.72607 c 0,-3.36 1.104,-5.056 3.408,-7.104 l -0.688,-0.736 c -2.608,2.128 -4.128,4.192 -4.128,7.84 0,3.648 1.52,5.712 4.128,7.84 l 0.688,-0.736 c -2.272,-2.032 -3.408,-3.76 -3.408,-7.104 z" />
    <path
       id="path249"
       style="font-style:normal;font-variant:normal;font-weight:normal;font-stretch:normal;font-size:16px;font-family:'Fira Mono';-inkscape-font-specification:'Fira Mono';stroke-width:1.13385832;stroke-miterlimit:4;stroke-dasharray:none;paint-order:markers fill stroke"
       d="m 319.61671,154.71807 c -0.848,0 -1.392,0.448 -1.856,1.12 -0.256,-0.864 -0.88,-1.12 -1.52,-1.12 -0.848,0 -1.376,0.512 -1.824,1.168 l -0.096,-0.992 h -1.04 v 8.432 h 1.232 v -6.544 c 0.464,-0.72 0.944,-1.008 1.472,-1.008 0.608,0 0.656,0.432 0.656,1.504 v 6.048 h 1.248 v -6.544 c 0.464,-0.72 0.96,-1.008 1.472,-1.008 0.608,0 0.656,0.432 0.656,1.504 v 6.048 h 1.232 v -6.272 c 0,-1.936 -0.816,-2.336 -1.632,-2.336 z" />
    <path
       id="path251"
       style="font-style:normal;font-variant:normal;font-weight:normal;font-stretch:normal;font-size:16px;font-family:'Fira Mono';-inkscape-font-specification:'Fira Mono';stroke-width:1.13385832;stroke-miterlimit:4;stroke-dasharray:none;paint-order:markers fill stroke"
       d="m 324.73046,159.58207 h 5.664 c 0.016,-0.176 0.032,-0.432 0.032,-0.72 0,-2.56 -1.312,-4.144 -3.44,-4.144 -2.24,0 -3.664,1.856 -3.664,4.4 0,2.624 1.392,4.384 3.856,4.384 1.04,0 2.096,-0.368 2.88,-0.976 l -0.624,-0.896 c -0.752,0.496 -1.392,0.752 -2.256,0.752 -1.296,0 -2.384,-0.848 -2.448,-2.8 z m 2.272,-3.76 c 1.28,0 2.08,0.928 2.112,2.736 h -4.384 c 0.112,-1.856 1.024,-2.736 2.272,-2.736 z" />
    <path
       id="path253"
       style="font-style:normal;font-variant:normal;font-weight:normal;font-stretch:normal;font-size:16px;font-family:'Fira Mono';-inkscape-font-specification:'Fira Mono';stroke-width:1.13385832;stroke-miterlimit:4;stroke-dasharray:none;paint-order:markers fill stroke"
       d="m 339.30021,161.48607 v -4.048 c 0,-1.664 -1.056,-2.72 -3.152,-2.72 -0.832,0 -1.728,0.16 -2.768,0.528 l 0.368,1.024 c 0.864,-0.304 1.632,-0.432 2.192,-0.432 1.248,0 2,0.448 2,1.68 v 0.688 h -1.248 c -2.544,0 -3.936,0.976 -3.936,2.704 0,1.568 1.024,2.592 2.72,2.592 1.088,0 2.032,-0.4 2.64,-1.184 0.224,0.768 0.816,1.104 1.536,1.2 l 0.336,-0.96 c -0.48,-0.144 -0.688,-0.4 -0.688,-1.072 z m -3.488,1.008 c -1.104,0 -1.616,-0.544 -1.616,-1.6 0,-1.088 0.672,-1.76 2.528,-1.76 h 1.216 v 2.16 c -0.496,0.752 -1.296,1.2 -2.128,1.2 z" />
    <path
       id="path255"
       style="font-style:normal;font-variant:normal;font-weight:normal;font-stretch:normal;font-size:16px;font-family:'Fira Mono';-inkscape-font-specification:'Fira Mono';stroke-width:1.13385832;stroke-miterlimit:4;stroke-dasharray:none;paint-order:markers fill stroke"
       d="m 342.84596,163.32607 h 1.344 v -6.128 c 0.448,-0.672 1.296,-1.408 2.288,-1.408 1.264,0 1.44,0.688 1.44,2.416 v 5.12 h 1.344 v -6.112 c 0,-1.568 -0.72,-2.496 -2.368,-2.496 -0.992,0 -2.112,0.496 -2.784,1.36 l -0.112,-1.184 h -1.152 z" />
    <path
       id="path257"
       style="font-style:normal;font-variant:normal;font-weight:normal;font-stretch:normal;font-size:16px;font-family:'Fira Mono';-inkscape-font-specification:'Fira Mono';stroke-width:1.13385832;stroke-miterlimit:4;stroke-dasharray:none;paint-order:markers fill stroke"
       d="m 368.33746,156.25407 h -6.208 v 1.152 h 6.208 z m 0,3.04 h -6.208 v 1.152 h 6.208 z" />
    <path
       id="path259"
       style="font-style:normal;font-variant:normal;font-weight:normal;font-stretch:normal;font-size:16px;font-family:'Fira Mono';-inkscape-font-specification:'Fira Mono';stroke-width:1.13385832;stroke-miterlimit:4;stroke-dasharray:none;paint-order:markers fill stroke"
       d="m 381.62096,158.89407 h 5.6 v -1.152 h -5.6 z" />
    <path
       id="path261"
       style="font-style:normal;font-variant:normal;font-weight:normal;font-stretch:normal;font-size:16px;font-family:'Fira Mono';-inkscape-font-specification:'Fira Mono';stroke-width:1.13385832;stroke-miterlimit:4;stroke-dasharray:none;paint-order:markers fill stroke"
       d="m 393.51871,152.12607 c -1.136,0 -2.192,0.384 -3.136,1.28 l 0.736,0.816 c 0.736,-0.672 1.392,-1.008 2.336,-1.008 1.168,0 2.08,0.656 2.08,1.856 0,1.328 -1.024,1.92 -2.08,1.92 h -0.656 l -0.16,1.072 h 0.912 c 1.312,0 2.288,0.512 2.288,2.096 0,1.376 -0.912,2.24 -2.448,2.24 -0.896,0 -1.824,-0.352 -2.448,-1.088 l -0.896,0.736 c 0.832,1.008 2.144,1.456 3.376,1.456 2.288,0 3.824,-1.44 3.824,-3.344 0,-1.712 -1.216,-2.608 -2.496,-2.704 1.152,-0.224 2.144,-1.232 2.144,-2.56 0,-1.504 -1.296,-2.768 -3.376,-2.768 z" />
    <path
       id="path263"
       style="font-style:normal;font-variant:normal;font-weight:normal;font-stretch:normal;font-size:16px;font-family:'Fira Mono';-inkscape-font-specification:'Fira Mono';stroke-width:1.13385832;stroke-miterlimit:4;stroke-dasharray:none;paint-order:markers fill stroke"
       d="m 403.60846,160.68607 c -0.72,0 -1.28,0.576 -1.28,1.296 0,0.416 0.208,0.832 0.512,1.056 l -0.752,3.152 h 1.216 l 1.296,-2.96 c 0.224,-0.496 0.304,-0.864 0.304,-1.264 0,-0.704 -0.56,-1.28 -1.296,-1.28 z" />
    <path
       id="path265"
       style="font-style:normal;font-variant:normal;font-weight:normal;font-stretch:normal;font-size:16px;font-family:'Fira Mono';-inkscape-font-specification:'Fira Mono';stroke-width:1.13385832;stroke-miterlimit:4;stroke-dasharray:none;paint-order:markers fill stroke"
       d="m 422.47596,162.39807 c -0.992,0 -1.888,-0.368 -2.544,-0.912 l -0.752,0.88 c 0.72,0.624 1.76,1.136 3.296,1.136 1.792,0 3.536,-0.704 3.536,-2.512 0,-1.568 -1.088,-2.144 -2.736,-2.592 -1.696,-0.464 -2.224,-0.72 -2.224,-1.488 0,-0.64 0.48,-1.104 1.824,-1.104 1.088,0 1.808,0.336 2.432,0.768 l 0.608,-0.928 c -0.72,-0.512 -1.712,-0.928 -3.072,-0.928 -1.904,0 -3.2,0.896 -3.2,2.304 0,1.472 1.136,2 2.88,2.432 1.792,0.448 2.032,0.848 2.032,1.6 0,0.816 -0.784,1.344 -2.08,1.344 z" />
    <path
       id="path267"
       style="font-style:normal;font-variant:normal;font-weight:normal;font-stretch:normal;font-size:16px;font-family:'Fira Mono';-inkscape-font-specification:'Fira Mono';stroke-width:1.13385832;stroke-miterlimit:4;stroke-dasharray:none;paint-order:markers fill stroke"
       d="m 432.38971,150.95807 c -0.576,0 -0.96,0.4 -0.96,0.944 0,0.544 0.384,0.944 0.96,0.944 0.592,0 0.992,-0.4 0.992,-0.944 0,-0.544 -0.4,-0.944 -0.992,-0.944 z m 1.072,3.936 h -3.856 v 1.072 h 2.512 v 6.288 h -2.592 v 1.072 h 6.304 v -1.072 h -2.368 z" />
    <path
       id="path269"
       style="font-style:normal;font-variant:normal;font-weight:normal;font-stretch:normal;font-size:16px;font-family:'Fira Mono';-inkscape-font-specification:'Fira Mono';stroke-width:1.13385832;stroke-miterlimit:4;stroke-dasharray:none;paint-order:markers fill stroke"
       d="m 445.64746,154.01407 c -0.992,0.416 -1.728,0.704 -3.84,0.704 -2,0 -3.36,1.216 -3.36,2.928 0,1.088 0.448,1.824 1.408,2.32 -0.608,0.4 -0.928,0.944 -0.928,1.472 0,0.848 0.656,1.6 2.128,1.6 h 1.504 c 1.072,0 1.888,0.4 1.888,1.2 0,0.912 -0.816,1.392 -2.656,1.392 -1.888,0 -2.336,-0.464 -2.336,-1.456 h -1.216 c 0,1.712 0.864,2.544 3.552,2.544 2.56,0 4.016,-0.912 4.016,-2.56 0,-1.312 -1.28,-2.288 -2.976,-2.288 h -1.52 c -0.864,0 -1.12,-0.32 -1.12,-0.72 0,-0.304 0.192,-0.624 0.432,-0.816 0.368,0.128 0.704,0.176 1.264,0.176 2,0 3.168,-1.2 3.168,-2.864 0,-0.96 -0.48,-1.68 -1.472,-2.128 0.944,0 1.76,-0.016 2.464,-0.24 z m -3.856,1.696 c 1.248,0 1.872,0.656 1.872,1.92 0,1.248 -0.64,1.984 -1.84,1.984 -1.376,0 -2,-0.816 -2,-1.968 0,-1.136 0.608,-1.936 1.968,-1.936 z" />
    <path
       id="path271"
       style="font-style:normal;font-variant:normal;font-weight:normal;font-stretch:normal;font-size:16px;font-family:'Fira Mono';-inkscape-font-specification:'Fira Mono';stroke-width:1.13385832;stroke-miterlimit:4;stroke-dasharray:none;paint-order:markers fill stroke"
       d="m 453.92921,154.71807 c -0.848,0 -1.392,0.448 -1.856,1.12 -0.256,-0.864 -0.88,-1.12 -1.52,-1.12 -0.848,0 -1.376,0.512 -1.824,1.168 l -0.096,-0.992 h -1.04 v 8.432 h 1.232 v -6.544 c 0.464,-0.72 0.944,-1.008 1.472,-1.008 0.608,0 0.656,0.432 0.656,1.504 v 6.048 h 1.248 v -6.544 c 0.464,-0.72 0.96,-1.008 1.472,-1.008 0.608,0 0.656,0.432 0.656,1.504 v 6.048 h 1.232 v -6.272 c 0,-1.936 -0.816,-2.336 -1.632,-2.336 z" />
    <path
       id="path273"
       style="font-style:normal;font-variant:normal;font-weight:normal;font-stretch:normal;font-size:16px;font-family:'Fira Mono';-inkscape-font-specification:'Fira Mono';stroke-width:1.13385832;stroke-miterlimit:4;stroke-dasharray:none;paint-order:markers fill stroke"
       d="m 464.01896,161.48607 v -4.048 c 0,-1.664 -1.056,-2.72 -3.152,-2.72 -0.832,0 -1.728,0.16 -2.768,0.528 l 0.368,1.024 c 0.864,-0.304 1.632,-0.432 2.192,-0.432 1.248,0 2,0.448 2,1.68 v 0.688 h -1.248 c -2.544,0 -3.936,0.976 -3.936,2.704 0,1.568 1.024,2.592 2.72,2.592 1.088,0 2.032,-0.4 2.64,-1.184 0.224,0.768 0.816,1.104 1.536,1.2 l 0.336,-0.96 c -0.48,-0.144 -0.688,-0.4 -0.688,-1.072 z m -3.488,1.008 c -1.104,0 -1.616,-0.544 -1.616,-1.6 0,-1.088 0.672,-1.76 2.528,-1.76 h 1.216 v 2.16 c -0.496,0.752 -1.296,1.2 -2.128,1.2 z" />
    <path
       id="path275"
       style="font-style:normal;font-variant:normal;font-weight:normal;font-stretch:normal;font-size:16px;font-family:'Fira Mono';-inkscape-font-specification:'Fira Mono';stroke-width:1.13385832;stroke-miterlimit:4;stroke-dasharray:none;paint-order:markers fill stroke"
       d="m 483.46246,156.25407 h -6.208 v 1.152 h 6.208 z m 0,3.04 h -6.208 v 1.152 h 6.208 z" />
    <path
       id="path277"
       style="font-style:normal;font-variant:normal;font-weight:normal;font-stretch:normal;font-size:16px;font-family:'Fira Mono';-inkscape-font-specification:'Fira Mono';stroke-width:1.13385832;stroke-miterlimit:4;stroke-dasharray:none;paint-order:markers fill stroke"
       d="m 500.72996,162.23807 v -9.936 h -1.184 l -3.28,2.048 0.592,0.944 2.512,-1.52 v 8.464 h -2.704 v 1.088 h 6.352 v -1.088 z" />
    <path
       id="path279"
       style="font-style:normal;font-variant:normal;font-weight:normal;font-stretch:normal;font-size:16px;font-family:'Fira Mono';-inkscape-font-specification:'Fira Mono';stroke-width:1.13385832;stroke-miterlimit:4;stroke-dasharray:none;paint-order:markers fill stroke"
       d="m 509.13971,152.12607 c -2.368,0 -3.6,2.032 -3.6,5.68 0,3.664 1.232,5.696 3.6,5.696 2.368,0 3.6,-2.032 3.6,-5.696 0,-3.648 -1.232,-5.68 -3.6,-5.68 z m 0,1.088 c 1.376,0 2.192,1.344 2.192,4.592 0,3.264 -0.816,4.608 -2.192,4.608 -1.36,0 -2.192,-1.344 -2.192,-4.608 0,-3.248 0.832,-4.592 2.192,-4.592 z m 0,3.552 c -0.592,0 -1.04,0.464 -1.04,1.04 0,0.592 0.448,1.056 1.04,1.056 0.608,0 1.056,-0.464 1.056,-1.056 0,-0.576 -0.448,-1.04 -1.056,-1.04 z" />
    <path
       id="path281"
       style="font-style:normal;font-variant:normal;font-weight:normal;font-stretch:normal;font-size:16px;font-family:'Fira Mono';-inkscape-font-specification:'Fira Mono';stroke-width:1.13385832;stroke-miterlimit:4;stroke-dasharray:none;paint-order:markers fill stroke"
       d="m 518.73346,160.68607 c -0.72,0 -1.28,0.576 -1.28,1.296 0,0.416 0.208,0.832 0.512,1.056 l -0.752,3.152 h 1.216 l 1.296,-2.96 c 0.224,-0.496 0.304,-0.864 0.304,-1.264 0,-0.704 -0.56,-1.28 -1.296,-1.28 z" />
    <path
       id="path283"
       style="font-style:normal;font-variant:normal;font-weight:normal;font-stretch:normal;font-size:16px;font-family:'Fira Mono';-inkscape-font-specification:'Fira Mono';stroke-width:1.13385832;stroke-miterlimit:4;stroke-dasharray:none;paint-order:markers fill stroke"
       d="m 534.72096,163.32607 h 1.344 v -6.128 c 0.448,-0.672 1.296,-1.408 2.288,-1.408 1.264,0 1.44,0.688 1.44,2.416 v 5.12 h 1.344 v -6.112 c 0,-1.568 -0.72,-2.496 -2.368,-2.496 -0.992,0 -2.112,0.496 -2.784,1.36 l -0.112,-1.184 h -1.152 z" />
    <path
       id="path285"
       style="font-style:normal;font-variant:normal;font-weight:normal;font-stretch:normal;font-size:16px;font-family:'Fira Mono';-inkscape-font-specification:'Fira Mono';stroke-width:1.13385832;stroke-miterlimit:4;stroke-dasharray:none;paint-order:markers fill stroke"
       d="m 560.21246,156.25407 h -6.208 v 1.152 h 6.208 z m 0,3.04 h -6.208 v 1.152 h 6.208 z" />
    <path
       id="path287"
       style="font-style:normal;font-variant:normal;font-weight:normal;font-stretch:normal;font-size:16px;font-family:'Fira Mono';-inkscape-font-specification:'Fira Mono';stroke-width:1.13385832;stroke-miterlimit:4;stroke-dasharray:none;paint-order:markers fill stroke"
       d="m 579.28796,152.30207 h -5.84 v 5.504 h 1.088 c 0.64,-0.224 1.072,-0.368 1.712,-0.368 1.12,0 2,0.592 2,2.352 0,1.712 -0.864,2.608 -2.32,2.608 -0.944,0 -1.696,-0.336 -2.368,-1.024 l -0.832,0.816 c 0.848,0.816 1.872,1.312 3.2,1.312 2.272,0 3.728,-1.456 3.728,-3.664 0,-2.208 -1.216,-3.456 -3.024,-3.456 -0.656,0 -1.232,0.112 -1.888,0.48 v -3.472 h 4.352 z" />
    <path
       id="path289"
       style="font-style:normal;font-variant:normal;font-weight:normal;font-stretch:normal;font-size:16px;font-family:'Fira Mono';-inkscape-font-specification:'Fira Mono';stroke-width:1.13385832;stroke-miterlimit:4;stroke-dasharray:none;paint-order:markers fill stroke"
       d="m 587.28171,157.72607 c 0,3.344 -1.136,5.072 -3.408,7.104 l 0.688,0.736 c 2.608,-2.128 4.128,-4.192 4.128,-7.84 0,-3.648 -1.52,-5.712 -4.128,-7.84 l -0.688,0.736 c 2.304,2.048 3.408,3.744 3.408,7.104 z" />
  </g>
  <g
     id="text1545"
     style="font-style:normal;font-weight:normal;font-size:40px;line-height:1.25;font-family:Mono-serif;letter-spacing:0px;word-spacing:0px;fill:#000000;fill-opacity:1;stroke:none;stroke-width:1.13385832;stroke-miterlimit:4;stroke-dasharray:none;paint-order:markers fill stroke"
     aria-label="args2">
    <path
       id="path292"
       style="font-style:normal;font-variant:normal;font-weight:normal;font-stretch:normal;font-size:16px;font-family:'Fira Mono';-inkscape-font-specification:'Fira Mono';stroke-width:1.13385832;stroke-miterlimit:4;stroke-dasharray:none;paint-order:markers fill stroke"
       d="m 99.249051,28.257637 v -4.048 c 0,-1.664 -1.056,-2.72 -3.152,-2.72 -0.832,0 -1.728,0.16 -2.768,0.528 l 0.368,1.024 c 0.864,-0.304 1.632,-0.432 2.192,-0.432 1.248,0 2,0.448 2,1.68 v 0.688 h -1.248 c -2.544,0 -3.936,0.976 -3.936,2.704 0,1.568 1.024,2.592 2.72,2.592 1.088,0 2.032,-0.4 2.64,-1.184 0.224,0.768 0.816,1.104 1.536,1.2 l 0.336,-0.96 c -0.48,-0.144 -0.688,-0.4 -0.688,-1.072 z m -3.488,1.008 c -1.104,0 -1.616,-0.544 -1.616,-1.6 0,-1.088 0.672,-1.76 2.528,-1.76 h 1.216 v 2.16 c -0.496,0.752 -1.296,1.2 -2.128,1.2 z" />
    <path
       id="path294"
       style="font-style:normal;font-variant:normal;font-weight:normal;font-stretch:normal;font-size:16px;font-family:'Fira Mono';-inkscape-font-specification:'Fira Mono';stroke-width:1.13385832;stroke-miterlimit:4;stroke-dasharray:none;paint-order:markers fill stroke"
       d="m 108.4908,21.489637 c -1.52,0 -2.384,0.8 -3.024,2.176 l -0.256,-2 h -2.336 v 1.04 h 1.328 v 6.352 h -1.328 v 1.04 h 4.384 v -1.04 h -1.712 v -3.552 c 0.544,-1.856 1.472,-2.784 2.768,-2.784 h 0.08 v 1.808 h 1.088 l 0.192,-2.864 c -0.368,-0.096 -0.72,-0.176 -1.184,-0.176 z" />
    <path
       id="path296"
       style="font-style:normal;font-variant:normal;font-weight:normal;font-stretch:normal;font-size:16px;font-family:'Fira Mono';-inkscape-font-specification:'Fira Mono';stroke-width:1.13385832;stroke-miterlimit:4;stroke-dasharray:none;paint-order:markers fill stroke"
       d="m 119.25255,20.785637 c -0.992,0.416 -1.728,0.704 -3.84,0.704 -2,0 -3.36,1.216 -3.36,2.928 0,1.088 0.448,1.824 1.408,2.32 -0.608,0.4 -0.928,0.944 -0.928,1.472 0,0.848 0.656,1.6 2.128,1.6 h 1.504 c 1.072,0 1.888,0.4 1.888,1.2 0,0.912 -0.816,1.392 -2.656,1.392 -1.888,0 -2.336,-0.464 -2.336,-1.456 h -1.216 c 0,1.712 0.864,2.544 3.552,2.544 2.56,0 4.016,-0.912 4.016,-2.56 0,-1.312 -1.28,-2.288 -2.976,-2.288 h -1.52 c -0.864,0 -1.12,-0.32 -1.12,-0.72 0,-0.304 0.192,-0.624 0.432,-0.816 0.368,0.128 0.704,0.176 1.264,0.176 2,0 3.168,-1.2 3.168,-2.864 0,-0.96 -0.48,-1.68 -1.472,-2.128 0.944,0 1.76,-0.016 2.464,-0.24 z m -3.856,1.696 c 1.248,0 1.872,0.656 1.872,1.92 0,1.248 -0.64,1.984 -1.84,1.984 -1.376,0 -2,-0.816 -2,-1.968 0,-1.136 0.608,-1.936 1.968,-1.936 z" />
    <path
       id="path298"
       style="font-style:normal;font-variant:normal;font-weight:normal;font-stretch:normal;font-size:16px;font-family:'Fira Mono';-inkscape-font-specification:'Fira Mono';stroke-width:1.13385832;stroke-miterlimit:4;stroke-dasharray:none;paint-order:markers fill stroke"
       d="m 124.8623,29.169637 c -0.992,0 -1.888,-0.368 -2.544,-0.912 l -0.752,0.88 c 0.72,0.624 1.76,1.136 3.296,1.136 1.792,0 3.536,-0.704 3.536,-2.512 0,-1.568 -1.088,-2.144 -2.736,-2.592 -1.696,-0.464 -2.224,-0.72 -2.224,-1.488 0,-0.64 0.48,-1.104 1.824,-1.104 1.088,0 1.808,0.336 2.432,0.768 l 0.608,-0.928 c -0.72,-0.512 -1.712,-0.928 -3.072,-0.928 -1.904,0 -3.2,0.896 -3.2,2.304 0,1.472 1.136,2 2.88,2.432 1.792,0.448 2.032,0.848 2.032,1.6 0,0.816 -0.784,1.344 -2.08,1.344 z" />
    <path
       id="path300"
       style="font-style:normal;font-variant:normal;font-weight:normal;font-stretch:normal;font-size:16px;font-family:'Fira Mono';-inkscape-font-specification:'Fira Mono';stroke-width:1.13385832;stroke-miterlimit:4;stroke-dasharray:none;paint-order:markers fill stroke"
       d="m 134.28005,18.897637 c -1.488,0 -2.496,0.528 -3.36,1.584 l 0.928,0.72 c 0.704,-0.816 1.296,-1.168 2.368,-1.168 1.232,0 1.984,0.752 1.984,1.984 0,1.792 -0.896,3.008 -5.056,6.992 v 1.088 h 6.56 l 0.16,-1.152 h -5.184 c 3.632,-3.312 4.928,-4.944 4.928,-6.976 0,-1.744 -1.248,-3.072 -3.328,-3.072 z" />
  </g>
  <rect
     transform="rotate(90)"
     ry="10.351198"
     rx="10.568207"
     y="-615.54913"
     x="38.446842"
     height="385.82635"
     width="151.24644"
     id="rect878"
     style="fill:none;fill-opacity:1;stroke:#000000;stroke-width:1.13399994;stroke-miterlimit:4;stroke-dasharray:none;paint-order:markers fill stroke" />
</svg>
