<?xml version="1.0" encoding="UTF-8" standalone="no"?>
<svg
   xmlns:dc="http://purl.org/dc/elements/1.1/"
   xmlns:cc="http://creativecommons.org/ns#"
   xmlns:rdf="http://www.w3.org/1999/02/22-rdf-syntax-ns#"
   xmlns:svg="http://www.w3.org/2000/svg"
   xmlns="http://www.w3.org/2000/svg"
   viewBox="0 0 440.6878 172.02572"
   height="45.515137mm"
   width="116.59865mm"
   id="svg2"
   version="1.1">
  <metadata
     id="metadata8">
    <rdf:RDF>
      <cc:Work
         rdf:about="">
        <dc:format>image/svg+xml</dc:format>
        <dc:type
           rdf:resource="http://purl.org/dc/dcmitype/StillImage" />
        <dc:title />
      </cc:Work>
    </rdf:RDF>
  </metadata>
  <defs
     id="defs6" />
  <g
     transform="translate(-5.9496699e-6,0.60406351)"
     id="g876">
    <g
       id="g943">
      <g
         id="text887-0"
         style="font-style:normal;font-weight:normal;font-size:40px;line-height:1.25;font-family:Mono-serif;letter-spacing:0px;word-spacing:0px;fill:#000000;fill-opacity:1;stroke:none;stroke-width:1.13385832;stroke-miterlimit:4;stroke-dasharray:none;paint-order:markers fill stroke"
         aria-label="mu">
        <path
           id="path49"
           style="font-style:normal;font-variant:normal;font-weight:normal;font-stretch:normal;font-size:16px;font-family:'Fira Mono';-inkscape-font-specification:'Fira Mono';stroke-width:1.13385832;stroke-miterlimit:4;stroke-dasharray:none;paint-order:markers fill stroke"
           d="m 37.153799,23.125574 c -0.848,0 -1.392,0.448 -1.856,1.12 -0.256,-0.864 -0.88,-1.12 -1.52,-1.12 -0.848,0 -1.376,0.512 -1.824,1.168 l -0.096,-0.992 h -1.04 v 8.432 h 1.232 v -6.544 c 0.464,-0.72 0.944,-1.008 1.472,-1.008 0.608,0 0.656,0.432 0.656,1.504 v 6.048 h 1.248 v -6.544 c 0.464,-0.72 0.96,-1.008 1.472,-1.008 0.608,0 0.656,0.432 0.656,1.504 v 6.048 h 1.232 v -6.272 c 0,-1.936 -0.816,-2.336 -1.632,-2.336 z" />
        <path
           id="path51"
           style="font-style:normal;font-variant:normal;font-weight:normal;font-stretch:normal;font-size:16px;font-family:'Fira Mono';-inkscape-font-specification:'Fira Mono';stroke-width:1.13385832;stroke-miterlimit:4;stroke-dasharray:none;paint-order:markers fill stroke"
           d="m 42.539549,23.301574 h -1.344 v 6.128 c 0,1.568 0.8,2.48 2.432,2.48 0.992,0 2.032,-0.464 2.704,-1.312 l 0.112,1.136 h 1.152 v -8.432 h -1.344 v 6.208 c -0.464,0.72 -1.36,1.344 -2.288,1.344 -0.976,0 -1.424,-0.48 -1.424,-1.568 z" />
      </g>
      <path
         id="rect859"
         d="M 55.289513,-50.839821 H 76.616945 V -27.57353 H 55.289513 Z"
         style="fill:#ebebeb;fill-opacity:1;stroke:#000000;stroke-width:1.13385832;stroke-miterlimit:4;stroke-dasharray:none;paint-order:markers fill stroke"
         transform="rotate(90)" />
      <g
         id="text863"
         style="font-style:normal;font-weight:normal;font-size:40px;line-height:1.25;font-family:Mono-serif;letter-spacing:0px;word-spacing:0px;fill:#000000;fill-opacity:1;stroke:none;stroke-width:1.13385832;stroke-miterlimit:4;stroke-dasharray:none;paint-order:markers fill stroke"
         aria-label="5">
        <path
           id="path55"
           style="font-style:normal;font-variant:normal;font-weight:normal;font-stretch:normal;font-size:16px;font-family:'Fira Mono';-inkscape-font-specification:'Fira Mono';stroke-width:1.13385832;stroke-miterlimit:4;stroke-dasharray:none;paint-order:markers fill stroke"
           d="m 42.302674,60.538584 h -5.84 v 5.504 h 1.088 c 0.64,-0.224 1.072,-0.368 1.712,-0.368 1.12,0 2,0.592 2,2.352 0,1.712 -0.864,2.608 -2.32,2.608 -0.944,0 -1.696,-0.336 -2.368,-1.024 l -0.832,0.816 c 0.848,0.816 1.872,1.312 3.2,1.312 2.272,0 3.728,-1.456 3.728,-3.664 0,-2.208 -1.216,-3.456 -3.024,-3.456 -0.656,0 -1.232,0.112 -1.888,0.48 v -3.472 h 4.352 z" />
      </g>
      <path
         id="rect871"
         d="M 87.280663,-50.839821 H 108.6081 V -27.57353 H 87.280663 Z"
         style="fill:#ebebeb;fill-opacity:1;stroke:#000000;stroke-width:1.13385832;stroke-miterlimit:4;stroke-dasharray:none;paint-order:markers fill stroke"
         transform="rotate(90)" />
      <g
         id="text875"
         style="font-style:normal;font-weight:normal;font-size:40px;line-height:1.25;font-family:Mono-serif;letter-spacing:0px;word-spacing:0px;fill:#000000;fill-opacity:1;stroke:none;stroke-width:1.13385832;stroke-miterlimit:4;stroke-dasharray:none;paint-order:markers fill stroke"
         aria-label="10">
        <path
           id="path59"
           style="font-style:normal;font-variant:normal;font-weight:normal;font-stretch:normal;font-size:16px;font-family:'Fira Mono';-inkscape-font-specification:'Fira Mono';stroke-width:1.13385832;stroke-miterlimit:4;stroke-dasharray:none;paint-order:markers fill stroke"
           d="m 35.433799,102.54386 v -9.936001 h -1.184 l -3.28,2.048 0.592,0.944 2.512,-1.52 v 8.464001 h -2.704 v 1.088 h 6.352 v -1.088 z" />
        <path
           id="path61"
           style="font-style:normal;font-variant:normal;font-weight:normal;font-stretch:normal;font-size:16px;font-family:'Fira Mono';-inkscape-font-specification:'Fira Mono';stroke-width:1.13385832;stroke-miterlimit:4;stroke-dasharray:none;paint-order:markers fill stroke"
           d="m 43.843549,92.431859 c -2.368,0 -3.6,2.032 -3.6,5.68 0,3.664001 1.232,5.696001 3.6,5.696001 2.368,0 3.6,-2.032 3.6,-5.696001 0,-3.648 -1.232,-5.68 -3.6,-5.68 z m 0,1.088 c 1.376,0 2.192,1.344 2.192,4.592 0,3.264001 -0.816,4.608001 -2.192,4.608001 -1.36,0 -2.192,-1.344 -2.192,-4.608001 0,-3.248 0.832,-4.592 2.192,-4.592 z m 0,3.552 c -0.592,0 -1.04,0.464 -1.04,1.04 0,0.592 0.448,1.056 1.04,1.056 0.608,0 1.056,-0.464 1.056,-1.056 0,-0.576 -0.448,-1.04 -1.056,-1.04 z" />
      </g>
      <path
         id="rect877"
         d="m 119.27181,-50.839821 h 21.32744 v 23.266291 h -21.32744 z"
         style="fill:#ebebeb;fill-opacity:1;stroke:#000000;stroke-width:1.13385832;stroke-miterlimit:4;stroke-dasharray:none;paint-order:markers fill stroke"
         transform="rotate(90)" />
      <g
         id="text881"
         style="font-style:normal;font-weight:normal;font-size:40px;line-height:1.25;font-family:Mono-serif;letter-spacing:0px;word-spacing:0px;fill:#000000;fill-opacity:1;stroke:none;stroke-width:1.13385832;stroke-miterlimit:4;stroke-dasharray:none;paint-order:markers fill stroke"
         aria-label="-3">
        <path
           id="path65"
           style="font-style:normal;font-variant:normal;font-weight:normal;font-stretch:normal;font-size:16px;font-family:'Fira Mono';-inkscape-font-specification:'Fira Mono';stroke-width:1.13385832;stroke-miterlimit:4;stroke-dasharray:none;paint-order:markers fill stroke"
           d="m 31.393799,131.19105 h 5.6 v -1.152 h -5.6 z" />
        <path
           id="path67"
           style="font-style:normal;font-variant:normal;font-weight:normal;font-stretch:normal;font-size:16px;font-family:'Fira Mono';-inkscape-font-specification:'Fira Mono';stroke-width:1.13385832;stroke-miterlimit:4;stroke-dasharray:none;paint-order:markers fill stroke"
           d="m 43.291549,124.42305 c -1.136,0 -2.192,0.384 -3.136,1.28 l 0.736,0.816 c 0.736,-0.672 1.392,-1.008 2.336,-1.008 1.168,0 2.08,0.656 2.08,1.856 0,1.328 -1.024,1.92 -2.08,1.92 h -0.656 l -0.16,1.072 h 0.912 c 1.312,0 2.288,0.512 2.288,2.096 0,1.376 -0.912,2.24 -2.448,2.24 -0.896,0 -1.824,-0.352 -2.448,-1.088 l -0.896,0.736 c 0.832,1.008 2.144,1.456 3.376,1.456 2.288,0 3.824,-1.44 3.824,-3.344 0,-1.712 -1.216,-2.608 -2.496,-2.704 1.152,-0.224 2.144,-1.232 2.144,-2.56 0,-1.504 -1.296,-2.768 -3.376,-2.768 z" />
      </g>
      <path
         id="rect889"
         d="m 50.815031,-58.948776 h 94.258679 c 3.81335,0 6.88331,3.031217 6.88331,6.796451 v 25.891301 c 0,3.765234 -3.06996,6.796451 -6.88331,6.796451 H 50.815031 c -3.813352,0 -6.883306,-3.031217 -6.883306,-6.796451 v -25.891301 c 0,-3.765234 3.069954,-6.796451 6.883306,-6.796451 z"
         style="fill:none;fill-opacity:1;stroke:#000000;stroke-width:1.13385832;stroke-miterlimit:4;stroke-dasharray:none;paint-order:markers fill stroke"
         transform="rotate(90)" />
    </g>
  </g>
  <g
     transform="translate(-5.9496699e-6,0.60406351)"
     id="g969">
    <g
       id="text2409"
       style="font-style:normal;font-weight:normal;font-size:40px;line-height:1.25;font-family:Mono-serif;letter-spacing:0px;word-spacing:0px;fill:#000000;fill-opacity:1;stroke:none;stroke-width:1.13385832;stroke-miterlimit:4;stroke-dasharray:none;paint-order:markers fill stroke"
       aria-label="sigma">
      <path
         id="path71"
         style="font-style:normal;font-variant:normal;font-weight:normal;font-stretch:normal;font-size:16px;font-family:'Fira Mono';-inkscape-font-specification:'Fira Mono';stroke-width:1.13385832;stroke-miterlimit:4;stroke-dasharray:none;paint-order:markers fill stroke"
         d="m 83.480938,30.805574 c -0.992,0 -1.888,-0.368 -2.544,-0.912 l -0.752,0.88 c 0.72,0.624 1.76,1.136 3.296,1.136 1.792,0 3.536,-0.704 3.536,-2.512 0,-1.568 -1.088,-2.144 -2.736,-2.592 -1.696,-0.464 -2.224,-0.72 -2.224,-1.488 0,-0.64 0.48,-1.104 1.824,-1.104 1.088,0 1.808,0.336 2.432,0.768 l 0.608,-0.928 c -0.72,-0.512 -1.712,-0.928 -3.072,-0.928 -1.904,0 -3.2,0.896 -3.2,2.304 0,1.472 1.136,2 2.88,2.432 1.792,0.448 2.032,0.848 2.032,1.6 0,0.816 -0.784,1.344 -2.08,1.344 z" />
      <path
         id="path73"
         style="font-style:normal;font-variant:normal;font-weight:normal;font-stretch:normal;font-size:16px;font-family:'Fira Mono';-inkscape-font-specification:'Fira Mono';stroke-width:1.13385832;stroke-miterlimit:4;stroke-dasharray:none;paint-order:markers fill stroke"
         d="m 93.394688,19.365574 c -0.576,0 -0.96,0.4 -0.96,0.944 0,0.544 0.384,0.944 0.96,0.944 0.592,0 0.992,-0.4 0.992,-0.944 0,-0.544 -0.4,-0.944 -0.992,-0.944 z m 1.072,3.936 h -3.856 v 1.072 h 2.512 v 6.288 h -2.592 v 1.072 h 6.304 v -1.072 h -2.368 z" />
      <path
         id="path75"
         style="font-style:normal;font-variant:normal;font-weight:normal;font-stretch:normal;font-size:16px;font-family:'Fira Mono';-inkscape-font-specification:'Fira Mono';stroke-width:1.13385832;stroke-miterlimit:4;stroke-dasharray:none;paint-order:markers fill stroke"
         d="m 106.65244,22.421574 c -0.992,0.416 -1.728,0.704 -3.84,0.704 -2,0 -3.360002,1.216 -3.360002,2.928 0,1.088 0.448,1.824 1.408002,2.32 -0.608,0.4 -0.928002,0.944 -0.928002,1.472 0,0.848 0.656002,1.6 2.128002,1.6 h 1.504 c 1.072,0 1.888,0.4 1.888,1.2 0,0.912 -0.816,1.392 -2.656,1.392 -1.888,0 -2.336,-0.464 -2.336,-1.456 h -1.216002 c 0,1.712 0.864002,2.544 3.552002,2.544 2.56,0 4.016,-0.912 4.016,-2.56 0,-1.312 -1.28,-2.288 -2.976,-2.288 h -1.52 c -0.864,0 -1.12,-0.32 -1.12,-0.72 0,-0.304 0.192,-0.624 0.432,-0.816 0.368,0.128 0.704,0.176 1.264,0.176 2,0 3.168,-1.2 3.168,-2.864 0,-0.96 -0.48,-1.68 -1.472,-2.128 0.944,0 1.76,-0.016 2.464,-0.24 z m -3.856,1.696 c 1.248,0 1.872,0.656 1.872,1.92 0,1.248 -0.64,1.984 -1.84,1.984 -1.376,0 -2,-0.816 -2,-1.968 0,-1.136 0.608,-1.936 1.968,-1.936 z" />
      <path
         id="path77"
         style="font-style:normal;font-variant:normal;font-weight:normal;font-stretch:normal;font-size:16px;font-family:'Fira Mono';-inkscape-font-specification:'Fira Mono';stroke-width:1.13385832;stroke-miterlimit:4;stroke-dasharray:none;paint-order:markers fill stroke"
         d="m 114.93419,23.125574 c -0.848,0 -1.392,0.448 -1.856,1.12 -0.256,-0.864 -0.88,-1.12 -1.52,-1.12 -0.848,0 -1.376,0.512 -1.824,1.168 l -0.096,-0.992 h -1.04 v 8.432 h 1.232 v -6.544 c 0.464,-0.72 0.944,-1.008 1.472,-1.008 0.608,0 0.656,0.432 0.656,1.504 v 6.048 h 1.248 v -6.544 c 0.464,-0.72 0.96,-1.008 1.472,-1.008 0.608,0 0.656,0.432 0.656,1.504 v 6.048 h 1.232 v -6.272 c 0,-1.936 -0.816,-2.336 -1.632,-2.336 z" />
      <path
         id="path79"
         style="font-style:normal;font-variant:normal;font-weight:normal;font-stretch:normal;font-size:16px;font-family:'Fira Mono';-inkscape-font-specification:'Fira Mono';stroke-width:1.13385832;stroke-miterlimit:4;stroke-dasharray:none;paint-order:markers fill stroke"
         d="m 125.02394,29.893574 v -4.048 c 0,-1.664 -1.056,-2.72 -3.152,-2.72 -0.832,0 -1.728,0.16 -2.768,0.528 l 0.368,1.024 c 0.864,-0.304 1.632,-0.432 2.192,-0.432 1.248,0 2,0.448 2,1.68 v 0.688 h -1.248 c -2.544,0 -3.936,0.976 -3.936,2.704 0,1.568 1.024,2.592 2.72,2.592 1.088,0 2.032,-0.4 2.64,-1.184 0.224,0.768 0.816,1.104 1.536,1.2 l 0.336,-0.96 c -0.48,-0.144 -0.688,-0.4 -0.688,-1.072 z m -3.488,1.008 c -1.104,0 -1.616,-0.544 -1.616,-1.6 0,-1.088 0.672,-1.76 2.528,-1.76 h 1.216 v 2.16 c -0.496,0.752 -1.296,1.2 -2.128,1.2 z" />
    </g>
    <path
       id="rect2411"
       d="m 55.289513,-114.58158 h 21.327432 v 23.26629 H 55.289513 Z"
       style="fill:#ebebeb;fill-opacity:1;stroke:#000000;stroke-width:1.13385832;stroke-miterlimit:4;stroke-dasharray:none;paint-order:markers fill stroke"
       transform="rotate(90)" />
    <g
       id="text2415"
       style="font-style:normal;font-weight:normal;font-size:40px;line-height:1.25;font-family:Mono-serif;letter-spacing:0px;word-spacing:0px;fill:#000000;fill-opacity:1;stroke:none;stroke-width:1.13385832;stroke-miterlimit:4;stroke-dasharray:none;paint-order:markers fill stroke"
       aria-label="1">
      <path
         id="path83"
         style="font-style:normal;font-variant:normal;font-weight:normal;font-stretch:normal;font-size:16px;font-family:'Fira Mono';-inkscape-font-specification:'Fira Mono';stroke-width:1.13385832;stroke-miterlimit:4;stroke-dasharray:none;paint-order:markers fill stroke"
         d="m 104.03644,70.474584 v -9.936 h -1.184 l -3.280003,2.048 0.592003,0.944 2.512,-1.52 v 8.464 h -2.704003 v 1.088 h 6.352003 v -1.088 z" />
    </g>
    <path
       id="rect2421"
       d="M 87.280663,-114.58158 H 108.6081 v 23.26629 H 87.280663 Z"
       style="fill:#ebebeb;fill-opacity:1;stroke:#000000;stroke-width:1.13385832;stroke-miterlimit:4;stroke-dasharray:none;paint-order:markers fill stroke"
       transform="rotate(90)" />
    <g
       id="text2425"
       style="font-style:normal;font-weight:normal;font-size:40px;line-height:1.25;font-family:Mono-serif;letter-spacing:0px;word-spacing:0px;fill:#000000;fill-opacity:1;stroke:none;stroke-width:1.13385832;stroke-miterlimit:4;stroke-dasharray:none;paint-order:markers fill stroke"
       aria-label="5">
      <path
         id="path87"
         style="font-style:normal;font-variant:normal;font-weight:normal;font-stretch:normal;font-size:16px;font-family:'Fira Mono';-inkscape-font-specification:'Fira Mono';stroke-width:1.13385832;stroke-miterlimit:4;stroke-dasharray:none;paint-order:markers fill stroke"
         d="m 106.04444,92.607859 h -5.84 v 5.504 h 1.088 c 0.64,-0.224 1.072,-0.368 1.712,-0.368 1.12,0 2,0.592 2,2.352001 0,1.712 -0.864,2.608 -2.32,2.608 -0.944,0 -1.696,-0.336 -2.368,-1.024 l -0.831999,0.816 c 0.847999,0.816 1.871999,1.312 3.199999,1.312 2.272,0 3.728,-1.456 3.728,-3.664 0,-2.208001 -1.216,-3.456001 -3.024,-3.456001 -0.656,0 -1.232,0.112 -1.888,0.48 v -3.472 h 4.352 z" />
    </g>
    <path
       id="rect2429"
       d="m 119.27184,-114.58158 h 21.32744 v 23.26629 h -21.32744 z"
       style="fill:#ebebeb;fill-opacity:1;stroke:#000000;stroke-width:1.13399994;stroke-miterlimit:4;stroke-dasharray:none;paint-order:markers fill stroke"
       transform="rotate(90)" />
    <g
       id="text2433"
       style="font-style:normal;font-weight:normal;font-size:40px;line-height:1.25;font-family:Mono-serif;letter-spacing:0px;word-spacing:0px;fill:#000000;fill-opacity:1;stroke:none;stroke-width:1.13385832;stroke-miterlimit:4;stroke-dasharray:none;paint-order:markers fill stroke"
       aria-label="10">
      <path
         id="path91"
         style="font-style:normal;font-variant:normal;font-weight:normal;font-stretch:normal;font-size:16px;font-family:'Fira Mono';-inkscape-font-specification:'Fira Mono';stroke-width:1.13385832;stroke-miterlimit:4;stroke-dasharray:none;paint-order:markers fill stroke"
         d="m 99.175566,134.53505 v -9.936 h -1.184 l -3.28,2.048 0.592,0.944 2.512,-1.52 v 8.464 h -2.704 v 1.088 h 6.352004 v -1.088 z" />
      <path
         id="path93"
         style="font-style:normal;font-variant:normal;font-weight:normal;font-stretch:normal;font-size:16px;font-family:'Fira Mono';-inkscape-font-specification:'Fira Mono';stroke-width:1.13385832;stroke-miterlimit:4;stroke-dasharray:none;paint-order:markers fill stroke"
         d="m 107.58532,124.42305 c -2.368,0 -3.6,2.032 -3.6,5.68 0,3.664 1.232,5.696 3.6,5.696 2.368,0 3.6,-2.032 3.6,-5.696 0,-3.648 -1.232,-5.68 -3.6,-5.68 z m 0,1.088 c 1.376,0 2.192,1.344 2.192,4.592 0,3.264 -0.816,4.608 -2.192,4.608 -1.36,0 -2.192,-1.344 -2.192,-4.608 0,-3.248 0.832,-4.592 2.192,-4.592 z m 0,3.552 c -0.592,0 -1.04,0.464 -1.04,1.04 0,0.592 0.448,1.056 1.04,1.056 0.608,0 1.056,-0.464 1.056,-1.056 0,-0.576 -0.448,-1.04 -1.056,-1.04 z" />
    </g>
    <path
       id="rect2437"
       d="m 50.815031,-122.69054 h 94.258679 c 3.81335,0 6.88331,3.03122 6.88331,6.79645 v 25.891306 c 0,3.765234 -3.06996,6.796451 -6.88331,6.796451 H 50.815031 c -3.813352,0 -6.883306,-3.031217 -6.883306,-6.796451 v -25.891306 c 0,-3.76523 3.069954,-6.79645 6.883306,-6.79645 z"
       style="fill:none;fill-opacity:1;stroke:#000000;stroke-width:1.13385832;stroke-miterlimit:4;stroke-dasharray:none;paint-order:markers fill stroke"
       transform="rotate(90)" />
  </g>
  <g
     transform="translate(-86.625607,-357.03526)"
     id="g108">
    <g
       id="g929">
      <path
         id="rect2490"
         d="m 410.78097,-484.35794 h 89.60544 c 5.1023,0 9.20993,5.48411 9.20993,12.29621 v 202.70094 c 0,6.8121 -4.10763,12.29621 -9.20993,12.29621 h -89.60544 c -5.1023,0 -9.20993,-5.48411 -9.20993,-12.29621 v -202.70094 c 0,-6.8121 4.10763,-12.29621 9.20993,-12.29621 z"
         style="fill:none;fill-opacity:1;stroke:#000000;stroke-width:1.13399994;stroke-miterlimit:4;stroke-dasharray:none;paint-order:markers fill stroke"
         transform="rotate(90)" />
      <g
         id="text2470"
         style="font-style:normal;font-weight:normal;font-size:40px;line-height:1.25;font-family:Mono-serif;letter-spacing:0px;word-spacing:0px;fill:#000000;fill-opacity:1;stroke:none;stroke-width:1.13385832;stroke-miterlimit:4;stroke-dasharray:none;paint-order:markers fill stroke"
         aria-label="map2(mu, sigma, rnorm, n = 5)">
        <path
           id="path98"
           style="font-style:normal;font-variant:normal;font-weight:normal;font-stretch:normal;font-size:16px;font-family:'Fira Mono';-inkscape-font-specification:'Fira Mono';stroke-width:1.13385832;stroke-miterlimit:4;stroke-dasharray:none;paint-order:markers fill stroke"
           d="m 239.34277,380.76489 c -0.848,0 -1.392,0.448 -1.856,1.12 -0.256,-0.864 -0.88,-1.12 -1.52,-1.12 -0.848,0 -1.376,0.512 -1.824,1.168 l -0.096,-0.992 h -1.04 v 8.432 h 1.232 v -6.544 c 0.464,-0.72 0.944,-1.008 1.472,-1.008 0.608,0 0.656,0.432 0.656,1.504 v 6.048 h 1.248 v -6.544 c 0.464,-0.72 0.96,-1.008 1.472,-1.008 0.608,0 0.656,0.432 0.656,1.504 v 6.048 h 1.232 v -6.272 c 0,-1.936 -0.816,-2.336 -1.632,-2.336 z" />
        <path
           id="path100"
           style="font-style:normal;font-variant:normal;font-weight:normal;font-stretch:normal;font-size:16px;font-family:'Fira Mono';-inkscape-font-specification:'Fira Mono';stroke-width:1.13385832;stroke-miterlimit:4;stroke-dasharray:none;paint-order:markers fill stroke"
           d="m 249.43252,387.53289 v -4.048 c 0,-1.664 -1.056,-2.72 -3.152,-2.72 -0.832,0 -1.728,0.16 -2.768,0.528 l 0.368,1.024 c 0.864,-0.304 1.632,-0.432 2.192,-0.432 1.248,0 2,0.448 2,1.68 v 0.688 h -1.248 c -2.544,0 -3.936,0.976 -3.936,2.704 0,1.568 1.024,2.592 2.72,2.592 1.088,0 2.032,-0.4 2.64,-1.184 0.224,0.768 0.816,1.104 1.536,1.2 l 0.336,-0.96 c -0.48,-0.144 -0.688,-0.4 -0.688,-1.072 z m -3.488,1.008 c -1.104,0 -1.616,-0.544 -1.616,-1.6 0,-1.088 0.672,-1.76 2.528,-1.76 h 1.216 v 2.16 c -0.496,0.752 -1.296,1.2 -2.128,1.2 z" />
        <path
           id="path102"
           style="font-style:normal;font-variant:normal;font-weight:normal;font-stretch:normal;font-size:16px;font-family:'Fira Mono';-inkscape-font-specification:'Fira Mono';stroke-width:1.13385832;stroke-miterlimit:4;stroke-dasharray:none;paint-order:markers fill stroke"
           d="m 256.75427,380.76489 c -1.008,0 -1.904,0.496 -2.512,1.36 l -0.112,-1.184 h -1.152 v 11.824 l 1.344,-0.16 v -4.016 c 0.576,0.64 1.312,0.96 2.24,0.96 2.192,0 3.248,-1.84 3.248,-4.4 0,-2.64 -0.816,-4.384 -3.056,-4.384 z m -0.32,1.088 c 1.328,0 1.92,1.104 1.92,3.296 0,2.24 -0.704,3.28 -2.096,3.28 -0.8,0 -1.488,-0.4 -1.936,-1.056 v -4.176 c 0.464,-0.672 1.184,-1.344 2.112,-1.344 z" />
        <path
           id="path104"
           style="font-style:normal;font-variant:normal;font-weight:normal;font-stretch:normal;font-size:16px;font-family:'Fira Mono';-inkscape-font-specification:'Fira Mono';stroke-width:1.13385832;stroke-miterlimit:4;stroke-dasharray:none;paint-order:markers fill stroke"
           d="m 265.27602,378.17289 c -1.488,0 -2.496,0.528 -3.36,1.584 l 0.928,0.72 c 0.704,-0.816 1.296,-1.168 2.368,-1.168 1.232,0 1.984,0.752 1.984,1.984 0,1.792 -0.896,3.008 -5.056,6.992 v 1.088 h 6.56 l 0.16,-1.152 h -5.184 c 3.632,-3.312 4.928,-4.944 4.928,-6.976 0,-1.744 -1.248,-3.072 -3.328,-3.072 z" />
        <path
           id="path106"
           style="font-style:normal;font-variant:normal;font-weight:normal;font-stretch:normal;font-size:16px;font-family:'Fira Mono';-inkscape-font-specification:'Fira Mono';stroke-width:1.13385832;stroke-miterlimit:4;stroke-dasharray:none;paint-order:markers fill stroke"
           d="m 273.97377,383.77289 c 0,-3.36 1.104,-5.056 3.408,-7.104 l -0.688,-0.736 c -2.608,2.128 -4.128,4.192 -4.128,7.84 0,3.648 1.52,5.712 4.128,7.84 l 0.688,-0.736 c -2.272,-2.032 -3.408,-3.76 -3.408,-7.104 z" />
        <path
           id="path108"
           style="font-style:normal;font-variant:normal;font-weight:normal;font-stretch:normal;font-size:16px;font-family:'Fira Mono';-inkscape-font-specification:'Fira Mono';stroke-width:1.13385832;stroke-miterlimit:4;stroke-dasharray:none;paint-order:markers fill stroke"
           d="m 287.31152,380.76489 c -0.848,0 -1.392,0.448 -1.856,1.12 -0.256,-0.864 -0.88,-1.12 -1.52,-1.12 -0.848,0 -1.376,0.512 -1.824,1.168 l -0.096,-0.992 h -1.04 v 8.432 h 1.232 v -6.544 c 0.464,-0.72 0.944,-1.008 1.472,-1.008 0.608,0 0.656,0.432 0.656,1.504 v 6.048 h 1.248 v -6.544 c 0.464,-0.72 0.96,-1.008 1.472,-1.008 0.608,0 0.656,0.432 0.656,1.504 v 6.048 h 1.232 v -6.272 c 0,-1.936 -0.816,-2.336 -1.632,-2.336 z" />
        <path
           id="path110"
           style="font-style:normal;font-variant:normal;font-weight:normal;font-stretch:normal;font-size:16px;font-family:'Fira Mono';-inkscape-font-specification:'Fira Mono';stroke-width:1.13385832;stroke-miterlimit:4;stroke-dasharray:none;paint-order:markers fill stroke"
           d="m 292.69727,380.94089 h -1.344 v 6.128 c 0,1.568 0.8,2.48 2.432,2.48 0.992,0 2.032,-0.464 2.704,-1.312 l 0.112,1.136 h 1.152 v -8.432 h -1.344 v 6.208 c -0.464,0.72 -1.36,1.344 -2.288,1.344 -0.976,0 -1.424,-0.48 -1.424,-1.568 z" />
        <path
           id="path112"
           style="font-style:normal;font-variant:normal;font-weight:normal;font-stretch:normal;font-size:16px;font-family:'Fira Mono';-inkscape-font-specification:'Fira Mono';stroke-width:1.13385832;stroke-miterlimit:4;stroke-dasharray:none;paint-order:markers fill stroke"
           d="m 304.14702,386.73289 c -0.72,0 -1.28,0.576 -1.28,1.296 0,0.416 0.208,0.832 0.512,1.056 l -0.752,3.152 h 1.216 l 1.296,-2.96 c 0.224,-0.496 0.304,-0.864 0.304,-1.264 0,-0.704 -0.56,-1.28 -1.296,-1.28 z" />
        <path
           id="path114"
           style="font-style:normal;font-variant:normal;font-weight:normal;font-stretch:normal;font-size:16px;font-family:'Fira Mono';-inkscape-font-specification:'Fira Mono';stroke-width:1.13385832;stroke-miterlimit:4;stroke-dasharray:none;paint-order:markers fill stroke"
           d="m 323.01452,388.44489 c -0.992,0 -1.888,-0.368 -2.544,-0.912 l -0.752,0.88 c 0.72,0.624 1.76,1.136 3.296,1.136 1.792,0 3.536,-0.704 3.536,-2.512 0,-1.568 -1.088,-2.144 -2.736,-2.592 -1.696,-0.464 -2.224,-0.72 -2.224,-1.488 0,-0.64 0.48,-1.104 1.824,-1.104 1.088,0 1.808,0.336 2.432,0.768 l 0.608,-0.928 c -0.72,-0.512 -1.712,-0.928 -3.072,-0.928 -1.904,0 -3.2,0.896 -3.2,2.304 0,1.472 1.136,2 2.88,2.432 1.792,0.448 2.032,0.848 2.032,1.6 0,0.816 -0.784,1.344 -2.08,1.344 z" />
        <path
           id="path116"
           style="font-style:normal;font-variant:normal;font-weight:normal;font-stretch:normal;font-size:16px;font-family:'Fira Mono';-inkscape-font-specification:'Fira Mono';stroke-width:1.13385832;stroke-miterlimit:4;stroke-dasharray:none;paint-order:markers fill stroke"
           d="m 332.92827,377.00489 c -0.576,0 -0.96,0.4 -0.96,0.944 0,0.544 0.384,0.944 0.96,0.944 0.592,0 0.992,-0.4 0.992,-0.944 0,-0.544 -0.4,-0.944 -0.992,-0.944 z m 1.072,3.936 h -3.856 v 1.072 h 2.512 v 6.288 h -2.592 v 1.072 h 6.304 v -1.072 h -2.368 z" />
        <path
           id="path118"
           style="font-style:normal;font-variant:normal;font-weight:normal;font-stretch:normal;font-size:16px;font-family:'Fira Mono';-inkscape-font-specification:'Fira Mono';stroke-width:1.13385832;stroke-miterlimit:4;stroke-dasharray:none;paint-order:markers fill stroke"
           d="m 346.18602,380.06089 c -0.992,0.416 -1.728,0.704 -3.84,0.704 -2,0 -3.36,1.216 -3.36,2.928 0,1.088 0.448,1.824 1.408,2.32 -0.608,0.4 -0.928,0.944 -0.928,1.472 0,0.848 0.656,1.6 2.128,1.6 h 1.504 c 1.072,0 1.888,0.4 1.888,1.2 0,0.912 -0.816,1.392 -2.656,1.392 -1.888,0 -2.336,-0.464 -2.336,-1.456 h -1.216 c 0,1.712 0.864,2.544 3.552,2.544 2.56,0 4.016,-0.912 4.016,-2.56 0,-1.312 -1.28,-2.288 -2.976,-2.288 h -1.52 c -0.864,0 -1.12,-0.32 -1.12,-0.72 0,-0.304 0.192,-0.624 0.432,-0.816 0.368,0.128 0.704,0.176 1.264,0.176 2,0 3.168,-1.2 3.168,-2.864 0,-0.96 -0.48,-1.68 -1.472,-2.128 0.944,0 1.76,-0.016 2.464,-0.24 z m -3.856,1.696 c 1.248,0 1.872,0.656 1.872,1.92 0,1.248 -0.64,1.984 -1.84,1.984 -1.376,0 -2,-0.816 -2,-1.968 0,-1.136 0.608,-1.936 1.968,-1.936 z" />
        <path
           id="path120"
           style="font-style:normal;font-variant:normal;font-weight:normal;font-stretch:normal;font-size:16px;font-family:'Fira Mono';-inkscape-font-specification:'Fira Mono';stroke-width:1.13385832;stroke-miterlimit:4;stroke-dasharray:none;paint-order:markers fill stroke"
           d="m 354.46777,380.76489 c -0.848,0 -1.392,0.448 -1.856,1.12 -0.256,-0.864 -0.88,-1.12 -1.52,-1.12 -0.848,0 -1.376,0.512 -1.824,1.168 l -0.096,-0.992 h -1.04 v 8.432 h 1.232 v -6.544 c 0.464,-0.72 0.944,-1.008 1.472,-1.008 0.608,0 0.656,0.432 0.656,1.504 v 6.048 h 1.248 v -6.544 c 0.464,-0.72 0.96,-1.008 1.472,-1.008 0.608,0 0.656,0.432 0.656,1.504 v 6.048 h 1.232 v -6.272 c 0,-1.936 -0.816,-2.336 -1.632,-2.336 z" />
        <path
           id="path122"
           style="font-style:normal;font-variant:normal;font-weight:normal;font-stretch:normal;font-size:16px;font-family:'Fira Mono';-inkscape-font-specification:'Fira Mono';stroke-width:1.13385832;stroke-miterlimit:4;stroke-dasharray:none;paint-order:markers fill stroke"
           d="m 364.55752,387.53289 v -4.048 c 0,-1.664 -1.056,-2.72 -3.152,-2.72 -0.832,0 -1.728,0.16 -2.768,0.528 l 0.368,1.024 c 0.864,-0.304 1.632,-0.432 2.192,-0.432 1.248,0 2,0.448 2,1.68 v 0.688 h -1.248 c -2.544,0 -3.936,0.976 -3.936,2.704 0,1.568 1.024,2.592 2.72,2.592 1.088,0 2.032,-0.4 2.64,-1.184 0.224,0.768 0.816,1.104 1.536,1.2 l 0.336,-0.96 c -0.48,-0.144 -0.688,-0.4 -0.688,-1.072 z m -3.488,1.008 c -1.104,0 -1.616,-0.544 -1.616,-1.6 0,-1.088 0.672,-1.76 2.528,-1.76 h 1.216 v 2.16 c -0.496,0.752 -1.296,1.2 -2.128,1.2 z" />
        <path
           id="path124"
           style="font-style:normal;font-variant:normal;font-weight:normal;font-stretch:normal;font-size:16px;font-family:'Fira Mono';-inkscape-font-specification:'Fira Mono';stroke-width:1.13385832;stroke-miterlimit:4;stroke-dasharray:none;paint-order:markers fill stroke"
           d="m 371.30327,386.73289 c -0.72,0 -1.28,0.576 -1.28,1.296 0,0.416 0.208,0.832 0.512,1.056 l -0.752,3.152 h 1.216 l 1.296,-2.96 c 0.224,-0.496 0.304,-0.864 0.304,-1.264 0,-0.704 -0.56,-1.28 -1.296,-1.28 z" />
        <path
           id="path126"
           style="font-style:normal;font-variant:normal;font-weight:normal;font-stretch:normal;font-size:16px;font-family:'Fira Mono';-inkscape-font-specification:'Fira Mono';stroke-width:1.13385832;stroke-miterlimit:4;stroke-dasharray:none;paint-order:markers fill stroke"
           d="m 392.98677,380.76489 c -1.52,0 -2.384,0.8 -3.024,2.176 l -0.256,-2 h -2.336 v 1.04 h 1.328 v 6.352 h -1.328 v 1.04 h 4.384 v -1.04 h -1.712 v -3.552 c 0.544,-1.856 1.472,-2.784 2.768,-2.784 h 0.08 v 1.808 h 1.088 l 0.192,-2.864 c -0.368,-0.096 -0.72,-0.176 -1.184,-0.176 z" />
        <path
           id="path128"
           style="font-style:normal;font-variant:normal;font-weight:normal;font-stretch:normal;font-size:16px;font-family:'Fira Mono';-inkscape-font-specification:'Fira Mono';stroke-width:1.13385832;stroke-miterlimit:4;stroke-dasharray:none;paint-order:markers fill stroke"
           d="m 396.88452,389.37289 h 1.344 v -6.128 c 0.448,-0.672 1.296,-1.408 2.288,-1.408 1.264,0 1.44,0.688 1.44,2.416 v 5.12 h 1.344 v -6.112 c 0,-1.568 -0.72,-2.496 -2.368,-2.496 -0.992,0 -2.112,0.496 -2.784,1.36 l -0.112,-1.184 h -1.152 z" />
        <path
           id="path130"
           style="font-style:normal;font-variant:normal;font-weight:normal;font-stretch:normal;font-size:16px;font-family:'Fira Mono';-inkscape-font-specification:'Fira Mono';stroke-width:1.13385832;stroke-miterlimit:4;stroke-dasharray:none;paint-order:markers fill stroke"
           d="m 409.69427,380.76489 c -2.368,0 -3.648,1.808 -3.648,4.4 0,2.656 1.264,4.384 3.632,4.384 2.352,0 3.632,-1.808 3.632,-4.4 0,-2.656 -1.248,-4.384 -3.616,-4.384 z m 0,1.104 c 1.44,0 2.16,1.056 2.16,3.28 0,2.256 -0.72,3.296 -2.176,3.296 -1.456,0 -2.176,-1.04 -2.176,-3.28 0,-2.24 0.736,-3.296 2.192,-3.296 z" />
        <path
           id="path132"
           style="font-style:normal;font-variant:normal;font-weight:normal;font-stretch:normal;font-size:16px;font-family:'Fira Mono';-inkscape-font-specification:'Fira Mono';stroke-width:1.13385832;stroke-miterlimit:4;stroke-dasharray:none;paint-order:markers fill stroke"
           d="m 421.76802,380.76489 c -1.52,0 -2.384,0.8 -3.024,2.176 l -0.256,-2 h -2.336 v 1.04 h 1.328 v 6.352 h -1.328 v 1.04 h 4.384 v -1.04 h -1.712 v -3.552 c 0.544,-1.856 1.472,-2.784 2.768,-2.784 h 0.08 v 1.808 h 1.088 l 0.192,-2.864 c -0.368,-0.096 -0.72,-0.176 -1.184,-0.176 z" />
        <path
           id="path134"
           style="font-style:normal;font-variant:normal;font-weight:normal;font-stretch:normal;font-size:16px;font-family:'Fira Mono';-inkscape-font-specification:'Fira Mono';stroke-width:1.13385832;stroke-miterlimit:4;stroke-dasharray:none;paint-order:markers fill stroke"
           d="m 431.21777,380.76489 c -0.848,0 -1.392,0.448 -1.856,1.12 -0.256,-0.864 -0.88,-1.12 -1.52,-1.12 -0.848,0 -1.376,0.512 -1.824,1.168 l -0.096,-0.992 h -1.04 v 8.432 h 1.232 v -6.544 c 0.464,-0.72 0.944,-1.008 1.472,-1.008 0.608,0 0.656,0.432 0.656,1.504 v 6.048 h 1.248 v -6.544 c 0.464,-0.72 0.96,-1.008 1.472,-1.008 0.608,0 0.656,0.432 0.656,1.504 v 6.048 h 1.232 v -6.272 c 0,-1.936 -0.816,-2.336 -1.632,-2.336 z" />
        <path
           id="path136"
           style="font-style:normal;font-variant:normal;font-weight:normal;font-stretch:normal;font-size:16px;font-family:'Fira Mono';-inkscape-font-specification:'Fira Mono';stroke-width:1.13385832;stroke-miterlimit:4;stroke-dasharray:none;paint-order:markers fill stroke"
           d="m 438.45952,386.73289 c -0.72,0 -1.28,0.576 -1.28,1.296 0,0.416 0.208,0.832 0.512,1.056 l -0.752,3.152 h 1.216 l 1.296,-2.96 c 0.224,-0.496 0.304,-0.864 0.304,-1.264 0,-0.704 -0.56,-1.28 -1.296,-1.28 z" />
        <path
           id="path138"
           style="font-style:normal;font-variant:normal;font-weight:normal;font-stretch:normal;font-size:16px;font-family:'Fira Mono';-inkscape-font-specification:'Fira Mono';stroke-width:1.13385832;stroke-miterlimit:4;stroke-dasharray:none;paint-order:markers fill stroke"
           d="m 454.44702,389.37289 h 1.344 v -6.128 c 0.448,-0.672 1.296,-1.408 2.288,-1.408 1.264,0 1.44,0.688 1.44,2.416 v 5.12 h 1.344 v -6.112 c 0,-1.568 -0.72,-2.496 -2.368,-2.496 -0.992,0 -2.112,0.496 -2.784,1.36 l -0.112,-1.184 h -1.152 z" />
        <path
           id="path140"
           style="font-style:normal;font-variant:normal;font-weight:normal;font-stretch:normal;font-size:16px;font-family:'Fira Mono';-inkscape-font-specification:'Fira Mono';stroke-width:1.13385832;stroke-miterlimit:4;stroke-dasharray:none;paint-order:markers fill stroke"
           d="m 479.93852,382.30089 h -6.208 v 1.152 h 6.208 z m 0,3.04 h -6.208 v 1.152 h 6.208 z" />
        <path
           id="path142"
           style="font-style:normal;font-variant:normal;font-weight:normal;font-stretch:normal;font-size:16px;font-family:'Fira Mono';-inkscape-font-specification:'Fira Mono';stroke-width:1.13385832;stroke-miterlimit:4;stroke-dasharray:none;paint-order:markers fill stroke"
           d="m 499.01402,378.34889 h -5.84 v 5.504 h 1.088 c 0.64,-0.224 1.072,-0.368 1.712,-0.368 1.12,0 2,0.592 2,2.352 0,1.712 -0.864,2.608 -2.32,2.608 -0.944,0 -1.696,-0.336 -2.368,-1.024 l -0.832,0.816 c 0.848,0.816 1.872,1.312 3.2,1.312 2.272,0 3.728,-1.456 3.728,-3.664 0,-2.208 -1.216,-3.456 -3.024,-3.456 -0.656,0 -1.232,0.112 -1.888,0.48 v -3.472 h 4.352 z" />
        <path
           id="path144"
           style="font-style:normal;font-variant:normal;font-weight:normal;font-stretch:normal;font-size:16px;font-family:'Fira Mono';-inkscape-font-specification:'Fira Mono';stroke-width:1.13385832;stroke-miterlimit:4;stroke-dasharray:none;paint-order:markers fill stroke"
           d="m 507.00777,383.77289 c 0,3.344 -1.136,5.072 -3.408,7.104 l 0.688,0.736 c 2.608,-2.128 4.128,-4.192 4.128,-7.84 0,-3.648 -1.52,-5.712 -4.128,-7.84 l -0.688,0.736 c 2.304,2.048 3.408,3.744 3.408,7.104 z" />
      </g>
      <path
         id="rect915"
         d="m 413.25018,-473.11557 h 21.32744 v 204.80862 h -21.32744 z"
         style="fill:#ebebeb;fill-opacity:1;stroke:#000000;stroke-width:1.13399994;stroke-miterlimit:4;stroke-dasharray:none;paint-order:markers fill stroke"
         transform="rotate(90)" />
      <g
         id="text2476"
         style="font-style:normal;font-weight:normal;font-size:40px;line-height:1.25;font-family:Mono-serif;letter-spacing:0px;word-spacing:0px;fill:#000000;fill-opacity:1;stroke:none;stroke-width:1.13385832;stroke-miterlimit:4;stroke-dasharray:none;paint-order:markers fill stroke"
         aria-label="rnorm(5, 1, n = 5)">
        <path
           id="path148"
           style="font-style:normal;font-variant:normal;font-weight:normal;font-stretch:normal;font-size:16px;font-family:'Fira Mono';-inkscape-font-specification:'Fira Mono';stroke-width:1.13385832;stroke-miterlimit:4;stroke-dasharray:none;paint-order:markers fill stroke"
           d="m 291.82038,420.5939 c -1.52,0 -2.384,0.8 -3.024,2.176 l -0.256,-2 h -2.336 v 1.04 h 1.328 v 6.352 h -1.328 v 1.04 h 4.384 v -1.04 h -1.712 v -3.552 c 0.544,-1.856 1.472,-2.784 2.768,-2.784 h 0.08 v 1.808 h 1.088 l 0.192,-2.864 c -0.368,-0.096 -0.72,-0.176 -1.184,-0.176 z" />
        <path
           id="path150"
           style="font-style:normal;font-variant:normal;font-weight:normal;font-stretch:normal;font-size:16px;font-family:'Fira Mono';-inkscape-font-specification:'Fira Mono';stroke-width:1.13385832;stroke-miterlimit:4;stroke-dasharray:none;paint-order:markers fill stroke"
           d="m 295.71813,429.2019 h 1.344 v -6.128 c 0.448,-0.672 1.296,-1.408 2.288,-1.408 1.264,0 1.44,0.688 1.44,2.416 v 5.12 h 1.344 v -6.112 c 0,-1.568 -0.72,-2.496 -2.368,-2.496 -0.992,0 -2.112,0.496 -2.784,1.36 l -0.112,-1.184 h -1.152 z" />
        <path
           id="path152"
           style="font-style:normal;font-variant:normal;font-weight:normal;font-stretch:normal;font-size:16px;font-family:'Fira Mono';-inkscape-font-specification:'Fira Mono';stroke-width:1.13385832;stroke-miterlimit:4;stroke-dasharray:none;paint-order:markers fill stroke"
           d="m 308.52788,420.5939 c -2.368,0 -3.648,1.808 -3.648,4.4 0,2.656 1.264,4.384 3.632,4.384 2.352,0 3.632,-1.808 3.632,-4.4 0,-2.656 -1.248,-4.384 -3.616,-4.384 z m 0,1.104 c 1.44,0 2.16,1.056 2.16,3.28 0,2.256 -0.72,3.296 -2.176,3.296 -1.456,0 -2.176,-1.04 -2.176,-3.28 0,-2.24 0.736,-3.296 2.192,-3.296 z" />
        <path
           id="path154"
           style="font-style:normal;font-variant:normal;font-weight:normal;font-stretch:normal;font-size:16px;font-family:'Fira Mono';-inkscape-font-specification:'Fira Mono';stroke-width:1.13385832;stroke-miterlimit:4;stroke-dasharray:none;paint-order:markers fill stroke"
           d="m 320.60163,420.5939 c -1.52,0 -2.384,0.8 -3.024,2.176 l -0.256,-2 h -2.336 v 1.04 h 1.328 v 6.352 h -1.328 v 1.04 h 4.384 v -1.04 h -1.712 v -3.552 c 0.544,-1.856 1.472,-2.784 2.768,-2.784 h 0.08 v 1.808 h 1.088 l 0.192,-2.864 c -0.368,-0.096 -0.72,-0.176 -1.184,-0.176 z" />
        <path
           id="path156"
           style="font-style:normal;font-variant:normal;font-weight:normal;font-stretch:normal;font-size:16px;font-family:'Fira Mono';-inkscape-font-specification:'Fira Mono';stroke-width:1.13385832;stroke-miterlimit:4;stroke-dasharray:none;paint-order:markers fill stroke"
           d="m 330.05138,420.5939 c -0.848,0 -1.392,0.448 -1.856,1.12 -0.256,-0.864 -0.88,-1.12 -1.52,-1.12 -0.848,0 -1.376,0.512 -1.824,1.168 l -0.096,-0.992 h -1.04 v 8.432 h 1.232 v -6.544 c 0.464,-0.72 0.944,-1.008 1.472,-1.008 0.608,0 0.656,0.432 0.656,1.504 v 6.048 h 1.248 v -6.544 c 0.464,-0.72 0.96,-1.008 1.472,-1.008 0.608,0 0.656,0.432 0.656,1.504 v 6.048 h 1.232 v -6.272 c 0,-1.936 -0.816,-2.336 -1.632,-2.336 z" />
        <path
           id="path158"
           style="font-style:normal;font-variant:normal;font-weight:normal;font-stretch:normal;font-size:16px;font-family:'Fira Mono';-inkscape-font-specification:'Fira Mono';stroke-width:1.13385832;stroke-miterlimit:4;stroke-dasharray:none;paint-order:markers fill stroke"
           d="m 335.90113,423.6019 c 0,-3.36 1.104,-5.056 3.408,-7.104 l -0.688,-0.736 c -2.608,2.128 -4.128,4.192 -4.128,7.84 0,3.648 1.52,5.712 4.128,7.84 l 0.688,-0.736 c -2.272,-2.032 -3.408,-3.76 -3.408,-7.104 z" />
        <path
           id="path160"
           style="font-style:normal;font-variant:normal;font-weight:normal;font-stretch:normal;font-size:16px;font-family:'Fira Mono';-inkscape-font-specification:'Fira Mono';stroke-width:1.13385832;stroke-miterlimit:4;stroke-dasharray:none;paint-order:markers fill stroke"
           d="m 349.87888,418.1779 h -5.84 v 5.504 h 1.088 c 0.64,-0.224 1.072,-0.368 1.712,-0.368 1.12,0 2,0.592 2,2.352 0,1.712 -0.864,2.608 -2.32,2.608 -0.944,0 -1.696,-0.336 -2.368,-1.024 l -0.832,0.816 c 0.848,0.816 1.872,1.312 3.2,1.312 2.272,0 3.728,-1.456 3.728,-3.664 0,-2.208 -1.216,-3.456 -3.024,-3.456 -0.656,0 -1.232,0.112 -1.888,0.48 v -3.472 h 4.352 z" />
        <path
           id="path162"
           style="font-style:normal;font-variant:normal;font-weight:normal;font-stretch:normal;font-size:16px;font-family:'Fira Mono';-inkscape-font-specification:'Fira Mono';stroke-width:1.13385832;stroke-miterlimit:4;stroke-dasharray:none;paint-order:markers fill stroke"
           d="m 356.48063,426.5619 c -0.72,0 -1.28,0.576 -1.28,1.296 0,0.416 0.208,0.832 0.512,1.056 l -0.752,3.152 h 1.216 l 1.296,-2.96 c 0.224,-0.496 0.304,-0.864 0.304,-1.264 0,-0.704 -0.56,-1.28 -1.296,-1.28 z" />
        <path
           id="path164"
           style="font-style:normal;font-variant:normal;font-weight:normal;font-stretch:normal;font-size:16px;font-family:'Fira Mono';-inkscape-font-specification:'Fira Mono';stroke-width:1.13385832;stroke-miterlimit:4;stroke-dasharray:none;paint-order:markers fill stroke"
           d="m 376.85213,428.1139 v -9.936 h -1.184 l -3.28,2.048 0.592,0.944 2.512,-1.52 v 8.464 h -2.704 v 1.088 h 6.352 v -1.088 z" />
        <path
           id="path166"
           style="font-style:normal;font-variant:normal;font-weight:normal;font-stretch:normal;font-size:16px;font-family:'Fira Mono';-inkscape-font-specification:'Fira Mono';stroke-width:1.13385832;stroke-miterlimit:4;stroke-dasharray:none;paint-order:markers fill stroke"
           d="m 385.26188,426.5619 c -0.72,0 -1.28,0.576 -1.28,1.296 0,0.416 0.208,0.832 0.512,1.056 l -0.752,3.152 h 1.216 l 1.296,-2.96 c 0.224,-0.496 0.304,-0.864 0.304,-1.264 0,-0.704 -0.56,-1.28 -1.296,-1.28 z" />
        <path
           id="path168"
           style="font-style:normal;font-variant:normal;font-weight:normal;font-stretch:normal;font-size:16px;font-family:'Fira Mono';-inkscape-font-specification:'Fira Mono';stroke-width:1.13385832;stroke-miterlimit:4;stroke-dasharray:none;paint-order:markers fill stroke"
           d="m 401.24938,429.2019 h 1.344 v -6.128 c 0.448,-0.672 1.296,-1.408 2.288,-1.408 1.264,0 1.44,0.688 1.44,2.416 v 5.12 h 1.344 v -6.112 c 0,-1.568 -0.72,-2.496 -2.368,-2.496 -0.992,0 -2.112,0.496 -2.784,1.36 l -0.112,-1.184 h -1.152 z" />
        <path
           id="path170"
           style="font-style:normal;font-variant:normal;font-weight:normal;font-stretch:normal;font-size:16px;font-family:'Fira Mono';-inkscape-font-specification:'Fira Mono';stroke-width:1.13385832;stroke-miterlimit:4;stroke-dasharray:none;paint-order:markers fill stroke"
           d="m 426.74088,422.1299 h -6.208 v 1.152 h 6.208 z m 0,3.04 h -6.208 v 1.152 h 6.208 z" />
        <path
           id="path172"
           style="font-style:normal;font-variant:normal;font-weight:normal;font-stretch:normal;font-size:16px;font-family:'Fira Mono';-inkscape-font-specification:'Fira Mono';stroke-width:1.13385832;stroke-miterlimit:4;stroke-dasharray:none;paint-order:markers fill stroke"
           d="m 445.81638,418.1779 h -5.84 v 5.504 h 1.088 c 0.64,-0.224 1.072,-0.368 1.712,-0.368 1.12,0 2,0.592 2,2.352 0,1.712 -0.864,2.608 -2.32,2.608 -0.944,0 -1.696,-0.336 -2.368,-1.024 l -0.832,0.816 c 0.848,0.816 1.872,1.312 3.2,1.312 2.272,0 3.728,-1.456 3.728,-3.664 0,-2.208 -1.216,-3.456 -3.024,-3.456 -0.656,0 -1.232,0.112 -1.888,0.48 v -3.472 h 4.352 z" />
        <path
           id="path174"
           style="font-style:normal;font-variant:normal;font-weight:normal;font-stretch:normal;font-size:16px;font-family:'Fira Mono';-inkscape-font-specification:'Fira Mono';stroke-width:1.13385832;stroke-miterlimit:4;stroke-dasharray:none;paint-order:markers fill stroke"
           d="m 453.81013,423.6019 c 0,3.344 -1.136,5.072 -3.408,7.104 l 0.688,0.736 c 2.608,-2.128 4.128,-4.192 4.128,-7.84 0,-3.648 -1.52,-5.712 -4.128,-7.84 l -0.688,0.736 c 2.304,2.048 3.408,3.744 3.408,7.104 z" />
      </g>
      <path
         id="rect913"
         d="m 445.31946,-473.11557 h 21.32743 v 204.80862 h -21.32743 z"
         style="fill:#ebebeb;fill-opacity:1;stroke:#000000;stroke-width:1.13399994;stroke-miterlimit:4;stroke-dasharray:none;paint-order:markers fill stroke"
         transform="rotate(90)" />
      <g
         id="text2482"
         style="font-style:normal;font-weight:normal;font-size:40px;line-height:1.25;font-family:Mono-serif;letter-spacing:0px;word-spacing:0px;fill:#000000;fill-opacity:1;stroke:none;stroke-width:1.13385832;stroke-miterlimit:4;stroke-dasharray:none;paint-order:markers fill stroke"
         aria-label="rnorm(10, 5, n = 5)">
        <path
           id="path178"
           style="font-style:normal;font-variant:normal;font-weight:normal;font-stretch:normal;font-size:16px;font-family:'Fira Mono';-inkscape-font-specification:'Fira Mono';stroke-width:1.13385832;stroke-miterlimit:4;stroke-dasharray:none;paint-order:markers fill stroke"
           d="m 287.02351,452.66318 c -1.52,0 -2.384,0.8 -3.024,2.176 l -0.256,-2 h -2.336 v 1.04 h 1.328 v 6.352 h -1.328 v 1.04 h 4.384 v -1.04 h -1.712 v -3.552 c 0.544,-1.856 1.472,-2.784 2.768,-2.784 h 0.08 v 1.808 h 1.088 l 0.192,-2.864 c -0.368,-0.096 -0.72,-0.176 -1.184,-0.176 z" />
        <path
           id="path180"
           style="font-style:normal;font-variant:normal;font-weight:normal;font-stretch:normal;font-size:16px;font-family:'Fira Mono';-inkscape-font-specification:'Fira Mono';stroke-width:1.13385832;stroke-miterlimit:4;stroke-dasharray:none;paint-order:markers fill stroke"
           d="m 290.92126,461.27118 h 1.344 v -6.128 c 0.448,-0.672 1.296,-1.408 2.288,-1.408 1.264,0 1.44,0.688 1.44,2.416 v 5.12 h 1.344 v -6.112 c 0,-1.568 -0.72,-2.496 -2.368,-2.496 -0.992,0 -2.112,0.496 -2.784,1.36 l -0.112,-1.184 h -1.152 z" />
        <path
           id="path182"
           style="font-style:normal;font-variant:normal;font-weight:normal;font-stretch:normal;font-size:16px;font-family:'Fira Mono';-inkscape-font-specification:'Fira Mono';stroke-width:1.13385832;stroke-miterlimit:4;stroke-dasharray:none;paint-order:markers fill stroke"
           d="m 303.73101,452.66318 c -2.368,0 -3.648,1.808 -3.648,4.4 0,2.656 1.264,4.384 3.632,4.384 2.352,0 3.632,-1.808 3.632,-4.4 0,-2.656 -1.248,-4.384 -3.616,-4.384 z m 0,1.104 c 1.44,0 2.16,1.056 2.16,3.28 0,2.256 -0.72,3.296 -2.176,3.296 -1.456,0 -2.176,-1.04 -2.176,-3.28 0,-2.24 0.736,-3.296 2.192,-3.296 z" />
        <path
           id="path184"
           style="font-style:normal;font-variant:normal;font-weight:normal;font-stretch:normal;font-size:16px;font-family:'Fira Mono';-inkscape-font-specification:'Fira Mono';stroke-width:1.13385832;stroke-miterlimit:4;stroke-dasharray:none;paint-order:markers fill stroke"
           d="m 315.80476,452.66318 c -1.52,0 -2.384,0.8 -3.024,2.176 l -0.256,-2 h -2.336 v 1.04 h 1.328 v 6.352 h -1.328 v 1.04 h 4.384 v -1.04 h -1.712 v -3.552 c 0.544,-1.856 1.472,-2.784 2.768,-2.784 h 0.08 v 1.808 h 1.088 l 0.192,-2.864 c -0.368,-0.096 -0.72,-0.176 -1.184,-0.176 z" />
        <path
           id="path186"
           style="font-style:normal;font-variant:normal;font-weight:normal;font-stretch:normal;font-size:16px;font-family:'Fira Mono';-inkscape-font-specification:'Fira Mono';stroke-width:1.13385832;stroke-miterlimit:4;stroke-dasharray:none;paint-order:markers fill stroke"
           d="m 325.25451,452.66318 c -0.848,0 -1.392,0.448 -1.856,1.12 -0.256,-0.864 -0.88,-1.12 -1.52,-1.12 -0.848,0 -1.376,0.512 -1.824,1.168 l -0.096,-0.992 h -1.04 v 8.432 h 1.232 v -6.544 c 0.464,-0.72 0.944,-1.008 1.472,-1.008 0.608,0 0.656,0.432 0.656,1.504 v 6.048 h 1.248 v -6.544 c 0.464,-0.72 0.96,-1.008 1.472,-1.008 0.608,0 0.656,0.432 0.656,1.504 v 6.048 h 1.232 v -6.272 c 0,-1.936 -0.816,-2.336 -1.632,-2.336 z" />
        <path
           id="path188"
           style="font-style:normal;font-variant:normal;font-weight:normal;font-stretch:normal;font-size:16px;font-family:'Fira Mono';-inkscape-font-specification:'Fira Mono';stroke-width:1.13385832;stroke-miterlimit:4;stroke-dasharray:none;paint-order:markers fill stroke"
           d="m 331.10426,455.67118 c 0,-3.36 1.104,-5.056 3.408,-7.104 l -0.688,-0.736 c -2.608,2.128 -4.128,4.192 -4.128,7.84 0,3.648 1.52,5.712 4.128,7.84 l 0.688,-0.736 c -2.272,-2.032 -3.408,-3.76 -3.408,-7.104 z" />
        <path
           id="path190"
           style="font-style:normal;font-variant:normal;font-weight:normal;font-stretch:normal;font-size:16px;font-family:'Fira Mono';-inkscape-font-specification:'Fira Mono';stroke-width:1.13385832;stroke-miterlimit:4;stroke-dasharray:none;paint-order:markers fill stroke"
           d="m 343.27401,460.18318 v -9.936 h -1.184 l -3.28,2.048 0.592,0.944 2.512,-1.52 v 8.464 h -2.704 v 1.088 h 6.352 v -1.088 z" />
        <path
           id="path192"
           style="font-style:normal;font-variant:normal;font-weight:normal;font-stretch:normal;font-size:16px;font-family:'Fira Mono';-inkscape-font-specification:'Fira Mono';stroke-width:1.13385832;stroke-miterlimit:4;stroke-dasharray:none;paint-order:markers fill stroke"
           d="m 351.68376,450.07118 c -2.368,0 -3.6,2.032 -3.6,5.68 0,3.664 1.232,5.696 3.6,5.696 2.368,0 3.6,-2.032 3.6,-5.696 0,-3.648 -1.232,-5.68 -3.6,-5.68 z m 0,1.088 c 1.376,0 2.192,1.344 2.192,4.592 0,3.264 -0.816,4.608 -2.192,4.608 -1.36,0 -2.192,-1.344 -2.192,-4.608 0,-3.248 0.832,-4.592 2.192,-4.592 z m 0,3.552 c -0.592,0 -1.04,0.464 -1.04,1.04 0,0.592 0.448,1.056 1.04,1.056 0.608,0 1.056,-0.464 1.056,-1.056 0,-0.576 -0.448,-1.04 -1.056,-1.04 z" />
        <path
           id="path194"
           style="font-style:normal;font-variant:normal;font-weight:normal;font-stretch:normal;font-size:16px;font-family:'Fira Mono';-inkscape-font-specification:'Fira Mono';stroke-width:1.13385832;stroke-miterlimit:4;stroke-dasharray:none;paint-order:markers fill stroke"
           d="m 361.27751,458.63118 c -0.72,0 -1.28,0.576 -1.28,1.296 0,0.416 0.208,0.832 0.512,1.056 l -0.752,3.152 h 1.216 l 1.296,-2.96 c 0.224,-0.496 0.304,-0.864 0.304,-1.264 0,-0.704 -0.56,-1.28 -1.296,-1.28 z" />
        <path
           id="path196"
           style="font-style:normal;font-variant:normal;font-weight:normal;font-stretch:normal;font-size:16px;font-family:'Fira Mono';-inkscape-font-specification:'Fira Mono';stroke-width:1.13385832;stroke-miterlimit:4;stroke-dasharray:none;paint-order:markers fill stroke"
           d="m 383.45701,450.24718 h -5.84 v 5.504 h 1.088 c 0.64,-0.224 1.072,-0.368 1.712,-0.368 1.12,0 2,0.592 2,2.352 0,1.712 -0.864,2.608 -2.32,2.608 -0.944,0 -1.696,-0.336 -2.368,-1.024 l -0.832,0.816 c 0.848,0.816 1.872,1.312 3.2,1.312 2.272,0 3.728,-1.456 3.728,-3.664 0,-2.208 -1.216,-3.456 -3.024,-3.456 -0.656,0 -1.232,0.112 -1.888,0.48 v -3.472 h 4.352 z" />
        <path
           id="path198"
           style="font-style:normal;font-variant:normal;font-weight:normal;font-stretch:normal;font-size:16px;font-family:'Fira Mono';-inkscape-font-specification:'Fira Mono';stroke-width:1.13385832;stroke-miterlimit:4;stroke-dasharray:none;paint-order:markers fill stroke"
           d="m 390.05876,458.63118 c -0.72,0 -1.28,0.576 -1.28,1.296 0,0.416 0.208,0.832 0.512,1.056 l -0.752,3.152 h 1.216 l 1.296,-2.96 c 0.224,-0.496 0.304,-0.864 0.304,-1.264 0,-0.704 -0.56,-1.28 -1.296,-1.28 z" />
        <path
           id="path200"
           style="font-style:normal;font-variant:normal;font-weight:normal;font-stretch:normal;font-size:16px;font-family:'Fira Mono';-inkscape-font-specification:'Fira Mono';stroke-width:1.13385832;stroke-miterlimit:4;stroke-dasharray:none;paint-order:markers fill stroke"
           d="m 406.04626,461.27118 h 1.344 v -6.128 c 0.448,-0.672 1.296,-1.408 2.288,-1.408 1.264,0 1.44,0.688 1.44,2.416 v 5.12 h 1.344 v -6.112 c 0,-1.568 -0.72,-2.496 -2.368,-2.496 -0.992,0 -2.112,0.496 -2.784,1.36 l -0.112,-1.184 h -1.152 z" />
        <path
           id="path202"
           style="font-style:normal;font-variant:normal;font-weight:normal;font-stretch:normal;font-size:16px;font-family:'Fira Mono';-inkscape-font-specification:'Fira Mono';stroke-width:1.13385832;stroke-miterlimit:4;stroke-dasharray:none;paint-order:markers fill stroke"
           d="m 431.53776,454.19918 h -6.208 v 1.152 h 6.208 z m 0,3.04 h -6.208 v 1.152 h 6.208 z" />
        <path
           id="path204"
           style="font-style:normal;font-variant:normal;font-weight:normal;font-stretch:normal;font-size:16px;font-family:'Fira Mono';-inkscape-font-specification:'Fira Mono';stroke-width:1.13385832;stroke-miterlimit:4;stroke-dasharray:none;paint-order:markers fill stroke"
           d="m 450.61326,450.24718 h -5.84 v 5.504 h 1.088 c 0.64,-0.224 1.072,-0.368 1.712,-0.368 1.12,0 2,0.592 2,2.352 0,1.712 -0.864,2.608 -2.32,2.608 -0.944,0 -1.696,-0.336 -2.368,-1.024 l -0.832,0.816 c 0.848,0.816 1.872,1.312 3.2,1.312 2.272,0 3.728,-1.456 3.728,-3.664 0,-2.208 -1.216,-3.456 -3.024,-3.456 -0.656,0 -1.232,0.112 -1.888,0.48 v -3.472 h 4.352 z" />
        <path
           id="path206"
           style="font-style:normal;font-variant:normal;font-weight:normal;font-stretch:normal;font-size:16px;font-family:'Fira Mono';-inkscape-font-specification:'Fira Mono';stroke-width:1.13385832;stroke-miterlimit:4;stroke-dasharray:none;paint-order:markers fill stroke"
           d="m 458.60701,455.67118 c 0,3.344 -1.136,5.072 -3.408,7.104 l 0.688,0.736 c 2.608,-2.128 4.128,-4.192 4.128,-7.84 0,-3.648 -1.52,-5.712 -4.128,-7.84 l -0.688,0.736 c 2.304,2.048 3.408,3.744 3.408,7.104 z" />
      </g>
      <path
         id="rect2484"
         d="m 477.31064,-473.11557 h 21.32743 v 204.80862 h -21.32743 z"
         style="fill:#ebebeb;fill-opacity:1;stroke:#000000;stroke-width:1.13399994;stroke-miterlimit:4;stroke-dasharray:none;paint-order:markers fill stroke"
         transform="rotate(90)" />
      <g
         id="text2488"
         style="font-style:normal;font-weight:normal;font-size:40px;line-height:1.25;font-family:Mono-serif;letter-spacing:0px;word-spacing:0px;fill:#000000;fill-opacity:1;stroke:none;stroke-width:1.13385832;stroke-miterlimit:4;stroke-dasharray:none;paint-order:markers fill stroke"
         aria-label="rnorm(-3, 10, n = 5)">
        <path
           id="path210"
           style="font-style:normal;font-variant:normal;font-weight:normal;font-stretch:normal;font-size:16px;font-family:'Fira Mono';-inkscape-font-specification:'Fira Mono';stroke-width:1.13385832;stroke-miterlimit:4;stroke-dasharray:none;paint-order:markers fill stroke"
           d="m 282.22663,484.65436 c -1.52,0 -2.384,0.8 -3.024,2.176 l -0.256,-2 h -2.336 v 1.04 h 1.328 v 6.352 h -1.328 v 1.04 h 4.384 v -1.04 h -1.712 v -3.552 c 0.544,-1.856 1.472,-2.784 2.768,-2.784 h 0.08 v 1.808 h 1.088 l 0.192,-2.864 c -0.368,-0.096 -0.72,-0.176 -1.184,-0.176 z" />
        <path
           id="path212"
           style="font-style:normal;font-variant:normal;font-weight:normal;font-stretch:normal;font-size:16px;font-family:'Fira Mono';-inkscape-font-specification:'Fira Mono';stroke-width:1.13385832;stroke-miterlimit:4;stroke-dasharray:none;paint-order:markers fill stroke"
           d="m 286.12438,493.26236 h 1.344 v -6.128 c 0.448,-0.672 1.296,-1.408 2.288,-1.408 1.264,0 1.44,0.688 1.44,2.416 v 5.12 h 1.344 v -6.112 c 0,-1.568 -0.72,-2.496 -2.368,-2.496 -0.992,0 -2.112,0.496 -2.784,1.36 l -0.112,-1.184 h -1.152 z" />
        <path
           id="path214"
           style="font-style:normal;font-variant:normal;font-weight:normal;font-stretch:normal;font-size:16px;font-family:'Fira Mono';-inkscape-font-specification:'Fira Mono';stroke-width:1.13385832;stroke-miterlimit:4;stroke-dasharray:none;paint-order:markers fill stroke"
           d="m 298.93413,484.65436 c -2.368,0 -3.648,1.808 -3.648,4.4 0,2.656 1.264,4.384 3.632,4.384 2.352,0 3.632,-1.808 3.632,-4.4 0,-2.656 -1.248,-4.384 -3.616,-4.384 z m 0,1.104 c 1.44,0 2.16,1.056 2.16,3.28 0,2.256 -0.72,3.296 -2.176,3.296 -1.456,0 -2.176,-1.04 -2.176,-3.28 0,-2.24 0.736,-3.296 2.192,-3.296 z" />
        <path
           id="path216"
           style="font-style:normal;font-variant:normal;font-weight:normal;font-stretch:normal;font-size:16px;font-family:'Fira Mono';-inkscape-font-specification:'Fira Mono';stroke-width:1.13385832;stroke-miterlimit:4;stroke-dasharray:none;paint-order:markers fill stroke"
           d="m 311.00788,484.65436 c -1.52,0 -2.384,0.8 -3.024,2.176 l -0.256,-2 h -2.336 v 1.04 h 1.328 v 6.352 h -1.328 v 1.04 h 4.384 v -1.04 h -1.712 v -3.552 c 0.544,-1.856 1.472,-2.784 2.768,-2.784 h 0.08 v 1.808 h 1.088 l 0.192,-2.864 c -0.368,-0.096 -0.72,-0.176 -1.184,-0.176 z" />
        <path
           id="path218"
           style="font-style:normal;font-variant:normal;font-weight:normal;font-stretch:normal;font-size:16px;font-family:'Fira Mono';-inkscape-font-specification:'Fira Mono';stroke-width:1.13385832;stroke-miterlimit:4;stroke-dasharray:none;paint-order:markers fill stroke"
           d="m 320.45763,484.65436 c -0.848,0 -1.392,0.448 -1.856,1.12 -0.256,-0.864 -0.88,-1.12 -1.52,-1.12 -0.848,0 -1.376,0.512 -1.824,1.168 l -0.096,-0.992 h -1.04 v 8.432 h 1.232 v -6.544 c 0.464,-0.72 0.944,-1.008 1.472,-1.008 0.608,0 0.656,0.432 0.656,1.504 v 6.048 h 1.248 v -6.544 c 0.464,-0.72 0.96,-1.008 1.472,-1.008 0.608,0 0.656,0.432 0.656,1.504 v 6.048 h 1.232 v -6.272 c 0,-1.936 -0.816,-2.336 -1.632,-2.336 z" />
        <path
           id="path220"
           style="font-style:normal;font-variant:normal;font-weight:normal;font-stretch:normal;font-size:16px;font-family:'Fira Mono';-inkscape-font-specification:'Fira Mono';stroke-width:1.13385832;stroke-miterlimit:4;stroke-dasharray:none;paint-order:markers fill stroke"
           d="m 326.30738,487.66236 c 0,-3.36 1.104,-5.056 3.408,-7.104 l -0.688,-0.736 c -2.608,2.128 -4.128,4.192 -4.128,7.84 0,3.648 1.52,5.712 4.128,7.84 l 0.688,-0.736 c -2.272,-2.032 -3.408,-3.76 -3.408,-7.104 z" />
        <path
           id="path222"
           style="font-style:normal;font-variant:normal;font-weight:normal;font-stretch:normal;font-size:16px;font-family:'Fira Mono';-inkscape-font-specification:'Fira Mono';stroke-width:1.13385832;stroke-miterlimit:4;stroke-dasharray:none;paint-order:markers fill stroke"
           d="m 334.49313,488.83036 h 5.6 v -1.152 h -5.6 z" />
        <path
           id="path224"
           style="font-style:normal;font-variant:normal;font-weight:normal;font-stretch:normal;font-size:16px;font-family:'Fira Mono';-inkscape-font-specification:'Fira Mono';stroke-width:1.13385832;stroke-miterlimit:4;stroke-dasharray:none;paint-order:markers fill stroke"
           d="m 346.39088,482.06236 c -1.136,0 -2.192,0.384 -3.136,1.28 l 0.736,0.816 c 0.736,-0.672 1.392,-1.008 2.336,-1.008 1.168,0 2.08,0.656 2.08,1.856 0,1.328 -1.024,1.92 -2.08,1.92 h -0.656 l -0.16,1.072 h 0.912 c 1.312,0 2.288,0.512 2.288,2.096 0,1.376 -0.912,2.24 -2.448,2.24 -0.896,0 -1.824,-0.352 -2.448,-1.088 l -0.896,0.736 c 0.832,1.008 2.144,1.456 3.376,1.456 2.288,0 3.824,-1.44 3.824,-3.344 0,-1.712 -1.216,-2.608 -2.496,-2.704 1.152,-0.224 2.144,-1.232 2.144,-2.56 0,-1.504 -1.296,-2.768 -3.376,-2.768 z" />
        <path
           id="path226"
           style="font-style:normal;font-variant:normal;font-weight:normal;font-stretch:normal;font-size:16px;font-family:'Fira Mono';-inkscape-font-specification:'Fira Mono';stroke-width:1.13385832;stroke-miterlimit:4;stroke-dasharray:none;paint-order:markers fill stroke"
           d="m 356.48063,490.62236 c -0.72,0 -1.28,0.576 -1.28,1.296 0,0.416 0.208,0.832 0.512,1.056 l -0.752,3.152 h 1.216 l 1.296,-2.96 c 0.224,-0.496 0.304,-0.864 0.304,-1.264 0,-0.704 -0.56,-1.28 -1.296,-1.28 z" />
        <path
           id="path228"
           style="font-style:normal;font-variant:normal;font-weight:normal;font-stretch:normal;font-size:16px;font-family:'Fira Mono';-inkscape-font-specification:'Fira Mono';stroke-width:1.13385832;stroke-miterlimit:4;stroke-dasharray:none;paint-order:markers fill stroke"
           d="m 376.85213,492.17436 v -9.936 h -1.184 l -3.28,2.048 0.592,0.944 2.512,-1.52 v 8.464 h -2.704 v 1.088 h 6.352 v -1.088 z" />
        <path
           id="path230"
           style="font-style:normal;font-variant:normal;font-weight:normal;font-stretch:normal;font-size:16px;font-family:'Fira Mono';-inkscape-font-specification:'Fira Mono';stroke-width:1.13385832;stroke-miterlimit:4;stroke-dasharray:none;paint-order:markers fill stroke"
           d="m 385.26188,482.06236 c -2.368,0 -3.6,2.032 -3.6,5.68 0,3.664 1.232,5.696 3.6,5.696 2.368,0 3.6,-2.032 3.6,-5.696 0,-3.648 -1.232,-5.68 -3.6,-5.68 z m 0,1.088 c 1.376,0 2.192,1.344 2.192,4.592 0,3.264 -0.816,4.608 -2.192,4.608 -1.36,0 -2.192,-1.344 -2.192,-4.608 0,-3.248 0.832,-4.592 2.192,-4.592 z m 0,3.552 c -0.592,0 -1.04,0.464 -1.04,1.04 0,0.592 0.448,1.056 1.04,1.056 0.608,0 1.056,-0.464 1.056,-1.056 0,-0.576 -0.448,-1.04 -1.056,-1.04 z" />
        <path
           id="path232"
           style="font-style:normal;font-variant:normal;font-weight:normal;font-stretch:normal;font-size:16px;font-family:'Fira Mono';-inkscape-font-specification:'Fira Mono';stroke-width:1.13385832;stroke-miterlimit:4;stroke-dasharray:none;paint-order:markers fill stroke"
           d="m 394.85563,490.62236 c -0.72,0 -1.28,0.576 -1.28,1.296 0,0.416 0.208,0.832 0.512,1.056 l -0.752,3.152 h 1.216 l 1.296,-2.96 c 0.224,-0.496 0.304,-0.864 0.304,-1.264 0,-0.704 -0.56,-1.28 -1.296,-1.28 z" />
        <path
           id="path234"
           style="font-style:normal;font-variant:normal;font-weight:normal;font-stretch:normal;font-size:16px;font-family:'Fira Mono';-inkscape-font-specification:'Fira Mono';stroke-width:1.13385832;stroke-miterlimit:4;stroke-dasharray:none;paint-order:markers fill stroke"
           d="m 410.84313,493.26236 h 1.344 v -6.128 c 0.448,-0.672 1.296,-1.408 2.288,-1.408 1.264,0 1.44,0.688 1.44,2.416 v 5.12 h 1.344 v -6.112 c 0,-1.568 -0.72,-2.496 -2.368,-2.496 -0.992,0 -2.112,0.496 -2.784,1.36 l -0.112,-1.184 h -1.152 z" />
        <path
           id="path236"
           style="font-style:normal;font-variant:normal;font-weight:normal;font-stretch:normal;font-size:16px;font-family:'Fira Mono';-inkscape-font-specification:'Fira Mono';stroke-width:1.13385832;stroke-miterlimit:4;stroke-dasharray:none;paint-order:markers fill stroke"
           d="m 436.33463,486.19036 h -6.208 v 1.152 h 6.208 z m 0,3.04 h -6.208 v 1.152 h 6.208 z" />
        <path
           id="path238"
           style="font-style:normal;font-variant:normal;font-weight:normal;font-stretch:normal;font-size:16px;font-family:'Fira Mono';-inkscape-font-specification:'Fira Mono';stroke-width:1.13385832;stroke-miterlimit:4;stroke-dasharray:none;paint-order:markers fill stroke"
           d="m 455.41013,482.23836 h -5.84 v 5.504 h 1.088 c 0.64,-0.224 1.072,-0.368 1.712,-0.368 1.12,0 2,0.592 2,2.352 0,1.712 -0.864,2.608 -2.32,2.608 -0.944,0 -1.696,-0.336 -2.368,-1.024 l -0.832,0.816 c 0.848,0.816 1.872,1.312 3.2,1.312 2.272,0 3.728,-1.456 3.728,-3.664 0,-2.208 -1.216,-3.456 -3.024,-3.456 -0.656,0 -1.232,0.112 -1.888,0.48 v -3.472 h 4.352 z" />
        <path
           id="path240"
           style="font-style:normal;font-variant:normal;font-weight:normal;font-stretch:normal;font-size:16px;font-family:'Fira Mono';-inkscape-font-specification:'Fira Mono';stroke-width:1.13385832;stroke-miterlimit:4;stroke-dasharray:none;paint-order:markers fill stroke"
           d="m 463.40388,487.66236 c 0,3.344 -1.136,5.072 -3.408,7.104 l 0.688,0.736 c 2.608,-2.128 4.128,-4.192 4.128,-7.84 0,-3.648 -1.52,-5.712 -4.128,-7.84 l -0.688,0.736 c 2.304,2.048 3.408,3.744 3.408,7.104 z" />
      </g>
    </g>
  </g>
</svg>
