<?xml version="1.0" encoding="UTF-8" standalone="no"?>
<svg
   xmlns:dc="http://purl.org/dc/elements/1.1/"
   xmlns:cc="http://creativecommons.org/ns#"
   xmlns:rdf="http://www.w3.org/1999/02/22-rdf-syntax-ns#"
   xmlns:svg="http://www.w3.org/2000/svg"
   xmlns="http://www.w3.org/2000/svg"
   version="1.1"
   id="svg2"
   viewBox="0 0 561.6623 254.01689"
   height="71.689209mm"
   width="158.51358mm">
  <defs
     id="defs4" />
  <metadata
     id="metadata7">
    <rdf:RDF>
      <cc:Work
         rdf:about="">
        <dc:format>image/svg+xml</dc:format>
        <dc:type
           rdf:resource="http://purl.org/dc/dcmitype/StillImage" />
        <dc:title />
      </cc:Work>
    </rdf:RDF>
  </metadata>
  <g
     transform="translate(-19.664179,-109.96016)"
     id="layer1">
    <g
       id="g4413">
      <g
         id="g4242">
        <g
           id="g4310">
          <path
             id="path3401"
             d="m 97.880714,158.1767 a 30,30 0 0 1 -30,30 30,30 0 0 1 -30,-30 30,30 0 0 1 30,-30 30,30 0 0 1 30,30 z"
             style="fill:#ffffff;fill-opacity:1;stroke:#000000;stroke-width:1;stroke-miterlimit:4;stroke-dasharray:none" />
          <path
             id="circle4203"
             d="m 133.74113,158.1767 a 30,30 0 0 1 -30,30 30,30 0 0 1 -30.000003,-30 30,30 0 0 1 30.000003,-30 30,30 0 0 1 30,30 z"
             style="fill:#cccccc;fill-opacity:1;stroke:#000000;stroke-width:1;stroke-miterlimit:4;stroke-dasharray:none" />
          <g
             id="text4228"
             style="font-style:normal;font-weight:normal;line-height:0%;font-family:sans-serif;letter-spacing:0px;word-spacing:0px;fill:#000000;fill-opacity:1;stroke:none;stroke-width:1px;stroke-linecap:butt;stroke-linejoin:miter;stroke-opacity:1"
             aria-label="y &amp; !x">
            <path
               id="path59"
               style="font-style:normal;font-variant:normal;font-weight:normal;font-stretch:normal;font-size:13.75px;line-height:1.25;font-family:'Fira Mono';-inkscape-font-specification:'Fira Mono'"
               d="m 158.92039,154.4183 h -1.19625 l -2.04875,6.36625 -2.07625,-6.36625 h -1.22375 l 2.51625,7.24625 h 0.385 c -0.37125,1.11375 -0.81125,1.7325 -2.29625,1.99375 l 0.165,0.92125 c 1.925,-0.20625 2.73625,-1.38875 3.245,-2.87375 z" />
            <path
               id="path61"
               style="font-style:normal;font-variant:normal;font-weight:normal;font-stretch:normal;font-size:13.75px;line-height:1.25;font-family:'Fira Mono';-inkscape-font-specification:'Fira Mono'"
               d="m 171.8484,152.0533 c -1.60875,0 -2.59875,1.05875 -2.59875,2.26875 0,0.8525 0.4125,1.69125 1.65,1.98 v 0.0412 c -1.375,0.28875 -2.145,1.22375 -2.145,2.64 0,1.41625 0.92125,2.8325 3.06625,2.8325 1.58125,0 2.43375,-0.7425 2.84625,-1.265 v -3.74 h 1.2375 v -0.92125 h -3.8225 c -0.9625,0 -1.705,-0.72875 -1.705,-1.5675 0,-0.81125 0.48125,-1.4025 1.4575,-1.4025 0.6875,0 1.14125,0.26125 1.6225,0.7975 l 0.6875,-0.6325 c -0.75625,-0.83875 -1.47125,-1.03125 -2.29625,-1.03125 z m 1.76,4.7575 v 3.355 c -0.37125,0.4675 -1.00375,0.715 -1.76,0.715 -1.38875,0 -1.96625,-0.935 -1.96625,-1.93875 0,-0.97625 0.605,-2.13125 2.02125,-2.13125 z" />
            <path
               id="path63"
               style="font-style:normal;font-variant:normal;font-weight:normal;font-stretch:normal;font-size:13.75px;line-height:1.25;font-family:'Fira Mono';-inkscape-font-specification:'Fira Mono'"
               d="m 189.24515,152.1908 h -1.2925 l 0.1375,6.3525 h 1.03125 z m -0.6325,7.7825 c -0.5225,0 -0.92125,0.4125 -0.92125,0.92125 0,0.5225 0.39875,0.92125 0.92125,0.92125 0.53625,0 0.92125,-0.39875 0.92125,-0.92125 0,-0.50875 -0.385,-0.92125 -0.92125,-0.92125 z" />
            <path
               id="path65"
               style="font-style:normal;font-variant:normal;font-weight:normal;font-stretch:normal;font-size:13.75px;line-height:1.25;font-family:'Fira Mono';-inkscape-font-specification:'Fira Mono'"
               d="m 194.83603,161.66455 1.99375,-3.1075 1.99375,3.1075 h 1.4025 l -2.6675,-3.8775 2.35125,-3.36875 h -1.33375 l -1.69125,2.695 -1.6775,-2.695 h -1.375 l 2.35125,3.42375 -2.6675,3.8225 z" />
          </g>
          <path
             id="circle4531"
             d="M 85.806641,134.16602 A 30,30 0 0 0 73.740234,158.17578 30,30 0 0 0 85.814453,182.18555 30,30 0 0 0 97.880859,158.17578 30,30 0 0 0 85.806641,134.16602 Z"
             style="fill:#ffffff;fill-opacity:1;stroke:#000000;stroke-width:1;stroke-miterlimit:4;stroke-dasharray:none" />
        </g>
      </g>
      <g
         id="g4318">
        <path
           id="path4278"
           d="M 82.785495,257.2365 C 71.98671,245.88809 71.843204,228.40744 82.456991,217.22103 l 3.177869,-3.34932 1.432926,1.04612 c 0.788109,0.57536 2.570336,2.54671 3.960505,4.38076 8.926914,11.77732 7.809727,28.05332 -2.633503,38.36682 l -2.681356,2.64805 z"
           style="fill:#e6e6e6;fill-opacity:1;stroke:none;stroke-width:1;stroke-miterlimit:4;stroke-dasharray:none" />
        <path
           id="circle4211"
           d="m 97.880714,236.96863 a 30,30 0 0 1 -30,30 30,30 0 0 1 -30,-30 30,30 0 0 1 30,-30 30,30 0 0 1 30,30 z"
           style="fill:#ffffff;fill-opacity:1;stroke:#000000;stroke-width:1;stroke-miterlimit:4;stroke-dasharray:none" />
        <path
           id="circle4213"
           d="m 133.74113,236.96863 a 30,30 0 0 1 -30,30 30,30 0 0 1 -30.000003,-30 30,30 0 0 1 30.000003,-30 30,30 0 0 1 30,30 z"
           style="fill:none;fill-opacity:1;stroke:#000000;stroke-width:1;stroke-miterlimit:4;stroke-dasharray:none" />
        <g
           id="text4232"
           style="font-style:normal;font-weight:normal;line-height:0%;font-family:sans-serif;letter-spacing:0px;word-spacing:0px;fill:#000000;fill-opacity:1;stroke:none;stroke-width:1px;stroke-linecap:butt;stroke-linejoin:miter;stroke-opacity:1"
           aria-label="x &amp; y">
          <path
             id="path70"
             style="font-style:normal;font-variant:normal;font-weight:normal;font-stretch:normal;font-size:13.75px;line-height:1.25;font-family:'Fira Mono';-inkscape-font-specification:'Fira Mono'"
             d="m 153.61289,240.45648 1.99375,-3.1075 1.99375,3.1075 h 1.4025 l -2.6675,-3.8775 2.35125,-3.36875 h -1.33375 l -1.69125,2.695 -1.6775,-2.695 h -1.375 l 2.35125,3.42375 -2.6675,3.8225 z" />
          <path
             id="path72"
             style="font-style:normal;font-variant:normal;font-weight:normal;font-stretch:normal;font-size:13.75px;line-height:1.25;font-family:'Fira Mono';-inkscape-font-specification:'Fira Mono'"
             d="m 171.8484,230.84523 c -1.60875,0 -2.59875,1.05875 -2.59875,2.26875 0,0.8525 0.4125,1.69125 1.65,1.98 v 0.0413 c -1.375,0.28875 -2.145,1.22375 -2.145,2.64 0,1.41625 0.92125,2.8325 3.06625,2.8325 1.58125,0 2.43375,-0.7425 2.84625,-1.265 v -3.74 h 1.2375 v -0.92125 h -3.8225 c -0.9625,0 -1.705,-0.72875 -1.705,-1.5675 0,-0.81125 0.48125,-1.4025 1.4575,-1.4025 0.6875,0 1.14125,0.26125 1.6225,0.7975 l 0.6875,-0.6325 c -0.75625,-0.83875 -1.47125,-1.03125 -2.29625,-1.03125 z m 1.76,4.7575 v 3.355 c -0.37125,0.4675 -1.00375,0.715 -1.76,0.715 -1.38875,0 -1.96625,-0.935 -1.96625,-1.93875 0,-0.97625 0.605,-2.13125 2.02125,-2.13125 z" />
          <path
             id="path74"
             style="font-style:normal;font-variant:normal;font-weight:normal;font-stretch:normal;font-size:13.75px;line-height:1.25;font-family:'Fira Mono';-inkscape-font-specification:'Fira Mono'"
             d="m 191.8989,233.21023 h -1.19625 l -2.04875,6.36625 -2.07625,-6.36625 h -1.22375 l 2.51625,7.24625 h 0.385 c -0.37125,1.11375 -0.81125,1.7325 -2.29625,1.99375 l 0.165,0.92125 c 1.925,-0.20625 2.73625,-1.38875 3.245,-2.87375 z" />
        </g>
        <path
           id="circle4521"
           d="M 85.806641,212.95898 A 30,30 0 0 0 73.740234,236.96875 30,30 0 0 0 85.816406,260.97852 30,30 0 0 0 97.880859,236.96875 30,30 0 0 0 85.806641,212.95898 Z"
           style="fill:#cccccc;fill-opacity:1;stroke:#000000;stroke-width:1;stroke-miterlimit:4;stroke-dasharray:none" />
      </g>
      <g
         id="g4326">
        <path
           id="circle4224"
           d="m 97.880714,315.7605 a 30,30 0 0 1 -30,30 30,30 0 0 1 -30,-30 30,30 0 0 1 30,-30 30,30 0 0 1 30,30 z"
           style="fill:#cccccc;fill-opacity:1;stroke:#000000;stroke-width:1;stroke-miterlimit:4;stroke-dasharray:none" />
        <path
           id="circle4226"
           d="m 133.74113,315.7605 a 30,30 0 0 1 -30,30 30,30 0 0 1 -30.000003,-30 30,30 0 0 1 30.000003,-30 30,30 0 0 1 30,30 z"
           style="fill:none;fill-opacity:1;stroke:#000000;stroke-width:1;stroke-miterlimit:4;stroke-dasharray:none" />
        <g
           id="text4236"
           style="font-style:normal;font-weight:normal;line-height:0%;font-family:sans-serif;letter-spacing:0px;word-spacing:0px;fill:#000000;fill-opacity:1;stroke:none;stroke-width:1px;stroke-linecap:butt;stroke-linejoin:miter;stroke-opacity:1"
           aria-label="x &amp; !y">
          <path
             id="path79"
             style="font-style:normal;font-variant:normal;font-weight:normal;font-stretch:normal;font-size:13.75px;line-height:1.25;font-family:'Fira Mono';-inkscape-font-specification:'Fira Mono'"
             d="m 153.61289,319.24835 1.99375,-3.1075 1.99375,3.1075 h 1.4025 l -2.6675,-3.8775 2.35125,-3.36875 h -1.33375 l -1.69125,2.695 -1.6775,-2.695 h -1.375 l 2.35125,3.42375 -2.6675,3.8225 z" />
          <path
             id="path81"
             style="font-style:normal;font-variant:normal;font-weight:normal;font-stretch:normal;font-size:13.75px;line-height:1.25;font-family:'Fira Mono';-inkscape-font-specification:'Fira Mono'"
             d="m 171.8484,309.6371 c -1.60875,0 -2.59875,1.05875 -2.59875,2.26875 0,0.8525 0.4125,1.69125 1.65,1.98 v 0.0412 c -1.375,0.28875 -2.145,1.22375 -2.145,2.64 0,1.41625 0.92125,2.8325 3.06625,2.8325 1.58125,0 2.43375,-0.7425 2.84625,-1.265 v -3.74 h 1.2375 v -0.92125 h -3.8225 c -0.9625,0 -1.705,-0.72875 -1.705,-1.5675 0,-0.81125 0.48125,-1.4025 1.4575,-1.4025 0.6875,0 1.14125,0.26125 1.6225,0.7975 l 0.6875,-0.6325 c -0.75625,-0.83875 -1.47125,-1.03125 -2.29625,-1.03125 z m 1.76,4.7575 v 3.355 c -0.37125,0.4675 -1.00375,0.715 -1.76,0.715 -1.38875,0 -1.96625,-0.935 -1.96625,-1.93875 0,-0.97625 0.605,-2.13125 2.02125,-2.13125 z" />
          <path
             id="path83"
             style="font-style:normal;font-variant:normal;font-weight:normal;font-stretch:normal;font-size:13.75px;line-height:1.25;font-family:'Fira Mono';-inkscape-font-specification:'Fira Mono'"
             d="m 189.24515,309.7746 h -1.2925 l 0.1375,6.3525 h 1.03125 z m -0.6325,7.7825 c -0.5225,0 -0.92125,0.4125 -0.92125,0.92125 0,0.5225 0.39875,0.92125 0.92125,0.92125 0.53625,0 0.92125,-0.39875 0.92125,-0.92125 0,-0.50875 -0.385,-0.92125 -0.92125,-0.92125 z" />
          <path
             id="path85"
             style="font-style:normal;font-variant:normal;font-weight:normal;font-stretch:normal;font-size:13.75px;line-height:1.25;font-family:'Fira Mono';-inkscape-font-specification:'Fira Mono'"
             d="m 200.14353,312.0021 h -1.19625 l -2.04875,6.36625 -2.07625,-6.36625 h -1.22375 l 2.51625,7.24625 h 0.385 c -0.37125,1.11375 -0.81125,1.7325 -2.29625,1.99375 l 0.165,0.92125 c 1.925,-0.20625 2.73625,-1.38875 3.245,-2.87375 z" />
        </g>
        <path
           id="circle4516"
           d="M 85.806641,291.75 A 30,30 0 0 0 73.740234,315.75977 30,30 0 0 0 85.814453,339.76953 30,30 0 0 0 97.880859,315.75977 30,30 0 0 0 85.806641,291.75 Z"
           style="fill:#cccccc;fill-opacity:1;stroke:#000000;stroke-width:1;stroke-miterlimit:4;stroke-dasharray:none" />
      </g>
    </g>
    <g
       transform="translate(-18.310482)"
       id="g4435">
      <g
         id="g4333"
         transform="translate(194.45437)">
        <g
           id="g4335">
          <path
             id="circle4337"
             d="m 97.880714,158.1767 a 30,30 0 0 1 -30,30 30,30 0 0 1 -30,-30 30,30 0 0 1 30,-30 30,30 0 0 1 30,30 z"
             style="fill:#cccccc;fill-opacity:1;stroke:#000000;stroke-width:1;stroke-miterlimit:4;stroke-dasharray:none" />
          <path
             id="circle4339"
             d="m 133.74113,158.1767 a 30,30 0 0 1 -30,30 30,30 0 0 1 -30.000003,-30 30,30 0 0 1 30.000003,-30 30,30 0 0 1 30,30 z"
             style="fill:none;fill-opacity:1;stroke:#000000;stroke-width:1;stroke-miterlimit:4;stroke-dasharray:none" />
          <g
             id="text4341"
             style="font-style:normal;font-weight:normal;line-height:0%;font-family:sans-serif;letter-spacing:0px;word-spacing:0px;fill:#000000;fill-opacity:1;stroke:none;stroke-width:1px;stroke-linecap:butt;stroke-linejoin:miter;stroke-opacity:1"
             aria-label="x">
            <path
               id="path90"
               style="font-style:normal;font-variant:normal;font-weight:normal;font-stretch:normal;font-size:13.75px;line-height:1.25;font-family:'Fira Mono';-inkscape-font-specification:'Fira Mono'"
               d="m 153.61289,161.66455 1.99375,-3.1075 1.99375,3.1075 h 1.4025 l -2.6675,-3.8775 2.35125,-3.36875 h -1.33375 l -1.69125,2.695 -1.6775,-2.695 h -1.375 l 2.35125,3.42375 -2.6675,3.8225 z" />
          </g>
          <path
             id="circle4536"
             transform="translate(-201.51293)"
             d="m 287.32031,134.16602 a 30,30 0 0 0 -12.0664,24.00976 30,30 0 0 0 12.07421,24.00977 30,30 0 0 0 12.06641,-24.00977 30,30 0 0 0 -12.07422,-24.00976 z"
             style="fill:#cccccc;fill-opacity:1;stroke:#000000;stroke-width:1;stroke-miterlimit:4;stroke-dasharray:none" />
        </g>
      </g>
      <g
         id="g4347"
         transform="translate(194.45437)">
        <path
           style="fill:#e6e6e6;fill-opacity:1;stroke:none;stroke-width:1;stroke-miterlimit:4;stroke-dasharray:none"
           d="M 82.785495,257.2365 C 71.98671,245.88809 71.843204,228.40744 82.456991,217.22103 l 3.177869,-3.34932 1.432926,1.04612 c 0.788109,0.57536 2.570336,2.54671 3.960505,4.38076 8.926914,11.77732 7.809727,28.05332 -2.633503,38.36682 l -2.681356,2.64805 z"
           id="path4349" />
        <path
           id="circle4351"
           d="m 97.880714,236.96863 a 30,30 0 0 1 -30,30 30,30 0 0 1 -30,-30 30,30 0 0 1 30,-30 30,30 0 0 1 30,30 z"
           style="fill:#cccccc;fill-opacity:1;stroke:#000000;stroke-width:1;stroke-miterlimit:4;stroke-dasharray:none" />
        <path
           id="circle4353"
           d="m 133.74113,236.96863 a 30,30 0 0 1 -30,30 30,30 0 0 1 -30.000003,-30 30,30 0 0 1 30.000003,-30 30,30 0 0 1 30,30 z"
           style="fill:#cccccc;fill-opacity:1;stroke:#000000;stroke-width:1;stroke-miterlimit:4;stroke-dasharray:none" />
        <g
           id="text4355"
           style="font-style:normal;font-weight:normal;line-height:0%;font-family:sans-serif;letter-spacing:0px;word-spacing:0px;fill:#000000;fill-opacity:1;stroke:none;stroke-width:1px;stroke-linecap:butt;stroke-linejoin:miter;stroke-opacity:1"
           aria-label="xor(x, y)">
          <path
             id="path95"
             style="font-style:normal;font-variant:normal;font-weight:normal;font-stretch:normal;font-size:13.75px;line-height:1.25;font-family:'Fira Mono';-inkscape-font-specification:'Fira Mono'"
             d="m 153.61289,240.45648 1.99375,-3.1075 1.99375,3.1075 h 1.4025 l -2.6675,-3.8775 2.35125,-3.36875 h -1.33375 l -1.69125,2.695 -1.6775,-2.695 h -1.375 l 2.35125,3.42375 -2.6675,3.8225 z" />
          <path
             id="path97"
             style="font-style:normal;font-variant:normal;font-weight:normal;font-stretch:normal;font-size:13.75px;line-height:1.25;font-family:'Fira Mono';-inkscape-font-specification:'Fira Mono'"
             d="m 163.90627,233.05898 c -2.035,0 -3.135,1.55375 -3.135,3.78125 0,2.2825 1.08625,3.7675 3.12125,3.7675 2.02125,0 3.12125,-1.55375 3.12125,-3.78125 0,-2.2825 -1.0725,-3.7675 -3.1075,-3.7675 z m 0,0.94875 c 1.2375,0 1.85625,0.9075 1.85625,2.81875 0,1.93875 -0.61875,2.8325 -1.87,2.8325 -1.25125,0 -1.87,-0.89375 -1.87,-2.81875 0,-1.925 0.6325,-2.8325 1.88375,-2.8325 z" />
          <path
             id="path99"
             style="font-style:normal;font-variant:normal;font-weight:normal;font-stretch:normal;font-size:13.75px;line-height:1.25;font-family:'Fira Mono';-inkscape-font-specification:'Fira Mono'"
             d="m 174.28215,233.05898 c -1.30625,0 -2.04875,0.6875 -2.59875,1.87 l -0.22,-1.71875 h -2.0075 v 0.89375 h 1.14125 v 5.45875 h -1.14125 v 0.89375 h 3.7675 v -0.89375 h -1.47125 v -3.0525 c 0.4675,-1.595 1.265,-2.3925 2.37875,-2.3925 h 0.0687 v 1.55375 h 0.935 l 0.165,-2.46125 c -0.31625,-0.0825 -0.61875,-0.15125 -1.0175,-0.15125 z" />
          <path
             id="path101"
             style="font-style:normal;font-variant:normal;font-weight:normal;font-stretch:normal;font-size:13.75px;line-height:1.25;font-family:'Fira Mono';-inkscape-font-specification:'Fira Mono'"
             d="m 179.18552,235.64398 c 0,-2.8875 0.94875,-4.345 2.92875,-6.105 l -0.59125,-0.6325 c -2.24125,1.82875 -3.5475,3.6025 -3.5475,6.7375 0,3.135 1.30625,4.90875 3.5475,6.7375 l 0.59125,-0.6325 c -1.9525,-1.74625 -2.92875,-3.23125 -2.92875,-6.105 z" />
          <path
             id="path103"
             style="font-style:normal;font-variant:normal;font-weight:normal;font-stretch:normal;font-size:13.75px;line-height:1.25;font-family:'Fira Mono';-inkscape-font-specification:'Fira Mono'"
             d="m 186.5914,240.45648 1.99375,-3.1075 1.99375,3.1075 h 1.4025 l -2.6675,-3.8775 2.35125,-3.36875 h -1.33375 l -1.69125,2.695 -1.6775,-2.695 h -1.375 l 2.35125,3.42375 -2.6675,3.8225 z" />
          <path
             id="path105"
             style="font-style:normal;font-variant:normal;font-weight:normal;font-stretch:normal;font-size:13.75px;line-height:1.25;font-family:'Fira Mono';-inkscape-font-specification:'Fira Mono'"
             d="m 196.87103,238.18773 c -0.61875,0 -1.1,0.495 -1.1,1.11375 0,0.3575 0.17875,0.715 0.44,0.9075 l -0.64625,2.70875 h 1.045 l 1.11375,-2.54375 c 0.1925,-0.42625 0.26125,-0.7425 0.26125,-1.08625 0,-0.605 -0.48125,-1.1 -1.11375,-1.1 z" />
          <path
             id="path107"
             style="font-style:normal;font-variant:normal;font-weight:normal;font-stretch:normal;font-size:13.75px;line-height:1.25;font-family:'Fira Mono';-inkscape-font-specification:'Fira Mono'"
             d="m 216.63279,233.21023 h -1.19625 l -2.04875,6.36625 -2.07625,-6.36625 h -1.22375 l 2.51625,7.24625 h 0.385 c -0.37125,1.11375 -0.81125,1.7325 -2.29625,1.99375 l 0.165,0.92125 c 1.925,-0.20625 2.73625,-1.38875 3.245,-2.87375 z" />
          <path
             id="path109"
             style="font-style:normal;font-variant:normal;font-weight:normal;font-stretch:normal;font-size:13.75px;line-height:1.25;font-family:'Fira Mono';-inkscape-font-specification:'Fira Mono'"
             d="m 222.80117,235.64398 c 0,2.87375 -0.97625,4.35875 -2.92875,6.105 l 0.59125,0.6325 c 2.24125,-1.82875 3.5475,-3.6025 3.5475,-6.7375 0,-3.135 -1.30625,-4.90875 -3.5475,-6.7375 l -0.59125,0.6325 c 1.98,1.76 2.92875,3.2175 2.92875,6.105 z" />
        </g>
        <path
           id="circle4526"
           transform="translate(-201.51293)"
           d="m 287.31836,212.95898 a 30,30 0 0 0 -12.06445,24.00977 30,30 0 0 0 12.07421,24.00977 30,30 0 0 0 12.06641,-24.00977 30,30 0 0 0 -12.07617,-24.00977 z"
           style="fill:#ffffff;fill-opacity:1;stroke:#000000;stroke-width:1;stroke-miterlimit:4;stroke-dasharray:none" />
      </g>
      <g
         id="g4361"
         transform="translate(194.45437)">
        <path
           id="circle4363"
           d="m 97.880714,315.7605 a 30,30 0 0 1 -30,30 30,30 0 0 1 -30,-30 30,30 0 0 1 30,-30 30,30 0 0 1 30,30 z"
           style="fill:#ffffff;fill-opacity:1;stroke:#000000;stroke-width:1;stroke-miterlimit:4;stroke-dasharray:none" />
        <path
           id="circle4365"
           d="m 133.74113,315.7605 a 30,30 0 0 1 -30,30 30,30 0 0 1 -30.000003,-30 30,30 0 0 1 30.000003,-30 30,30 0 0 1 30,30 z"
           style="fill:#cccccc;fill-opacity:1;stroke:#000000;stroke-width:1;stroke-miterlimit:4;stroke-dasharray:none" />
        <g
           id="text4367"
           style="font-style:normal;font-weight:normal;line-height:0%;font-family:sans-serif;letter-spacing:0px;word-spacing:0px;fill:#000000;fill-opacity:1;stroke:none;stroke-width:1px;stroke-linecap:butt;stroke-linejoin:miter;stroke-opacity:1"
           aria-label="y">
          <path
             id="path114"
             style="font-style:normal;font-variant:normal;font-weight:normal;font-stretch:normal;font-size:13.75px;line-height:1.25;font-family:'Fira Mono';-inkscape-font-specification:'Fira Mono'"
             d="m 158.92039,312.0021 h -1.19625 l -2.04875,6.36625 -2.07625,-6.36625 h -1.22375 l 2.51625,7.24625 h 0.385 c -0.37125,1.11375 -0.81125,1.7325 -2.29625,1.99375 l 0.165,0.92125 c 1.925,-0.20625 2.73625,-1.38875 3.245,-2.87375 z" />
        </g>
        <path
           id="circle4511"
           transform="translate(-201.51293)"
           d="m 287.31836,291.75 a 30,30 0 0 0 -12.06445,24.00977 30,30 0 0 0 12.07421,24.00976 30,30 0 0 0 12.06641,-24.00976 A 30,30 0 0 0 287.31836,291.75 Z"
           style="fill:#cccccc;fill-opacity:1;stroke:#000000;stroke-width:1;stroke-miterlimit:4;stroke-dasharray:none" />
      </g>
    </g>
    <g
       transform="translate(-31.31476)"
       id="g4457">
      <g
         transform="translate(403.0258)"
         id="g4373">
        <g
           id="g4375">
          <path
             id="circle4377"
             d="m 97.880714,158.1767 a 30,30 0 0 1 -30,30 30,30 0 0 1 -30,-30 30,30 0 0 1 30,-30 30,30 0 0 1 30,30 z"
             style="fill:#cccccc;fill-opacity:1;stroke:#000000;stroke-width:1;stroke-miterlimit:4;stroke-dasharray:none" />
          <path
             id="circle4379"
             d="m 133.74113,158.1767 a 30,30 0 0 1 -30,30 30,30 0 0 1 -30.000003,-30 30,30 0 0 1 30.000003,-30 30,30 0 0 1 30,30 z"
             style="fill:#cccccc;fill-opacity:1;stroke:#000000;stroke-width:1;stroke-miterlimit:4;stroke-dasharray:none" />
          <g
             id="text4381"
             style="font-style:normal;font-weight:normal;line-height:0%;font-family:sans-serif;letter-spacing:0px;word-spacing:0px;fill:#000000;fill-opacity:1;stroke:none;stroke-width:1px;stroke-linecap:butt;stroke-linejoin:miter;stroke-opacity:1"
             aria-label="x | y">
            <path
               id="path119"
               style="font-style:normal;font-variant:normal;font-weight:normal;font-stretch:normal;font-size:13.75px;line-height:1.25;font-family:'Fira Mono';-inkscape-font-specification:'Fira Mono'"
               d="m 153.61289,161.66455 1.99375,-3.1075 1.99375,3.1075 h 1.4025 l -2.6675,-3.8775 2.35125,-3.36875 h -1.33375 l -1.69125,2.695 -1.6775,-2.695 h -1.375 l 2.35125,3.42375 -2.6675,3.8225 z" />
            <path
               id="path121"
               style="font-style:normal;font-variant:normal;font-weight:normal;font-stretch:normal;font-size:13.75px;line-height:1.25;font-family:'Fira Mono';-inkscape-font-specification:'Fira Mono'"
               d="m 172.6459,150.5683 h -1.03125 v 12.49875 h 1.03125 z" />
            <path
               id="path123"
               style="font-style:normal;font-variant:normal;font-weight:normal;font-stretch:normal;font-size:13.75px;line-height:1.25;font-family:'Fira Mono';-inkscape-font-specification:'Fira Mono'"
               d="m 191.8989,154.4183 h -1.19625 l -2.04875,6.36625 -2.07625,-6.36625 h -1.22375 l 2.51625,7.24625 h 0.385 c -0.37125,1.11375 -0.81125,1.7325 -2.29625,1.99375 l 0.165,0.92125 c 1.925,-0.20625 2.73625,-1.38875 3.245,-2.87375 z" />
          </g>
          <path
             id="circle4541"
             transform="translate(-403.0258)"
             d="m 488.83398,134.16602 a 30,30 0 0 0 -12.0664,24.00976 30,30 0 0 0 12.07226,24.00977 30,30 0 0 0 12.06641,-24.00977 30,30 0 0 0 -12.07227,-24.00976 z"
             style="fill:#cccccc;fill-opacity:1;stroke:#000000;stroke-width:1;stroke-miterlimit:4;stroke-dasharray:none" />
        </g>
      </g>
    </g>
  </g>
</svg>
