<?xml version="1.0" encoding="UTF-8" standalone="no"?>
<!-- Created with Inkscape (http://www.inkscape.org/) -->

<svg
   xmlns:dc="http://purl.org/dc/elements/1.1/"
   xmlns:cc="http://creativecommons.org/ns#"
   xmlns:rdf="http://www.w3.org/1999/02/22-rdf-syntax-ns#"
   xmlns:svg="http://www.w3.org/2000/svg"
   xmlns="http://www.w3.org/2000/svg"
   xmlns:sodipodi="http://sodipodi.sourceforge.net/DTD/sodipodi-0.dtd"
   xmlns:inkscape="http://www.inkscape.org/namespaces/inkscape"
   sodipodi:docname="join-setup-otp.svg"
   inkscape:version="0.92.3 (2405546, 2018-03-11)"
   version="1.1"
   id="svg2"
   viewBox="0 0 137.76877 100.44921"
   height="28.348999mm"
   width="38.881409mm">
  <defs
     id="defs4">
    <inkscape:perspective
       sodipodi:type="inkscape:persp3d"
       inkscape:vp_x="0 : 127.00844 : 1"
       inkscape:vp_y="0 : 1000.0001 : 0"
       inkscape:vp_z="544.62366 : 127.00844 : 1"
       inkscape:persp3d-origin="272.31183 : 84.672292 : 1"
       id="perspective4714" />
  </defs>
  <sodipodi:namedview
     inkscape:guide-bbox="true"
     showguides="true"
     inkscape:window-maximized="1"
     inkscape:window-y="32"
     inkscape:window-x="0"
     inkscape:window-height="832"
     inkscape:window-width="1600"
     fit-margin-bottom="5"
     fit-margin-right="5"
     fit-margin-left="5"
     fit-margin-top="5"
     showgrid="false"
     inkscape:current-layer="g4643"
     inkscape:document-units="px"
     inkscape:cy="54.909774"
     inkscape:cx="134.91185"
     inkscape:zoom="3.6203867"
     inkscape:pageshadow="2"
     inkscape:pageopacity="0.0"
     borderopacity="1.0"
     bordercolor="#666666"
     pagecolor="#ffffff"
     id="base" />
  <metadata
     id="metadata7">
    <rdf:RDF>
      <cc:Work
         rdf:about="">
        <dc:format>image/svg+xml</dc:format>
        <dc:type
           rdf:resource="http://purl.org/dc/dcmitype/StillImage" />
        <dc:title></dc:title>
      </cc:Work>
    </rdf:RDF>
  </metadata>
  <g
     inkscape:label="Layer 1"
     inkscape:groupmode="layer"
     id="layer1"
     transform="translate(-269.61652,-266.058)" />
  <g
     id="g4643"
     transform="translate(-211.86641,-147.30876)">
    <g
       id="g4747">
      <path
         style="fill:#8fd091;fill-opacity:1;stroke:#000000;stroke-width:1.0629921;stroke-miterlimit:4;stroke-dasharray:none"
         d="m 230.11444,177.23454 h 16.92522 v 17.42513 h -16.92522 z"
         id="use4617" />
      <path
         style="fill:#cabddc;fill-opacity:1;stroke:#000000;stroke-width:1.0629921;stroke-miterlimit:4;stroke-dasharray:none"
         d="m 230.11444,194.65967 h 16.92522 v 17.42513 h -16.92522 z"
         id="use4619" />
      <path
         style="fill:#fecb98;fill-opacity:1;stroke:#000000;stroke-width:1.0629921;stroke-miterlimit:4;stroke-dasharray:none"
         d="m 230.11444,212.08481 h 16.92522 v 17.42513 h -16.92522 z"
         id="use4621" />
      <path
         style="fill:#cccccc;fill-opacity:1;stroke:#000000;stroke-width:1.0629921;stroke-miterlimit:4;stroke-dasharray:none"
         d="m 246.91614,177.23454 h 25.87726 v 17.42513 h -25.87726 z"
         id="use4625" />
      <path
         style="fill:#cccccc;fill-opacity:1;stroke:#000000;stroke-width:1.0629921;stroke-miterlimit:4;stroke-dasharray:none"
         d="m 246.91614,212.08481 h 25.87726 v 17.42513 h -25.87726 z"
         id="use4629" />
      <path
         style="fill:#cccccc;fill-opacity:1;stroke:#000000;stroke-width:1.0629921;stroke-miterlimit:4;stroke-dasharray:none"
         d="M 246.91614,194.65967 H 272.7934 V 212.0848 H 246.91614 Z"
         id="use4627" />
      <g
         aria-label="1"
         style="font-style:normal;font-weight:normal;line-height:0%;font-family:sans-serif;letter-spacing:0px;word-spacing:0px;fill:#000000;fill-opacity:1;stroke:none;stroke-width:1px;stroke-linecap:butt;stroke-linejoin:miter;stroke-opacity:1"
         id="text4673">
        <path
           d="m 240.28299,190.41183 h -1.13525 v -7.52563 l -2.27662,0.83618 v -1.02539 l 3.23487,-1.2146 h 0.177 z"
           style="font-style:normal;font-variant:normal;font-weight:normal;font-stretch:normal;font-size:12.5px;line-height:1.25;font-family:Roboto;-inkscape-font-specification:Roboto"
           id="path57" />
      </g>
      <g
         aria-label="x1"
         style="font-style:normal;font-weight:normal;line-height:0%;font-family:sans-serif;letter-spacing:0px;word-spacing:0px;fill:#000000;fill-opacity:1;stroke:none;stroke-width:1px;stroke-linecap:butt;stroke-linejoin:miter;stroke-opacity:1"
         id="text4677">
        <path
           d="m 257.4744,186.21872 1.46484,-2.41089 h 1.31836 l -2.16065,3.26538 2.22779,3.33862 h -1.30615 l -1.52588,-2.47192 -1.52588,2.47192 h -1.31226 l 2.22778,-3.33862 -2.16064,-3.26538 h 1.30615 z"
           style="font-style:normal;font-variant:normal;font-weight:normal;font-stretch:normal;font-size:12.5px;line-height:1.25;font-family:Roboto;-inkscape-font-specification:Roboto"
           id="path60" />
        <path
           d="m 265.05496,190.41183 h -1.13525 v -7.52563 l -2.27661,0.83618 v -1.02539 l 3.23486,-1.2146 h 0.177 z"
           style="font-style:normal;font-variant:normal;font-weight:normal;font-stretch:normal;font-size:12.5px;line-height:1.25;font-family:Roboto;-inkscape-font-specification:Roboto"
           id="path62" />
      </g>
      <g
         aria-label="2"
         style="font-style:normal;font-weight:normal;line-height:0%;font-family:sans-serif;letter-spacing:0px;word-spacing:0px;fill:#000000;fill-opacity:1;stroke:none;stroke-width:1px;stroke-linecap:butt;stroke-linejoin:miter;stroke-opacity:1"
         id="text4681">
        <path
           d="m 241.57388,207.87663 h -5.82275 v -0.81176 l 3.07617,-3.41797 q 0.68359,-0.77515 0.93994,-1.25733 0.26245,-0.48828 0.26245,-1.00708 0,-0.6958 -0.42114,-1.14136 -0.42114,-0.44555 -1.12305,-0.44555 -0.84228,0 -1.31225,0.48218 -0.46387,0.47607 -0.46387,1.33056 h -1.12915 q 0,-1.2268 0.78735,-1.98364 0.79346,-0.75684 2.11792,-0.75684 1.23902,0 1.95923,0.65308 0.72022,0.64697 0.72022,1.72729 0,1.31226 -1.67237,3.125 l -2.38037,2.58179 h 4.46167 z"
           style="font-style:normal;font-variant:normal;font-weight:normal;font-stretch:normal;font-size:12.5px;line-height:1.25;font-family:Roboto;-inkscape-font-specification:Roboto"
           id="path65" />
      </g>
      <g
         aria-label="3"
         style="font-style:normal;font-weight:normal;line-height:0%;font-family:sans-serif;letter-spacing:0px;word-spacing:0px;fill:#000000;fill-opacity:1;stroke:none;stroke-width:1px;stroke-linecap:butt;stroke-linejoin:miter;stroke-opacity:1"
         id="text4689">
        <path
           d="m 237.56693,220.24806 h 0.84838 q 0.79956,-0.0122 1.25733,-0.42114 0.45776,-0.40894 0.45776,-1.10474 0,-1.5625 -1.55639,-1.5625 -0.73243,0 -1.17188,0.42115 -0.43335,0.41503 -0.43335,1.10473 h -1.12915 q 0,-1.05591 0.76904,-1.75171 0.77515,-0.7019 1.96534,-0.7019 1.25732,0 1.97143,0.66528 0.71411,0.66529 0.71411,1.84937 0,0.57983 -0.37842,1.12304 -0.37231,0.54322 -1.01928,0.81177 0.73242,0.23194 1.12915,0.76904 0.40283,0.53711 0.40283,1.31226 0,1.19629 -0.78125,1.89819 -0.78125,0.70191 -2.03247,0.70191 -1.25122,0 -2.03858,-0.67749 -0.78125,-0.67749 -0.78125,-1.78833 h 1.13526 q 0,0.7019 0.45776,1.12304 0.45777,0.42115 1.22681,0.42115 0.81787,0 1.25122,-0.42725 0.43335,-0.42724 0.43335,-1.22681 0,-0.77514 -0.47608,-1.19018 -0.47607,-0.41504 -1.37329,-0.42725 h -0.84838 z"
           style="font-style:normal;font-variant:normal;font-weight:normal;font-stretch:normal;font-size:12.5px;line-height:1.25;font-family:Roboto;-inkscape-font-specification:Roboto"
           id="path68" />
      </g>
      <g
         aria-label="x2"
         style="font-style:normal;font-weight:normal;line-height:0%;font-family:sans-serif;letter-spacing:0px;word-spacing:0px;fill:#000000;fill-opacity:1;stroke:none;stroke-width:1px;stroke-linecap:butt;stroke-linejoin:miter;stroke-opacity:1"
         id="text3377">
        <path
           d="m 257.4744,203.68352 1.46484,-2.41089 h 1.31836 l -2.16065,3.26538 2.22779,3.33862 h -1.30615 l -1.52588,-2.47192 -1.52588,2.47192 h -1.31226 l 2.22778,-3.33862 -2.16064,-3.26538 h 1.30615 z"
           style="font-style:normal;font-variant:normal;font-weight:normal;font-stretch:normal;font-size:12.5px;line-height:1.25;font-family:Roboto;-inkscape-font-specification:Roboto"
           id="path71" />
        <path
           d="m 267.16678,207.87663 h -5.82276 v -0.81176 l 3.07618,-3.41797 q 0.68359,-0.77515 0.93994,-1.25733 0.26245,-0.48828 0.26245,-1.00708 0,-0.6958 -0.42114,-1.14136 -0.42115,-0.44555 -1.12305,-0.44555 -0.84229,0 -1.31226,0.48218 -0.46386,0.47607 -0.46386,1.33056 h -1.12915 q 0,-1.2268 0.78735,-1.98364 0.79346,-0.75684 2.11792,-0.75684 1.23901,0 1.95923,0.65308 0.72021,0.64697 0.72021,1.72729 0,1.31226 -1.67236,3.125 l -2.38037,2.58179 h 4.46167 z"
           style="font-style:normal;font-variant:normal;font-weight:normal;font-stretch:normal;font-size:12.5px;line-height:1.25;font-family:Roboto;-inkscape-font-specification:Roboto"
           id="path73" />
      </g>
      <g
         aria-label="x3"
         style="font-style:normal;font-weight:normal;line-height:0%;font-family:sans-serif;letter-spacing:0px;word-spacing:0px;fill:#000000;fill-opacity:1;stroke:none;stroke-width:1px;stroke-linecap:butt;stroke-linejoin:miter;stroke-opacity:1"
         id="text3381">
        <path
           d="m 257.4744,221.04762 1.46484,-2.41089 h 1.31836 l -2.16065,3.26538 2.22779,3.33863 h -1.30615 l -1.52588,-2.47193 -1.52588,2.47193 h -1.31226 l 2.22778,-3.33863 -2.16064,-3.26538 h 1.30615 z"
           style="font-style:normal;font-variant:normal;font-weight:normal;font-stretch:normal;font-size:12.5px;line-height:1.25;font-family:Roboto;-inkscape-font-specification:Roboto"
           id="path76" />
        <path
           d="m 262.98587,220.24806 h 0.84839 q 0.79956,-0.0122 1.25732,-0.42114 0.45777,-0.40894 0.45777,-1.10474 0,-1.5625 -1.5564,-1.5625 -0.73242,0 -1.17187,0.42115 -0.43335,0.41503 -0.43335,1.10473 h -1.12915 q 0,-1.05591 0.76904,-1.75171 0.77514,-0.7019 1.96533,-0.7019 1.25732,0 1.97144,0.66528 0.71411,0.66529 0.71411,1.84937 0,0.57983 -0.37842,1.12304 -0.37232,0.54322 -1.01929,0.81177 0.73242,0.23194 1.12915,0.76904 0.40283,0.53711 0.40283,1.31226 0,1.19629 -0.78125,1.89819 -0.78125,0.70191 -2.03247,0.70191 -1.25122,0 -2.03857,-0.67749 -0.78125,-0.67749 -0.78125,-1.78833 h 1.13525 q 0,0.7019 0.45777,1.12304 0.45776,0.42115 1.2268,0.42115 0.81788,0 1.25122,-0.42725 0.43335,-0.42724 0.43335,-1.22681 0,-0.77514 -0.47607,-1.19018 -0.47607,-0.41504 -1.37329,-0.42725 h -0.84839 z"
           style="font-style:normal;font-variant:normal;font-weight:normal;font-stretch:normal;font-size:12.5px;line-height:1.25;font-family:Roboto;-inkscape-font-specification:Roboto"
           id="path78" />
      </g>
    </g>
    <g
       aria-label="x"
       style="font-style:normal;font-weight:normal;line-height:0%;font-family:sans-serif;letter-spacing:0px;word-spacing:0px;fill:#000000;fill-opacity:1;stroke:none;stroke-width:1px;stroke-linecap:butt;stroke-linejoin:miter;stroke-opacity:1"
       id="text4697">
      <path
         d="m 251.43867,167.43619 1.46485,-2.41089 h 1.31836 l -2.16065,3.26538 2.22779,3.33862 h -1.30616 l -1.52587,-2.47192 -1.52588,2.47192 h -1.31226 l 2.22778,-3.33862 -2.16064,-3.26538 h 1.30615 z"
         style="font-style:normal;font-variant:normal;font-weight:normal;font-stretch:normal;font-size:12.5px;line-height:1.25;font-family:Roboto;-inkscape-font-specification:Roboto"
         id="path81" />
    </g>
    <g
       id="g4767"
       transform="translate(58.59375,0)">
      <path
         style="fill:#8fd091;fill-opacity:1;stroke:#000000;stroke-width:1.0629921;stroke-miterlimit:4;stroke-dasharray:none"
         d="m 230.11444,177.23454 h 16.92522 v 17.42513 h -16.92522 z"
         id="rect4769" />
      <path
         style="fill:#cabddc;fill-opacity:1;stroke:#000000;stroke-width:1.0629921;stroke-miterlimit:4;stroke-dasharray:none"
         d="m 230.11444,194.65967 h 16.92522 v 17.42513 h -16.92522 z"
         id="rect4771" />
      <path
         style="fill:#fecb98;fill-opacity:1;stroke:#000000;stroke-width:1.0629921;stroke-miterlimit:4;stroke-dasharray:none"
         d="m 230.11444,212.08481 h 16.92522 v 17.42513 h -16.92522 z"
         id="rect4773" />
      <path
         style="fill:#cccccc;fill-opacity:1;stroke:#000000;stroke-width:1.0629921;stroke-miterlimit:4;stroke-dasharray:none"
         d="m 246.91614,177.23454 h 25.87726 v 17.42513 h -25.87726 z"
         id="rect4775" />
      <path
         style="fill:#cccccc;fill-opacity:1;stroke:#000000;stroke-width:1.0629921;stroke-miterlimit:4;stroke-dasharray:none"
         d="m 246.91614,212.08481 h 25.87726 v 17.42513 h -25.87726 z"
         id="rect4777" />
      <path
         style="fill:#cccccc;fill-opacity:1;stroke:#000000;stroke-width:1.0629921;stroke-miterlimit:4;stroke-dasharray:none"
         d="M 246.91614,194.65967 H 272.7934 V 212.0848 H 246.91614 Z"
         id="rect4779" />
      <g
         aria-label="1"
         style="font-style:normal;font-weight:normal;line-height:0%;font-family:sans-serif;letter-spacing:0px;word-spacing:0px;fill:#000000;fill-opacity:1;stroke:none;stroke-width:1px;stroke-linecap:butt;stroke-linejoin:miter;stroke-opacity:1"
         id="text4781">
        <path
           d="m 240.28299,190.41183 h -1.13525 v -7.52563 l -2.27662,0.83618 v -1.02539 l 3.23487,-1.2146 h 0.177 z"
           style="font-style:normal;font-variant:normal;font-weight:normal;font-stretch:normal;font-size:12.5px;line-height:1.25;font-family:Roboto;-inkscape-font-specification:Roboto"
           id="path90" />
      </g>
      <g
         aria-label="y1"
         style="font-style:normal;font-weight:normal;line-height:0%;font-family:sans-serif;letter-spacing:0px;word-spacing:0px;fill:#000000;fill-opacity:1;stroke:none;stroke-width:1px;stroke-linecap:butt;stroke-linejoin:miter;stroke-opacity:1"
         id="text4785">
        <path
           d="m 257.41946,188.75778 1.53809,-4.94995 h 1.2085 l -2.65503,7.62329 q -0.61646,1.64795 -1.95923,1.64795 l -0.21362,-0.0183 -0.42115,-0.0793 v -0.91552 l 0.30518,0.0244 q 0.57373,0 0.89111,-0.23193 0.32349,-0.23194 0.53101,-0.84839 l 0.25024,-0.67139 -2.35596,-6.53076 h 1.23291 z"
           style="font-style:normal;font-variant:normal;font-weight:normal;font-stretch:normal;font-size:12.5px;line-height:1.25;font-family:Roboto;-inkscape-font-specification:Roboto"
           id="path93" />
        <path
           d="m 264.76199,190.41183 h -1.13525 v -7.52563 l -2.27661,0.83618 v -1.02539 l 3.23486,-1.2146 h 0.177 z"
           style="font-style:normal;font-variant:normal;font-weight:normal;font-stretch:normal;font-size:12.5px;line-height:1.25;font-family:Roboto;-inkscape-font-specification:Roboto"
           id="path95" />
      </g>
      <g
         aria-label="2"
         style="font-style:normal;font-weight:normal;line-height:0%;font-family:sans-serif;letter-spacing:0px;word-spacing:0px;fill:#000000;fill-opacity:1;stroke:none;stroke-width:1px;stroke-linecap:butt;stroke-linejoin:miter;stroke-opacity:1"
         id="text4789">
        <path
           d="m 241.57388,207.87663 h -5.82275 v -0.81176 l 3.07617,-3.41797 q 0.68359,-0.77515 0.93994,-1.25733 0.26245,-0.48828 0.26245,-1.00708 0,-0.6958 -0.42114,-1.14136 -0.42114,-0.44555 -1.12305,-0.44555 -0.84228,0 -1.31225,0.48218 -0.46387,0.47607 -0.46387,1.33056 h -1.12915 q 0,-1.2268 0.78735,-1.98364 0.79346,-0.75684 2.11792,-0.75684 1.23902,0 1.95923,0.65308 0.72022,0.64697 0.72022,1.72729 0,1.31226 -1.67237,3.125 l -2.38037,2.58179 h 4.46167 z"
           style="font-style:normal;font-variant:normal;font-weight:normal;font-stretch:normal;font-size:12.5px;line-height:1.25;font-family:Roboto;-inkscape-font-specification:Roboto"
           id="path98" />
      </g>
      <g
         aria-label="3"
         style="font-style:normal;font-weight:normal;line-height:0%;font-family:sans-serif;letter-spacing:0px;word-spacing:0px;fill:#000000;fill-opacity:1;stroke:none;stroke-width:1px;stroke-linecap:butt;stroke-linejoin:miter;stroke-opacity:1"
         id="text4797">
        <path
           d="m 237.56693,220.24806 h 0.84838 q 0.79956,-0.0122 1.25733,-0.42114 0.45776,-0.40894 0.45776,-1.10474 0,-1.5625 -1.55639,-1.5625 -0.73243,0 -1.17188,0.42115 -0.43335,0.41503 -0.43335,1.10473 h -1.12915 q 0,-1.05591 0.76904,-1.75171 0.77515,-0.7019 1.96534,-0.7019 1.25732,0 1.97143,0.66528 0.71411,0.66529 0.71411,1.84937 0,0.57983 -0.37842,1.12304 -0.37231,0.54322 -1.01928,0.81177 0.73242,0.23194 1.12915,0.76904 0.40283,0.53711 0.40283,1.31226 0,1.19629 -0.78125,1.89819 -0.78125,0.70191 -2.03247,0.70191 -1.25122,0 -2.03858,-0.67749 -0.78125,-0.67749 -0.78125,-1.78833 h 1.13526 q 0,0.7019 0.45776,1.12304 0.45777,0.42115 1.22681,0.42115 0.81787,0 1.25122,-0.42725 0.43335,-0.42724 0.43335,-1.22681 0,-0.77514 -0.47608,-1.19018 -0.47607,-0.41504 -1.37329,-0.42725 h -0.84838 z"
           style="font-style:normal;font-variant:normal;font-weight:normal;font-stretch:normal;font-size:12.5px;line-height:1.25;font-family:Roboto;-inkscape-font-specification:Roboto"
           id="path101" />
      </g>
      <g
         aria-label="y2"
         style="font-style:normal;font-weight:normal;line-height:0%;font-family:sans-serif;letter-spacing:0px;word-spacing:0px;fill:#000000;fill-opacity:1;stroke:none;stroke-width:1px;stroke-linecap:butt;stroke-linejoin:miter;stroke-opacity:1"
         id="text3401">
        <path
           d="m 257.41946,206.18291 1.53809,-4.94995 h 1.2085 l -2.65503,7.62329 q -0.61646,1.64795 -1.95923,1.64795 l -0.21362,-0.0183 -0.42115,-0.0794 v -0.91553 l 0.30518,0.0244 q 0.57373,0 0.89111,-0.23194 0.32349,-0.23193 0.53101,-0.84839 l 0.25024,-0.67138 -2.35596,-6.53076 h 1.23291 z"
           style="font-style:normal;font-variant:normal;font-weight:normal;font-stretch:normal;font-size:12.5px;line-height:1.25;font-family:Roboto;-inkscape-font-specification:Roboto"
           id="path104" />
        <path
           d="m 266.87381,207.83696 h -5.82275 v -0.81177 l 3.07617,-3.41797 q 0.68359,-0.77514 0.93994,-1.25732 0.26245,-0.48828 0.26245,-1.00708 0,-0.6958 -0.42114,-1.14136 -0.42114,-0.44555 -1.12305,-0.44555 -0.84228,0 -1.31225,0.48217 -0.46387,0.47608 -0.46387,1.33057 h -1.12915 q 0,-1.22681 0.78735,-1.98364 0.79346,-0.75684 2.11792,-0.75684 1.23901,0 1.95923,0.65308 0.72021,0.64697 0.72021,1.72729 0,1.31226 -1.67236,3.125 l -2.38037,2.58179 h 4.46167 z"
           style="font-style:normal;font-variant:normal;font-weight:normal;font-stretch:normal;font-size:12.5px;line-height:1.25;font-family:Roboto;-inkscape-font-specification:Roboto"
           id="path106" />
      </g>
      <g
         aria-label="y3"
         style="font-style:normal;font-weight:normal;line-height:0%;font-family:sans-serif;letter-spacing:0px;word-spacing:0px;fill:#000000;fill-opacity:1;stroke:none;stroke-width:1px;stroke-linecap:butt;stroke-linejoin:miter;stroke-opacity:1"
         id="text3405">
        <path
           d="m 257.41946,223.60805 1.53809,-4.94995 h 1.2085 l -2.65503,7.62329 q -0.61646,1.64795 -1.95923,1.64795 l -0.21362,-0.0183 -0.42115,-0.0794 v -0.91553 l 0.30518,0.0244 q 0.57373,0 0.89111,-0.23194 0.32349,-0.23193 0.53101,-0.84839 l 0.25024,-0.67138 -2.35596,-6.53076 h 1.23291 z"
           style="font-style:normal;font-variant:normal;font-weight:normal;font-stretch:normal;font-size:12.5px;line-height:1.25;font-family:Roboto;-inkscape-font-specification:Roboto"
           id="path109" />
        <path
           d="m 262.6929,220.26942 h 0.84839 q 0.79956,-0.0122 1.25732,-0.42114 0.45777,-0.40893 0.45777,-1.10473 0,-1.5625 -1.5564,-1.5625 -0.73242,0 -1.17187,0.42114 -0.43335,0.41504 -0.43335,1.10473 h -1.12915 q 0,-1.0559 0.76904,-1.7517 0.77515,-0.70191 1.96533,-0.70191 1.25733,0 1.97144,0.66528 0.71411,0.66529 0.71411,1.84937 0,0.57983 -0.37842,1.12305 -0.37231,0.54321 -1.01929,0.81176 0.73243,0.23194 1.12915,0.76905 0.40284,0.53711 0.40284,1.31225 0,1.19629 -0.78125,1.8982 -0.78125,0.7019 -2.03247,0.7019 -1.25123,0 -2.03858,-0.67749 -0.78125,-0.67749 -0.78125,-1.78833 h 1.13525 q 0,0.7019 0.45777,1.12305 0.45776,0.42114 1.22681,0.42114 0.81787,0 1.25122,-0.42725 0.43335,-0.42724 0.43335,-1.2268 0,-0.77515 -0.47608,-1.19019 -0.47607,-0.41504 -1.37329,-0.42724 h -0.84839 z"
           style="font-style:normal;font-variant:normal;font-weight:normal;font-stretch:normal;font-size:12.5px;line-height:1.25;font-family:Roboto;-inkscape-font-specification:Roboto"
           id="path111" />
      </g>
    </g>
    <g
       aria-label="y"
       style="font-style:normal;font-weight:normal;line-height:0%;font-family:sans-serif;letter-spacing:0px;word-spacing:0px;fill:#000000;fill-opacity:1;stroke:none;stroke-width:1px;stroke-linecap:butt;stroke-linejoin:miter;stroke-opacity:1"
       id="text4805">
      <path
         d="m 309.97751,169.97525 1.53808,-4.94995 h 1.2085 l -2.65503,7.62329 q -0.61645,1.64795 -1.95923,1.64795 l -0.21362,-0.0183 -0.42114,-0.0794 v -0.91552 l 0.30517,0.0244 q 0.57373,0 0.89112,-0.23193 0.32348,-0.23194 0.531,-0.84839 l 0.25025,-0.67139 -2.35596,-6.53076 h 1.23291 z"
         style="font-style:normal;font-variant:normal;font-weight:normal;font-stretch:normal;font-size:12.5px;line-height:1.25;font-family:Roboto;-inkscape-font-specification:Roboto"
         id="path114" />
    </g>
  </g>
</svg>
