<?xml version="1.0" encoding="UTF-8" standalone="no"?>
<!-- Created with Inkscape (http://www.inkscape.org/) -->

<svg
   xmlns:dc="http://purl.org/dc/elements/1.1/"
   xmlns:cc="http://creativecommons.org/ns#"
   xmlns:rdf="http://www.w3.org/1999/02/22-rdf-syntax-ns#"
   xmlns:svg="http://www.w3.org/2000/svg"
   xmlns="http://www.w3.org/2000/svg"
   xmlns:sodipodi="http://sodipodi.sourceforge.net/DTD/sodipodi-0.dtd"
   xmlns:inkscape="http://www.inkscape.org/namespaces/inkscape"
   width="149.60773mm"
   height="49.452389mm"
   viewBox="0 0 530.10613 175.225"
   id="svg2"
   version="1.1"
   inkscape:version="0.92.3 (2405546, 2018-03-11)"
   sodipodi:docname="join-venn-otp.svg">
  <defs
     id="defs4" />
  <sodipodi:namedview
     id="base"
     pagecolor="#ffffff"
     bordercolor="#666666"
     borderopacity="1.0"
     inkscape:pageopacity="0.0"
     inkscape:pageshadow="2"
     inkscape:zoom="1.4"
     inkscape:cx="255.16414"
     inkscape:cy="140.78191"
     inkscape:document-units="px"
     inkscape:current-layer="layer1"
     showgrid="false"
     fit-margin-top="5"
     fit-margin-left="5"
     fit-margin-right="5"
     fit-margin-bottom="5"
     inkscape:window-width="1366"
     inkscape:window-height="732"
     inkscape:window-x="1920"
     inkscape:window-y="0"
     inkscape:window-maximized="1" />
  <metadata
     id="metadata7">
    <rdf:RDF>
      <cc:Work
         rdf:about="">
        <dc:format>image/svg+xml</dc:format>
        <dc:type
           rdf:resource="http://purl.org/dc/dcmitype/StillImage" />
        <dc:title></dc:title>
      </cc:Work>
    </rdf:RDF>
  </metadata>
  <g
     inkscape:label="Layer 1"
     inkscape:groupmode="layer"
     id="layer1"
     transform="translate(-19.664178,-109.96016)">
    <g
       id="g4413">
      <g
         id="g4242">
        <g
           id="g4310">
          <path
             style="fill:#ffffff;fill-opacity:1;stroke:#000000;stroke-width:1;stroke-miterlimit:4;stroke-dasharray:none"
             d="m 97.880714,158.1767 a 30,30 0 0 1 -30,30 30,30 0 0 1 -30,-30 30,30 0 0 1 30,-30 30,30 0 0 1 30,30 z"
             id="path3401" />
          <path
             style="fill:#ffffff;fill-opacity:1;stroke:#000000;stroke-width:1;stroke-miterlimit:4;stroke-dasharray:none"
             d="m 133.74113,158.1767 a 30,30 0 0 1 -30,30 30,30 0 0 1 -30.000003,-30 30,30 0 0 1 30.000003,-30 30,30 0 0 1 30,30 z"
             id="circle4203" />
          <g
             aria-label="inner_join(x,y)"
             style="font-style:normal;font-weight:normal;line-height:0%;font-family:sans-serif;letter-spacing:0px;word-spacing:0px;fill:#000000;fill-opacity:1;stroke:none;stroke-width:1px;stroke-linecap:butt;stroke-linejoin:miter;stroke-opacity:1"
             id="text4228">
            <path
               d="m 152.8858,154.40015 h 3.71277 v 6.19018 h 2.37 v 1.07422 h -6.08277 v -1.07422 h 2.47071 v -5.10925 h -2.47071 z m 2.30957,-1.90674 q 0,-0.30884 0.18128,-0.51697 0.18799,-0.21484 0.56396,-0.21484 0.36927,0 0.55725,0.21484 0.18799,0.20813 0.18799,0.51697 0,0.30212 -0.18799,0.50354 -0.18798,0.20141 -0.55725,0.20141 -0.37597,0 -0.56396,-0.20141 -0.18128,-0.20142 -0.18128,-0.50354 z"
               style="font-style:normal;font-variant:normal;font-weight:normal;font-stretch:normal;font-size:13.75px;line-height:1.25;font-family:'Roboto Mono';-inkscape-font-specification:'Roboto Mono'"
               id="path39" />
            <path
               d="m 162.05023,154.40015 0.0873,1.07422 q 0.39612,-0.56397 0.97351,-0.87952 0.5774,-0.32227 1.28907,-0.32898 0.57067,0 1.03393,0.16113 0.46997,0.16113 0.79895,0.50354 0.32898,0.34241 0.50354,0.8728 0.18128,0.52369 0.18128,1.24878 v 4.61243 h -1.24207 v -4.58557 q 0,-0.4834 -0.10742,-0.81909 -0.10742,-0.3357 -0.32227,-0.54383 -0.20813,-0.20813 -0.51697,-0.30212 -0.30212,-0.094 -0.69824,-0.094 -0.62439,0 -1.10107,0.31555 -0.46997,0.30884 -0.75195,0.81909 v 5.20996 h -1.24207 v -7.2644 z"
               style="font-style:normal;font-variant:normal;font-weight:normal;font-stretch:normal;font-size:13.75px;line-height:1.25;font-family:'Roboto Mono';-inkscape-font-specification:'Roboto Mono'"
               id="path41" />
            <path
               d="m 170.29486,154.40015 0.0873,1.07422 q 0.39612,-0.56397 0.97351,-0.87952 0.57739,-0.32227 1.28906,-0.32898 0.57068,0 1.03394,0.16113 0.46997,0.16113 0.79895,0.50354 0.32898,0.34241 0.50354,0.8728 0.18127,0.52369 0.18127,1.24878 v 4.61243 h -1.24206 v -4.58557 q 0,-0.4834 -0.10742,-0.81909 -0.10742,-0.3357 -0.32227,-0.54383 -0.20813,-0.20813 -0.51697,-0.30212 -0.30212,-0.094 -0.69824,-0.094 -0.62439,0 -1.10107,0.31555 -0.46997,0.30884 -0.75196,0.81909 v 5.20996 h -1.24206 v -7.2644 z"
               style="font-style:normal;font-variant:normal;font-weight:normal;font-stretch:normal;font-size:13.75px;line-height:1.25;font-family:'Roboto Mono';-inkscape-font-specification:'Roboto Mono'"
               id="path43" />
            <path
               d="m 180.63422,161.79883 q -0.76538,0 -1.40992,-0.26184 -0.63781,-0.26184 -1.09436,-0.73181 -0.45654,-0.46997 -0.71167,-1.11451 -0.25512,-0.64453 -0.25512,-1.40319 v -0.28199 q 0,-0.87951 0.28198,-1.57104 0.28198,-0.69824 0.74524,-1.17493 0.46997,-0.4834 1.06079,-0.73852 0.59753,-0.25513 1.22192,-0.25513 0.78553,0 1.36963,0.27527 0.59082,0.26855 0.98023,0.75195 0.3894,0.47669 0.57739,1.12793 0.1947,0.65125 0.1947,1.40991 v 0.55725 h -5.18982 q 0.0201,0.49683 0.18799,0.93323 0.17456,0.4364 0.46997,0.76538 0.30213,0.32227 0.71839,0.51026 0.41625,0.18798 0.91979,0.18798 0.66468,0 1.18165,-0.26855 0.51696,-0.26856 0.85937,-0.71167 l 0.75867,0.59082 q -0.18128,0.27527 -0.45655,0.5304 -0.26855,0.24841 -0.62439,0.44311 -0.35583,0.1947 -0.80566,0.30884 -0.44983,0.12085 -0.98022,0.12085 z m -0.16114,-6.51245 q -0.37597,0 -0.71167,0.14099 -0.33569,0.13428 -0.60424,0.40283 -0.26856,0.26184 -0.45655,0.65125 -0.18127,0.38269 -0.25512,0.88623 h 3.90747 v -0.094 q -0.0202,-0.36255 -0.14099,-0.71838 -0.11414,-0.35584 -0.34241,-0.63782 -0.22827,-0.28198 -0.57739,-0.45654 -0.34241,-0.17456 -0.8191,-0.17456 z"
               style="font-style:normal;font-variant:normal;font-weight:normal;font-stretch:normal;font-size:13.75px;line-height:1.25;font-family:'Roboto Mono';-inkscape-font-specification:'Roboto Mono'"
               id="path45" />
            <path
               d="m 190.42975,154.26587 q 0.17456,0 0.36255,0.0134 0.18799,0.007 0.35583,0.0336 0.17456,0.0201 0.31555,0.0537 0.14771,0.0336 0.2417,0.0738 l -0.16784,1.21521 q -0.36255,-0.0806 -0.69153,-0.11414 -0.32227,-0.0403 -0.6781,-0.0403 -0.87281,0 -1.41663,0.39612 -0.53711,0.39612 -0.79223,1.10779 v 4.65942 h -1.24878 v -7.2644 h 1.18164 l 0.0604,1.15478 q 0.44312,-0.59753 1.06079,-0.93994 0.62439,-0.34912 1.41663,-0.34912 z"
               style="font-style:normal;font-variant:normal;font-weight:normal;font-stretch:normal;font-size:13.75px;line-height:1.25;font-family:'Roboto Mono';-inkscape-font-specification:'Roboto Mono'"
               id="path47" />
            <path
               d="m 199.9433,162.67834 h -6.15662 v -1.01379 h 6.15662 z"
               style="font-style:normal;font-variant:normal;font-weight:normal;font-stretch:normal;font-size:13.75px;line-height:1.25;font-family:'Roboto Mono';-inkscape-font-specification:'Roboto Mono'"
               id="path49" />
            <path
               d="m 202.99811,154.40015 h 3.66577 v 7.3114 q 0,0.69824 -0.1947,1.23535 -0.18799,0.53711 -0.55725,0.89966 -0.36255,0.36926 -0.89295,0.55725 -0.52368,0.1947 -1.19507,0.1947 -0.38269,0 -0.71838,-0.0268 -0.32898,-0.0202 -0.69824,-0.0873 l 0.0873,-1.0205 q 0.11413,0.0201 0.28869,0.0336 0.17456,0.0201 0.34913,0.0268 0.18127,0.0134 0.3424,0.0134 0.16785,0.007 0.26184,0.007 0.34912,0 0.65796,-0.094 0.30884,-0.0873 0.53711,-0.30212 0.22827,-0.21485 0.35584,-0.57068 0.13427,-0.34912 0.13427,-0.86609 v -6.23047 h -2.4237 z m 2.24914,-1.91346 q 0,-0.30212 0.18128,-0.51025 0.18127,-0.21484 0.55725,-0.21484 0.37598,0 0.56396,0.21484 0.18799,0.20813 0.18799,0.51025 0,0.30213 -0.18799,0.51026 -0.18798,0.20141 -0.56396,0.20141 -0.37598,0 -0.55725,-0.20141 -0.18128,-0.20813 -0.18128,-0.51026 z"
               style="font-style:normal;font-variant:normal;font-weight:normal;font-stretch:normal;font-size:13.75px;line-height:1.25;font-family:'Roboto Mono';-inkscape-font-specification:'Roboto Mono'"
               id="path51" />
            <path
               d="m 210.05438,157.96521 q 0,-0.78552 0.22827,-1.45691 0.22828,-0.6781 0.65125,-1.17493 0.42969,-0.49682 1.04065,-0.7788 0.61096,-0.2887 1.37634,-0.2887 0.7721,0 1.38306,0.2887 0.61767,0.28198 1.04065,0.7788 0.42968,0.49683 0.65796,1.17493 0.22827,0.67139 0.22827,1.45691 v 0.14771 q 0,0.78552 -0.22827,1.4569 -0.22828,0.67139 -0.65796,1.16822 -0.42298,0.49682 -1.03394,0.77881 -0.61096,0.28198 -1.37634,0.28198 -0.7721,0 -1.38977,-0.28198 -0.61096,-0.28199 -1.04065,-0.77881 -0.42297,-0.49683 -0.65125,-1.16822 -0.22827,-0.67138 -0.22827,-1.4569 z m 1.24207,0.14771 q 0,0.5371 0.12756,1.02722 0.12756,0.4834 0.38269,0.85266 0.26184,0.36926 0.65125,0.5841 0.3894,0.21485 0.90637,0.21485 0.51025,0 0.89294,-0.21485 0.38941,-0.21484 0.64453,-0.5841 0.26185,-0.36926 0.38941,-0.85266 0.12756,-0.49012 0.12756,-1.02722 v -0.14771 q 0,-0.5304 -0.13428,-1.01379 -0.12756,-0.49012 -0.3894,-0.85938 -0.25513,-0.36926 -0.64453,-0.58411 -0.38269,-0.22155 -0.89966,-0.22155 -0.51697,0 -0.89966,0.22155 -0.38269,0.21485 -0.64453,0.58411 -0.25513,0.36926 -0.38269,0.85938 -0.12756,0.48339 -0.12756,1.01379 z"
               style="font-style:normal;font-variant:normal;font-weight:normal;font-stretch:normal;font-size:13.75px;line-height:1.25;font-family:'Roboto Mono';-inkscape-font-specification:'Roboto Mono'"
               id="path53" />
            <path
               d="m 218.84283,154.40015 h 3.71277 v 6.19018 h 2.37 v 1.07422 h -6.08277 v -1.07422 h 2.47071 v -5.10925 h -2.47071 z m 2.30957,-1.90674 q 0,-0.30884 0.18128,-0.51697 0.18799,-0.21484 0.56396,-0.21484 0.36927,0 0.55726,0.21484 0.18798,0.20813 0.18798,0.51697 0,0.30212 -0.18798,0.50354 -0.18799,0.20141 -0.55726,0.20141 -0.37597,0 -0.56396,-0.20141 -0.18128,-0.20142 -0.18128,-0.50354 z"
               style="font-style:normal;font-variant:normal;font-weight:normal;font-stretch:normal;font-size:13.75px;line-height:1.25;font-family:'Roboto Mono';-inkscape-font-specification:'Roboto Mono'"
               id="path55" />
            <path
               d="m 228.00726,154.40015 0.0873,1.07422 q 0.39612,-0.56397 0.97351,-0.87952 0.5774,-0.32227 1.28907,-0.32898 0.57068,0 1.03393,0.16113 0.46997,0.16113 0.79895,0.50354 0.32898,0.34241 0.50354,0.8728 0.18128,0.52369 0.18128,1.24878 v 4.61243 h -1.24207 v -4.58557 q 0,-0.4834 -0.10742,-0.81909 -0.10742,-0.3357 -0.32227,-0.54383 -0.20813,-0.20813 -0.51696,-0.30212 -0.30213,-0.094 -0.69825,-0.094 -0.62439,0 -1.10107,0.31555 -0.46997,0.30884 -0.75195,0.81909 v 5.20996 h -1.24207 v -7.2644 z"
               style="font-style:normal;font-variant:normal;font-weight:normal;font-stretch:normal;font-size:13.75px;line-height:1.25;font-family:'Roboto Mono';-inkscape-font-specification:'Roboto Mono'"
               id="path57" />
            <path
               d="m 236.36603,157.69666 q 0,-0.96009 0.1477,-1.80604 0.15442,-0.84594 0.40955,-1.56433 0.25513,-0.72509 0.58411,-1.32263 0.33569,-0.59753 0.69824,-1.06079 0.36926,-0.46326 0.73852,-0.79224 0.36927,-0.32897 0.70496,-0.51696 l 0.26184,0.81909 q -0.41626,0.31555 -0.83252,0.85937 -0.40955,0.54383 -0.73853,1.32264 -0.32226,0.77209 -0.53039,1.78588 -0.20142,1.00708 -0.20142,2.26258 v 0.094 q 0,1.25549 0.20142,2.26929 0.20813,1.01379 0.53039,1.7926 0.32898,0.77881 0.73853,1.32935 0.41626,0.55725 0.83252,0.89294 l -0.26184,0.75867 q -0.33569,-0.18799 -0.71167,-0.51697 -0.36926,-0.32227 -0.73853,-0.79224 -0.36255,-0.46325 -0.69824,-1.06079 -0.32898,-0.59082 -0.58411,-1.3092 -0.24841,-0.7251 -0.40283,-1.57105 -0.1477,-0.84594 -0.1477,-1.80603 z"
               style="font-style:normal;font-variant:normal;font-weight:normal;font-stretch:normal;font-size:13.75px;line-height:1.25;font-family:'Roboto Mono';-inkscape-font-specification:'Roboto Mono'"
               id="path59" />
            <path
               d="m 246.38312,157.09241 1.94031,-2.69226 h 1.4569 l -2.70568,3.59192 2.77954,3.67248 h -1.43677 l -2.00745,-2.76611 -2.00744,2.76611 h -1.4502 l 2.77954,-3.67248 -2.70569,-3.59192 h 1.43677 z"
               style="font-style:normal;font-variant:normal;font-weight:normal;font-stretch:normal;font-size:13.75px;line-height:1.25;font-family:'Roboto Mono';-inkscape-font-specification:'Roboto Mono'"
               id="path61" />
            <path
               d="m 254.77545,161.37585 q 0,0.31556 -0.0806,0.65796 -0.0739,0.34912 -0.22828,0.68482 -0.1477,0.34241 -0.36255,0.65124 -0.21484,0.30884 -0.49682,0.55054 l -0.7721,-0.42297 q 0.32227,-0.46997 0.45655,-1.00037 0.13427,-0.5304 0.13427,-1.10107 v -1.20179 h 1.34949 z"
               style="font-style:normal;font-variant:normal;font-weight:normal;font-stretch:normal;font-size:13.75px;line-height:1.25;font-family:'Roboto Mono';-inkscape-font-specification:'Roboto Mono'"
               id="path63" />
            <path
               d="m 262.5434,159.08643 0.32226,0.87951 2.21558,-5.56579 h 1.38977 l -3.68591,8.38562 q -0.12757,0.28198 -0.32898,0.59753 -0.19471,0.31555 -0.47669,0.58411 -0.28198,0.26855 -0.65796,0.44983 -0.37597,0.18127 -0.86609,0.18127 -0.0873,0 -0.1947,-0.0134 -0.10742,-0.007 -0.21484,-0.0268 -0.10742,-0.0134 -0.20142,-0.0336 -0.094,-0.0201 -0.15442,-0.0336 l 0.20142,-1.0138 q 0.047,0 0.12756,0.007 0.0806,0.007 0.16785,0.0134 0.0873,0.007 0.16785,0.007 0.0806,0.007 0.12756,0.007 0.25513,0 0.46326,-0.14099 0.21484,-0.14099 0.37597,-0.33569 0.16785,-0.1947 0.28198,-0.40283 0.12085,-0.20813 0.18799,-0.34241 l 0.49683,-0.9668 -3.12866,-6.92199 h 1.38977 z"
               style="font-style:normal;font-variant:normal;font-weight:normal;font-stretch:normal;font-size:13.75px;line-height:1.25;font-family:'Roboto Mono';-inkscape-font-specification:'Roboto Mono'"
               id="path65" />
            <path
               d="m 272.64777,157.76379 q 0,0.96009 -0.15442,1.80603 -0.14771,0.84595 -0.40283,1.57105 -0.25513,0.71838 -0.59083,1.3092 -0.32897,0.59754 -0.69824,1.06079 -0.36255,0.46997 -0.73852,0.79224 -0.36927,0.32898 -0.70496,0.51697 l -0.26184,-0.75867 q 0.41626,-0.30884 0.82581,-0.86609 0.41626,-0.55053 0.73852,-1.33606 0.32898,-0.78552 0.5304,-1.80603 0.20813,-1.02051 0.20813,-2.276 v -0.094 q 0,-1.2555 -0.21485,-2.276 -0.21484,-1.02723 -0.55725,-1.81275 -0.33569,-0.79223 -0.74524,-1.34277 -0.40283,-0.55054 -0.78552,-0.85938 l 0.26184,-0.75866 q 0.33569,0.18799 0.70496,0.51696 0.37597,0.32898 0.73852,0.79224 0.36927,0.46326 0.69824,1.06079 0.3357,0.59754 0.59083,1.32263 0.25512,0.71839 0.40283,1.56433 0.15442,0.84595 0.15442,1.80604 z"
               style="font-style:normal;font-variant:normal;font-weight:normal;font-stretch:normal;font-size:13.75px;line-height:1.25;font-family:'Roboto Mono';-inkscape-font-specification:'Roboto Mono'"
               id="path67" />
          </g>
          <path
             style="fill:#cccccc;fill-opacity:1;stroke:#000000;stroke-width:1;stroke-miterlimit:4;stroke-dasharray:none"
             d="M 85.806641,134.16602 A 30,30 0 0 0 73.740234,158.17578 30,30 0 0 0 85.814453,182.18555 30,30 0 0 0 97.880859,158.17578 30,30 0 0 0 85.806641,134.16602 Z"
             id="circle4531"
             inkscape:connector-curvature="0" />
        </g>
      </g>
      <g
         id="g4318">
        <path
           style="fill:#e6e6e6;fill-opacity:1;stroke:none;stroke-width:1;stroke-miterlimit:4;stroke-dasharray:none"
           d="M 82.785495,257.2365 C 71.98671,245.88809 71.843204,228.40744 82.456991,217.22103 l 3.177869,-3.34932 1.432926,1.04612 c 0.788109,0.57536 2.570336,2.54671 3.960505,4.38076 8.926914,11.77732 7.809727,28.05332 -2.633503,38.36682 l -2.681356,2.64805 z"
           id="path4278"
           inkscape:connector-curvature="0" />
        <path
           style="fill:#cccccc;fill-opacity:1;stroke:#000000;stroke-width:1;stroke-miterlimit:4;stroke-dasharray:none"
           d="m 97.880714,236.96863 a 30,30 0 0 1 -30,30 30,30 0 0 1 -30,-30 30,30 0 0 1 30,-30 30,30 0 0 1 30,30 z"
           id="circle4211" />
        <path
           style="fill:#cccccc;fill-opacity:1;stroke:#000000;stroke-width:1;stroke-miterlimit:4;stroke-dasharray:none"
           d="m 133.74113,236.96863 a 30,30 0 0 1 -30,30 30,30 0 0 1 -30.000003,-30 30,30 0 0 1 30.000003,-30 30,30 0 0 1 30,30 z"
           id="circle4213" />
        <g
           aria-label="full_join(x,y)"
           style="font-style:normal;font-weight:normal;line-height:0%;font-family:sans-serif;letter-spacing:0px;word-spacing:0px;fill:#000000;fill-opacity:1;stroke:none;stroke-width:1px;stroke-linecap:butt;stroke-linejoin:miter;stroke-opacity:1"
           id="text4232">
          <path
             d="m 154.54413,240.45648 v -6.30432 h -2.00073 v -0.96008 h 2.00073 v -0.51026 q 0,-0.69824 0.20141,-1.22192 0.20813,-0.5304 0.5774,-0.88623 0.37597,-0.35584 0.89966,-0.53711 0.52368,-0.18127 1.16821,-0.18127 0.44311,0 0.85937,0.0738 0.42298,0.0739 0.86609,0.18799 l -0.1477,1.02722 q -0.27527,-0.094 -0.64453,-0.16113 -0.36255,-0.0739 -0.77881,-0.0739 -0.87281,0.007 -1.31592,0.44312 -0.4364,0.4364 -0.4364,1.32934 v 0.51026 h 2.79968 v 0.96008 h -2.79968 v 6.30432 z"
             style="font-style:normal;font-variant:normal;font-weight:normal;font-stretch:normal;font-size:13.75px;line-height:1.25;font-family:'Roboto Mono';-inkscape-font-specification:'Roboto Mono'"
             id="path72" />
          <path
             d="m 165.67572,239.45612 q -0.36255,0.53711 -0.90637,0.83923 -0.54383,0.29541 -1.2555,0.29541 -0.57067,0 -1.03393,-0.17456 -0.46326,-0.18128 -0.79224,-0.55725 -0.32898,-0.37598 -0.51025,-0.95337 -0.17456,-0.58411 -0.17456,-1.39649 v -4.31701 h 1.24206 v 4.33044 q 0,0.59082 0.094,0.98023 0.094,0.3894 0.28198,0.62439 0.18799,0.22827 0.45654,0.32226 0.27527,0.094 0.63111,0.094 0.75866,0 1.22192,-0.30884 0.46997,-0.30884 0.69824,-0.83252 v -5.20996 h 1.24878 v 7.2644 h -1.12793 z"
             style="font-style:normal;font-variant:normal;font-weight:normal;font-stretch:normal;font-size:13.75px;line-height:1.25;font-family:'Roboto Mono';-inkscape-font-specification:'Roboto Mono'"
             id="path74" />
          <path
             d="m 169.40192,230.14398 h 3.71277 v 9.23828 h 2.36999 v 1.07422 h -6.08276 v -1.07422 h 2.4707 v -8.15735 h -2.4707 z"
             style="font-style:normal;font-variant:normal;font-weight:normal;font-stretch:normal;font-size:13.75px;line-height:1.25;font-family:'Roboto Mono';-inkscape-font-specification:'Roboto Mono'"
             id="path76" />
          <path
             d="m 177.64655,230.14398 h 3.71276 v 9.23828 h 2.37 v 1.07422 h -6.08276 v -1.07422 h 2.4707 v -8.15735 h -2.4707 z"
             style="font-style:normal;font-variant:normal;font-weight:normal;font-stretch:normal;font-size:13.75px;line-height:1.25;font-family:'Roboto Mono';-inkscape-font-specification:'Roboto Mono'"
             id="path78" />
          <path
             d="m 191.72552,241.47028 h -6.15661 v -1.0138 h 6.15661 z"
             style="font-style:normal;font-variant:normal;font-weight:normal;font-stretch:normal;font-size:13.75px;line-height:1.25;font-family:'Roboto Mono';-inkscape-font-specification:'Roboto Mono'"
             id="path80" />
          <path
             d="m 194.78033,233.19208 h 3.66578 v 7.3114 q 0,0.69824 -0.19471,1.23535 -0.18798,0.53711 -0.55725,0.89966 -0.36255,0.36926 -0.89294,0.55725 -0.52368,0.1947 -1.19507,0.1947 -0.38269,0 -0.71838,-0.0269 -0.32898,-0.0202 -0.69825,-0.0873 l 0.0873,-1.02051 q 0.11414,0.0201 0.2887,0.0336 0.17456,0.0201 0.34912,0.0268 0.18128,0.0134 0.34241,0.0134 0.16785,0.007 0.26184,0.007 0.34912,0 0.65796,-0.094 0.30884,-0.0873 0.53711,-0.30212 0.22827,-0.21485 0.35583,-0.57068 0.13428,-0.34912 0.13428,-0.86609 v -6.23047 h -2.42371 z m 2.24915,-1.91345 q 0,-0.30213 0.18127,-0.51026 0.18128,-0.21484 0.55726,-0.21484 0.37597,0 0.56396,0.21484 0.18799,0.20813 0.18799,0.51026 0,0.30212 -0.18799,0.51025 -0.18799,0.20142 -0.56396,0.20142 -0.37598,0 -0.55726,-0.20142 -0.18127,-0.20813 -0.18127,-0.51025 z"
             style="font-style:normal;font-variant:normal;font-weight:normal;font-stretch:normal;font-size:13.75px;line-height:1.25;font-family:'Roboto Mono';-inkscape-font-specification:'Roboto Mono'"
             id="path82" />
          <path
             d="m 201.83661,236.75714 q 0,-0.78552 0.22827,-1.45691 0.22827,-0.6781 0.65125,-1.17492 0.42968,-0.49683 1.04064,-0.77881 0.61097,-0.2887 1.37635,-0.2887 0.77209,0 1.38305,0.2887 0.61768,0.28198 1.04065,0.77881 0.42969,0.49682 0.65796,1.17492 0.22827,0.67139 0.22827,1.45691 v 0.14771 q 0,0.78552 -0.22827,1.45691 -0.22827,0.67138 -0.65796,1.16821 -0.42297,0.49682 -1.03393,0.77881 -0.61096,0.28198 -1.37634,0.28198 -0.7721,0 -1.38978,-0.28198 -0.61096,-0.28199 -1.04064,-0.77881 -0.42298,-0.49683 -0.65125,-1.16821 -0.22827,-0.67139 -0.22827,-1.45691 z m 1.24206,0.14771 q 0,0.53711 0.12757,1.02722 0.12756,0.4834 0.38269,0.85266 0.26184,0.36926 0.65124,0.58411 0.38941,0.21484 0.90638,0.21484 0.51025,0 0.89294,-0.21484 0.3894,-0.21485 0.64453,-0.58411 0.26184,-0.36926 0.38941,-0.85266 0.12756,-0.49011 0.12756,-1.02722 v -0.14771 q 0,-0.53039 -0.13428,-1.01379 -0.12756,-0.49012 -0.3894,-0.85938 -0.25513,-0.36926 -0.64453,-0.5841 -0.38269,-0.22156 -0.89966,-0.22156 -0.51697,0 -0.89966,0.22156 -0.38269,0.21484 -0.64453,0.5841 -0.25513,0.36926 -0.38269,0.85938 -0.12757,0.4834 -0.12757,1.01379 z"
             style="font-style:normal;font-variant:normal;font-weight:normal;font-stretch:normal;font-size:13.75px;line-height:1.25;font-family:'Roboto Mono';-inkscape-font-specification:'Roboto Mono'"
             id="path84" />
          <path
             d="m 210.62506,233.19208 h 3.71277 v 6.19018 h 2.36999 v 1.07422 h -6.08276 v -1.07422 h 2.4707 v -5.10925 h -2.4707 z m 2.30957,-1.90674 q 0,-0.30884 0.18128,-0.51697 0.18798,-0.21484 0.56396,-0.21484 0.36926,0 0.55725,0.21484 0.18799,0.20813 0.18799,0.51697 0,0.30212 -0.18799,0.50354 -0.18799,0.20142 -0.55725,0.20142 -0.37598,0 -0.56396,-0.20142 -0.18128,-0.20142 -0.18128,-0.50354 z"
             style="font-style:normal;font-variant:normal;font-weight:normal;font-stretch:normal;font-size:13.75px;line-height:1.25;font-family:'Roboto Mono';-inkscape-font-specification:'Roboto Mono'"
             id="path86" />
          <path
             d="m 219.78949,233.19208 0.0873,1.07422 q 0.39612,-0.56397 0.97351,-0.87952 0.57739,-0.32227 1.28906,-0.32898 0.57068,0 1.03394,0.16113 0.46997,0.16114 0.79895,0.50354 0.32898,0.34241 0.50354,0.87281 0.18127,0.52368 0.18127,1.24878 v 4.61242 h -1.24206 v -4.58557 q 0,-0.4834 -0.10742,-0.81909 -0.10743,-0.33569 -0.32227,-0.54382 -0.20813,-0.20813 -0.51697,-0.30213 -0.30212,-0.094 -0.69824,-0.094 -0.62439,0 -1.10107,0.31555 -0.46997,0.30884 -0.75196,0.81909 v 5.20996 h -1.24206 v -7.2644 z"
             style="font-style:normal;font-variant:normal;font-weight:normal;font-stretch:normal;font-size:13.75px;line-height:1.25;font-family:'Roboto Mono';-inkscape-font-specification:'Roboto Mono'"
             id="path88" />
          <path
             d="m 228.14825,236.48859 q 0,-0.96009 0.14771,-1.80603 0.15442,-0.84595 0.40955,-1.56433 0.25512,-0.7251 0.5841,-1.32264 0.3357,-0.59753 0.69824,-1.06079 0.36927,-0.46325 0.73853,-0.79223 0.36926,-0.32898 0.70496,-0.51697 l 0.26184,0.81909 q -0.41626,0.31555 -0.83252,0.85937 -0.40955,0.54383 -0.73853,1.32264 -0.32226,0.77209 -0.53039,1.78589 -0.20142,1.00708 -0.20142,2.26257 v 0.094 q 0,1.2555 0.20142,2.26929 0.20813,1.01379 0.53039,1.7926 0.32898,0.77881 0.73853,1.32935 0.41626,0.55725 0.83252,0.89294 l -0.26184,0.75867 q -0.3357,-0.18799 -0.71167,-0.51697 -0.36927,-0.32226 -0.73853,-0.79223 -0.36255,-0.46326 -0.69824,-1.0608 -0.32898,-0.59082 -0.58411,-1.3092 -0.24841,-0.7251 -0.40283,-1.57104 -0.14771,-0.84595 -0.14771,-1.80603 z"
             style="font-style:normal;font-variant:normal;font-weight:normal;font-stretch:normal;font-size:13.75px;line-height:1.25;font-family:'Roboto Mono';-inkscape-font-specification:'Roboto Mono'"
             id="path90" />
          <path
             d="m 238.16534,235.88434 1.94031,-2.69226 h 1.45691 l -2.70569,3.59192 2.77954,3.67248 h -1.43676 l -2.00745,-2.76611 -2.00745,2.76611 h -1.45019 l 2.77954,-3.67248 -2.70569,-3.59192 h 1.43677 z"
             style="font-style:normal;font-variant:normal;font-weight:normal;font-stretch:normal;font-size:13.75px;line-height:1.25;font-family:'Roboto Mono';-inkscape-font-specification:'Roboto Mono'"
             id="path92" />
          <path
             d="m 246.55768,240.16779 q 0,0.31555 -0.0806,0.65795 -0.0739,0.34913 -0.22827,0.68482 -0.1477,0.34241 -0.36255,0.65124 -0.21484,0.30884 -0.49682,0.55054 l -0.7721,-0.42297 q 0.32227,-0.46997 0.45654,-1.00037 0.13428,-0.53039 0.13428,-1.10107 v -1.20178 h 1.34949 z"
             style="font-style:normal;font-variant:normal;font-weight:normal;font-stretch:normal;font-size:13.75px;line-height:1.25;font-family:'Roboto Mono';-inkscape-font-specification:'Roboto Mono'"
             id="path94" />
          <path
             d="m 254.32562,237.87836 0.32227,0.87951 2.21557,-5.56579 h 1.38977 l -3.68591,8.38562 q -0.12756,0.28198 -0.32898,0.59753 -0.1947,0.31555 -0.47668,0.58411 -0.28198,0.26855 -0.65796,0.44983 -0.37598,0.18127 -0.86609,0.18127 -0.0873,0 -0.1947,-0.0134 -0.10742,-0.007 -0.21485,-0.0269 -0.10742,-0.0134 -0.20141,-0.0336 -0.094,-0.0201 -0.15442,-0.0336 l 0.20142,-1.01379 q 0.047,0 0.12756,0.007 0.0806,0.007 0.16785,0.0134 0.0873,0.007 0.16784,0.007 0.0806,0.007 0.12757,0.007 0.25512,0 0.46325,-0.141 0.21485,-0.14099 0.37598,-0.33569 0.16785,-0.1947 0.28198,-0.40283 0.12085,-0.20813 0.18799,-0.34241 l 0.49683,-0.9668 -3.12867,-6.92199 h 1.38977 z"
             style="font-style:normal;font-variant:normal;font-weight:normal;font-stretch:normal;font-size:13.75px;line-height:1.25;font-family:'Roboto Mono';-inkscape-font-specification:'Roboto Mono'"
             id="path96" />
          <path
             d="m 264.42999,236.55573 q 0,0.96008 -0.15442,1.80603 -0.1477,0.84594 -0.40283,1.57104 -0.25513,0.71838 -0.59082,1.3092 -0.32898,0.59754 -0.69824,1.0608 -0.36255,0.46997 -0.73853,0.79223 -0.36926,0.32898 -0.70495,0.51697 l -0.26184,-0.75867 q 0.41626,-0.30884 0.8258,-0.86609 0.41626,-0.55053 0.73853,-1.33606 0.32898,-0.78552 0.53039,-1.80603 0.20813,-1.0205 0.20813,-2.276 v -0.094 q 0,-1.25549 -0.21484,-2.276 -0.21484,-1.02722 -0.55725,-1.81275 -0.33569,-0.79223 -0.74524,-1.34277 -0.40283,-0.55054 -0.78552,-0.85937 l 0.26184,-0.75867 q 0.33569,0.18799 0.70495,0.51697 0.37598,0.32898 0.73853,0.79223 0.36926,0.46326 0.69824,1.06079 0.33569,0.59754 0.59082,1.32264 0.25513,0.71838 0.40283,1.56433 0.15442,0.84594 0.15442,1.80603 z"
             style="font-style:normal;font-variant:normal;font-weight:normal;font-stretch:normal;font-size:13.75px;line-height:1.25;font-family:'Roboto Mono';-inkscape-font-specification:'Roboto Mono'"
             id="path98" />
        </g>
        <path
           style="fill:#cccccc;fill-opacity:1;stroke:#000000;stroke-width:1;stroke-miterlimit:4;stroke-dasharray:none"
           d="M 85.806641,212.95898 A 30,30 0 0 0 73.740234,236.96875 30,30 0 0 0 85.816406,260.97852 30,30 0 0 0 97.880859,236.96875 30,30 0 0 0 85.806641,212.95898 Z"
           id="circle4521"
           inkscape:connector-curvature="0" />
      </g>
    </g>
    <g
       id="g4435"
       transform="translate(2.448447)">
      <g
         transform="translate(256.95756)"
         id="g4333">
        <g
           id="g4335">
          <path
             style="fill:#cccccc;fill-opacity:1;stroke:#000000;stroke-width:1;stroke-miterlimit:4;stroke-dasharray:none"
             d="m 97.880714,158.1767 a 30,30 0 0 1 -30,30 30,30 0 0 1 -30,-30 30,30 0 0 1 30,-30 30,30 0 0 1 30,30 z"
             id="circle4337" />
          <path
             style="fill:none;fill-opacity:1;stroke:#000000;stroke-width:1;stroke-miterlimit:4;stroke-dasharray:none"
             d="m 133.74113,158.1767 a 30,30 0 0 1 -30,30 30,30 0 0 1 -30.000003,-30 30,30 0 0 1 30.000003,-30 30,30 0 0 1 30,30 z"
             id="circle4339" />
          <g
             aria-label="left_join(x,y)"
             style="font-style:normal;font-weight:normal;line-height:0%;font-family:sans-serif;letter-spacing:0px;word-spacing:0px;fill:#000000;fill-opacity:1;stroke:none;stroke-width:1px;stroke-linecap:butt;stroke-linejoin:miter;stroke-opacity:1"
             id="text4341">
            <path
               d="m 152.8858,151.35205 h 3.71277 v 9.23828 h 2.37 v 1.07422 h -6.08277 v -1.07422 h 2.47071 v -8.15735 h -2.47071 z"
               style="font-style:normal;font-variant:normal;font-weight:normal;font-stretch:normal;font-size:13.75px;line-height:1.25;font-family:'Roboto Mono';-inkscape-font-specification:'Roboto Mono'"
               id="path103" />
            <path
               d="m 164.14496,161.79883 q -0.76538,0 -1.40991,-0.26184 -0.63782,-0.26184 -1.09436,-0.73181 -0.45655,-0.46997 -0.71167,-1.11451 -0.25513,-0.64453 -0.25513,-1.40319 v -0.28199 q 0,-0.87951 0.28198,-1.57104 0.28198,-0.69824 0.74524,-1.17493 0.46997,-0.4834 1.06079,-0.73852 0.59754,-0.25513 1.22193,-0.25513 0.78552,0 1.36962,0.27527 0.59082,0.26855 0.98023,0.75195 0.3894,0.47669 0.57739,1.12793 0.1947,0.65125 0.1947,1.40991 v 0.55725 h -5.18982 q 0.0202,0.49683 0.18799,0.93323 0.17456,0.4364 0.46997,0.76538 0.30213,0.32227 0.71839,0.51026 0.41626,0.18798 0.9198,0.18798 0.66467,0 1.18164,-0.26855 0.51697,-0.26856 0.85937,-0.71167 l 0.75867,0.59082 q -0.18127,0.27527 -0.45654,0.5304 -0.26856,0.24841 -0.62439,0.44311 -0.35584,0.1947 -0.80567,0.30884 -0.44983,0.12085 -0.98022,0.12085 z m -0.16113,-6.51245 q -0.37598,0 -0.71167,0.14099 -0.3357,0.13428 -0.60425,0.40283 -0.26856,0.26184 -0.45655,0.65125 -0.18127,0.38269 -0.25512,0.88623 h 3.90747 v -0.094 q -0.0201,-0.36255 -0.14099,-0.71838 -0.11414,-0.35584 -0.34241,-0.63782 -0.22827,-0.28198 -0.57739,-0.45654 -0.34241,-0.17456 -0.81909,-0.17456 z"
               style="font-style:normal;font-variant:normal;font-weight:normal;font-stretch:normal;font-size:13.75px;line-height:1.25;font-family:'Roboto Mono';-inkscape-font-specification:'Roboto Mono'"
               id="path105" />
            <path
               d="m 171.03339,161.66455 v -6.30432 h -2.00074 v -0.96008 h 2.00074 v -0.51026 q 0,-0.69824 0.20141,-1.22192 0.20813,-0.5304 0.57739,-0.88623 0.37598,-0.35584 0.89966,-0.53711 0.52368,-0.18128 1.16822,-0.18128 0.44311,0 0.85937,0.0739 0.42297,0.0738 0.86609,0.18799 l -0.14771,1.02722 q -0.27526,-0.094 -0.64453,-0.16114 -0.36255,-0.0738 -0.77881,-0.0738 -0.8728,0.007 -1.31591,0.44312 -0.4364,0.4364 -0.4364,1.32934 v 0.51026 h 2.79968 v 0.96008 h -2.79968 v 6.30432 z"
               style="font-style:normal;font-variant:normal;font-weight:normal;font-stretch:normal;font-size:13.75px;line-height:1.25;font-family:'Roboto Mono';-inkscape-font-specification:'Roboto Mono'"
               id="path107" />
            <path
               d="m 180.39252,152.64111 v 1.75904 h 2.76611 v 0.96008 h -2.76611 v 3.94775 q 0,0.42298 0.10742,0.69825 0.10742,0.27526 0.29541,0.44311 0.18799,0.16113 0.42969,0.22827 0.24841,0.0671 0.52368,0.0671 0.20141,0 0.41626,-0.0201 0.21484,-0.0269 0.41626,-0.0604 0.20813,-0.0336 0.38269,-0.0671 0.18127,-0.0403 0.29541,-0.0671 l 0.17456,0.87951 q -0.15442,0.094 -0.37598,0.16785 -0.22156,0.0671 -0.4834,0.11414 -0.26184,0.0537 -0.55725,0.0806 -0.28869,0.0269 -0.57739,0.0269 -0.4834,0 -0.90637,-0.13428 -0.41626,-0.14099 -0.7251,-0.4364 -0.30884,-0.30212 -0.49011,-0.7721 -0.17456,-0.47668 -0.17456,-1.14807 v -3.94775 H 177.237 v -0.96008 h 1.90674 v -1.75904 z"
               style="font-style:normal;font-variant:normal;font-weight:normal;font-stretch:normal;font-size:13.75px;line-height:1.25;font-family:'Roboto Mono';-inkscape-font-specification:'Roboto Mono'"
               id="path109" />
            <path
               d="m 191.72552,162.67834 h -6.15661 v -1.01379 h 6.15661 z"
               style="font-style:normal;font-variant:normal;font-weight:normal;font-stretch:normal;font-size:13.75px;line-height:1.25;font-family:'Roboto Mono';-inkscape-font-specification:'Roboto Mono'"
               id="path111" />
            <path
               d="m 194.78033,154.40015 h 3.66578 v 7.3114 q 0,0.69824 -0.19471,1.23535 -0.18798,0.53711 -0.55725,0.89966 -0.36255,0.36926 -0.89294,0.55725 -0.52368,0.1947 -1.19507,0.1947 -0.38269,0 -0.71838,-0.0268 -0.32898,-0.0202 -0.69825,-0.0873 l 0.0873,-1.0205 q 0.11414,0.0201 0.2887,0.0336 0.17456,0.0201 0.34912,0.0268 0.18128,0.0134 0.34241,0.0134 0.16785,0.007 0.26184,0.007 0.34912,0 0.65796,-0.094 0.30884,-0.0873 0.53711,-0.30212 0.22827,-0.21485 0.35583,-0.57068 0.13428,-0.34912 0.13428,-0.86609 v -6.23047 h -2.42371 z m 2.24915,-1.91346 q 0,-0.30212 0.18127,-0.51025 0.18128,-0.21484 0.55726,-0.21484 0.37597,0 0.56396,0.21484 0.18799,0.20813 0.18799,0.51025 0,0.30213 -0.18799,0.51026 -0.18799,0.20141 -0.56396,0.20141 -0.37598,0 -0.55726,-0.20141 -0.18127,-0.20813 -0.18127,-0.51026 z"
               style="font-style:normal;font-variant:normal;font-weight:normal;font-stretch:normal;font-size:13.75px;line-height:1.25;font-family:'Roboto Mono';-inkscape-font-specification:'Roboto Mono'"
               id="path113" />
            <path
               d="m 201.83661,157.96521 q 0,-0.78552 0.22827,-1.45691 0.22827,-0.6781 0.65125,-1.17493 0.42968,-0.49682 1.04064,-0.7788 0.61097,-0.2887 1.37635,-0.2887 0.77209,0 1.38305,0.2887 0.61768,0.28198 1.04065,0.7788 0.42969,0.49683 0.65796,1.17493 0.22827,0.67139 0.22827,1.45691 v 0.14771 q 0,0.78552 -0.22827,1.4569 -0.22827,0.67139 -0.65796,1.16822 -0.42297,0.49682 -1.03393,0.77881 -0.61096,0.28198 -1.37634,0.28198 -0.7721,0 -1.38978,-0.28198 -0.61096,-0.28199 -1.04064,-0.77881 -0.42298,-0.49683 -0.65125,-1.16822 -0.22827,-0.67138 -0.22827,-1.4569 z m 1.24206,0.14771 q 0,0.5371 0.12757,1.02722 0.12756,0.4834 0.38269,0.85266 0.26184,0.36926 0.65124,0.5841 0.38941,0.21485 0.90638,0.21485 0.51025,0 0.89294,-0.21485 0.3894,-0.21484 0.64453,-0.5841 0.26184,-0.36926 0.38941,-0.85266 0.12756,-0.49012 0.12756,-1.02722 v -0.14771 q 0,-0.5304 -0.13428,-1.01379 -0.12756,-0.49012 -0.3894,-0.85938 -0.25513,-0.36926 -0.64453,-0.58411 -0.38269,-0.22155 -0.89966,-0.22155 -0.51697,0 -0.89966,0.22155 -0.38269,0.21485 -0.64453,0.58411 -0.25513,0.36926 -0.38269,0.85938 -0.12757,0.48339 -0.12757,1.01379 z"
               style="font-style:normal;font-variant:normal;font-weight:normal;font-stretch:normal;font-size:13.75px;line-height:1.25;font-family:'Roboto Mono';-inkscape-font-specification:'Roboto Mono'"
               id="path115" />
            <path
               d="m 210.62506,154.40015 h 3.71277 v 6.19018 h 2.36999 v 1.07422 h -6.08276 v -1.07422 h 2.4707 v -5.10925 h -2.4707 z m 2.30957,-1.90674 q 0,-0.30884 0.18128,-0.51697 0.18798,-0.21484 0.56396,-0.21484 0.36926,0 0.55725,0.21484 0.18799,0.20813 0.18799,0.51697 0,0.30212 -0.18799,0.50354 -0.18799,0.20141 -0.55725,0.20141 -0.37598,0 -0.56396,-0.20141 -0.18128,-0.20142 -0.18128,-0.50354 z"
               style="font-style:normal;font-variant:normal;font-weight:normal;font-stretch:normal;font-size:13.75px;line-height:1.25;font-family:'Roboto Mono';-inkscape-font-specification:'Roboto Mono'"
               id="path117" />
            <path
               d="m 219.78949,154.40015 0.0873,1.07422 q 0.39612,-0.56397 0.97351,-0.87952 0.57739,-0.32227 1.28906,-0.32898 0.57068,0 1.03394,0.16113 0.46997,0.16113 0.79895,0.50354 0.32898,0.34241 0.50354,0.8728 0.18127,0.52369 0.18127,1.24878 v 4.61243 h -1.24206 v -4.58557 q 0,-0.4834 -0.10742,-0.81909 -0.10743,-0.3357 -0.32227,-0.54383 -0.20813,-0.20813 -0.51697,-0.30212 -0.30212,-0.094 -0.69824,-0.094 -0.62439,0 -1.10107,0.31555 -0.46997,0.30884 -0.75196,0.81909 v 5.20996 h -1.24206 v -7.2644 z"
               style="font-style:normal;font-variant:normal;font-weight:normal;font-stretch:normal;font-size:13.75px;line-height:1.25;font-family:'Roboto Mono';-inkscape-font-specification:'Roboto Mono'"
               id="path119" />
            <path
               d="m 228.14825,157.69666 q 0,-0.96009 0.14771,-1.80604 0.15442,-0.84594 0.40955,-1.56433 0.25512,-0.72509 0.5841,-1.32263 0.3357,-0.59753 0.69824,-1.06079 0.36927,-0.46326 0.73853,-0.79224 0.36926,-0.32897 0.70496,-0.51696 l 0.26184,0.81909 q -0.41626,0.31555 -0.83252,0.85937 -0.40955,0.54383 -0.73853,1.32264 -0.32226,0.77209 -0.53039,1.78588 -0.20142,1.00708 -0.20142,2.26258 v 0.094 q 0,1.25549 0.20142,2.26929 0.20813,1.01379 0.53039,1.7926 0.32898,0.77881 0.73853,1.32935 0.41626,0.55725 0.83252,0.89294 l -0.26184,0.75867 q -0.3357,-0.18799 -0.71167,-0.51697 -0.36927,-0.32227 -0.73853,-0.79224 -0.36255,-0.46325 -0.69824,-1.06079 -0.32898,-0.59082 -0.58411,-1.3092 -0.24841,-0.7251 -0.40283,-1.57105 -0.14771,-0.84594 -0.14771,-1.80603 z"
               style="font-style:normal;font-variant:normal;font-weight:normal;font-stretch:normal;font-size:13.75px;line-height:1.25;font-family:'Roboto Mono';-inkscape-font-specification:'Roboto Mono'"
               id="path121" />
            <path
               d="m 238.16534,157.09241 1.94031,-2.69226 h 1.45691 l -2.70569,3.59192 2.77954,3.67248 h -1.43676 l -2.00745,-2.76611 -2.00745,2.76611 h -1.45019 l 2.77954,-3.67248 -2.70569,-3.59192 h 1.43677 z"
               style="font-style:normal;font-variant:normal;font-weight:normal;font-stretch:normal;font-size:13.75px;line-height:1.25;font-family:'Roboto Mono';-inkscape-font-specification:'Roboto Mono'"
               id="path123" />
            <path
               d="m 246.55768,161.37585 q 0,0.31556 -0.0806,0.65796 -0.0739,0.34912 -0.22827,0.68482 -0.1477,0.34241 -0.36255,0.65124 -0.21484,0.30884 -0.49682,0.55054 l -0.7721,-0.42297 q 0.32227,-0.46997 0.45654,-1.00037 0.13428,-0.5304 0.13428,-1.10107 v -1.20179 h 1.34949 z"
               style="font-style:normal;font-variant:normal;font-weight:normal;font-stretch:normal;font-size:13.75px;line-height:1.25;font-family:'Roboto Mono';-inkscape-font-specification:'Roboto Mono'"
               id="path125" />
            <path
               d="m 254.32562,159.08643 0.32227,0.87951 2.21557,-5.56579 h 1.38977 l -3.68591,8.38562 q -0.12756,0.28198 -0.32898,0.59753 -0.1947,0.31555 -0.47668,0.58411 -0.28198,0.26855 -0.65796,0.44983 -0.37598,0.18127 -0.86609,0.18127 -0.0873,0 -0.1947,-0.0134 -0.10742,-0.007 -0.21485,-0.0268 -0.10742,-0.0134 -0.20141,-0.0336 -0.094,-0.0201 -0.15442,-0.0336 l 0.20142,-1.0138 q 0.047,0 0.12756,0.007 0.0806,0.007 0.16785,0.0134 0.0873,0.007 0.16784,0.007 0.0806,0.007 0.12757,0.007 0.25512,0 0.46325,-0.14099 0.21485,-0.14099 0.37598,-0.33569 0.16785,-0.1947 0.28198,-0.40283 0.12085,-0.20813 0.18799,-0.34241 l 0.49683,-0.9668 -3.12867,-6.92199 h 1.38977 z"
               style="font-style:normal;font-variant:normal;font-weight:normal;font-stretch:normal;font-size:13.75px;line-height:1.25;font-family:'Roboto Mono';-inkscape-font-specification:'Roboto Mono'"
               id="path127" />
            <path
               d="m 264.42999,157.76379 q 0,0.96009 -0.15442,1.80603 -0.1477,0.84595 -0.40283,1.57105 -0.25513,0.71838 -0.59082,1.3092 -0.32898,0.59754 -0.69824,1.06079 -0.36255,0.46997 -0.73853,0.79224 -0.36926,0.32898 -0.70495,0.51697 l -0.26184,-0.75867 q 0.41626,-0.30884 0.8258,-0.86609 0.41626,-0.55053 0.73853,-1.33606 0.32898,-0.78552 0.53039,-1.80603 0.20813,-1.02051 0.20813,-2.276 v -0.094 q 0,-1.2555 -0.21484,-2.276 -0.21484,-1.02723 -0.55725,-1.81275 -0.33569,-0.79223 -0.74524,-1.34277 -0.40283,-0.55054 -0.78552,-0.85938 l 0.26184,-0.75866 q 0.33569,0.18799 0.70495,0.51696 0.37598,0.32898 0.73853,0.79224 0.36926,0.46326 0.69824,1.06079 0.33569,0.59754 0.59082,1.32263 0.25513,0.71839 0.40283,1.56433 0.15442,0.84595 0.15442,1.80604 z"
               style="font-style:normal;font-variant:normal;font-weight:normal;font-stretch:normal;font-size:13.75px;line-height:1.25;font-family:'Roboto Mono';-inkscape-font-specification:'Roboto Mono'"
               id="path129" />
          </g>
          <path
             style="fill:#cccccc;fill-opacity:1;stroke:#000000;stroke-width:1;stroke-miterlimit:4;stroke-dasharray:none"
             d="m 287.32031,134.16602 a 30,30 0 0 0 -12.0664,24.00976 30,30 0 0 0 12.07421,24.00977 30,30 0 0 0 12.06641,-24.00977 30,30 0 0 0 -12.07422,-24.00976 z"
             transform="translate(-201.51293)"
             id="circle4536"
             inkscape:connector-curvature="0" />
        </g>
      </g>
      <g
         transform="translate(256.95756)"
         id="g4347">
        <path
           inkscape:connector-curvature="0"
           id="path4349"
           d="M 82.785495,257.2365 C 71.98671,245.88809 71.843204,228.40744 82.456991,217.22103 l 3.177869,-3.34932 1.432926,1.04612 c 0.788109,0.57536 2.570336,2.54671 3.960505,4.38076 8.926914,11.77732 7.809727,28.05332 -2.633503,38.36682 l -2.681356,2.64805 z"
           style="fill:#e6e6e6;fill-opacity:1;stroke:none;stroke-width:1;stroke-miterlimit:4;stroke-dasharray:none" />
        <path
           style="fill:#ffffff;fill-opacity:1;stroke:#000000;stroke-width:1;stroke-miterlimit:4;stroke-dasharray:none"
           d="m 97.880714,236.96863 a 30,30 0 0 1 -30,30 30,30 0 0 1 -30,-30 30,30 0 0 1 30,-30 30,30 0 0 1 30,30 z"
           id="circle4351" />
        <path
           style="fill:#cccccc;fill-opacity:1;stroke:#000000;stroke-width:1;stroke-miterlimit:4;stroke-dasharray:none"
           d="m 133.74113,236.96863 a 30,30 0 0 1 -30,30 30,30 0 0 1 -30.000003,-30 30,30 0 0 1 30.000003,-30 30,30 0 0 1 30,30 z"
           id="circle4353" />
        <g
           aria-label="right_join(x,y)"
           style="font-style:normal;font-weight:normal;line-height:0%;font-family:sans-serif;letter-spacing:0px;word-spacing:0px;fill:#000000;fill-opacity:1;stroke:none;stroke-width:1px;stroke-linecap:butt;stroke-linejoin:miter;stroke-opacity:1"
           id="text4355">
          <path
             d="m 157.45123,233.0578 q 0.17456,0 0.36255,0.0134 0.18799,0.007 0.35584,0.0336 0.17456,0.0201 0.31555,0.0537 0.1477,0.0336 0.2417,0.0738 l -0.16785,1.21521 q -0.36255,-0.0806 -0.69153,-0.11413 -0.32226,-0.0403 -0.6781,-0.0403 -0.8728,0 -1.41662,0.39612 -0.53711,0.39612 -0.79224,1.10779 v 4.65942 h -1.24878 v -7.2644 h 1.18164 l 0.0604,1.15478 q 0.44311,-0.59753 1.06079,-0.93994 0.62439,-0.34912 1.41662,-0.34912 z"
             style="font-style:normal;font-variant:normal;font-weight:normal;font-stretch:normal;font-size:13.75px;line-height:1.25;font-family:'Roboto Mono';-inkscape-font-specification:'Roboto Mono'"
             id="path134" />
          <path
             d="m 161.13043,233.19208 h 3.71277 v 6.19018 h 2.37 v 1.07422 h -6.08277 v -1.07422 h 2.47071 v -5.10925 h -2.47071 z m 2.30957,-1.90674 q 0,-0.30884 0.18128,-0.51697 0.18799,-0.21484 0.56396,-0.21484 0.36926,0 0.55725,0.21484 0.18799,0.20813 0.18799,0.51697 0,0.30212 -0.18799,0.50354 -0.18799,0.20142 -0.55725,0.20142 -0.37597,0 -0.56396,-0.20142 -0.18128,-0.20142 -0.18128,-0.50354 z"
             style="font-style:normal;font-variant:normal;font-weight:normal;font-stretch:normal;font-size:13.75px;line-height:1.25;font-family:'Roboto Mono';-inkscape-font-specification:'Roboto Mono'"
             id="path136" />
          <path
             d="m 168.95209,236.76385 q 0,-0.81237 0.1947,-1.49047 0.20142,-0.68482 0.57739,-1.17493 0.37598,-0.49011 0.91309,-0.76538 0.53711,-0.27527 1.21521,-0.27527 0.67138,0 1.17492,0.2417 0.51026,0.23498 0.86609,0.68481 l 0.0604,-0.79223 h 1.12793 v 7.10998 q 0,0.71839 -0.22827,1.27564 -0.22156,0.55725 -0.63111,0.94665 -0.40283,0.38941 -0.96679,0.59082 -0.56397,0.20142 -1.24878,0.20142 -0.28199,0 -0.64453,-0.0671 -0.36255,-0.0604 -0.73853,-0.20813 -0.36926,-0.14099 -0.71838,-0.38269 -0.34241,-0.2417 -0.59082,-0.59753 l 0.64453,-0.74524 q 0.22827,0.27527 0.46997,0.46325 0.2417,0.19471 0.49011,0.30884 0.24841,0.11414 0.49683,0.16113 0.24841,0.0537 0.49682,0.0537 0.44312,0 0.79895,-0.12757 0.35584,-0.12756 0.60425,-0.37597 0.25513,-0.2417 0.38941,-0.60425 0.13427,-0.36255 0.13427,-0.83252 v -0.62439 q -0.36255,0.41626 -0.85937,0.63782 -0.49011,0.21484 -1.14136,0.21484 -0.66467,0 -1.20178,-0.28198 -0.53711,-0.28199 -0.91309,-0.77881 -0.36926,-0.49683 -0.57068,-1.16821 -0.20141,-0.67811 -0.20141,-1.45691 z m 1.24206,0.141 q 0,0.53039 0.10742,1.00708 0.11414,0.47668 0.34913,0.83923 0.2417,0.36255 0.61096,0.57739 0.36926,0.20813 0.88623,0.20813 0.32226,0 0.57739,-0.0738 0.26184,-0.0806 0.46326,-0.22156 0.20813,-0.14099 0.36926,-0.33569 0.16113,-0.1947 0.28198,-0.42969 v -3.33008 q -0.12085,-0.22827 -0.28198,-0.41626 -0.16113,-0.18799 -0.36926,-0.32226 -0.20813,-0.14099 -0.46326,-0.21485 -0.25513,-0.0806 -0.56396,-0.0806 -0.52369,0 -0.89966,0.21484 -0.36926,0.21484 -0.61096,0.58411 -0.23499,0.36255 -0.34913,0.84594 -0.10742,0.47669 -0.10742,1.00708 z"
             style="font-style:normal;font-variant:normal;font-weight:normal;font-stretch:normal;font-size:13.75px;line-height:1.25;font-family:'Roboto Mono';-inkscape-font-specification:'Roboto Mono'"
             id="path138" />
          <path
             d="m 178.66705,234.27301 q 0.38941,-0.57068 0.96009,-0.88623 0.57067,-0.32227 1.28234,-0.32898 0.57068,0 1.03394,0.16785 0.46997,0.16113 0.79895,0.51025 0.32898,0.34912 0.50354,0.88623 0.18128,0.5304 0.18128,1.26221 v 4.57214 h -1.24207 v -4.58557 q 0,-0.89294 -0.42969,-1.32935 -0.42297,-0.4364 -1.21521,-0.42968 -0.59753,0 -1.08764,0.29541 -0.4834,0.28869 -0.78553,0.77209 v 5.2771 h -1.24206 v -10.3125 h 1.24206 z"
             style="font-style:normal;font-variant:normal;font-weight:normal;font-stretch:normal;font-size:13.75px;line-height:1.25;font-family:'Roboto Mono';-inkscape-font-specification:'Roboto Mono'"
             id="path140" />
          <path
             d="m 188.61029,231.43304 v 1.75904 h 2.76611 v 0.96008 h -2.76611 v 3.94775 q 0,0.42298 0.10742,0.69825 0.10742,0.27527 0.29541,0.44311 0.18799,0.16113 0.42969,0.22827 0.24841,0.0671 0.52368,0.0671 0.20142,0 0.41626,-0.0201 0.21485,-0.0268 0.41626,-0.0604 0.20813,-0.0336 0.38269,-0.0671 0.18128,-0.0403 0.29541,-0.0671 l 0.17456,0.87951 q -0.15442,0.094 -0.37597,0.16785 -0.22156,0.0671 -0.4834,0.11414 -0.26184,0.0537 -0.55725,0.0806 -0.2887,0.0269 -0.5774,0.0269 -0.48339,0 -0.90637,-0.13428 -0.41626,-0.14099 -0.7251,-0.4364 -0.30883,-0.30212 -0.49011,-0.77209 -0.17456,-0.47669 -0.17456,-1.14808 v -3.94775 h -1.90674 v -0.96008 h 1.90674 v -1.75904 z"
             style="font-style:normal;font-variant:normal;font-weight:normal;font-stretch:normal;font-size:13.75px;line-height:1.25;font-family:'Roboto Mono';-inkscape-font-specification:'Roboto Mono'"
             id="path142" />
          <path
             d="m 199.9433,241.47028 h -6.15662 v -1.0138 h 6.15662 z"
             style="font-style:normal;font-variant:normal;font-weight:normal;font-stretch:normal;font-size:13.75px;line-height:1.25;font-family:'Roboto Mono';-inkscape-font-specification:'Roboto Mono'"
             id="path144" />
          <path
             d="m 202.99811,233.19208 h 3.66577 v 7.3114 q 0,0.69824 -0.1947,1.23535 -0.18799,0.53711 -0.55725,0.89966 -0.36255,0.36926 -0.89295,0.55725 -0.52368,0.1947 -1.19507,0.1947 -0.38269,0 -0.71838,-0.0269 -0.32898,-0.0202 -0.69824,-0.0873 l 0.0873,-1.02051 q 0.11413,0.0201 0.28869,0.0336 0.17456,0.0201 0.34913,0.0268 0.18127,0.0134 0.3424,0.0134 0.16785,0.007 0.26184,0.007 0.34912,0 0.65796,-0.094 0.30884,-0.0873 0.53711,-0.30212 0.22827,-0.21485 0.35584,-0.57068 0.13427,-0.34912 0.13427,-0.86609 v -6.23047 h -2.4237 z m 2.24914,-1.91345 q 0,-0.30213 0.18128,-0.51026 0.18127,-0.21484 0.55725,-0.21484 0.37598,0 0.56396,0.21484 0.18799,0.20813 0.18799,0.51026 0,0.30212 -0.18799,0.51025 -0.18798,0.20142 -0.56396,0.20142 -0.37598,0 -0.55725,-0.20142 -0.18128,-0.20813 -0.18128,-0.51025 z"
             style="font-style:normal;font-variant:normal;font-weight:normal;font-stretch:normal;font-size:13.75px;line-height:1.25;font-family:'Roboto Mono';-inkscape-font-specification:'Roboto Mono'"
             id="path146" />
          <path
             d="m 210.05438,236.75714 q 0,-0.78552 0.22827,-1.45691 0.22828,-0.6781 0.65125,-1.17492 0.42969,-0.49683 1.04065,-0.77881 0.61096,-0.2887 1.37634,-0.2887 0.7721,0 1.38306,0.2887 0.61767,0.28198 1.04065,0.77881 0.42968,0.49682 0.65796,1.17492 0.22827,0.67139 0.22827,1.45691 v 0.14771 q 0,0.78552 -0.22827,1.45691 -0.22828,0.67138 -0.65796,1.16821 -0.42298,0.49682 -1.03394,0.77881 -0.61096,0.28198 -1.37634,0.28198 -0.7721,0 -1.38977,-0.28198 -0.61096,-0.28199 -1.04065,-0.77881 -0.42297,-0.49683 -0.65125,-1.16821 -0.22827,-0.67139 -0.22827,-1.45691 z m 1.24207,0.14771 q 0,0.53711 0.12756,1.02722 0.12756,0.4834 0.38269,0.85266 0.26184,0.36926 0.65125,0.58411 0.3894,0.21484 0.90637,0.21484 0.51025,0 0.89294,-0.21484 0.38941,-0.21485 0.64453,-0.58411 0.26185,-0.36926 0.38941,-0.85266 0.12756,-0.49011 0.12756,-1.02722 v -0.14771 q 0,-0.53039 -0.13428,-1.01379 -0.12756,-0.49012 -0.3894,-0.85938 -0.25513,-0.36926 -0.64453,-0.5841 -0.38269,-0.22156 -0.89966,-0.22156 -0.51697,0 -0.89966,0.22156 -0.38269,0.21484 -0.64453,0.5841 -0.25513,0.36926 -0.38269,0.85938 -0.12756,0.4834 -0.12756,1.01379 z"
             style="font-style:normal;font-variant:normal;font-weight:normal;font-stretch:normal;font-size:13.75px;line-height:1.25;font-family:'Roboto Mono';-inkscape-font-specification:'Roboto Mono'"
             id="path148" />
          <path
             d="m 218.84283,233.19208 h 3.71277 v 6.19018 h 2.37 v 1.07422 h -6.08277 v -1.07422 h 2.47071 v -5.10925 h -2.47071 z m 2.30957,-1.90674 q 0,-0.30884 0.18128,-0.51697 0.18799,-0.21484 0.56396,-0.21484 0.36927,0 0.55726,0.21484 0.18798,0.20813 0.18798,0.51697 0,0.30212 -0.18798,0.50354 -0.18799,0.20142 -0.55726,0.20142 -0.37597,0 -0.56396,-0.20142 -0.18128,-0.20142 -0.18128,-0.50354 z"
             style="font-style:normal;font-variant:normal;font-weight:normal;font-stretch:normal;font-size:13.75px;line-height:1.25;font-family:'Roboto Mono';-inkscape-font-specification:'Roboto Mono'"
             id="path150" />
          <path
             d="m 228.00726,233.19208 0.0873,1.07422 q 0.39612,-0.56397 0.97351,-0.87952 0.5774,-0.32227 1.28907,-0.32898 0.57068,0 1.03393,0.16113 0.46997,0.16114 0.79895,0.50354 0.32898,0.34241 0.50354,0.87281 0.18128,0.52368 0.18128,1.24878 v 4.61242 h -1.24207 v -4.58557 q 0,-0.4834 -0.10742,-0.81909 -0.10742,-0.33569 -0.32227,-0.54382 -0.20813,-0.20813 -0.51696,-0.30213 -0.30213,-0.094 -0.69825,-0.094 -0.62439,0 -1.10107,0.31555 -0.46997,0.30884 -0.75195,0.81909 v 5.20996 h -1.24207 v -7.2644 z"
             style="font-style:normal;font-variant:normal;font-weight:normal;font-stretch:normal;font-size:13.75px;line-height:1.25;font-family:'Roboto Mono';-inkscape-font-specification:'Roboto Mono'"
             id="path152" />
          <path
             d="m 236.36603,236.48859 q 0,-0.96009 0.1477,-1.80603 0.15442,-0.84595 0.40955,-1.56433 0.25513,-0.7251 0.58411,-1.32264 0.33569,-0.59753 0.69824,-1.06079 0.36926,-0.46325 0.73852,-0.79223 0.36927,-0.32898 0.70496,-0.51697 l 0.26184,0.81909 q -0.41626,0.31555 -0.83252,0.85937 -0.40955,0.54383 -0.73853,1.32264 -0.32226,0.77209 -0.53039,1.78589 -0.20142,1.00708 -0.20142,2.26257 v 0.094 q 0,1.2555 0.20142,2.26929 0.20813,1.01379 0.53039,1.7926 0.32898,0.77881 0.73853,1.32935 0.41626,0.55725 0.83252,0.89294 l -0.26184,0.75867 q -0.33569,-0.18799 -0.71167,-0.51697 -0.36926,-0.32226 -0.73853,-0.79223 -0.36255,-0.46326 -0.69824,-1.0608 -0.32898,-0.59082 -0.58411,-1.3092 -0.24841,-0.7251 -0.40283,-1.57104 -0.1477,-0.84595 -0.1477,-1.80603 z"
             style="font-style:normal;font-variant:normal;font-weight:normal;font-stretch:normal;font-size:13.75px;line-height:1.25;font-family:'Roboto Mono';-inkscape-font-specification:'Roboto Mono'"
             id="path154" />
          <path
             d="m 246.38312,235.88434 1.94031,-2.69226 h 1.4569 l -2.70568,3.59192 2.77954,3.67248 h -1.43677 l -2.00745,-2.76611 -2.00744,2.76611 h -1.4502 l 2.77954,-3.67248 -2.70569,-3.59192 h 1.43677 z"
             style="font-style:normal;font-variant:normal;font-weight:normal;font-stretch:normal;font-size:13.75px;line-height:1.25;font-family:'Roboto Mono';-inkscape-font-specification:'Roboto Mono'"
             id="path156" />
          <path
             d="m 254.77545,240.16779 q 0,0.31555 -0.0806,0.65795 -0.0739,0.34913 -0.22828,0.68482 -0.1477,0.34241 -0.36255,0.65124 -0.21484,0.30884 -0.49682,0.55054 l -0.7721,-0.42297 q 0.32227,-0.46997 0.45655,-1.00037 0.13427,-0.53039 0.13427,-1.10107 v -1.20178 h 1.34949 z"
             style="font-style:normal;font-variant:normal;font-weight:normal;font-stretch:normal;font-size:13.75px;line-height:1.25;font-family:'Roboto Mono';-inkscape-font-specification:'Roboto Mono'"
             id="path158" />
          <path
             d="m 262.5434,237.87836 0.32226,0.87951 2.21558,-5.56579 h 1.38977 l -3.68591,8.38562 q -0.12757,0.28198 -0.32898,0.59753 -0.19471,0.31555 -0.47669,0.58411 -0.28198,0.26855 -0.65796,0.44983 -0.37597,0.18127 -0.86609,0.18127 -0.0873,0 -0.1947,-0.0134 -0.10742,-0.007 -0.21484,-0.0269 -0.10742,-0.0134 -0.20142,-0.0336 -0.094,-0.0201 -0.15442,-0.0336 l 0.20142,-1.01379 q 0.047,0 0.12756,0.007 0.0806,0.007 0.16785,0.0134 0.0873,0.007 0.16785,0.007 0.0806,0.007 0.12756,0.007 0.25513,0 0.46326,-0.141 0.21484,-0.14099 0.37597,-0.33569 0.16785,-0.1947 0.28198,-0.40283 0.12085,-0.20813 0.18799,-0.34241 l 0.49683,-0.9668 -3.12866,-6.92199 h 1.38977 z"
             style="font-style:normal;font-variant:normal;font-weight:normal;font-stretch:normal;font-size:13.75px;line-height:1.25;font-family:'Roboto Mono';-inkscape-font-specification:'Roboto Mono'"
             id="path160" />
          <path
             d="m 272.64777,236.55573 q 0,0.96008 -0.15442,1.80603 -0.14771,0.84594 -0.40283,1.57104 -0.25513,0.71838 -0.59083,1.3092 -0.32897,0.59754 -0.69824,1.0608 -0.36255,0.46997 -0.73852,0.79223 -0.36927,0.32898 -0.70496,0.51697 l -0.26184,-0.75867 q 0.41626,-0.30884 0.82581,-0.86609 0.41626,-0.55053 0.73852,-1.33606 0.32898,-0.78552 0.5304,-1.80603 0.20813,-1.0205 0.20813,-2.276 v -0.094 q 0,-1.25549 -0.21485,-2.276 -0.21484,-1.02722 -0.55725,-1.81275 -0.33569,-0.79223 -0.74524,-1.34277 -0.40283,-0.55054 -0.78552,-0.85937 l 0.26184,-0.75867 q 0.33569,0.18799 0.70496,0.51697 0.37597,0.32898 0.73852,0.79223 0.36927,0.46326 0.69824,1.06079 0.3357,0.59754 0.59083,1.32264 0.25512,0.71838 0.40283,1.56433 0.15442,0.84594 0.15442,1.80603 z"
             style="font-style:normal;font-variant:normal;font-weight:normal;font-stretch:normal;font-size:13.75px;line-height:1.25;font-family:'Roboto Mono';-inkscape-font-specification:'Roboto Mono'"
             id="path162" />
        </g>
        <path
           style="fill:#cccccc;fill-opacity:1;stroke:#000000;stroke-width:1;stroke-miterlimit:4;stroke-dasharray:none"
           d="m 287.31836,212.95898 a 30,30 0 0 0 -12.06445,24.00977 30,30 0 0 0 12.07421,24.00977 30,30 0 0 0 12.06641,-24.00977 30,30 0 0 0 -12.07617,-24.00977 z"
           transform="translate(-201.51293)"
           id="circle4526"
           inkscape:connector-curvature="0" />
      </g>
    </g>
  </g>
</svg>
