<?xml version="1.0" encoding="UTF-8" standalone="no"?>
<!-- Created with Inkscape (http://www.inkscape.org/) -->

<svg
   xmlns:dc="http://purl.org/dc/elements/1.1/"
   xmlns:cc="http://creativecommons.org/ns#"
   xmlns:rdf="http://www.w3.org/1999/02/22-rdf-syntax-ns#"
   xmlns:svg="http://www.w3.org/2000/svg"
   xmlns="http://www.w3.org/2000/svg"
   xmlns:sodipodi="http://sodipodi.sourceforge.net/DTD/sodipodi-0.dtd"
   xmlns:inkscape="http://www.inkscape.org/namespaces/inkscape"
   version="1.1"
   id="svg2"
   width="135.03761mm"
   height="31.376394mm"
   viewBox="0 0 510.37838 118.58795"
   sodipodi:docname="lists-flatten-otp.svg"
   inkscape:version="0.92.3 (2405546, 2018-03-11)">
  <metadata
     id="metadata8">
    <rdf:RDF>
      <cc:Work
         rdf:about="">
        <dc:format>image/svg+xml</dc:format>
        <dc:type
           rdf:resource="http://purl.org/dc/dcmitype/StillImage" />
        <dc:title></dc:title>
      </cc:Work>
    </rdf:RDF>
  </metadata>
  <defs
     id="defs6" />
  <sodipodi:namedview
     pagecolor="#ffffff"
     bordercolor="#666666"
     borderopacity="1"
     objecttolerance="10"
     gridtolerance="10"
     guidetolerance="10"
     inkscape:pageopacity="0"
     inkscape:pageshadow="2"
     inkscape:window-width="1600"
     inkscape:window-height="832"
     id="namedview4"
     showgrid="false"
     inkscape:zoom="2.5788382"
     inkscape:cx="146.12785"
     inkscape:cy="82.87887"
     inkscape:window-x="0"
     inkscape:window-y="32"
     inkscape:window-maximized="1"
     inkscape:current-layer="svg2"
     units="mm"
     fit-margin-top="5"
     fit-margin-left="5"
     fit-margin-bottom="5"
     fit-margin-right="5" />
  <path
     style="fill:none;fill-opacity:1;stroke:#000000;stroke-width:1.13385832;stroke-miterlimit:4;stroke-dasharray:none;paint-order:markers fill stroke"
     d="m 383.72818,61.640297 h 21.32743 v 23.266291 h -21.32743 z"
     id="rect817" />
  <g
     aria-label="1"
     style="font-style:normal;font-weight:normal;font-size:40px;line-height:1.25;font-family:sans-serif;letter-spacing:0px;word-spacing:0px;fill:#000000;fill-opacity:1;stroke:none;stroke-width:1.13385832;stroke-miterlimit:4;stroke-dasharray:none;paint-order:markers fill stroke"
     id="text821">
    <path
       d="m 396.5755,78.988289 h -1.45312 v -9.632813 l -2.91407,1.070313 v -1.3125 l 4.14063,-1.554688 h 0.22656 z"
       style="font-style:normal;font-variant:normal;font-weight:normal;font-stretch:normal;font-size:16px;font-family:Roboto;-inkscape-font-specification:Roboto;stroke-width:1.13385832;stroke-miterlimit:4;stroke-dasharray:none;paint-order:markers fill stroke"
       id="path53" />
  </g>
  <path
     style="fill:none;fill-opacity:1;stroke:#000000;stroke-width:1.13385832;stroke-miterlimit:4;stroke-dasharray:none;paint-order:markers fill stroke"
     d="m 405.05563,61.640297 h 21.32744 v 23.266291 h -21.32744 z"
     id="rect823" />
  <g
     aria-label="2"
     style="font-style:normal;font-weight:normal;font-size:40px;line-height:1.25;font-family:sans-serif;letter-spacing:0px;word-spacing:0px;fill:#000000;fill-opacity:1;stroke:none;stroke-width:1.13385832;stroke-miterlimit:4;stroke-dasharray:none;paint-order:markers fill stroke"
     id="text827">
    <path
       d="m 420.60605,78.988289 h -7.45313 v -1.039063 l 3.9375,-4.375 q 0.875,-0.992187 1.20313,-1.609375 0.33594,-0.625 0.33594,-1.289062 0,-0.890625 -0.53907,-1.460938 -0.53906,-0.570312 -1.4375,-0.570312 -1.07812,0 -1.67968,0.617187 -0.59375,0.609375 -0.59375,1.703125 h -1.44532 q 0,-1.570312 1.00782,-2.539062 1.01562,-0.96875 2.71093,-0.96875 1.58594,0 2.50782,0.835937 0.92187,0.828125 0.92187,2.210938 0,1.679687 -2.14062,4 l -3.04688,3.304687 h 5.71094 z"
       style="font-style:normal;font-variant:normal;font-weight:normal;font-stretch:normal;font-size:16px;font-family:Roboto;-inkscape-font-specification:Roboto;stroke-width:1.13385832;stroke-miterlimit:4;stroke-dasharray:none;paint-order:markers fill stroke"
       id="path57" />
  </g>
  <path
     style="fill:none;fill-opacity:1;stroke:#000000;stroke-width:1.13385832;stroke-miterlimit:4;stroke-dasharray:none;paint-order:markers fill stroke"
     d="m 426.38306,61.640297 h 21.32743 v 23.266291 h -21.32743 z"
     id="rect829" />
  <g
     aria-label="3"
     style="font-style:normal;font-weight:normal;font-size:40px;line-height:1.25;font-family:sans-serif;letter-spacing:0px;word-spacing:0px;fill:#000000;fill-opacity:1;stroke:none;stroke-width:1.13385832;stroke-miterlimit:4;stroke-dasharray:none;paint-order:markers fill stroke"
     id="text833">
    <path
       d="m 436.58194,72.597664 h 1.08594 q 1.02343,-0.01563 1.60937,-0.539063 0.58594,-0.523437 0.58594,-1.414062 0,-2 -1.99219,-2 -0.9375,0 -1.5,0.539062 -0.55469,0.53125 -0.55469,1.414063 H 434.371 q 0,-1.351563 0.98438,-2.242188 0.99218,-0.898437 2.51562,-0.898437 1.60938,0 2.52344,0.851562 0.91406,0.851563 0.91406,2.367188 0,0.742187 -0.48437,1.4375 -0.47657,0.695312 -1.30469,1.039062 0.9375,0.296875 1.44531,0.984375 0.51563,0.6875 0.51563,1.679688 0,1.53125 -1,2.429687 -1,0.898438 -2.60157,0.898438 -1.60156,0 -2.60937,-0.867188 -1,-0.867187 -1,-2.289062 h 1.45312 q 0,0.898437 0.58594,1.4375 0.58594,0.539062 1.57031,0.539062 1.04688,0 1.60157,-0.546875 0.55468,-0.546875 0.55468,-1.570312 0,-0.992188 -0.60937,-1.523438 -0.60938,-0.53125 -1.75781,-0.546875 h -1.08594 z"
       style="font-style:normal;font-variant:normal;font-weight:normal;font-stretch:normal;font-size:16px;font-family:Roboto;-inkscape-font-specification:Roboto;stroke-width:1.13385832;stroke-miterlimit:4;stroke-dasharray:none;paint-order:markers fill stroke"
       id="path61" />
  </g>
  <path
     style="fill:none;fill-opacity:1;stroke:#000000;stroke-width:1.13385832;stroke-miterlimit:4;stroke-dasharray:none;paint-order:markers fill stroke"
     d="m 447.71051,61.640297 h 21.32743 v 23.266291 h -21.32743 z"
     id="rect835" />
  <g
     aria-label="4"
     style="font-style:normal;font-weight:normal;font-size:40px;line-height:1.25;font-family:sans-serif;letter-spacing:0px;word-spacing:0px;fill:#000000;fill-opacity:1;stroke:none;stroke-width:1.13385832;stroke-miterlimit:4;stroke-dasharray:none;paint-order:markers fill stroke"
     id="text839">
    <path
       d="m 461.90936,75.167976 h 1.57813 v 1.179688 h -1.57813 v 2.640625 h -1.45312 v -2.640625 h -5.17969 v -0.851563 l 5.09375,-7.882812 h 1.53906 z m -4.99218,0 h 3.53906 v -5.578125 l -0.17188,0.3125 z"
       style="font-style:normal;font-variant:normal;font-weight:normal;font-stretch:normal;font-size:16px;font-family:Roboto;-inkscape-font-specification:Roboto;stroke-width:1.13385832;stroke-miterlimit:4;stroke-dasharray:none;paint-order:markers fill stroke"
       id="path65" />
  </g>
  <g
     aria-label="flatten_dbl(y)"
     style="font-style:normal;font-weight:normal;font-size:40px;line-height:1.25;font-family:sans-serif;letter-spacing:0px;word-spacing:0px;fill:#000000;fill-opacity:1;stroke:none;stroke-width:1.13385832;stroke-miterlimit:4;stroke-dasharray:none;paint-order:markers fill stroke"
     id="text843">
    <path
       d="m 363.61353,31.733576 v -7.335938 h -2.32813 v -1.117187 h 2.32813 v -0.59375 q 0,-0.8125 0.23437,-1.421875 0.24219,-0.617188 0.67188,-1.03125 0.4375,-0.414063 1.04687,-0.625 0.60938,-0.210938 1.35938,-0.210938 0.51562,0 1,0.08594 0.49218,0.08594 1.00781,0.21875 l -0.17188,1.195312 q -0.32031,-0.109375 -0.75,-0.1875 -0.42187,-0.08594 -0.90625,-0.08594 -1.01562,0.0078 -1.53125,0.515625 -0.50781,0.507812 -0.50781,1.546875 v 0.59375 h 3.25781 v 1.117187 h -3.25781 v 7.335938 z"
       style="font-style:normal;font-variant:normal;font-weight:normal;font-stretch:normal;font-size:16px;font-family:'Roboto Mono';-inkscape-font-specification:'Roboto Mono';stroke-width:1.13385832;stroke-miterlimit:4;stroke-dasharray:none;paint-order:markers fill stroke"
       id="path68" />
    <path
       d="m 371.30884,19.733576 h 4.32031 v 10.75 h 2.75781 v 1.25 h -7.07812 v -1.25 h 2.875 v -9.492188 h -2.875 z"
       style="font-style:normal;font-variant:normal;font-weight:normal;font-stretch:normal;font-size:16px;font-family:'Roboto Mono';-inkscape-font-specification:'Roboto Mono';stroke-width:1.13385832;stroke-miterlimit:4;stroke-dasharray:none;paint-order:markers fill stroke"
       id="path70" />
    <path
       d="m 386.23071,31.733576 q -0.0859,-0.164063 -0.14062,-0.40625 -0.0469,-0.25 -0.0703,-0.515625 -0.21875,0.21875 -0.49219,0.414062 -0.26563,0.195313 -0.59375,0.34375 -0.32031,0.148438 -0.6875,0.234375 -0.36719,0.08594 -0.78125,0.08594 -0.67188,0 -1.21875,-0.195313 -0.53906,-0.195312 -0.92188,-0.523437 -0.375,-0.335938 -0.58593,-0.789063 -0.20313,-0.460937 -0.20313,-0.992187 0,-0.695313 0.27344,-1.21875 0.28125,-0.523438 0.78906,-0.867188 0.50781,-0.351562 1.21875,-0.523437 0.71875,-0.171875 1.60156,-0.171875 h 1.57813 v -0.664063 q 0,-0.382812 -0.14063,-0.6875 -0.14062,-0.304687 -0.39843,-0.515625 -0.25782,-0.21875 -0.63282,-0.335937 -0.36718,-0.117188 -0.82812,-0.117188 -0.42969,0 -0.77344,0.109375 -0.33594,0.109375 -0.57031,0.289063 -0.23438,0.179687 -0.36719,0.429687 -0.125,0.242188 -0.125,0.507813 h -1.45312 q 0.008,-0.460938 0.23437,-0.90625 0.23438,-0.445313 0.66406,-0.796875 0.4375,-0.359375 1.05469,-0.578125 0.625,-0.21875 1.41406,-0.21875 0.71875,0 1.33594,0.179687 0.61719,0.171875 1.0625,0.53125 0.45313,0.351563 0.71094,0.882813 0.25781,0.53125 0.25781,1.242187 v 3.929688 q 0,0.421875 0.0781,0.898437 0.0781,0.46875 0.21875,0.820313 v 0.125 z m -2.55468,-1.101563 q 0.42187,0 0.78906,-0.109375 0.36719,-0.109375 0.66406,-0.289062 0.30469,-0.179688 0.52344,-0.40625 0.21875,-0.234375 0.34375,-0.484375 v -1.710938 h -1.34375 q -1.26563,0 -1.96875,0.375 -0.70313,0.375 -0.70313,1.179688 0,0.3125 0.10157,0.578125 0.10937,0.265625 0.32031,0.460937 0.21094,0.1875 0.53125,0.296875 0.32031,0.109375 0.74219,0.109375 z"
       style="font-style:normal;font-variant:normal;font-weight:normal;font-stretch:normal;font-size:16px;font-family:'Roboto Mono';-inkscape-font-specification:'Roboto Mono';stroke-width:1.13385832;stroke-miterlimit:4;stroke-dasharray:none;paint-order:markers fill stroke"
       id="path72" />
    <path
       d="m 393.69165,21.233576 v 2.046875 h 3.21875 v 1.117187 h -3.21875 v 4.59375 q 0,0.492188 0.125,0.8125 0.125,0.320313 0.34375,0.515625 0.21875,0.1875 0.5,0.265625 0.28906,0.07813 0.60938,0.07813 0.23437,0 0.48437,-0.02344 0.25,-0.03125 0.48438,-0.07031 0.24218,-0.03906 0.44531,-0.07813 0.21094,-0.04687 0.34375,-0.07813 l 0.20312,1.023438 q -0.17968,0.109375 -0.4375,0.195312 -0.25781,0.07813 -0.5625,0.132813 -0.30468,0.0625 -0.64843,0.09375 -0.33594,0.03125 -0.67188,0.03125 -0.5625,0 -1.05469,-0.15625 -0.48437,-0.164063 -0.84375,-0.507813 -0.35937,-0.351562 -0.57031,-0.898437 -0.20312,-0.554688 -0.20312,-1.335938 v -4.59375 h -2.21875 v -1.117187 h 2.21875 v -2.046875 z"
       style="font-style:normal;font-variant:normal;font-weight:normal;font-stretch:normal;font-size:16px;font-family:'Roboto Mono';-inkscape-font-specification:'Roboto Mono';stroke-width:1.13385832;stroke-miterlimit:4;stroke-dasharray:none;paint-order:markers fill stroke"
       id="path74" />
    <path
       d="m 403.2854,21.233576 v 2.046875 h 3.21875 v 1.117187 h -3.21875 v 4.59375 q 0,0.492188 0.125,0.8125 0.125,0.320313 0.34375,0.515625 0.21875,0.1875 0.5,0.265625 0.28906,0.07813 0.60938,0.07813 0.23437,0 0.48437,-0.02344 0.25,-0.03125 0.48438,-0.07031 0.24218,-0.03906 0.44531,-0.07813 0.21094,-0.04687 0.34375,-0.07813 l 0.20312,1.023438 q -0.17968,0.109375 -0.4375,0.195312 -0.25781,0.07813 -0.5625,0.132813 -0.30468,0.0625 -0.64843,0.09375 -0.33594,0.03125 -0.67188,0.03125 -0.5625,0 -1.05469,-0.15625 -0.48437,-0.164063 -0.84375,-0.507813 -0.35937,-0.351562 -0.57031,-0.898437 -0.20312,-0.554688 -0.20312,-1.335938 v -4.59375 h -2.21875 v -1.117187 h 2.21875 v -2.046875 z"
       style="font-style:normal;font-variant:normal;font-weight:normal;font-stretch:normal;font-size:16px;font-family:'Roboto Mono';-inkscape-font-specification:'Roboto Mono';stroke-width:1.13385832;stroke-miterlimit:4;stroke-dasharray:none;paint-order:markers fill stroke"
       id="path76" />
    <path
       d="m 413.19165,31.889826 q -0.89062,0 -1.64062,-0.304688 -0.74219,-0.304687 -1.27344,-0.851562 -0.53125,-0.546875 -0.82813,-1.296875 -0.29687,-0.75 -0.29687,-1.632813 v -0.328125 q 0,-1.023437 0.32812,-1.828125 0.32813,-0.8125 0.86719,-1.367187 0.54688,-0.5625 1.23438,-0.859375 0.69531,-0.296875 1.42187,-0.296875 0.91406,0 1.59375,0.320312 0.6875,0.3125 1.14063,0.875 0.45312,0.554688 0.67187,1.3125 0.22656,0.757813 0.22656,1.640625 v 0.648438 h -6.03906 q 0.0234,0.578125 0.21875,1.085937 0.20313,0.507813 0.54688,0.890625 0.35156,0.375 0.83593,0.59375 0.48438,0.21875 1.07032,0.21875 0.77343,0 1.375,-0.3125 0.60156,-0.3125 1,-0.828125 l 0.88281,0.6875 q -0.21094,0.320313 -0.53125,0.617188 -0.3125,0.289062 -0.72656,0.515625 -0.41407,0.226562 -0.9375,0.359375 -0.52344,0.140625 -1.14063,0.140625 z m -0.1875,-7.578125 q -0.4375,0 -0.82812,0.164062 -0.39063,0.15625 -0.70313,0.46875 -0.3125,0.304688 -0.53125,0.757813 -0.21094,0.445312 -0.29687,1.03125 h 4.54687 v -0.109375 q -0.0234,-0.421875 -0.16406,-0.835938 -0.13281,-0.414062 -0.39844,-0.742187 -0.26562,-0.328125 -0.67187,-0.53125 -0.39844,-0.203125 -0.95313,-0.203125 z"
       style="font-style:normal;font-variant:normal;font-weight:normal;font-stretch:normal;font-size:16px;font-family:'Roboto Mono';-inkscape-font-specification:'Roboto Mono';stroke-width:1.13385832;stroke-miterlimit:4;stroke-dasharray:none;paint-order:markers fill stroke"
       id="path78" />
    <path
       d="m 420.3479,23.280451 0.10156,1.25 q 0.46094,-0.65625 1.13282,-1.023438 0.67187,-0.375 1.5,-0.382812 0.66406,0 1.20312,0.1875 0.54688,0.1875 0.92969,0.585937 0.38281,0.398438 0.58594,1.015625 0.21093,0.609375 0.21093,1.453125 v 5.367188 h -1.44531 v -5.335938 q 0,-0.5625 -0.125,-0.953125 -0.125,-0.390625 -0.375,-0.632812 -0.24219,-0.242188 -0.60156,-0.351563 -0.35156,-0.109375 -0.8125,-0.109375 -0.72656,0 -1.28125,0.367188 -0.54688,0.359375 -0.875,0.953125 v 6.0625 h -1.44531 v -8.453125 z"
       style="font-style:normal;font-variant:normal;font-weight:normal;font-stretch:normal;font-size:16px;font-family:'Roboto Mono';-inkscape-font-specification:'Roboto Mono';stroke-width:1.13385832;stroke-miterlimit:4;stroke-dasharray:none;paint-order:markers fill stroke"
       id="path80" />
    <path
       d="m 435.6604,32.913263 h -7.16406 v -1.179687 h 7.16406 z"
       style="font-style:normal;font-variant:normal;font-weight:normal;font-stretch:normal;font-size:16px;font-family:'Roboto Mono';-inkscape-font-specification:'Roboto Mono';stroke-width:1.13385832;stroke-miterlimit:4;stroke-dasharray:none;paint-order:markers fill stroke"
       id="path82" />
    <path
       d="m 437.96509,27.436701 q 0,-0.945313 0.23437,-1.734375 0.24219,-0.796875 0.67969,-1.367188 0.44531,-0.570312 1.07031,-0.890625 0.625,-0.320312 1.39844,-0.320312 0.75781,0 1.32031,0.257812 0.57032,0.25 0.98438,0.734375 v -4.382812 h 1.44531 v 12 h -1.32812 l -0.0625,-0.890625 q -0.42188,0.515625 -1.00782,0.78125 -0.58593,0.265625 -1.36718,0.265625 -0.76563,0 -1.39063,-0.328125 -0.61719,-0.328125 -1.05469,-0.90625 -0.4375,-0.578125 -0.67968,-1.359375 -0.24219,-0.789063 -0.24219,-1.695313 z m 1.44531,0.164062 q 0,0.617188 0.13281,1.171875 0.13282,0.554688 0.40625,0.976563 0.28125,0.421875 0.71094,0.671875 0.42969,0.242187 1.03125,0.242187 0.36719,0 0.66406,-0.08594 0.29688,-0.08594 0.53907,-0.242188 0.24218,-0.164062 0.42968,-0.382812 0.1875,-0.226563 0.32813,-0.5 v -3.921875 q -0.28125,-0.515625 -0.75781,-0.84375 -0.47657,-0.335938 -1.1875,-0.335938 -0.60938,0 -1.04688,0.25 -0.42969,0.25 -0.71094,0.679688 -0.27343,0.421875 -0.40625,0.984375 -0.13281,0.554687 -0.13281,1.171875 z"
       style="font-style:normal;font-variant:normal;font-weight:normal;font-stretch:normal;font-size:16px;font-family:'Roboto Mono';-inkscape-font-specification:'Roboto Mono';stroke-width:1.13385832;stroke-miterlimit:4;stroke-dasharray:none;paint-order:markers fill stroke"
       id="path84" />
    <path
       d="m 454.99634,27.600763 q 0,0.90625 -0.21875,1.695313 -0.21875,0.78125 -0.64063,1.359375 -0.42187,0.578125 -1.04687,0.90625 -0.61719,0.328125 -1.42188,0.328125 -0.8125,0 -1.41406,-0.289063 -0.59375,-0.289062 -1.01562,-0.828125 l -0.0703,0.960938 h -1.32812 v -12 h 1.44531 v 4.453125 q 0.41406,-0.515625 1,-0.789063 0.58594,-0.273437 1.36719,-0.273437 0.8125,0 1.4375,0.320312 0.625,0.320313 1.04687,0.890625 0.42188,0.570313 0.64063,1.367188 0.21875,0.789062 0.21875,1.734375 z m -1.44531,-0.164062 q 0,-0.617188 -0.125,-1.171875 -0.11719,-0.5625 -0.38282,-0.984375 -0.26562,-0.429688 -0.69531,-0.679688 -0.42969,-0.25 -1.05469,-0.25 -0.375,0 -0.6875,0.101563 -0.3125,0.09375 -0.5625,0.273437 -0.24218,0.171875 -0.4375,0.414063 -0.1875,0.234375 -0.32031,0.515625 v 3.695312 q 0.14063,0.28125 0.32813,0.523438 0.19531,0.234375 0.44531,0.414062 0.25,0.179688 0.5625,0.28125 0.3125,0.09375 0.6875,0.09375 0.59375,0 1.01562,-0.242187 0.42969,-0.25 0.69532,-0.671875 0.27343,-0.421875 0.39843,-0.976563 0.13282,-0.554687 0.13282,-1.171875 z"
       style="font-style:normal;font-variant:normal;font-weight:normal;font-stretch:normal;font-size:16px;font-family:'Roboto Mono';-inkscape-font-specification:'Roboto Mono';stroke-width:1.13385832;stroke-miterlimit:4;stroke-dasharray:none;paint-order:markers fill stroke"
       id="path86" />
    <path
       d="m 457.65259,19.733576 h 4.32031 v 10.75 h 2.75781 v 1.25 h -7.07812 v -1.25 h 2.875 v -9.492188 h -2.875 z"
       style="font-style:normal;font-variant:normal;font-weight:normal;font-stretch:normal;font-size:16px;font-family:'Roboto Mono';-inkscape-font-specification:'Roboto Mono';stroke-width:1.13385832;stroke-miterlimit:4;stroke-dasharray:none;paint-order:markers fill stroke"
       id="path88" />
    <path
       d="m 468.44946,27.116388 q 0,-1.117187 0.17188,-2.101562 0.17969,-0.984375 0.47656,-1.820313 0.29688,-0.84375 0.67969,-1.539062 0.39062,-0.695313 0.8125,-1.234375 0.42969,-0.539063 0.85937,-0.921875 0.42969,-0.382813 0.82032,-0.601563 l 0.30468,0.953125 q -0.48437,0.367188 -0.96875,1 -0.47656,0.632813 -0.85937,1.539063 -0.375,0.898437 -0.61719,2.078125 -0.23437,1.171875 -0.23437,2.632812 v 0.109375 q 0,1.460938 0.23437,2.640625 0.24219,1.179688 0.61719,2.085938 0.38281,0.90625 0.85937,1.546875 0.48438,0.648437 0.96875,1.039062 l -0.30468,0.882813 q -0.39063,-0.21875 -0.82813,-0.601563 -0.42969,-0.375 -0.85937,-0.921875 -0.42188,-0.539062 -0.8125,-1.234375 -0.38282,-0.6875 -0.67969,-1.523437 -0.28906,-0.84375 -0.46875,-1.828125 -0.17188,-0.984375 -0.17188,-2.101563 z"
       style="font-style:normal;font-variant:normal;font-weight:normal;font-stretch:normal;font-size:16px;font-family:'Roboto Mono';-inkscape-font-specification:'Roboto Mono';stroke-width:1.13385832;stroke-miterlimit:4;stroke-dasharray:none;paint-order:markers fill stroke"
       id="path90" />
    <path
       d="m 479.7229,28.733576 0.375,1.023437 2.57813,-6.476562 h 1.61718 l -4.28906,9.757812 q -0.14844,0.328125 -0.38281,0.695313 -0.22656,0.367187 -0.55469,0.679687 -0.32812,0.3125 -0.76562,0.523438 -0.4375,0.210937 -1.00782,0.210937 -0.10156,0 -0.22656,-0.01563 -0.125,-0.0078 -0.25,-0.03125 -0.125,-0.01563 -0.23437,-0.03906 -0.10938,-0.02344 -0.17969,-0.03906 l 0.23437,-1.179687 q 0.0547,0 0.14844,0.0078 0.0937,0.0078 0.19531,0.01563 0.10157,0.0078 0.19532,0.0078 0.0937,0.0078 0.14843,0.0078 0.29688,0 0.53907,-0.164062 0.25,-0.164063 0.4375,-0.390625 0.19531,-0.226563 0.32812,-0.46875 0.14063,-0.242188 0.21875,-0.398438 l 0.57813,-1.125 -3.64063,-8.054687 h 1.61719 z"
       style="font-style:normal;font-variant:normal;font-weight:normal;font-stretch:normal;font-size:16px;font-family:'Roboto Mono';-inkscape-font-specification:'Roboto Mono';stroke-width:1.13385832;stroke-miterlimit:4;stroke-dasharray:none;paint-order:markers fill stroke"
       id="path92" />
    <path
       d="m 491.48071,27.194513 q 0,1.117188 -0.17968,2.101563 -0.17188,0.984375 -0.46875,1.828125 -0.29688,0.835937 -0.6875,1.523437 -0.38282,0.695313 -0.8125,1.234375 -0.42188,0.546875 -0.85938,0.921875 -0.42969,0.382813 -0.82031,0.601563 l -0.30469,-0.882813 q 0.48438,-0.359375 0.96094,-1.007812 0.48437,-0.640625 0.85937,-1.554688 0.38282,-0.914062 0.61719,-2.101562 0.24219,-1.1875 0.24219,-2.648438 v -0.109375 q 0,-1.460937 -0.25,-2.648437 -0.25,-1.195313 -0.64844,-2.109375 -0.39062,-0.921875 -0.86719,-1.5625 -0.46875,-0.640625 -0.91406,-1 l 0.30469,-0.882813 q 0.39062,0.21875 0.82031,0.601563 0.4375,0.382812 0.85938,0.921875 0.42968,0.539062 0.8125,1.234375 0.39062,0.695312 0.6875,1.539062 0.29687,0.835938 0.46875,1.820313 0.17968,0.984375 0.17968,2.101562 z"
       style="font-style:normal;font-variant:normal;font-weight:normal;font-stretch:normal;font-size:16px;font-family:'Roboto Mono';-inkscape-font-specification:'Roboto Mono';stroke-width:1.13385832;stroke-miterlimit:4;stroke-dasharray:none;paint-order:markers fill stroke"
       id="path94" />
  </g>
  <g
     aria-label="y &lt;- flatten(x)"
     style="font-style:normal;font-weight:normal;font-size:40px;line-height:1.25;font-family:sans-serif;letter-spacing:0px;word-spacing:0px;fill:#000000;fill-opacity:1;stroke:none;stroke-width:1.13385832;stroke-miterlimit:4;stroke-dasharray:none;paint-order:markers fill stroke"
     id="text887">
    <path
       d="m 198.41113,28.733576 0.375,1.023437 2.57813,-6.476562 h 1.61719 l -4.28907,9.757812 q -0.14843,0.328125 -0.38281,0.695313 -0.22656,0.367187 -0.55469,0.679687 -0.32812,0.3125 -0.76562,0.523438 -0.4375,0.210937 -1.00781,0.210937 -0.10157,0 -0.22657,-0.01563 -0.125,-0.0078 -0.25,-0.03125 -0.125,-0.01563 -0.23437,-0.03906 -0.10938,-0.02344 -0.17969,-0.03906 l 0.23438,-1.179687 q 0.0547,0 0.14843,0.0078 0.0937,0.0078 0.19532,0.01563 0.10156,0.0078 0.19531,0.0078 0.0937,0.0078 0.14844,0.0078 0.29687,0 0.53906,-0.164062 0.25,-0.164063 0.4375,-0.390625 0.19531,-0.226563 0.32812,-0.46875 0.14063,-0.242188 0.21875,-0.398438 l 0.57813,-1.125 -3.64063,-8.054687 h 1.61719 z"
       style="font-style:normal;font-variant:normal;font-weight:normal;font-stretch:normal;font-size:16px;font-family:'Roboto Mono';-inkscape-font-specification:'Roboto Mono';stroke-width:1.13385832;stroke-miterlimit:4;stroke-dasharray:none;paint-order:markers fill stroke"
       id="path97" />
    <path
       d="m 216.30176,26.553888 -0.41406,0.132813 0.41406,0.140625 4.78125,1.84375 v 1.53125 l -6.625,-2.960938 v -1.140625 l 6.625,-2.953125 v 1.53125 z"
       style="font-style:normal;font-variant:normal;font-weight:normal;font-stretch:normal;font-size:16px;font-family:'Roboto Mono';-inkscape-font-specification:'Roboto Mono';stroke-width:1.13385832;stroke-miterlimit:4;stroke-dasharray:none;paint-order:markers fill stroke"
       id="path99" />
    <path
       d="m 230.40332,27.350763 h -5.97656 v -1.1875 h 5.97656 z"
       style="font-style:normal;font-variant:normal;font-weight:normal;font-stretch:normal;font-size:16px;font-family:'Roboto Mono';-inkscape-font-specification:'Roboto Mono';stroke-width:1.13385832;stroke-miterlimit:4;stroke-dasharray:none;paint-order:markers fill stroke"
       id="path101" />
    <path
       d="m 245.45801,31.733576 v -7.335938 h -2.32813 v -1.117187 h 2.32813 v -0.59375 q 0,-0.8125 0.23437,-1.421875 0.24219,-0.617188 0.67188,-1.03125 0.4375,-0.414063 1.04687,-0.625 0.60938,-0.210938 1.35938,-0.210938 0.51562,0 1,0.08594 0.49219,0.08594 1.00781,0.21875 l -0.17187,1.195312 q -0.32032,-0.109375 -0.75,-0.1875 -0.42188,-0.08594 -0.90625,-0.08594 -1.01563,0.0078 -1.53125,0.515625 -0.50782,0.507812 -0.50782,1.546875 v 0.59375 h 3.25782 v 1.117187 h -3.25782 v 7.335938 z"
       style="font-style:normal;font-variant:normal;font-weight:normal;font-stretch:normal;font-size:16px;font-family:'Roboto Mono';-inkscape-font-specification:'Roboto Mono';stroke-width:1.13385832;stroke-miterlimit:4;stroke-dasharray:none;paint-order:markers fill stroke"
       id="path103" />
    <path
       d="m 253.15332,19.733576 h 4.32031 v 10.75 h 2.75782 v 1.25 h -7.07813 v -1.25 h 2.875 v -9.492188 h -2.875 z"
       style="font-style:normal;font-variant:normal;font-weight:normal;font-stretch:normal;font-size:16px;font-family:'Roboto Mono';-inkscape-font-specification:'Roboto Mono';stroke-width:1.13385832;stroke-miterlimit:4;stroke-dasharray:none;paint-order:markers fill stroke"
       id="path105" />
    <path
       d="m 268.0752,31.733576 q -0.0859,-0.164063 -0.14063,-0.40625 -0.0469,-0.25 -0.0703,-0.515625 -0.21875,0.21875 -0.49219,0.414062 -0.26562,0.195313 -0.59375,0.34375 -0.32031,0.148438 -0.6875,0.234375 -0.36719,0.08594 -0.78125,0.08594 -0.67187,0 -1.21875,-0.195313 -0.53906,-0.195312 -0.92187,-0.523437 -0.375,-0.335938 -0.58594,-0.789063 -0.20313,-0.460937 -0.20313,-0.992187 0,-0.695313 0.27344,-1.21875 0.28125,-0.523438 0.78906,-0.867188 0.50782,-0.351562 1.21875,-0.523437 0.71875,-0.171875 1.60157,-0.171875 h 1.57812 v -0.664063 q 0,-0.382812 -0.14062,-0.6875 -0.14063,-0.304687 -0.39844,-0.515625 -0.25781,-0.21875 -0.63281,-0.335937 -0.36719,-0.117188 -0.82813,-0.117188 -0.42969,0 -0.77344,0.109375 -0.33593,0.109375 -0.57031,0.289063 -0.23437,0.179687 -0.36719,0.429687 -0.125,0.242188 -0.125,0.507813 h -1.45312 q 0.008,-0.460938 0.23437,-0.90625 0.23438,-0.445313 0.66407,-0.796875 0.4375,-0.359375 1.05468,-0.578125 0.625,-0.21875 1.41407,-0.21875 0.71875,0 1.33593,0.179687 0.61719,0.171875 1.0625,0.53125 0.45313,0.351563 0.71094,0.882813 0.25781,0.53125 0.25781,1.242187 v 3.929688 q 0,0.421875 0.0781,0.898437 0.0781,0.46875 0.21875,0.820313 v 0.125 z m -2.55469,-1.101563 q 0.42187,0 0.78906,-0.109375 0.36719,-0.109375 0.66406,-0.289062 0.30469,-0.179688 0.52344,-0.40625 0.21875,-0.234375 0.34375,-0.484375 v -1.710938 h -1.34375 q -1.26562,0 -1.96875,0.375 -0.70312,0.375 -0.70312,1.179688 0,0.3125 0.10156,0.578125 0.10937,0.265625 0.32031,0.460937 0.21094,0.1875 0.53125,0.296875 0.32031,0.109375 0.74219,0.109375 z"
       style="font-style:normal;font-variant:normal;font-weight:normal;font-stretch:normal;font-size:16px;font-family:'Roboto Mono';-inkscape-font-specification:'Roboto Mono';stroke-width:1.13385832;stroke-miterlimit:4;stroke-dasharray:none;paint-order:markers fill stroke"
       id="path107" />
    <path
       d="m 275.53613,21.233576 v 2.046875 h 3.21875 v 1.117187 h -3.21875 v 4.59375 q 0,0.492188 0.125,0.8125 0.125,0.320313 0.34375,0.515625 0.21875,0.1875 0.5,0.265625 0.28907,0.07813 0.60938,0.07813 0.23437,0 0.48437,-0.02344 0.25,-0.03125 0.48438,-0.07031 0.24219,-0.03906 0.44531,-0.07813 0.21094,-0.04687 0.34375,-0.07813 l 0.20313,1.023438 q -0.17969,0.109375 -0.4375,0.195312 -0.25782,0.07813 -0.5625,0.132813 -0.30469,0.0625 -0.64844,0.09375 -0.33594,0.03125 -0.67188,0.03125 -0.5625,0 -1.05468,-0.15625 -0.48438,-0.164063 -0.84375,-0.507813 -0.35938,-0.351562 -0.57032,-0.898437 -0.20312,-0.554688 -0.20312,-1.335938 v -4.59375 h -2.21875 v -1.117187 h 2.21875 v -2.046875 z"
       style="font-style:normal;font-variant:normal;font-weight:normal;font-stretch:normal;font-size:16px;font-family:'Roboto Mono';-inkscape-font-specification:'Roboto Mono';stroke-width:1.13385832;stroke-miterlimit:4;stroke-dasharray:none;paint-order:markers fill stroke"
       id="path109" />
    <path
       d="m 285.12988,21.233576 v 2.046875 h 3.21875 v 1.117187 h -3.21875 v 4.59375 q 0,0.492188 0.125,0.8125 0.125,0.320313 0.34375,0.515625 0.21875,0.1875 0.5,0.265625 0.28907,0.07813 0.60938,0.07813 0.23437,0 0.48437,-0.02344 0.25,-0.03125 0.48438,-0.07031 0.24219,-0.03906 0.44531,-0.07813 0.21094,-0.04687 0.34375,-0.07813 l 0.20313,1.023438 q -0.17969,0.109375 -0.4375,0.195312 -0.25782,0.07813 -0.5625,0.132813 -0.30469,0.0625 -0.64844,0.09375 -0.33594,0.03125 -0.67188,0.03125 -0.5625,0 -1.05468,-0.15625 -0.48438,-0.164063 -0.84375,-0.507813 -0.35938,-0.351562 -0.57032,-0.898437 -0.20312,-0.554688 -0.20312,-1.335938 v -4.59375 h -2.21875 v -1.117187 h 2.21875 v -2.046875 z"
       style="font-style:normal;font-variant:normal;font-weight:normal;font-stretch:normal;font-size:16px;font-family:'Roboto Mono';-inkscape-font-specification:'Roboto Mono';stroke-width:1.13385832;stroke-miterlimit:4;stroke-dasharray:none;paint-order:markers fill stroke"
       id="path111" />
    <path
       d="m 295.03613,31.889826 q -0.89062,0 -1.64062,-0.304688 -0.74219,-0.304687 -1.27344,-0.851562 -0.53125,-0.546875 -0.82812,-1.296875 -0.29688,-0.75 -0.29688,-1.632813 v -0.328125 q 0,-1.023437 0.32813,-1.828125 0.32812,-0.8125 0.86718,-1.367187 0.54688,-0.5625 1.23438,-0.859375 0.69531,-0.296875 1.42187,-0.296875 0.91407,0 1.59375,0.320312 0.6875,0.3125 1.14063,0.875 0.45312,0.554688 0.67187,1.3125 0.22657,0.757813 0.22657,1.640625 v 0.648438 h -6.03907 q 0.0234,0.578125 0.21875,1.085937 0.20313,0.507813 0.54688,0.890625 0.35156,0.375 0.83594,0.59375 0.48437,0.21875 1.07031,0.21875 0.77344,0 1.375,-0.3125 0.60156,-0.3125 1,-0.828125 l 0.88281,0.6875 q -0.21094,0.320313 -0.53125,0.617188 -0.3125,0.289062 -0.72656,0.515625 -0.41406,0.226562 -0.9375,0.359375 -0.52344,0.140625 -1.14063,0.140625 z m -0.1875,-7.578125 q -0.4375,0 -0.82812,0.164062 -0.39063,0.15625 -0.70313,0.46875 -0.3125,0.304688 -0.53125,0.757813 -0.21093,0.445312 -0.29687,1.03125 h 4.54687 v -0.109375 q -0.0234,-0.421875 -0.16406,-0.835938 -0.13281,-0.414062 -0.39844,-0.742187 -0.26562,-0.328125 -0.67187,-0.53125 -0.39844,-0.203125 -0.95313,-0.203125 z"
       style="font-style:normal;font-variant:normal;font-weight:normal;font-stretch:normal;font-size:16px;font-family:'Roboto Mono';-inkscape-font-specification:'Roboto Mono';stroke-width:1.13385832;stroke-miterlimit:4;stroke-dasharray:none;paint-order:markers fill stroke"
       id="path113" />
    <path
       d="m 302.19238,23.280451 0.10157,1.25 q 0.46093,-0.65625 1.13281,-1.023438 0.67187,-0.375 1.5,-0.382812 0.66406,0 1.20312,0.1875 0.54688,0.1875 0.92969,0.585937 0.38281,0.398438 0.58594,1.015625 0.21094,0.609375 0.21094,1.453125 v 5.367188 h -1.44532 v -5.335938 q 0,-0.5625 -0.125,-0.953125 -0.125,-0.390625 -0.375,-0.632812 -0.24218,-0.242188 -0.60156,-0.351563 -0.35156,-0.109375 -0.8125,-0.109375 -0.72656,0 -1.28125,0.367188 -0.54687,0.359375 -0.875,0.953125 v 6.0625 h -1.44531 v -8.453125 z"
       style="font-style:normal;font-variant:normal;font-weight:normal;font-stretch:normal;font-size:16px;font-family:'Roboto Mono';-inkscape-font-specification:'Roboto Mono';stroke-width:1.13385832;stroke-miterlimit:4;stroke-dasharray:none;paint-order:markers fill stroke"
       id="path115" />
    <path
       d="m 311.91895,27.116388 q 0,-1.117187 0.17187,-2.101562 0.17969,-0.984375 0.47656,-1.820313 0.29688,-0.84375 0.67969,-1.539062 0.39063,-0.695313 0.8125,-1.234375 0.42969,-0.539063 0.85938,-0.921875 0.42968,-0.382813 0.82031,-0.601563 l 0.30469,0.953125 q -0.48438,0.367188 -0.96875,1 -0.47657,0.632813 -0.85938,1.539063 -0.375,0.898437 -0.61719,2.078125 -0.23437,1.171875 -0.23437,2.632812 v 0.109375 q 0,1.460938 0.23437,2.640625 0.24219,1.179688 0.61719,2.085938 0.38281,0.90625 0.85938,1.546875 0.48437,0.648437 0.96875,1.039062 l -0.30469,0.882813 q -0.39063,-0.21875 -0.82813,-0.601563 -0.42968,-0.375 -0.85937,-0.921875 -0.42188,-0.539062 -0.8125,-1.234375 -0.38281,-0.6875 -0.67969,-1.523437 -0.28906,-0.84375 -0.46875,-1.828125 -0.17187,-0.984375 -0.17187,-2.101563 z"
       style="font-style:normal;font-variant:normal;font-weight:normal;font-stretch:normal;font-size:16px;font-family:'Roboto Mono';-inkscape-font-specification:'Roboto Mono';stroke-width:1.13385832;stroke-miterlimit:4;stroke-dasharray:none;paint-order:markers fill stroke"
       id="path117" />
    <path
       d="m 323.5752,26.413263 2.25781,-3.132812 h 1.69531 l -3.14844,4.179687 3.23438,4.273438 h -1.67188 l -2.33593,-3.21875 -2.33594,3.21875 h -1.6875 l 3.23437,-4.273438 -3.14843,-4.179687 h 1.67187 z"
       style="font-style:normal;font-variant:normal;font-weight:normal;font-stretch:normal;font-size:16px;font-family:'Roboto Mono';-inkscape-font-specification:'Roboto Mono';stroke-width:1.13385832;stroke-miterlimit:4;stroke-dasharray:none;paint-order:markers fill stroke"
       id="path119" />
    <path
       d="m 334.9502,27.194513 q 0,1.117188 -0.17969,2.101563 -0.17188,0.984375 -0.46875,1.828125 -0.29688,0.835937 -0.6875,1.523437 -0.38281,0.695313 -0.8125,1.234375 -0.42188,0.546875 -0.85938,0.921875 -0.42968,0.382813 -0.82031,0.601563 l -0.30469,-0.882813 q 0.48438,-0.359375 0.96094,-1.007812 0.48438,-0.640625 0.85938,-1.554688 0.38281,-0.914062 0.61718,-2.101562 0.24219,-1.1875 0.24219,-2.648438 v -0.109375 q 0,-1.460937 -0.25,-2.648437 -0.25,-1.195313 -0.64844,-2.109375 -0.39062,-0.921875 -0.86718,-1.5625 -0.46875,-0.640625 -0.91407,-1 l 0.30469,-0.882813 q 0.39063,0.21875 0.82031,0.601563 0.4375,0.382812 0.85938,0.921875 0.42969,0.539062 0.8125,1.234375 0.39062,0.695312 0.6875,1.539062 0.29687,0.835938 0.46875,1.820313 0.17969,0.984375 0.17969,2.101562 z"
       style="font-style:normal;font-variant:normal;font-weight:normal;font-stretch:normal;font-size:16px;font-family:'Roboto Mono';-inkscape-font-specification:'Roboto Mono';stroke-width:1.13385832;stroke-miterlimit:4;stroke-dasharray:none;paint-order:markers fill stroke"
       id="path121" />
  </g>
  <path
     style="fill:#ebebeb;fill-opacity:1;stroke:#000000;stroke-width:1.13385832;stroke-miterlimit:4;stroke-dasharray:none;paint-order:markers fill stroke"
     d="m 222.05705,61.640282 h 21.32744 v 23.26629 h -21.32744 z"
     id="rect859" />
  <g
     aria-label="1"
     style="font-style:normal;font-weight:normal;font-size:40px;line-height:1.25;font-family:sans-serif;letter-spacing:0px;word-spacing:0px;fill:#000000;fill-opacity:1;stroke:none;stroke-width:1.13385832;stroke-miterlimit:4;stroke-dasharray:none;paint-order:markers fill stroke"
     id="text863">
    <path
       d="m 234.90436,78.988274 h -1.45313 v -9.632813 l -2.91406,1.070313 v -1.3125 l 4.14063,-1.554688 h 0.22656 z"
       style="font-style:normal;font-variant:normal;font-weight:normal;font-stretch:normal;font-size:16px;font-family:Roboto;-inkscape-font-specification:Roboto;stroke-width:1.13385832;stroke-miterlimit:4;stroke-dasharray:none;paint-order:markers fill stroke"
       id="path125" />
  </g>
  <path
     style="fill:#ebebeb;fill-opacity:1;stroke:#000000;stroke-width:1.13385832;stroke-miterlimit:4;stroke-dasharray:none;paint-order:markers fill stroke"
     d="m 243.38449,61.640282 h 21.32743 v 23.26629 h -21.32743 z"
     id="rect865" />
  <g
     aria-label="2"
     style="font-style:normal;font-weight:normal;font-size:40px;line-height:1.25;font-family:sans-serif;letter-spacing:0px;word-spacing:0px;fill:#000000;fill-opacity:1;stroke:none;stroke-width:1.13385832;stroke-miterlimit:4;stroke-dasharray:none;paint-order:markers fill stroke"
     id="text869">
    <path
       d="m 258.93492,78.988274 h -7.45312 v -1.039063 l 3.9375,-4.375 q 0.875,-0.992187 1.20312,-1.609375 0.33594,-0.625 0.33594,-1.289062 0,-0.890625 -0.53906,-1.460938 -0.53907,-0.570312 -1.4375,-0.570312 -1.07813,0 -1.67969,0.617187 -0.59375,0.609375 -0.59375,1.703125 h -1.44531 q 0,-1.570312 1.00781,-2.539062 1.01562,-0.96875 2.71094,-0.96875 1.58593,0 2.50781,0.835937 0.92187,0.828125 0.92187,2.210938 0,1.679687 -2.14062,4 l -3.04688,3.304687 h 5.71094 z"
       style="font-style:normal;font-variant:normal;font-weight:normal;font-stretch:normal;font-size:16px;font-family:Roboto;-inkscape-font-specification:Roboto;stroke-width:1.13385832;stroke-miterlimit:4;stroke-dasharray:none;paint-order:markers fill stroke"
       id="path129" />
  </g>
  <path
     style="fill:#ebebeb;fill-opacity:1;stroke:#000000;stroke-width:1.13385832;stroke-miterlimit:4;stroke-dasharray:none;paint-order:markers fill stroke"
     d="m 264.71194,61.640282 h 21.32744 v 23.26629 h -21.32744 z"
     id="rect871" />
  <g
     aria-label="3"
     style="font-style:normal;font-weight:normal;font-size:40px;line-height:1.25;font-family:sans-serif;letter-spacing:0px;word-spacing:0px;fill:#000000;fill-opacity:1;stroke:none;stroke-width:1.13385832;stroke-miterlimit:4;stroke-dasharray:none;paint-order:markers fill stroke"
     id="text875">
    <path
       d="m 274.9108,72.597649 h 1.08593 q 1.02344,-0.01563 1.60938,-0.539063 0.58594,-0.523437 0.58594,-1.414062 0,-2 -1.99219,-2 -0.9375,0 -1.5,0.539062 -0.55469,0.53125 -0.55469,1.414063 h -1.44531 q 0,-1.351563 0.98437,-2.242188 0.99219,-0.898437 2.51563,-0.898437 1.60937,0 2.52344,0.851562 0.91406,0.851563 0.91406,2.367188 0,0.742187 -0.48438,1.4375 -0.47656,0.695312 -1.30468,1.039062 0.9375,0.296875 1.44531,0.984375 0.51562,0.6875 0.51562,1.679688 0,1.53125 -1,2.429687 -1,0.898438 -2.60156,0.898438 -1.60156,0 -2.60937,-0.867188 -1,-0.867187 -1,-2.289062 h 1.45312 q 0,0.898437 0.58594,1.4375 0.58594,0.539062 1.57031,0.539062 1.04688,0 1.60156,-0.546875 0.55469,-0.546875 0.55469,-1.570312 0,-0.992188 -0.60937,-1.523438 -0.60938,-0.53125 -1.75782,-0.546875 h -1.08593 z"
       style="font-style:normal;font-variant:normal;font-weight:normal;font-stretch:normal;font-size:16px;font-family:Roboto;-inkscape-font-specification:Roboto;stroke-width:1.13385832;stroke-miterlimit:4;stroke-dasharray:none;paint-order:markers fill stroke"
       id="path133" />
  </g>
  <path
     style="fill:#ebebeb;fill-opacity:1;stroke:#000000;stroke-width:1.13385832;stroke-miterlimit:4;stroke-dasharray:none;paint-order:markers fill stroke"
     d="m 286.03937,61.640282 h 21.32743 v 23.26629 h -21.32743 z"
     id="rect877" />
  <g
     aria-label="4"
     style="font-style:normal;font-weight:normal;font-size:40px;line-height:1.25;font-family:sans-serif;letter-spacing:0px;word-spacing:0px;fill:#000000;fill-opacity:1;stroke:none;stroke-width:1.13385832;stroke-miterlimit:4;stroke-dasharray:none;paint-order:markers fill stroke"
     id="text881">
    <path
       d="m 300.23822,75.167961 h 1.57813 v 1.179688 h -1.57813 v 2.640625 h -1.45312 v -2.640625 h -5.17969 v -0.851563 l 5.09375,-7.882812 h 1.53906 z m -4.99219,0 h 3.53907 v -5.578125 l -0.17188,0.3125 z"
       style="font-style:normal;font-variant:normal;font-weight:normal;font-stretch:normal;font-size:16px;font-family:Roboto;-inkscape-font-specification:Roboto;stroke-width:1.13385832;stroke-miterlimit:4;stroke-dasharray:none;paint-order:markers fill stroke"
       id="path137" />
  </g>
  <path
     style="fill:none;fill-opacity:1;stroke:#000000;stroke-width:1.13385832;stroke-miterlimit:4;stroke-dasharray:none;paint-order:markers fill stroke"
     d="m 217.58259,53.531334 h 94.25867 c 3.81336,0 6.88331,3.031217 6.88331,6.796451 v 25.891301 c 0,3.765234 -3.06995,6.796451 -6.88331,6.796451 h -94.25867 c -3.81336,0 -6.88331,-3.031217 -6.88331,-6.796451 V 60.327785 c 0,-3.765234 3.06995,-6.796451 6.88331,-6.796451 z"
     id="rect889" />
  <g
     aria-label="x"
     style="font-style:normal;font-weight:normal;font-size:40px;line-height:1.25;font-family:sans-serif;letter-spacing:0px;word-spacing:0px;fill:#000000;fill-opacity:1;stroke:none;stroke-width:1.13385832;stroke-miterlimit:4;stroke-dasharray:none;paint-order:markers fill stroke"
     id="text919">
    <path
       d="m 93.494606,26.413263 2.257813,-3.132812 h 1.695312 l -3.148437,4.179687 3.234375,4.273438 h -1.671875 l -2.335938,-3.21875 -2.335937,3.21875 h -1.6875 l 3.234375,-4.273438 -3.148438,-4.179687 h 1.671875 z"
       style="font-style:normal;font-variant:normal;font-weight:normal;font-stretch:normal;font-size:16px;font-family:'Roboto Mono';-inkscape-font-specification:'Roboto Mono';stroke-width:1.13385832;stroke-miterlimit:4;stroke-dasharray:none;paint-order:markers fill stroke"
       id="path141" />
  </g>
  <path
     style="fill:none;fill-opacity:1;stroke:#000000;stroke-width:1.13385832;stroke-miterlimit:4;stroke-dasharray:none;paint-order:markers fill stroke"
     d="M 28.901853,47.4235 H 158.13422 c 5.22825,0 9.43728,3.969019 9.43728,8.899145 v 33.901589 c 0,4.930126 -4.20903,8.899145 -9.43728,8.899145 H 28.901853 c -5.228257,0 -9.437286,-3.969019 -9.437286,-8.899145 V 56.322645 c 0,-4.930126 4.209029,-8.899145 9.437286,-8.899145 z"
     id="rect923" />
  <path
     style="fill:#ebebeb;fill-opacity:1;stroke:#000000;stroke-width:1.13385832;stroke-miterlimit:4;stroke-dasharray:none;paint-order:markers fill stroke"
     d="m 105.24281,53.706535 h 51.00259 c 2.92507,0 5.27992,2.619542 5.27992,5.873413 v 28.00689 c 0,3.253871 -2.35485,5.873413 -5.27992,5.873413 h -51.00259 c -2.92508,0 -5.279927,-2.619542 -5.279927,-5.873413 v -28.00689 c 0,-3.253871 2.354847,-5.873413 5.279927,-5.873413 z"
     id="rect945" />
  <path
     style="fill:#d6d6d6;fill-opacity:1;stroke:#000000;stroke-width:1.13385832;stroke-miterlimit:4;stroke-dasharray:none;paint-order:markers fill stroke"
     d="m 105.76072,61.950233 h 21.32743 v 23.266291 h -21.32743 z"
     id="rect903" />
  <g
     aria-label="3"
     style="font-style:normal;font-weight:normal;font-size:40px;line-height:1.25;font-family:sans-serif;letter-spacing:0px;word-spacing:0px;fill:#000000;fill-opacity:1;stroke:none;stroke-width:1.13385832;stroke-miterlimit:4;stroke-dasharray:none;paint-order:markers fill stroke"
     id="text907">
    <path
       d="m 115.95959,72.9076 h 1.08593 q 1.02344,-0.01563 1.60938,-0.539062 0.58594,-0.523438 0.58594,-1.414063 0,-2 -1.99219,-2 -0.9375,0 -1.5,0.539063 -0.55469,0.53125 -0.55469,1.414062 h -1.44531 q 0,-1.351562 0.98437,-2.242187 0.99219,-0.898438 2.51563,-0.898438 1.60937,0 2.52344,0.851563 0.91406,0.851562 0.91406,2.367187 0,0.742188 -0.48438,1.4375 -0.47656,0.695313 -1.30468,1.039063 0.9375,0.296875 1.44531,0.984375 0.51562,0.6875 0.51562,1.679687 0,1.53125 -1,2.429688 -1,0.898437 -2.60156,0.898437 -1.60156,0 -2.60937,-0.867187 -1,-0.867188 -1,-2.289063 h 1.45312 q 0,0.898438 0.58594,1.4375 0.58594,0.539063 1.57031,0.539063 1.04688,0 1.60156,-0.546875 0.55469,-0.546875 0.55469,-1.570313 0,-0.992187 -0.60937,-1.523437 -0.60938,-0.53125 -1.75782,-0.546875 h -1.08593 z"
       style="font-style:normal;font-variant:normal;font-weight:normal;font-stretch:normal;font-size:16px;font-family:Roboto;-inkscape-font-specification:Roboto;stroke-width:1.13385832;stroke-miterlimit:4;stroke-dasharray:none;paint-order:markers fill stroke"
       id="path147" />
  </g>
  <path
     style="fill:#d6d6d6;fill-opacity:1;stroke:#000000;stroke-width:1.13385832;stroke-miterlimit:4;stroke-dasharray:none;paint-order:markers fill stroke"
     d="m 134.40005,61.950233 h 21.32744 v 23.266291 h -21.32744 z"
     id="rect909" />
  <path
     style="fill:#ebebeb;fill-opacity:1;stroke:#000000;stroke-width:1.13385832;stroke-miterlimit:4;stroke-dasharray:none;paint-order:markers fill stroke"
     d="m 30.790678,53.706535 h 51.002591 c 2.925076,0 5.279922,2.619542 5.279922,5.873413 v 28.00689 c 0,3.253871 -2.354846,5.873413 -5.279922,5.873413 H 30.790678 c -2.925077,0 -5.279922,-2.619542 -5.279922,-5.873413 v -28.00689 c 0,-3.253871 2.354845,-5.873413 5.279922,-5.873413 z"
     id="rect947" />
  <g
     aria-label="4"
     style="font-style:normal;font-weight:normal;font-size:40px;line-height:1.25;font-family:sans-serif;letter-spacing:0px;word-spacing:0px;fill:#000000;fill-opacity:1;stroke:none;stroke-width:1.13385832;stroke-miterlimit:4;stroke-dasharray:none;paint-order:markers fill stroke"
     id="text913">
    <path
       d="m 148.59894,75.477913 h 1.57812 V 76.6576 h -1.57812 v 2.640625 h -1.45313 V 76.6576 h -5.17968 v -0.851562 l 5.09375,-7.882813 h 1.53906 z m -4.99219,0 h 3.53906 v -5.578125 l -0.17187,0.3125 z"
       style="font-style:normal;font-variant:normal;font-weight:normal;font-stretch:normal;font-size:16px;font-family:Roboto;-inkscape-font-specification:Roboto;stroke-width:1.13385832;stroke-miterlimit:4;stroke-dasharray:none;paint-order:markers fill stroke"
       id="path152" />
  </g>
  <path
     style="fill:#d6d6d6;fill-opacity:1;stroke:#000000;stroke-width:1.13385832;stroke-miterlimit:4;stroke-dasharray:none;paint-order:markers fill stroke"
     d="M 31.308592,61.950233 H 52.636024 V 85.216524 H 31.308592 Z"
     id="rect891" />
  <g
     aria-label="1"
     style="font-style:normal;font-weight:normal;font-size:40px;line-height:1.25;font-family:sans-serif;letter-spacing:0px;word-spacing:0px;fill:#000000;fill-opacity:1;stroke:none;stroke-width:1.13385832;stroke-miterlimit:4;stroke-dasharray:none;paint-order:markers fill stroke"
     id="text895">
    <path
       d="m 44.155903,79.298225 h -1.453125 v -9.632812 l -2.914063,1.070312 v -1.3125 l 4.140625,-1.554687 h 0.226563 z"
       style="font-style:normal;font-variant:normal;font-weight:normal;font-stretch:normal;font-size:16px;font-family:Roboto;-inkscape-font-specification:Roboto;stroke-width:1.13385832;stroke-miterlimit:4;stroke-dasharray:none;paint-order:markers fill stroke"
       id="path156" />
  </g>
  <path
     style="fill:#d6d6d6;fill-opacity:1;stroke:#000000;stroke-width:1.13385832;stroke-miterlimit:4;stroke-dasharray:none;paint-order:markers fill stroke"
     d="M 59.947926,61.950233 H 81.275358 V 85.216524 H 59.947926 Z"
     id="rect897" />
  <g
     aria-label="2"
     style="font-style:normal;font-weight:normal;font-size:40px;line-height:1.25;font-family:sans-serif;letter-spacing:0px;word-spacing:0px;fill:#000000;fill-opacity:1;stroke:none;stroke-width:1.13385832;stroke-miterlimit:4;stroke-dasharray:none;paint-order:markers fill stroke"
     id="text901">
    <path
       d="m 75.49836,79.298225 h -7.453125 v -1.039062 l 3.9375,-4.375 q 0.875,-0.992188 1.203125,-1.609375 0.335937,-0.625 0.335937,-1.289063 0,-0.890625 -0.539062,-1.460937 -0.539063,-0.570313 -1.4375,-0.570313 -1.078125,0 -1.679688,0.617188 -0.59375,0.609375 -0.59375,1.703125 h -1.445312 q 0,-1.570313 1.007812,-2.539063 1.015625,-0.96875 2.710938,-0.96875 1.585937,0 2.507812,0.835938 0.921875,0.828125 0.921875,2.210937 0,1.679688 -2.140625,4 l -3.046875,3.304688 h 5.710938 z"
       style="font-style:normal;font-variant:normal;font-weight:normal;font-stretch:normal;font-size:16px;font-family:Roboto;-inkscape-font-specification:Roboto;stroke-width:1.13385832;stroke-miterlimit:4;stroke-dasharray:none;paint-order:markers fill stroke"
       id="path160" />
  </g>
</svg>
