<?xml version="1.0" encoding="UTF-8" standalone="no"?>
<!-- Created with Inkscape (http://www.inkscape.org/) -->

<svg
   xmlns:dc="http://purl.org/dc/elements/1.1/"
   xmlns:cc="http://creativecommons.org/ns#"
   xmlns:rdf="http://www.w3.org/1999/02/22-rdf-syntax-ns#"
   xmlns:svg="http://www.w3.org/2000/svg"
   xmlns="http://www.w3.org/2000/svg"
   xmlns:sodipodi="http://sodipodi.sourceforge.net/DTD/sodipodi-0.dtd"
   xmlns:inkscape="http://www.inkscape.org/namespaces/inkscape"
   width="133.25568mm"
   height="49.452389mm"
   viewBox="0 0 472.16579 175.225"
   id="svg2"
   version="1.1"
   inkscape:version="0.92.3 (2405546, 2018-03-11)"
   sodipodi:docname="join-venn-otp.svg">
  <defs
     id="defs4" />
  <sodipodi:namedview
     id="base"
     pagecolor="#ffffff"
     bordercolor="#666666"
     borderopacity="1.0"
     inkscape:pageopacity="0.0"
     inkscape:pageshadow="2"
     inkscape:zoom="1.979899"
     inkscape:cx="200.08062"
     inkscape:cy="178.86043"
     inkscape:document-units="px"
     inkscape:current-layer="layer1"
     showgrid="false"
     fit-margin-top="5"
     fit-margin-left="5"
     fit-margin-right="5"
     fit-margin-bottom="5"
     inkscape:window-width="1600"
     inkscape:window-height="832"
     inkscape:window-x="0"
     inkscape:window-y="32"
     inkscape:window-maximized="1" />
  <metadata
     id="metadata7">
    <rdf:RDF>
      <cc:Work
         rdf:about="">
        <dc:format>image/svg+xml</dc:format>
        <dc:type
           rdf:resource="http://purl.org/dc/dcmitype/StillImage" />
        <dc:title></dc:title>
      </cc:Work>
    </rdf:RDF>
  </metadata>
  <g
     inkscape:label="Layer 1"
     inkscape:groupmode="layer"
     id="layer1"
     transform="translate(-19.664179,-109.96016)">
    <g
       id="g4413">
      <g
         id="g4242">
        <g
           id="g4310">
          <path
             style="fill:#ffffff;fill-opacity:1;stroke:#000000;stroke-width:1;stroke-miterlimit:4;stroke-dasharray:none"
             d="m 97.880714,158.1767 a 30,30 0 0 1 -30,30 30,30 0 0 1 -30,-30 30,30 0 0 1 30,-30 30,30 0 0 1 30,30 z"
             id="path3401" />
          <path
             style="fill:#ffffff;fill-opacity:1;stroke:#000000;stroke-width:1;stroke-miterlimit:4;stroke-dasharray:none"
             d="m 133.74113,158.1767 a 30,30 0 0 1 -30,30 30,30 0 0 1 -30.000003,-30 30,30 0 0 1 30.000003,-30 30,30 0 0 1 30,30 z"
             id="circle4203" />
          <g
             aria-label="inner_join(x, y)"
             style="font-style:normal;font-weight:normal;line-height:0%;font-family:sans-serif;letter-spacing:0px;word-spacing:0px;fill:#000000;fill-opacity:1;stroke:none;stroke-width:1px;stroke-linecap:butt;stroke-linejoin:miter;stroke-opacity:1"
             id="text4228">
            <path
               d="m 153.81232,161.66455 h -1.24207 v -7.2644 h 1.24207 z m -1.34278,-9.19128 q 0,-0.30213 0.18128,-0.51026 0.18799,-0.20813 0.55053,-0.20813 0.36255,0 0.55054,0.20813 0.18799,0.20813 0.18799,0.51026 0,0.30212 -0.18799,0.50354 -0.18799,0.20141 -0.55054,0.20141 -0.36254,0 -0.55053,-0.20141 -0.18128,-0.20142 -0.18128,-0.50354 z"
               style="font-style:normal;font-variant:normal;font-weight:normal;font-stretch:normal;font-size:13.75px;line-height:1.25;font-family:Roboto;-inkscape-font-specification:Roboto"
               id="path39" />
            <path
               d="m 156.96783,154.40015 0.0403,0.91308 q 0.83252,-1.04736 2.17529,-1.04736 2.30286,0 2.323,2.59827 v 4.80041 h -1.24207 v -4.80713 q -0.007,-0.78552 -0.36255,-1.1615 -0.34912,-0.37597 -1.09436,-0.37597 -0.60424,0 -1.06079,0.32226 -0.45654,0.32227 -0.71167,0.84595 v 5.17639 h -1.24206 v -7.2644 z"
               style="font-style:normal;font-variant:normal;font-weight:normal;font-stretch:normal;font-size:13.75px;line-height:1.25;font-family:Roboto;-inkscape-font-specification:Roboto"
               id="path41" />
            <path
               d="m 164.56793,154.40015 0.0403,0.91308 q 0.83251,-1.04736 2.17529,-1.04736 2.30285,0 2.323,2.59827 v 4.80041 h -1.24207 v -4.80713 q -0.007,-0.78552 -0.36255,-1.1615 -0.34912,-0.37597 -1.09436,-0.37597 -0.60425,0 -1.06079,0.32226 -0.45654,0.32227 -0.71167,0.84595 v 5.17639 h -1.24206 v -7.2644 z"
               style="font-style:normal;font-variant:normal;font-weight:normal;font-stretch:normal;font-size:13.75px;line-height:1.25;font-family:Roboto;-inkscape-font-specification:Roboto"
               id="path43" />
            <path
               d="m 174.00763,161.79883 q -1.47705,0 -2.40357,-0.9668 -0.92651,-0.97351 -0.92651,-2.59827 v -0.22827 q 0,-1.08093 0.40955,-1.92688 0.41626,-0.85266 1.15478,-1.32934 0.74524,-0.4834 1.61133,-0.4834 1.41663,0 2.20215,0.93323 0.78552,0.93322 0.78552,2.67212 v 0.51696 h -4.92126 q 0.0268,1.07422 0.62439,1.7389 0.60424,0.65795 1.53076,0.65795 0.65796,0 1.1145,-0.26855 0.45654,-0.26856 0.79895,-0.71167 l 0.75867,0.59082 q -0.91309,1.4032 -2.73926,1.4032 z m -0.15442,-6.51245 q -0.75195,0 -1.26221,0.55053 -0.51025,0.54383 -0.6311,1.53077 h 3.63892 v -0.094 q -0.0537,-0.94665 -0.51026,-1.46362 -0.45654,-0.52368 -1.23535,-0.52368 z"
               style="font-style:normal;font-variant:normal;font-weight:normal;font-stretch:normal;font-size:13.75px;line-height:1.25;font-family:Roboto;-inkscape-font-specification:Roboto"
               id="path45" />
            <path
               d="m 181.78229,155.51465 q -0.28198,-0.047 -0.61096,-0.047 -1.22193,0 -1.65833,1.04065 v 5.15625 h -1.24206 v -7.2644 h 1.20849 l 0.0201,0.83923 q 0.61096,-0.97351 1.73218,-0.97351 0.36255,0 0.55054,0.094 z"
               style="font-style:normal;font-variant:normal;font-weight:normal;font-stretch:normal;font-size:13.75px;line-height:1.25;font-family:Roboto;-inkscape-font-specification:Roboto"
               id="path47" />
            <path
               d="m 188.15375,162.67834 h -6.1499 v -1.01379 h 6.1499 z"
               style="font-style:normal;font-variant:normal;font-weight:normal;font-stretch:normal;font-size:13.75px;line-height:1.25;font-family:Roboto;-inkscape-font-specification:Roboto"
               id="path49" />
            <path
               d="m 190.40289,154.40015 v 8.10363 q 0,2.09473 -1.90002,2.09473 -0.40955,0 -0.75867,-0.12085 v -0.99365 q 0.21485,0.0537 0.56397,0.0537 0.41626,0 0.6311,-0.22827 0.22156,-0.22156 0.22156,-0.77881 v -8.13049 z m -1.36963,-1.92688 q 0,-0.29541 0.18128,-0.50354 0.18799,-0.21485 0.54382,-0.21485 0.36255,0 0.55054,0.20813 0.18799,0.20813 0.18799,0.51026 0,0.30212 -0.18799,0.50354 -0.18799,0.20141 -0.55054,0.20141 -0.36255,0 -0.54382,-0.20141 -0.18128,-0.20142 -0.18128,-0.50354 z"
               style="font-style:normal;font-variant:normal;font-weight:normal;font-stretch:normal;font-size:13.75px;line-height:1.25;font-family:Roboto;-inkscape-font-specification:Roboto"
               id="path51" />
            <path
               d="m 192.06793,157.96521 q 0,-1.0675 0.41626,-1.92017 0.42298,-0.85266 1.16821,-1.31591 0.75196,-0.46326 1.71204,-0.46326 1.48377,0 2.39685,1.02722 0.9198,1.02722 0.9198,2.73254 v 0.0873 q 0,1.06079 -0.40954,1.90673 -0.40284,0.83924 -1.1615,1.30921 -0.75196,0.46997 -1.73218,0.46997 -1.47705,0 -2.39685,-1.02722 -0.91309,-1.02723 -0.91309,-2.71912 z m 1.24878,0.14771 q 0,1.20849 0.55725,1.9403 0.56397,0.73181 1.50391,0.73181 0.94665,0 1.5039,-0.73852 0.55726,-0.74524 0.55726,-2.0813 0,-1.19507 -0.57068,-1.93359 -0.56397,-0.74524 -1.50391,-0.74524 -0.9198,0 -1.48376,0.73181 -0.56397,0.73181 -0.56397,2.09473 z"
               style="font-style:normal;font-variant:normal;font-weight:normal;font-stretch:normal;font-size:13.75px;line-height:1.25;font-family:Roboto;-inkscape-font-specification:Roboto"
               id="path53" />
            <path
               d="m 201.5882,161.66455 h -1.24207 v -7.2644 h 1.24207 z m -1.34278,-9.19128 q 0,-0.30213 0.18128,-0.51026 0.18799,-0.20813 0.55053,-0.20813 0.36255,0 0.55054,0.20813 0.18799,0.20813 0.18799,0.51026 0,0.30212 -0.18799,0.50354 -0.18799,0.20141 -0.55054,0.20141 -0.36254,0 -0.55053,-0.20141 -0.18128,-0.20142 -0.18128,-0.50354 z"
               style="font-style:normal;font-variant:normal;font-weight:normal;font-stretch:normal;font-size:13.75px;line-height:1.25;font-family:Roboto;-inkscape-font-specification:Roboto"
               id="path55" />
            <path
               d="m 204.74371,154.40015 0.0403,0.91308 q 0.83252,-1.04736 2.17529,-1.04736 2.30286,0 2.323,2.59827 v 4.80041 h -1.24207 v -4.80713 q -0.007,-0.78552 -0.36255,-1.1615 -0.34912,-0.37597 -1.09436,-0.37597 -0.60425,0 -1.06079,0.32226 -0.45654,0.32227 -0.71167,0.84595 v 5.17639 h -1.24206 v -7.2644 z"
               style="font-style:normal;font-variant:normal;font-weight:normal;font-stretch:normal;font-size:13.75px;line-height:1.25;font-family:Roboto;-inkscape-font-specification:Roboto"
               id="path57" />
            <path
               d="m 211.12189,157.69666 q 0,-1.51734 0.40283,-2.91382 0.40955,-1.39649 1.21521,-2.53784 0.80566,-1.14136 1.67175,-1.61133 l 0.25513,0.81909 q -0.98023,0.75195 -1.61133,2.29614 -0.62439,1.54419 -0.68481,3.45764 l -0.007,0.57068 q 0,2.59155 0.94666,4.49829 0.57068,1.14136 1.3562,1.78589 l -0.25513,0.75867 q -0.89294,-0.49683 -1.70532,-1.66504 -1.58447,-2.28272 -1.58447,-5.45837 z"
               style="font-style:normal;font-variant:normal;font-weight:normal;font-stretch:normal;font-size:13.75px;line-height:1.25;font-family:Roboto;-inkscape-font-specification:Roboto"
               id="path59" />
            <path
               d="m 218.30573,157.05212 1.61132,-2.65197 h 1.4502 l -2.37671,3.59192 2.45056,3.67248 h -1.43677 l -1.67846,-2.71912 -1.67847,2.71912 h -1.44348 l 2.45056,-3.67248 -2.37671,-3.59192 h 1.43677 z"
               style="font-style:normal;font-variant:normal;font-weight:normal;font-stretch:normal;font-size:13.75px;line-height:1.25;font-family:Roboto;-inkscape-font-specification:Roboto"
               id="path61" />
            <path
               d="m 222.6496,163.61157 -0.70496,-0.4834 q 0.6311,-0.87951 0.65796,-1.81274 v -1.12122 h 1.21521 v 0.97351 q 0,0.67811 -0.33569,1.35621 -0.32898,0.6781 -0.83252,1.08764 z"
               style="font-style:normal;font-variant:normal;font-weight:normal;font-stretch:normal;font-size:13.75px;line-height:1.25;font-family:Roboto;-inkscape-font-specification:Roboto"
               id="path63" />
            <path
               d="m 231.18964,159.84509 1.69189,-5.44494 h 1.32935 l -2.92054,8.38562 q -0.6781,1.81274 -2.15515,1.81274 l -0.23498,-0.0201 -0.46326,-0.0873 v -1.00708 l 0.33569,0.0268 q 0.63111,0 0.98023,-0.25512 0.35583,-0.25513 0.58411,-0.93323 l 0.27526,-0.73853 -2.59155,-7.18383 h 1.3562 z"
               style="font-style:normal;font-variant:normal;font-weight:normal;font-stretch:normal;font-size:13.75px;line-height:1.25;font-family:Roboto;-inkscape-font-specification:Roboto"
               id="path65" />
            <path
               d="m 238.17877,157.76379 q 0,1.4972 -0.39612,2.87354 -0.3894,1.36963 -1.20178,2.53113 -0.80566,1.1615 -1.69189,1.65161 l -0.26184,-0.75867 q 1.03393,-0.79223 1.65832,-2.45727 0.6311,-1.67176 0.64453,-3.70606 v -0.21484 q 0,-1.40991 -0.29541,-2.61841 -0.29541,-1.21521 -0.8258,-2.17529 -0.52368,-0.96009 -1.18164,-1.4972 l 0.26184,-0.75866 q 0.88623,0.49011 1.68518,1.63818 0.80566,1.14807 1.20178,2.53113 0.40283,1.38306 0.40283,2.96081 z"
               style="font-style:normal;font-variant:normal;font-weight:normal;font-stretch:normal;font-size:13.75px;line-height:1.25;font-family:Roboto;-inkscape-font-specification:Roboto"
               id="path67" />
          </g>
          <path
             style="fill:#cccccc;fill-opacity:1;stroke:#000000;stroke-width:1;stroke-miterlimit:4;stroke-dasharray:none"
             d="M 85.806641,134.16602 A 30,30 0 0 0 73.740234,158.17578 30,30 0 0 0 85.814453,182.18555 30,30 0 0 0 97.880859,158.17578 30,30 0 0 0 85.806641,134.16602 Z"
             id="circle4531"
             inkscape:connector-curvature="0" />
        </g>
      </g>
      <g
         id="g4318">
        <path
           style="fill:#e6e6e6;fill-opacity:1;stroke:none;stroke-width:1;stroke-miterlimit:4;stroke-dasharray:none"
           d="M 82.785495,257.2365 C 71.98671,245.88809 71.843204,228.40744 82.456991,217.22103 l 3.177869,-3.34932 1.432926,1.04612 c 0.788109,0.57536 2.570336,2.54671 3.960505,4.38076 8.926914,11.77732 7.809727,28.05332 -2.633503,38.36682 l -2.681356,2.64805 z"
           id="path4278"
           inkscape:connector-curvature="0" />
        <path
           style="fill:#cccccc;fill-opacity:1;stroke:#000000;stroke-width:1;stroke-miterlimit:4;stroke-dasharray:none"
           d="m 97.880714,236.96863 a 30,30 0 0 1 -30,30 30,30 0 0 1 -30,-30 30,30 0 0 1 30,-30 30,30 0 0 1 30,30 z"
           id="circle4211" />
        <path
           style="fill:#cccccc;fill-opacity:1;stroke:#000000;stroke-width:1;stroke-miterlimit:4;stroke-dasharray:none"
           d="m 133.74113,236.96863 a 30,30 0 0 1 -30,30 30,30 0 0 1 -30.000003,-30 30,30 0 0 1 30.000003,-30 30,30 0 0 1 30,30 z"
           id="circle4213" />
        <g
           aria-label="full_join(x, y)"
           style="font-style:normal;font-weight:normal;line-height:0%;font-family:sans-serif;letter-spacing:0px;word-spacing:0px;fill:#000000;fill-opacity:1;stroke:none;stroke-width:1px;stroke-linecap:butt;stroke-linejoin:miter;stroke-opacity:1"
           id="text4232">
          <path
             d="m 153.07379,240.45648 v -6.30432 h -1.14807 v -0.96008 h 1.14807 v -0.74524 q 0,-1.16821 0.62439,-1.80603 0.62439,-0.63782 1.76575,-0.63782 0.42969,0 0.85266,0.11414 l -0.0671,1.00708 q -0.31555,-0.0604 -0.67139,-0.0604 -0.60424,0 -0.93322,0.35584 -0.32898,0.34912 -0.32898,1.00708 v 0.76538 h 1.5509 v 0.96008 h -1.5509 v 6.30432 z"
             style="font-style:normal;font-variant:normal;font-weight:normal;font-stretch:normal;font-size:13.75px;line-height:1.25;font-family:Roboto;-inkscape-font-specification:Roboto"
             id="path72" />
          <path
             d="m 161.72797,239.7381 q -0.7251,0.85266 -2.1283,0.85266 -1.1615,0 -1.77246,-0.67139 -0.60425,-0.6781 -0.61096,-2.00073 v -4.72656 h 1.24206 v 4.69299 q 0,1.65161 1.34278,1.65161 1.42334,0 1.89331,-1.06079 v -5.28381 h 1.24206 v 7.2644 h -1.18164 z"
             style="font-style:normal;font-variant:normal;font-weight:normal;font-stretch:normal;font-size:13.75px;line-height:1.25;font-family:Roboto;-inkscape-font-specification:Roboto"
             id="path74" />
          <path
             d="m 166.16583,240.45648 h -1.24206 v -10.3125 h 1.24206 z"
             style="font-style:normal;font-variant:normal;font-weight:normal;font-stretch:normal;font-size:13.75px;line-height:1.25;font-family:Roboto;-inkscape-font-specification:Roboto"
             id="path76" />
          <path
             d="m 169.49591,240.45648 h -1.24206 v -10.3125 h 1.24206 z"
             style="font-style:normal;font-variant:normal;font-weight:normal;font-stretch:normal;font-size:13.75px;line-height:1.25;font-family:Roboto;-inkscape-font-specification:Roboto"
             id="path78" />
          <path
             d="m 176.71332,241.47028 h -6.1499 v -1.0138 h 6.1499 z"
             style="font-style:normal;font-variant:normal;font-weight:normal;font-stretch:normal;font-size:13.75px;line-height:1.25;font-family:Roboto;-inkscape-font-specification:Roboto"
             id="path80" />
          <path
             d="m 178.96246,233.19208 v 8.10364 q 0,2.09472 -1.90002,2.09472 -0.40955,0 -0.75867,-0.12085 v -0.99365 q 0.21485,0.0537 0.56397,0.0537 0.41626,0 0.6311,-0.22827 0.22156,-0.22156 0.22156,-0.77881 v -8.13049 z m -1.36963,-1.92688 q 0,-0.29541 0.18128,-0.50354 0.18799,-0.21485 0.54382,-0.21485 0.36255,0 0.55054,0.20813 0.18799,0.20813 0.18799,0.51026 0,0.30212 -0.18799,0.50354 -0.18799,0.20141 -0.55054,0.20141 -0.36255,0 -0.54382,-0.20141 -0.18128,-0.20142 -0.18128,-0.50354 z"
             style="font-style:normal;font-variant:normal;font-weight:normal;font-stretch:normal;font-size:13.75px;line-height:1.25;font-family:Roboto;-inkscape-font-specification:Roboto"
             id="path82" />
          <path
             d="m 180.6275,236.75714 q 0,-1.0675 0.41626,-1.92016 0.42298,-0.85267 1.16822,-1.31592 0.75195,-0.46326 1.71203,-0.46326 1.48377,0 2.39685,1.02722 0.9198,1.02722 0.9198,2.73255 v 0.0873 q 0,1.06079 -0.40954,1.90673 -0.40284,0.83924 -1.1615,1.30921 -0.75196,0.46997 -1.73218,0.46997 -1.47705,0 -2.39685,-1.02722 -0.91309,-1.02722 -0.91309,-2.71912 z m 1.24878,0.14771 q 0,1.20849 0.55725,1.9403 0.56397,0.73182 1.50391,0.73182 0.94665,0 1.50391,-0.73853 0.55725,-0.74524 0.55725,-2.0813 0,-1.19507 -0.57068,-1.93359 -0.56397,-0.74524 -1.50391,-0.74524 -0.9198,0 -1.48376,0.73181 -0.56397,0.73181 -0.56397,2.09473 z"
             style="font-style:normal;font-variant:normal;font-weight:normal;font-stretch:normal;font-size:13.75px;line-height:1.25;font-family:Roboto;-inkscape-font-specification:Roboto"
             id="path84" />
          <path
             d="m 190.14777,240.45648 h -1.24207 v -7.2644 h 1.24207 z m -1.34278,-9.19128 q 0,-0.30213 0.18128,-0.51026 0.18799,-0.20813 0.55053,-0.20813 0.36255,0 0.55054,0.20813 0.18799,0.20813 0.18799,0.51026 0,0.30212 -0.18799,0.50354 -0.18799,0.20141 -0.55054,0.20141 -0.36254,0 -0.55053,-0.20141 -0.18128,-0.20142 -0.18128,-0.50354 z"
             style="font-style:normal;font-variant:normal;font-weight:normal;font-stretch:normal;font-size:13.75px;line-height:1.25;font-family:Roboto;-inkscape-font-specification:Roboto"
             id="path86" />
          <path
             d="m 193.30328,233.19208 0.0403,0.91308 q 0.83252,-1.04736 2.17529,-1.04736 2.30286,0 2.323,2.59827 v 4.80041 h -1.24207 v -4.80713 q -0.007,-0.78552 -0.36255,-1.1615 -0.34912,-0.37597 -1.09436,-0.37597 -0.60424,0 -1.06079,0.32226 -0.45654,0.32227 -0.71167,0.84595 v 5.17639 h -1.24206 v -7.2644 z"
             style="font-style:normal;font-variant:normal;font-weight:normal;font-stretch:normal;font-size:13.75px;line-height:1.25;font-family:Roboto;-inkscape-font-specification:Roboto"
             id="path88" />
          <path
             d="m 199.68146,236.48859 q 0,-1.51734 0.40283,-2.91382 0.40955,-1.39649 1.21521,-2.53784 0.80566,-1.14136 1.67175,-1.61133 l 0.25513,0.81909 q -0.98023,0.75195 -1.61133,2.29614 -0.62439,1.54419 -0.68481,3.45764 l -0.007,0.57068 q 0,2.59156 0.94666,4.49829 0.57068,1.14136 1.3562,1.78589 l -0.25513,0.75867 q -0.89294,-0.49683 -1.70532,-1.66504 -1.58447,-2.28271 -1.58447,-5.45837 z"
             style="font-style:normal;font-variant:normal;font-weight:normal;font-stretch:normal;font-size:13.75px;line-height:1.25;font-family:Roboto;-inkscape-font-specification:Roboto"
             id="path90" />
          <path
             d="m 206.8653,235.84406 1.61132,-2.65198 h 1.4502 l -2.37671,3.59192 2.45056,3.67248 h -1.43677 l -1.67846,-2.71911 -1.67847,2.71911 h -1.44348 l 2.45056,-3.67248 -2.37671,-3.59192 h 1.43677 z"
             style="font-style:normal;font-variant:normal;font-weight:normal;font-stretch:normal;font-size:13.75px;line-height:1.25;font-family:Roboto;-inkscape-font-specification:Roboto"
             id="path92" />
          <path
             d="m 211.20917,242.4035 -0.70496,-0.4834 q 0.6311,-0.87951 0.65796,-1.81274 v -1.12121 h 1.21521 v 0.97351 q 0,0.6781 -0.33569,1.3562 -0.32898,0.6781 -0.83252,1.08764 z"
             style="font-style:normal;font-variant:normal;font-weight:normal;font-stretch:normal;font-size:13.75px;line-height:1.25;font-family:Roboto;-inkscape-font-specification:Roboto"
             id="path94" />
          <path
             d="m 219.74921,238.63702 1.69189,-5.44494 h 1.32935 l -2.92054,8.38562 q -0.6781,1.81274 -2.15515,1.81274 l -0.23498,-0.0201 -0.46326,-0.0873 v -1.00708 l 0.33569,0.0269 q 0.63111,0 0.98023,-0.25513 0.35583,-0.25513 0.58411,-0.93323 l 0.27526,-0.73852 -2.59155,-7.18384 h 1.3562 z"
             style="font-style:normal;font-variant:normal;font-weight:normal;font-stretch:normal;font-size:13.75px;line-height:1.25;font-family:Roboto;-inkscape-font-specification:Roboto"
             id="path96" />
          <path
             d="m 226.73834,236.55573 q 0,1.49719 -0.39612,2.87353 -0.3894,1.36963 -1.20178,2.53113 -0.80566,1.1615 -1.69189,1.65161 l -0.26184,-0.75867 q 1.03393,-0.79223 1.65832,-2.45727 0.63111,-1.67176 0.64453,-3.70606 v -0.21484 q 0,-1.40991 -0.29541,-2.61841 -0.29541,-1.21521 -0.8258,-2.17529 -0.52368,-0.96009 -1.18164,-1.49719 l 0.26184,-0.75867 q 0.88623,0.49011 1.68518,1.63818 0.80566,1.14807 1.20178,2.53113 0.40283,1.38306 0.40283,2.96082 z"
             style="font-style:normal;font-variant:normal;font-weight:normal;font-stretch:normal;font-size:13.75px;line-height:1.25;font-family:Roboto;-inkscape-font-specification:Roboto"
             id="path98" />
        </g>
        <path
           style="fill:#cccccc;fill-opacity:1;stroke:#000000;stroke-width:1;stroke-miterlimit:4;stroke-dasharray:none"
           d="M 85.806641,212.95898 A 30,30 0 0 0 73.740234,236.96875 30,30 0 0 0 85.816406,260.97852 30,30 0 0 0 97.880859,236.96875 30,30 0 0 0 85.806641,212.95898 Z"
           id="circle4521"
           inkscape:connector-curvature="0" />
      </g>
    </g>
    <g
       id="g4435"
       transform="translate(-18.310482)">
      <g
         transform="translate(256.95756)"
         id="g4333">
        <g
           id="g4335">
          <path
             style="fill:#cccccc;fill-opacity:1;stroke:#000000;stroke-width:1;stroke-miterlimit:4;stroke-dasharray:none"
             d="m 97.880714,158.1767 a 30,30 0 0 1 -30,30 30,30 0 0 1 -30,-30 30,30 0 0 1 30,-30 30,30 0 0 1 30,30 z"
             id="circle4337" />
          <path
             style="fill:none;fill-opacity:1;stroke:#000000;stroke-width:1;stroke-miterlimit:4;stroke-dasharray:none"
             d="m 133.74113,158.1767 a 30,30 0 0 1 -30,30 30,30 0 0 1 -30.000003,-30 30,30 0 0 1 30.000003,-30 30,30 0 0 1 30,30 z"
             id="circle4339" />
          <g
             aria-label="left_join(x, y)"
             style="font-style:normal;font-weight:normal;line-height:0%;font-family:sans-serif;letter-spacing:0px;word-spacing:0px;fill:#000000;fill-opacity:1;stroke:none;stroke-width:1px;stroke-linecap:butt;stroke-linejoin:miter;stroke-opacity:1"
             id="text4341">
            <path
               d="m 153.81232,161.66455 h -1.24207 v -10.3125 h 1.24207 z"
               style="font-style:normal;font-variant:normal;font-weight:normal;font-stretch:normal;font-size:13.75px;line-height:1.25;font-family:Roboto;-inkscape-font-specification:Roboto"
               id="path103" />
            <path
               d="m 158.80743,161.79883 q -1.47705,0 -2.40356,-0.9668 -0.92651,-0.97351 -0.92651,-2.59827 v -0.22827 q 0,-1.08093 0.40954,-1.92688 0.41626,-0.85266 1.15479,-1.32934 0.74524,-0.4834 1.61133,-0.4834 1.41662,0 2.20214,0.93323 0.78553,0.93322 0.78553,2.67212 v 0.51696 h -4.92127 q 0.0269,1.07422 0.62439,1.7389 0.60425,0.65795 1.53076,0.65795 0.65796,0 1.1145,-0.26855 0.45655,-0.26856 0.79895,-0.71167 l 0.75867,0.59082 q -0.91308,1.4032 -2.73926,1.4032 z m -0.15441,-6.51245 q -0.75196,0 -1.26221,0.55053 -0.51026,0.54383 -0.63111,1.53077 h 3.63892 v -0.094 q -0.0537,-0.94665 -0.51025,-1.46362 -0.45655,-0.52368 -1.23535,-0.52368 z"
               style="font-style:normal;font-variant:normal;font-weight:normal;font-stretch:normal;font-size:13.75px;line-height:1.25;font-family:Roboto;-inkscape-font-specification:Roboto"
               id="path105" />
            <path
               d="m 163.6817,161.66455 v -6.30432 h -1.14807 v -0.96008 h 1.14807 v -0.74524 q 0,-1.16822 0.62439,-1.80603 0.62439,-0.63782 1.76575,-0.63782 0.42969,0 0.85266,0.11414 l -0.0671,1.00708 q -0.31555,-0.0604 -0.67139,-0.0604 -0.60424,0 -0.93322,0.35584 -0.32898,0.34912 -0.32898,1.00708 v 0.76538 h 1.5509 v 0.96008 h -1.5509 v 6.30432 z"
               style="font-style:normal;font-variant:normal;font-weight:normal;font-stretch:normal;font-size:13.75px;line-height:1.25;font-family:Roboto;-inkscape-font-specification:Roboto"
               id="path107" />
            <path
               d="m 169.53619,152.64111 v 1.75904 h 1.35621 v 0.96008 h -1.35621 v 4.505 q 0,0.43641 0.18128,0.65796 0.18127,0.21485 0.61767,0.21485 0.21485,0 0.59082,-0.0806 v 1.00708 q -0.49011,0.13428 -0.95336,0.13428 -0.83252,0 -1.2555,-0.50354 -0.42297,-0.50354 -0.42297,-1.43006 v -4.505 h -1.32263 v -0.96008 h 1.32263 v -1.75904 z"
               style="font-style:normal;font-variant:normal;font-weight:normal;font-stretch:normal;font-size:13.75px;line-height:1.25;font-family:Roboto;-inkscape-font-specification:Roboto"
               id="path109" />
            <path
               d="m 177.57269,162.67834 h -6.1499 v -1.01379 h 6.1499 z"
               style="font-style:normal;font-variant:normal;font-weight:normal;font-stretch:normal;font-size:13.75px;line-height:1.25;font-family:Roboto;-inkscape-font-specification:Roboto"
               id="path111" />
            <path
               d="m 179.82184,154.40015 v 8.10363 q 0,2.09473 -1.90003,2.09473 -0.40954,0 -0.75866,-0.12085 v -0.99365 q 0.21484,0.0537 0.56396,0.0537 0.41626,0 0.63111,-0.22827 0.22155,-0.22156 0.22155,-0.77881 v -8.13049 z m -1.36963,-1.92688 q 0,-0.29541 0.18127,-0.50354 0.18799,-0.21485 0.54383,-0.21485 0.36255,0 0.55053,0.20813 0.18799,0.20813 0.18799,0.51026 0,0.30212 -0.18799,0.50354 -0.18798,0.20141 -0.55053,0.20141 -0.36255,0 -0.54383,-0.20141 -0.18127,-0.20142 -0.18127,-0.50354 z"
               style="font-style:normal;font-variant:normal;font-weight:normal;font-stretch:normal;font-size:13.75px;line-height:1.25;font-family:Roboto;-inkscape-font-specification:Roboto"
               id="path113" />
            <path
               d="m 181.48688,157.96521 q 0,-1.0675 0.41626,-1.92017 0.42297,-0.85266 1.16821,-1.31591 0.75195,-0.46326 1.71204,-0.46326 1.48376,0 2.39685,1.02722 0.9198,1.02722 0.9198,2.73254 v 0.0873 q 0,1.06079 -0.40955,1.90673 -0.40283,0.83924 -1.1615,1.30921 -0.75195,0.46997 -1.73218,0.46997 -1.47705,0 -2.39685,-1.02722 -0.91308,-1.02723 -0.91308,-2.71912 z m 1.24878,0.14771 q 0,1.20849 0.55725,1.9403 0.56396,0.73181 1.5039,0.73181 0.94666,0 1.50391,-0.73852 0.55725,-0.74524 0.55725,-2.0813 0,-1.19507 -0.57068,-1.93359 -0.56396,-0.74524 -1.5039,-0.74524 -0.9198,0 -1.48377,0.73181 -0.56396,0.73181 -0.56396,2.09473 z"
               style="font-style:normal;font-variant:normal;font-weight:normal;font-stretch:normal;font-size:13.75px;line-height:1.25;font-family:Roboto;-inkscape-font-specification:Roboto"
               id="path115" />
            <path
               d="m 191.00714,161.66455 h -1.24206 v -7.2644 h 1.24206 z m -1.34277,-9.19128 q 0,-0.30213 0.18127,-0.51026 0.18799,-0.20813 0.55054,-0.20813 0.36255,0 0.55054,0.20813 0.18798,0.20813 0.18798,0.51026 0,0.30212 -0.18798,0.50354 -0.18799,0.20141 -0.55054,0.20141 -0.36255,0 -0.55054,-0.20141 -0.18127,-0.20142 -0.18127,-0.50354 z"
               style="font-style:normal;font-variant:normal;font-weight:normal;font-stretch:normal;font-size:13.75px;line-height:1.25;font-family:Roboto;-inkscape-font-specification:Roboto"
               id="path117" />
            <path
               d="m 194.16266,154.40015 0.0403,0.91308 q 0.83252,-1.04736 2.17529,-1.04736 2.30286,0 2.323,2.59827 v 4.80041 h -1.24206 v -4.80713 q -0.007,-0.78552 -0.36255,-1.1615 -0.34912,-0.37597 -1.09436,-0.37597 -0.60425,0 -1.06079,0.32226 -0.45655,0.32227 -0.71167,0.84595 v 5.17639 h -1.24207 v -7.2644 z"
               style="font-style:normal;font-variant:normal;font-weight:normal;font-stretch:normal;font-size:13.75px;line-height:1.25;font-family:Roboto;-inkscape-font-specification:Roboto"
               id="path119" />
            <path
               d="m 200.54083,157.69666 q 0,-1.51734 0.40283,-2.91382 0.40955,-1.39649 1.21521,-2.53784 0.80567,-1.14136 1.67176,-1.61133 l 0.25512,0.81909 q -0.98022,0.75195 -1.61132,2.29614 -0.62439,1.54419 -0.68482,3.45764 l -0.007,0.57068 q 0,2.59155 0.94665,4.49829 0.57068,1.14136 1.3562,1.78589 l -0.25512,0.75867 q -0.89295,-0.49683 -1.70532,-1.66504 -1.58448,-2.28272 -1.58448,-5.45837 z"
               style="font-style:normal;font-variant:normal;font-weight:normal;font-stretch:normal;font-size:13.75px;line-height:1.25;font-family:Roboto;-inkscape-font-specification:Roboto"
               id="path121" />
            <path
               d="m 207.72467,157.05212 1.61133,-2.65197 h 1.45019 l -2.37671,3.59192 2.45057,3.67248 h -1.43677 l -1.67847,-2.71912 -1.67846,2.71912 h -1.44349 l 2.45057,-3.67248 -2.37671,-3.59192 h 1.43676 z"
               style="font-style:normal;font-variant:normal;font-weight:normal;font-stretch:normal;font-size:13.75px;line-height:1.25;font-family:Roboto;-inkscape-font-specification:Roboto"
               id="path123" />
            <path
               d="m 212.06854,163.61157 -0.70495,-0.4834 q 0.6311,-0.87951 0.65796,-1.81274 v -1.12122 h 1.21521 v 0.97351 q 0,0.67811 -0.3357,1.35621 -0.32898,0.6781 -0.83252,1.08764 z"
               style="font-style:normal;font-variant:normal;font-weight:normal;font-stretch:normal;font-size:13.75px;line-height:1.25;font-family:Roboto;-inkscape-font-specification:Roboto"
               id="path125" />
            <path
               d="m 220.60858,159.84509 1.6919,-5.44494 h 1.32934 l -2.92053,8.38562 q -0.6781,1.81274 -2.15515,1.81274 l -0.23499,-0.0201 -0.46325,-0.0873 v -1.00708 l 0.33569,0.0268 q 0.6311,0 0.98022,-0.25512 0.35584,-0.25513 0.58411,-0.93323 l 0.27527,-0.73853 -2.59155,-7.18383 h 1.3562 z"
               style="font-style:normal;font-variant:normal;font-weight:normal;font-stretch:normal;font-size:13.75px;line-height:1.25;font-family:Roboto;-inkscape-font-specification:Roboto"
               id="path127" />
            <path
               d="m 227.59772,157.76379 q 0,1.4972 -0.39612,2.87354 -0.38941,1.36963 -1.20178,2.53113 -0.80567,1.1615 -1.6919,1.65161 l -0.26184,-0.75867 q 1.03394,-0.79223 1.65833,-2.45727 0.6311,-1.67176 0.64453,-3.70606 v -0.21484 q 0,-1.40991 -0.29541,-2.61841 -0.29541,-1.21521 -0.82581,-2.17529 -0.52368,-0.96009 -1.18164,-1.4972 l 0.26184,-0.75866 q 0.88623,0.49011 1.68518,1.63818 0.80567,1.14807 1.20179,2.53113 0.40283,1.38306 0.40283,2.96081 z"
               style="font-style:normal;font-variant:normal;font-weight:normal;font-stretch:normal;font-size:13.75px;line-height:1.25;font-family:Roboto;-inkscape-font-specification:Roboto"
               id="path129" />
          </g>
          <path
             style="fill:#cccccc;fill-opacity:1;stroke:#000000;stroke-width:1;stroke-miterlimit:4;stroke-dasharray:none"
             d="m 287.32031,134.16602 a 30,30 0 0 0 -12.0664,24.00976 30,30 0 0 0 12.07421,24.00977 30,30 0 0 0 12.06641,-24.00977 30,30 0 0 0 -12.07422,-24.00976 z"
             transform="translate(-201.51293)"
             id="circle4536"
             inkscape:connector-curvature="0" />
        </g>
      </g>
      <g
         transform="translate(256.95756)"
         id="g4347">
        <path
           inkscape:connector-curvature="0"
           id="path4349"
           d="M 82.785495,257.2365 C 71.98671,245.88809 71.843204,228.40744 82.456991,217.22103 l 3.177869,-3.34932 1.432926,1.04612 c 0.788109,0.57536 2.570336,2.54671 3.960505,4.38076 8.926914,11.77732 7.809727,28.05332 -2.633503,38.36682 l -2.681356,2.64805 z"
           style="fill:#e6e6e6;fill-opacity:1;stroke:none;stroke-width:1;stroke-miterlimit:4;stroke-dasharray:none" />
        <path
           style="fill:#ffffff;fill-opacity:1;stroke:#000000;stroke-width:1;stroke-miterlimit:4;stroke-dasharray:none"
           d="m 97.880714,236.96863 a 30,30 0 0 1 -30,30 30,30 0 0 1 -30,-30 30,30 0 0 1 30,-30 30,30 0 0 1 30,30 z"
           id="circle4351" />
        <path
           style="fill:#cccccc;fill-opacity:1;stroke:#000000;stroke-width:1;stroke-miterlimit:4;stroke-dasharray:none"
           d="m 133.74113,236.96863 a 30,30 0 0 1 -30,30 30,30 0 0 1 -30.000003,-30 30,30 0 0 1 30.000003,-30 30,30 0 0 1 30,30 z"
           id="circle4353" />
        <g
           aria-label="right_join(x, y)"
           style="font-style:normal;font-weight:normal;line-height:0%;font-family:sans-serif;letter-spacing:0px;word-spacing:0px;fill:#000000;fill-opacity:1;stroke:none;stroke-width:1px;stroke-linecap:butt;stroke-linejoin:miter;stroke-opacity:1"
           id="text4355">
          <path
             d="m 155.97418,234.30658 q -0.28198,-0.047 -0.61096,-0.047 -1.22192,0 -1.65832,1.04065 v 5.15625 h -1.24207 v -7.2644 h 1.2085 l 0.0201,0.83923 q 0.61096,-0.97351 1.73218,-0.97351 0.36254,0 0.55053,0.094 z"
             style="font-style:normal;font-variant:normal;font-weight:normal;font-stretch:normal;font-size:13.75px;line-height:1.25;font-family:Roboto;-inkscape-font-specification:Roboto"
             id="path134" />
          <path
             d="m 158.45831,240.45648 h -1.24206 v -7.2644 h 1.24206 z m -1.34277,-9.19128 q 0,-0.30213 0.18127,-0.51026 0.18799,-0.20813 0.55054,-0.20813 0.36255,0 0.55054,0.20813 0.18799,0.20813 0.18799,0.51026 0,0.30212 -0.18799,0.50354 -0.18799,0.20141 -0.55054,0.20141 -0.36255,0 -0.55054,-0.20141 -0.18127,-0.20142 -0.18127,-0.50354 z"
             style="font-style:normal;font-variant:normal;font-weight:normal;font-stretch:normal;font-size:13.75px;line-height:1.25;font-family:Roboto;-inkscape-font-specification:Roboto"
             id="path136" />
          <path
             d="m 160.14349,236.76385 q 0,-1.6986 0.78553,-2.69897 0.78552,-1.00708 2.08129,-1.00708 1.32935,0 2.07459,0.93994 l 0.0604,-0.80566 h 1.13465 v 7.08984 q 0,1.40991 -0.83924,2.22229 -0.83251,0.81238 -2.24243,0.81238 -0.78552,0 -1.53747,-0.33569 -0.75196,-0.3357 -1.14807,-0.9198 l 0.64453,-0.74524 q 0.79895,0.98694 1.95373,0.98694 0.90638,0 1.40992,-0.51026 0.51025,-0.51025 0.51025,-1.43677 v -0.62439 q -0.74524,0.85938 -2.0343,0.85938 -1.27564,0 -2.06787,-1.02722 -0.78553,-1.02722 -0.78553,-2.79969 z m 1.24878,0.141 q 0,1.22863 0.50354,1.93359 0.50354,0.69824 1.40992,0.69824 1.17492,0 1.72546,-1.0675 v -3.31665 q -0.57068,-1.04065 -1.71204,-1.04065 -0.90637,0 -1.41662,0.70495 -0.51026,0.70496 -0.51026,2.08802 z"
             style="font-style:normal;font-variant:normal;font-weight:normal;font-stretch:normal;font-size:13.75px;line-height:1.25;font-family:Roboto;-inkscape-font-specification:Roboto"
             id="path138" />
          <path
             d="m 169.38849,234.07159 q 0.8258,-1.01379 2.14844,-1.01379 2.30285,0 2.32299,2.59827 v 4.80041 h -1.24206 v -4.80713 q -0.007,-0.78552 -0.36255,-1.1615 -0.34912,-0.37597 -1.09436,-0.37597 -0.60425,0 -1.06079,0.32226 -0.45654,0.32227 -0.71167,0.84595 v 5.17639 h -1.24207 v -10.3125 h 1.24207 z"
             style="font-style:normal;font-variant:normal;font-weight:normal;font-stretch:normal;font-size:13.75px;line-height:1.25;font-family:Roboto;-inkscape-font-specification:Roboto"
             id="path140" />
          <path
             d="m 177.40485,231.43304 v 1.75904 h 1.3562 v 0.96008 h -1.3562 v 4.50501 q 0,0.4364 0.18127,0.65795 0.18128,0.21485 0.61768,0.21485 0.21484,0 0.59082,-0.0806 v 1.00708 q -0.49012,0.13428 -0.95337,0.13428 -0.83252,0 -1.2555,-0.50354 -0.42297,-0.50354 -0.42297,-1.43005 v -4.50501 h -1.32263 v -0.96008 h 1.32263 v -1.75904 z"
             style="font-style:normal;font-variant:normal;font-weight:normal;font-stretch:normal;font-size:13.75px;line-height:1.25;font-family:Roboto;-inkscape-font-specification:Roboto"
             id="path142" />
          <path
             d="m 185.44135,241.47028 h -6.14991 v -1.0138 h 6.14991 z"
             style="font-style:normal;font-variant:normal;font-weight:normal;font-stretch:normal;font-size:13.75px;line-height:1.25;font-family:Roboto;-inkscape-font-specification:Roboto"
             id="path144" />
          <path
             d="m 187.69049,233.19208 v 8.10364 q 0,2.09472 -1.90002,2.09472 -0.40955,0 -0.75867,-0.12085 v -0.99365 q 0.21484,0.0537 0.56396,0.0537 0.41626,0 0.63111,-0.22827 0.22156,-0.22156 0.22156,-0.77881 v -8.13049 z m -1.36963,-1.92688 q 0,-0.29541 0.18128,-0.50354 0.18798,-0.21485 0.54382,-0.21485 0.36255,0 0.55054,0.20813 0.18798,0.20813 0.18798,0.51026 0,0.30212 -0.18798,0.50354 -0.18799,0.20141 -0.55054,0.20141 -0.36255,0 -0.54382,-0.20141 -0.18128,-0.20142 -0.18128,-0.50354 z"
             style="font-style:normal;font-variant:normal;font-weight:normal;font-stretch:normal;font-size:13.75px;line-height:1.25;font-family:Roboto;-inkscape-font-specification:Roboto"
             id="path146" />
          <path
             d="m 189.35553,236.75714 q 0,-1.0675 0.41626,-1.92016 0.42297,-0.85267 1.16821,-1.31592 0.75196,-0.46326 1.71204,-0.46326 1.48376,0 2.39685,1.02722 0.9198,1.02722 0.9198,2.73255 v 0.0873 q 0,1.06079 -0.40955,1.90673 -0.40283,0.83924 -1.1615,1.30921 -0.75195,0.46997 -1.73217,0.46997 -1.47705,0 -2.39685,-1.02722 -0.91309,-1.02722 -0.91309,-2.71912 z m 1.24878,0.14771 q 0,1.20849 0.55725,1.9403 0.56396,0.73182 1.50391,0.73182 0.94665,0 1.5039,-0.73853 0.55725,-0.74524 0.55725,-2.0813 0,-1.19507 -0.57068,-1.93359 -0.56396,-0.74524 -1.5039,-0.74524 -0.9198,0 -1.48377,0.73181 -0.56396,0.73181 -0.56396,2.09473 z"
             style="font-style:normal;font-variant:normal;font-weight:normal;font-stretch:normal;font-size:13.75px;line-height:1.25;font-family:Roboto;-inkscape-font-specification:Roboto"
             id="path148" />
          <path
             d="m 198.87579,240.45648 h -1.24206 v -7.2644 h 1.24206 z m -1.34277,-9.19128 q 0,-0.30213 0.18127,-0.51026 0.18799,-0.20813 0.55054,-0.20813 0.36255,0 0.55054,0.20813 0.18799,0.20813 0.18799,0.51026 0,0.30212 -0.18799,0.50354 -0.18799,0.20141 -0.55054,0.20141 -0.36255,0 -0.55054,-0.20141 -0.18127,-0.20142 -0.18127,-0.50354 z"
             style="font-style:normal;font-variant:normal;font-weight:normal;font-stretch:normal;font-size:13.75px;line-height:1.25;font-family:Roboto;-inkscape-font-specification:Roboto"
             id="path150" />
          <path
             d="m 202.03131,233.19208 0.0403,0.91308 q 0.83252,-1.04736 2.1753,-1.04736 2.30285,0 2.323,2.59827 v 4.80041 h -1.24207 v -4.80713 q -0.007,-0.78552 -0.36255,-1.1615 -0.34912,-0.37597 -1.09436,-0.37597 -0.60425,0 -1.06079,0.32226 -0.45654,0.32227 -0.71167,0.84595 v 5.17639 h -1.24207 v -7.2644 z"
             style="font-style:normal;font-variant:normal;font-weight:normal;font-stretch:normal;font-size:13.75px;line-height:1.25;font-family:Roboto;-inkscape-font-specification:Roboto"
             id="path152" />
          <path
             d="m 208.40948,236.48859 q 0,-1.51734 0.40284,-2.91382 0.40954,-1.39649 1.21521,-2.53784 0.80566,-1.14136 1.67175,-1.61133 l 0.25513,0.81909 q -0.98023,0.75195 -1.61133,2.29614 -0.62439,1.54419 -0.68482,3.45764 l -0.007,0.57068 q 0,2.59156 0.94666,4.49829 0.57067,1.14136 1.3562,1.78589 l -0.25513,0.75867 q -0.89294,-0.49683 -1.70532,-1.66504 -1.58448,-2.28271 -1.58448,-5.45837 z"
             style="font-style:normal;font-variant:normal;font-weight:normal;font-stretch:normal;font-size:13.75px;line-height:1.25;font-family:Roboto;-inkscape-font-specification:Roboto"
             id="path154" />
          <path
             d="m 215.59332,235.84406 1.61133,-2.65198 h 1.4502 l -2.37671,3.59192 2.45056,3.67248 h -1.43677 l -1.67847,-2.71911 -1.67846,2.71911 h -1.44348 l 2.45056,-3.67248 -2.37671,-3.59192 h 1.43677 z"
             style="font-style:normal;font-variant:normal;font-weight:normal;font-stretch:normal;font-size:13.75px;line-height:1.25;font-family:Roboto;-inkscape-font-specification:Roboto"
             id="path156" />
          <path
             d="m 219.93719,242.4035 -0.70495,-0.4834 q 0.6311,-0.87951 0.65796,-1.81274 v -1.12121 h 1.21521 v 0.97351 q 0,0.6781 -0.3357,1.3562 -0.32898,0.6781 -0.83252,1.08764 z"
             style="font-style:normal;font-variant:normal;font-weight:normal;font-stretch:normal;font-size:13.75px;line-height:1.25;font-family:Roboto;-inkscape-font-specification:Roboto"
             id="path158" />
          <path
             d="m 228.47723,238.63702 1.6919,-5.44494 h 1.32934 l -2.92053,8.38562 q -0.6781,1.81274 -2.15515,1.81274 l -0.23498,-0.0201 -0.46326,-0.0873 v -1.00708 l 0.33569,0.0269 q 0.63111,0 0.98023,-0.25513 0.35583,-0.25513 0.5841,-0.93323 l 0.27527,-0.73852 -2.59155,-7.18384 h 1.3562 z"
             style="font-style:normal;font-variant:normal;font-weight:normal;font-stretch:normal;font-size:13.75px;line-height:1.25;font-family:Roboto;-inkscape-font-specification:Roboto"
             id="path160" />
          <path
             d="m 235.46637,236.55573 q 0,1.49719 -0.39612,2.87353 -0.3894,1.36963 -1.20178,2.53113 -0.80566,1.1615 -1.6919,1.65161 l -0.26184,-0.75867 q 1.03394,-0.79223 1.65833,-2.45727 0.6311,-1.67176 0.64453,-3.70606 v -0.21484 q 0,-1.40991 -0.29541,-2.61841 -0.29541,-1.21521 -0.82581,-2.17529 -0.52368,-0.96009 -1.18164,-1.49719 l 0.26184,-0.75867 q 0.88624,0.49011 1.68519,1.63818 0.80566,1.14807 1.20178,2.53113 0.40283,1.38306 0.40283,2.96082 z"
             style="font-style:normal;font-variant:normal;font-weight:normal;font-stretch:normal;font-size:13.75px;line-height:1.25;font-family:Roboto;-inkscape-font-specification:Roboto"
             id="path162" />
        </g>
        <path
           style="fill:#cccccc;fill-opacity:1;stroke:#000000;stroke-width:1;stroke-miterlimit:4;stroke-dasharray:none"
           d="m 287.31836,212.95898 a 30,30 0 0 0 -12.06445,24.00977 30,30 0 0 0 12.07421,24.00977 30,30 0 0 0 12.06641,-24.00977 30,30 0 0 0 -12.07617,-24.00977 z"
           transform="translate(-201.51293)"
           id="circle4526"
           inkscape:connector-curvature="0" />
      </g>
    </g>
  </g>
</svg>
