<?xml version="1.0" encoding="UTF-8" standalone="no"?>
<!-- Created with Inkscape (http://www.inkscape.org/) -->

<svg
   xmlns:dc="http://purl.org/dc/elements/1.1/"
   xmlns:cc="http://creativecommons.org/ns#"
   xmlns:rdf="http://www.w3.org/1999/02/22-rdf-syntax-ns#"
   xmlns:svg="http://www.w3.org/2000/svg"
   xmlns="http://www.w3.org/2000/svg"
   xmlns:sodipodi="http://sodipodi.sourceforge.net/DTD/sodipodi-0.dtd"
   xmlns:inkscape="http://www.inkscape.org/namespaces/inkscape"
   version="1.1"
   id="svg2"
   width="116.7228mm"
   height="49.691803mm"
   viewBox="0 0 441.15704 187.81155"
   sodipodi:docname="lists-pmap-unnamed-otp.svg"
   inkscape:version="0.92.3 (2405546, 2018-03-11)">
  <metadata
     id="metadata8">
    <rdf:RDF>
      <cc:Work
         rdf:about="">
        <dc:format>image/svg+xml</dc:format>
        <dc:type
           rdf:resource="http://purl.org/dc/dcmitype/StillImage" />
        <dc:title></dc:title>
      </cc:Work>
    </rdf:RDF>
  </metadata>
  <defs
     id="defs6" />
  <sodipodi:namedview
     pagecolor="#ffffff"
     bordercolor="#666666"
     borderopacity="1"
     objecttolerance="10"
     gridtolerance="10"
     guidetolerance="10"
     inkscape:pageopacity="0"
     inkscape:pageshadow="2"
     inkscape:window-width="1600"
     inkscape:window-height="832"
     id="namedview4"
     showgrid="false"
     inkscape:zoom="1.823514"
     inkscape:cx="135.04458"
     inkscape:cy="37.804633"
     inkscape:window-x="0"
     inkscape:window-y="32"
     inkscape:window-maximized="1"
     inkscape:current-layer="svg2"
     units="mm"
     fit-margin-top="5"
     fit-margin-left="5"
     fit-margin-bottom="5"
     fit-margin-right="5"
     showguides="true"
     inkscape:guide-bbox="true">
    <sodipodi:guide
       position="762.32001,424.64631"
       orientation="1,0"
       id="guide1882"
       inkscape:locked="false" />
  </sodipodi:namedview>
  <path
     transform="rotate(90)"
     style="fill:#ebebeb;fill-opacity:1;stroke:#000000;stroke-width:1.13385832;stroke-miterlimit:4;stroke-dasharray:none;paint-order:markers fill stroke"
     d="m 56.713633,-76.550316 h 94.258677 c 3.81335,0 6.88331,3.031217 6.88331,6.796451 v 25.891301 c 0,3.765234 -3.06996,6.796451 -6.88331,6.796451 H 56.713633 c -3.813352,0 -6.883307,-3.031217 -6.883307,-6.796451 v -25.891301 c 0,-3.765234 3.069955,-6.796451 6.883307,-6.796451 z"
     id="rect889" />
  <path
     transform="rotate(90)"
     style="fill:#d6d6d6;fill-opacity:1;stroke:#000000;stroke-width:1.13385832;stroke-miterlimit:4;stroke-dasharray:none;paint-order:markers fill stroke"
     d="m 61.188114,-68.44136 h 21.327433 v 23.26629 H 61.188114 Z"
     id="rect859" />
  <g
     aria-label="5"
     style="font-style:normal;font-weight:normal;font-size:40px;line-height:1.25;font-family:sans-serif;letter-spacing:0px;word-spacing:0px;fill:#000000;fill-opacity:1;stroke:none;stroke-width:1.13385832;stroke-miterlimit:4;stroke-dasharray:none;paint-order:markers fill stroke"
     id="text863">
    <path
       d="m 53.64024,71.758072 0.578125,-5.671875 h 5.828125 v 1.335937 h -4.601563 l -0.34375,3.101563 q 0.835938,-0.492188 1.898438,-0.492188 1.554687,0 2.46875,1.03125 0.914062,1.023438 0.914062,2.773438 0,1.757812 -0.953125,2.773437 -0.945312,1.007813 -2.648437,1.007813 -1.507813,0 -2.460938,-0.835938 -0.953125,-0.835937 -1.085937,-2.3125 h 1.367187 q 0.132813,0.976563 0.695313,1.476563 0.5625,0.492187 1.484375,0.492187 1.007812,0 1.578125,-0.6875 0.578125,-0.6875 0.578125,-1.898437 0,-1.140625 -0.625,-1.828125 -0.617188,-0.695313 -1.648438,-0.695313 -0.945312,0 -1.484375,0.414063 l -0.382812,0.3125 z"
       style="font-style:normal;font-variant:normal;font-weight:normal;font-stretch:normal;font-size:16px;font-family:Roboto;-inkscape-font-specification:Roboto;stroke-width:1.13385832;stroke-miterlimit:4;stroke-dasharray:none;paint-order:markers fill stroke"
       id="path54" />
  </g>
  <path
     transform="rotate(90)"
     style="fill:#d6d6d6;fill-opacity:1;stroke:#000000;stroke-width:1.13385832;stroke-miterlimit:4;stroke-dasharray:none;paint-order:markers fill stroke"
     d="m 93.17926,-68.44136 h 21.32743 v 23.26629 H 93.17926 Z"
     id="rect871" />
  <g
     aria-label="10"
     style="font-style:normal;font-weight:normal;font-size:40px;line-height:1.25;font-family:sans-serif;letter-spacing:0px;word-spacing:0px;fill:#000000;fill-opacity:1;stroke:none;stroke-width:1.13385832;stroke-miterlimit:4;stroke-dasharray:none;paint-order:markers fill stroke"
     id="text875">
    <path
       d="m 53.300396,109.53046 h -1.453125 v -9.632816 l -2.914063,1.070316 v -1.312503 l 4.140625,-1.554688 h 0.226563 z"
       style="font-style:normal;font-variant:normal;font-weight:normal;font-stretch:normal;font-size:16px;font-family:Roboto;-inkscape-font-specification:Roboto;stroke-width:1.13385832;stroke-miterlimit:4;stroke-dasharray:none;paint-order:markers fill stroke"
       id="path58" />
    <path
       d="m 64.683208,104.67889 q 0,2.53907 -0.867187,3.77344 -0.867188,1.23438 -2.710938,1.23438 -1.820312,0 -2.695312,-1.20313 -0.875,-1.21094 -0.90625,-3.60937 v -1.92969 q 0,-2.50781 0.867187,-3.726563 0.867188,-1.21875 2.71875,-1.21875 1.835938,0 2.703125,1.179687 0.867188,1.171876 0.890625,3.624996 z m -1.445312,-1.97656 q 0,-1.83594 -0.515625,-2.67187 -0.515625,-0.843753 -1.632813,-0.843753 -1.109375,0 -1.617187,0.835933 -0.507813,0.83594 -0.523438,2.57032 v 2.3125 q 0,1.84375 0.53125,2.72656 0.539063,0.875 1.625,0.875 1.070313,0 1.585938,-0.82813 0.523437,-0.82812 0.546875,-2.60937 z"
       style="font-style:normal;font-variant:normal;font-weight:normal;font-stretch:normal;font-size:16px;font-family:Roboto;-inkscape-font-specification:Roboto;stroke-width:1.13385832;stroke-miterlimit:4;stroke-dasharray:none;paint-order:markers fill stroke"
       id="path60" />
  </g>
  <path
     transform="rotate(90)"
     style="fill:#d6d6d6;fill-opacity:1;stroke:#000000;stroke-width:1.13385832;stroke-miterlimit:4;stroke-dasharray:none;paint-order:markers fill stroke"
     d="m 125.17041,-68.441368 h 21.32743 v 23.266291 h -21.32743 z"
     id="rect877" />
  <g
     aria-label="-3"
     style="font-style:normal;font-weight:normal;font-size:40px;line-height:1.25;font-family:sans-serif;letter-spacing:0px;word-spacing:0px;fill:#000000;fill-opacity:1;stroke:none;stroke-width:1.13385832;stroke-miterlimit:4;stroke-dasharray:none;paint-order:markers fill stroke"
     id="text881">
    <path
       d="m 54.589466,137.27946 h -3.8125 v -1.17968 h 3.8125 z"
       style="font-style:normal;font-variant:normal;font-weight:normal;font-stretch:normal;font-size:16px;font-family:Roboto;-inkscape-font-specification:Roboto;stroke-width:1.13385832;stroke-miterlimit:4;stroke-dasharray:none;paint-order:markers fill stroke"
       id="path64" />
    <path
       d="m 57.941029,135.13103 h 1.085937 q 1.023438,-0.0156 1.609375,-0.53907 0.585938,-0.52343 0.585938,-1.41406 0,-2 -1.992188,-2 -0.9375,0 -1.5,0.53906 -0.554687,0.53125 -0.554687,1.41407 h -1.445313 q 0,-1.35157 0.984375,-2.24219 0.992188,-0.89844 2.515625,-0.89844 1.609375,0 2.523438,0.85156 0.914062,0.85157 0.914062,2.36719 0,0.74219 -0.484375,1.4375 -0.476562,0.69531 -1.304687,1.03906 0.9375,0.29688 1.445312,0.98438 0.515625,0.6875 0.515625,1.67969 0,1.53125 -1,2.42968 -1,0.89844 -2.601562,0.89844 -1.601563,0 -2.609375,-0.86719 -1,-0.86718 -1,-2.28906 h 1.453125 q 0,0.89844 0.585937,1.4375 0.585938,0.53906 1.570313,0.53906 1.046875,0 1.601562,-0.54687 0.554688,-0.54688 0.554688,-1.57031 0,-0.99219 -0.609375,-1.52344 -0.609375,-0.53125 -1.757813,-0.54688 h -1.085937 z"
       style="font-style:normal;font-variant:normal;font-weight:normal;font-stretch:normal;font-size:16px;font-family:Roboto;-inkscape-font-specification:Roboto;stroke-width:1.13385832;stroke-miterlimit:4;stroke-dasharray:none;paint-order:markers fill stroke"
       id="path66" />
  </g>
  <path
     transform="rotate(90)"
     style="fill:#ebebeb;fill-opacity:1;stroke:#000000;stroke-width:1.13385832;stroke-miterlimit:4;stroke-dasharray:none;paint-order:markers fill stroke"
     d="m 56.713633,-135.308 h 94.258677 c 3.81335,0 6.88331,3.03122 6.88331,6.79645 v 25.8913 c 0,3.765237 -3.06996,6.796455 -6.88331,6.796455 H 56.713633 c -3.813352,0 -6.883307,-3.031218 -6.883307,-6.796455 v -25.8913 c 0,-3.76523 3.069955,-6.79645 6.883307,-6.79645 z"
     id="rect2437" />
  <path
     transform="rotate(90)"
     style="fill:#d6d6d6;fill-opacity:1;stroke:#000000;stroke-width:1.13385832;stroke-miterlimit:4;stroke-dasharray:none;paint-order:markers fill stroke"
     d="m 61.188114,-127.19904 h 21.327433 v 23.26629 H 61.188114 Z"
     id="rect2411" />
  <g
     aria-label="1"
     style="font-style:normal;font-weight:normal;font-size:40px;line-height:1.25;font-family:sans-serif;letter-spacing:0px;word-spacing:0px;fill:#000000;fill-opacity:1;stroke:none;stroke-width:1.13385832;stroke-miterlimit:4;stroke-dasharray:none;paint-order:markers fill stroke"
     id="text2415">
    <path
       d="m 117.74949,77.461197 h -1.45313 v -9.632813 l -2.91406,1.070313 v -1.3125 l 4.14063,-1.554688 h 0.22656 z"
       style="font-style:normal;font-variant:normal;font-weight:normal;font-stretch:normal;font-size:16px;font-family:Roboto;-inkscape-font-specification:Roboto;stroke-width:1.13385832;stroke-miterlimit:4;stroke-dasharray:none;paint-order:markers fill stroke"
       id="path71" />
  </g>
  <path
     transform="rotate(90)"
     style="fill:#d6d6d6;fill-opacity:1;stroke:#000000;stroke-width:1.13385832;stroke-miterlimit:4;stroke-dasharray:none;paint-order:markers fill stroke"
     d="m 93.17926,-127.19904 h 21.32743 v 23.26629 H 93.17926 Z"
     id="rect2421" />
  <g
     aria-label="5"
     style="font-style:normal;font-weight:normal;font-size:40px;line-height:1.25;font-family:sans-serif;letter-spacing:0px;word-spacing:0px;fill:#000000;fill-opacity:1;stroke:none;stroke-width:1.13385832;stroke-miterlimit:4;stroke-dasharray:none;paint-order:markers fill stroke"
     id="text2425">
    <path
       d="m 112.39793,103.82733 0.57812,-5.671873 h 5.82813 v 1.335937 h -4.60157 l -0.34375,3.101566 q 0.83594,-0.49219 1.89844,-0.49219 1.55469,0 2.46875,1.03125 0.91406,1.02344 0.91406,2.77344 0,1.75781 -0.95312,2.77343 -0.94531,1.00782 -2.64844,1.00782 -1.50781,0 -2.46094,-0.83594 -0.95312,-0.83594 -1.08593,-2.3125 h 1.36718 q 0.13282,0.97656 0.69532,1.47656 0.5625,0.49219 1.48437,0.49219 1.00781,0 1.57813,-0.6875 0.57812,-0.6875 0.57812,-1.89844 0,-1.14062 -0.625,-1.82812 -0.61719,-0.69532 -1.64844,-0.69532 -0.94531,0 -1.48437,0.41407 l -0.38281,0.3125 z"
       style="font-style:normal;font-variant:normal;font-weight:normal;font-stretch:normal;font-size:16px;font-family:Roboto;-inkscape-font-specification:Roboto;stroke-width:1.13385832;stroke-miterlimit:4;stroke-dasharray:none;paint-order:markers fill stroke"
       id="path75" />
  </g>
  <path
     transform="rotate(90)"
     style="fill:#d6d6d6;fill-opacity:1;stroke:#000000;stroke-width:1.13385832;stroke-miterlimit:4;stroke-dasharray:none;paint-order:markers fill stroke"
     d="m 125.17044,-127.19904 h 21.32743 v 23.26629 h -21.32743 z"
     id="rect2429" />
  <g
     aria-label="10"
     style="font-style:normal;font-weight:normal;font-size:40px;line-height:1.25;font-family:sans-serif;letter-spacing:0px;word-spacing:0px;fill:#000000;fill-opacity:1;stroke:none;stroke-width:1.13385832;stroke-miterlimit:4;stroke-dasharray:none;paint-order:markers fill stroke"
     id="text2433">
    <path
       d="m 112.05809,141.52165 h -1.45312 v -9.63281 l -2.91407,1.07031 v -1.3125 l 4.14063,-1.55469 h 0.22656 z"
       style="font-style:normal;font-variant:normal;font-weight:normal;font-stretch:normal;font-size:16px;font-family:Roboto;-inkscape-font-specification:Roboto;stroke-width:1.13385832;stroke-miterlimit:4;stroke-dasharray:none;paint-order:markers fill stroke"
       id="path79" />
    <path
       d="m 123.4409,136.67009 q 0,2.53906 -0.86718,3.77344 -0.86719,1.23437 -2.71094,1.23437 -1.82031,0 -2.69531,-1.20312 -0.875,-1.21094 -0.90625,-3.60938 v -1.92969 q 0,-2.50781 0.86718,-3.72656 0.86719,-1.21875 2.71875,-1.21875 1.83594,0 2.70313,1.17969 0.86719,1.17187 0.89062,3.625 z m -1.44531,-1.97656 q 0,-1.83594 -0.51562,-2.67188 -0.51563,-0.84375 -1.63282,-0.84375 -1.10937,0 -1.61718,0.83594 -0.50782,0.83594 -0.52344,2.57031 v 2.3125 q 0,1.84375 0.53125,2.72656 0.53906,0.875 1.625,0.875 1.07031,0 1.58594,-0.82812 0.52343,-0.82813 0.54687,-2.60938 z"
       style="font-style:normal;font-variant:normal;font-weight:normal;font-stretch:normal;font-size:16px;font-family:Roboto;-inkscape-font-specification:Roboto;stroke-width:1.13385832;stroke-miterlimit:4;stroke-dasharray:none;paint-order:markers fill stroke"
       id="path81" />
  </g>
  <path
     transform="rotate(90)"
     style="fill:#ebebeb;fill-opacity:1;stroke:#000000;stroke-width:1.13385832;stroke-miterlimit:4;stroke-dasharray:none;paint-order:markers fill stroke"
     d="m 56.713633,-194.06567 h 94.258677 c 3.81335,0 6.88331,3.03121 6.88331,6.79645 v 25.8913 c 0,3.76523 -3.06996,6.79645 -6.88331,6.79645 H 56.713633 c -3.813352,0 -6.883307,-3.03122 -6.883307,-6.79645 v -25.8913 c 0,-3.76524 3.069955,-6.79645 6.883307,-6.79645 z"
     id="rect311" />
  <path
     transform="rotate(90)"
     style="fill:#d6d6d6;fill-opacity:1;stroke:#000000;stroke-width:1.13385832;stroke-miterlimit:4;stroke-dasharray:none;paint-order:markers fill stroke"
     d="m 61.188114,-185.95673 h 21.327433 v 23.26629 H 61.188114 Z"
     id="rect317" />
  <g
     aria-label="1"
     style="font-style:normal;font-weight:normal;font-size:40px;line-height:1.25;font-family:sans-serif;letter-spacing:0px;word-spacing:0px;fill:#000000;fill-opacity:1;stroke:none;stroke-width:1.13385832;stroke-miterlimit:4;stroke-dasharray:none;paint-order:markers fill stroke"
     id="text321">
    <path
       d="m 176.5072,77.461197 h -1.45312 v -9.632813 l -2.91407,1.070313 v -1.3125 l 4.14063,-1.554688 h 0.22656 z"
       style="font-style:normal;font-variant:normal;font-weight:normal;font-stretch:normal;font-size:16px;font-family:Roboto;-inkscape-font-specification:Roboto;stroke-width:1.13385832;stroke-miterlimit:4;stroke-dasharray:none;paint-order:markers fill stroke"
       id="path86" />
  </g>
  <path
     transform="rotate(90)"
     style="fill:#d6d6d6;fill-opacity:1;stroke:#000000;stroke-width:1.13385832;stroke-miterlimit:4;stroke-dasharray:none;paint-order:markers fill stroke"
     d="m 93.17926,-185.95673 h 21.32743 v 23.26629 H 93.17926 Z"
     id="rect323" />
  <g
     aria-label="3"
     style="font-style:normal;font-weight:normal;font-size:40px;line-height:1.25;font-family:sans-serif;letter-spacing:0px;word-spacing:0px;fill:#000000;fill-opacity:1;stroke:none;stroke-width:1.13385832;stroke-miterlimit:4;stroke-dasharray:none;paint-order:markers fill stroke"
     id="text327">
    <path
       d="m 173.03064,103.13983 h 1.08594 q 1.02343,-0.0156 1.60937,-0.53906 0.58594,-0.52344 0.58594,-1.41406 0,-2.000003 -1.99219,-2.000003 -0.9375,0 -1.5,0.539062 -0.55469,0.531251 -0.55469,1.414061 h -1.44531 q 0,-1.351561 0.98438,-2.242186 0.99218,-0.898437 2.51562,-0.898437 1.60938,0 2.52344,0.851562 0.91406,0.851563 0.91406,2.367191 0,0.74218 -0.48437,1.4375 -0.47657,0.69531 -1.30469,1.03906 0.9375,0.29687 1.44531,0.98437 0.51563,0.6875 0.51563,1.67969 0,1.53125 -1,2.42969 -1,0.89844 -2.60157,0.89844 -1.60156,0 -2.60937,-0.86719 -1,-0.86719 -1,-2.28906 h 1.45312 q 0,0.89843 0.58594,1.4375 0.58594,0.53906 1.57031,0.53906 1.04688,0 1.60157,-0.54688 0.55468,-0.54687 0.55468,-1.57031 0,-0.99219 -0.60937,-1.52344 -0.60938,-0.53125 -1.75781,-0.54687 h -1.08594 z"
       style="font-style:normal;font-variant:normal;font-weight:normal;font-stretch:normal;font-size:16px;font-family:Roboto;-inkscape-font-specification:Roboto;stroke-width:1.13385832;stroke-miterlimit:4;stroke-dasharray:none;paint-order:markers fill stroke"
       id="path90" />
  </g>
  <path
     transform="rotate(90)"
     style="fill:#d6d6d6;fill-opacity:1;stroke:#000000;stroke-width:1.13385832;stroke-miterlimit:4;stroke-dasharray:none;paint-order:markers fill stroke"
     d="m 125.17044,-185.95673 h 21.32743 v 23.26629 h -21.32743 z"
     id="rect329" />
  <g
     aria-label="5"
     style="font-style:normal;font-weight:normal;font-size:40px;line-height:1.25;font-family:sans-serif;letter-spacing:0px;word-spacing:0px;fill:#000000;fill-opacity:1;stroke:none;stroke-width:1.13385832;stroke-miterlimit:4;stroke-dasharray:none;paint-order:markers fill stroke"
     id="text333">
    <path
       d="m 171.15564,135.81853 0.57812,-5.67188 h 5.82813 v 1.33594 h -4.60156 l -0.34375,3.10156 q 0.83593,-0.49219 1.89843,-0.49219 1.55469,0 2.46875,1.03125 0.91407,1.02344 0.91407,2.77344 0,1.75781 -0.95313,2.77344 -0.94531,1.00781 -2.64844,1.00781 -1.50781,0 -2.46093,-0.83594 -0.95313,-0.83593 -1.08594,-2.3125 h 1.36719 q 0.13281,0.97657 0.69531,1.47657 0.5625,0.49218 1.48437,0.49218 1.00782,0 1.57813,-0.6875 0.57812,-0.6875 0.57812,-1.89843 0,-1.14063 -0.625,-1.82813 -0.61718,-0.69531 -1.64843,-0.69531 -0.94532,0 -1.48438,0.41406 l -0.38281,0.3125 z"
       style="font-style:normal;font-variant:normal;font-weight:normal;font-stretch:normal;font-size:16px;font-family:Roboto;-inkscape-font-specification:Roboto;stroke-width:1.13385832;stroke-miterlimit:4;stroke-dasharray:none;paint-order:markers fill stroke"
       id="path94" />
  </g>
  <path
     transform="rotate(90)"
     style="fill:none;fill-opacity:1;stroke:#000000;stroke-width:1.13385832;stroke-miterlimit:4;stroke-dasharray:none;paint-order:markers fill stroke"
     d="M 47.691782,-211.66722 H 159.99417 c 4.62745,0 8.3528,4.36753 8.3528,9.79266 v 172.617326 c 0,5.425137 -3.72535,9.792665 -8.3528,9.792665 H 47.691782 c -4.627454,0 -8.352804,-4.367528 -8.352804,-9.792665 V -201.87456 c 0,-5.42513 3.72535,-9.79266 8.352804,-9.79266 z"
     id="rect456" />
  <g
     aria-label="pmap(args1)"
     style="font-style:normal;font-weight:normal;font-size:40px;line-height:1.25;font-family:sans-serif;letter-spacing:0px;word-spacing:0px;fill:#000000;fill-opacity:1;stroke:none;stroke-width:1.13385832;stroke-miterlimit:4;stroke-dasharray:none;paint-order:markers fill stroke"
     id="text2470">
    <path
       d="m 285.60339,33.957462 q 0,0.90625 -0.21875,1.695313 -0.21875,0.78125 -0.64062,1.359375 -0.42188,0.578125 -1.04688,0.90625 -0.61718,0.328125 -1.41406,0.328125 -0.77344,0 -1.36719,-0.25 -0.58593,-0.25 -1.00781,-0.71875 v 4.0625 h -1.44531 V 29.63715 h 1.32031 l 0.0703,0.921875 q 0.42188,-0.523438 1.01563,-0.796875 0.60156,-0.28125 1.39062,-0.28125 0.8125,0 1.4375,0.320312 0.625,0.320313 1.04688,0.890625 0.42187,0.570313 0.64062,1.367188 0.21875,0.789062 0.21875,1.734375 z M 284.15808,33.7934 q 0,-0.617188 -0.14062,-1.171875 -0.13282,-0.5625 -0.42188,-0.984375 -0.28125,-0.429688 -0.71875,-0.679688 -0.4375,-0.25 -1.04687,-0.25 -0.69532,0 -1.17188,0.328125 -0.46875,0.320313 -0.75,0.828125 v 4.070313 q 0.28125,0.5 0.75,0.820312 0.46875,0.3125 1.1875,0.3125 0.60156,0 1.03906,-0.25 0.4375,-0.257812 0.71875,-0.6875 0.28125,-0.429687 0.41407,-0.992187 0.14062,-0.5625 0.14062,-1.179688 z"
       style="font-style:normal;font-variant:normal;font-weight:normal;font-stretch:normal;font-size:16px;font-family:'Roboto Mono';-inkscape-font-specification:'Roboto Mono';stroke-width:1.13385832;stroke-miterlimit:4;stroke-dasharray:none;paint-order:markers fill stroke"
       id="path98" />
    <path
       d="m 288.72839,29.63715 0.0391,0.796875 q 0.25781,-0.445313 0.67187,-0.695313 0.42188,-0.25 1.01563,-0.257812 1.16406,0 1.55468,0.90625 0.25,-0.40625 0.65625,-0.648438 0.41407,-0.25 1,-0.257812 0.92969,0 1.42969,0.570312 0.5,0.570313 0.5,1.726563 v 6.3125 h -1.375 V 31.76215 q 0,-1.0625 -0.97656,-1.054688 -0.25781,0 -0.44531,0.07031 -0.1875,0.07031 -0.3125,0.195312 -0.125,0.117188 -0.19532,0.28125 -0.0703,0.15625 -0.0937,0.328125 v 6.507813 h -1.375 v -6.335938 q 0,-0.507812 -0.22656,-0.78125 -0.22656,-0.273437 -0.71875,-0.265625 -0.45312,0 -0.70312,0.179688 -0.25,0.179687 -0.36719,0.476562 v 6.726563 h -1.375 V 29.63715 Z"
       style="font-style:normal;font-variant:normal;font-weight:normal;font-stretch:normal;font-size:16px;font-family:'Roboto Mono';-inkscape-font-specification:'Roboto Mono';stroke-width:1.13385832;stroke-miterlimit:4;stroke-dasharray:none;paint-order:markers fill stroke"
       id="path100" />
    <path
       d="m 303.21277,38.090275 q -0.0859,-0.164063 -0.14063,-0.40625 -0.0469,-0.25 -0.0703,-0.515625 -0.21875,0.21875 -0.49219,0.414062 -0.26562,0.195313 -0.59375,0.34375 -0.32031,0.148438 -0.6875,0.234375 -0.36718,0.08594 -0.78125,0.08594 -0.67187,0 -1.21875,-0.195313 -0.53906,-0.195312 -0.92187,-0.523437 -0.375,-0.335938 -0.58594,-0.789063 -0.20312,-0.460937 -0.20312,-0.992187 0,-0.695313 0.27343,-1.21875 0.28125,-0.523438 0.78907,-0.867188 0.50781,-0.351562 1.21875,-0.523437 0.71875,-0.171875 1.60156,-0.171875 h 1.57812 v -0.664063 q 0,-0.382812 -0.14062,-0.6875 -0.14063,-0.304687 -0.39844,-0.515625 -0.25781,-0.21875 -0.63281,-0.335937 -0.36719,-0.117188 -0.82813,-0.117188 -0.42968,0 -0.77343,0.109375 -0.33594,0.109375 -0.57032,0.289063 -0.23437,0.179687 -0.36718,0.429687 -0.125,0.242188 -0.125,0.507813 h -1.45313 q 0.008,-0.460938 0.23438,-0.90625 0.23437,-0.445313 0.66406,-0.796875 0.4375,-0.359375 1.05469,-0.578125 0.625,-0.21875 1.41406,-0.21875 0.71875,0 1.33594,0.179687 0.61718,0.171875 1.0625,0.53125 0.45312,0.351563 0.71093,0.882813 0.25782,0.53125 0.25782,1.242187 v 3.929688 q 0,0.421875 0.0781,0.898437 0.0781,0.46875 0.21875,0.820313 v 0.125 z m -2.55469,-1.101563 q 0.42188,0 0.78906,-0.109375 0.36719,-0.109375 0.66407,-0.289062 0.30468,-0.179688 0.52343,-0.40625 0.21875,-0.234375 0.34375,-0.484375 v -1.710938 h -1.34375 q -1.26562,0 -1.96875,0.375 -0.70312,0.375 -0.70312,1.179688 0,0.3125 0.10156,0.578125 0.10938,0.265625 0.32031,0.460937 0.21094,0.1875 0.53125,0.296875 0.32032,0.109375 0.74219,0.109375 z"
       style="font-style:normal;font-variant:normal;font-weight:normal;font-stretch:normal;font-size:16px;font-family:'Roboto Mono';-inkscape-font-specification:'Roboto Mono';stroke-width:1.13385832;stroke-miterlimit:4;stroke-dasharray:none;paint-order:markers fill stroke"
       id="path102" />
    <path
       d="m 314.38464,33.957462 q 0,0.90625 -0.21875,1.695313 -0.21875,0.78125 -0.64062,1.359375 -0.42188,0.578125 -1.04688,0.90625 -0.61718,0.328125 -1.41406,0.328125 -0.77344,0 -1.36719,-0.25 -0.58593,-0.25 -1.00781,-0.71875 v 4.0625 h -1.44531 V 29.63715 h 1.32031 l 0.0703,0.921875 q 0.42188,-0.523438 1.01563,-0.796875 0.60156,-0.28125 1.39062,-0.28125 0.8125,0 1.4375,0.320312 0.625,0.320313 1.04688,0.890625 0.42187,0.570313 0.64062,1.367188 0.21875,0.789062 0.21875,1.734375 z M 312.93933,33.7934 q 0,-0.617188 -0.14062,-1.171875 -0.13282,-0.5625 -0.42188,-0.984375 -0.28125,-0.429688 -0.71875,-0.679688 -0.4375,-0.25 -1.04687,-0.25 -0.69532,0 -1.17188,0.328125 -0.46875,0.320313 -0.75,0.828125 v 4.070313 q 0.28125,0.5 0.75,0.820312 0.46875,0.3125 1.1875,0.3125 0.60156,0 1.03906,-0.25 0.4375,-0.257812 0.71875,-0.6875 0.28125,-0.429687 0.41407,-0.992187 0.14062,-0.5625 0.14062,-1.179688 z"
       style="font-style:normal;font-variant:normal;font-weight:normal;font-stretch:normal;font-size:16px;font-family:'Roboto Mono';-inkscape-font-specification:'Roboto Mono';stroke-width:1.13385832;stroke-miterlimit:4;stroke-dasharray:none;paint-order:markers fill stroke"
       id="path104" />
    <path
       d="m 318.27527,33.473087 q 0,-1.117187 0.17187,-2.101562 0.17969,-0.984375 0.47657,-1.820313 0.29687,-0.84375 0.67968,-1.539062 0.39063,-0.695313 0.8125,-1.234375 0.42969,-0.539063 0.85938,-0.921875 0.42969,-0.382813 0.82031,-0.601563 l 0.30469,0.953125 q -0.48438,0.367188 -0.96875,1 -0.47656,0.632813 -0.85938,1.539063 -0.375,0.898437 -0.61718,2.078125 -0.23438,1.171875 -0.23438,2.632812 v 0.109375 q 0,1.460938 0.23438,2.640625 0.24218,1.179688 0.61718,2.085938 0.38282,0.90625 0.85938,1.546875 0.48437,0.648437 0.96875,1.039062 l -0.30469,0.882813 q -0.39062,-0.21875 -0.82812,-0.601563 -0.42969,-0.375 -0.85938,-0.921875 -0.42187,-0.539062 -0.8125,-1.234375 -0.38281,-0.6875 -0.67969,-1.523437 -0.28906,-0.84375 -0.46875,-1.828125 -0.17187,-0.984375 -0.17187,-2.101563 z"
       style="font-style:normal;font-variant:normal;font-weight:normal;font-stretch:normal;font-size:16px;font-family:'Roboto Mono';-inkscape-font-specification:'Roboto Mono';stroke-width:1.13385832;stroke-miterlimit:4;stroke-dasharray:none;paint-order:markers fill stroke"
       id="path106" />
    <path
       d="m 331.99402,38.090275 q -0.0859,-0.164063 -0.14063,-0.40625 -0.0469,-0.25 -0.0703,-0.515625 -0.21875,0.21875 -0.49219,0.414062 -0.26562,0.195313 -0.59375,0.34375 -0.32031,0.148438 -0.6875,0.234375 -0.36718,0.08594 -0.78125,0.08594 -0.67187,0 -1.21875,-0.195313 -0.53906,-0.195312 -0.92187,-0.523437 -0.375,-0.335938 -0.58594,-0.789063 -0.20312,-0.460937 -0.20312,-0.992187 0,-0.695313 0.27343,-1.21875 0.28125,-0.523438 0.78907,-0.867188 0.50781,-0.351562 1.21875,-0.523437 0.71875,-0.171875 1.60156,-0.171875 h 1.57812 v -0.664063 q 0,-0.382812 -0.14062,-0.6875 -0.14063,-0.304687 -0.39844,-0.515625 -0.25781,-0.21875 -0.63281,-0.335937 -0.36719,-0.117188 -0.82813,-0.117188 -0.42968,0 -0.77343,0.109375 -0.33594,0.109375 -0.57032,0.289063 -0.23437,0.179687 -0.36718,0.429687 -0.125,0.242188 -0.125,0.507813 h -1.45313 q 0.008,-0.460938 0.23438,-0.90625 0.23437,-0.445313 0.66406,-0.796875 0.4375,-0.359375 1.05469,-0.578125 0.625,-0.21875 1.41406,-0.21875 0.71875,0 1.33594,0.179687 0.61718,0.171875 1.0625,0.53125 0.45312,0.351563 0.71093,0.882813 0.25782,0.53125 0.25782,1.242187 v 3.929688 q 0,0.421875 0.0781,0.898437 0.0781,0.46875 0.21875,0.820313 v 0.125 z m -2.55469,-1.101563 q 0.42188,0 0.78906,-0.109375 0.36719,-0.109375 0.66407,-0.289062 0.30468,-0.179688 0.52343,-0.40625 0.21875,-0.234375 0.34375,-0.484375 v -1.710938 h -1.34375 q -1.26562,0 -1.96875,0.375 -0.70312,0.375 -0.70312,1.179688 0,0.3125 0.10156,0.578125 0.10938,0.265625 0.32031,0.460937 0.21094,0.1875 0.53125,0.296875 0.32032,0.109375 0.74219,0.109375 z"
       style="font-style:normal;font-variant:normal;font-weight:normal;font-stretch:normal;font-size:16px;font-family:'Roboto Mono';-inkscape-font-specification:'Roboto Mono';stroke-width:1.13385832;stroke-miterlimit:4;stroke-dasharray:none;paint-order:markers fill stroke"
       id="path108" />
    <path
       d="m 341.57214,29.4809 q 0.20313,0 0.42188,0.01563 0.21875,0.0078 0.41406,0.03906 0.20313,0.02344 0.36719,0.0625 0.17187,0.03906 0.28125,0.08594 l -0.19531,1.414062 q -0.42188,-0.09375 -0.80469,-0.132812 -0.375,-0.04687 -0.78906,-0.04687 -1.01563,0 -1.64844,0.460937 -0.625,0.460938 -0.92188,1.289063 v 5.421875 h -1.45312 V 29.63715 h 1.375 l 0.0703,1.34375 q 0.51563,-0.695313 1.23438,-1.09375 0.72656,-0.40625 1.64843,-0.40625 z"
       style="font-style:normal;font-variant:normal;font-weight:normal;font-stretch:normal;font-size:16px;font-family:'Roboto Mono';-inkscape-font-specification:'Roboto Mono';stroke-width:1.13385832;stroke-miterlimit:4;stroke-dasharray:none;paint-order:markers fill stroke"
       id="path110" />
    <path
       d="m 345.36121,33.7934 q 0,-0.945313 0.22656,-1.734375 0.23437,-0.796875 0.67187,-1.367188 0.4375,-0.570312 1.0625,-0.890625 0.625,-0.320312 1.41407,-0.320312 0.78125,0 1.36718,0.28125 0.59375,0.273437 1.00782,0.796875 l 0.0703,-0.921875 h 1.3125 v 8.273437 q 0,0.835938 -0.26563,1.484375 -0.25781,0.648438 -0.73437,1.101563 -0.46875,0.453125 -1.125,0.6875 -0.65625,0.234375 -1.45313,0.234375 -0.32812,0 -0.75,-0.07813 -0.42187,-0.07031 -0.85937,-0.242188 -0.42969,-0.164062 -0.83594,-0.445312 -0.39844,-0.28125 -0.6875,-0.695313 l 0.75,-0.867187 q 0.26563,0.320312 0.54688,0.539062 0.28125,0.226563 0.57031,0.359375 0.28906,0.132813 0.57812,0.1875 0.28907,0.0625 0.57813,0.0625 0.51562,0 0.92969,-0.148437 0.41406,-0.148438 0.70312,-0.4375 0.29688,-0.28125 0.45313,-0.703125 0.15625,-0.421875 0.15625,-0.96875 v -0.726563 q -0.42188,0.484375 -1,0.742188 -0.57032,0.25 -1.32813,0.25 -0.77344,0 -1.39844,-0.328125 -0.625,-0.328125 -1.0625,-0.90625 -0.42968,-0.578125 -0.66406,-1.359375 -0.23437,-0.789063 -0.23437,-1.695313 z m 1.44531,0.164062 q 0,0.617188 0.125,1.171875 0.13281,0.554688 0.40625,0.976563 0.28125,0.421875 0.71094,0.671875 0.42968,0.242187 1.03125,0.242187 0.375,0 0.67187,-0.08594 0.30469,-0.09375 0.53906,-0.257813 0.24219,-0.164062 0.42969,-0.390625 0.1875,-0.226562 0.32813,-0.5 v -3.875 q -0.14063,-0.265625 -0.32813,-0.484375 -0.1875,-0.21875 -0.42969,-0.375 -0.24218,-0.164062 -0.53906,-0.25 -0.29687,-0.09375 -0.65625,-0.09375 -0.60937,0 -1.04687,0.25 -0.42969,0.25 -0.71094,0.679688 -0.27344,0.421875 -0.40625,0.984375 -0.125,0.554687 -0.125,1.171875 z"
       style="font-style:normal;font-variant:normal;font-weight:normal;font-stretch:normal;font-size:16px;font-family:'Roboto Mono';-inkscape-font-specification:'Roboto Mono';stroke-width:1.13385832;stroke-miterlimit:4;stroke-dasharray:none;paint-order:markers fill stroke"
       id="path112" />
    <path
       d="m 360.83777,35.848087 q 0,-0.257812 -0.10156,-0.460937 -0.10157,-0.210938 -0.34375,-0.382813 -0.24219,-0.171875 -0.64063,-0.3125 -0.39844,-0.148437 -0.99219,-0.265625 -0.72656,-0.148437 -1.32812,-0.359375 -0.59375,-0.210937 -1.02344,-0.5 -0.42187,-0.296875 -0.65625,-0.6875 -0.23437,-0.398437 -0.23437,-0.921875 0,-0.515625 0.24218,-0.960937 0.24219,-0.453125 0.67969,-0.789063 0.4375,-0.335937 1.03906,-0.53125 0.60938,-0.195312 1.33594,-0.195312 0.78125,0 1.40625,0.203125 0.625,0.203125 1.0625,0.5625 0.4375,0.359375 0.67188,0.84375 0.24218,0.476562 0.24218,1.03125 h -1.44531 q 0,-0.273438 -0.14062,-0.53125 -0.14063,-0.265625 -0.39063,-0.46875 -0.25,-0.203125 -0.60937,-0.328125 -0.35157,-0.125 -0.79688,-0.125 -0.46094,0 -0.8125,0.101562 -0.34375,0.101563 -0.57812,0.273438 -0.22657,0.171875 -0.34375,0.398437 -0.11719,0.226563 -0.11719,0.46875 0,0.25 0.0937,0.445313 0.0937,0.195312 0.32031,0.351562 0.23438,0.15625 0.61719,0.28125 0.39062,0.125 0.98437,0.242188 0.78125,0.164062 1.39844,0.382812 0.61719,0.210938 1.03906,0.515625 0.42188,0.296875 0.64063,0.695313 0.22656,0.398437 0.22656,0.921875 0,0.5625 -0.25781,1.023437 -0.25,0.460938 -0.70313,0.789063 -0.45312,0.328125 -1.08593,0.507812 -0.63282,0.179688 -1.38282,0.179688 -0.85937,0 -1.53125,-0.226563 -0.67187,-0.234375 -1.14062,-0.609375 -0.46094,-0.382812 -0.71094,-0.882812 -0.24219,-0.5 -0.24219,-1.039063 h 1.44532 q 0.0312,0.445313 0.23437,0.75 0.21094,0.304688 0.51563,0.492188 0.3125,0.1875 0.6875,0.265625 0.375,0.07813 0.74218,0.07813 0.91407,0 1.44532,-0.335938 0.53125,-0.335937 0.53906,-0.890625 z"
       style="font-style:normal;font-variant:normal;font-weight:normal;font-stretch:normal;font-size:16px;font-family:'Roboto Mono';-inkscape-font-specification:'Roboto Mono';stroke-width:1.13385832;stroke-miterlimit:4;stroke-dasharray:none;paint-order:markers fill stroke"
       id="path114" />
    <path
       d="m 369.50183,38.090275 h -1.44531 v -9.53125 l -2.97656,1.132812 v -1.320312 l 4.30468,-1.65625 h 0.11719 z"
       style="font-style:normal;font-variant:normal;font-weight:normal;font-stretch:normal;font-size:16px;font-family:'Roboto Mono';-inkscape-font-specification:'Roboto Mono';stroke-width:1.13385832;stroke-miterlimit:4;stroke-dasharray:none;paint-order:markers fill stroke"
       id="path116" />
    <path
       d="m 379.68152,33.551212 q 0,1.117188 -0.17969,2.101563 -0.17187,0.984375 -0.46875,1.828125 -0.29687,0.835937 -0.6875,1.523437 -0.38281,0.695313 -0.8125,1.234375 -0.42187,0.546875 -0.85937,0.921875 -0.42969,0.382813 -0.82032,0.601563 l -0.30468,-0.882813 q 0.48437,-0.359375 0.96093,-1.007812 0.48438,-0.640625 0.85938,-1.554688 0.38281,-0.914062 0.61719,-2.101562 0.24218,-1.1875 0.24218,-2.648438 v -0.109375 q 0,-1.460937 -0.25,-2.648437 -0.25,-1.195313 -0.64843,-2.109375 -0.39063,-0.921875 -0.86719,-1.5625 -0.46875,-0.640625 -0.91406,-1 l 0.30468,-0.882813 q 0.39063,0.21875 0.82032,0.601563 0.4375,0.382812 0.85937,0.921875 0.42969,0.539062 0.8125,1.234375 0.39063,0.695312 0.6875,1.539062 0.29688,0.835938 0.46875,1.820313 0.17969,0.984375 0.17969,2.101562 z"
       style="font-style:normal;font-variant:normal;font-weight:normal;font-stretch:normal;font-size:16px;font-family:'Roboto Mono';-inkscape-font-specification:'Roboto Mono';stroke-width:1.13385832;stroke-miterlimit:4;stroke-dasharray:none;paint-order:markers fill stroke"
       id="path118" />
  </g>
  <path
     transform="rotate(90)"
     style="fill:#ebebeb;fill-opacity:1;stroke:#000000;stroke-width:1.13385832;stroke-miterlimit:4;stroke-dasharray:none;paint-order:markers fill stroke"
     d="m 61.646214,-403.9176 h 21.327432 v 149.6909 H 61.646214 Z"
     id="rect2472" />
  <g
     aria-label="rnorm(5, 1, n = 1)"
     style="font-style:normal;font-weight:normal;font-size:40px;line-height:1.25;font-family:sans-serif;letter-spacing:0px;word-spacing:0px;fill:#000000;fill-opacity:1;stroke:none;stroke-width:1.13385832;stroke-miterlimit:4;stroke-dasharray:none;paint-order:markers fill stroke"
     id="text2476">
    <path
       d="m 273.94324,70.763039 q -0.32813,-0.05469 -0.71094,-0.05469 -1.42188,0 -1.92969,1.210938 v 6 h -1.44531 v -8.453125 h 1.40625 l 0.0234,0.976562 q 0.71093,-1.132812 2.01562,-1.132812 0.42188,0 0.64063,0.109375 z"
       style="font-style:normal;font-variant:normal;font-weight:normal;font-stretch:normal;font-size:16px;font-family:Roboto;-inkscape-font-specification:Roboto;stroke-width:1.13385832;stroke-miterlimit:4;stroke-dasharray:none;paint-order:markers fill stroke"
       id="path122" />
    <path
       d="m 276.63074,69.466164 0.0469,1.0625 q 0.96875,-1.21875 2.53125,-1.21875 2.67969,0 2.70313,3.023437 v 5.585938 h -1.44532 v -5.59375 q -0.008,-0.914063 -0.42187,-1.351563 -0.40625,-0.4375 -1.27344,-0.4375 -0.70312,0 -1.23437,0.375 -0.53125,0.375 -0.82813,0.984375 v 6.023438 h -1.44531 v -8.453125 z"
       style="font-style:normal;font-variant:normal;font-weight:normal;font-stretch:normal;font-size:16px;font-family:Roboto;-inkscape-font-specification:Roboto;stroke-width:1.13385832;stroke-miterlimit:4;stroke-dasharray:none;paint-order:markers fill stroke"
       id="path124" />
    <path
       d="m 283.72449,73.614601 q 0,-1.242187 0.48437,-2.234375 0.49219,-0.992187 1.35938,-1.53125 0.875,-0.539062 1.99218,-0.539062 1.72657,0 2.78907,1.195312 1.07031,1.195313 1.07031,3.179688 v 0.101562 q 0,1.234375 -0.47656,2.21875 -0.46875,0.976563 -1.35157,1.523438 -0.875,0.546875 -2.01562,0.546875 -1.71875,0 -2.78906,-1.195313 -1.0625,-1.195312 -1.0625,-3.164062 z m 1.45312,0.171875 q 0,1.40625 0.64844,2.257813 0.65625,0.851562 1.75,0.851562 1.10156,0 1.75,-0.859375 0.64844,-0.867187 0.64844,-2.421875 0,-1.390625 -0.66407,-2.25 -0.65625,-0.867187 -1.75,-0.867187 -1.07031,0 -1.72656,0.851562 -0.65625,0.851563 -0.65625,2.4375 z"
       style="font-style:normal;font-variant:normal;font-weight:normal;font-stretch:normal;font-size:16px;font-family:Roboto;-inkscape-font-specification:Roboto;stroke-width:1.13385832;stroke-miterlimit:4;stroke-dasharray:none;paint-order:markers fill stroke"
       id="path126" />
    <path
       d="m 297.31824,70.763039 q -0.32813,-0.05469 -0.71094,-0.05469 -1.42188,0 -1.92969,1.210938 v 6 h -1.44531 v -8.453125 h 1.40625 l 0.0234,0.976562 q 0.71093,-1.132812 2.01562,-1.132812 0.42188,0 0.64063,0.109375 z"
       style="font-style:normal;font-variant:normal;font-weight:normal;font-stretch:normal;font-size:16px;font-family:Roboto;-inkscape-font-specification:Roboto;stroke-width:1.13385832;stroke-miterlimit:4;stroke-dasharray:none;paint-order:markers fill stroke"
       id="path128" />
    <path
       d="m 299.99792,69.466164 0.0391,0.9375 q 0.92968,-1.09375 2.50781,-1.09375 1.77344,0 2.41406,1.359375 0.42188,-0.609375 1.09375,-0.984375 0.67969,-0.375 1.60156,-0.375 2.78125,0 2.82813,2.945312 v 5.664063 h -1.44531 v -5.578125 q 0,-0.90625 -0.41407,-1.351563 -0.41406,-0.453125 -1.39062,-0.453125 -0.80469,0 -1.33594,0.484375 -0.53125,0.476563 -0.61719,1.289063 v 5.609375 h -1.45312 v -5.539063 q 0,-1.84375 -1.80469,-1.84375 -1.42187,0 -1.94531,1.210938 v 6.171875 h -1.44531 v -8.453125 z"
       style="font-style:normal;font-variant:normal;font-weight:normal;font-stretch:normal;font-size:16px;font-family:Roboto;-inkscape-font-specification:Roboto;stroke-width:1.13385832;stroke-miterlimit:4;stroke-dasharray:none;paint-order:markers fill stroke"
       id="path130" />
    <path
       d="m 312.61511,73.302101 q 0,-1.765625 0.46875,-3.390625 0.47656,-1.625 1.41406,-2.953125 0.9375,-1.328125 1.94532,-1.875 l 0.29687,0.953125 q -1.14062,0.875 -1.875,2.671875 -0.72656,1.796875 -0.79687,4.023438 l -0.008,0.664062 q 0,3.015625 1.10157,5.234375 0.66406,1.328125 1.57812,2.078125 l -0.29687,0.882813 q -1.03907,-0.578125 -1.98438,-1.9375 -1.84375,-2.65625 -1.84375,-6.351563 z"
       style="font-style:normal;font-variant:normal;font-weight:normal;font-stretch:normal;font-size:16px;font-family:Roboto;-inkscape-font-specification:Roboto;stroke-width:1.13385832;stroke-miterlimit:4;stroke-dasharray:none;paint-order:markers fill stroke"
       id="path132" />
    <path
       d="m 318.65417,72.216164 0.57813,-5.671875 h 5.82812 v 1.335937 h -4.60156 l -0.34375,3.101563 q 0.83594,-0.492188 1.89844,-0.492188 1.55469,0 2.46875,1.03125 0.91406,1.023438 0.91406,2.773438 0,1.757812 -0.95312,2.773437 -0.94532,1.007813 -2.64844,1.007813 -1.50781,0 -2.46094,-0.835938 -0.95312,-0.835937 -1.08594,-2.3125 h 1.36719 q 0.13281,0.976563 0.69531,1.476563 0.5625,0.492187 1.48438,0.492187 1.00781,0 1.57812,-0.6875 0.57813,-0.6875 0.57813,-1.898437 0,-1.140625 -0.625,-1.828125 -0.61719,-0.695313 -1.64844,-0.695313 -0.94531,0 -1.48437,0.414063 l -0.38282,0.3125 z"
       style="font-style:normal;font-variant:normal;font-weight:normal;font-stretch:normal;font-size:16px;font-family:Roboto;-inkscape-font-specification:Roboto;stroke-width:1.13385832;stroke-miterlimit:4;stroke-dasharray:none;paint-order:markers fill stroke"
       id="path134" />
    <path
       d="m 327.09167,80.184914 -0.82031,-0.5625 q 0.73438,-1.023438 0.76563,-2.109375 v -1.304688 h 1.41406 v 1.132813 q 0,0.789062 -0.39063,1.578125 -0.38281,0.789062 -0.96875,1.265625 z"
       style="font-style:normal;font-variant:normal;font-weight:normal;font-stretch:normal;font-size:16px;font-family:Roboto;-inkscape-font-specification:Roboto;stroke-width:1.13385832;stroke-miterlimit:4;stroke-dasharray:none;paint-order:markers fill stroke"
       id="path136" />
    <path
       d="m 338.86511,77.919289 h -1.45312 v -9.632813 l -2.91407,1.070313 v -1.3125 l 4.14063,-1.554688 h 0.22656 z"
       style="font-style:normal;font-variant:normal;font-weight:normal;font-stretch:normal;font-size:16px;font-family:Roboto;-inkscape-font-specification:Roboto;stroke-width:1.13385832;stroke-miterlimit:4;stroke-dasharray:none;paint-order:markers fill stroke"
       id="path138" />
    <path
       d="m 343.21667,80.184914 -0.82031,-0.5625 q 0.73438,-1.023438 0.76563,-2.109375 v -1.304688 h 1.41406 v 1.132813 q 0,0.789062 -0.39063,1.578125 -0.38281,0.789062 -0.96875,1.265625 z"
       style="font-style:normal;font-variant:normal;font-weight:normal;font-stretch:normal;font-size:16px;font-family:Roboto;-inkscape-font-specification:Roboto;stroke-width:1.13385832;stroke-miterlimit:4;stroke-dasharray:none;paint-order:markers fill stroke"
       id="path140" />
    <path
       d="m 351.75574,69.466164 0.0469,1.0625 q 0.96875,-1.21875 2.53125,-1.21875 2.67969,0 2.70313,3.023437 v 5.585938 h -1.44532 v -5.59375 q -0.008,-0.914063 -0.42187,-1.351563 -0.40625,-0.4375 -1.27344,-0.4375 -0.70312,0 -1.23437,0.375 -0.53125,0.375 -0.82813,0.984375 v 6.023438 h -1.44531 v -8.453125 z"
       style="font-style:normal;font-variant:normal;font-weight:normal;font-stretch:normal;font-size:16px;font-family:Roboto;-inkscape-font-specification:Roboto;stroke-width:1.13385832;stroke-miterlimit:4;stroke-dasharray:none;paint-order:markers fill stroke"
       id="path142" />
    <path
       d="m 369.81042,71.559914 h -6.51562 v -1.257813 h 6.51562 z m 0,3.242187 h -6.51562 v -1.25 h 6.51562 z"
       style="font-style:normal;font-variant:normal;font-weight:normal;font-stretch:normal;font-size:16px;font-family:Roboto;-inkscape-font-specification:Roboto;stroke-width:1.13385832;stroke-miterlimit:4;stroke-dasharray:none;paint-order:markers fill stroke"
       id="path144" />
    <path
       d="m 380.55261,77.919289 h -1.45312 v -9.632813 l -2.91407,1.070313 v -1.3125 l 4.14063,-1.554688 h 0.22656 z"
       style="font-style:normal;font-variant:normal;font-weight:normal;font-stretch:normal;font-size:16px;font-family:Roboto;-inkscape-font-specification:Roboto;stroke-width:1.13385832;stroke-miterlimit:4;stroke-dasharray:none;paint-order:markers fill stroke"
       id="path146" />
    <path
       d="m 388.28699,73.380226 q 0,1.742188 -0.46094,3.34375 -0.45313,1.59375 -1.39844,2.945313 -0.9375,1.351562 -1.96875,1.921875 l -0.30469,-0.882813 q 1.20313,-0.921875 1.92969,-2.859375 0.73438,-1.945312 0.75,-4.3125 v -0.25 q 0,-1.640625 -0.34375,-3.046875 -0.34375,-1.414062 -0.96094,-2.53125 -0.60937,-1.117187 -1.375,-1.742187 l 0.30469,-0.882813 q 1.03125,0.570313 1.96094,1.90625 0.9375,1.335938 1.39844,2.945313 0.46875,1.609375 0.46875,3.445312 z"
       style="font-style:normal;font-variant:normal;font-weight:normal;font-stretch:normal;font-size:16px;font-family:Roboto;-inkscape-font-specification:Roboto;stroke-width:1.13385832;stroke-miterlimit:4;stroke-dasharray:none;paint-order:markers fill stroke"
       id="path148" />
  </g>
  <path
     transform="rotate(90)"
     style="fill:#ebebeb;fill-opacity:1;stroke:#000000;stroke-width:1.13385832;stroke-miterlimit:4;stroke-dasharray:none;paint-order:markers fill stroke"
     d="M 93.637367,-403.9176 H 114.9648 v 149.69088 H 93.637367 Z"
     id="rect2478" />
  <g
     aria-label="rnorm(10, 5, n = 3)"
     style="font-style:normal;font-weight:normal;font-size:40px;line-height:1.25;font-family:sans-serif;letter-spacing:0px;word-spacing:0px;fill:#000000;fill-opacity:1;stroke:none;stroke-width:1.13385832;stroke-miterlimit:4;stroke-dasharray:none;paint-order:markers fill stroke"
     id="text2482">
    <path
       d="m 269.44324,102.83231 q -0.32813,-0.0547 -0.71094,-0.0547 -1.42188,0 -1.92969,1.21093 v 6 h -1.44531 v -8.45312 h 1.40625 l 0.0234,0.97656 q 0.71093,-1.13281 2.01562,-1.13281 0.42188,0 0.64063,0.10937 z"
       style="font-style:normal;font-variant:normal;font-weight:normal;font-stretch:normal;font-size:16px;font-family:Roboto;-inkscape-font-specification:Roboto;stroke-width:1.13385832;stroke-miterlimit:4;stroke-dasharray:none;paint-order:markers fill stroke"
       id="path152" />
    <path
       d="m 272.13074,101.53544 0.0469,1.0625 q 0.96875,-1.21875 2.53125,-1.21875 2.67969,0 2.70313,3.02344 v 5.58593 h -1.44532 v -5.59375 q -0.008,-0.91406 -0.42187,-1.35156 -0.40625,-0.4375 -1.27344,-0.4375 -0.70312,0 -1.23437,0.375 -0.53125,0.375 -0.82813,0.98438 v 6.02343 h -1.44531 v -8.45312 z"
       style="font-style:normal;font-variant:normal;font-weight:normal;font-stretch:normal;font-size:16px;font-family:Roboto;-inkscape-font-specification:Roboto;stroke-width:1.13385832;stroke-miterlimit:4;stroke-dasharray:none;paint-order:markers fill stroke"
       id="path154" />
    <path
       d="m 279.22449,105.68388 q 0,-1.24219 0.48437,-2.23438 0.49219,-0.99219 1.35938,-1.53125 0.875,-0.53906 1.99218,-0.53906 1.72657,0 2.78907,1.19531 1.07031,1.19531 1.07031,3.17969 v 0.10156 q 0,1.23438 -0.47656,2.21875 -0.46875,0.97656 -1.35157,1.52344 -0.875,0.54687 -2.01562,0.54687 -1.71875,0 -2.78906,-1.19531 -1.0625,-1.19531 -1.0625,-3.16406 z m 1.45312,0.17187 q 0,1.40625 0.64844,2.25781 0.65625,0.85157 1.75,0.85157 1.10156,0 1.75,-0.85938 0.64844,-0.86719 0.64844,-2.42187 0,-1.39063 -0.66407,-2.25 -0.65625,-0.86719 -1.75,-0.86719 -1.07031,0 -1.72656,0.85156 -0.65625,0.85156 -0.65625,2.4375 z"
       style="font-style:normal;font-variant:normal;font-weight:normal;font-stretch:normal;font-size:16px;font-family:Roboto;-inkscape-font-specification:Roboto;stroke-width:1.13385832;stroke-miterlimit:4;stroke-dasharray:none;paint-order:markers fill stroke"
       id="path156" />
    <path
       d="m 292.81824,102.83231 q -0.32813,-0.0547 -0.71094,-0.0547 -1.42188,0 -1.92969,1.21093 v 6 h -1.44531 v -8.45312 h 1.40625 l 0.0234,0.97656 q 0.71093,-1.13281 2.01562,-1.13281 0.42188,0 0.64063,0.10937 z"
       style="font-style:normal;font-variant:normal;font-weight:normal;font-stretch:normal;font-size:16px;font-family:Roboto;-inkscape-font-specification:Roboto;stroke-width:1.13385832;stroke-miterlimit:4;stroke-dasharray:none;paint-order:markers fill stroke"
       id="path158" />
    <path
       d="m 295.49792,101.53544 0.0391,0.9375 q 0.92968,-1.09375 2.50781,-1.09375 1.77344,0 2.41406,1.35937 0.42188,-0.60937 1.09375,-0.98437 0.67969,-0.375 1.60156,-0.375 2.78125,0 2.82813,2.94531 v 5.66406 h -1.44531 v -5.57812 q 0,-0.90625 -0.41407,-1.35156 -0.41406,-0.45313 -1.39062,-0.45313 -0.80469,0 -1.33594,0.48438 -0.53125,0.47656 -0.61719,1.28906 v 5.60937 h -1.45312 v -5.53906 q 0,-1.84375 -1.80469,-1.84375 -1.42187,0 -1.94531,1.21094 v 6.17187 h -1.44531 v -8.45312 z"
       style="font-style:normal;font-variant:normal;font-weight:normal;font-stretch:normal;font-size:16px;font-family:Roboto;-inkscape-font-specification:Roboto;stroke-width:1.13385832;stroke-miterlimit:4;stroke-dasharray:none;paint-order:markers fill stroke"
       id="path160" />
    <path
       d="m 308.11511,105.37138 q 0,-1.76563 0.46875,-3.39063 0.47656,-1.625 1.41406,-2.953124 0.9375,-1.328125 1.94532,-1.875 l 0.29687,0.953125 q -1.14062,0.875 -1.875,2.671879 -0.72656,1.79687 -0.79687,4.02343 l -0.008,0.66407 q 0,3.01562 1.10157,5.23437 0.66406,1.32813 1.57812,2.07813 l -0.29687,0.88281 q -1.03907,-0.57813 -1.98438,-1.9375 -1.84375,-2.65625 -1.84375,-6.35156 z"
       style="font-style:normal;font-variant:normal;font-weight:normal;font-stretch:normal;font-size:16px;font-family:Roboto;-inkscape-font-specification:Roboto;stroke-width:1.13385832;stroke-miterlimit:4;stroke-dasharray:none;paint-order:markers fill stroke"
       id="path162" />
    <path
       d="m 318.24011,109.98856 h -1.45312 v -9.63281 l -2.91407,1.07031 v -1.3125 l 4.14063,-1.554684 h 0.22656 z"
       style="font-style:normal;font-variant:normal;font-weight:normal;font-stretch:normal;font-size:16px;font-family:Roboto;-inkscape-font-specification:Roboto;stroke-width:1.13385832;stroke-miterlimit:4;stroke-dasharray:none;paint-order:markers fill stroke"
       id="path164" />
    <path
       d="m 329.62292,105.137 q 0,2.53906 -0.86718,3.77344 -0.86719,1.23437 -2.71094,1.23437 -1.82031,0 -2.69531,-1.20312 -0.875,-1.21094 -0.90625,-3.60938 v -1.92968 q 0,-2.50782 0.86718,-3.726566 0.86719,-1.21875 2.71875,-1.21875 1.83594,0 2.70313,1.179687 0.86719,1.171879 0.89062,3.624999 z m -1.44531,-1.97656 q 0,-1.83594 -0.51562,-2.67188 -0.51563,-0.843746 -1.63282,-0.843746 -1.10937,0 -1.61718,0.835936 -0.50782,0.83594 -0.52344,2.57031 v 2.3125 q 0,1.84375 0.53125,2.72657 0.53906,0.875 1.625,0.875 1.07031,0 1.58594,-0.82813 0.52343,-0.82812 0.54687,-2.60937 z"
       style="font-style:normal;font-variant:normal;font-weight:normal;font-stretch:normal;font-size:16px;font-family:Roboto;-inkscape-font-specification:Roboto;stroke-width:1.13385832;stroke-miterlimit:4;stroke-dasharray:none;paint-order:markers fill stroke"
       id="path166" />
    <path
       d="m 331.59167,112.25419 -0.82031,-0.5625 q 0.73438,-1.02344 0.76563,-2.10938 v -1.30468 h 1.41406 v 1.13281 q 0,0.78906 -0.39063,1.57812 -0.38281,0.78907 -0.96875,1.26563 z"
       style="font-style:normal;font-variant:normal;font-weight:normal;font-stretch:normal;font-size:16px;font-family:Roboto;-inkscape-font-specification:Roboto;stroke-width:1.13385832;stroke-miterlimit:4;stroke-dasharray:none;paint-order:markers fill stroke"
       id="path168" />
    <path
       d="m 339.27917,104.28544 0.57813,-5.671876 h 5.82812 v 1.335937 h -4.60156 l -0.34375,3.101559 q 0.83594,-0.49218 1.89844,-0.49218 1.55469,0 2.46875,1.03125 0.91406,1.02343 0.91406,2.77343 0,1.75782 -0.95312,2.77344 -0.94532,1.00781 -2.64844,1.00781 -1.50781,0 -2.46094,-0.83593 -0.95312,-0.83594 -1.08594,-2.3125 h 1.36719 q 0.13281,0.97656 0.69531,1.47656 0.5625,0.49219 1.48438,0.49219 1.00781,0 1.57812,-0.6875 0.57813,-0.6875 0.57813,-1.89844 0,-1.14063 -0.625,-1.82813 -0.61719,-0.69531 -1.64844,-0.69531 -0.94531,0 -1.48437,0.41406 l -0.38282,0.3125 z"
       style="font-style:normal;font-variant:normal;font-weight:normal;font-stretch:normal;font-size:16px;font-family:Roboto;-inkscape-font-specification:Roboto;stroke-width:1.13385832;stroke-miterlimit:4;stroke-dasharray:none;paint-order:markers fill stroke"
       id="path170" />
    <path
       d="m 347.71667,112.25419 -0.82031,-0.5625 q 0.73438,-1.02344 0.76563,-2.10938 v -1.30468 h 1.41406 v 1.13281 q 0,0.78906 -0.39063,1.57812 -0.38281,0.78907 -0.96875,1.26563 z"
       style="font-style:normal;font-variant:normal;font-weight:normal;font-stretch:normal;font-size:16px;font-family:Roboto;-inkscape-font-specification:Roboto;stroke-width:1.13385832;stroke-miterlimit:4;stroke-dasharray:none;paint-order:markers fill stroke"
       id="path172" />
    <path
       d="m 356.25574,101.53544 0.0469,1.0625 q 0.96875,-1.21875 2.53125,-1.21875 2.67969,0 2.70313,3.02344 v 5.58593 h -1.44532 v -5.59375 q -0.008,-0.91406 -0.42187,-1.35156 -0.40625,-0.4375 -1.27344,-0.4375 -0.70312,0 -1.23437,0.375 -0.53125,0.375 -0.82813,0.98438 v 6.02343 h -1.44531 v -8.45312 z"
       style="font-style:normal;font-variant:normal;font-weight:normal;font-stretch:normal;font-size:16px;font-family:Roboto;-inkscape-font-specification:Roboto;stroke-width:1.13385832;stroke-miterlimit:4;stroke-dasharray:none;paint-order:markers fill stroke"
       id="path174" />
    <path
       d="m 374.31042,103.62919 h -6.51562 v -1.25781 h 6.51562 z m 0,3.24219 h -6.51562 v -1.25 h 6.51562 z"
       style="font-style:normal;font-variant:normal;font-weight:normal;font-stretch:normal;font-size:16px;font-family:Roboto;-inkscape-font-specification:Roboto;stroke-width:1.13385832;stroke-miterlimit:4;stroke-dasharray:none;paint-order:markers fill stroke"
       id="path176" />
    <path
       d="m 382.40417,103.59794 h 1.08594 q 1.02344,-0.0156 1.60938,-0.53906 0.58593,-0.52344 0.58593,-1.41407 0,-1.999996 -1.99218,-1.999996 -0.9375,0 -1.5,0.539066 -0.55469,0.53125 -0.55469,1.41406 h -1.44531 q 0,-1.35156 0.98437,-2.242189 0.99219,-0.898437 2.51563,-0.898437 1.60937,0 2.52343,0.851562 0.91407,0.851564 0.91407,2.367184 0,0.74219 -0.48438,1.4375 -0.47656,0.69532 -1.30469,1.03907 0.9375,0.29687 1.44532,0.98437 0.51562,0.6875 0.51562,1.67969 0,1.53125 -1,2.42969 -1,0.89843 -2.60156,0.89843 -1.60156,0 -2.60938,-0.86718 -1,-0.86719 -1,-2.28907 h 1.45313 q 0,0.89844 0.58594,1.4375 0.58593,0.53907 1.57031,0.53907 1.04687,0 1.60156,-0.54688 0.55469,-0.54687 0.55469,-1.57031 0,-0.99219 -0.60938,-1.52344 -0.60937,-0.53125 -1.75781,-0.54687 h -1.08594 z"
       style="font-style:normal;font-variant:normal;font-weight:normal;font-stretch:normal;font-size:16px;font-family:Roboto;-inkscape-font-specification:Roboto;stroke-width:1.13385832;stroke-miterlimit:4;stroke-dasharray:none;paint-order:markers fill stroke"
       id="path178" />
    <path
       d="m 392.78699,105.4495 q 0,1.74219 -0.46094,3.34375 -0.45313,1.59375 -1.39844,2.94531 -0.9375,1.35157 -1.96875,1.92188 l -0.30469,-0.88281 q 1.20313,-0.92188 1.92969,-2.85938 0.73438,-1.94531 0.75,-4.3125 v -0.25 q 0,-1.64062 -0.34375,-3.04687 -0.34375,-1.41407 -0.96094,-2.531254 -0.60937,-1.117187 -1.375,-1.742187 l 0.30469,-0.882813 q 1.03125,0.570313 1.96094,1.90625 0.9375,1.335934 1.39844,2.945314 0.46875,1.60937 0.46875,3.44531 z"
       style="font-style:normal;font-variant:normal;font-weight:normal;font-stretch:normal;font-size:16px;font-family:Roboto;-inkscape-font-specification:Roboto;stroke-width:1.13385832;stroke-miterlimit:4;stroke-dasharray:none;paint-order:markers fill stroke"
       id="path180" />
  </g>
  <path
     transform="rotate(90)"
     style="fill:#ebebeb;fill-opacity:1;stroke:#000000;stroke-width:1.13385832;stroke-miterlimit:4;stroke-dasharray:none;paint-order:markers fill stroke"
     d="m 125.62854,-403.9176 h 21.32743 v 149.69088 h -21.32743 z"
     id="rect2484" />
  <g
     aria-label="rnorm(-3, 10, n = 5)"
     style="font-style:normal;font-weight:normal;font-size:40px;line-height:1.25;font-family:sans-serif;letter-spacing:0px;word-spacing:0px;fill:#000000;fill-opacity:1;stroke:none;stroke-width:1.13385832;stroke-miterlimit:4;stroke-dasharray:none;paint-order:markers fill stroke"
     id="text2488">
    <path
       d="m 267.24011,134.8235 q -0.32812,-0.0547 -0.71094,-0.0547 -1.42187,0 -1.92968,1.21094 v 6 h -1.44532 v -8.45312 h 1.40625 l 0.0234,0.97656 q 0.71094,-1.13281 2.01563,-1.13281 0.42187,0 0.64062,0.10937 z"
       style="font-style:normal;font-variant:normal;font-weight:normal;font-stretch:normal;font-size:16px;font-family:Roboto;-inkscape-font-specification:Roboto;stroke-width:1.13385832;stroke-miterlimit:4;stroke-dasharray:none;paint-order:markers fill stroke"
       id="path184" />
    <path
       d="m 269.92761,133.52663 0.0469,1.0625 q 0.96875,-1.21875 2.53125,-1.21875 2.67968,0 2.70312,3.02343 v 5.58594 h -1.44531 V 136.386 q -0.008,-0.91406 -0.42188,-1.35156 -0.40625,-0.4375 -1.27343,-0.4375 -0.70313,0 -1.23438,0.375 -0.53125,0.375 -0.82812,0.98437 v 6.02344 h -1.44532 v -8.45312 z"
       style="font-style:normal;font-variant:normal;font-weight:normal;font-stretch:normal;font-size:16px;font-family:Roboto;-inkscape-font-specification:Roboto;stroke-width:1.13385832;stroke-miterlimit:4;stroke-dasharray:none;paint-order:markers fill stroke"
       id="path186" />
    <path
       d="m 277.02136,137.67506 q 0,-1.24218 0.48438,-2.23437 0.49218,-0.99219 1.35937,-1.53125 0.875,-0.53906 1.99219,-0.53906 1.72656,0 2.78906,1.19531 1.07031,1.19531 1.07031,3.17969 v 0.10156 q 0,1.23437 -0.47656,2.21875 -0.46875,0.97656 -1.35156,1.52344 -0.875,0.54687 -2.01563,0.54687 -1.71875,0 -2.78906,-1.19531 -1.0625,-1.19531 -1.0625,-3.16406 z m 1.45313,0.17188 q 0,1.40625 0.64843,2.25781 0.65625,0.85156 1.75,0.85156 1.10157,0 1.75,-0.85937 0.64844,-0.86719 0.64844,-2.42188 0,-1.39062 -0.66406,-2.25 -0.65625,-0.86718 -1.75,-0.86718 -1.07031,0 -1.72656,0.85156 -0.65625,0.85156 -0.65625,2.4375 z"
       style="font-style:normal;font-variant:normal;font-weight:normal;font-stretch:normal;font-size:16px;font-family:Roboto;-inkscape-font-specification:Roboto;stroke-width:1.13385832;stroke-miterlimit:4;stroke-dasharray:none;paint-order:markers fill stroke"
       id="path188" />
    <path
       d="m 290.61511,134.8235 q -0.32812,-0.0547 -0.71094,-0.0547 -1.42187,0 -1.92968,1.21094 v 6 h -1.44532 v -8.45312 h 1.40625 l 0.0234,0.97656 q 0.71094,-1.13281 2.01563,-1.13281 0.42187,0 0.64062,0.10937 z"
       style="font-style:normal;font-variant:normal;font-weight:normal;font-stretch:normal;font-size:16px;font-family:Roboto;-inkscape-font-specification:Roboto;stroke-width:1.13385832;stroke-miterlimit:4;stroke-dasharray:none;paint-order:markers fill stroke"
       id="path190" />
    <path
       d="m 293.2948,133.52663 0.0391,0.9375 q 0.92969,-1.09375 2.50781,-1.09375 1.77344,0 2.41407,1.35937 0.42187,-0.60937 1.09375,-0.98437 0.67968,-0.375 1.60156,-0.375 2.78125,0 2.82812,2.94531 v 5.66406 h -1.44531 v -5.57812 q 0,-0.90625 -0.41406,-1.35157 -0.41406,-0.45312 -1.39063,-0.45312 -0.80468,0 -1.33593,0.48437 -0.53125,0.47657 -0.61719,1.28907 v 5.60937 h -1.45313 v -5.53906 q 0,-1.84375 -1.80468,-1.84375 -1.42188,0 -1.94532,1.21094 v 6.17187 h -1.44531 v -8.45312 z"
       style="font-style:normal;font-variant:normal;font-weight:normal;font-stretch:normal;font-size:16px;font-family:Roboto;-inkscape-font-specification:Roboto;stroke-width:1.13385832;stroke-miterlimit:4;stroke-dasharray:none;paint-order:markers fill stroke"
       id="path192" />
    <path
       d="m 305.91199,137.36256 q 0,-1.76562 0.46875,-3.39062 0.47656,-1.625 1.41406,-2.95313 0.9375,-1.32812 1.94531,-1.875 l 0.29688,0.95313 q -1.14063,0.875 -1.875,2.67187 -0.72657,1.79688 -0.79688,4.02344 l -0.008,0.66406 q 0,3.01563 1.10156,5.23438 0.66406,1.32812 1.57813,2.07812 l -0.29688,0.88282 q -1.03906,-0.57813 -1.98437,-1.9375 -1.84375,-2.65625 -1.84375,-6.35157 z"
       style="font-style:normal;font-variant:normal;font-weight:normal;font-stretch:normal;font-size:16px;font-family:Roboto;-inkscape-font-specification:Roboto;stroke-width:1.13385832;stroke-miterlimit:4;stroke-dasharray:none;paint-order:markers fill stroke"
       id="path194" />
    <path
       d="m 314.44324,137.73756 h -3.8125 v -1.17968 h 3.8125 z"
       style="font-style:normal;font-variant:normal;font-weight:normal;font-stretch:normal;font-size:16px;font-family:Roboto;-inkscape-font-specification:Roboto;stroke-width:1.13385832;stroke-miterlimit:4;stroke-dasharray:none;paint-order:markers fill stroke"
       id="path196" />
    <path
       d="m 317.7948,135.58913 h 1.08594 q 1.02343,-0.0156 1.60937,-0.53907 0.58594,-0.52343 0.58594,-1.41406 0,-2 -1.99219,-2 -0.9375,0 -1.5,0.53906 -0.55469,0.53125 -0.55469,1.41407 h -1.44531 q 0,-1.35157 0.98438,-2.24219 0.99218,-0.89844 2.51562,-0.89844 1.60938,0 2.52344,0.85156 0.91406,0.85157 0.91406,2.36719 0,0.74219 -0.48437,1.4375 -0.47657,0.69531 -1.30469,1.03906 0.9375,0.29688 1.44531,0.98438 0.51563,0.6875 0.51563,1.67969 0,1.53125 -1,2.42968 -1,0.89844 -2.60157,0.89844 -1.60156,0 -2.60937,-0.86719 -1,-0.86718 -1,-2.28906 h 1.45312 q 0,0.89844 0.58594,1.4375 0.58594,0.53906 1.57031,0.53906 1.04688,0 1.60157,-0.54687 0.55468,-0.54688 0.55468,-1.57031 0,-0.99219 -0.60937,-1.52344 -0.60938,-0.53125 -1.75781,-0.54688 h -1.08594 z"
       style="font-style:normal;font-variant:normal;font-weight:normal;font-stretch:normal;font-size:16px;font-family:Roboto;-inkscape-font-specification:Roboto;stroke-width:1.13385832;stroke-miterlimit:4;stroke-dasharray:none;paint-order:markers fill stroke"
       id="path198" />
    <path
       d="m 324.7948,144.24538 -0.82031,-0.5625 q 0.73437,-1.02344 0.76562,-2.10938 v -1.30469 h 1.41406 v 1.13282 q 0,0.78906 -0.39062,1.57812 -0.38281,0.78906 -0.96875,1.26563 z"
       style="font-style:normal;font-variant:normal;font-weight:normal;font-stretch:normal;font-size:16px;font-family:Roboto;-inkscape-font-specification:Roboto;stroke-width:1.13385832;stroke-miterlimit:4;stroke-dasharray:none;paint-order:markers fill stroke"
       id="path200" />
    <path
       d="m 336.56824,141.97975 h -1.45313 v -9.63281 l -2.91406,1.07031 v -1.3125 l 4.14062,-1.55469 h 0.22657 z"
       style="font-style:normal;font-variant:normal;font-weight:normal;font-stretch:normal;font-size:16px;font-family:Roboto;-inkscape-font-specification:Roboto;stroke-width:1.13385832;stroke-miterlimit:4;stroke-dasharray:none;paint-order:markers fill stroke"
       id="path202" />
    <path
       d="m 347.95105,137.12819 q 0,2.53906 -0.86719,3.77344 -0.86719,1.23437 -2.71094,1.23437 -1.82031,0 -2.69531,-1.20312 -0.875,-1.21094 -0.90625,-3.60938 v -1.92969 q 0,-2.50781 0.86719,-3.72656 0.86719,-1.21875 2.71875,-1.21875 1.83594,0 2.70312,1.17969 0.86719,1.17187 0.89063,3.625 z m -1.44531,-1.97656 q 0,-1.83594 -0.51563,-2.67188 -0.51562,-0.84375 -1.63281,-0.84375 -1.10938,0 -1.61719,0.83594 -0.50781,0.83594 -0.52344,2.57031 v 2.3125 q 0,1.84375 0.53125,2.72656 0.53907,0.875 1.625,0.875 1.07032,0 1.58594,-0.82812 0.52344,-0.82813 0.54688,-2.60938 z"
       style="font-style:normal;font-variant:normal;font-weight:normal;font-stretch:normal;font-size:16px;font-family:Roboto;-inkscape-font-specification:Roboto;stroke-width:1.13385832;stroke-miterlimit:4;stroke-dasharray:none;paint-order:markers fill stroke"
       id="path204" />
    <path
       d="m 349.9198,144.24538 -0.82031,-0.5625 q 0.73437,-1.02344 0.76562,-2.10938 v -1.30469 h 1.41406 v 1.13282 q 0,0.78906 -0.39062,1.57812 -0.38281,0.78906 -0.96875,1.26563 z"
       style="font-style:normal;font-variant:normal;font-weight:normal;font-stretch:normal;font-size:16px;font-family:Roboto;-inkscape-font-specification:Roboto;stroke-width:1.13385832;stroke-miterlimit:4;stroke-dasharray:none;paint-order:markers fill stroke"
       id="path206" />
    <path
       d="m 358.45886,133.52663 0.0469,1.0625 q 0.96875,-1.21875 2.53125,-1.21875 2.67968,0 2.70312,3.02343 v 5.58594 H 362.2948 V 136.386 q -0.008,-0.91406 -0.42188,-1.35156 -0.40625,-0.4375 -1.27343,-0.4375 -0.70313,0 -1.23438,0.375 -0.53125,0.375 -0.82812,0.98437 v 6.02344 h -1.44532 v -8.45312 z"
       style="font-style:normal;font-variant:normal;font-weight:normal;font-stretch:normal;font-size:16px;font-family:Roboto;-inkscape-font-specification:Roboto;stroke-width:1.13385832;stroke-miterlimit:4;stroke-dasharray:none;paint-order:markers fill stroke"
       id="path208" />
    <path
       d="m 376.51355,135.62038 h -6.51563 v -1.25782 h 6.51563 z m 0,3.24218 h -6.51563 v -1.25 h 6.51563 z"
       style="font-style:normal;font-variant:normal;font-weight:normal;font-stretch:normal;font-size:16px;font-family:Roboto;-inkscape-font-specification:Roboto;stroke-width:1.13385832;stroke-miterlimit:4;stroke-dasharray:none;paint-order:markers fill stroke"
       id="path210" />
    <path
       d="m 383.1698,136.27663 0.57812,-5.67188 h 5.82813 v 1.33594 h -4.60156 l -0.34375,3.10156 q 0.83593,-0.49219 1.89843,-0.49219 1.55469,0 2.46875,1.03125 0.91407,1.02344 0.91407,2.77344 0,1.75781 -0.95313,2.77344 -0.94531,1.00781 -2.64844,1.00781 -1.50781,0 -2.46093,-0.83594 -0.95313,-0.83593 -1.08594,-2.3125 h 1.36719 q 0.13281,0.97657 0.69531,1.47657 0.5625,0.49218 1.48437,0.49218 1.00782,0 1.57813,-0.6875 0.57812,-0.6875 0.57812,-1.89843 0,-1.14063 -0.625,-1.82813 -0.61718,-0.69531 -1.64843,-0.69531 -0.94532,0 -1.48438,0.41406 l -0.38281,0.3125 z"
       style="font-style:normal;font-variant:normal;font-weight:normal;font-stretch:normal;font-size:16px;font-family:Roboto;-inkscape-font-specification:Roboto;stroke-width:1.13385832;stroke-miterlimit:4;stroke-dasharray:none;paint-order:markers fill stroke"
       id="path212" />
    <path
       d="m 394.99011,137.44069 q 0,1.74219 -0.46094,3.34375 -0.45312,1.59375 -1.39843,2.94531 -0.9375,1.35156 -1.96875,1.92188 l -0.30469,-0.88282 q 1.20312,-0.92187 1.92969,-2.85937 0.73437,-1.94531 0.75,-4.3125 v -0.25 q 0,-1.64063 -0.34375,-3.04688 -0.34375,-1.41406 -0.96094,-2.53125 -0.60938,-1.11718 -1.375,-1.74218 l 0.30469,-0.88282 q 1.03125,0.57032 1.96093,1.90625 0.9375,1.33594 1.39844,2.94532 0.46875,1.60937 0.46875,3.44531 z"
       style="font-style:normal;font-variant:normal;font-weight:normal;font-stretch:normal;font-size:16px;font-family:Roboto;-inkscape-font-specification:Roboto;stroke-width:1.13385832;stroke-miterlimit:4;stroke-dasharray:none;paint-order:markers fill stroke"
       id="path214" />
  </g>
  <path
     transform="rotate(90)"
     style="fill:none;fill-opacity:1;stroke:#000000;stroke-width:1.13385832;stroke-miterlimit:4;stroke-dasharray:none;paint-order:markers fill stroke"
     d="m 54.16546,-421.69247 h 100.27127 c 4.3468,0 7.84622,3.49941 7.84622,7.84621 v 169.54823 c 0,4.3468 -3.49942,7.84622 -7.84622,7.84622 H 54.16546 c -4.346806,0 -7.846219,-3.49942 -7.846219,-7.84622 v -169.54823 c 0,-4.3468 3.499413,-7.84621 7.846219,-7.84621 z"
     id="rect2490" />
  <g
     aria-label="args1"
     style="font-style:normal;font-weight:normal;font-size:40px;line-height:1.25;font-family:sans-serif;letter-spacing:0px;word-spacing:0px;fill:#000000;fill-opacity:1;stroke:none;stroke-width:1.13385832;stroke-miterlimit:4;stroke-dasharray:none;paint-order:markers fill stroke"
     id="text1545">
    <path
       d="m 98.515114,30.272638 q -0.08594,-0.164062 -0.140625,-0.40625 -0.04687,-0.25 -0.07031,-0.515625 -0.21875,0.21875 -0.492187,0.414063 -0.265625,0.195312 -0.59375,0.34375 -0.320313,0.148437 -0.6875,0.234375 -0.367188,0.08594 -0.78125,0.08594 -0.671875,0 -1.21875,-0.195312 -0.539063,-0.195313 -0.921875,-0.523438 -0.375,-0.335937 -0.585938,-0.789062 -0.203125,-0.460938 -0.203125,-0.992188 0,-0.695312 0.273438,-1.21875 0.28125,-0.523437 0.789062,-0.867187 0.507813,-0.351563 1.21875,-0.523438 0.71875,-0.171875 1.601563,-0.171875 h 1.578125 v -0.664062 q 0,-0.382813 -0.140625,-0.6875 -0.140625,-0.304688 -0.398438,-0.515625 -0.257812,-0.21875 -0.632812,-0.335938 -0.367188,-0.117187 -0.828125,-0.117187 -0.429688,0 -0.773438,0.109375 -0.335937,0.109375 -0.570312,0.289062 -0.234375,0.179688 -0.367188,0.429688 -0.125,0.242187 -0.125,0.507812 h -1.453125 q 0.0078,-0.460937 0.234375,-0.90625 0.234375,-0.445312 0.664063,-0.796875 0.4375,-0.359375 1.054687,-0.578125 0.625,-0.21875 1.414063,-0.21875 0.71875,0 1.335937,0.179688 0.617188,0.171875 1.0625,0.53125 0.453125,0.351562 0.710938,0.882812 0.257812,0.53125 0.257812,1.242188 v 3.929687 q 0,0.421875 0.07813,0.898438 0.07813,0.46875 0.218754,0.820312 v 0.125 z m -2.554688,-1.101562 q 0.421875,0 0.789063,-0.109375 0.367187,-0.109375 0.664062,-0.289063 0.304688,-0.179687 0.523438,-0.40625 0.21875,-0.234375 0.34375,-0.484375 v -1.710937 h -1.34375 q -1.265625,0 -1.96875,0.375 -0.703125,0.375 -0.703125,1.179687 0,0.3125 0.101562,0.578125 0.109375,0.265625 0.320313,0.460938 0.210937,0.1875 0.53125,0.296875 0.320312,0.109375 0.742187,0.109375 z"
       style="font-style:normal;font-variant:normal;font-weight:normal;font-stretch:normal;font-size:16px;font-family:'Roboto Mono';-inkscape-font-specification:'Roboto Mono';stroke-width:1.13385832;stroke-miterlimit:4;stroke-dasharray:none;paint-order:markers fill stroke"
       id="path218" />
    <path
       d="m 108.09324,21.663263 q 0.20312,0 0.42187,0.01563 0.21875,0.0078 0.41407,0.03906 0.20312,0.02344 0.36718,0.0625 0.17188,0.03906 0.28125,0.08594 l -0.19531,1.414063 q -0.42187,-0.09375 -0.80469,-0.132813 -0.375,-0.04687 -0.78906,-0.04687 -1.01562,0 -1.64844,0.460938 -0.625,0.460937 -0.92187,1.289062 v 5.421875 h -1.45313 v -8.453125 h 1.375 l 0.0703,1.34375 q 0.51562,-0.695312 1.23437,-1.09375 0.72656,-0.40625 1.64844,-0.40625 z"
       style="font-style:normal;font-variant:normal;font-weight:normal;font-stretch:normal;font-size:16px;font-family:'Roboto Mono';-inkscape-font-specification:'Roboto Mono';stroke-width:1.13385832;stroke-miterlimit:4;stroke-dasharray:none;paint-order:markers fill stroke"
       id="path220" />
    <path
       d="m 111.8823,25.975763 q 0,-0.945312 0.22656,-1.734375 0.23438,-0.796875 0.67188,-1.367187 0.4375,-0.570313 1.0625,-0.890625 0.625,-0.320313 1.41406,-0.320313 0.78125,0 1.36719,0.28125 0.59375,0.273438 1.00781,0.796875 l 0.0703,-0.921875 h 1.3125 v 8.273438 q 0,0.835937 -0.26562,1.484375 -0.25781,0.648437 -0.73438,1.101562 -0.46875,0.453125 -1.125,0.6875 -0.65625,0.234375 -1.45312,0.234375 -0.32813,0 -0.75,-0.07813 -0.42188,-0.07031 -0.85938,-0.242187 -0.42968,-0.164063 -0.83593,-0.445313 -0.39844,-0.28125 -0.6875,-0.695312 l 0.75,-0.867188 q 0.26562,0.320313 0.54687,0.539063 0.28125,0.226562 0.57031,0.359375 0.28907,0.132812 0.57813,0.1875 0.28906,0.0625 0.57812,0.0625 0.51563,0 0.92969,-0.148438 0.41406,-0.148437 0.70313,-0.4375 0.29687,-0.28125 0.45312,-0.703125 0.15625,-0.421875 0.15625,-0.96875 v -0.726562 q -0.42187,0.484375 -1,0.742187 -0.57031,0.25 -1.32812,0.25 -0.77344,0 -1.39844,-0.328125 -0.625,-0.328125 -1.0625,-0.90625 -0.42969,-0.578125 -0.66406,-1.359375 -0.23438,-0.789062 -0.23438,-1.695312 z m 1.44531,0.164063 q 0,0.617187 0.125,1.171875 0.13282,0.554687 0.40625,0.976562 0.28125,0.421875 0.71094,0.671875 0.42969,0.242188 1.03125,0.242188 0.375,0 0.67188,-0.08594 0.30468,-0.09375 0.53906,-0.257812 0.24219,-0.164063 0.42969,-0.390625 0.1875,-0.226563 0.32812,-0.5 v -3.875 q -0.14062,-0.265625 -0.32812,-0.484375 -0.1875,-0.21875 -0.42969,-0.375 -0.24219,-0.164063 -0.53906,-0.25 -0.29688,-0.09375 -0.65625,-0.09375 -0.60938,0 -1.04688,0.25 -0.42969,0.25 -0.71094,0.679687 -0.27343,0.421875 -0.40625,0.984375 -0.125,0.554688 -0.125,1.171875 z"
       style="font-style:normal;font-variant:normal;font-weight:normal;font-stretch:normal;font-size:16px;font-family:'Roboto Mono';-inkscape-font-specification:'Roboto Mono';stroke-width:1.13385832;stroke-miterlimit:4;stroke-dasharray:none;paint-order:markers fill stroke"
       id="path222" />
    <path
       d="m 127.35886,28.030451 q 0,-0.257813 -0.10156,-0.460938 -0.10156,-0.210937 -0.34375,-0.382812 -0.24219,-0.171875 -0.64062,-0.3125 -0.39844,-0.148438 -0.99219,-0.265625 -0.72656,-0.148438 -1.32813,-0.359375 -0.59375,-0.210938 -1.02343,-0.5 -0.42188,-0.296875 -0.65625,-0.6875 -0.23438,-0.398438 -0.23438,-0.921875 0,-0.515625 0.24219,-0.960938 0.24219,-0.453125 0.67969,-0.789062 0.4375,-0.335938 1.03906,-0.53125 0.60937,-0.195313 1.33594,-0.195313 0.78125,0 1.40625,0.203125 0.625,0.203125 1.0625,0.5625 0.4375,0.359375 0.67187,0.84375 0.24219,0.476563 0.24219,1.03125 h -1.44531 q 0,-0.273437 -0.14063,-0.53125 -0.14062,-0.265625 -0.39062,-0.46875 -0.25,-0.203125 -0.60938,-0.328125 -0.35156,-0.125 -0.79687,-0.125 -0.46094,0 -0.8125,0.101563 -0.34375,0.101562 -0.57813,0.273437 -0.22656,0.171875 -0.34375,0.398438 -0.11719,0.226562 -0.11719,0.46875 0,0.25 0.0937,0.445312 0.0937,0.195313 0.32032,0.351563 0.23437,0.15625 0.61718,0.28125 0.39063,0.125 0.98438,0.242187 0.78125,0.164063 1.39844,0.382813 0.61718,0.210937 1.03906,0.515625 0.42187,0.296875 0.64062,0.695312 0.22657,0.398438 0.22657,0.921875 0,0.5625 -0.25782,1.023438 -0.25,0.460937 -0.70312,0.789062 -0.45313,0.328125 -1.08594,0.507813 -0.63281,0.179687 -1.38281,0.179687 -0.85938,0 -1.53125,-0.226562 -0.67188,-0.234375 -1.14063,-0.609375 -0.46093,-0.382813 -0.71093,-0.882813 -0.24219,-0.5 -0.24219,-1.039062 h 1.44531 q 0.0312,0.445312 0.23438,0.75 0.21093,0.304687 0.51562,0.492187 0.3125,0.1875 0.6875,0.265625 0.375,0.07813 0.74219,0.07813 0.91406,0 1.44531,-0.335937 0.53125,-0.335938 0.53906,-0.890625 z"
       style="font-style:normal;font-variant:normal;font-weight:normal;font-stretch:normal;font-size:16px;font-family:'Roboto Mono';-inkscape-font-specification:'Roboto Mono';stroke-width:1.13385832;stroke-miterlimit:4;stroke-dasharray:none;paint-order:markers fill stroke"
       id="path224" />
    <path
       d="m 136.02293,30.272638 h -1.44532 v -9.53125 l -2.97656,1.132813 v -1.320313 l 4.30469,-1.65625 h 0.11719 z"
       style="font-style:normal;font-variant:normal;font-weight:normal;font-stretch:normal;font-size:16px;font-family:'Roboto Mono';-inkscape-font-specification:'Roboto Mono';stroke-width:1.13385832;stroke-miterlimit:4;stroke-dasharray:none;paint-order:markers fill stroke"
       id="path226" />
  </g>
</svg>
