<?xml version="1.0" encoding="UTF-8" standalone="no"?>
<!-- Created with Inkscape (http://www.inkscape.org/) -->

<svg
   xmlns:dc="http://purl.org/dc/elements/1.1/"
   xmlns:cc="http://creativecommons.org/ns#"
   xmlns:rdf="http://www.w3.org/1999/02/22-rdf-syntax-ns#"
   xmlns:svg="http://www.w3.org/2000/svg"
   xmlns="http://www.w3.org/2000/svg"
   xmlns:sodipodi="http://sodipodi.sourceforge.net/DTD/sodipodi-0.dtd"
   xmlns:inkscape="http://www.inkscape.org/namespaces/inkscape"
   version="1.1"
   id="svg2"
   width="91.574623mm"
   height="57.511097mm"
   viewBox="0 0 346.10881 217.36478"
   sodipodi:docname="lists-structure-otp.svg"
   inkscape:version="0.92.3 (2405546, 2018-03-11)">
  <metadata
     id="metadata8">
    <rdf:RDF>
      <cc:Work
         rdf:about="">
        <dc:format>image/svg+xml</dc:format>
        <dc:type
           rdf:resource="http://purl.org/dc/dcmitype/StillImage" />
        <dc:title></dc:title>
      </cc:Work>
    </rdf:RDF>
  </metadata>
  <defs
     id="defs6" />
  <sodipodi:namedview
     pagecolor="#ffffff"
     bordercolor="#666666"
     borderopacity="1"
     objecttolerance="10"
     gridtolerance="10"
     guidetolerance="10"
     inkscape:pageopacity="0"
     inkscape:pageshadow="2"
     inkscape:window-width="1600"
     inkscape:window-height="832"
     id="namedview4"
     showgrid="false"
     inkscape:zoom="2.5788382"
     inkscape:cx="95.114179"
     inkscape:cy="109.68953"
     inkscape:window-x="0"
     inkscape:window-y="32"
     inkscape:window-maximized="1"
     inkscape:current-layer="svg2"
     units="mm"
     fit-margin-top="5"
     fit-margin-left="5"
     fit-margin-bottom="5"
     fit-margin-right="5"
     showguides="true"
     inkscape:guide-bbox="true" />
  <g
     aria-label="x1"
     style="font-style:normal;font-weight:normal;font-size:40px;line-height:1.25;font-family:sans-serif;letter-spacing:0px;word-spacing:0px;fill:#000000;fill-opacity:1;stroke:none;stroke-width:1.13385832;stroke-miterlimit:4;stroke-dasharray:none;paint-order:markers fill stroke"
     id="text916">
    <path
       d="m 56.536713,25.108576 2.257812,-3.132813 h 1.695313 l -3.148438,4.179688 3.234375,4.273437 H 58.9039 l -2.335937,-3.21875 -2.335938,3.21875 h -1.6875 L 55.7789,26.155451 52.630463,21.975763 h 1.671875 z"
       style="font-style:normal;font-variant:normal;font-weight:normal;font-stretch:normal;font-size:16px;font-family:'Roboto Mono';-inkscape-font-specification:'Roboto Mono';stroke-width:1.13385832;stroke-miterlimit:4;stroke-dasharray:none;paint-order:markers fill stroke"
       id="path54" />
    <path
       d="m 67.325775,30.428888 h -1.445312 v -9.53125 L 62.9039,22.030451 v -1.320313 l 4.304688,-1.65625 h 0.117187 z"
       style="font-style:normal;font-variant:normal;font-weight:normal;font-stretch:normal;font-size:16px;font-family:'Roboto Mono';-inkscape-font-specification:'Roboto Mono';stroke-width:1.13385832;stroke-miterlimit:4;stroke-dasharray:none;paint-order:markers fill stroke"
       id="path56" />
  </g>
  <path
     style="fill:none;fill-opacity:1;stroke:#000000;stroke-width:1.17697418;stroke-miterlimit:4;stroke-dasharray:none;paint-order:markers fill stroke"
     d="m 26.868061,46.123508 h 69.255154 c 4.089595,0 7.381935,2.937416 7.381935,6.586135 v 90.440627 c 0,3.64871 -3.29234,6.58613 -7.381935,6.58613 H 26.868061 c -4.089593,0 -7.381937,-2.93742 -7.381937,-6.58613 V 52.709643 c 0,-3.648719 3.292344,-6.586135 7.381937,-6.586135 z"
     id="rect918" />
  <path
     style="fill:#ebebeb;fill-opacity:1;stroke:#000000;stroke-width:1.13385832;stroke-miterlimit:4;stroke-dasharray:none;paint-order:markers fill stroke"
     d="m 40.168205,109.757 h 21.327433 v 23.26629 H 40.168205 Z"
     id="rect922" />
  <g
     aria-label="3"
     style="font-style:normal;font-weight:normal;font-size:40px;line-height:1.25;font-family:sans-serif;letter-spacing:0px;word-spacing:0px;fill:#000000;fill-opacity:1;stroke:none;stroke-width:1.13385832;stroke-miterlimit:4;stroke-dasharray:none;paint-order:markers fill stroke"
     id="text926">
    <path
       d="m 50.367073,120.71436 h 1.085938 q 1.023437,-0.0156 1.609375,-0.53907 0.585937,-0.52343 0.585937,-1.41406 0,-2 -1.992187,-2 -0.9375,0 -1.5,0.53906 -0.554688,0.53125 -0.554688,1.41407 h -1.445312 q 0,-1.35157 0.984375,-2.24219 0.992187,-0.89844 2.515625,-0.89844 1.609375,0 2.523437,0.85156 0.914063,0.85157 0.914063,2.36719 0,0.74219 -0.484375,1.4375 -0.476563,0.69531 -1.304688,1.03906 0.9375,0.29688 1.445313,0.98438 0.515625,0.6875 0.515625,1.67969 0,1.53125 -1,2.42968 -1,0.89844 -2.601563,0.89844 -1.601562,0 -2.609375,-0.86719 -1,-0.86718 -1,-2.28906 h 1.453125 q 0,0.89844 0.585938,1.4375 0.585937,0.53906 1.570312,0.53906 1.046875,0 1.601563,-0.54687 0.554687,-0.54688 0.554687,-1.57031 0,-0.99219 -0.609375,-1.52344 -0.609375,-0.53125 -1.757812,-0.54688 h -1.085938 z"
       style="font-style:normal;font-variant:normal;font-weight:normal;font-stretch:normal;font-size:16px;font-family:Roboto;-inkscape-font-specification:Roboto;stroke-width:1.13385832;stroke-miterlimit:4;stroke-dasharray:none;paint-order:markers fill stroke"
       id="path61" />
  </g>
  <path
     style="fill:#ebebeb;fill-opacity:1;stroke:#000000;stroke-width:1.13385832;stroke-miterlimit:4;stroke-dasharray:none;paint-order:markers fill stroke"
     d="m 61.495636,109.757 h 21.327433 v 23.26629 H 61.495636 Z"
     id="rect928" />
  <g
     aria-label="4"
     style="font-style:normal;font-weight:normal;font-size:40px;line-height:1.25;font-family:sans-serif;letter-spacing:0px;word-spacing:0px;fill:#000000;fill-opacity:1;stroke:none;stroke-width:1.13385832;stroke-miterlimit:4;stroke-dasharray:none;paint-order:markers fill stroke"
     id="text932">
    <path
       d="m 75.694519,123.28467 h 1.578125 v 1.17969 h -1.578125 v 2.64062 h -1.453125 v -2.64062 h -5.179687 v -0.85157 l 5.09375,-7.88281 h 1.539062 z m -4.992187,0 h 3.539062 v -5.57813 l -0.171875,0.3125 z"
       style="font-style:normal;font-variant:normal;font-weight:normal;font-stretch:normal;font-size:16px;font-family:Roboto;-inkscape-font-specification:Roboto;stroke-width:1.13385832;stroke-miterlimit:4;stroke-dasharray:none;paint-order:markers fill stroke"
       id="path65" />
  </g>
  <path
     style="fill:#ebebeb;fill-opacity:1;stroke:#000000;stroke-width:1.13385832;stroke-miterlimit:4;stroke-dasharray:none;paint-order:markers fill stroke"
     d="m 40.168205,62.836632 h 21.327433 v 23.26629 H 40.168205 Z"
     id="rect938" />
  <g
     aria-label="1"
     style="font-style:normal;font-weight:normal;font-size:40px;line-height:1.25;font-family:sans-serif;letter-spacing:0px;word-spacing:0px;fill:#000000;fill-opacity:1;stroke:none;stroke-width:1.13385832;stroke-miterlimit:4;stroke-dasharray:none;paint-order:markers fill stroke"
     id="text942">
    <path
       d="m 53.015514,80.184631 h -1.453125 v -9.632812 l -2.914062,1.070312 v -1.3125 l 4.140625,-1.554687 h 0.226562 z"
       style="font-style:normal;font-variant:normal;font-weight:normal;font-stretch:normal;font-size:16px;font-family:Roboto;-inkscape-font-specification:Roboto;stroke-width:1.13385832;stroke-miterlimit:4;stroke-dasharray:none;paint-order:markers fill stroke"
       id="path69" />
  </g>
  <path
     style="fill:#ebebeb;fill-opacity:1;stroke:#000000;stroke-width:1.13385832;stroke-miterlimit:4;stroke-dasharray:none;paint-order:markers fill stroke"
     d="m 61.495636,62.836632 h 21.327433 v 23.26629 H 61.495636 Z"
     id="rect944" />
  <g
     aria-label="2"
     style="font-style:normal;font-weight:normal;font-size:40px;line-height:1.25;font-family:sans-serif;letter-spacing:0px;word-spacing:0px;fill:#000000;fill-opacity:1;stroke:none;stroke-width:1.13385832;stroke-miterlimit:4;stroke-dasharray:none;paint-order:markers fill stroke"
     id="text948">
    <path
       d="m 77.046074,80.184631 h -7.453125 v -1.039062 l 3.9375,-4.375 q 0.875,-0.992188 1.203125,-1.609375 0.335937,-0.625 0.335937,-1.289063 0,-0.890625 -0.539062,-1.460937 -0.539063,-0.570313 -1.4375,-0.570313 -1.078125,0 -1.679688,0.617188 -0.59375,0.609375 -0.59375,1.703125 h -1.445312 q 0,-1.570313 1.007812,-2.539063 1.015625,-0.96875 2.710938,-0.96875 1.585937,0 2.507812,0.835938 0.921875,0.828125 0.921875,2.210937 0,1.679688 -2.140625,4 l -3.046875,3.304688 h 5.710938 z"
       style="font-style:normal;font-variant:normal;font-weight:normal;font-stretch:normal;font-size:16px;font-family:Roboto;-inkscape-font-specification:Roboto;stroke-width:1.13385832;stroke-miterlimit:4;stroke-dasharray:none;paint-order:markers fill stroke"
       id="path73" />
  </g>
  <path
     style="fill:none;fill-opacity:1;stroke:#000000;stroke-width:1.17697418;stroke-miterlimit:4;stroke-dasharray:none;paint-order:markers fill stroke"
     d="m 140.10354,46.123508 h 69.25515 c 4.0896,0 7.38194,2.937416 7.38194,6.586135 v 90.440627 c 0,3.64871 -3.29234,6.58613 -7.38194,6.58613 h -69.25515 c -4.08959,0 -7.38194,-2.93742 -7.38194,-6.58613 V 52.709643 c 0,-3.648719 3.29235,-6.586135 7.38194,-6.586135 z"
     id="rect68" />
  <g
     aria-label="x2"
     style="font-style:normal;font-weight:normal;font-size:40px;line-height:1.25;font-family:sans-serif;letter-spacing:0px;word-spacing:0px;fill:#000000;fill-opacity:1;stroke:none;stroke-width:1.13385832;stroke-miterlimit:4;stroke-dasharray:none;paint-order:markers fill stroke"
     id="text919">
    <path
       d="m 171.64545,25.108576 2.25781,-3.132813 h 1.69531 l -3.14844,4.179688 3.23438,4.273437 h -1.67188 l -2.33593,-3.21875 -2.33594,3.21875 h -1.6875 l 3.23437,-4.273437 -3.14843,-4.179688 h 1.67187 z"
       style="font-style:normal;font-variant:normal;font-weight:normal;font-stretch:normal;font-size:16px;font-family:'Roboto Mono';-inkscape-font-specification:'Roboto Mono';stroke-width:1.13385832;stroke-miterlimit:4;stroke-dasharray:none;paint-order:markers fill stroke"
       id="path77" />
    <path
       d="m 184.72357,30.428888 h -7.45312 v -1.039062 l 3.72656,-4.140625 q 0.5,-0.554688 0.83594,-0.984375 0.33593,-0.429688 0.53906,-0.789063 0.20312,-0.367187 0.28906,-0.6875 0.0859,-0.328125 0.0859,-0.671875 0,-0.421875 -0.14063,-0.789062 -0.13281,-0.375 -0.39843,-0.648438 -0.25782,-0.273437 -0.63282,-0.429687 -0.36718,-0.164063 -0.83593,-0.164063 -0.57032,0 -0.99219,0.164063 -0.41406,0.164062 -0.69531,0.46875 -0.27344,0.296875 -0.41407,0.726562 -0.13281,0.429688 -0.13281,0.960938 h -1.45312 q 0,-0.71875 0.25,-1.351563 0.25,-0.640625 0.71875,-1.117187 0.47656,-0.476563 1.15625,-0.757813 0.6875,-0.28125 1.5625,-0.28125 0.80468,0 1.44531,0.242188 0.64844,0.234375 1.09375,0.65625 0.44531,0.421875 0.67969,1 0.24218,0.578125 0.24218,1.257812 0,0.507813 -0.17187,1.007813 -0.17188,0.492187 -0.46875,0.976562 -0.28906,0.484375 -0.67969,0.960938 -0.38281,0.46875 -0.8125,0.9375 l -3.05469,3.3125 h 5.71094 z"
       style="font-style:normal;font-variant:normal;font-weight:normal;font-stretch:normal;font-size:16px;font-family:'Roboto Mono';-inkscape-font-specification:'Roboto Mono';stroke-width:1.13385832;stroke-miterlimit:4;stroke-dasharray:none;paint-order:markers fill stroke"
       id="path79" />
  </g>
  <path
     style="fill:#ebebeb;fill-opacity:1;stroke:#000000;stroke-width:1.13385832;stroke-miterlimit:4;stroke-dasharray:none;paint-order:markers fill stroke"
     d="m 149.22983,101.51328 h 51.00259 c 2.92508,0 5.27992,2.61954 5.27992,5.87342 v 28.00689 c 0,3.25387 -2.35484,5.87341 -5.27992,5.87341 h -51.00259 c -2.92508,0 -5.27992,-2.61954 -5.27992,-5.87341 V 107.3867 c 0,-3.25388 2.35484,-5.87342 5.27992,-5.87342 z"
     id="rect945" />
  <path
     style="fill:#d6d6d6;fill-opacity:1;stroke:#000000;stroke-width:1.13385832;stroke-miterlimit:4;stroke-dasharray:none;paint-order:markers fill stroke"
     d="m 149.74774,109.75697 h 21.32743 v 23.26629 h -21.32743 z"
     id="rect903" />
  <g
     aria-label="3"
     style="font-style:normal;font-weight:normal;font-size:40px;line-height:1.25;font-family:sans-serif;letter-spacing:0px;word-spacing:0px;fill:#000000;fill-opacity:1;stroke:none;stroke-width:1.13385832;stroke-miterlimit:4;stroke-dasharray:none;paint-order:markers fill stroke"
     id="text907">
    <path
       d="m 159.94661,120.71435 h 1.08594 q 1.02343,-0.0156 1.60937,-0.53906 0.58594,-0.52344 0.58594,-1.41407 0,-2 -1.99219,-2 -0.9375,0 -1.5,0.53907 -0.55469,0.53125 -0.55469,1.41406 h -1.44531 q 0,-1.35156 0.98438,-2.24219 0.99218,-0.89844 2.51562,-0.89844 1.60938,0 2.52344,0.85157 0.91406,0.85156 0.91406,2.36718 0,0.74219 -0.48437,1.4375 -0.47657,0.69532 -1.30469,1.03907 0.9375,0.29687 1.44531,0.98437 0.51563,0.6875 0.51563,1.67969 0,1.53125 -1,2.42969 -1,0.89843 -2.60157,0.89843 -1.60156,0 -2.60937,-0.86718 -1,-0.86719 -1,-2.28907 h 1.45312 q 0,0.89844 0.58594,1.4375 0.58594,0.53907 1.57031,0.53907 1.04688,0 1.60157,-0.54688 0.55468,-0.54687 0.55468,-1.57031 0,-0.99219 -0.60937,-1.52344 -0.60938,-0.53125 -1.75781,-0.54687 h -1.08594 z"
       style="font-style:normal;font-variant:normal;font-weight:normal;font-stretch:normal;font-size:16px;font-family:Roboto;-inkscape-font-specification:Roboto;stroke-width:1.13385832;stroke-miterlimit:4;stroke-dasharray:none;paint-order:markers fill stroke"
       id="path84" />
  </g>
  <path
     style="fill:#d6d6d6;fill-opacity:1;stroke:#000000;stroke-width:1.13385832;stroke-miterlimit:4;stroke-dasharray:none;paint-order:markers fill stroke"
     d="m 178.38708,109.75697 h 21.32744 v 23.26629 h -21.32744 z"
     id="rect909" />
  <g
     aria-label="4"
     style="font-style:normal;font-weight:normal;font-size:40px;line-height:1.25;font-family:sans-serif;letter-spacing:0px;word-spacing:0px;fill:#000000;fill-opacity:1;stroke:none;stroke-width:1.13385832;stroke-miterlimit:4;stroke-dasharray:none;paint-order:markers fill stroke"
     id="text913">
    <path
       d="m 192.58597,123.28466 h 1.57812 v 1.17969 h -1.57812 v 2.64062 h -1.45313 v -2.64062 h -5.17968 v -0.85156 l 5.09375,-7.88282 h 1.53906 z m -4.99219,0 h 3.53906 v -5.57812 l -0.17187,0.3125 z"
       style="font-style:normal;font-variant:normal;font-weight:normal;font-stretch:normal;font-size:16px;font-family:Roboto;-inkscape-font-specification:Roboto;stroke-width:1.13385832;stroke-miterlimit:4;stroke-dasharray:none;paint-order:markers fill stroke"
       id="path88" />
  </g>
  <path
     style="fill:#ebebeb;fill-opacity:1;stroke:#000000;stroke-width:1.13385832;stroke-miterlimit:4;stroke-dasharray:none;paint-order:markers fill stroke"
     d="m 149.22983,54.592922 h 51.00259 c 2.92508,0 5.27992,2.619542 5.27992,5.873413 v 28.00689 c 0,3.253871 -2.35484,5.873413 -5.27992,5.873413 h -51.00259 c -2.92508,0 -5.27992,-2.619542 -5.27992,-5.873413 v -28.00689 c 0,-3.253871 2.35484,-5.873413 5.27992,-5.873413 z"
     id="rect947" />
  <path
     style="fill:#d6d6d6;fill-opacity:1;stroke:#000000;stroke-width:1.13385832;stroke-miterlimit:4;stroke-dasharray:none;paint-order:markers fill stroke"
     d="m 149.74774,62.836617 h 21.32743 v 23.26629 h -21.32743 z"
     id="rect891" />
  <g
     aria-label="1"
     style="font-style:normal;font-weight:normal;font-size:40px;line-height:1.25;font-family:sans-serif;letter-spacing:0px;word-spacing:0px;fill:#000000;fill-opacity:1;stroke:none;stroke-width:1.13385832;stroke-miterlimit:4;stroke-dasharray:none;paint-order:markers fill stroke"
     id="text895">
    <path
       d="m 162.59505,80.184616 h -1.45313 v -9.632812 l -2.91406,1.070312 v -1.3125 l 4.14062,-1.554687 h 0.22657 z"
       style="font-style:normal;font-variant:normal;font-weight:normal;font-stretch:normal;font-size:16px;font-family:Roboto;-inkscape-font-specification:Roboto;stroke-width:1.13385832;stroke-miterlimit:4;stroke-dasharray:none;paint-order:markers fill stroke"
       id="path93" />
  </g>
  <path
     style="fill:#d6d6d6;fill-opacity:1;stroke:#000000;stroke-width:1.13385832;stroke-miterlimit:4;stroke-dasharray:none;paint-order:markers fill stroke"
     d="m 178.38708,62.836617 h 21.32744 v 23.26629 h -21.32744 z"
     id="rect897" />
  <g
     aria-label="2"
     style="font-style:normal;font-weight:normal;font-size:40px;line-height:1.25;font-family:sans-serif;letter-spacing:0px;word-spacing:0px;fill:#000000;fill-opacity:1;stroke:none;stroke-width:1.13385832;stroke-miterlimit:4;stroke-dasharray:none;paint-order:markers fill stroke"
     id="text901">
    <path
       d="m 193.93752,80.184616 h -7.45313 v -1.039062 l 3.9375,-4.375 q 0.875,-0.992188 1.20313,-1.609375 0.33593,-0.625 0.33593,-1.289063 0,-0.890625 -0.53906,-1.460937 -0.53906,-0.570313 -1.4375,-0.570313 -1.07812,0 -1.67969,0.617188 -0.59375,0.609375 -0.59375,1.703125 h -1.44531 q 0,-1.570313 1.00781,-2.539063 1.01563,-0.96875 2.71094,-0.96875 1.58594,0 2.50781,0.835938 0.92188,0.828125 0.92188,2.210937 0,1.679688 -2.14063,4 l -3.04687,3.304688 h 5.71094 z"
       style="font-style:normal;font-variant:normal;font-weight:normal;font-stretch:normal;font-size:16px;font-family:Roboto;-inkscape-font-specification:Roboto;stroke-width:1.13385832;stroke-miterlimit:4;stroke-dasharray:none;paint-order:markers fill stroke"
       id="path97" />
  </g>
  <g
     id="g426"
     transform="translate(54.12862,-1.304688)">
    <g
       transform="translate(77.554296)"
       id="g1540">
      <path
         style="fill:none;fill-opacity:1;stroke:#000000;stroke-width:1.16888177;stroke-miterlimit:4;stroke-dasharray:none;paint-order:markers fill stroke"
         d="m 121.56004,47.540394 h 66.09387 c 4.0386,0 7.2899,3.251296 7.2899,7.289901 V 191.89748 c 0,4.03861 -3.2513,7.2899 -7.2899,7.2899 h -66.09387 c -4.0386,0 -7.2899,-3.25129 -7.2899,-7.2899 V 54.830295 c 0,-4.038605 3.2513,-7.289901 7.2899,-7.289901 z"
         id="rect1360" />
      <g
         aria-label="x3"
         style="font-style:normal;font-weight:normal;font-size:40px;line-height:1.25;font-family:sans-serif;letter-spacing:0px;word-spacing:0px;fill:#000000;fill-opacity:1;stroke:none;stroke-width:1.13385832;stroke-miterlimit:4;stroke-dasharray:none;paint-order:markers fill stroke"
         id="text1000">
        <path
           d="m 150.25932,26.413263 2.25782,-3.132812 h 1.69531 l -3.14844,4.179687 3.23438,4.273438 h -1.67188 l -2.33594,-3.21875 -2.33593,3.21875 h -1.6875 l 3.23437,-4.273438 -3.14844,-4.179687 h 1.67188 z"
           style="font-style:normal;font-variant:normal;font-weight:normal;font-stretch:normal;font-size:16px;font-family:'Roboto Mono';-inkscape-font-specification:'Roboto Mono';stroke-width:1.13385832;stroke-miterlimit:4;stroke-dasharray:none;paint-order:markers fill stroke"
           id="path101" />
        <path
           d="m 158.04839,25.350763 h 1.03125 q 0.54687,0 0.96093,-0.148437 0.42188,-0.148438 0.70313,-0.40625 0.28906,-0.257813 0.4375,-0.617188 0.14844,-0.359375 0.14844,-0.789062 0,-0.992188 -0.50782,-1.492188 -0.50781,-0.507812 -1.48437,-0.507812 -0.46094,0 -0.84375,0.140625 -0.375,0.132812 -0.64844,0.390625 -0.26562,0.257812 -0.41406,0.617187 -0.14844,0.359375 -0.14844,0.804688 h -1.45312 q 0,-0.648438 0.25,-1.21875 0.25781,-0.578125 0.71875,-1 0.46093,-0.429688 1.10156,-0.671875 0.64844,-0.25 1.4375,-0.25 0.76562,0 1.39844,0.210937 0.63281,0.203125 1.08593,0.609375 0.45313,0.40625 0.70313,1.007813 0.25,0.601562 0.25,1.390625 0,0.328125 -0.10156,0.679687 -0.10157,0.351563 -0.3125,0.6875 -0.21094,0.328125 -0.54688,0.625 -0.32812,0.289063 -0.78906,0.484375 0.55469,0.179688 0.92187,0.46875 0.375,0.289063 0.59375,0.648438 0.22657,0.359375 0.3125,0.757812 0.0937,0.398438 0.0937,0.789063 0,0.796875 -0.27343,1.414062 -0.27344,0.617188 -0.75782,1.046875 -0.48437,0.421875 -1.14843,0.648438 -0.65625,0.21875 -1.42188,0.21875 -0.75,0 -1.41406,-0.210938 -0.65625,-0.210937 -1.14063,-0.617187 -0.48437,-0.40625 -0.77343,-0.992188 -0.28125,-0.585937 -0.28125,-1.335937 h 1.44531 q 0,0.445312 0.14844,0.8125 0.15625,0.367187 0.4375,0.625 0.28125,0.257812 0.67968,0.398437 0.40625,0.140625 0.89844,0.140625 0.49219,0 0.89063,-0.125 0.39843,-0.132812 0.67968,-0.398437 0.28125,-0.265625 0.42969,-0.65625 0.15625,-0.398438 0.15625,-0.9375 0,-0.53125 -0.17969,-0.914063 -0.17187,-0.390625 -0.49218,-0.648437 -0.3125,-0.257813 -0.76563,-0.382813 -0.44531,-0.125 -0.98437,-0.125 h -1.03125 z"
           style="font-style:normal;font-variant:normal;font-weight:normal;font-stretch:normal;font-size:16px;font-family:'Roboto Mono';-inkscape-font-specification:'Roboto Mono';stroke-width:1.13385832;stroke-miterlimit:4;stroke-dasharray:none;paint-order:markers fill stroke"
           id="path103" />
      </g>
      <path
         transform="rotate(90)"
         style="fill:#ebebeb;fill-opacity:1;stroke:#000000;stroke-width:1.13385832;stroke-miterlimit:4;stroke-dasharray:none;paint-order:markers fill stroke"
         d="m 104.10815,-182.30988 h 73.55141 c 3.39319,0 6.12489,2.7317 6.12489,6.12489 v 43.15603 c 0,3.39319 -2.7317,6.12488 -6.12489,6.12488 h -73.55141 c -3.39318,0 -6.124881,-2.73169 -6.124881,-6.12488 v -43.15603 c 0,-3.39319 2.731701,-6.12489 6.124881,-6.12489 z"
         id="rect1004" />
      <path
         transform="rotate(90)"
         style="fill:#d6d6d6;fill-opacity:1;stroke:#000000;stroke-width:1.13385832;stroke-miterlimit:4;stroke-dasharray:none;paint-order:markers fill stroke"
         d="m 107.68567,-166.24013 h 21.32743 v 23.26629 h -21.32743 z"
         id="rect1006" />
      <g
         aria-label="2"
         style="font-style:normal;font-weight:normal;font-size:40px;line-height:1.25;font-family:sans-serif;letter-spacing:0px;word-spacing:0px;fill:#000000;fill-opacity:1;stroke:none;stroke-width:1.13385832;stroke-miterlimit:4;stroke-dasharray:none;paint-order:markers fill stroke"
         id="text1010">
        <path
           d="m 158.44292,124.11501 h -7.45313 v -1.03906 l 3.9375,-4.375 q 0.875,-0.99219 1.20313,-1.60937 0.33593,-0.625 0.33593,-1.28907 0,-0.89062 -0.53906,-1.46093 -0.53906,-0.57032 -1.4375,-0.57032 -1.07812,0 -1.67969,0.61719 -0.59375,0.60938 -0.59375,1.70313 h -1.44531 q 0,-1.57032 1.00781,-2.53907 1.01563,-0.96875 2.71094,-0.96875 1.58594,0 2.50781,0.83594 0.92188,0.82813 0.92188,2.21094 0,1.67969 -2.14063,4 l -3.04687,3.30469 h 5.71094 z"
           style="font-style:normal;font-variant:normal;font-weight:normal;font-stretch:normal;font-size:16px;font-family:Roboto;-inkscape-font-specification:Roboto;stroke-width:1.13385832;stroke-miterlimit:4;stroke-dasharray:none;paint-order:markers fill stroke"
           id="path108" />
      </g>
      <path
         transform="rotate(90)"
         style="fill:#d6d6d6;fill-opacity:1;stroke:#000000;stroke-width:1.13385832;stroke-miterlimit:4;stroke-dasharray:none;paint-order:markers fill stroke"
         d="m 144.42236,-173.14288 h 24.32796 c 2.95377,0 5.33172,2.37795 5.33172,5.33172 v 26.40836 c 0,2.95378 -2.37795,5.33173 -5.33172,5.33173 h -24.32796 c -2.95377,0 -5.33172,-2.37795 -5.33172,-5.33173 v -26.40836 c 0,-2.95377 2.37795,-5.33172 5.33172,-5.33172 z"
         id="rect1175" />
      <path
         transform="rotate(90)"
         style="fill:#a9a9a9;fill-opacity:1;stroke:#000000;stroke-width:1.13385832;stroke-miterlimit:4;stroke-dasharray:none;paint-order:markers fill stroke"
         d="m 145.35159,-166.24013 h 21.32744 v 23.26629 h -21.32744 z"
         id="rect1012" />
      <g
         aria-label="3"
         style="font-style:normal;font-weight:normal;font-size:40px;line-height:1.25;font-family:sans-serif;letter-spacing:0px;word-spacing:0px;fill:#000000;fill-opacity:1;stroke:none;stroke-width:1.13385832;stroke-miterlimit:4;stroke-dasharray:none;paint-order:markers fill stroke"
         id="text1016">
        <path
           d="m 153.31401,155.31218 h 1.08594 q 1.02344,-0.0156 1.60937,-0.53906 0.58594,-0.52344 0.58594,-1.41407 0,-2 -1.99219,-2 -0.9375,0 -1.5,0.53907 -0.55468,0.53125 -0.55468,1.41406 h -1.44532 q 0,-1.35156 0.98438,-2.24219 0.99219,-0.89844 2.51562,-0.89844 1.60938,0 2.52344,0.85157 0.91406,0.85156 0.91406,2.36718 0,0.74219 -0.48437,1.4375 -0.47656,0.69532 -1.30469,1.03907 0.9375,0.29687 1.44531,0.98437 0.51563,0.6875 0.51563,1.67969 0,1.53125 -1,2.42969 -1,0.89843 -2.60156,0.89843 -1.60157,0 -2.60938,-0.86718 -1,-0.86719 -1,-2.28907 h 1.45313 q 0,0.89844 0.58593,1.4375 0.58594,0.53907 1.57032,0.53907 1.04687,0 1.60156,-0.54688 0.55469,-0.54687 0.55469,-1.57031 0,-0.99219 -0.60938,-1.52344 -0.60937,-0.53125 -1.75781,-0.54687 h -1.08594 z"
           style="font-style:normal;font-variant:normal;font-weight:normal;font-stretch:normal;font-size:16px;font-family:Roboto;-inkscape-font-specification:Roboto;stroke-width:1.13385832;stroke-miterlimit:4;stroke-dasharray:none;paint-order:markers fill stroke"
           id="path113" />
      </g>
      <path
         style="fill:#d6d6d6;fill-opacity:1;stroke:#000000;stroke-width:1.13385832;stroke-miterlimit:4;stroke-dasharray:none;paint-order:markers fill stroke"
         d="m 143.94325,64.141304 h 21.32744 v 23.266291 h -21.32744 z"
         id="rect1022" />
      <g
         aria-label="1"
         style="font-style:normal;font-weight:normal;font-size:40px;line-height:1.25;font-family:sans-serif;letter-spacing:0px;word-spacing:0px;fill:#000000;fill-opacity:1;stroke:none;stroke-width:1.13385832;stroke-miterlimit:4;stroke-dasharray:none;paint-order:markers fill stroke"
         id="text1026">
        <path
           d="m 156.79056,81.489296 h -1.45313 v -9.632813 l -2.91406,1.070313 v -1.3125 l 4.14063,-1.554688 h 0.22656 z"
           style="font-style:normal;font-variant:normal;font-weight:normal;font-stretch:normal;font-size:16px;font-family:Roboto;-inkscape-font-specification:Roboto;stroke-width:1.13385832;stroke-miterlimit:4;stroke-dasharray:none;paint-order:markers fill stroke"
           id="path117" />
      </g>
    </g>
  </g>
</svg>
