<?xml version="1.0" encoding="UTF-8" standalone="no"?>
<!-- Created with Inkscape (http://www.inkscape.org/) -->

<svg
   xmlns:dc="http://purl.org/dc/elements/1.1/"
   xmlns:cc="http://creativecommons.org/ns#"
   xmlns:rdf="http://www.w3.org/1999/02/22-rdf-syntax-ns#"
   xmlns:svg="http://www.w3.org/2000/svg"
   xmlns="http://www.w3.org/2000/svg"
   xmlns:sodipodi="http://sodipodi.sourceforge.net/DTD/sodipodi-0.dtd"
   xmlns:inkscape="http://www.inkscape.org/namespaces/inkscape"
   version="1.1"
   id="svg2"
   width="86.953506mm"
   height="43.41695mm"
   viewBox="0 0 328.64317 164.09555"
   sodipodi:docname="lists-transpose-otp.svg"
   inkscape:version="0.92.3 (2405546, 2018-03-11)">
  <metadata
     id="metadata8">
    <rdf:RDF>
      <cc:Work
         rdf:about="">
        <dc:format>image/svg+xml</dc:format>
        <dc:type
           rdf:resource="http://purl.org/dc/dcmitype/StillImage" />
        <dc:title></dc:title>
      </cc:Work>
    </rdf:RDF>
  </metadata>
  <defs
     id="defs6" />
  <sodipodi:namedview
     pagecolor="#ffffff"
     bordercolor="#666666"
     borderopacity="1"
     objecttolerance="10"
     gridtolerance="10"
     guidetolerance="10"
     inkscape:pageopacity="0"
     inkscape:pageshadow="2"
     inkscape:window-width="1600"
     inkscape:window-height="832"
     id="namedview4"
     showgrid="false"
     inkscape:zoom="1.651804"
     inkscape:cx="211.87864"
     inkscape:cy="145.861"
     inkscape:window-x="0"
     inkscape:window-y="32"
     inkscape:window-maximized="1"
     inkscape:current-layer="svg2"
     units="mm"
     fit-margin-top="5"
     fit-margin-left="5"
     fit-margin-bottom="5"
     fit-margin-right="5" />
  <g
     id="g5848"
     transform="translate(-0.08307098)">
    <g
       aria-label="x"
       style="font-style:normal;font-weight:normal;font-size:40px;line-height:1.25;font-family:sans-serif;letter-spacing:0px;word-spacing:0px;fill:#000000;fill-opacity:1;stroke:none;stroke-width:1.13385832;stroke-miterlimit:4;stroke-dasharray:none;paint-order:markers fill stroke"
       id="text919">
      <path
         d="m 71.341377,26.413263 2.257813,-3.132812 h 1.695312 l -3.148437,4.179687 3.234375,4.273438 h -1.671875 l -2.335938,-3.21875 -2.335937,3.21875 h -1.6875 l 3.234375,-4.273438 -3.148438,-4.179687 h 1.671875 z"
         style="font-style:normal;font-variant:normal;font-weight:normal;font-stretch:normal;font-size:16px;font-family:'Roboto Mono';-inkscape-font-specification:'Roboto Mono';stroke-width:1.13385832;stroke-miterlimit:4;stroke-dasharray:none;paint-order:markers fill stroke"
         id="path82" />
    </g>
    <path
       style="fill:none;fill-opacity:1;stroke:#000000;stroke-width:1.13385832;stroke-miterlimit:4;stroke-dasharray:none;paint-order:markers fill stroke"
       d="m 24.065423,47.506569 h 94.598787 c 2.50285,0 4.51778,2.014932 4.51778,4.517785 V 140.1132 c 0,2.50286 -2.01493,4.51779 -4.51778,4.51779 H 24.065423 c -2.502853,0 -4.517785,-2.01493 -4.517785,-4.51779 V 52.024354 c 0,-2.502853 2.014932,-4.517785 4.517785,-4.517785 z"
       id="rect923" />
    <g
       id="g5857"
       transform="translate(-73.827042,-0.21706581)"
       style="stroke-width:1.13385832;stroke-miterlimit:4;stroke-dasharray:none">
      <path
         style="fill:#ebebeb;fill-opacity:1;stroke:#000000;stroke-width:1.13385832;stroke-miterlimit:4;stroke-dasharray:none;paint-order:markers fill stroke"
         d="m 104.4207,53.823902 h 81.54231 c 2.40461,0 4.34045,1.93584 4.34045,4.340449 v 30.838085 c 0,2.404608 -1.93584,4.340448 -4.34045,4.340448 H 104.4207 c -2.40461,0 -4.34045,-1.93584 -4.34045,-4.340448 V 58.164351 c 0,-2.404609 1.93584,-4.340449 4.34045,-4.340449 z"
         id="rect945" />
      <g
         id="g5901"
         transform="translate(0.32106139)"
         style="stroke-width:1.13385832;stroke-miterlimit:4;stroke-dasharray:none">
        <g
           transform="translate(-2.1646233e-6)"
           id="g5877"
           style="stroke-width:1.13385832;stroke-miterlimit:4;stroke-dasharray:none">
          <path
             style="fill:#d6d6d6;fill-opacity:1;stroke:#000000;stroke-width:1.13385832;stroke-miterlimit:4;stroke-dasharray:none;paint-order:markers fill stroke"
             d="m 105.76072,61.950233 h 21.32743 v 23.266291 h -21.32743 z"
             id="rect903" />
          <g
             aria-label="1"
             style="font-style:normal;font-weight:normal;font-size:40px;line-height:1.25;font-family:sans-serif;letter-spacing:0px;word-spacing:0px;fill:#000000;fill-opacity:1;stroke:none;stroke-width:1.13385832;stroke-miterlimit:4;stroke-dasharray:none;paint-order:markers fill stroke"
             id="text907">
            <path
               d="m 117.7799,79.298225 h -1.45313 v -9.632812 l -2.91406,1.070312 v -1.3125 l 4.14063,-1.554687 h 0.22656 z"
               style="font-style:normal;font-variant:normal;font-weight:normal;font-stretch:normal;font-size:16px;font-family:Roboto;-inkscape-font-specification:Roboto;stroke-width:1.13385832;stroke-miterlimit:4;stroke-dasharray:none;paint-order:markers fill stroke"
               id="path88" />
          </g>
        </g>
        <g
           transform="translate(-0.19296481)"
           id="g5882"
           style="stroke-width:1.13385832;stroke-miterlimit:4;stroke-dasharray:none">
          <path
             style="fill:#d6d6d6;fill-opacity:1;stroke:#000000;stroke-width:1.13385832;stroke-miterlimit:4;stroke-dasharray:none;paint-order:markers fill stroke"
             d="m 134.40005,61.950233 h 21.32744 v 23.266291 h -21.32744 z"
             id="rect909" />
          <g
             aria-label="3"
             style="font-style:normal;font-weight:normal;font-size:40px;line-height:1.25;font-family:sans-serif;letter-spacing:0px;word-spacing:0px;fill:#000000;fill-opacity:1;stroke:none;stroke-width:1.13385832;stroke-miterlimit:4;stroke-dasharray:none;paint-order:markers fill stroke"
             id="text913">
            <path
               d="m 143.59111,72.9076 h 1.08594 q 1.02344,-0.01563 1.60937,-0.539062 0.58594,-0.523438 0.58594,-1.414063 0,-2 -1.99219,-2 -0.9375,0 -1.5,0.539063 -0.55468,0.53125 -0.55468,1.414062 h -1.44532 q 0,-1.351562 0.98438,-2.242187 0.99219,-0.898438 2.51562,-0.898438 1.60938,0 2.52344,0.851563 0.91406,0.851562 0.91406,2.367187 0,0.742188 -0.48437,1.4375 -0.47656,0.695313 -1.30469,1.039063 0.9375,0.296875 1.44531,0.984375 0.51563,0.6875 0.51563,1.679687 0,1.53125 -1,2.429688 -1,0.898437 -2.60156,0.898437 -1.60157,0 -2.60938,-0.867187 -1,-0.867188 -1,-2.289063 h 1.45313 q 0,0.898438 0.58593,1.4375 0.58594,0.539063 1.57032,0.539063 1.04687,0 1.60156,-0.546875 0.55469,-0.546875 0.55469,-1.570313 0,-0.992187 -0.60938,-1.523437 -0.60937,-0.53125 -1.75781,-0.546875 h -1.08594 z"
               style="font-style:normal;font-variant:normal;font-weight:normal;font-stretch:normal;font-size:16px;font-family:Roboto;-inkscape-font-specification:Roboto;stroke-width:1.13385832;stroke-miterlimit:4;stroke-dasharray:none;paint-order:markers fill stroke"
               id="path92" />
          </g>
        </g>
        <g
           transform="translate(-2.1646233e-6)"
           id="g5887"
           style="stroke-width:1.13385832;stroke-miterlimit:4;stroke-dasharray:none">
          <path
             style="fill:#d6d6d6;fill-opacity:1;stroke:#000000;stroke-width:1.13385832;stroke-miterlimit:4;stroke-dasharray:none;paint-order:markers fill stroke"
             d="m 162.65344,61.950233 h 21.32744 v 23.266291 h -21.32744 z"
             id="rect5868" />
          <g
             aria-label="5"
             style="font-style:normal;font-weight:normal;font-size:40px;line-height:1.25;font-family:sans-serif;letter-spacing:0px;word-spacing:0px;fill:#000000;fill-opacity:1;stroke:none;stroke-width:1.13385832;stroke-miterlimit:4;stroke-dasharray:none;paint-order:markers fill stroke"
             id="text5872">
            <path
               d="m 170.14919,73.5951 0.57812,-5.671875 h 5.82813 v 1.335938 h -4.60157 l -0.34375,3.101562 q 0.83594,-0.492187 1.89844,-0.492187 1.55469,0 2.46875,1.03125 0.91406,1.023437 0.91406,2.773437 0,1.757813 -0.95312,2.773438 -0.94531,1.007812 -2.64844,1.007812 -1.50781,0 -2.46094,-0.835937 -0.95312,-0.835938 -1.08593,-2.3125 h 1.36718 q 0.13282,0.976562 0.69532,1.476562 0.5625,0.492188 1.48437,0.492188 1.00781,0 1.57813,-0.6875 0.57812,-0.6875 0.57812,-1.898438 0,-1.140625 -0.625,-1.828125 -0.61719,-0.695312 -1.64844,-0.695312 -0.94531,0 -1.48437,0.414062 l -0.38281,0.3125 z"
               style="font-style:normal;font-variant:normal;font-weight:normal;font-stretch:normal;font-size:16px;font-family:Roboto;-inkscape-font-specification:Roboto;stroke-width:1.13385832;stroke-miterlimit:4;stroke-dasharray:none;paint-order:markers fill stroke"
               id="path96" />
          </g>
        </g>
      </g>
      <path
         style="fill:#ebebeb;fill-opacity:1;stroke:#000000;stroke-width:1.13385832;stroke-miterlimit:4;stroke-dasharray:none;paint-order:markers fill stroke"
         d="m 104.4207,99.228806 h 81.54231 c 2.40461,0 4.34045,1.935844 4.34045,4.340444 v 30.83809 c 0,2.40461 -1.93584,4.34045 -4.34045,4.34045 H 104.4207 c -2.40461,0 -4.34045,-1.93584 -4.34045,-4.34045 v -30.83809 c 0,-2.4046 1.93584,-4.340444 4.34045,-4.340444 z"
         id="rect5903" />
      <g
         transform="translate(0.32106139,45.404903)"
         id="g5929"
         style="stroke-width:1.13385832;stroke-miterlimit:4;stroke-dasharray:none">
        <g
           id="g5911"
           transform="translate(-2.1646233e-6)"
           style="stroke-width:1.13385832;stroke-miterlimit:4;stroke-dasharray:none">
          <path
             style="fill:#d6d6d6;fill-opacity:1;stroke:#000000;stroke-width:1.13385832;stroke-miterlimit:4;stroke-dasharray:none;paint-order:markers fill stroke"
             d="m 105.76072,61.950233 h 21.32743 v 23.266291 h -21.32743 z"
             id="rect5905" />
          <g
             aria-label="2"
             style="font-style:normal;font-weight:normal;font-size:40px;line-height:1.25;font-family:sans-serif;letter-spacing:0px;word-spacing:0px;fill:#000000;fill-opacity:1;stroke:none;stroke-width:1.13385832;stroke-miterlimit:4;stroke-dasharray:none;paint-order:markers fill stroke"
             id="text5909">
            <path
               d="m 120.48302,79.298225 h -7.45312 v -1.039062 l 3.9375,-4.375 q 0.875,-0.992188 1.20312,-1.609375 0.33594,-0.625 0.33594,-1.289063 0,-0.890625 -0.53906,-1.460937 -0.53906,-0.570313 -1.4375,-0.570313 -1.07813,0 -1.67969,0.617188 -0.59375,0.609375 -0.59375,1.703125 h -1.44531 q 0,-1.570313 1.00781,-2.539063 1.01563,-0.96875 2.71094,-0.96875 1.58594,0 2.50781,0.835938 0.92188,0.828125 0.92188,2.210937 0,1.679688 -2.14063,4 l -3.04687,3.304688 h 5.71093 z"
               style="font-style:normal;font-variant:normal;font-weight:normal;font-stretch:normal;font-size:16px;font-family:Roboto;-inkscape-font-specification:Roboto;stroke-width:1.13385832;stroke-miterlimit:4;stroke-dasharray:none;paint-order:markers fill stroke"
               id="path101" />
          </g>
        </g>
        <g
           id="g5919"
           transform="translate(-0.19296481)"
           style="stroke-width:1.13385832;stroke-miterlimit:4;stroke-dasharray:none">
          <path
             style="fill:#d6d6d6;fill-opacity:1;stroke:#000000;stroke-width:1.13385832;stroke-miterlimit:4;stroke-dasharray:none;paint-order:markers fill stroke"
             d="m 134.40005,61.950233 h 21.32744 v 23.266291 h -21.32744 z"
             id="rect5913" />
          <g
             aria-label="4"
             style="font-style:normal;font-weight:normal;font-size:40px;line-height:1.25;font-family:sans-serif;letter-spacing:0px;word-spacing:0px;fill:#000000;fill-opacity:1;stroke:none;stroke-width:1.13385832;stroke-miterlimit:4;stroke-dasharray:none;paint-order:markers fill stroke"
             id="text5917">
            <path
               d="m 147.59111,75.477913 h 1.57813 V 76.6576 h -1.57813 v 2.640625 h -1.45312 V 76.6576 h -5.17969 v -0.851562 l 5.09375,-7.882813 h 1.53906 z m -4.99219,0 h 3.53907 v -5.578125 l -0.17188,0.3125 z"
               style="font-style:normal;font-variant:normal;font-weight:normal;font-stretch:normal;font-size:16px;font-family:Roboto;-inkscape-font-specification:Roboto;stroke-width:1.13385832;stroke-miterlimit:4;stroke-dasharray:none;paint-order:markers fill stroke"
               id="path105" />
          </g>
        </g>
        <g
           id="g5927"
           transform="translate(-2.1646233e-6)"
           style="stroke-width:1.13385832;stroke-miterlimit:4;stroke-dasharray:none">
          <path
             style="fill:#d6d6d6;fill-opacity:1;stroke:#000000;stroke-width:1.13385832;stroke-miterlimit:4;stroke-dasharray:none;paint-order:markers fill stroke"
             d="m 162.65344,61.950233 h 21.32744 v 23.266291 h -21.32744 z"
             id="rect5921" />
          <g
             aria-label="6"
             style="font-style:normal;font-weight:normal;font-size:40px;line-height:1.25;font-family:sans-serif;letter-spacing:0px;word-spacing:0px;fill:#000000;fill-opacity:1;stroke:none;stroke-width:1.13385832;stroke-miterlimit:4;stroke-dasharray:none;paint-order:markers fill stroke"
             id="text5925">
            <path
               d="m 175.157,67.915413 v 1.226562 h -0.26563 q -1.6875,0.03125 -2.6875,1 -1,0.96875 -1.15625,2.726563 0.89844,-1.03125 2.45313,-1.03125 1.48437,0 2.36719,1.046875 0.89062,1.046875 0.89062,2.703125 0,1.757812 -0.96094,2.8125 -0.95312,1.054687 -2.5625,1.054687 -1.63281,0 -2.64843,-1.25 -1.01563,-1.257812 -1.01563,-3.234375 v -0.554687 q 0,-3.140625 1.33594,-4.796875 1.34375,-1.664063 3.99219,-1.703125 z m -1.89844,5.125 q -0.74219,0 -1.36719,0.445312 -0.625,0.445313 -0.86718,1.117188 v 0.53125 q 0,1.40625 0.63281,2.265625 0.63281,0.859375 1.57812,0.859375 0.97657,0 1.53125,-0.71875 0.5625,-0.71875 0.5625,-1.882813 0,-1.171875 -0.57031,-1.890625 -0.5625,-0.726562 -1.5,-0.726562 z"
               style="font-style:normal;font-variant:normal;font-weight:normal;font-stretch:normal;font-size:16px;font-family:Roboto;-inkscape-font-specification:Roboto;stroke-width:1.13385832;stroke-miterlimit:4;stroke-dasharray:none;paint-order:markers fill stroke"
               id="path109" />
          </g>
        </g>
      </g>
    </g>
    <g
       aria-label="transpose(x)"
       style="font-style:normal;font-weight:normal;font-size:40px;line-height:1.25;font-family:sans-serif;letter-spacing:0px;word-spacing:0px;fill:#000000;fill-opacity:1;stroke:none;stroke-width:1.13385832;stroke-miterlimit:4;stroke-dasharray:none;paint-order:markers fill stroke"
       id="text6395">
      <path
         d="m 178.76939,21.233576 v 2.046875 h 3.21875 v 1.117187 h -3.21875 v 4.59375 q 0,0.492188 0.125,0.8125 0.125,0.320313 0.34375,0.515625 0.21875,0.1875 0.5,0.265625 0.28907,0.07813 0.60938,0.07813 0.23437,0 0.48437,-0.02344 0.25,-0.03125 0.48438,-0.07031 0.24219,-0.03906 0.44531,-0.07813 0.21094,-0.04687 0.34375,-0.07813 l 0.20313,1.023438 q -0.17969,0.109375 -0.4375,0.195312 -0.25782,0.07813 -0.5625,0.132813 -0.30469,0.0625 -0.64844,0.09375 -0.33594,0.03125 -0.67188,0.03125 -0.5625,0 -1.05468,-0.15625 -0.48438,-0.164063 -0.84375,-0.507813 -0.35938,-0.351562 -0.57032,-0.898437 -0.20312,-0.554688 -0.20312,-1.335938 v -4.59375 h -2.21875 v -1.117187 h 2.21875 v -2.046875 z"
         style="font-style:normal;font-variant:normal;font-weight:normal;font-stretch:normal;font-size:16px;font-family:'Roboto Mono';-inkscape-font-specification:'Roboto Mono';stroke-width:1.13385832;stroke-miterlimit:4;stroke-dasharray:none;paint-order:markers fill stroke"
         id="path112" />
      <path
         d="m 190.48033,23.124201 q 0.20313,0 0.42188,0.01563 0.21875,0.0078 0.41406,0.03906 0.20312,0.02344 0.36719,0.0625 0.17187,0.03906 0.28125,0.08594 l -0.19532,1.414062 q -0.42187,-0.09375 -0.80468,-0.132812 -0.375,-0.04687 -0.78907,-0.04687 -1.01562,0 -1.64843,0.460937 -0.625,0.460938 -0.92188,1.289063 v 5.421875 h -1.45312 v -8.453125 h 1.375 l 0.0703,1.34375 q 0.51562,-0.695313 1.23437,-1.09375 0.72657,-0.40625 1.64844,-0.40625 z"
         style="font-style:normal;font-variant:normal;font-weight:normal;font-stretch:normal;font-size:16px;font-family:'Roboto Mono';-inkscape-font-specification:'Roboto Mono';stroke-width:1.13385832;stroke-miterlimit:4;stroke-dasharray:none;paint-order:markers fill stroke"
         id="path114" />
      <path
         d="m 200.08971,31.733576 q -0.0859,-0.164063 -0.14063,-0.40625 -0.0469,-0.25 -0.0703,-0.515625 -0.21875,0.21875 -0.49219,0.414062 -0.26562,0.195313 -0.59375,0.34375 -0.32031,0.148438 -0.6875,0.234375 -0.36719,0.08594 -0.78125,0.08594 -0.67187,0 -1.21875,-0.195313 -0.53906,-0.195312 -0.92187,-0.523437 -0.375,-0.335938 -0.58594,-0.789063 -0.20313,-0.460937 -0.20313,-0.992187 0,-0.695313 0.27344,-1.21875 0.28125,-0.523438 0.78906,-0.867188 0.50782,-0.351562 1.21875,-0.523437 0.71875,-0.171875 1.60157,-0.171875 h 1.57812 v -0.664063 q 0,-0.382812 -0.14062,-0.6875 -0.14063,-0.304687 -0.39844,-0.515625 -0.25781,-0.21875 -0.63281,-0.335937 -0.36719,-0.117188 -0.82813,-0.117188 -0.42969,0 -0.77344,0.109375 -0.33593,0.109375 -0.57031,0.289063 -0.23437,0.179687 -0.36719,0.429687 -0.125,0.242188 -0.125,0.507813 h -1.45312 q 0.008,-0.460938 0.23437,-0.90625 0.23438,-0.445313 0.66407,-0.796875 0.4375,-0.359375 1.05468,-0.578125 0.625,-0.21875 1.41407,-0.21875 0.71875,0 1.33593,0.179687 0.61719,0.171875 1.0625,0.53125 0.45313,0.351563 0.71094,0.882813 0.25781,0.53125 0.25781,1.242187 v 3.929688 q 0,0.421875 0.0781,0.898437 0.0781,0.46875 0.21875,0.820313 v 0.125 z m -2.55469,-1.101563 q 0.42187,0 0.78906,-0.109375 0.36719,-0.109375 0.66406,-0.289062 0.30469,-0.179688 0.52344,-0.40625 0.21875,-0.234375 0.34375,-0.484375 v -1.710938 h -1.34375 q -1.26562,0 -1.96875,0.375 -0.70312,0.375 -0.70312,1.179688 0,0.3125 0.10156,0.578125 0.10937,0.265625 0.32031,0.460937 0.21094,0.1875 0.53125,0.296875 0.32031,0.109375 0.74219,0.109375 z"
         style="font-style:normal;font-variant:normal;font-weight:normal;font-stretch:normal;font-size:16px;font-family:'Roboto Mono';-inkscape-font-specification:'Roboto Mono';stroke-width:1.13385832;stroke-miterlimit:4;stroke-dasharray:none;paint-order:markers fill stroke"
         id="path116" />
      <path
         d="m 205.42564,23.280451 0.10157,1.25 q 0.46093,-0.65625 1.13281,-1.023438 0.67187,-0.375 1.5,-0.382812 0.66406,0 1.20312,0.1875 0.54688,0.1875 0.92969,0.585937 0.38281,0.398438 0.58594,1.015625 0.21094,0.609375 0.21094,1.453125 v 5.367188 h -1.44532 v -5.335938 q 0,-0.5625 -0.125,-0.953125 -0.125,-0.390625 -0.375,-0.632812 -0.24218,-0.242188 -0.60156,-0.351563 -0.35156,-0.109375 -0.8125,-0.109375 -0.72656,0 -1.28125,0.367188 -0.54687,0.359375 -0.875,0.953125 v 6.0625 h -1.44531 v -8.453125 z"
         style="font-style:normal;font-variant:normal;font-weight:normal;font-stretch:normal;font-size:16px;font-family:'Roboto Mono';-inkscape-font-specification:'Roboto Mono';stroke-width:1.13385832;stroke-miterlimit:4;stroke-dasharray:none;paint-order:markers fill stroke"
         id="path118" />
      <path
         d="m 219.33971,29.491388 q 0,-0.257812 -0.10157,-0.460937 -0.10156,-0.210938 -0.34375,-0.382813 -0.24218,-0.171875 -0.64062,-0.3125 -0.39844,-0.148437 -0.99219,-0.265625 -0.72656,-0.148437 -1.32812,-0.359375 -0.59375,-0.210937 -1.02344,-0.5 -0.42188,-0.296875 -0.65625,-0.6875 -0.23438,-0.398437 -0.23438,-0.921875 0,-0.515625 0.24219,-0.960937 0.24219,-0.453125 0.67969,-0.789063 0.4375,-0.335937 1.03906,-0.53125 0.60938,-0.195312 1.33594,-0.195312 0.78125,0 1.40625,0.203125 0.625,0.203125 1.0625,0.5625 0.4375,0.359375 0.67187,0.84375 0.24219,0.476562 0.24219,1.03125 h -1.44531 q 0,-0.273438 -0.14063,-0.53125 -0.14062,-0.265625 -0.39062,-0.46875 -0.25,-0.203125 -0.60938,-0.328125 -0.35156,-0.125 -0.79687,-0.125 -0.46094,0 -0.8125,0.101562 -0.34375,0.101563 -0.57813,0.273438 -0.22656,0.171875 -0.34375,0.398437 -0.11718,0.226563 -0.11718,0.46875 0,0.25 0.0937,0.445313 0.0937,0.195312 0.32031,0.351562 0.23437,0.15625 0.61719,0.28125 0.39062,0.125 0.98437,0.242188 0.78125,0.164062 1.39844,0.382812 0.61719,0.210938 1.03906,0.515625 0.42188,0.296875 0.64063,0.695313 0.22656,0.398437 0.22656,0.921875 0,0.5625 -0.25781,1.023437 -0.25,0.460938 -0.70313,0.789063 -0.45312,0.328125 -1.08594,0.507812 -0.63281,0.179688 -1.38281,0.179688 -0.85937,0 -1.53125,-0.226563 -0.67187,-0.234375 -1.14062,-0.609375 -0.46094,-0.382812 -0.71094,-0.882812 -0.24219,-0.5 -0.24219,-1.039063 h 1.44531 q 0.0312,0.445313 0.23438,0.75 0.21094,0.304688 0.51562,0.492188 0.3125,0.1875 0.6875,0.265625 0.375,0.07813 0.74219,0.07813 0.91406,0 1.44531,-0.335938 0.53125,-0.335937 0.53907,-0.890625 z"
         style="font-style:normal;font-variant:normal;font-weight:normal;font-stretch:normal;font-size:16px;font-family:'Roboto Mono';-inkscape-font-specification:'Roboto Mono';stroke-width:1.13385832;stroke-miterlimit:4;stroke-dasharray:none;paint-order:markers fill stroke"
         id="path120" />
      <path
         d="m 230.44908,27.600763 q 0,0.90625 -0.21875,1.695313 -0.21875,0.78125 -0.64062,1.359375 -0.42188,0.578125 -1.04688,0.90625 -0.61719,0.328125 -1.41406,0.328125 -0.77344,0 -1.36719,-0.25 -0.58594,-0.25 -1.00781,-0.71875 v 4.0625 h -1.44531 V 23.280451 h 1.32031 l 0.0703,0.921875 q 0.42188,-0.523438 1.01563,-0.796875 0.60156,-0.28125 1.39062,-0.28125 0.8125,0 1.4375,0.320312 0.625,0.320313 1.04688,0.890625 0.42187,0.570313 0.64062,1.367188 0.21875,0.789062 0.21875,1.734375 z m -1.44531,-0.164062 q 0,-0.617188 -0.14063,-1.171875 -0.13281,-0.5625 -0.42187,-0.984375 -0.28125,-0.429688 -0.71875,-0.679688 -0.4375,-0.25 -1.04688,-0.25 -0.69531,0 -1.17187,0.328125 -0.46875,0.320313 -0.75,0.828125 v 4.070313 q 0.28125,0.5 0.75,0.820312 0.46875,0.3125 1.1875,0.3125 0.60156,0 1.03906,-0.25 0.4375,-0.257812 0.71875,-0.6875 0.28125,-0.429687 0.41406,-0.992187 0.14063,-0.5625 0.14063,-1.179688 z"
         style="font-style:normal;font-variant:normal;font-weight:normal;font-stretch:normal;font-size:16px;font-family:'Roboto Mono';-inkscape-font-specification:'Roboto Mono';stroke-width:1.13385832;stroke-miterlimit:4;stroke-dasharray:none;paint-order:markers fill stroke"
         id="path122" />
      <path
         d="m 232.50377,27.428888 q 0,-0.914062 0.26562,-1.695312 0.26563,-0.789063 0.75782,-1.367188 0.5,-0.578125 1.21093,-0.90625 0.71094,-0.335937 1.60157,-0.335937 0.89843,0 1.60937,0.335937 0.71875,0.328125 1.21094,0.90625 0.5,0.578125 0.76562,1.367188 0.26563,0.78125 0.26563,1.695312 v 0.171875 q 0,0.914063 -0.26563,1.695313 -0.26562,0.78125 -0.76562,1.359375 -0.49219,0.578125 -1.20313,0.90625 -0.71093,0.328125 -1.60156,0.328125 -0.89844,0 -1.61719,-0.328125 -0.71093,-0.328125 -1.21093,-0.90625 -0.49219,-0.578125 -0.75782,-1.359375 -0.26562,-0.78125 -0.26562,-1.695313 z m 1.44531,0.171875 q 0,0.625 0.14844,1.195313 0.14844,0.5625 0.44531,0.992187 0.30469,0.429688 0.75781,0.679688 0.45313,0.25 1.05469,0.25 0.59375,0 1.03906,-0.25 0.45313,-0.25 0.75,-0.679688 0.30469,-0.429687 0.45313,-0.992187 0.14844,-0.570313 0.14844,-1.195313 v -0.171875 q 0,-0.617187 -0.15625,-1.179687 -0.14844,-0.570313 -0.45313,-1 -0.29687,-0.429688 -0.75,-0.679688 -0.44531,-0.257812 -1.04687,-0.257812 -0.60157,0 -1.04688,0.257812 -0.44531,0.25 -0.75,0.679688 -0.29687,0.429687 -0.44531,1 -0.14844,0.5625 -0.14844,1.179687 z"
         style="font-style:normal;font-variant:normal;font-weight:normal;font-stretch:normal;font-size:16px;font-family:'Roboto Mono';-inkscape-font-specification:'Roboto Mono';stroke-width:1.13385832;stroke-miterlimit:4;stroke-dasharray:none;paint-order:markers fill stroke"
         id="path124" />
      <path
         d="m 248.12096,29.491388 q 0,-0.257812 -0.10157,-0.460937 -0.10156,-0.210938 -0.34375,-0.382813 -0.24218,-0.171875 -0.64062,-0.3125 -0.39844,-0.148437 -0.99219,-0.265625 -0.72656,-0.148437 -1.32812,-0.359375 -0.59375,-0.210937 -1.02344,-0.5 -0.42188,-0.296875 -0.65625,-0.6875 -0.23438,-0.398437 -0.23438,-0.921875 0,-0.515625 0.24219,-0.960937 0.24219,-0.453125 0.67969,-0.789063 0.4375,-0.335937 1.03906,-0.53125 0.60938,-0.195312 1.33594,-0.195312 0.78125,0 1.40625,0.203125 0.625,0.203125 1.0625,0.5625 0.4375,0.359375 0.67187,0.84375 0.24219,0.476562 0.24219,1.03125 h -1.44531 q 0,-0.273438 -0.14063,-0.53125 -0.14062,-0.265625 -0.39062,-0.46875 -0.25,-0.203125 -0.60938,-0.328125 -0.35156,-0.125 -0.79687,-0.125 -0.46094,0 -0.8125,0.101562 -0.34375,0.101563 -0.57813,0.273438 -0.22656,0.171875 -0.34375,0.398437 -0.11718,0.226563 -0.11718,0.46875 0,0.25 0.0937,0.445313 0.0937,0.195312 0.32031,0.351562 0.23437,0.15625 0.61719,0.28125 0.39062,0.125 0.98437,0.242188 0.78125,0.164062 1.39844,0.382812 0.61719,0.210938 1.03906,0.515625 0.42188,0.296875 0.64063,0.695313 0.22656,0.398437 0.22656,0.921875 0,0.5625 -0.25781,1.023437 -0.25,0.460938 -0.70313,0.789063 -0.45312,0.328125 -1.08594,0.507812 -0.63281,0.179688 -1.38281,0.179688 -0.85937,0 -1.53125,-0.226563 -0.67187,-0.234375 -1.14062,-0.609375 -0.46094,-0.382812 -0.71094,-0.882812 -0.24219,-0.5 -0.24219,-1.039063 h 1.44531 q 0.0312,0.445313 0.23438,0.75 0.21094,0.304688 0.51562,0.492188 0.3125,0.1875 0.6875,0.265625 0.375,0.07813 0.74219,0.07813 0.91406,0 1.44531,-0.335938 0.53125,-0.335937 0.53907,-0.890625 z"
         style="font-style:normal;font-variant:normal;font-weight:normal;font-stretch:normal;font-size:16px;font-family:'Roboto Mono';-inkscape-font-specification:'Roboto Mono';stroke-width:1.13385832;stroke-miterlimit:4;stroke-dasharray:none;paint-order:markers fill stroke"
         id="path126" />
      <path
         d="m 255.83189,31.889826 q -0.89062,0 -1.64062,-0.304688 -0.74219,-0.304687 -1.27344,-0.851562 -0.53125,-0.546875 -0.82812,-1.296875 -0.29688,-0.75 -0.29688,-1.632813 v -0.328125 q 0,-1.023437 0.32813,-1.828125 0.32812,-0.8125 0.86718,-1.367187 0.54688,-0.5625 1.23438,-0.859375 0.69531,-0.296875 1.42187,-0.296875 0.91407,0 1.59375,0.320312 0.6875,0.3125 1.14063,0.875 0.45312,0.554688 0.67187,1.3125 0.22657,0.757813 0.22657,1.640625 v 0.648438 h -6.03907 q 0.0234,0.578125 0.21875,1.085937 0.20313,0.507813 0.54688,0.890625 0.35156,0.375 0.83594,0.59375 0.48437,0.21875 1.07031,0.21875 0.77344,0 1.375,-0.3125 0.60156,-0.3125 1,-0.828125 l 0.88281,0.6875 q -0.21094,0.320313 -0.53125,0.617188 -0.3125,0.289062 -0.72656,0.515625 -0.41406,0.226562 -0.9375,0.359375 -0.52344,0.140625 -1.14063,0.140625 z m -0.1875,-7.578125 q -0.4375,0 -0.82812,0.164062 -0.39063,0.15625 -0.70313,0.46875 -0.3125,0.304688 -0.53125,0.757813 -0.21093,0.445312 -0.29687,1.03125 h 4.54687 v -0.109375 q -0.0234,-0.421875 -0.16406,-0.835938 -0.13281,-0.414062 -0.39844,-0.742187 -0.26562,-0.328125 -0.67187,-0.53125 -0.39844,-0.203125 -0.95313,-0.203125 z"
         style="font-style:normal;font-variant:normal;font-weight:normal;font-stretch:normal;font-size:16px;font-family:'Roboto Mono';-inkscape-font-specification:'Roboto Mono';stroke-width:1.13385832;stroke-miterlimit:4;stroke-dasharray:none;paint-order:markers fill stroke"
         id="path128" />
      <path
         d="m 263.12096,27.116388 q 0,-1.117187 0.17187,-2.101562 0.17969,-0.984375 0.47656,-1.820313 0.29688,-0.84375 0.67969,-1.539062 0.39063,-0.695313 0.8125,-1.234375 0.42969,-0.539063 0.85938,-0.921875 0.42968,-0.382813 0.82031,-0.601563 l 0.30469,0.953125 q -0.48438,0.367188 -0.96875,1 -0.47657,0.632813 -0.85938,1.539063 -0.375,0.898437 -0.61719,2.078125 -0.23437,1.171875 -0.23437,2.632812 v 0.109375 q 0,1.460938 0.23437,2.640625 0.24219,1.179688 0.61719,2.085938 0.38281,0.90625 0.85938,1.546875 0.48437,0.648437 0.96875,1.039062 l -0.30469,0.882813 q -0.39063,-0.21875 -0.82813,-0.601563 -0.42968,-0.375 -0.85937,-0.921875 -0.42188,-0.539062 -0.8125,-1.234375 -0.38281,-0.6875 -0.67969,-1.523437 -0.28906,-0.84375 -0.46875,-1.828125 -0.17187,-0.984375 -0.17187,-2.101563 z"
         style="font-style:normal;font-variant:normal;font-weight:normal;font-stretch:normal;font-size:16px;font-family:'Roboto Mono';-inkscape-font-specification:'Roboto Mono';stroke-width:1.13385832;stroke-miterlimit:4;stroke-dasharray:none;paint-order:markers fill stroke"
         id="path130" />
      <path
         d="m 274.77721,26.413263 2.25781,-3.132812 h 1.69531 l -3.14844,4.179687 3.23438,4.273438 h -1.67188 l -2.33593,-3.21875 -2.33594,3.21875 h -1.6875 l 3.23437,-4.273438 -3.14843,-4.179687 h 1.67187 z"
         style="font-style:normal;font-variant:normal;font-weight:normal;font-stretch:normal;font-size:16px;font-family:'Roboto Mono';-inkscape-font-specification:'Roboto Mono';stroke-width:1.13385832;stroke-miterlimit:4;stroke-dasharray:none;paint-order:markers fill stroke"
         id="path132" />
      <path
         d="m 286.15221,27.194513 q 0,1.117188 -0.17969,2.101563 -0.17188,0.984375 -0.46875,1.828125 -0.29688,0.835937 -0.6875,1.523437 -0.38281,0.695313 -0.8125,1.234375 -0.42188,0.546875 -0.85938,0.921875 -0.42968,0.382813 -0.82031,0.601563 l -0.30469,-0.882813 q 0.48438,-0.359375 0.96094,-1.007812 0.48438,-0.640625 0.85938,-1.554688 0.38281,-0.914062 0.61718,-2.101562 0.24219,-1.1875 0.24219,-2.648438 v -0.109375 q 0,-1.460937 -0.25,-2.648437 -0.25,-1.195313 -0.64844,-2.109375 -0.39062,-0.921875 -0.86718,-1.5625 -0.46875,-0.640625 -0.91407,-1 l 0.30469,-0.882813 q 0.39063,0.21875 0.82031,0.601563 0.4375,0.382812 0.85938,0.921875 0.42969,0.539062 0.8125,1.234375 0.39062,0.695312 0.6875,1.539062 0.29687,0.835938 0.46875,1.820313 0.17969,0.984375 0.17969,2.101562 z"
         style="font-style:normal;font-variant:normal;font-weight:normal;font-stretch:normal;font-size:16px;font-family:'Roboto Mono';-inkscape-font-specification:'Roboto Mono';stroke-width:1.13385832;stroke-miterlimit:4;stroke-dasharray:none;paint-order:markers fill stroke"
         id="path134" />
    </g>
    <path
       style="fill:none;fill-opacity:1;stroke:#000000;stroke-width:1.13385832;stroke-miterlimit:4;stroke-dasharray:none;paint-order:markers fill stroke"
       d="M 155.88653,47.656071 H 305.3632 c 2.15975,0 3.89847,1.73872 3.89847,3.898477 v 89.028462 c 0,2.15976 -1.73872,3.89848 -3.89847,3.89848 H 155.88653 c -2.15976,0 -3.89848,-1.73872 -3.89848,-3.89848 V 51.554548 c 0,-2.159757 1.73872,-3.898477 3.89848,-3.898477 z"
       id="rect6397" />
    <g
       id="g6627"
       transform="translate(0.63430587)"
       style="stroke-width:1.13385832;stroke-miterlimit:4;stroke-dasharray:none">
      <g
         id="g6455"
         transform="translate(58.022072,-0.21706565)"
         style="stroke-width:1.13385832;stroke-miterlimit:4;stroke-dasharray:none">
        <g
           id="g6425"
           transform="rotate(90,122.02618,76.165504)"
           style="stroke-width:1.13385832;stroke-miterlimit:4;stroke-dasharray:none">
          <g
             transform="translate(11.081333,4.2377909)"
             id="g6534"
             style="stroke-width:1.13385832;stroke-miterlimit:4;stroke-dasharray:none">
            <path
               transform="translate(45.860676,198.19169)"
               style="fill:#ebebeb;fill-opacity:1;stroke:#000000;stroke-width:1.13385832;stroke-miterlimit:4;stroke-dasharray:none;paint-order:markers fill stroke"
               d="m 56.809787,-144.4794 h 56.789453 c 1.67467,0 3.02286,1.94677 3.02286,4.36497 v 31.01228 c 0,2.4182 -1.34819,4.36497 -3.02286,4.36497 H 56.809787 c -1.674669,0 -3.022868,-1.94677 -3.022868,-4.36497 v -31.01228 c 0,-2.4182 1.348199,-4.36497 3.022868,-4.36497 z"
               id="rect6399" />
            <g
               id="g6521"
               transform="translate(0.4175677)"
               style="stroke-width:1.13385832;stroke-miterlimit:4;stroke-dasharray:none">
              <g
                 transform="translate(-2.1646233e-6,1.5489563e-5)"
                 id="g6407"
                 style="stroke-width:1.13385832;stroke-miterlimit:4;stroke-dasharray:none">
                <path
                   style="fill:#d6d6d6;fill-opacity:1;stroke:#000000;stroke-width:1.13385832;stroke-miterlimit:4;stroke-dasharray:none;paint-order:markers fill stroke"
                   d="m 105.76072,61.950233 h 21.32743 v 23.266291 h -21.32743 z"
                   id="rect6401" />
                <g
                   aria-label="1"
                   transform="rotate(-90)"
                   style="font-style:normal;font-weight:normal;font-size:40px;line-height:1.25;font-family:sans-serif;letter-spacing:0px;word-spacing:0px;fill:#000000;fill-opacity:1;stroke:none;stroke-width:1.13385832;stroke-miterlimit:4;stroke-dasharray:none;paint-order:markers fill stroke"
                   id="text6405">
                  <path
                     d="m -71.399788,121.31115 h -1.453125 v -9.63281 l -2.914062,1.07031 v -1.3125 l 4.140625,-1.55469 h 0.226562 z"
                     style="font-style:normal;font-variant:normal;font-weight:normal;font-stretch:normal;font-size:16px;font-family:Roboto;-inkscape-font-specification:Roboto;stroke-width:1.13385832;stroke-miterlimit:4;stroke-dasharray:none;paint-order:markers fill stroke"
                     id="path140" />
                </g>
              </g>
              <g
                 transform="translate(-0.19296481)"
                 id="g6415"
                 style="stroke-width:1.13385832;stroke-miterlimit:4;stroke-dasharray:none">
                <path
                   style="fill:#d6d6d6;fill-opacity:1;stroke:#000000;stroke-width:1.13385832;stroke-miterlimit:4;stroke-dasharray:none;paint-order:markers fill stroke"
                   d="m 134.40005,61.950249 h 21.32744 v 23.26629 h -21.32744 z"
                   id="rect6409" />
                <g
                   aria-label="2"
                   transform="rotate(-90)"
                   style="font-style:normal;font-weight:normal;font-size:40px;line-height:1.25;font-family:sans-serif;letter-spacing:0px;word-spacing:0px;fill:#000000;fill-opacity:1;stroke:none;stroke-width:1.13385832;stroke-miterlimit:4;stroke-dasharray:none;paint-order:markers fill stroke"
                   id="text6413">
                  <path
                     d="m -69.524803,150.57158 h -7.453125 v -1.03906 l 3.9375,-4.375 q 0.875,-0.99219 1.203125,-1.60938 0.335937,-0.625 0.335937,-1.28906 0,-0.89063 -0.539062,-1.46094 -0.539063,-0.57031 -1.4375,-0.57031 -1.078125,0 -1.679688,0.61719 -0.59375,0.60937 -0.59375,1.70312 h -1.445312 q 0,-1.57031 1.007812,-2.53906 1.015625,-0.96875 2.710938,-0.96875 1.585937,0 2.507812,0.83594 0.921875,0.82812 0.921875,2.21093 0,1.67969 -2.140625,4 l -3.046875,3.30469 h 5.710938 z"
                     style="font-style:normal;font-variant:normal;font-weight:normal;font-stretch:normal;font-size:16px;font-family:Roboto;-inkscape-font-specification:Roboto;stroke-width:1.13385832;stroke-miterlimit:4;stroke-dasharray:none;paint-order:markers fill stroke"
                     id="path144" />
                </g>
              </g>
            </g>
          </g>
        </g>
      </g>
      <g
         transform="translate(109.17826,-0.21706565)"
         id="g6560"
         style="stroke-width:1.13385832;stroke-miterlimit:4;stroke-dasharray:none">
        <g
           transform="rotate(90,122.02618,76.165504)"
           id="g6558"
           style="stroke-width:1.13385832;stroke-miterlimit:4;stroke-dasharray:none">
          <g
             id="g6556"
             transform="translate(11.081333,4.2377909)"
             style="stroke-width:1.13385832;stroke-miterlimit:4;stroke-dasharray:none">
            <path
               transform="translate(45.860676,198.19169)"
               style="fill:#ebebeb;fill-opacity:1;stroke:#000000;stroke-width:1.13385832;stroke-miterlimit:4;stroke-dasharray:none;paint-order:markers fill stroke"
               d="m 56.809787,-144.4794 h 56.789453 c 1.67467,0 3.02286,1.94677 3.02286,4.36497 v 31.01228 c 0,2.4182 -1.34819,4.36497 -3.02286,4.36497 H 56.809787 c -1.674669,0 -3.022868,-1.94677 -3.022868,-4.36497 v -31.01228 c 0,-2.4182 1.348199,-4.36497 3.022868,-4.36497 z"
               id="rect6536" />
            <g
               transform="translate(0.4175677)"
               id="g6554"
               style="stroke-width:1.13385832;stroke-miterlimit:4;stroke-dasharray:none">
              <g
                 id="g6544"
                 transform="translate(-2.1646233e-6,1.5489563e-5)"
                 style="stroke-width:1.13385832;stroke-miterlimit:4;stroke-dasharray:none">
                <path
                   style="fill:#d6d6d6;fill-opacity:1;stroke:#000000;stroke-width:1.13385832;stroke-miterlimit:4;stroke-dasharray:none;paint-order:markers fill stroke"
                   d="m 105.76072,61.950233 h 21.32743 v 23.266291 h -21.32743 z"
                   id="rect6538" />
                <g
                   aria-label="3"
                   transform="rotate(-90)"
                   style="font-style:normal;font-weight:normal;font-size:40px;line-height:1.25;font-family:sans-serif;letter-spacing:0px;word-spacing:0px;fill:#000000;fill-opacity:1;stroke:none;stroke-width:1.13385832;stroke-miterlimit:4;stroke-dasharray:none;paint-order:markers fill stroke"
                   id="text6542">
                  <path
                     d="m -74.048225,114.92052 h 1.085937 q 1.023438,-0.0156 1.609375,-0.53906 0.585938,-0.52344 0.585938,-1.41406 0,-2 -1.992188,-2 -0.9375,0 -1.5,0.53906 -0.554687,0.53125 -0.554687,1.41406 h -1.445313 q 0,-1.35156 0.984375,-2.24218 0.992188,-0.89844 2.515625,-0.89844 1.609375,0 2.523438,0.85156 0.914062,0.85156 0.914062,2.36719 0,0.74219 -0.484375,1.4375 -0.476562,0.69531 -1.304687,1.03906 0.9375,0.29688 1.445312,0.98438 0.515625,0.6875 0.515625,1.67968 0,1.53125 -1,2.42969 -1,0.89844 -2.601562,0.89844 -1.601563,0 -2.609375,-0.86719 -1,-0.86719 -1,-2.28906 h 1.453125 q 0,0.89844 0.585937,1.4375 0.585938,0.53906 1.570313,0.53906 1.046875,0 1.601562,-0.54687 0.554688,-0.54688 0.554688,-1.57032 0,-0.99218 -0.609375,-1.52343 -0.609375,-0.53125 -1.757813,-0.54688 h -1.085937 z"
                     style="font-style:normal;font-variant:normal;font-weight:normal;font-stretch:normal;font-size:16px;font-family:Roboto;-inkscape-font-specification:Roboto;stroke-width:1.13385832;stroke-miterlimit:4;stroke-dasharray:none;paint-order:markers fill stroke"
                     id="path149" />
                </g>
              </g>
              <g
                 id="g6552"
                 transform="translate(-0.19296481)"
                 style="stroke-width:1.13385832;stroke-miterlimit:4;stroke-dasharray:none">
                <path
                   style="fill:#d6d6d6;fill-opacity:1;stroke:#000000;stroke-width:1.13385832;stroke-miterlimit:4;stroke-dasharray:none;paint-order:markers fill stroke"
                   d="m 134.40005,61.950249 h 21.32744 v 23.26629 h -21.32744 z"
                   id="rect6546" />
                <g
                   aria-label="4"
                   transform="rotate(-90)"
                   style="font-style:normal;font-weight:normal;font-size:40px;line-height:1.25;font-family:sans-serif;letter-spacing:0px;word-spacing:0px;fill:#000000;fill-opacity:1;stroke:none;stroke-width:1.13385832;stroke-miterlimit:4;stroke-dasharray:none;paint-order:markers fill stroke"
                   id="text6550">
                  <path
                     d="m -70.876366,146.75127 h 1.578125 v 1.17968 h -1.578125 v 2.64063 h -1.453125 v -2.64063 h -5.179687 v -0.85156 l 5.09375,-7.88281 h 1.539062 z m -4.992187,0 h 3.539062 v -5.57813 l -0.171875,0.3125 z"
                     style="font-style:normal;font-variant:normal;font-weight:normal;font-stretch:normal;font-size:16px;font-family:Roboto;-inkscape-font-specification:Roboto;stroke-width:1.13385832;stroke-miterlimit:4;stroke-dasharray:none;paint-order:markers fill stroke"
                     id="path153" />
                </g>
              </g>
            </g>
          </g>
        </g>
      </g>
      <g
         id="g6586"
         transform="translate(160.33445,-0.21706565)"
         style="stroke-width:1.13385832;stroke-miterlimit:4;stroke-dasharray:none">
        <g
           id="g6584"
           transform="rotate(90,122.02618,76.165504)"
           style="stroke-width:1.13385832;stroke-miterlimit:4;stroke-dasharray:none">
          <g
             transform="translate(11.081333,4.2377909)"
             id="g6582"
             style="stroke-width:1.13385832;stroke-miterlimit:4;stroke-dasharray:none">
            <path
               transform="translate(45.860676,198.19169)"
               style="fill:#ebebeb;fill-opacity:1;stroke:#000000;stroke-width:1.13385832;stroke-miterlimit:4;stroke-dasharray:none;paint-order:markers fill stroke"
               d="m 56.809787,-144.4794 h 56.789453 c 1.67467,0 3.02286,1.94677 3.02286,4.36497 v 31.01228 c 0,2.4182 -1.34819,4.36497 -3.02286,4.36497 H 56.809787 c -1.674669,0 -3.022868,-1.94677 -3.022868,-4.36497 v -31.01228 c 0,-2.4182 1.348199,-4.36497 3.022868,-4.36497 z"
               id="rect6562" />
            <g
               id="g6580"
               transform="translate(0.4175677)"
               style="stroke-width:1.13385832;stroke-miterlimit:4;stroke-dasharray:none">
              <g
                 transform="translate(-2.1646233e-6,1.5489563e-5)"
                 id="g6570"
                 style="stroke-width:1.13385832;stroke-miterlimit:4;stroke-dasharray:none">
                <path
                   style="fill:#d6d6d6;fill-opacity:1;stroke:#000000;stroke-width:1.13385832;stroke-miterlimit:4;stroke-dasharray:none;paint-order:markers fill stroke"
                   d="m 105.76072,61.950233 h 21.32743 v 23.266291 h -21.32743 z"
                   id="rect6564" />
                <g
                   aria-label="5"
                   transform="rotate(-90)"
                   style="font-style:normal;font-weight:normal;font-size:40px;line-height:1.25;font-family:sans-serif;letter-spacing:0px;word-spacing:0px;fill:#000000;fill-opacity:1;stroke:none;stroke-width:1.13385832;stroke-miterlimit:4;stroke-dasharray:none;paint-order:markers fill stroke"
                   id="text6568">
                  <path
                     d="m -75.485725,115.60802 0.578125,-5.67187 h 5.828125 v 1.33594 h -4.601563 l -0.34375,3.10156 q 0.835938,-0.49219 1.898438,-0.49219 1.554687,0 2.46875,1.03125 0.914062,1.02344 0.914062,2.77344 0,1.75781 -0.953125,2.77344 -0.945312,1.00781 -2.648437,1.00781 -1.507813,0 -2.460938,-0.83594 -0.953125,-0.83594 -1.085937,-2.3125 h 1.367187 q 0.132813,0.97656 0.695313,1.47656 0.5625,0.49219 1.484375,0.49219 1.007812,0 1.578125,-0.6875 0.578125,-0.6875 0.578125,-1.89844 0,-1.14062 -0.625,-1.82812 -0.617188,-0.69531 -1.648438,-0.69531 -0.945312,0 -1.484375,0.41406 l -0.382812,0.3125 z"
                     style="font-style:normal;font-variant:normal;font-weight:normal;font-stretch:normal;font-size:16px;font-family:Roboto;-inkscape-font-specification:Roboto;stroke-width:1.13385832;stroke-miterlimit:4;stroke-dasharray:none;paint-order:markers fill stroke"
                     id="path158" />
                </g>
              </g>
              <g
                 transform="translate(-0.19296481)"
                 id="g6578"
                 style="stroke-width:1.13385832;stroke-miterlimit:4;stroke-dasharray:none">
                <path
                   style="fill:#d6d6d6;fill-opacity:1;stroke:#000000;stroke-width:1.13385832;stroke-miterlimit:4;stroke-dasharray:none;paint-order:markers fill stroke"
                   d="m 134.40005,61.950249 h 21.32744 v 23.26629 h -21.32744 z"
                   id="rect6572" />
                <g
                   aria-label="6"
                   transform="rotate(-90)"
                   style="font-style:normal;font-weight:normal;font-size:40px;line-height:1.25;font-family:sans-serif;letter-spacing:0px;word-spacing:0px;fill:#000000;fill-opacity:1;stroke:none;stroke-width:1.13385832;stroke-miterlimit:4;stroke-dasharray:none;paint-order:markers fill stroke"
                   id="text6576">
                  <path
                     d="m -71.306053,139.18877 v 1.22656 h -0.265625 q -1.6875,0.0312 -2.6875,1 -1,0.96875 -1.15625,2.72656 0.898437,-1.03125 2.453125,-1.03125 1.484375,0 2.367187,1.04688 0.890625,1.04687 0.890625,2.70312 0,1.75781 -0.960937,2.8125 -0.953125,1.05469 -2.5625,1.05469 -1.632813,0 -2.648438,-1.25 -1.015625,-1.25781 -1.015625,-3.23438 v -0.55468 q 0,-3.14063 1.335938,-4.79688 1.34375,-1.66406 3.992187,-1.70312 z m -1.898438,5.125 q -0.742187,0 -1.367187,0.44531 -0.625,0.44531 -0.867188,1.11719 v 0.53125 q 0,1.40625 0.632813,2.26562 0.632812,0.85938 1.578125,0.85938 0.976562,0 1.53125,-0.71875 0.5625,-0.71875 0.5625,-1.88282 0,-1.17187 -0.570313,-1.89062 -0.5625,-0.72656 -1.5,-0.72656 z"
                     style="font-style:normal;font-variant:normal;font-weight:normal;font-stretch:normal;font-size:16px;font-family:Roboto;-inkscape-font-specification:Roboto;stroke-width:1.13385832;stroke-miterlimit:4;stroke-dasharray:none;paint-order:markers fill stroke"
                     id="path162" />
                </g>
              </g>
            </g>
          </g>
        </g>
      </g>
    </g>
  </g>
</svg>
